<svg xmlns="http://www.w3.org/2000/svg" xmlns:xlink="http://www.w3.org/1999/xlink" contentStyleType="text/css" data-diagram-type="DESCRIPTION" height="674px" preserveAspectRatio="none" style="width:1575px;height:674px;background:#FFFFFF;" version="1.1" viewBox="0 0 1575 674" width="1575px" zoomAndPan="magnify"><?plantuml 1.2026.5?><defs/><rect data-xfeat-white-canvas="true" fill="#FFFFFF" height="100%" width="100%" x="0" y="0"/><g><!--cluster Clients--><g class="cluster" data-qualified-name="Clients" data-source-line="3" id="ent0001"><rect fill="#FFFFFF" height="83" rx="4" ry="4" style="stroke:#CBD5E1;stroke-width:1;" width="299" x="594" y="14"/><text fill="#0F172A" font-family="Helvetica" font-size="14" font-weight="700" lengthAdjust="spacing" textLength="100.3721" x="693.314" y="26.7803">System Clients</text></g><!--cluster Registry--><g class="cluster" data-qualified-name="Registry" data-source-line="7" id="ent0004"><rect fill="#FFFFFF" height="366" rx="4" ry="4" style="stroke:#CBD5E1;stroke-width:1;" width="444" x="1117" y="280"/><text fill="#0F172A" font-family="Helvetica" font-size="14" font-weight="700" lengthAdjust="spacing" textLength="116.71" x="1280.645" y="292.7803">Provider Registry</text></g><!--cluster Abstraction--><g class="cluster" data-qualified-name="Abstraction" data-source-line="18" id="ent0014"><rect fill="#FFFFFF" height="363" rx="4" ry="4" style="stroke:#CBD5E1;stroke-width:1;" width="438" x="7" y="150"/><text fill="#0F172A" font-family="Helvetica" font-size="14" font-weight="700" lengthAdjust="spacing" textLength="119.0342" x="166.4829" y="162.7803">Abstraction Layer</text></g><!--cluster Providers--><g class="cluster" data-qualified-name="Providers" data-source-line="27" id="ent0022"><rect fill="#FFFFFF" height="237" rx="4" ry="4" style="stroke:#CBD5E1;stroke-width:1;" width="624" x="469" y="423"/><text fill="#0F172A" font-family="Helvetica" font-size="14" font-weight="700" lengthAdjust="spacing" textLength="171.9307" x="695.0347" y="435.7803">Provider Implementations</text></g><!--cluster Voice--><g class="cluster" data-qualified-name="Voice" data-source-line="38" id="ent0032"><rect fill="#FFFFFF" height="233" rx="4" ry="4" style="stroke:#CBD5E1;stroke-width:1;" width="148" x="1315" y="7"/><text fill="#0F172A" font-family="Helvetica" font-size="14" font-weight="700" lengthAdjust="spacing" textLength="98.8477" x="1339.5762" y="19.7803">Voice Services</text></g><!--entity NC--><g class="entity" data-qualified-name="Clients.NC" data-source-line="4" id="ent0002"><rect fill="#FFFFFF" height="34" rx="4" ry="4" style="stroke:#64748B;stroke-width:0.5;" width="107.165" x="610.42" y="47"/><text fill="#0F172A" font-family="Helvetica" font-size="14" lengthAdjust="spacing" textLength="87.165" x="620.42" y="67.7803">Nanobot Core</text></g><!--entity CLI--><g class="entity" data-qualified-name="Clients.CLI" data-source-line="5" id="ent0003"><rect fill="#FFFFFF" height="34" rx="4" ry="4" style="stroke:#64748B;stroke-width:0.5;" width="117.2549" x="759.37" y="47"/><text fill="#0F172A" font-family="Helvetica" font-size="14" lengthAdjust="spacing" textLength="97.2549" x="769.37" y="67.7803">CLI Commands</text></g><!--entity PR--><g class="entity" data-qualified-name="Registry.PR" data-source-line="8" id="ent0005"><rect fill="#FFFFFF" height="48" rx="4" ry="4" style="stroke:#64748B;stroke-width:0.5;" width="134.3926" x="1132.8" y="313"/><text fill="#0F172A" font-family="Helvetica" font-size="14" lengthAdjust="spacing" textLength="64.5723" x="1167.7102" y="333.7803">registry.py</text><text fill="#0F172A" font-family="Helvetica" font-size="14" lengthAdjust="spacing" textLength="114.3926" x="1142.8" y="347.7803">Provider Metadata</text></g><!--entity DET--><g class="entity" data-qualified-name="Registry.DET" data-source-line="9" id="ent0006"><rect fill="#FFFFFF" height="34" rx="4" ry="4" style="stroke:#64748B;stroke-width:0.5;" width="116.5029" x="1213.75" y="463"/><text fill="#0F172A" font-family="Helvetica" font-size="14" lengthAdjust="spacing" textLength="96.5029" x="1223.75" y="483.7803">Detection Logic</text></g><!--entity STD--><g class="entity" data-qualified-name="Registry.STD" data-source-line="11" id="ent0008"><rect fill="#FFFFFF" height="34" rx="4" ry="4" style="stroke:#64748B;stroke-width:0.5;" width="139.8408" x="1133.08" y="596"/><text fill="#0F172A" font-family="Helvetica" font-size="14" lengthAdjust="spacing" textLength="119.8408" x="1143.08" y="616.7803">Standard Providers</text></g><!--entity GW--><g class="entity" data-qualified-name="Registry.GW" data-source-line="13" id="ent0010"><rect fill="#FFFFFF" height="34" rx="4" ry="4" style="stroke:#64748B;stroke-width:0.5;" width="82.248" x="1314.88" y="596"/><text fill="#0F172A" font-family="Helvetica" font-size="14" lengthAdjust="spacing" textLength="62.248" x="1324.88" y="616.7803">Gateways</text></g><!--entity LOC--><g class="entity" data-qualified-name="Registry.LOC" data-source-line="15" id="ent0012"><rect fill="#FFFFFF" height="34" rx="4" ry="4" style="stroke:#64748B;stroke-width:0.5;" width="105.5928" x="1439.2" y="596"/><text fill="#0F172A" font-family="Helvetica" font-size="14" lengthAdjust="spacing" textLength="85.5928" x="1449.2" y="616.7803">Local/Custom</text></g><!--entity INIT--><g class="entity" data-qualified-name="Abstraction.INIT" data-source-line="19" id="ent0015"><rect fill="#FFFFFF" height="48" rx="4" ry="4" style="stroke:#64748B;stroke-width:0.5;" width="117.2686" x="309.37" y="183"/><text fill="#0F172A" font-family="Helvetica" font-size="14" lengthAdjust="spacing" text-decoration="underline" textLength="17.8965" x="349.7181" y="203.7803">init</text><text fill="#0F172A" font-family="Helvetica" font-size="14" lengthAdjust="spacing" textLength="18.6758" x="367.6146" y="203.7803">.py</text><text fill="#0F172A" font-family="Helvetica" font-size="14" lengthAdjust="spacing" textLength="97.2686" x="319.37" y="217.7803">Module Exports</text></g><!--entity BASE--><g class="entity" data-qualified-name="Abstraction.BASE" data-source-line="20" id="ent0016"><rect fill="#FFFFFF" height="48" rx="4" ry="4" style="stroke:#64748B;stroke-width:0.5;" width="132.041" x="296.98" y="313"/><text fill="#0F172A" font-family="Helvetica" font-size="14" lengthAdjust="spacing" textLength="49.0342" x="338.4834" y="333.7803">base.py</text><text fill="#0F172A" font-family="Helvetica" font-size="14" lengthAdjust="spacing" textLength="112.041" x="306.98" y="347.7803">LLMProvider ABC</text></g><!--entity RESP--><g class="entity" data-qualified-name="Abstraction.RESP" data-source-line="21" id="ent0017"><rect fill="#FFFFFF" height="34" rx="4" ry="4" style="stroke:#64748B;stroke-width:0.5;" width="175.6338" x="23.18" y="463"/><text fill="#0F172A" font-family="Helvetica" font-size="14" lengthAdjust="spacing" textLength="155.6338" x="33.18" y="483.7803">LLMResponse Dataclass</text></g><!--entity TC--><g class="entity" data-qualified-name="Abstraction.TC" data-source-line="22" id="ent0018"><rect fill="#FFFFFF" height="34" rx="4" ry="4" style="stroke:#64748B;stroke-width:0.5;" width="188.8545" x="240.57" y="463"/><text fill="#0F172A" font-family="Helvetica" font-size="14" lengthAdjust="spacing" textLength="168.8545" x="250.57" y="483.7803">ToolCallRequest Dataclass</text></g><!--entity LP--><g class="entity" data-qualified-name="Providers.LP" data-source-line="28" id="ent0023"><rect fill="#FFFFFF" height="48" rx="4" ry="4" style="stroke:#64748B;stroke-width:0.5;" width="132.8203" x="484.59" y="456"/><text fill="#0F172A" font-family="Helvetica" font-size="14" lengthAdjust="spacing" textLength="112.8203" x="494.59" y="476.7803">litellm_provider.py</text><text fill="#0F172A" font-family="Helvetica" font-size="14" lengthAdjust="spacing" textLength="107.3789" x="497.3107" y="490.7803">LiteLLM Wrapper</text></g><!--entity CP--><g class="entity" data-qualified-name="Providers.CP" data-source-line="29" id="ent0024"><rect fill="#FFFFFF" height="48" rx="4" ry="4" style="stroke:#64748B;stroke-width:0.5;" width="183.3994" x="659.3" y="456"/><text fill="#0F172A" font-family="Helvetica" font-size="14" lengthAdjust="spacing" textLength="122.165" x="689.9172" y="476.7803">custom_provider.py</text><text fill="#0F172A" font-family="Helvetica" font-size="14" lengthAdjust="spacing" textLength="163.3994" x="669.3" y="490.7803">Direct OpenAI-Compatible</text></g><!--entity OCP--><g class="entity" data-qualified-name="Providers.OCP" data-source-line="30" id="ent0025"><rect fill="#FFFFFF" height="48" rx="4" ry="4" style="stroke:#64748B;stroke-width:0.5;" width="192.3682" x="884.82" y="456"/><text fill="#0F172A" font-family="Helvetica" font-size="14" lengthAdjust="spacing" textLength="164.2266" x="898.8908" y="476.7803">openai_codex_provider.py</text><text fill="#0F172A" font-family="Helvetica" font-size="14" lengthAdjust="spacing" textLength="172.3682" x="894.82" y="490.7803">ChatGPT Backend + OAuth</text></g><!--entity PROVS--><g class="entity" data-qualified-name="Providers.PROVS" data-source-line="31" id="ent0026"><rect fill="#FFFFFF" height="62" rx="4" ry="4" style="stroke:#64748B;stroke-width:0.5;" width="141.3926" x="485.3" y="582"/><text fill="#0F172A" font-family="Helvetica" font-size="14" lengthAdjust="spacing" textLength="118.2891" x="496.8518" y="602.7803">Anthropic, OpenAI,</text><text fill="#0F172A" font-family="Helvetica" font-size="14" lengthAdjust="spacing" textLength="121.3926" x="495.3" y="616.7803">Gemini, DeepSeek,</text><text fill="#0F172A" font-family="Helvetica" font-size="14" lengthAdjust="spacing" textLength="106.6133" x="502.6896" y="630.7803">OpenRouter, etc.</text></g><!--entity LOCAL--><g class="entity" data-qualified-name="Providers.LOCAL" data-source-line="33" id="ent0028"><rect fill="#FFFFFF" height="48" rx="4" ry="4" style="stroke:#64748B;stroke-width:0.5;" width="95.4824" x="703.26" y="589"/><text fill="#0F172A" font-family="Helvetica" font-size="14" lengthAdjust="spacing" textLength="75.4824" x="713.26" y="609.7803">Local vLLM,</text><text fill="#0F172A" font-family="Helvetica" font-size="14" lengthAdjust="spacing" textLength="73.1445" x="714.4289" y="623.7803">Self-Hosted</text></g><!--entity CODEX--><g class="entity" data-qualified-name="Providers.CODEX" data-source-line="35" id="ent0030"><rect fill="#FFFFFF" height="34" rx="4" ry="4" style="stroke:#64748B;stroke-width:0.5;" width="114.9238" x="923.54" y="596"/><text fill="#0F172A" font-family="Helvetica" font-size="14" lengthAdjust="spacing" textLength="94.9238" x="933.54" y="616.7803">GPT-5.1-codex</text></g><!--entity TR--><g class="entity" data-qualified-name="Voice.TR" data-source-line="39" id="ent0033"><rect fill="#FFFFFF" height="48" rx="4" ry="4" style="stroke:#64748B;stroke-width:0.5;" width="114.9307" x="1330.53" y="40"/><text fill="#0F172A" font-family="Helvetica" font-size="14" lengthAdjust="spacing" textLength="94.9307" x="1340.53" y="60.7803">transcription.py</text><text fill="#0F172A" font-family="Helvetica" font-size="14" lengthAdjust="spacing" textLength="86.3584" x="1344.8161" y="74.7803">Groq Whisper</text></g><!--entity GROQ--><g class="entity" data-qualified-name="Voice.GROQ" data-source-line="40" id="ent0034"><rect fill="#FFFFFF" height="34" rx="4" ry="4" style="stroke:#64748B;stroke-width:0.5;" width="77.5791" x="1334.21" y="190"/><text fill="#0F172A" font-family="Helvetica" font-size="14" lengthAdjust="spacing" textLength="57.5791" x="1344.21" y="210.7803">Groq API</text></g><!--link PR to DET--><g class="link" data-entity-1="ent0005" data-entity-2="ent0006" data-link-type="dependency" data-source-line="10" id="lnk7"><path d="M1211.89,361.28 C1226.51,389.91 1248.6662,433.3069 1261.4162,458.2769" fill="none" id="PR-to-DET" style="stroke:#64748B;stroke-width:1.1;"/><polygon fill="#64748B" points="1263.69,462.73,1263.1596,452.8954,1261.4162,458.2769,1256.0347,456.5335,1263.69,462.73" style="stroke:#64748B;stroke-width:1.1;stroke-linejoin:miter;stroke-miterlimit:10;"/><text fill="#334155" font-family="Helvetica" font-size="12" lengthAdjust="spacing" textLength="87.3867" x="1234.84" y="403.2402">Provider Lookup</text></g><!--link DET to STD--><g class="link" data-entity-1="ent0006" data-entity-2="ent0008" data-link-type="dependency" data-source-line="12" id="lnk9"><path d="M1254.62,497.2 C1237.21,513.43 1213,536 1213,536 C1213,536 1208.7621,568.2027 1205.8221,590.5527" fill="none" id="DET-to-STD" style="stroke:#64748B;stroke-width:1.1;"/><polygon fill="#64748B" points="1205.17,595.51,1210.3096,587.1086,1205.8221,590.5527,1202.3779,586.0652,1205.17,595.51" style="stroke:#64748B;stroke-width:1.1;stroke-linejoin:miter;stroke-miterlimit:10;"/><text fill="#334155" font-family="Helvetica" font-size="12" lengthAdjust="spacing" textLength="82.7051" x="1214" y="546.2402">Model Keyword</text></g><!--link DET to GW--><g class="link" data-entity-1="ent0006" data-entity-2="ent0010" data-link-type="dependency" data-source-line="14" id="lnk11"><path d="M1282.47,497.33 C1298.65,522.57 1326.862,566.5504 1342.962,591.6704" fill="none" id="DET-to-GW" style="stroke:#64748B;stroke-width:1.1;"/><polygon fill="#64748B" points="1345.66,595.88,1344.1712,586.1443,1342.962,591.6704,1337.4359,590.4612,1345.66,595.88" style="stroke:#64748B;stroke-width:1.1;stroke-linejoin:miter;stroke-miterlimit:10;"/><text fill="#334155" font-family="Helvetica" font-size="12" lengthAdjust="spacing" textLength="77.3613" x="1315" y="546.2402">API Key Prefix</text></g><!--link DET to LOC--><g class="link" data-entity-1="ent0006" data-entity-2="ent0012" data-link-type="dependency" data-source-line="16" id="lnk13"><path d="M1310.95,497.35 C1349.56,513.57 1403,536 1403,536 C1403,536 1442.7073,569.9136 1468.8873,592.2636" fill="none" id="DET-to-LOC" style="stroke:#64748B;stroke-width:1.1;"/><polygon fill="#64748B" points="1472.69,595.51,1468.4422,586.6243,1468.8873,592.2636,1463.2479,592.7086,1472.69,595.51" style="stroke:#64748B;stroke-width:1.1;stroke-linejoin:miter;stroke-miterlimit:10;"/><text fill="#334155" font-family="Helvetica" font-size="12" lengthAdjust="spacing" textLength="54.6914" x="1418.92" y="546.2402">Base URL</text></g><!--link BASE to RESP--><g class="link" data-entity-1="ent0016" data-entity-2="ent0017" data-link-type="dependency" data-source-line="23" id="lnk19"><path d="M319.71,361.31 C277.62,383.97 220,415 220,415 C220,415 175.682,441.0289 143.382,459.9889" fill="none" id="BASE-to-RESP" style="stroke:#64748B;stroke-width:1.1;"/><polygon fill="#64748B" points="139.07,462.52,148.8565,461.4136,143.382,459.9889,144.8067,454.5144,139.07,462.52" style="stroke:#64748B;stroke-width:1.1;stroke-linejoin:miter;stroke-miterlimit:10;"/></g><!--link BASE to TC--><g class="link" data-entity-1="ent0016" data-entity-2="ent0018" data-link-type="dependency" data-source-line="24" id="lnk20"><path d="M358.38,361.28 C352.69,389.91 344.1642,432.8558 339.2042,457.8258" fill="none" id="BASE-to-TC" style="stroke:#64748B;stroke-width:1.1;"/><polygon fill="#64748B" points="338.23,462.73,343.9068,454.6818,339.2042,457.8258,336.0601,453.1231,338.23,462.73" style="stroke:#64748B;stroke-width:1.1;stroke-linejoin:miter;stroke-miterlimit:10;"/></g><!--link INIT to BASE--><g class="link" data-entity-1="ent0015" data-entity-2="ent0016" data-link-type="dependency" data-source-line="25" id="lnk21"><path d="M367.08,231.48 C366.18,254.57 365.0052,284.6338 364.1052,307.6738" fill="none" id="INIT-to-BASE" style="stroke:#64748B;stroke-width:1.1;"/><polygon fill="#64748B" points="363.91,312.67,368.2582,303.833,364.1052,307.6738,360.2643,303.5207,363.91,312.67" style="stroke:#64748B;stroke-width:1.1;stroke-linejoin:miter;stroke-miterlimit:10;"/></g><!--link LP to PROVS--><g class="link" data-entity-1="ent0023" data-entity-2="ent0026" data-link-type="dependency" data-source-line="32" id="lnk27"><path d="M551.89,504.42 C552.72,526.06 553.7591,553.3236 554.6591,576.8736" fill="none" id="LP-to-PROVS" style="stroke:#64748B;stroke-width:1.1;"/><polygon fill="#64748B" points="554.85,581.87,558.5034,572.7238,554.6591,576.8736,550.5092,573.0293,554.85,581.87" style="stroke:#64748B;stroke-width:1.1;stroke-linejoin:miter;stroke-miterlimit:10;"/><text fill="#334155" font-family="Helvetica" font-size="12" lengthAdjust="spacing" textLength="74.0156" x="554.5" y="546.2402">Multi-Provider</text></g><!--link CP to LOCAL--><g class="link" data-entity-1="ent0024" data-entity-2="ent0028" data-link-type="dependency" data-source-line="34" id="lnk29"><path d="M751,504.42 C751,528.26 751,560.01 751,583.78" fill="none" id="CP-to-LOCAL" style="stroke:#64748B;stroke-width:1.1;"/><polygon fill="#64748B" points="751,588.78,755,579.78,751,583.78,747,579.78,751,588.78" style="stroke:#64748B;stroke-width:1.1;stroke-linejoin:miter;stroke-miterlimit:10;"/><text fill="#334155" font-family="Helvetica" font-size="12" lengthAdjust="spacing" textLength="54.0117" x="752" y="546.2402">Direct API</text></g><!--link OCP to CODEX--><g class="link" data-entity-1="ent0025" data-entity-2="ent0030" data-link-type="dependency" data-source-line="36" id="lnk31"><path d="M981,504.42 C981,530.77 981,567.87 981,590.81" fill="none" id="OCP-to-CODEX" style="stroke:#64748B;stroke-width:1.1;"/><polygon fill="#64748B" points="981,595.81,985,586.81,981,590.81,977,586.81,981,595.81" style="stroke:#64748B;stroke-width:1.1;stroke-linejoin:miter;stroke-miterlimit:10;"/><text fill="#334155" font-family="Helvetica" font-size="12" lengthAdjust="spacing" textLength="71.707" x="982" y="546.2402">OAuth + SSE</text></g><!--link TR to GROQ--><g class="link" data-entity-1="ent0033" data-entity-2="ent0034" data-link-type="dependency" data-source-line="41" id="lnk35"><path d="M1385.52,88.28 C1382.48,116.91 1377.9196,159.7881 1375.2596,184.7581" fill="none" id="TR-to-GROQ" style="stroke:#64748B;stroke-width:1.1;"/><polygon fill="#64748B" points="1374.73,189.73,1379.6609,181.2044,1375.2596,184.7581,1371.7059,180.3569,1374.73,189.73" style="stroke:#64748B;stroke-width:1.1;stroke-linejoin:miter;stroke-miterlimit:10;"/><text fill="#334155" font-family="Helvetica" font-size="12" lengthAdjust="spacing" textLength="72.6973" x="1382.84" y="130.2402">Audio &#8594; Text</text></g><!--link NC to INIT--><g class="link" data-entity-1="ent0002" data-entity-2="ent0015" data-link-type="dependency" data-source-line="43" id="lnk36"><path d="M629.47,81.45 C577.08,106.4 481.8141,151.7898 421.8141,180.3698" fill="none" id="NC-to-INIT" style="stroke:#64748B;stroke-width:1.1;"/><polygon fill="#64748B" points="417.3,182.52,427.1454,182.2609,421.8141,180.3698,423.7051,175.0384,417.3,182.52" style="stroke:#64748B;stroke-width:1.1;stroke-linejoin:miter;stroke-miterlimit:10;"/><text fill="#334155" font-family="Helvetica" font-size="12" lengthAdjust="spacing" textLength="73.377" x="543.51" y="130.2402">Chat Request</text></g><!--link CLI to PR--><g class="link" data-entity-1="ent0003" data-entity-2="ent0005" data-link-type="dependency" data-source-line="44" id="lnk37"><path d="M841.04,81.34 C906.04,127.46 1087.032,255.8569 1162.882,309.6669" fill="none" id="CLI-to-PR" style="stroke:#64748B;stroke-width:1.1;"/><polygon fill="#64748B" points="1166.96,312.56,1161.934,304.0901,1162.882,309.6669,1157.3051,310.6149,1166.96,312.56" style="stroke:#64748B;stroke-width:1.1;stroke-linejoin:miter;stroke-miterlimit:10;"/><text fill="#334155" font-family="Helvetica" font-size="12" lengthAdjust="spacing" textLength="72.041" x="1075.64" y="210.2402">Status/Config</text></g><!--link BASE to LP--><g class="link" data-entity-1="ent0016" data-entity-2="ent0023" data-link-type="dependency" data-source-line="45" id="lnk38"><path d="M382.97,361.36 C400.09,381.38 422,407 422,407 C422,407 447,415 447,415 C447,415 478.9214,434.65 508.6014,452.91" fill="none" id="BASE-to-LP" style="stroke:#64748B;stroke-width:1.1;stroke-dasharray:7,7;"/><polygon fill="#64748B" points="512.86,455.53,507.2905,447.4071,508.6014,452.91,503.0985,454.2209,512.86,455.53" style="stroke:#64748B;stroke-width:1.1;stroke-linejoin:miter;stroke-miterlimit:10;"/><text fill="#334155" font-family="Helvetica" font-size="12" lengthAdjust="spacing" textLength="61.3535" x="423" y="403.2402">implements</text></g><!--link BASE to CP--><g class="link" data-entity-1="ent0016" data-entity-2="ent0024" data-link-type="dependency" data-source-line="46" id="lnk39"><path d="M429.42,359.93 C490.61,380.13 572,407 572,407 C572,407 638,415 638,415 C638,415 672.959,434.8065 705.209,453.0665" fill="none" id="BASE-to-CP" style="stroke:#64748B;stroke-width:1.1;stroke-dasharray:7,7;"/><polygon fill="#64748B" points="709.56,455.53,703.6991,447.6149,705.209,453.0665,699.7574,454.5764,709.56,455.53" style="stroke:#64748B;stroke-width:1.1;stroke-linejoin:miter;stroke-miterlimit:10;"/><text fill="#334155" font-family="Helvetica" font-size="12" lengthAdjust="spacing" textLength="61.3535" x="573" y="403.2402">implements</text></g><!--link BASE to OCP--><g class="link" data-entity-1="ent0016" data-entity-2="ent0025" data-link-type="dependency" data-source-line="47" id="lnk40"><path d="M429.41,346.59 C548.94,362.06 788,393 788,393 C788,393 827,407 827,407 C827,407 864,415 864,415 C864,415 900.3231,434.871 933.7131,453.131" fill="none" id="BASE-to-OCP" style="stroke:#64748B;stroke-width:1.1;stroke-dasharray:7,7;"/><polygon fill="#64748B" points="938.1,455.53,932.1229,447.7022,933.7131,453.131,928.2844,454.7212,938.1,455.53" style="stroke:#64748B;stroke-width:1.1;stroke-linejoin:miter;stroke-miterlimit:10;"/><text fill="#334155" font-family="Helvetica" font-size="12" lengthAdjust="spacing" textLength="61.3535" x="828" y="403.2402">implements</text></g><!--link PR to LP--><g class="link" data-entity-1="ent0005" data-entity-2="ent0023" data-link-type="dependency" data-source-line="48" id="lnk41"><path d="M1132.41,345.19 C992.27,360.1 683,393 683,393 C683,393 638,415 638,415 C638,415 611.7581,434.3078 586.9281,452.5678" fill="none" id="PR-to-LP" style="stroke:#64748B;stroke-width:1.1;"/><polygon fill="#64748B" points="582.9,455.53,592.5203,453.4204,586.9281,452.5678,587.7807,446.9755,582.9,455.53" style="stroke:#64748B;stroke-width:1.1;stroke-linejoin:miter;stroke-miterlimit:10;"/><text fill="#334155" font-family="Helvetica" font-size="12" lengthAdjust="spacing" textLength="93.3809" x="684" y="403.2402">Route to Provider</text></g><!--link PR to CP--><g class="link" data-entity-1="ent0005" data-entity-2="ent0024" data-link-type="dependency" data-source-line="49" id="lnk42"><path d="M1132.67,353.48 C1044.22,373.83 900,407 900,407 C900,407 864,415 864,415 C864,415 829.041,434.8065 796.791,453.0665" fill="none" id="PR-to-CP" style="stroke:#64748B;stroke-width:1.1;"/><polygon fill="#64748B" points="792.44,455.53,802.2426,454.5764,796.791,453.0665,798.3009,447.6149,792.44,455.53" style="stroke:#64748B;stroke-width:1.1;stroke-linejoin:miter;stroke-miterlimit:10;"/><text fill="#334155" font-family="Helvetica" font-size="12" lengthAdjust="spacing" textLength="85.377" x="958.39" y="403.2402">Bypass LiteLLM</text></g><!--link PR to OCP--><g class="link" data-entity-1="ent0005" data-entity-2="ent0025" data-link-type="dependency" data-source-line="50" id="lnk43"><path d="M1163.84,361.28 C1123.26,387.41 1062.024,426.8333 1021.424,452.9733" fill="none" id="PR-to-OCP" style="stroke:#64748B;stroke-width:1.1;"/><polygon fill="#64748B" points="1017.22,455.68,1026.9526,454.1711,1021.424,452.9733,1022.6218,447.4447,1017.22,455.68" style="stroke:#64748B;stroke-width:1.1;stroke-linejoin:miter;stroke-miterlimit:10;"/><text fill="#334155" font-family="Helvetica" font-size="12" lengthAdjust="spacing" textLength="82.0371" x="1111.12" y="403.2402">OAuth Provider</text></g><?plantuml-src TLJ1Zfim4Btp5UvUcsJLGozxgCIIA8rA0WMwwM6bo859OiLWhp7RH5Ml_O1-Oh-aOnjOsBOdZ6VUi-UzyRnXLSwR0eXKuW1rpKH5-LIVe8GPQqhkQI695cGlj1ObAPY2N6EI9sb-faSWD-crrb2IW3EeT7r3QDsjoNVFPDFgo35lGok1B2GG2cpM9XY6Wt25eRAaLT6IX2llnyiniHBFh0154ZYoMgkhJUf-naUfTdSchuzL3ro3fWNLr0BZP0YOWtPbaL0SMMupvelCYnCodNumIt97Ug9GY7CZX_WK5mLLHP_ZIaYpkMUmXWFNoB4M1N3o2QxVX2g634kguHkzEjnosyEMMqJvySfWa1qEx3A4XIAd_3PeQZJ7GiCewB6uHl0zhO5yISAXcFuUvQ5jnVGAocA7koCzTpjMCRtRMJsnX0Ot5nSfLEltQhFAXlbxFDBcXk6wLys_3spolPykHYM4wmHgAIgyvXpjoJcj7MsoIEDXPYO43oZd2JmrKEjNsLdW6MfRkKNsVnWnDxHhU_g_scfLIevDNsbgwdUKlPjZEJZJm7cvastObOgRM0hPAYfbAsWukdvkNHgZvlOzaKX2vQ-csFyIZzzpzq224LnW3cMx73leCYO9JbGlumoTpizG5UGjYVn6don7D2RnAtrIGh9yqfuvUQoMKAAz4p87a2d06RTCB16D1ZKXeFDP-sIYXzGBOwkZ_J4DtN3DffrGVxKcUKPDa305VfX-53WfYgvD_T0BugvF_H2vMZ6msqSl8ywcxsVlfhPmfqiqNtpreXPj_n1jQyRQqx713uBbG59Gp_XrjhgjaQNOzrMTAoQD-LRKfH9FP7jYTMTcDfeODemtTUyrYJvxcPiLPcsUR5CmGNx__4Kok6Yyq2QmOTk8TyHOHje-zipeSvfY14U9RkhRG5G7TdGzF9kXHZ76MDUZzKiW-5yWUXrfXvbbikQQkTuxrqOjwFugyLMHjgMxa2DqCdUmFm00?></g></svg>