<svg xmlns="http://www.w3.org/2000/svg" xmlns:xlink="http://www.w3.org/1999/xlink" contentStyleType="text/css" data-diagram-type="SEQUENCE" height="525px" preserveAspectRatio="none" style="width:790px;height:525px;background:#FFFFFF;" version="1.1" viewBox="0 0 790 525" width="790px" zoomAndPan="magnify"><?plantuml 1.2026.5?><defs/><rect data-xfeat-white-canvas="true" fill="#FFFFFF" height="100%" width="100%" x="0" y="0"/><g><g><title>Background Loop</title><rect fill="#FFFFFF" height="384" style="stroke:#181818;stroke-width:1;" width="10" x="344.9644" y="88"/></g><rect fill="#F8FAFC" height="318" rx="4" ry="4" style="stroke:#CBD5E1;stroke-width:1.5;" width="764.686" x="10" y="103"/><rect fill="#F8FAFC" height="162" rx="4" ry="4" style="stroke:#CBD5E1;stroke-width:1.5;" width="744.686" x="20" y="252"/><path d="M20,372 L764.686,372 L764.686,410 A4,4 0 0 1 760.686,414 L24,414 A4,4 0 0 1 20,410 L20,372" fill="#F8FAFC" style="stroke:none;stroke-width:1;"/><g class="participant-lifeline" data-entity-uid="part1" data-qualified-name="System" data-source-line="2" id="part1-lifeline"><g><title>External System</title><rect fill="#000000" fill-opacity="0.00000" height="456" width="8" x="83.9619" y="34"/><line style="stroke:#94A3B8;stroke-width:0.5;stroke-dasharray:5,5;" x1="87" x2="87" y1="34" y2="490"/></g></g><g class="participant-lifeline" data-entity-uid="part2" data-qualified-name="HS" data-source-line="3" id="part2-lifeline"><g><title>HeartbeatService</title><rect fill="#000000" fill-opacity="0.00000" height="456" width="8" x="213.0063" y="34"/><line style="stroke:#94A3B8;stroke-width:0.5;stroke-dasharray:5,5;" x1="216.9238" x2="216.9238" y1="34" y2="490"/></g></g><g class="participant-lifeline" data-entity-uid="part3" data-qualified-name="Loop" data-source-line="4" id="part3-lifeline"><g><title>Background Loop</title><rect fill="#000000" fill-opacity="0.00000" height="456" width="8" x="345.9644" y="34"/><line style="stroke:#94A3B8;stroke-width:0.5;stroke-dasharray:5,5;" x1="349.0889" x2="349.0889" y1="34" y2="490"/></g></g><g class="participant-lifeline" data-entity-uid="part4" data-qualified-name="File" data-source-line="5" id="part4-lifeline"><g><title>HEARTBEAT.md</title><rect fill="#000000" fill-opacity="0.00000" height="456" width="8" x="486.3628" y="34"/><line style="stroke:#94A3B8;stroke-width:0.5;stroke-dasharray:5,5;" x1="489.687" x2="489.687" y1="34" y2="490"/></g></g><g class="participant-lifeline" data-entity-uid="part5" data-qualified-name="LLM" data-source-line="6" id="part5-lifeline"><g><title>LLM Provider</title><rect fill="#000000" fill-opacity="0.00000" height="456" width="8" x="605.666" y="34"/><line style="stroke:#94A3B8;stroke-width:0.5;stroke-dasharray:5,5;" x1="609.0386" x2="609.0386" y1="34" y2="490"/></g></g><g class="participant-lifeline" data-entity-uid="part6" data-qualified-name="Callback" data-source-line="7" id="part6-lifeline"><g><title>on_execute</title><rect fill="#000000" fill-opacity="0.00000" height="456" width="8" x="707.4897" y="34"/><line style="stroke:#94A3B8;stroke-width:0.5;stroke-dasharray:5,5;" x1="711.2935" x2="711.2935" y1="34" y2="490"/></g></g><g class="participant participant-head" data-entity-uid="part1" data-qualified-name="System" data-source-line="2" id="part1-head"><rect fill="#F8FAFC" height="28" rx="4" ry="4" style="stroke:#475569;stroke-width:0.5;" width="115.9238" x="30" y="5"/><text fill="#0F172A" font-family="Helvetica" font-size="14" lengthAdjust="spacing" textLength="101.9238" x="37" y="22.7803">External System</text></g><g class="participant participant-tail" data-entity-uid="part1" data-qualified-name="System" data-source-line="2" id="part1-tail"><rect fill="#F8FAFC" height="28" rx="4" ry="4" style="stroke:#475569;stroke-width:0.5;" width="115.9238" x="30" y="489"/><text fill="#0F172A" font-family="Helvetica" font-size="14" lengthAdjust="spacing" textLength="101.9238" x="37" y="506.7803">External System</text></g><g class="participant participant-head" data-entity-uid="part2" data-qualified-name="HS" data-source-line="3" id="part2-head"><rect fill="#F8FAFC" height="28" rx="4" ry="4" style="stroke:#475569;stroke-width:0.5;" width="122.165" x="155.9238" y="5"/><text fill="#0F172A" font-family="Helvetica" font-size="14" lengthAdjust="spacing" textLength="108.165" x="162.9238" y="22.7803">HeartbeatService</text></g><g class="participant participant-tail" data-entity-uid="part2" data-qualified-name="HS" data-source-line="3" id="part2-tail"><rect fill="#F8FAFC" height="28" rx="4" ry="4" style="stroke:#475569;stroke-width:0.5;" width="122.165" x="155.9238" y="489"/><text fill="#0F172A" font-family="Helvetica" font-size="14" lengthAdjust="spacing" textLength="108.165" x="162.9238" y="506.7803">HeartbeatService</text></g><g class="participant participant-head" data-entity-uid="part3" data-qualified-name="Loop" data-source-line="4" id="part3-head"><rect fill="#F8FAFC" height="28" rx="4" ry="4" style="stroke:#475569;stroke-width:0.5;" width="123.751" x="288.0889" y="5"/><text fill="#0F172A" font-family="Helvetica" font-size="14" lengthAdjust="spacing" textLength="109.751" x="295.0889" y="22.7803">Background Loop</text></g><g class="participant participant-tail" data-entity-uid="part3" data-qualified-name="Loop" data-source-line="4" id="part3-tail"><rect fill="#F8FAFC" height="28" rx="4" ry="4" style="stroke:#475569;stroke-width:0.5;" width="123.751" x="288.0889" y="489"/><text fill="#0F172A" font-family="Helvetica" font-size="14" lengthAdjust="spacing" textLength="109.751" x="295.0889" y="506.7803">Background Loop</text></g><g class="participant participant-head" data-entity-uid="part4" data-qualified-name="File" data-source-line="5" id="part4-head"><rect fill="#F8FAFC" height="28" rx="4" ry="4" style="stroke:#475569;stroke-width:0.5;" width="121.3516" x="429.687" y="5"/><text fill="#0F172A" font-family="Helvetica" font-size="14" lengthAdjust="spacing" textLength="107.3516" x="436.687" y="22.7803">HEARTBEAT.md</text></g><g class="participant participant-tail" data-entity-uid="part4" data-qualified-name="File" data-source-line="5" id="part4-tail"><rect fill="#F8FAFC" height="28" rx="4" ry="4" style="stroke:#475569;stroke-width:0.5;" width="121.3516" x="429.687" y="489"/><text fill="#0F172A" font-family="Helvetica" font-size="14" lengthAdjust="spacing" textLength="107.3516" x="436.687" y="506.7803">HEARTBEAT.md</text></g><g class="participant participant-head" data-entity-uid="part5" data-qualified-name="LLM" data-source-line="6" id="part5-head"><rect fill="#F8FAFC" height="28" rx="4" ry="4" style="stroke:#475569;stroke-width:0.5;" width="97.2549" x="561.0386" y="5"/><text fill="#0F172A" font-family="Helvetica" font-size="14" lengthAdjust="spacing" textLength="83.2549" x="568.0386" y="22.7803">LLM Provider</text></g><g class="participant participant-tail" data-entity-uid="part5" data-qualified-name="LLM" data-source-line="6" id="part5-tail"><rect fill="#F8FAFC" height="28" rx="4" ry="4" style="stroke:#475569;stroke-width:0.5;" width="97.2549" x="561.0386" y="489"/><text fill="#0F172A" font-family="Helvetica" font-size="14" lengthAdjust="spacing" textLength="83.2549" x="568.0386" y="506.7803">LLM Provider</text></g><g class="participant participant-head" data-entity-uid="part6" data-qualified-name="Callback" data-source-line="7" id="part6-head"><rect fill="#F8FAFC" height="28" rx="4" ry="4" style="stroke:#475569;stroke-width:0.5;" width="86.3926" x="668.2935" y="5"/><text fill="#0F172A" font-family="Helvetica" font-size="14" lengthAdjust="spacing" textLength="72.3926" x="675.2935" y="22.7803">on_execute</text></g><g class="participant participant-tail" data-entity-uid="part6" data-qualified-name="Callback" data-source-line="7" id="part6-tail"><rect fill="#F8FAFC" height="28" rx="4" ry="4" style="stroke:#475569;stroke-width:0.5;" width="86.3926" x="668.2935" y="489"/><text fill="#0F172A" font-family="Helvetica" font-size="14" lengthAdjust="spacing" textLength="72.3926" x="675.2935" y="506.7803">on_execute</text></g><g><title>Background Loop</title><rect fill="#FFFFFF" height="384" style="stroke:#181818;stroke-width:1;" width="10" x="344.9644" y="88"/></g><g class="message" data-entity-1="part1" data-entity-2="part2" data-source-line="8" id="msg1"><line style="stroke:#64748B;stroke-width:1.1;" x1="215.0063" x2="205.0063" y1="62" y2="58"/><line style="stroke:#64748B;stroke-width:1.1;" x1="215.0063" x2="205.0063" y1="62" y2="66"/><line style="stroke:#64748B;stroke-width:1.1;" x1="87.9619" x2="216.0063" y1="62" y2="62"/><text fill="#334155" font-family="Helvetica" font-size="12" lengthAdjust="spacing" textLength="31.3301" x="136.8191" y="57.2402">start()</text></g><g class="message" data-entity-1="part2" data-entity-2="part3" data-source-line="9" id="msg2"><line style="stroke:#64748B;stroke-width:1.1;" x1="342.9644" x2="332.9644" y1="88" y2="84"/><line style="stroke:#64748B;stroke-width:1.1;" x1="342.9644" x2="332.9644" y1="88" y2="92"/><line style="stroke:#64748B;stroke-width:1.1;" x1="217.0063" x2="343.9644" y1="88" y2="88"/><text fill="#334155" font-family="Helvetica" font-size="12" lengthAdjust="spacing" textLength="105.3809" x="228.2949" y="83.2402">Create asyncio task</text></g><path d="M14,103 L84.5449,103 L84.5449,109 L74.5449,119 L10,119 L10,107 A4,4 0 0 1 14,103" fill="#F8FAFC" style="stroke:#CBD5E1;stroke-width:1.5;"/><rect fill="none" height="318" rx="4" ry="4" style="stroke:#CBD5E1;stroke-width:1.5;" width="764.686" x="10" y="103"/><text fill="#0F172A" font-family="Helvetica" font-size="14" font-weight="700" lengthAdjust="spacing" textLength="29.5449" x="25" y="114.7803">loop</text><text fill="#334155" font-family="Helvetica" font-size="14" font-weight="700" lengthAdjust="spacing" textLength="122.1582" x="99.5449" y="115.7803">[Every N seconds]</text><g class="message" data-entity-1="part3" data-entity-2="part4" data-source-line="12" id="msg3"><line style="stroke:#64748B;stroke-width:1.1;" x1="488.3628" x2="478.3628" y1="137" y2="133"/><line style="stroke:#64748B;stroke-width:1.1;" x1="488.3628" x2="478.3628" y1="137" y2="141"/><line style="stroke:#64748B;stroke-width:1.1;" x1="354.9644" x2="489.3628" y1="137" y2="137"/><text fill="#334155" font-family="Helvetica" font-size="12" lengthAdjust="spacing" textLength="111.3984" x="366.9644" y="132.2402">Read task definitions</text></g><g class="message" data-entity-1="part4" data-entity-2="part3" data-source-line="13" id="msg4"><line style="stroke:#64748B;stroke-width:1.1;" x1="355.9644" x2="365.9644" y1="163" y2="159"/><line style="stroke:#64748B;stroke-width:1.1;" x1="355.9644" x2="365.9644" y1="163" y2="167"/><line style="stroke:#64748B;stroke-width:1.1;stroke-dasharray:2,2;" x1="354.9644" x2="489.3628" y1="163" y2="163"/><text fill="#334155" font-family="Helvetica" font-size="12" lengthAdjust="spacing" textLength="98.0508" x="373.6382" y="158.2402">Markdown content</text></g><g class="message" data-entity-1="part3" data-entity-2="part5" data-source-line="14" id="msg5"><line style="stroke:#64748B;stroke-width:1.1;" x1="607.666" x2="597.666" y1="189" y2="185"/><line style="stroke:#64748B;stroke-width:1.1;" x1="607.666" x2="597.666" y1="189" y2="193"/><line style="stroke:#64748B;stroke-width:1.1;" x1="354.9644" x2="608.666" y1="189" y2="189"/><text fill="#334155" font-family="Helvetica" font-size="12" lengthAdjust="spacing" textLength="124.7344" x="419.948" y="184.2402">Phase 1: Analyze tasks</text></g><path d="M536,206 L536,236 A4,4 0 0 0 540,240 L677,240 A4,4 0 0 0 681,236 L681,212 L671,202 L540,202 A4,4 0 0 0 536,206" fill="#FFF7ED" style="stroke:#FDBA74;stroke-width:0.5;"/><path d="M671,202 L671,210 A2,2 0 0 0 673,212 L681,212 L671,202" fill="#FFF7ED" style="stroke:#FDBA74;stroke-width:0.5;"/><text fill="#7C2D12" font-family="Helvetica" font-size="14" lengthAdjust="spacing" textLength="115.9443" x="551" y="217.7803">Structured tool call</text><text fill="#7C2D12" font-family="Helvetica" font-size="14" lengthAdjust="spacing" textLength="115.9307" x="551.0068" y="231.7803">(skip or run action)</text><path d="M24,252 L81.3379,252 L81.3379,258 L71.3379,268 L20,268 L20,256 A4,4 0 0 1 24,252" fill="#F8FAFC" style="stroke:#CBD5E1;stroke-width:1.5;"/><rect fill="none" height="162" rx="4" ry="4" style="stroke:#CBD5E1;stroke-width:1.5;" width="744.686" x="20" y="252"/><text fill="#0F172A" font-family="Helvetica" font-size="14" font-weight="700" lengthAdjust="spacing" textLength="16.3379" x="35" y="263.7803">alt</text><text fill="#334155" font-family="Helvetica" font-size="14" font-weight="700" lengthAdjust="spacing" textLength="157.9375" x="96.3379" y="264.7803">[Tasks Need Execution]</text><g class="message" data-entity-1="part5" data-entity-2="part3" data-source-line="17" id="msg6"><line style="stroke:#64748B;stroke-width:1.1;" x1="355.9644" x2="365.9644" y1="286" y2="282"/><line style="stroke:#64748B;stroke-width:1.1;" x1="355.9644" x2="365.9644" y1="286" y2="290"/><line style="stroke:#64748B;stroke-width:1.1;stroke-dasharray:2,2;" x1="354.9644" x2="608.666" y1="286" y2="286"/><text fill="#334155" font-family="Helvetica" font-size="12" lengthAdjust="spacing" textLength="137.625" x="413.5027" y="281.2402">Decision: 'run' + summary</text></g><g class="message" data-entity-1="part3" data-entity-2="part6" data-source-line="18" id="msg7"><line style="stroke:#64748B;stroke-width:1.1;" x1="709.4897" x2="699.4897" y1="312" y2="308"/><line style="stroke:#64748B;stroke-width:1.1;" x1="709.4897" x2="699.4897" y1="312" y2="316"/><line style="stroke:#64748B;stroke-width:1.1;" x1="354.9644" x2="710.4897" y1="312" y2="312"/><text fill="#334155" font-family="Helvetica" font-size="12" lengthAdjust="spacing" textLength="170.0801" x="448.187" y="307.2402">Phase 2: on_execute(summary)</text></g><g class="message" data-entity-1="part6" data-entity-2="part3" data-source-line="19" id="msg8"><line style="stroke:#64748B;stroke-width:1.1;" x1="355.9644" x2="365.9644" y1="338" y2="334"/><line style="stroke:#64748B;stroke-width:1.1;" x1="355.9644" x2="365.9644" y1="338" y2="342"/><line style="stroke:#64748B;stroke-width:1.1;stroke-dasharray:2,2;" x1="354.9644" x2="710.4897" y1="338" y2="338"/><text fill="#334155" font-family="Helvetica" font-size="12" lengthAdjust="spacing" textLength="85.377" x="490.5386" y="333.2402">Execution result</text></g><g class="message" data-entity-1="part3" data-entity-2="part1" data-source-line="20" id="msg9"><line style="stroke:#64748B;stroke-width:1.1;" x1="88.9619" x2="98.9619" y1="364" y2="360"/><line style="stroke:#64748B;stroke-width:1.1;" x1="88.9619" x2="98.9619" y1="364" y2="368"/><line style="stroke:#64748B;stroke-width:1.1;" x1="87.9619" x2="343.9644" y1="364" y2="364"/><text fill="#334155" font-family="Helvetica" font-size="12" lengthAdjust="spacing" textLength="86.0391" x="173.4436" y="359.2402">on_notify(result)</text></g><line style="stroke:#CBD5E1;stroke-width:1;stroke-dasharray:2,2;" x1="20" x2="764.686" y1="373" y2="373"/><text fill="#334155" font-family="Helvetica" font-size="14" font-weight="700" lengthAdjust="spacing" textLength="117.4824" x="25" y="383.7803">[No Tasks Active]</text><g class="message" data-entity-1="part5" data-entity-2="part3" data-source-line="22" id="msg10"><line style="stroke:#64748B;stroke-width:1.1;" x1="355.9644" x2="365.9644" y1="406" y2="402"/><line style="stroke:#64748B;stroke-width:1.1;" x1="355.9644" x2="365.9644" y1="406" y2="410"/><line style="stroke:#64748B;stroke-width:1.1;stroke-dasharray:2,2;" x1="354.9644" x2="608.666" y1="406" y2="406"/><text fill="#334155" font-family="Helvetica" font-size="12" lengthAdjust="spacing" textLength="76.3184" x="444.156" y="401.2402">Decision: 'skip</text></g><g class="message" data-entity-1="part1" data-entity-2="part2" data-source-line="25" id="msg11"><line style="stroke:#64748B;stroke-width:1.1;" x1="215.0063" x2="205.0063" y1="446" y2="442"/><line style="stroke:#64748B;stroke-width:1.1;" x1="215.0063" x2="205.0063" y1="446" y2="450"/><line style="stroke:#64748B;stroke-width:1.1;" x1="87.9619" x2="216.0063" y1="446" y2="446"/><text fill="#334155" font-family="Helvetica" font-size="12" lengthAdjust="spacing" textLength="30.6738" x="137.1472" y="441.2402">stop()</text></g><g class="message" data-entity-1="part2" data-entity-2="part3" data-source-line="26" id="msg12"><line style="stroke:#64748B;stroke-width:1.1;" x1="347.9644" x2="337.9644" y1="472" y2="468"/><line style="stroke:#64748B;stroke-width:1.1;" x1="347.9644" x2="337.9644" y1="472" y2="476"/><line style="stroke:#64748B;stroke-width:1.1;" x1="217.0063" x2="348.9644" y1="472" y2="472"/><text fill="#334155" font-family="Helvetica" font-size="12" lengthAdjust="spacing" textLength="94.0605" x="236.4551" y="467.2402">Cancel &amp; cleanup</text></g><?plantuml-src ZL9DJ-Cm4BtpAsOvBArGaNQFEI0LoAg7j4AaHwILiQTWrV54_kYI_VMCdJQXj0ToYHE_z-QzcVcXhJHH8RIEDkYz9YlCBBnXWpSwDkO2-6c52rhgLjW0b-LxGCSWg3iViBa4uVV7K-m2-Ui5HQZHxRJ435xKfy0x8RUlZg9LK16r6PSEPoJB-TFwhfolRngLON-qmLDOLItXqT5EAtIzMhKyHP7zY-yeO-YTtGjZNjX91lQPPhUtYxe07vWscUQBHSq_axa2xXrdGwPsLcg287pF5JBeNRePCXW-GBb3ry4AF4gookUBz2GKQwOa1JoXK5a956wqrO57Ca8JPZRKNmgtLVJF0ki5jE6h8eSkuF5DU8HV1SnvQjr_pEAZuehO9x6pr28ee0ukoX0TiWiY0vARycmdVgjR80SksXoFx7IG42R0Eed22fbMvfOoOW1aIzLoDFw0KgTTA-2A1Q_W6dni6k6wOqgVuZ2MGvJV1Oo3c-o9qoFcWJ9M74o1GnzDE5Ue7tbMjnJqfflqs54R3TTVqJxjF8qPlvKojMzKiUhYy_lBgb5xPjE4bMZW9qY3miPUI-7Hedq0?></g></svg>