<svg xmlns="http://www.w3.org/2000/svg" xmlns:xlink="http://www.w3.org/1999/xlink" contentStyleType="text/css" data-diagram-type="CLASS" height="445px" preserveAspectRatio="none" style="width:999px;height:445px;background:#FFFFFF;" version="1.1" viewBox="0 0 999 445" width="999px" zoomAndPan="magnify"><?plantuml 1.2026.5?><defs/><rect data-xfeat-white-canvas="true" fill="#FFFFFF" height="100%" width="100%" x="0" y="0"/><g><!--cluster Public_API--><g class="cluster" data-qualified-name="Public_API" data-source-line="3" id="ent0001"><rect fill="#F8FAFC" height="424" rx="4" ry="4" style="stroke:#CBD5E1;stroke-width:1.5;" width="330" x="7" y="7"/><text fill="#0F172A" font-family="Helvetica" font-size="15" font-weight="700" lengthAdjust="spacing" textLength="78.3545" x="132.8228" y="20.5503">Public_API</text></g><!--cluster Storage_Layer--><g class="cluster" data-qualified-name="Storage_Layer" data-source-line="25" id="ent0004"><rect fill="#F8FAFC" height="174" rx="4" ry="4" style="stroke:#CBD5E1;stroke-width:1.5;" width="358" x="425" y="239"/><text fill="#0F172A" font-family="Helvetica" font-size="15" font-weight="700" lengthAdjust="spacing" textLength="104.2163" x="551.8918" y="252.5503">Storage_Layer</text></g><!--class SessionManager--><g class="entity" data-qualified-name="Public_API.SessionManager" data-source-line="4" id="ent0002"><rect fill="#FFFFFF" height="118" rx="4" ry="4" style="stroke:#64748B;stroke-width:0.5;" width="206.4121" x="108.79" y="59"/><ellipse cx="162.9697" cy="74" fill="#ADD1B2" rx="10" ry="10" style="stroke:#181818;stroke-width:1;"/><path d="M164.8593,78.9561 Q164.3808,79.2021 163.8545,79.3252 Q163.3281,79.4482 162.747,79.4482 Q160.6826,79.4482 159.5957,78.0879 Q158.5088,76.7275 158.5088,74.1572 Q158.5088,71.5801 159.5957,70.2197 Q160.6826,68.8594 162.747,68.8594 Q163.3281,68.8594 163.8613,68.9824 Q164.3945,69.1055 164.8593,69.3516 L164.8593,71.5938 Q164.3398,71.1152 163.851,70.8931 Q163.3623,70.6709 162.8427,70.6709 Q161.7353,70.6709 161.1713,71.5493 Q160.6074,72.4277 160.6074,74.1572 Q160.6074,75.8799 161.1713,76.7583 Q161.7353,77.6367 162.8427,77.6367 Q163.3623,77.6367 163.851,77.4146 Q164.3398,77.1924 164.8593,76.7139 Z " fill="#0F172A"/><text fill="#334155" font-family="Helvetica" font-size="12" lengthAdjust="spacing" textLength="90.0527" x="181.9697" y="77.2402">SessionManager</text><line style="stroke:#64748B;stroke-width:0.5;" x1="109.79" x2="314.2021" y1="89" y2="89"/><g data-visibility-modifier="PRIVATE_FIELD"><rect fill="none" height="6" style="stroke:#C82930;stroke-width:1;" width="6" x="116.79" y="97.5"/></g><text fill="#334155" font-family="Helvetica" font-size="12" lengthAdjust="spacing" textLength="142.7344" x="127.79" y="102.2402">_cache: Dict&lt;str, Session&gt;</text><g data-visibility-modifier="PRIVATE_FIELD"><rect fill="none" height="6" style="stroke:#C82930;stroke-width:1;" width="6" x="116.79" y="109.5"/></g><text fill="#334155" font-family="Helvetica" font-size="12" lengthAdjust="spacing" textLength="125.4141" x="127.79" y="114.2402">_workspace_path: Path</text><line style="stroke:#64748B;stroke-width:0.5;" x1="109.79" x2="314.2021" y1="121" y2="121"/><g data-visibility-modifier="PUBLIC_METHOD"><ellipse cx="119.79" cy="132.5" fill="#84BE84" rx="3" ry="3" style="stroke:#038048;stroke-width:1;"/></g><text fill="#334155" font-family="Helvetica" font-size="12" lengthAdjust="spacing" textLength="166.7402" x="127.79" y="134.2402">get_or_create(key: str) Session</text><g data-visibility-modifier="PUBLIC_METHOD"><ellipse cx="119.79" cy="144.5" fill="#84BE84" rx="3" ry="3" style="stroke:#038048;stroke-width:1;"/></g><text fill="#334155" font-family="Helvetica" font-size="12" lengthAdjust="spacing" textLength="98.0215" x="127.79" y="146.2402">clear(key: str) void</text><g data-visibility-modifier="PUBLIC_METHOD"><ellipse cx="119.79" cy="156.5" fill="#84BE84" rx="3" ry="3" style="stroke:#038048;stroke-width:1;"/></g><text fill="#334155" font-family="Helvetica" font-size="12" lengthAdjust="spacing" textLength="122.7129" x="127.79" y="158.2402">invalidate(key: str) void</text><g data-visibility-modifier="PUBLIC_METHOD"><ellipse cx="119.79" cy="168.5" fill="#84BE84" rx="3" ry="3" style="stroke:#038048;stroke-width:1;"/></g><text fill="#334155" font-family="Helvetica" font-size="12" lengthAdjust="spacing" textLength="181.4121" x="127.79" y="170.2402">list_sessions() List&lt;SessionMeta&gt;</text></g><!--class Session--><g class="entity" data-qualified-name="Public_API.Session" data-source-line="13" id="ent0003"><rect fill="#FFFFFF" height="142" rx="4" ry="4" style="stroke:#64748B;stroke-width:0.5;" width="297.8242" x="23.09" y="273"/><ellipse cx="146.6564" cy="288" fill="#ADD1B2" rx="10" ry="10" style="stroke:#181818;stroke-width:1;"/><path d="M148.5461,292.9561 Q148.0675,293.2021 147.5412,293.3252 Q147.0148,293.4482 146.4338,293.4482 Q144.3693,293.4482 143.2824,292.0879 Q142.1955,290.7275 142.1955,288.1572 Q142.1955,285.5801 143.2824,284.2197 Q144.3693,282.8594 146.4338,282.8594 Q147.0148,282.8594 147.548,282.9824 Q148.0812,283.1055 148.5461,283.3516 L148.5461,285.5938 Q148.0265,285.1152 147.5378,284.8931 Q147.049,284.6709 146.5295,284.6709 Q145.422,284.6709 144.8581,285.5493 Q144.2941,286.4277 144.2941,288.1572 Q144.2941,289.8799 144.8581,290.7583 Q145.422,291.6367 146.5295,291.6367 Q147.049,291.6367 147.5378,291.4146 Q148.0265,291.1924 148.5461,290.7139 Z " fill="#0F172A"/><text fill="#334155" font-family="Helvetica" font-size="12" lengthAdjust="spacing" textLength="42.6914" x="165.6564" y="291.2402">Session</text><line style="stroke:#64748B;stroke-width:0.5;" x1="24.09" x2="319.9142" y1="303" y2="303"/><g data-visibility-modifier="PUBLIC_FIELD"><ellipse cx="34.09" cy="314.5" fill="none" rx="3" ry="3" style="stroke:#038048;stroke-width:1;"/></g><text fill="#334155" font-family="Helvetica" font-size="12" lengthAdjust="spacing" textLength="38.6719" x="42.09" y="316.2402">key: str</text><g data-visibility-modifier="PUBLIC_FIELD"><ellipse cx="34.09" cy="326.5" fill="none" rx="3" ry="3" style="stroke:#038048;stroke-width:1;"/></g><text fill="#334155" font-family="Helvetica" font-size="12" lengthAdjust="spacing" textLength="142.7402" x="42.09" y="328.2402">messages: List&lt;Message&gt;</text><g data-visibility-modifier="PUBLIC_FIELD"><ellipse cx="34.09" cy="338.5" fill="none" rx="3" ry="3" style="stroke:#038048;stroke-width:1;"/></g><text fill="#334155" font-family="Helvetica" font-size="12" lengthAdjust="spacing" textLength="77.3672" x="42.09" y="340.2402">metadata: Dict</text><g data-visibility-modifier="PUBLIC_FIELD"><ellipse cx="34.09" cy="350.5" fill="none" rx="3" ry="3" style="stroke:#038048;stroke-width:1;"/></g><text fill="#334155" font-family="Helvetica" font-size="12" lengthAdjust="spacing" textLength="109.4004" x="42.09" y="352.2402">created_at: datetime</text><g data-visibility-modifier="PUBLIC_FIELD"><ellipse cx="34.09" cy="362.5" fill="none" rx="3" ry="3" style="stroke:#038048;stroke-width:1;"/></g><text fill="#334155" font-family="Helvetica" font-size="12" lengthAdjust="spacing" textLength="112.752" x="42.09" y="364.2402">updated_at: datetime</text><g data-visibility-modifier="PUBLIC_FIELD"><ellipse cx="34.09" cy="374.5" fill="none" rx="3" ry="3" style="stroke:#038048;stroke-width:1;"/></g><text fill="#334155" font-family="Helvetica" font-size="12" lengthAdjust="spacing" textLength="142.752" x="42.09" y="376.2402">consolidation_progress: int</text><line style="stroke:#64748B;stroke-width:0.5;" x1="24.09" x2="319.9142" y1="383" y2="383"/><g data-visibility-modifier="PUBLIC_METHOD"><ellipse cx="34.09" cy="394.5" fill="#84BE84" rx="3" ry="3" style="stroke:#038048;stroke-width:1;"/></g><text fill="#334155" font-family="Helvetica" font-size="12" lengthAdjust="spacing" textLength="272.8242" x="42.09" y="396.2402">add_message(role, content, tool_calls, tool_call_id)</text><g data-visibility-modifier="PUBLIC_METHOD"><ellipse cx="34.09" cy="406.5" fill="#84BE84" rx="3" ry="3" style="stroke:#038048;stroke-width:1;"/></g><text fill="#334155" font-family="Helvetica" font-size="12" lengthAdjust="spacing" textLength="33.3398" x="42.09" y="408.2402">save()</text></g><!--class JSONLStorage--><g class="entity" data-qualified-name="Storage_Layer.JSONLStorage" data-source-line="26" id="ent0005"><rect fill="#FFFFFF" height="82" rx="4" ry="4" style="stroke:#64748B;stroke-width:0.5;" width="148.3867" x="440.81" y="303"/><ellipse cx="471.7659" cy="318" fill="#ADD1B2" rx="10" ry="10" style="stroke:#181818;stroke-width:1;"/><path d="M473.6555,322.9561 Q473.177,323.2021 472.6506,323.3252 Q472.1243,323.4482 471.5432,323.4482 Q469.4788,323.4482 468.3918,322.0879 Q467.3049,320.7275 467.3049,318.1572 Q467.3049,315.5801 468.3918,314.2197 Q469.4788,312.8594 471.5432,312.8594 Q472.1243,312.8594 472.6575,312.9824 Q473.1907,313.1055 473.6555,313.3516 L473.6555,315.5938 Q473.136,315.1152 472.6472,314.8931 Q472.1584,314.6709 471.6389,314.6709 Q470.5315,314.6709 469.9675,315.5493 Q469.4036,316.4277 469.4036,318.1572 Q469.4036,319.8799 469.9675,320.7583 Q470.5315,321.6367 471.6389,321.6367 Q472.1584,321.6367 472.6472,321.4146 Q473.136,321.1924 473.6555,320.7139 Z " fill="#0F172A"/><text fill="#334155" font-family="Helvetica" font-size="12" lengthAdjust="spacing" textLength="80.707" x="488.5338" y="321.2402">JSONLStorage</text><line style="stroke:#64748B;stroke-width:0.5;" x1="441.81" x2="588.1967" y1="333" y2="333"/><line style="stroke:#64748B;stroke-width:0.5;" x1="441.81" x2="588.1967" y1="341" y2="341"/><g data-visibility-modifier="PUBLIC_METHOD"><ellipse cx="451.81" cy="352.5" fill="#84BE84" rx="3" ry="3" style="stroke:#038048;stroke-width:1;"/></g><text fill="#334155" font-family="Helvetica" font-size="12" lengthAdjust="spacing" textLength="123.3867" x="459.81" y="354.2402">save(session: Session)</text><g data-visibility-modifier="PUBLIC_METHOD"><ellipse cx="451.81" cy="364.5" fill="#84BE84" rx="3" ry="3" style="stroke:#038048;stroke-width:1;"/></g><text fill="#334155" font-family="Helvetica" font-size="12" lengthAdjust="spacing" textLength="115.377" x="459.81" y="366.2402">load(key: str) Session</text><g data-visibility-modifier="PUBLIC_METHOD"><ellipse cx="451.81" cy="376.5" fill="#84BE84" rx="3" ry="3" style="stroke:#038048;stroke-width:1;"/></g><text fill="#334155" font-family="Helvetica" font-size="12" lengthAdjust="spacing" textLength="89.3672" x="459.81" y="378.2402">migrate_legacy()</text></g><!--class Message--><g class="entity" data-qualified-name="Storage_Layer.Message" data-source-line="32" id="ent0006"><rect fill="#FFFFFF" height="106" rx="4" ry="4" style="stroke:#64748B;stroke-width:0.5;" width="136.4043" x="630.8" y="291"/><ellipse cx="670.7708" cy="306" fill="#ADD1B2" rx="10" ry="10" style="stroke:#181818;stroke-width:1;"/><path d="M672.6604,310.9561 Q672.1819,311.2021 671.6556,311.3252 Q671.1292,311.4482 670.5481,311.4482 Q668.4837,311.4482 667.3968,310.0879 Q666.3099,308.7275 666.3099,306.1572 Q666.3099,303.5801 667.3968,302.2197 Q668.4837,300.8594 670.5481,300.8594 Q671.1292,300.8594 671.6624,300.9824 Q672.1956,301.1055 672.6604,301.3516 L672.6604,303.5938 Q672.1409,303.1152 671.6521,302.8931 Q671.1634,302.6709 670.6438,302.6709 Q669.5364,302.6709 668.9725,303.5493 Q668.4085,304.4277 668.4085,306.1572 Q668.4085,307.8799 668.9725,308.7583 Q669.5364,309.6367 670.6438,309.6367 Q671.1634,309.6367 671.6521,309.4146 Q672.1409,309.1924 672.6604,308.7139 Z " fill="#0F172A"/><text fill="#334155" font-family="Helvetica" font-size="12" lengthAdjust="spacing" textLength="48.6914" x="689.5421" y="309.2402">Message</text><line style="stroke:#64748B;stroke-width:0.5;" x1="631.8" x2="766.2043" y1="321" y2="321"/><g data-visibility-modifier="PUBLIC_FIELD"><ellipse cx="641.8" cy="332.5" fill="none" rx="3" ry="3" style="stroke:#038048;stroke-width:1;"/></g><text fill="#334155" font-family="Helvetica" font-size="12" lengthAdjust="spacing" textLength="40.0078" x="649.8" y="334.2402">role: str</text><g data-visibility-modifier="PUBLIC_FIELD"><ellipse cx="641.8" cy="344.5" fill="none" rx="3" ry="3" style="stroke:#038048;stroke-width:1;"/></g><text fill="#334155" font-family="Helvetica" font-size="12" lengthAdjust="spacing" textLength="59.3613" x="649.8" y="346.2402">content: str</text><g data-visibility-modifier="PUBLIC_FIELD"><ellipse cx="641.8" cy="356.5" fill="none" rx="3" ry="3" style="stroke:#038048;stroke-width:1;"/></g><text fill="#334155" font-family="Helvetica" font-size="12" lengthAdjust="spacing" textLength="108.041" x="649.8" y="358.2402">timestamp: datetime</text><g data-visibility-modifier="PUBLIC_FIELD"><ellipse cx="641.8" cy="368.5" fill="none" rx="3" ry="3" style="stroke:#038048;stroke-width:1;"/></g><text fill="#334155" font-family="Helvetica" font-size="12" lengthAdjust="spacing" textLength="101.3906" x="649.8" y="370.2402">tool_calls: Optional</text><g data-visibility-modifier="PUBLIC_FIELD"><ellipse cx="641.8" cy="380.5" fill="none" rx="3" ry="3" style="stroke:#038048;stroke-width:1;"/></g><text fill="#334155" font-family="Helvetica" font-size="12" lengthAdjust="spacing" textLength="111.4043" x="649.8" y="382.2402">tool_call_id: Optional</text><line style="stroke:#64748B;stroke-width:0.5;" x1="631.8" x2="766.2043" y1="389" y2="389"/></g><g class="entity" data-qualified-name="GMN11" data-source-line="47" id="ent0012"><path d="M357.67,103 L357.67,114 L315.44,118 L357.67,122 L357.67,133 A4,4 0 0 0 361.67,137 L572.3311,137 A4,4 0 0 0 576.3311,133 L576.3311,109 L566.3311,99 L361.67,99 A4,4 0 0 0 357.67,103" fill="#FFF7ED" style="stroke:#FDBA74;stroke-width:0.5;"/><path d="M566.3311,99 L566.3311,107 A2,2 0 0 0 568.3311,109 L576.3311,109 L566.3311,99" fill="#FFF7ED" style="stroke:#FDBA74;stroke-width:0.5;"/><text fill="#7C2D12" font-family="Helvetica" font-size="14" lengthAdjust="spacing" textLength="131.5303" x="376.5045" y="114.7803">Entry point defined in</text><text fill="#7C2D12" font-family="Helvetica" font-size="14" lengthAdjust="spacing" text-decoration="underline" textLength="17.8965" x="511.9244" y="114.7803">init</text><text fill="#7C2D12" font-family="Helvetica" font-size="14" lengthAdjust="spacing" textLength="18.6758" x="529.8209" y="114.7803">.py</text><text fill="#7C2D12" font-family="Helvetica" font-size="14" lengthAdjust="spacing" textLength="179.7646" x="363.67" y="128.7803">Exposes clean public API via</text><text fill="#7C2D12" font-family="Helvetica" font-size="14" lengthAdjust="spacing" text-decoration="underline" textLength="14.0068" x="547.3243" y="128.7803">all</text></g><g class="entity" data-qualified-name="GMN14" data-source-line="51" id="ent0015"><path d="M809.07,322 L809.07,366 A4,4 0 0 0 813.07,370 L980.9313,370 A4,4 0 0 0 984.9313,366 L984.9313,328 L974.9313,318 L813.07,318 A4,4 0 0 0 809.07,322" fill="#FFF7ED" style="stroke:#FDBA74;stroke-width:0.5;"/><path d="M974.9313,318 L974.9313,326 A2,2 0 0 0 976.9313,328 L984.9313,328 L974.9313,318" fill="#FFF7ED" style="stroke:#FDBA74;stroke-width:1;"/><text fill="#7C2D12" font-family="Helvetica" font-size="14" lengthAdjust="spacing" textLength="140.8271" x="822.0871" y="333.7803">Handles atomic writes,</text><text fill="#7C2D12" font-family="Helvetica" font-size="14" lengthAdjust="spacing" textLength="133.0752" x="825.9631" y="347.7803">legacy migration, and</text><text fill="#7C2D12" font-family="Helvetica" font-size="14" lengthAdjust="spacing" textLength="154.8613" x="815.07" y="361.7803">workspace-scoped paths</text></g><!--link SessionManager to Session--><g class="link" data-entity-1="ent0002" data-entity-2="ent0003" data-link-type="dependency" data-source-line="41" id="lnk7"><path codeLine="41" d="M201.59,177.27 C196.39,206.44 190.9192,237.0479 185.4392,267.7279" fill="none" id="SessionManager-to-Session" style="stroke:#64748B;stroke-width:1.1;"/><polygon fill="#64748B" points="184.56,272.65,190.0802,264.4936,185.4392,267.7279,182.2048,263.0869,184.56,272.65" style="stroke:#64748B;stroke-width:1.1;stroke-linejoin:miter;stroke-miterlimit:10;"/><text fill="#334155" font-family="Helvetica" font-size="12" lengthAdjust="spacing" textLength="49.3652" x="196.58" y="219.2402">manages</text><text fill="#334155" font-family="Helvetica" font-size="12" lengthAdjust="spacing" textLength="6.6738" x="194.0789" y="194.0571">1</text><text fill="#334155" font-family="Helvetica" font-size="12" lengthAdjust="spacing" textLength="4.6699" x="181.6323" y="262.2761">*</text></g><!--link Session to Message--><g class="link" data-entity-1="ent0003" data-entity-2="ent0006" data-link-type="dependency" data-source-line="42" id="lnk8"><path codeLine="42" d="M321.27,278.19 C375.17,254.42 423,233.33 423,233.33 C423,233.33 610,233.33 610,233.33 C610,233.33 630.1773,258.4131 652.9273,286.7131" fill="none" id="Session-to-Message" style="stroke:#64748B;stroke-width:1.1;"/><polygon fill="#64748B" points="656.06,290.61,653.5387,281.0893,652.9273,286.7131,647.3036,286.1017,656.06,290.61" style="stroke:#64748B;stroke-width:1.1;stroke-linejoin:miter;stroke-miterlimit:10;"/><text fill="#334155" font-family="Helvetica" font-size="12" lengthAdjust="spacing" textLength="44.6953" x="454" y="219.2402">contains</text><text fill="#334155" font-family="Helvetica" font-size="12" lengthAdjust="spacing" textLength="6.6738" x="329.1387" y="271.7275">1</text><text fill="#334155" font-family="Helvetica" font-size="12" lengthAdjust="spacing" textLength="4.6699" x="646.3447" y="280.2409">*</text></g><!--link SessionManager to JSONLStorage--><g class="link" data-entity-1="ent0002" data-entity-2="ent0005" data-link-type="dependency" data-source-line="43" id="lnk9"><path codeLine="43" d="M290.82,177.27 C344.12,216.68 409.1395,264.7375 456.4395,299.7075" fill="none" id="SessionManager-to-JSONLStorage" style="stroke:#64748B;stroke-width:1.1;"/><polygon fill="#64748B" points="460.46,302.68,455.601,294.1132,456.4395,299.7075,450.8451,300.546,460.46,302.68" style="stroke:#64748B;stroke-width:1.1;stroke-linejoin:miter;stroke-miterlimit:10;"/><text fill="#334155" font-family="Helvetica" font-size="12" lengthAdjust="spacing" textLength="60.0176" x="346.36" y="219.2402">persists via</text></g><!--link JSONLStorage to Session--><g class="link" data-entity-1="ent0005" data-entity-2="ent0003" data-link-type="dependency" data-source-line="44" id="lnk10"><path codeLine="44" d="M440.63,344 C405.54,344 367.35,344 325.95,344" fill="none" id="JSONLStorage-to-Session" style="stroke:#64748B;stroke-width:1.1;stroke-dasharray:7,7;"/><polygon fill="#64748B" points="320.95,344,329.95,348,325.95,344,329.95,340,320.95,344" style="stroke:#64748B;stroke-width:1.1;stroke-linejoin:miter;stroke-miterlimit:10;"/><text fill="#334155" font-family="Helvetica" font-size="12" lengthAdjust="spacing" textLength="76.7051" x="342.86" y="337.2402">deserializes to</text></g><!--link JSONLStorage to GMN14--><g class="link" data-entity-1="ent0005" data-entity-2="ent0015" data-link-type="association" data-source-line="51" id="lnk16"><path d="M549.18,302.75 C583.39,261.46 631,204 631,204 C631,204 764,204 764,204 C764,204 833.46,277.11 871.98,317.67" fill="none" id="JSONLStorage-GMN14" style="stroke:#64748B;stroke-width:1.1;stroke-dasharray:7,7;"/></g><?plantuml-src XLJRYjim47tFLqpzbBH9eAzc2Ioqq9PiDv0F45ffueZ8af0csQQb_zxnBRKTBwi7OscEHaTdZkQ3SSgUDKA8_e0f6U-aNT4HIroRSsbdv0EGXnTFv4lG9g8Y1is0Hv3g90k4R7T-iKQ9nztt3FxKeMeeArE2VPFrIJg6nbwu6fyA9E6ZK14buVo4rnmInKMtQmXM5cNiWIxUw272k8kqHWzptSEiIIHISqIQBs3ByuUEA9BS3E0heQGwOWvVZA87Jhdiw8rnhpwU4gk28aWwvh3ZxmtoTpQjp5YIZlXmjMGm2vZoXknJCzsCGIJvyhAXEXAlbbWBIJbK0f4fSOWu1_qEGcejMYBpw2qkGNb7w6Z97l6MTR8szVw5qOjXXYGlE1-jSOxawwgn6eADM4G-8mVZg2TUJyARx_Ra8_-8hRnYlBVUZ_tppssB6QjS4saja7Ub616pNkhtF5cQ8h9Mmc8XrRLtjRjojoKR4wbqdAXtA-n4f2fB8bc6jwhqlnGvF0Ugd_GR22xG16OWzkZzPfypMAqsa7tCRWREeQoZgRzXWEpkdjU6aSQbgTmLUb2p70B6n7vFS36otZA8hzUR7WcD2QFXz_yR4tkmeUyy8KHJ70dyONHWU-6lZk8LWcU_SOw3SQZPUo24SOQ4M8Th1_mLF5i6gZxa8DHD3xZfLUGONkafQYWwNHyymQ3FlqtxJJfjEQta3ii9NwCXJCissFWA6finzIKmketTsiqgAH-OTTLrqe31Fm00?></g></svg>