<svg xmlns="http://www.w3.org/2000/svg" xmlns:xlink="http://www.w3.org/1999/xlink" contentStyleType="text/css" data-diagram-type="CLASS" height="991px" preserveAspectRatio="none" style="width:1157px;height:991px;background:#FFFFFF;" version="1.1" viewBox="0 0 1157 991" width="1157px" zoomAndPan="magnify"><?plantuml 1.2026.5?><defs/><rect data-xfeat-white-canvas="true" fill="#FFFFFF" height="100%" width="100%" x="0" y="0"/><g><!--cluster Public API--><g class="cluster" data-qualified-name="Public API" data-source-line="3" id="ent0001"><rect fill="#F8FAFC" height="132" rx="4" ry="4" style="stroke:#CBD5E1;stroke-width:1.5;" width="124" x="504" y="19"/><text fill="#0F172A" font-family="Helvetica" font-size="15" font-weight="700" lengthAdjust="spacing" textLength="74.1797" x="528.9102" y="32.5503">Public API</text></g><!--cluster Core Framework--><g class="cluster" data-qualified-name="Core Framework" data-source-line="11" id="ent0003"><rect fill="#F8FAFC" height="400" rx="4" ry="4" style="stroke:#CBD5E1;stroke-width:1.5;" width="190" x="550" y="209"/><text fill="#0F172A" font-family="Helvetica" font-size="15" font-weight="700" lengthAdjust="spacing" textLength="118.374" x="585.813" y="222.5503">Core Framework</text></g><!--cluster Built-in Tools--><g class="cluster" data-qualified-name="Built-in Tools" data-source-line="34" id="ent0006"><rect fill="#F8FAFC" height="168" rx="4" ry="4" style="stroke:#CBD5E1;stroke-width:1.5;" width="1037" x="7" y="655"/><text fill="#0F172A" font-family="Helvetica" font-size="15" font-weight="700" lengthAdjust="spacing" textLength="95.8154" x="477.5923" y="668.5503">Built-in Tools</text></g><!--cluster External Integration--><g class="cluster" data-qualified-name="External Integration" data-source-line="78" id="ent0013"><rect fill="#F8FAFC" height="156" rx="4" ry="4" style="stroke:#CBD5E1;stroke-width:1.5;" width="194" x="756" y="7"/><text fill="#0F172A" font-family="Helvetica" font-size="15" font-weight="700" lengthAdjust="spacing" textLength="140.8594" x="782.5703" y="20.5503">External Integration</text></g><!--cluster External Services--><g class="cluster" data-qualified-name="External Services" data-source-line="88" id="ent0015"><rect fill="#F8FAFC" height="108" rx="4" ry="4" style="stroke:#CBD5E1;stroke-width:1.5;" width="598" x="129" y="869"/><text fill="#0F172A" font-family="Helvetica" font-size="15" font-weight="700" lengthAdjust="spacing" textLength="125.083" x="365.4585" y="882.5503">External Services</text></g><!--class InitModule--><g class="entity" data-qualified-name="Public API.InitModule" data-source-line="4" id="ent0002"><rect fill="#FFFFFF" height="82" rx="4" ry="4" style="stroke:#64748B;stroke-width:0.5;" width="92.3535" x="519.82" y="53"/><ellipse cx="536.9647" cy="68" fill="#ADD1B2" rx="10" ry="10" style="stroke:#181818;stroke-width:1;"/><path d="M538.8544,72.9561 Q538.3759,73.2021 537.8495,73.3252 Q537.3231,73.4482 536.7421,73.4482 Q534.6776,73.4482 533.5907,72.0879 Q532.5038,70.7275 532.5038,68.1572 Q532.5038,65.5801 533.5907,64.2197 Q534.6776,62.8594 536.7421,62.8594 Q537.3231,62.8594 537.8563,62.9824 Q538.3895,63.1055 538.8544,63.3516 L538.8544,65.5938 Q538.3348,65.1152 537.8461,64.8931 Q537.3573,64.6709 536.8378,64.6709 Q535.7304,64.6709 535.1664,65.5493 Q534.6024,66.4277 534.6024,68.1572 Q534.6024,69.8799 535.1664,70.7583 Q535.7304,71.6367 536.8378,71.6367 Q537.3573,71.6367 537.8461,71.4146 Q538.3348,71.1924 538.8544,70.7139 Z " fill="#0F172A"/><text fill="#334155" font-family="Helvetica" font-size="12" lengthAdjust="spacing" textLength="55.3652" x="550.6636" y="71.2402">InitModule</text><line style="stroke:#64748B;stroke-width:0.5;" x1="520.82" x2="611.1735" y1="83" y2="83"/><text fill="#334155" font-family="Helvetica" font-size="12" lengthAdjust="spacing" textLength="52.7051" x="538.82" y="96.2402">&#171;module&#187;</text><g data-visibility-modifier="PUBLIC_FIELD"><ellipse cx="530.82" cy="106.5" fill="none" rx="3" ry="3" style="stroke:#038048;stroke-width:1;"/></g><text fill="#334155" font-family="Helvetica" font-size="12" lengthAdjust="spacing" textLength="23.3438" x="538.82" y="108.2402">Tool</text><g data-visibility-modifier="PUBLIC_FIELD"><ellipse cx="530.82" cy="118.5" fill="none" rx="3" ry="3" style="stroke:#038048;stroke-width:1;"/></g><text fill="#334155" font-family="Helvetica" font-size="12" lengthAdjust="spacing" textLength="67.3535" x="538.82" y="120.2402">ToolRegistry</text><line style="stroke:#64748B;stroke-width:0.5;" x1="520.82" x2="611.1735" y1="127" y2="127"/></g><!--class ToolBase--><g class="entity" data-qualified-name="Core Framework.ToolBase" data-source-line="12" id="ent0004"><rect fill="#FFFFFF" height="142" rx="4" ry="4" style="stroke:#64748B;stroke-width:0.5;" width="158.4063" x="565.8" y="451"/><ellipse cx="615.6555" cy="466" fill="#ADD1B2" rx="10" ry="10" style="stroke:#181818;stroke-width:1;"/><path d="M617.5451,470.9561 Q617.0666,471.2021 616.5402,471.3252 Q616.0139,471.4482 615.4328,471.4482 Q613.3684,471.4482 612.2814,470.0879 Q611.1945,468.7275 611.1945,466.1572 Q611.1945,463.5801 612.2814,462.2197 Q613.3684,460.8594 615.4328,460.8594 Q616.0139,460.8594 616.5471,460.9824 Q617.0803,461.1055 617.5451,461.3516 L617.5451,463.5938 Q617.0256,463.1152 616.5368,462.8931 Q616.048,462.6709 615.5285,462.6709 Q614.4211,462.6709 613.8571,463.5493 Q613.2932,464.4277 613.2932,466.1572 Q613.2932,467.8799 613.8571,468.7583 Q614.4211,469.6367 615.5285,469.6367 Q616.048,469.6367 616.5368,469.4146 Q617.0256,469.1924 617.5451,468.7139 Z " fill="#0F172A"/><text fill="#334155" font-family="Helvetica" font-size="12" lengthAdjust="spacing" textLength="50.6953" x="634.6555" y="469.2402">ToolBase</text><line style="stroke:#64748B;stroke-width:0.5;" x1="566.8" x2="723.2063" y1="481" y2="481"/><text fill="#334155" font-family="Helvetica" font-size="12" lengthAdjust="spacing" textLength="56.0332" x="584.8" y="494.2402">&#171;abstract&#187;</text><g data-visibility-modifier="PUBLIC_FIELD"><ellipse cx="576.8" cy="504.5" fill="none" rx="3" ry="3" style="stroke:#038048;stroke-width:1;"/></g><text fill="#334155" font-family="Helvetica" font-size="12" lengthAdjust="spacing" textLength="50.0156" x="584.8" y="506.2402">name: str</text><g data-visibility-modifier="PUBLIC_FIELD"><ellipse cx="576.8" cy="516.5" fill="none" rx="3" ry="3" style="stroke:#038048;stroke-width:1;"/></g><text fill="#334155" font-family="Helvetica" font-size="12" lengthAdjust="spacing" textLength="78.0293" x="584.8" y="518.2402">description: str</text><g data-visibility-modifier="PUBLIC_FIELD"><ellipse cx="576.8" cy="528.5" fill="none" rx="3" ry="3" style="stroke:#038048;stroke-width:1;"/></g><text fill="#334155" font-family="Helvetica" font-size="12" lengthAdjust="spacing" textLength="86.0332" x="584.8" y="530.2402">parameters: dict</text><line style="stroke:#64748B;stroke-width:0.5;" x1="566.8" x2="723.2063" y1="537" y2="537"/><g data-visibility-modifier="PUBLIC_METHOD"><ellipse cx="576.8" cy="548.5" fill="#84BE84" rx="3" ry="3" style="stroke:#038048;stroke-width:1;"/></g><text fill="#334155" font-family="Helvetica" font-size="12" lengthAdjust="spacing" textLength="89.373" x="584.8" y="550.2402">execute()* async</text><g data-visibility-modifier="PUBLIC_METHOD"><ellipse cx="576.8" cy="560.5" fill="#84BE84" rx="3" ry="3" style="stroke:#038048;stroke-width:1;"/></g><text fill="#334155" font-family="Helvetica" font-size="12" lengthAdjust="spacing" textLength="96.041" x="584.8" y="562.2402">validate_params()</text><g data-visibility-modifier="PUBLIC_METHOD"><ellipse cx="576.8" cy="572.5" fill="#84BE84" rx="3" ry="3" style="stroke:#038048;stroke-width:1;"/></g><text fill="#334155" font-family="Helvetica" font-size="12" lengthAdjust="spacing" textLength="73.3652" x="584.8" y="574.2402">get_schema()</text><g data-visibility-modifier="PRIVATE_METHOD"><rect fill="#F24D5C" height="6" style="stroke:#C82930;stroke-width:1;" width="6" x="573.8" y="581.5"/></g><text fill="#334155" font-family="Helvetica" font-size="12" lengthAdjust="spacing" textLength="133.4063" x="584.8" y="586.2402">_validate_json_schema()</text></g><!--class ToolRegistry--><g class="entity" data-qualified-name="Core Framework.ToolRegistry" data-source-line="23" id="ent0005"><rect fill="#FFFFFF" height="130" rx="4" ry="4" style="stroke:#64748B;stroke-width:0.5;" width="151.7207" x="572.14" y="243"/><ellipse cx="610.6052" cy="258" fill="#ADD1B2" rx="10" ry="10" style="stroke:#181818;stroke-width:1;"/><path d="M612.4949,262.9561 Q612.0164,263.2021 611.49,263.3252 Q610.9636,263.4482 610.3826,263.4482 Q608.3181,263.4482 607.2312,262.0879 Q606.1443,260.7275 606.1443,258.1572 Q606.1443,255.5801 607.2312,254.2197 Q608.3181,252.8594 610.3826,252.8594 Q610.9636,252.8594 611.4968,252.9824 Q612.03,253.1055 612.4949,253.3516 L612.4949,255.5938 Q611.9754,255.1152 611.4866,254.8931 Q610.9978,254.6709 610.4783,254.6709 Q609.3709,254.6709 608.8069,255.5493 Q608.2429,256.4277 608.2429,258.1572 Q608.2429,259.8799 608.8069,260.7583 Q609.3709,261.6367 610.4783,261.6367 Q610.9978,261.6367 611.4866,261.4146 Q611.9754,261.1924 612.4949,260.7139 Z " fill="#0F172A"/><text fill="#334155" font-family="Helvetica" font-size="12" lengthAdjust="spacing" textLength="67.3535" x="629.042" y="261.2402">ToolRegistry</text><line style="stroke:#64748B;stroke-width:0.5;" x1="573.14" x2="722.8607" y1="273" y2="273"/><g data-visibility-modifier="PRIVATE_FIELD"><rect fill="none" height="6" style="stroke:#C82930;stroke-width:1;" width="6" x="580.14" y="281.5"/></g><text fill="#334155" font-family="Helvetica" font-size="12" lengthAdjust="spacing" textLength="57.3633" x="591.14" y="286.2402">_tools: dict</text><line style="stroke:#64748B;stroke-width:0.5;" x1="573.14" x2="722.8607" y1="293" y2="293"/><g data-visibility-modifier="PUBLIC_METHOD"><ellipse cx="583.14" cy="304.5" fill="#84BE84" rx="3" ry="3" style="stroke:#038048;stroke-width:1;"/></g><text fill="#334155" font-family="Helvetica" font-size="12" lengthAdjust="spacing" textLength="67.3535" x="591.14" y="306.2402">register(tool)</text><g data-visibility-modifier="PUBLIC_METHOD"><ellipse cx="583.14" cy="316.5" fill="#84BE84" rx="3" ry="3" style="stroke:#038048;stroke-width:1;"/></g><text fill="#334155" font-family="Helvetica" font-size="12" lengthAdjust="spacing" textLength="91.3711" x="591.14" y="318.2402">unregister(name)</text><g data-visibility-modifier="PUBLIC_METHOD"><ellipse cx="583.14" cy="328.5" fill="#84BE84" rx="3" ry="3" style="stroke:#038048;stroke-width:1;"/></g><text fill="#334155" font-family="Helvetica" font-size="12" lengthAdjust="spacing" textLength="54.6914" x="591.14" y="330.2402">get(name)</text><g data-visibility-modifier="PUBLIC_METHOD"><ellipse cx="583.14" cy="340.5" fill="#84BE84" rx="3" ry="3" style="stroke:#038048;stroke-width:1;"/></g><text fill="#334155" font-family="Helvetica" font-size="12" lengthAdjust="spacing" textLength="126.7207" x="591.14" y="342.2402">execute(name, params)</text><g data-visibility-modifier="PUBLIC_METHOD"><ellipse cx="583.14" cy="352.5" fill="#84BE84" rx="3" ry="3" style="stroke:#038048;stroke-width:1;"/></g><text fill="#334155" font-family="Helvetica" font-size="12" lengthAdjust="spacing" textLength="85.3828" x="591.14" y="354.2402">get_definitions()</text><g data-visibility-modifier="PUBLIC_METHOD"><ellipse cx="583.14" cy="364.5" fill="#84BE84" rx="3" ry="3" style="stroke:#038048;stroke-width:1;"/></g><text fill="#334155" font-family="Helvetica" font-size="12" lengthAdjust="spacing" textLength="54.6797" x="591.14" y="366.2402">list_tools()</text></g><!--class FilesystemTool--><g class="entity" data-qualified-name="Built-in Tools.FilesystemTool" data-source-line="35" id="ent0007"><rect fill="#FFFFFF" height="118" rx="4" ry="4" style="stroke:#64748B;stroke-width:0.5;" width="111.0566" x="759.47" y="689"/><ellipse cx="773.6379" cy="704" fill="#ADD1B2" rx="10" ry="10" style="stroke:#181818;stroke-width:1;"/><path d="M775.5275,708.9561 Q775.049,709.2021 774.5226,709.3252 Q773.9963,709.4482 773.4152,709.4482 Q771.3508,709.4482 770.2638,708.0879 Q769.1769,706.7275 769.1769,704.1572 Q769.1769,701.5801 770.2638,700.2197 Q771.3508,698.8594 773.4152,698.8594 Q773.9963,698.8594 774.5295,698.9824 Q775.0627,699.1055 775.5275,699.3516 L775.5275,701.5938 Q775.008,701.1152 774.5192,700.8931 Q774.0304,700.6709 773.5109,700.6709 Q772.4035,700.6709 771.8395,701.5493 Q771.2756,702.4277 771.2756,704.1572 Q771.2756,705.8799 771.8395,706.7583 Q772.4035,707.6367 773.5109,707.6367 Q774.0304,707.6367 774.5192,707.4146 Q775.008,707.1924 775.5275,706.7139 Z " fill="#0F172A"/><text fill="#334155" font-family="Helvetica" font-size="12" lengthAdjust="spacing" textLength="80.6836" x="786.6752" y="707.2402">FilesystemTool</text><line style="stroke:#64748B;stroke-width:0.5;" x1="760.47" x2="869.5266" y1="719" y2="719"/><line style="stroke:#64748B;stroke-width:0.5;" x1="760.47" x2="869.5266" y1="727" y2="727"/><g data-visibility-modifier="PUBLIC_METHOD"><ellipse cx="770.47" cy="738.5" fill="#84BE84" rx="3" ry="3" style="stroke:#038048;stroke-width:1;"/></g><text fill="#334155" font-family="Helvetica" font-size="12" lengthAdjust="spacing" textLength="54.0234" x="778.47" y="740.2402">read_file()</text><g data-visibility-modifier="PUBLIC_METHOD"><ellipse cx="770.47" cy="750.5" fill="#84BE84" rx="3" ry="3" style="stroke:#038048;stroke-width:1;"/></g><text fill="#334155" font-family="Helvetica" font-size="12" lengthAdjust="spacing" textLength="55.3418" x="778.47" y="752.2402">write_file()</text><g data-visibility-modifier="PUBLIC_METHOD"><ellipse cx="770.47" cy="762.5" fill="#84BE84" rx="3" ry="3" style="stroke:#038048;stroke-width:1;"/></g><text fill="#334155" font-family="Helvetica" font-size="12" lengthAdjust="spacing" textLength="49.3535" x="778.47" y="764.2402">edit_file()</text><g data-visibility-modifier="PUBLIC_METHOD"><ellipse cx="770.47" cy="774.5" fill="#84BE84" rx="3" ry="3" style="stroke:#038048;stroke-width:1;"/></g><text fill="#334155" font-family="Helvetica" font-size="12" lengthAdjust="spacing" textLength="75.3457" x="778.47" y="776.2402">list_directory()</text><g data-visibility-modifier="PRIVATE_METHOD"><rect fill="#F24D5C" height="6" style="stroke:#C82930;stroke-width:1;" width="6" x="767.47" y="783.5"/></g><text fill="#334155" font-family="Helvetica" font-size="12" lengthAdjust="spacing" textLength="83.3789" x="778.47" y="788.2402">_resolve_path()</text><g data-visibility-modifier="PRIVATE_METHOD"><rect fill="#F24D5C" height="6" style="stroke:#C82930;stroke-width:1;" width="6" x="767.47" y="795.5"/></g><text fill="#334155" font-family="Helvetica" font-size="12" lengthAdjust="spacing" textLength="86.0566" x="778.47" y="800.2402">_validate_path()</text></g><!--class MessageTool--><g class="entity" data-qualified-name="Built-in Tools.MessageTool" data-source-line="44" id="ent0008"><rect fill="#FFFFFF" height="94" rx="4" ry="4" style="stroke:#64748B;stroke-width:0.5;" width="115.7148" x="912.14" y="701"/><ellipse cx="932.2959" cy="716" fill="#ADD1B2" rx="10" ry="10" style="stroke:#181818;stroke-width:1;"/><path d="M934.1855,720.9561 Q933.707,721.2021 933.1806,721.3252 Q932.6543,721.4482 932.0732,721.4482 Q930.0088,721.4482 928.9218,720.0879 Q927.8349,718.7275 927.8349,716.1572 Q927.8349,713.5801 928.9218,712.2197 Q930.0088,710.8594 932.0732,710.8594 Q932.6543,710.8594 933.1875,710.9824 Q933.7207,711.1055 934.1855,711.3516 L934.1855,713.5938 Q933.666,713.1152 933.1772,712.8931 Q932.6884,712.6709 932.1689,712.6709 Q931.0615,712.6709 930.4975,713.5493 Q929.9336,714.4277 929.9336,716.1572 Q929.9336,717.8799 930.4975,718.7583 Q931.0615,719.6367 932.1689,719.6367 Q932.6884,719.6367 933.1772,719.4146 Q933.666,719.1924 934.1855,718.7139 Z " fill="#0F172A"/><text fill="#334155" font-family="Helvetica" font-size="12" lengthAdjust="spacing" textLength="72.0352" x="946.6638" y="719.2402">MessageTool</text><line style="stroke:#64748B;stroke-width:0.5;" x1="913.14" x2="1026.8548" y1="731" y2="731"/><line style="stroke:#64748B;stroke-width:0.5;" x1="913.14" x2="1026.8548" y1="739" y2="739"/><g data-visibility-modifier="PUBLIC_METHOD"><ellipse cx="923.14" cy="750.5" fill="#84BE84" rx="3" ry="3" style="stroke:#038048;stroke-width:1;"/></g><text fill="#334155" font-family="Helvetica" font-size="12" lengthAdjust="spacing" textLength="89.3789" x="931.14" y="752.2402">send_message()</text><g data-visibility-modifier="PUBLIC_METHOD"><ellipse cx="923.14" cy="762.5" fill="#84BE84" rx="3" ry="3" style="stroke:#038048;stroke-width:1;"/></g><text fill="#334155" font-family="Helvetica" font-size="12" lengthAdjust="spacing" textLength="69.3633" x="931.14" y="764.2402">set_context()</text><g data-visibility-modifier="PUBLIC_METHOD"><ellipse cx="923.14" cy="774.5" fill="#84BE84" rx="3" ry="3" style="stroke:#038048;stroke-width:1;"/></g><text fill="#334155" font-family="Helvetica" font-size="12" lengthAdjust="spacing" textLength="62.0215" x="931.14" y="776.2402">reset_turn()</text><g data-visibility-modifier="PRIVATE_METHOD"><rect fill="#F24D5C" height="6" style="stroke:#C82930;stroke-width:1;" width="6" x="920.14" y="783.5"/></g><text fill="#334155" font-family="Helvetica" font-size="12" lengthAdjust="spacing" textLength="90.7148" x="931.14" y="788.2402">_send_callback()</text></g><!--class WebTool--><g class="entity" data-qualified-name="Built-in Tools.WebTool" data-source-line="51" id="ent0009"><rect fill="#FFFFFF" height="94" rx="4" ry="4" style="stroke:#64748B;stroke-width:0.5;" width="141.0449" x="23.48" y="701"/><ellipse cx="65.9937" cy="716" fill="#ADD1B2" rx="10" ry="10" style="stroke:#181818;stroke-width:1;"/><path d="M67.8833,720.9561 Q67.4048,721.2021 66.8784,721.3252 Q66.3521,721.4482 65.771,721.4482 Q63.7066,721.4482 62.6196,720.0879 Q61.5327,718.7275 61.5327,716.1572 Q61.5327,713.5801 62.6196,712.2197 Q63.7066,710.8594 65.771,710.8594 Q66.3521,710.8594 66.8853,710.9824 Q67.4185,711.1055 67.8833,711.3516 L67.8833,713.5938 Q67.3638,713.1152 66.875,712.8931 Q66.3862,712.6709 65.8667,712.6709 Q64.7593,712.6709 64.1953,713.5493 Q63.6314,714.4277 63.6314,716.1572 Q63.6314,717.8799 64.1953,718.7583 Q64.7593,719.6367 65.8667,719.6367 Q66.3862,719.6367 66.875,719.4146 Q67.3638,719.1924 67.8833,718.7139 Z " fill="#0F172A"/><text fill="#334155" font-family="Helvetica" font-size="12" lengthAdjust="spacing" textLength="48.0176" x="84.9937" y="719.2402">WebTool</text><line style="stroke:#64748B;stroke-width:0.5;" x1="24.48" x2="163.5249" y1="731" y2="731"/><line style="stroke:#64748B;stroke-width:0.5;" x1="24.48" x2="163.5249" y1="739" y2="739"/><g data-visibility-modifier="PUBLIC_METHOD"><ellipse cx="34.48" cy="750.5" fill="#84BE84" rx="3" ry="3" style="stroke:#038048;stroke-width:1;"/></g><text fill="#334155" font-family="Helvetica" font-size="12" lengthAdjust="spacing" textLength="72.6973" x="42.48" y="752.2402">web_search()</text><g data-visibility-modifier="PUBLIC_METHOD"><ellipse cx="34.48" cy="762.5" fill="#84BE84" rx="3" ry="3" style="stroke:#038048;stroke-width:1;"/></g><text fill="#334155" font-family="Helvetica" font-size="12" lengthAdjust="spacing" textLength="54.0176" x="42.48" y="764.2402">fetch_url()</text><g data-visibility-modifier="PRIVATE_METHOD"><rect fill="#F24D5C" height="6" style="stroke:#C82930;stroke-width:1;" width="6" x="31.48" y="771.5"/></g><text fill="#334155" font-family="Helvetica" font-size="12" lengthAdjust="spacing" textLength="116.0449" x="42.48" y="776.2402">_html_to_markdown()</text><g data-visibility-modifier="PRIVATE_METHOD"><rect fill="#F24D5C" height="6" style="stroke:#C82930;stroke-width:1;" width="6" x="31.48" y="783.5"/></g><text fill="#334155" font-family="Helvetica" font-size="12" lengthAdjust="spacing" textLength="96.7148" x="42.48" y="788.2402">_extract_content()</text></g><!--class CronTool--><g class="entity" data-qualified-name="Built-in Tools.CronTool" data-source-line="58" id="ent0010"><rect fill="#FFFFFF" height="94" rx="4" ry="4" style="stroke:#64748B;stroke-width:0.5;" width="136.3926" x="206.8" y="701"/><ellipse cx="246.4676" cy="716" fill="#ADD1B2" rx="10" ry="10" style="stroke:#181818;stroke-width:1;"/><path d="M248.3572,720.9561 Q247.8787,721.2021 247.3523,721.3252 Q246.826,721.4482 246.2449,721.4482 Q244.1805,721.4482 243.0936,720.0879 Q242.0066,718.7275 242.0066,716.1572 Q242.0066,713.5801 243.0936,712.2197 Q244.1805,710.8594 246.2449,710.8594 Q246.826,710.8594 247.3592,710.9824 Q247.8924,711.1055 248.3572,711.3516 L248.3572,713.5938 Q247.8377,713.1152 247.3489,712.8931 Q246.8602,712.6709 246.3406,712.6709 Q245.2332,712.6709 244.6692,713.5493 Q244.1053,714.4277 244.1053,716.1572 Q244.1053,717.8799 244.6692,718.7583 Q245.2332,719.6367 246.3406,719.6367 Q246.8602,719.6367 247.3489,719.4146 Q247.8377,719.1924 248.3572,718.7139 Z " fill="#0F172A"/><text fill="#334155" font-family="Helvetica" font-size="12" lengthAdjust="spacing" textLength="49.3535" x="265.1715" y="719.2402">CronTool</text><line style="stroke:#64748B;stroke-width:0.5;" x1="207.8" x2="342.1926" y1="731" y2="731"/><line style="stroke:#64748B;stroke-width:0.5;" x1="207.8" x2="342.1926" y1="739" y2="739"/><g data-visibility-modifier="PUBLIC_METHOD"><ellipse cx="217.8" cy="750.5" fill="#84BE84" rx="3" ry="3" style="stroke:#038048;stroke-width:1;"/></g><text fill="#334155" font-family="Helvetica" font-size="12" lengthAdjust="spacing" textLength="50.7012" x="225.8" y="752.2402">add_job()</text><g data-visibility-modifier="PUBLIC_METHOD"><ellipse cx="217.8" cy="762.5" fill="#84BE84" rx="3" ry="3" style="stroke:#038048;stroke-width:1;"/></g><text fill="#334155" font-family="Helvetica" font-size="12" lengthAdjust="spacing" textLength="51.3457" x="225.8" y="764.2402">list_jobs()</text><g data-visibility-modifier="PUBLIC_METHOD"><ellipse cx="217.8" cy="774.5" fill="#84BE84" rx="3" ry="3" style="stroke:#038048;stroke-width:1;"/></g><text fill="#334155" font-family="Helvetica" font-size="12" lengthAdjust="spacing" textLength="70.6934" x="225.8" y="776.2402">remove_job()</text><g data-visibility-modifier="PRIVATE_METHOD"><rect fill="#F24D5C" height="6" style="stroke:#C82930;stroke-width:1;" width="6" x="214.8" y="783.5"/></g><text fill="#334155" font-family="Helvetica" font-size="12" lengthAdjust="spacing" textLength="111.3926" x="225.8" y="788.2402">_validate_timezone()</text></g><!--class ShellTool--><g class="entity" data-qualified-name="Built-in Tools.ShellTool" data-source-line="65" id="ent0011"><rect fill="#FFFFFF" height="94" rx="4" ry="4" style="stroke:#64748B;stroke-width:0.5;" width="145.0586" x="385.47" y="701"/><ellipse cx="428.9856" cy="716" fill="#ADD1B2" rx="10" ry="10" style="stroke:#181818;stroke-width:1;"/><path d="M430.8753,720.9561 Q430.3968,721.2021 429.8704,721.3252 Q429.344,721.4482 428.763,721.4482 Q426.6985,721.4482 425.6116,720.0879 Q424.5247,718.7275 424.5247,716.1572 Q424.5247,713.5801 425.6116,712.2197 Q426.6985,710.8594 428.763,710.8594 Q429.344,710.8594 429.8772,710.9824 Q430.4104,711.1055 430.8753,711.3516 L430.8753,713.5938 Q430.3557,713.1152 429.867,712.8931 Q429.3782,712.6709 428.8587,712.6709 Q427.7513,712.6709 427.1873,713.5493 Q426.6233,714.4277 426.6233,716.1572 Q426.6233,717.8799 427.1873,718.7583 Q427.7513,719.6367 428.8587,719.6367 Q429.3782,719.6367 429.867,719.4146 Q430.3557,719.1924 430.8753,718.7139 Z " fill="#0F172A"/><text fill="#334155" font-family="Helvetica" font-size="12" lengthAdjust="spacing" textLength="50.0273" x="447.9856" y="719.2402">ShellTool</text><line style="stroke:#64748B;stroke-width:0.5;" x1="386.47" x2="529.5286" y1="731" y2="731"/><line style="stroke:#64748B;stroke-width:0.5;" x1="386.47" x2="529.5286" y1="739" y2="739"/><g data-visibility-modifier="PUBLIC_METHOD"><ellipse cx="396.47" cy="750.5" fill="#84BE84" rx="3" ry="3" style="stroke:#038048;stroke-width:1;"/></g><text fill="#334155" font-family="Helvetica" font-size="12" lengthAdjust="spacing" textLength="109.3828" x="404.47" y="752.2402">execute_command()</text><g data-visibility-modifier="PRIVATE_METHOD"><rect fill="#F24D5C" height="6" style="stroke:#C82930;stroke-width:1;" width="6" x="393.47" y="759.5"/></g><text fill="#334155" font-family="Helvetica" font-size="12" lengthAdjust="spacing" textLength="93.375" x="404.47" y="764.2402">_check_denylist()</text><g data-visibility-modifier="PRIVATE_METHOD"><rect fill="#F24D5C" height="6" style="stroke:#C82930;stroke-width:1;" width="6" x="393.47" y="771.5"/></g><text fill="#334155" font-family="Helvetica" font-size="12" lengthAdjust="spacing" textLength="86.707" x="404.47" y="776.2402">_extract_paths()</text><g data-visibility-modifier="PRIVATE_METHOD"><rect fill="#F24D5C" height="6" style="stroke:#C82930;stroke-width:1;" width="6" x="393.47" y="783.5"/></g><text fill="#334155" font-family="Helvetica" font-size="12" lengthAdjust="spacing" textLength="120.0586" x="404.47" y="788.2402">_validate_workspace()</text></g><!--class SpawnTool--><g class="entity" data-qualified-name="Built-in Tools.SpawnTool" data-source-line="72" id="ent0012"><rect fill="#FFFFFF" height="70" rx="4" ry="4" style="stroke:#64748B;stroke-width:0.5;" width="145.7266" x="572.14" y="713"/><ellipse cx="611.2011" cy="728" fill="#ADD1B2" rx="10" ry="10" style="stroke:#181818;stroke-width:1;"/><path d="M613.0908,732.9561 Q612.6123,733.2021 612.0859,733.3252 Q611.5595,733.4482 610.9785,733.4482 Q608.914,733.4482 607.8271,732.0879 Q606.7402,730.7275 606.7402,728.1572 Q606.7402,725.5801 607.8271,724.2197 Q608.914,722.8594 610.9785,722.8594 Q611.5595,722.8594 612.0927,722.9824 Q612.6259,723.1055 613.0908,723.3516 L613.0908,725.5938 Q612.5713,725.1152 612.0825,724.8931 Q611.5937,724.6709 611.0742,724.6709 Q609.9668,724.6709 609.4028,725.5493 Q608.8388,726.4277 608.8388,728.1572 Q608.8388,729.8799 609.4028,730.7583 Q609.9668,731.6367 611.0742,731.6367 Q611.5937,731.6367 612.0825,731.4146 Q612.5713,731.1924 613.0908,730.7139 Z " fill="#0F172A"/><text fill="#334155" font-family="Helvetica" font-size="12" lengthAdjust="spacing" textLength="60.0352" x="629.7703" y="731.2402">SpawnTool</text><line style="stroke:#64748B;stroke-width:0.5;" x1="573.14" x2="716.8666" y1="743" y2="743"/><line style="stroke:#64748B;stroke-width:0.5;" x1="573.14" x2="716.8666" y1="751" y2="751"/><g data-visibility-modifier="PUBLIC_METHOD"><ellipse cx="583.14" cy="762.5" fill="#84BE84" rx="3" ry="3" style="stroke:#038048;stroke-width:1;"/></g><text fill="#334155" font-family="Helvetica" font-size="12" lengthAdjust="spacing" textLength="98.7305" x="591.14" y="764.2402">spawn_subagent()</text><g data-visibility-modifier="PRIVATE_METHOD"><rect fill="#F24D5C" height="6" style="stroke:#C82930;stroke-width:1;" width="6" x="580.14" y="771.5"/></g><text fill="#334155" font-family="Helvetica" font-size="12" lengthAdjust="spacing" textLength="120.7266" x="591.14" y="776.2402">_create_session_key()</text></g><!--class MCPClient--><g class="entity" data-qualified-name="External Integration.MCPClient" data-source-line="79" id="ent0014"><rect fill="#FFFFFF" height="106" rx="4" ry="4" style="stroke:#64748B;stroke-width:0.5;" width="161.752" x="772.12" y="41"/><ellipse cx="820.3231" cy="56" fill="#ADD1B2" rx="10" ry="10" style="stroke:#181818;stroke-width:1;"/><path d="M822.2128,60.9561 Q821.7343,61.2021 821.2079,61.3252 Q820.6815,61.4482 820.1005,61.4482 Q818.036,61.4482 816.9491,60.0879 Q815.8622,58.7275 815.8622,56.1572 Q815.8622,53.5801 816.9491,52.2197 Q818.036,50.8594 820.1005,50.8594 Q820.6815,50.8594 821.2147,50.9824 Q821.7479,51.1055 822.2128,51.3516 L822.2128,53.5938 Q821.6932,53.1152 821.2045,52.8931 Q820.7157,52.6709 820.1962,52.6709 Q819.0888,52.6709 818.5248,53.5493 Q817.9608,54.4277 817.9608,56.1572 Q817.9608,57.8799 818.5248,58.7583 Q819.0888,59.6367 820.1962,59.6367 Q820.7157,59.6367 821.2045,59.4146 Q821.6932,59.1924 822.2128,58.7139 Z " fill="#0F172A"/><text fill="#334155" font-family="Helvetica" font-size="12" lengthAdjust="spacing" textLength="57.3457" x="839.3231" y="59.2402">MCPClient</text><line style="stroke:#64748B;stroke-width:0.5;" x1="773.12" x2="932.872" y1="71" y2="71"/><line style="stroke:#64748B;stroke-width:0.5;" x1="773.12" x2="932.872" y1="79" y2="79"/><g data-visibility-modifier="PUBLIC_METHOD"><ellipse cx="783.12" cy="90.5" fill="#84BE84" rx="3" ry="3" style="stroke:#038048;stroke-width:1;"/></g><text fill="#334155" font-family="Helvetica" font-size="12" lengthAdjust="spacing" textLength="96.0352" x="791.12" y="92.2402">connect_servers()</text><g data-visibility-modifier="PUBLIC_METHOD"><ellipse cx="783.12" cy="102.5" fill="#84BE84" rx="3" ry="3" style="stroke:#038048;stroke-width:1;"/></g><text fill="#334155" font-family="Helvetica" font-size="12" lengthAdjust="spacing" textLength="84.6973" x="791.12" y="104.2402">discover_tools()</text><g data-visibility-modifier="PUBLIC_METHOD"><ellipse cx="783.12" cy="114.5" fill="#84BE84" rx="3" ry="3" style="stroke:#038048;stroke-width:1;"/></g><text fill="#334155" font-family="Helvetica" font-size="12" lengthAdjust="spacing" textLength="89.3672" x="791.12" y="116.2402">wrap_mcp_tool()</text><g data-visibility-modifier="PRIVATE_METHOD"><rect fill="#F24D5C" height="6" style="stroke:#C82930;stroke-width:1;" width="6" x="780.12" y="123.5"/></g><text fill="#334155" font-family="Helvetica" font-size="12" lengthAdjust="spacing" textLength="136.752" x="791.12" y="128.2402">_handle_stdio_transport()</text><g data-visibility-modifier="PRIVATE_METHOD"><rect fill="#F24D5C" height="6" style="stroke:#C82930;stroke-width:1;" width="6" x="780.12" y="135.5"/></g><text fill="#334155" font-family="Helvetica" font-size="12" lengthAdjust="spacing" textLength="131.4199" x="791.12" y="140.2402">_handle_http_transport()</text></g><!--class CronService--><g class="entity" data-qualified-name="External Services.CronService" data-source-line="89" id="ent0016"><rect fill="#FFFFFF" height="58" rx="4" ry="4" style="stroke:#64748B;stroke-width:0.5;" width="96.0234" x="304.99" y="903"/><ellipse cx="318.99" cy="918" fill="#ADD1B2" rx="10" ry="10" style="stroke:#181818;stroke-width:1;"/><path d="M320.8796,922.9561 Q320.4011,923.2021 319.8748,923.3252 Q319.3484,923.4482 318.7673,923.4482 Q316.7029,923.4482 315.616,922.0879 Q314.5291,920.7275 314.5291,918.1572 Q314.5291,915.5801 315.616,914.2197 Q316.7029,912.8594 318.7673,912.8594 Q319.3484,912.8594 319.8816,912.9824 Q320.4148,913.1055 320.8796,913.3516 L320.8796,915.5938 Q320.3601,915.1152 319.8713,914.8931 Q319.3826,914.6709 318.863,914.6709 Q317.7556,914.6709 317.1917,915.5493 Q316.6277,916.4277 316.6277,918.1572 Q316.6277,919.8799 317.1917,920.7583 Q317.7556,921.6367 318.863,921.6367 Q319.3826,921.6367 319.8713,921.4146 Q320.3601,921.1924 320.8796,920.7139 Z " fill="#0F172A"/><text fill="#334155" font-family="Helvetica" font-size="12" lengthAdjust="spacing" textLength="66.0234" x="331.99" y="921.2402">CronService</text><line style="stroke:#64748B;stroke-width:0.5;" x1="305.99" x2="400.0134" y1="933" y2="933"/><text fill="#334155" font-family="Helvetica" font-size="12" lengthAdjust="spacing" textLength="56.0391" x="310.99" y="946.2402">&#171;external&#187;</text><line style="stroke:#64748B;stroke-width:0.5;" x1="305.99" x2="400.0134" y1="953" y2="953"/></g><!--class SubagentManager--><g class="entity" data-qualified-name="External Services.SubagentManager" data-source-line="92" id="ent0017"><rect fill="#FFFFFF" height="58" rx="4" ry="4" style="stroke:#64748B;stroke-width:0.5;" width="128.7422" x="442.63" y="903"/><ellipse cx="456.63" cy="918" fill="#ADD1B2" rx="10" ry="10" style="stroke:#181818;stroke-width:1;"/><path d="M458.5196,922.9561 Q458.0411,923.2021 457.5148,923.3252 Q456.9884,923.4482 456.4073,923.4482 Q454.3429,923.4482 453.256,922.0879 Q452.1691,920.7275 452.1691,918.1572 Q452.1691,915.5801 453.256,914.2197 Q454.3429,912.8594 456.4073,912.8594 Q456.9884,912.8594 457.5216,912.9824 Q458.0548,913.1055 458.5196,913.3516 L458.5196,915.5938 Q458.0001,915.1152 457.5113,914.8931 Q457.0226,914.6709 456.503,914.6709 Q455.3956,914.6709 454.8317,915.5493 Q454.2677,916.4277 454.2677,918.1572 Q454.2677,919.8799 454.8317,920.7583 Q455.3956,921.6367 456.503,921.6367 Q457.0226,921.6367 457.5113,921.4146 Q458.0001,921.1924 458.5196,920.7139 Z " fill="#0F172A"/><text fill="#334155" font-family="Helvetica" font-size="12" lengthAdjust="spacing" textLength="98.7422" x="469.63" y="921.2402">SubagentManager</text><line style="stroke:#64748B;stroke-width:0.5;" x1="443.63" x2="570.3722" y1="933" y2="933"/><text fill="#334155" font-family="Helvetica" font-size="12" lengthAdjust="spacing" textLength="56.0391" x="448.63" y="946.2402">&#171;external&#187;</text><line style="stroke:#64748B;stroke-width:0.5;" x1="443.63" x2="570.3722" y1="953" y2="953"/></g><!--class BraveSearchAPI--><g class="entity" data-qualified-name="External Services.BraveSearchAPI" data-source-line="95" id="ent0018"><rect fill="#FFFFFF" height="58" rx="4" ry="4" style="stroke:#64748B;stroke-width:0.5;" width="118.7109" x="144.64" y="903"/><ellipse cx="158.64" cy="918" fill="#ADD1B2" rx="10" ry="10" style="stroke:#181818;stroke-width:1;"/><path d="M160.5296,922.9561 Q160.0511,923.2021 159.5248,923.3252 Q158.9984,923.4482 158.4173,923.4482 Q156.3529,923.4482 155.266,922.0879 Q154.1791,920.7275 154.1791,918.1572 Q154.1791,915.5801 155.266,914.2197 Q156.3529,912.8594 158.4173,912.8594 Q158.9984,912.8594 159.5316,912.9824 Q160.0648,913.1055 160.5296,913.3516 L160.5296,915.5938 Q160.0101,915.1152 159.5213,914.8931 Q159.0326,914.6709 158.513,914.6709 Q157.4056,914.6709 156.8417,915.5493 Q156.2777,916.4277 156.2777,918.1572 Q156.2777,919.8799 156.8417,920.7583 Q157.4056,921.6367 158.513,921.6367 Q159.0326,921.6367 159.5213,921.4146 Q160.0101,921.1924 160.5296,920.7139 Z " fill="#0F172A"/><text fill="#334155" font-family="Helvetica" font-size="12" lengthAdjust="spacing" textLength="88.7109" x="171.64" y="921.2402">BraveSearchAPI</text><line style="stroke:#64748B;stroke-width:0.5;" x1="145.64" x2="262.3509" y1="933" y2="933"/><text fill="#334155" font-family="Helvetica" font-size="12" lengthAdjust="spacing" textLength="56.0391" x="150.64" y="946.2402">&#171;external&#187;</text><line style="stroke:#64748B;stroke-width:0.5;" x1="145.64" x2="262.3509" y1="953" y2="953"/></g><!--class MCPServers--><g class="entity" data-qualified-name="External Services.MCPServers" data-source-line="98" id="ent0019"><rect fill="#FFFFFF" height="58" rx="4" ry="4" style="stroke:#64748B;stroke-width:0.5;" width="98.0098" x="613" y="903"/><ellipse cx="627" cy="918" fill="#ADD1B2" rx="10" ry="10" style="stroke:#181818;stroke-width:1;"/><path d="M628.8896,922.9561 Q628.4111,923.2021 627.8848,923.3252 Q627.3584,923.4482 626.7773,923.4482 Q624.7129,923.4482 623.626,922.0879 Q622.5391,920.7275 622.5391,918.1572 Q622.5391,915.5801 623.626,914.2197 Q624.7129,912.8594 626.7773,912.8594 Q627.3584,912.8594 627.8916,912.9824 Q628.4248,913.1055 628.8896,913.3516 L628.8896,915.5938 Q628.3701,915.1152 627.8813,914.8931 Q627.3926,914.6709 626.873,914.6709 Q625.7656,914.6709 625.2017,915.5493 Q624.6377,916.4277 624.6377,918.1572 Q624.6377,919.8799 625.2017,920.7583 Q625.7656,921.6367 626.873,921.6367 Q627.3926,921.6367 627.8813,921.4146 Q628.3701,921.1924 628.8896,920.7139 Z " fill="#0F172A"/><text fill="#334155" font-family="Helvetica" font-size="12" lengthAdjust="spacing" textLength="68.0098" x="640" y="921.2402">MCPServers</text><line style="stroke:#64748B;stroke-width:0.5;" x1="614" x2="710.0098" y1="933" y2="933"/><text fill="#334155" font-family="Helvetica" font-size="12" lengthAdjust="spacing" textLength="56.0391" x="619" y="946.2402">&#171;external&#187;</text><line style="stroke:#64748B;stroke-width:0.5;" x1="614" x2="710.0098" y1="953" y2="953"/></g><!--link InitModule to ToolBase--><g class="link" data-entity-1="ent0002" data-entity-2="ent0004" data-link-type="dependency" data-source-line="104" id="lnk20"><path codeLine="104" d="M542.76,135.38 C525.53,165.33 505,201 505,201 C505,201 505,373 505,373 C505,373 539.0636,409.018 575.2536,447.268" fill="none" id="InitModule-to-ToolBase" style="stroke:#64748B;stroke-width:1.1;"/><polygon fill="#64748B" points="578.69,450.9,575.4101,441.6133,575.2536,447.268,569.5989,447.1115,578.69,450.9" style="stroke:#64748B;stroke-width:1.1;stroke-linejoin:miter;stroke-miterlimit:10;"/><text fill="#334155" font-family="Helvetica" font-size="12" lengthAdjust="spacing" textLength="44.6953" x="506" y="311.2402">exposes</text></g><!--link InitModule to ToolRegistry--><g class="link" data-entity-1="ent0002" data-entity-2="ent0005" data-link-type="dependency" data-source-line="105" id="lnk21"><path codeLine="105" d="M578.79,135.43 C587.33,162.42 597,193 597,193 C597,193 605.608,212.246 617.178,238.106" fill="none" id="InitModule-to-ToolRegistry" style="stroke:#64748B;stroke-width:1.1;"/><polygon fill="#64748B" points="619.22,242.67,619.1956,232.8212,617.178,238.106,611.8932,236.0883,619.22,242.67" style="stroke:#64748B;stroke-width:1.1;stroke-linejoin:miter;stroke-miterlimit:10;"/><text fill="#334155" font-family="Helvetica" font-size="12" lengthAdjust="spacing" textLength="44.6953" x="598" y="189.2402">exposes</text></g><!--link ToolRegistry to ToolBase--><g class="link" data-entity-1="ent0005" data-entity-2="ent0004" data-link-type="dependency" data-source-line="107" id="lnk22"><path codeLine="107" d="M647.09,373.47 C646.74,397.83 646.4203,420.6805 646.0703,445.5605" fill="none" id="ToolRegistry-to-ToolBase" style="stroke:#64748B;stroke-width:1.1;"/><polygon fill="#64748B" points="646,450.56,650.1262,441.6172,646.0703,445.5605,642.127,441.5046,646,450.56" style="stroke:#64748B;stroke-width:1.1;stroke-linejoin:miter;stroke-miterlimit:10;"/><text fill="#334155" font-family="Helvetica" font-size="12" lengthAdjust="spacing" textLength="49.3652" x="647.59" y="415.2402">manages</text><text fill="#334155" font-family="Helvetica" font-size="12" lengthAdjust="spacing" textLength="6.6738" x="640.7215" y="390.0806">1</text><text fill="#334155" font-family="Helvetica" font-size="12" lengthAdjust="spacing" textLength="4.6699" x="641.9342" y="440.1772">*</text></g><!--reverse link ToolBase to FilesystemTool--><g class="link" data-entity-1="ent0004" data-entity-2="ent0007" data-link-type="extension" data-source-line="108" id="lnk23"><path codeLine="108" d="M709.1999,607.5997 C732.4699,638.2697 748.56,659.46 770.71,688.64" fill="none" id="ToolBase-backto-FilesystemTool" style="stroke:#64748B;stroke-width:1.1;"/><polygon fill="none" points="698.32,593.26,704.42,611.2264,713.9798,603.9731,698.32,593.26" style="stroke:#64748B;stroke-width:1.1;stroke-linejoin:miter;stroke-miterlimit:10;"/><text fill="#334155" font-family="Helvetica" font-size="12" lengthAdjust="spacing" textLength="42.0293" x="731" y="635.2402">extends</text></g><!--reverse link ToolBase to MessageTool--><g class="link" data-entity-1="ent0004" data-entity-2="ent0008" data-link-type="extension" data-source-line="109" id="lnk24"><path codeLine="109" d="M740.5967,570.9957 C812.8067,607.2457 892,647 892,647 C892,647 913.37,674.4 933.74,700.51" fill="none" id="ToolBase-backto-MessageTool" style="stroke:#64748B;stroke-width:1.1;"/><polygon fill="none" points="724.51,562.92,737.9049,576.3579,743.2886,565.6334,724.51,562.92" style="stroke:#64748B;stroke-width:1.1;stroke-linejoin:miter;stroke-miterlimit:10;"/><text fill="#334155" font-family="Helvetica" font-size="12" lengthAdjust="spacing" textLength="42.0293" x="876.05" y="635.2402">extends</text></g><!--reverse link ToolBase to WebTool--><g class="link" data-entity-1="ent0004" data-entity-2="ent0009" data-link-type="extension" data-source-line="110" id="lnk25"><path codeLine="110" d="M547.933,549.2246 C416.493,584.7346 186,647 186,647 C186,647 160.79,674.4 136.77,700.51" fill="none" id="ToolBase-backto-WebTool" style="stroke:#64748B;stroke-width:1.1;"/><polygon fill="none" points="565.31,544.53,546.3681,543.4323,549.4978,555.0169,565.31,544.53" style="stroke:#64748B;stroke-width:1.1;stroke-linejoin:miter;stroke-miterlimit:10;"/><text fill="#334155" font-family="Helvetica" font-size="12" lengthAdjust="spacing" textLength="42.0293" x="263.95" y="635.2402">extends</text></g><!--reverse link ToolBase to CronTool--><g class="link" data-entity-1="ent0004" data-entity-2="ent0010" data-link-type="extension" data-source-line="111" id="lnk26"><path codeLine="111" d="M549.1317,565.306 C466.0417,601.966 364,647 364,647 C364,647 339.62,674.4 316.37,700.51" fill="none" id="ToolBase-backto-CronTool" style="stroke:#64748B;stroke-width:1.1;"/><polygon fill="none" points="565.6,558.04,546.7097,559.8165,551.5537,570.7954,565.6,558.04" style="stroke:#64748B;stroke-width:1.1;stroke-linejoin:miter;stroke-miterlimit:10;"/><text fill="#334155" font-family="Helvetica" font-size="12" lengthAdjust="spacing" textLength="42.0293" x="412.11" y="635.2402">extends</text></g><!--reverse link ToolBase to ShellTool--><g class="link" data-entity-1="ent0004" data-entity-2="ent0011" data-link-type="extension" data-source-line="112" id="lnk27"><path codeLine="112" d="M574.8131,607.0767 C545.5631,642.1067 522.56,669.67 496.67,700.67" fill="none" id="ToolBase-backto-ShellTool" style="stroke:#64748B;stroke-width:1.1;"/><polygon fill="none" points="586.35,593.26,570.2076,603.231,579.4187,610.9223,586.35,593.26" style="stroke:#64748B;stroke-width:1.1;stroke-linejoin:miter;stroke-miterlimit:10;"/><text fill="#334155" font-family="Helvetica" font-size="12" lengthAdjust="spacing" textLength="42.0293" x="558.11" y="635.2402">extends</text></g><!--reverse link ToolBase to SpawnTool--><g class="link" data-entity-1="ent0004" data-entity-2="ent0012" data-link-type="extension" data-source-line="113" id="lnk28"><path codeLine="113" d="M645,611.26 C645,651.03 645,681 645,712.66" fill="none" id="ToolBase-backto-SpawnTool" style="stroke:#64748B;stroke-width:1.1;"/><polygon fill="none" points="645,593.26,639,611.26,651,611.26,645,593.26" style="stroke:#64748B;stroke-width:1.1;stroke-linejoin:miter;stroke-miterlimit:10;"/><text fill="#334155" font-family="Helvetica" font-size="12" lengthAdjust="spacing" textLength="42.0293" x="646" y="635.2402">extends</text></g><!--link MCPClient to ToolRegistry--><g class="link" data-entity-1="ent0014" data-entity-2="ent0005" data-link-type="dependency" data-source-line="115" id="lnk29"><path codeLine="115" d="M802.33,147.4 C774.46,176.22 743.1455,208.6055 713.6455,239.1155" fill="none" id="MCPClient-to-ToolRegistry" style="stroke:#64748B;stroke-width:1.1;"/><polygon fill="#64748B" points="710.17,242.71,719.3016,239.0203,713.6455,239.1155,713.5503,233.4594,710.17,242.71" style="stroke:#64748B;stroke-width:1.1;stroke-linejoin:miter;stroke-miterlimit:10;"/><text fill="#334155" font-family="Helvetica" font-size="12" lengthAdjust="spacing" textLength="124.0605" x="769.86" y="189.2402">registers wrapped tools</text></g><!--link MCPClient to MCPServers--><g class="link" data-entity-1="ent0014" data-entity-2="ent0019" data-link-type="dependency" data-source-line="116" id="lnk30"><path codeLine="116" d="M912.08,147.4 C982.85,210.18 1092,307 1092,307 C1092,307 1092,307 1092,749 C1092,749 1046,831 1046,831 C1046,831 819.9686,889.8598 716.2586,916.8698" fill="none" id="MCPClient-to-MCPServers" style="stroke:#64748B;stroke-width:1.1;"/><polygon fill="#64748B" points="711.42,918.13,721.1376,919.7326,716.2586,916.8698,719.1214,911.9908,711.42,918.13" style="stroke:#64748B;stroke-width:1.1;stroke-linejoin:miter;stroke-miterlimit:10;"/><text fill="#334155" font-family="Helvetica" font-size="12" lengthAdjust="spacing" textLength="48.0293" x="1093" y="525.2402">connects</text></g><!--link CronTool to CronService--><g class="link" data-entity-1="ent0010" data-entity-2="ent0016" data-link-type="dependency" data-source-line="118" id="lnk31"><path codeLine="118" d="M294.88,795.4 C309.37,829.2 326.5708,869.3241 338.8508,897.9841" fill="none" id="CronTool-to-CronService" style="stroke:#64748B;stroke-width:1.1;"/><polygon fill="#64748B" points="340.82,902.58,340.9521,892.732,338.8508,897.9841,333.5987,895.8828,340.82,902.58" style="stroke:#64748B;stroke-width:1.1;stroke-linejoin:miter;stroke-miterlimit:10;"/><text fill="#334155" font-family="Helvetica" font-size="12" lengthAdjust="spacing" textLength="25.3477" x="319.67" y="849.2402">uses</text></g><!--link SpawnTool to SubagentManager--><g class="link" data-entity-1="ent0012" data-entity-2="ent0017" data-link-type="dependency" data-source-line="119" id="lnk32"><path codeLine="119" d="M619.04,783.23 C592.89,817.73 556.0101,866.3552 531.5601,898.6152" fill="none" id="SpawnTool-to-SubagentManager" style="stroke:#64748B;stroke-width:1.1;"/><polygon fill="#64748B" points="528.54,902.6,537.1641,897.8434,531.5601,898.6152,530.7884,893.0112,528.54,902.6" style="stroke:#64748B;stroke-width:1.1;stroke-linejoin:miter;stroke-miterlimit:10;"/><text fill="#334155" font-family="Helvetica" font-size="12" lengthAdjust="spacing" textLength="25.3477" x="577" y="849.2402">uses</text></g><!--link WebTool to BraveSearchAPI--><g class="link" data-entity-1="ent0009" data-entity-2="ent0018" data-link-type="dependency" data-source-line="120" id="lnk33"><path codeLine="120" d="M122.04,795.4 C142.47,829.2 166.9139,869.6407 184.2339,898.3007" fill="none" id="WebTool-to-BraveSearchAPI" style="stroke:#64748B;stroke-width:1.1;"/><polygon fill="#64748B" points="186.82,902.58,185.5885,892.8084,184.2339,898.3007,178.7416,896.9462,186.82,902.58" style="stroke:#64748B;stroke-width:1.1;stroke-linejoin:miter;stroke-miterlimit:10;"/><text fill="#334155" font-family="Helvetica" font-size="12" lengthAdjust="spacing" textLength="39.3574" x="156.59" y="849.2402">queries</text></g><?plantuml-src dLR9Rjim5BpdArXVcgKgqAiH16Y21iZ1G10Nw56WoMURCKMg9EMbox_taP9bIQIL8Zua06T8pfktK1-4OhBYG4gZbs2jq8hApAsXWC-YAkI5qoLncYoqSxeWN1XW3aaN17ybPHkw0Z9vhXPICFBr-Mb2VWV8_vYarf8d9TnCyqf21_A_sziYBD_TzPPllcijuvKNM0dhpA55_bxKV_jA7hG1ycXe0JjjDh4QVzGzjR4Mki3JAND3DGgFcXB4-iiSB3EYz5Oaq99w1GwCdQ9bpFLHs0Eh75nUNHDg3uhrqIsLWbC7UJZ4NbxruHMut3BC3nqWMTxkVBLQnQJ6ghuNHri7VcIvGp2fteGTO2uzOo2kKYtgVOkbfvQFTdZe4wcZJWJDOIcmbD3mo1E9LzQ2U-6cwkE-4j9bGeNWRLmVZqA2FM04XISCNC7OAS-NI1ags1c1lgSGuC8bWI2wxYTj3b4o3LWjjxuAtFfyfWTebE8PjZJ6dOh5Wk9vKUD3RHRzPbevsBiXXBeGT9LHaQfm8gDIBj3jCLK_O95Ij8C5da4D6mPyimJ7rdbbP7JdsXKIKvyNr6outiMYC0JVrdKuoet9UZ1QfNHHplDNlKWc4DTjR56XCNFnbaxYd2ZWbrOmfcU-1YbJWfgEmPYAWYeUtOATppROCEhWDPwrn1UFFI_H3r2BZJEkiQIxf6dM0xcj5bXUAjR0i9Nm3bi_EVa63c-sxhSzpXLydV15SR0or8-2k85d3yyFKk2LGq5O00fx3QyqMnpCmwHnOHbcpKHpfEblMkO5AmCQ5o4cGM8mZWkTexVAbjguSxIrSsMIzKROSnGk62I6bY_S1etUDMYsTzwrlyCSDacQKON_pNkEk3Tq2_FGk_WHy9uJC6_pEZF_lxknwYDv0HdAmQv5QSDQvwiZo-vEp_wKmBxKM7RdMEs3U686QW-RV9c43PFhIVVe8XXeMtvOllsJPSDdnP-DquYdgDsHFSOx3j4nJZlHnaYdCJFAQXlzn0gqKyCbB3n-3bZYEwW4Ja9x9JPsyZybJQysDxHHU5wtrgUaEcRo9C-JXXNT8HvjyxH1rKx9pmgC0FiF?></g></svg>