<svg xmlns="http://www.w3.org/2000/svg" xmlns:xlink="http://www.w3.org/1999/xlink" contentStyleType="text/css" data-diagram-type="DESCRIPTION" height="448px" preserveAspectRatio="none" style="width:1159px;height:448px;" version="1.1" viewBox="0 0 1159 448" width="1159px" zoomAndPan="magnify"><?plantuml 1.2026.5?><defs><style><![CDATA[
@media (prefers-color-scheme: dark) {
  text { fill: #e5e7eb !important; }
  path, line, rect, circle, ellipse, polygon, polyline { stroke: #cbd5e1 !important; }
  .entity rect, .participant rect, .participant path, .sequenceLine rect, .class rect, .component rect, .component path, .note rect { fill: #111827 !important; }
  .cluster path { fill: none !important; }
  polygon { fill: #cbd5e1 !important; }
}
]]></style></defs><g><!--cluster External_System--><g class="cluster" data-qualified-name="External_System" data-source-line="13" id="ent0001"><path d="M395.13,345.97 L511.172,345.97 A3.75,3.75 0 0 1 513.672,348.47 L520.672,368.4583 L588.13,368.4583 A2.5,2.5 0 0 1 590.63,370.9583 L590.63,430.96 A2.5,2.5 0 0 1 588.13,433.46 L395.13,433.46 A2.5,2.5 0 0 1 392.63,430.96 L392.63,348.47 A2.5,2.5 0 0 1 395.13,345.97" fill="none" style="stroke:#64748B;stroke-width:1.5;"/><line style="stroke:#64748B;stroke-width:1.5;" x1="392.63" x2="520.672" y1="368.4583" y2="368.4583"/><text fill="#000000" font-family="sans-serif" font-size="14" font-weight="700" lengthAdjust="spacing" textLength="115.042" x="396.63" y="361.5052">External System</text></g><!--cluster nanobot_skills_tmux_scripts--><g class="cluster" data-qualified-name="nanobot_skills_tmux_scripts" data-source-line="16" id="ent0003"><path d="M279.13,142.48 L487.546,142.48 A3.75,3.75 0 0 1 490.046,144.98 L497.046,164.9683 L685.13,164.9683 A2.5,2.5 0 0 1 687.63,167.4683 L687.63,294.47 A2.5,2.5 0 0 1 685.13,296.97 L279.13,296.97 A2.5,2.5 0 0 1 276.63,294.47 L276.63,144.98 A2.5,2.5 0 0 1 279.13,142.48" fill="none" style="stroke:#64748B;stroke-width:1.5;"/><line style="stroke:#64748B;stroke-width:1.5;" x1="276.63" x2="497.046" y1="164.9683" y2="164.9683"/><text fill="#000000" font-family="sans-serif" font-size="14" font-weight="700" lengthAdjust="spacing" textLength="207.416" x="280.63" y="158.0152">nanobot/skills/tmux/scripts</text></g><!--cluster Discovery_Layer--><g class="cluster" data-qualified-name="nanobot_skills_tmux_scripts.Discovery_Layer" data-source-line="17" id="ent0004"><path d="M303.13,185.48 L418.8439,185.48 A3.75,3.75 0 0 1 421.3439,187.98 L428.3439,207.9683 L462.13,207.9683 A2.5,2.5 0 0 1 464.63,210.4683 L464.63,270.47 A2.5,2.5 0 0 1 462.13,272.97 L303.13,272.97 A2.5,2.5 0 0 1 300.63,270.47 L300.63,187.98 A2.5,2.5 0 0 1 303.13,185.48" fill="none" style="stroke:#64748B;stroke-width:1.5;"/><line style="stroke:#64748B;stroke-width:1.5;" x1="300.63" x2="428.3439" y1="207.9683" y2="207.9683"/><text fill="#000000" font-family="sans-serif" font-size="14" font-weight="700" lengthAdjust="spacing" textLength="114.7139" x="304.63" y="201.0152">Discovery Layer</text></g><!--cluster Synchronization_Layer--><g class="cluster" data-qualified-name="nanobot_skills_tmux_scripts.Synchronization_Layer" data-source-line="20" id="ent0006"><path d="M491.13,185.48 L651.7628,185.48 A3.75,3.75 0 0 1 654.2628,187.98 L661.2628,207.9683 L661.13,207.9683 A2.5,2.5 0 0 1 663.63,210.4683 L663.63,270.47 A2.5,2.5 0 0 1 661.13,272.97 L491.13,272.97 A2.5,2.5 0 0 1 488.63,270.47 L488.63,187.98 A2.5,2.5 0 0 1 491.13,185.48" fill="none" style="stroke:#64748B;stroke-width:1.5;"/><line style="stroke:#64748B;stroke-width:1.5;" x1="488.63" x2="661.2628" y1="207.9683" y2="207.9683"/><text fill="#000000" font-family="sans-serif" font-size="14" font-weight="700" lengthAdjust="spacing" textLength="159.6328" x="492.63" y="201.0152">Synchronization Layer</text></g><!--cluster Consumers--><g class="cluster" data-qualified-name="Consumers" data-source-line="24" id="ent0008"><path d="M473.13,6 L555.4093,6 A3.75,3.75 0 0 1 557.9093,8.5 L564.9093,28.4883 L861.13,28.4883 A2.5,2.5 0 0 1 863.63,30.9883 L863.63,90.98 A2.5,2.5 0 0 1 861.13,93.48 L473.13,93.48 A2.5,2.5 0 0 1 470.63,90.98 L470.63,8.5 A2.5,2.5 0 0 1 473.13,6" fill="none" style="stroke:#64748B;stroke-width:1.5;"/><line style="stroke:#64748B;stroke-width:1.5;" x1="470.63" x2="564.9093" y1="28.4883" y2="28.4883"/><text fill="#000000" font-family="sans-serif" font-size="14" font-weight="700" lengthAdjust="spacing" textLength="81.2793" x="474.63" y="21.5352">Consumers</text></g><!--entity TMUX--><g class="entity" data-qualified-name="External_System.TMUX" data-source-line="14" id="ent0002"><rect fill="#F8FAFC" height="36.4883" rx="2.5" ry="2.5" style="stroke:#4B5563;stroke-width:0.5;" width="166.4736" x="408.39" y="380.97"/><text fill="#111827" font-family="sans-serif" font-size="14" lengthAdjust="spacing" textLength="146.4736" x="418.39" y="404.5052">tmux server/sessions</text></g><!--entity FS--><g class="entity" data-qualified-name="nanobot_skills_tmux_scripts.Discovery_Layer.FS" data-source-line="18" id="ent0005"><rect fill="#F8FAFC" height="36.4883" rx="2.5" ry="2.5" style="stroke:#4B5563;stroke-width:0.5;" width="132.7314" x="316.26" y="220.48"/><text fill="#111827" font-family="sans-serif" font-size="14" lengthAdjust="spacing" textLength="112.7314" x="326.26" y="244.0152">find-sessions.sh</text></g><!--entity WFT--><g class="entity" data-qualified-name="nanobot_skills_tmux_scripts.Synchronization_Layer.WFT" data-source-line="21" id="ent0007"><rect fill="#F8FAFC" height="36.4883" rx="2.5" ry="2.5" style="stroke:#4B5563;stroke-width:0.5;" width="130.5918" x="517.33" y="220.48"/><text fill="#111827" font-family="sans-serif" font-size="14" lengthAdjust="spacing" textLength="110.5918" x="527.33" y="244.0152">wait-for-text.sh</text></g><!--entity NB--><g class="entity" data-qualified-name="Consumers.NB" data-source-line="25" id="ent0009"><rect fill="#F8FAFC" height="36.4883" rx="2.5" ry="2.5" style="stroke:#4B5563;stroke-width:0.5;" width="166.4463" x="486.41" y="41"/><text fill="#111827" font-family="sans-serif" font-size="14" lengthAdjust="spacing" textLength="146.4463" x="496.41" y="64.5352">nanobot Orchestrator</text></g><!--entity EXT--><g class="entity" data-qualified-name="Consumers.EXT" data-source-line="26" id="ent0010"><rect fill="#F8FAFC" height="36.4883" rx="2.5" ry="2.5" style="stroke:#4B5563;stroke-width:0.5;" width="159.3916" x="687.93" y="41"/><text fill="#111827" font-family="sans-serif" font-size="14" lengthAdjust="spacing" textLength="139.3916" x="697.93" y="64.5352">External Automation</text></g><!--entity ENV--><g class="entity" data-qualified-name="ENV" data-source-line="36" id="ent0019"><rect fill="#F8FAFC" height="36.4883" rx="2.5" ry="2.5" style="stroke:#4B5563;stroke-width:0.5;" width="105.3809" x="50.94" y="380.97"/><text fill="#111827" font-family="sans-serif" font-size="14" lengthAdjust="spacing" textLength="85.3809" x="60.94" y="404.5052">Environment</text></g><!--link NB to FS--><g class="link" data-entity-1="ent0009" data-entity-2="ent0005" data-link-type="dependency" data-source-line="28" id="lnk11"><path d="M486.1,62.63 C353.11,67.3 105.39,79.9 78.63,109.48 C6,189.77 201.3352,220.909 311.1652,231.969" fill="none" id="NB-to-FS" style="stroke:#4B5563;stroke-width:1;"/><polygon fill="#4B5563" points="316.14,232.47,307.5861,227.5884,311.1652,231.969,306.7845,235.5481,316.14,232.47" style="stroke:#4B5563;stroke-width:1;stroke-linejoin:miter;stroke-miterlimit:10;"/><text fill="#000000" font-family="sans-serif" font-size="13" lengthAdjust="spacing" textLength="187.2559" x="79.63" y="123.0484">1. Discover available sessions</text></g><!--link FS to NB--><g class="link" data-entity-1="ent0005" data-entity-2="ent0009" data-link-type="dependency" data-source-line="30" id="lnk13"><path d="M366.75,220.14 C344.75,193.59 310.6,142.85 337.63,109.48 C356.29,86.45 422.3924,74.3186 481.0124,67.6086" fill="none" id="FS-to-NB" style="stroke:#4B5563;stroke-width:1;"/><polygon fill="#4B5563" points="485.98,67.04,476.5835,64.0895,481.0124,67.6086,477.4933,72.0376,485.98,67.04" style="stroke:#4B5563;stroke-width:1;stroke-linejoin:miter;stroke-miterlimit:10;"/><text fill="#000000" font-family="sans-serif" font-size="13" lengthAdjust="spacing" textLength="132.3931" x="338.63" y="123.0484">3. Return session list</text></g><!--link FS to TMUX--><g class="link" data-entity-1="ent0005" data-entity-2="ent0002" data-link-type="dependency" data-source-line="29" id="lnk12"><path d="M375.73,257.3 C369.39,276.48 362.76,307.46 375.63,329.97 C389.14,353.6 409.8298,367.7873 433.3198,378.4873" fill="none" id="FS-to-TMUX" style="stroke:#4B5563;stroke-width:1;"/><polygon fill="#4B5563" points="437.87,380.56,431.3378,373.1891,433.3198,378.4873,428.0216,380.4693,437.87,380.56" style="stroke:#4B5563;stroke-width:1;stroke-linejoin:miter;stroke-miterlimit:10;"/><text fill="#000000" font-family="sans-serif" font-size="13" lengthAdjust="spacing" textLength="176.5347" x="376.63" y="326.5384">2. Query sockets &amp; sessions</text></g><!--link NB to WFT--><g class="link" data-entity-1="ent0009" data-entity-2="ent0007" data-link-type="dependency" data-source-line="31" id="lnk14"><path d="M515.35,77.93 C492.66,88.79 473.26,104.81 481.63,126.48 C496.95,166.15 529.7984,197.2856 554.4784,216.9356" fill="none" id="NB-to-WFT" style="stroke:#4B5563;stroke-width:1;"/><polygon fill="#4B5563" points="558.39,220.05,553.8406,211.3148,554.4784,216.9356,548.8576,217.5734,558.39,220.05" style="stroke:#4B5563;stroke-width:1;stroke-linejoin:miter;stroke-miterlimit:10;"/><text fill="#000000" font-family="sans-serif" font-size="13" lengthAdjust="spacing" textLength="129.6826" x="482.63" y="123.0484">4. Select target pane</text></g><!--link WFT to NB--><g class="link" data-entity-1="ent0007" data-entity-2="ent0009" data-link-type="dependency" data-source-line="33" id="lnk16"><path d="M594.17,220.29 C609.23,195.21 631.96,147.76 616.63,109.48 C611.71,97.2 605.7954,89.5981 596.5354,81.1581" fill="none" id="WFT-to-NB" style="stroke:#4B5563;stroke-width:1;"/><polygon fill="#4B5563" points="592.84,77.79,596.7972,86.8089,596.5354,81.1581,602.1862,80.8963,592.84,77.79" style="stroke:#4B5563;stroke-width:1;stroke-linejoin:miter;stroke-miterlimit:10;"/><text fill="#000000" font-family="sans-serif" font-size="13" lengthAdjust="spacing" textLength="168.1431" x="622.01" y="123.0484">6. Pattern match / timeout</text></g><!--link WFT to TMUX--><g class="link" data-entity-1="ent0007" data-entity-2="ent0002" data-link-type="dependency" data-source-line="32" id="lnk15"><path d="M581.46,257.41 C579.56,276.42 574.59,306.99 561.63,329.97 C550.29,350.08 535.134,364.9313 519.764,377.3913" fill="none" id="WFT-to-TMUX" style="stroke:#4B5563;stroke-width:1;"/><polygon fill="#4B5563" points="515.88,380.54,525.3902,377.9796,519.764,377.3913,520.3523,371.7651,515.88,380.54" style="stroke:#4B5563;stroke-width:1;stroke-linejoin:miter;stroke-miterlimit:10;"/><text fill="#000000" font-family="sans-serif" font-size="13" lengthAdjust="spacing" textLength="125.7788" x="570.03" y="326.5384">5. Poll pane content</text></g><!--link EXT to FS--><g class="link" data-entity-1="ent0010" data-entity-2="ent0005" data-link-type="dependency" data-source-line="34" id="lnk17"><path d="M786.01,77.89 C798.99,92.44 811.92,112.84 798.63,126.48 C787.12,138.31 517.01,128.5 501.63,134.48 C456,152.22 419.1545,191.7506 399.2245,216.2606" fill="none" id="EXT-to-FS" style="stroke:#4B5563;stroke-width:1;stroke-dasharray:7,7;"/><polygon fill="#4B5563" points="396.07,220.14,404.8515,215.6807,399.2245,216.2606,398.6445,210.6336,396.07,220.14" style="stroke:#4B5563;stroke-width:1;stroke-linejoin:miter;stroke-miterlimit:10;"/><text fill="#000000" font-family="sans-serif" font-size="13" lengthAdjust="spacing" textLength="135.3638" x="805.21" y="123.0484">Optional direct usage</text></g><!--link EXT to WFT--><g class="link" data-entity-1="ent0010" data-entity-2="ent0007" data-link-type="dependency" data-source-line="35" id="lnk18"><path d="M847.77,66.31 C908.27,72.75 984.09,85.45 1003.63,109.48 C1008.4,115.35 1008.24,120.5 1003.63,126.48 C960.45,182.56 760.158,215.473 653.028,229.453" fill="none" id="EXT-to-WFT" style="stroke:#4B5563;stroke-width:1;stroke-dasharray:7,7;"/><polygon fill="#4B5563" points="648.07,230.1,657.5119,232.9018,653.028,229.453,656.4767,224.969,648.07,230.1" style="stroke:#4B5563;stroke-width:1;stroke-linejoin:miter;stroke-miterlimit:10;"/><text fill="#000000" font-family="sans-serif" font-size="13" lengthAdjust="spacing" textLength="135.3638" x="1008.15" y="123.0484">Optional direct usage</text></g><!--link FS to ENV--><g class="link" data-entity-1="ent0005" data-entity-2="ent0019" data-link-type="dependency" data-source-line="37" id="lnk20"><path d="M315.91,240.32 C256.82,244.56 172.43,260.34 122.63,312.97 C105.33,331.25 102.446,356.6701 102.576,375.8001" fill="none" id="FS-to-ENV" style="stroke:#4B5563;stroke-width:1;stroke-dasharray:7,7;"/><polygon fill="#4B5563" points="102.61,380.8,106.5487,371.773,102.576,375.8001,98.5489,371.8274,102.61,380.8" style="stroke:#4B5563;stroke-width:1;stroke-linejoin:miter;stroke-miterlimit:10;"/><text fill="#000000" font-family="sans-serif" font-size="13" lengthAdjust="spacing" textLength="237.3643" x="123.63" y="326.5384">Reads: NANOBOT_TMUX_SOCKET_DIR</text></g><?plantuml-src ZLFBZjem5DtdAwuOgJk2c046iQW4p21LRM4Aj9rTP18dM3XsPD_mcAh_tkky6gOika5mp_5vN1jx42fZXgMmO-4XCJfNqLnBRG0DKvOWhj2p3SlkMQHFGYKGCsbv2ubup7A9Mtx6gHI9IkaWXFJ1JOirDKQVIeExmMuu73sqm1UAm18-qoRYfYAD1e-3yUu6wR_Y6XuYKudayCi3k1Akt04MMc4rw_Vxu_j7ntodVXUFOnQ7tcyFTGQeOQSHDPKMpa5evMLbBEWydwcnOX8s5uiyxG2pKC-2SaPX_WRhO9gVmN9pvAPdkRMaPejJsw_VNycnKLPCQVBjKJqfRS-TwzdGY0nBVeK79HuuFAXmScnadeGDDPbTu0kxS5CSRMP1CRiE60iLTUjaljqN9nQRThJDHOLxevLuOsuRBULto2tz4nFOZRNf8hsTMl_dOai6BOivcUSfDsNNvjUrLBK2M9bmposz2THbZEMiJMlkQ9hJBHR1odjwTQRB6NIx7waXJA3lDxi1TcH2iXq9rClmYEEexgQ8VE_3jzmjrkhmm6dh7_vXalO47dnOSyoDgc6GmcBjIys9C_1XmoL51cGcuGWPKznpMCjmwCEBbhB08AHtx5v_pIciHiHWwDe2zGptq0CKATSvUbGMVB_gkShS4cWZvOk6tDBI6qePwJQdlLPr57JLxfzVhdFvm_Ls2lIL5DQSHNO2o-boDLjj0zSYsApcdv-tmTEdzHy0?></g></svg>