<svg xmlns="http://www.w3.org/2000/svg" xmlns:xlink="http://www.w3.org/1999/xlink" contentStyleType="text/css" data-diagram-type="DESCRIPTION" height="832px" preserveAspectRatio="none" style="width:2341px;height:832px;" version="1.1" viewBox="0 0 2341 832" width="2341px" zoomAndPan="magnify"><?plantuml 1.2026.5?><defs><style><![CDATA[
@media (prefers-color-scheme: dark) {
  text { fill: #e5e7eb !important; }
  path, line, rect, circle, ellipse, polygon, polyline { stroke: #cbd5e1 !important; }
  .entity rect, .participant rect, .participant path, .sequenceLine rect, .class rect, .component rect, .component path, .note rect { fill: #111827 !important; }
  .cluster path { fill: none !important; }
  polygon { fill: #cbd5e1 !important; }
}
]]></style></defs><g><!--cluster NB--><g class="cluster" data-qualified-name="NB" data-source-line="13" id="ent0001"><path d="M79.5,6 L178.0488,6 A3.75,3.75 0 0 1 180.5488,8.5 L187.5488,28.4883 L256.5,28.4883 A2.5,2.5 0 0 1 259,30.9883 L259,90.99 A2.5,2.5 0 0 1 256.5,93.49 L79.5,93.49 A2.5,2.5 0 0 1 77,90.99 L77,8.5 A2.5,2.5 0 0 1 79.5,6" fill="none" style="stroke:#64748B;stroke-width:1.5;"/><line style="stroke:#64748B;stroke-width:1.5;" x1="77" x2="187.5488" y1="28.4883" y2="28.4883"/><text fill="#000000" font-family="sans-serif" font-size="14" font-weight="700" lengthAdjust="spacing" textLength="97.5488" x="81" y="21.5352">nanobot Core</text></g><!--cluster SS--><g class="cluster" data-qualified-name="SS" data-source-line="16" id="ent0003"><path d="M8.5,142.49 L202.8066,142.49 A3.75,3.75 0 0 1 205.3066,144.99 L212.3066,164.9783 L1462.5,164.9783 A2.5,2.5 0 0 1 1465,167.4783 L1465,815.41 A2.5,2.5 0 0 1 1462.5,817.91 L8.5,817.91 A2.5,2.5 0 0 1 6,815.41 L6,144.99 A2.5,2.5 0 0 1 8.5,142.49" fill="none" style="stroke:#64748B;stroke-width:1.5;"/><line style="stroke:#64748B;stroke-width:1.5;" x1="6" x2="212.3066" y1="164.9783" y2="164.9783"/><text fill="#000000" font-family="sans-serif" font-size="14" font-weight="700" lengthAdjust="spacing" textLength="193.3066" x="10" y="158.0252">nanobot/skills Component</text></g><!--cluster Core--><g class="cluster" data-qualified-name="SS.Core" data-source-line="17" id="ent0004"><path d="M32.5,185.49 L158.2559,185.49 A3.75,3.75 0 0 1 160.7559,187.99 L167.7559,207.9783 L241.5,207.9783 A2.5,2.5 0 0 1 244,210.4783 L244,598.19 A2.5,2.5 0 0 1 241.5,600.69 L32.5,600.69 A2.5,2.5 0 0 1 30,598.19 L30,187.99 A2.5,2.5 0 0 1 32.5,185.49" fill="none" style="stroke:#64748B;stroke-width:1.5;"/><line style="stroke:#64748B;stroke-width:1.5;" x1="30" x2="167.7559" y1="207.9783" y2="207.9783"/><text fill="#000000" font-family="sans-serif" font-size="14" font-weight="700" lengthAdjust="spacing" textLength="124.7559" x="34" y="201.0252">Skill System Core</text></g><!--cluster BuiltIn--><g class="cluster" data-qualified-name="SS.BuiltIn" data-source-line="22" id="ent0008"><path d="M278.5,327.98 L378.0264,327.98 A3.75,3.75 0 0 1 380.5264,330.48 L387.5264,350.4683 L1430.5,350.4683 A2.5,2.5 0 0 1 1433,352.9683 L1433,445.46 A2.5,2.5 0 0 1 1430.5,447.96 L278.5,447.96 A2.5,2.5 0 0 1 276,445.46 L276,330.48 A2.5,2.5 0 0 1 278.5,327.98" fill="none" style="stroke:#64748B;stroke-width:1.5;"/><line style="stroke:#64748B;stroke-width:1.5;" x1="276" x2="387.5264" y1="350.4683" y2="350.4683"/><text fill="#000000" font-family="sans-serif" font-size="14" font-weight="700" lengthAdjust="spacing" textLength="98.5264" x="280" y="343.5152">Built-in Skills</text></g><!--cluster Schema--><g class="cluster" data-qualified-name="SS.Schema" data-source-line="30" id="ent0015"><path d="M40.5,665.93 L131.2832,665.93 A3.75,3.75 0 0 1 133.7832,668.43 L140.7832,688.4183 L519.5,688.4183 A2.5,2.5 0 0 1 522,690.9183 L522,783.41 A2.5,2.5 0 0 1 519.5,785.91 L40.5,785.91 A2.5,2.5 0 0 1 38,783.41 L38,668.43 A2.5,2.5 0 0 1 40.5,665.93" fill="none" style="stroke:#64748B;stroke-width:1.5;"/><line style="stroke:#64748B;stroke-width:1.5;" x1="38" x2="140.7832" y1="688.4183" y2="688.4183"/><text fill="#000000" font-family="sans-serif" font-size="14" font-weight="700" lengthAdjust="spacing" textLength="89.7832" x="42" y="681.4652">Skill Schema</text></g><!--cluster External--><g class="cluster" data-qualified-name="External" data-source-line="35" id="ent0018"><path d="M1491.5,504.96 L1615.458,504.96 A3.75,3.75 0 0 1 1617.958,507.46 L1624.958,527.4483 L2323.5,527.4483 A2.5,2.5 0 0 1 2326,529.9483 L2326,606.43 A2.5,2.5 0 0 1 2323.5,608.93 L1491.5,608.93 A2.5,2.5 0 0 1 1489,606.43 L1489,507.46 A2.5,2.5 0 0 1 1491.5,504.96" fill="none" style="stroke:#64748B;stroke-width:1.5;"/><line style="stroke:#64748B;stroke-width:1.5;" x1="1489" x2="1624.958" y1="527.4483" y2="527.4483"/><text fill="#000000" font-family="sans-serif" font-size="14" font-weight="700" lengthAdjust="spacing" textLength="122.958" x="1493" y="520.4952">External Systems</text></g><!--entity Agent--><g class="entity" data-qualified-name="NB.Agent" data-source-line="14" id="ent0002"><rect fill="#F8FAFC" height="36.4883" rx="2.5" ry="2.5" style="stroke:#4B5563;stroke-width:0.5;" width="150.2041" x="92.9" y="41"/><text fill="#111827" font-family="sans-serif" font-size="14" lengthAdjust="spacing" textLength="130.2041" x="102.9" y="64.5352">Agent Orchestrator</text></g><!--entity SD--><g class="entity" data-qualified-name="SS.Core.SD" data-source-line="18" id="ent0005"><rect fill="#F8FAFC" height="36.4883" rx="2.5" ry="2.5" style="stroke:#4B5563;stroke-width:0.5;" width="121.541" x="106.23" y="548.2"/><text fill="#111827" font-family="sans-serif" font-size="14" lengthAdjust="spacing" textLength="101.541" x="116.23" y="571.7352">Skills Directory</text></g><!--entity Parser--><g class="entity" data-qualified-name="SS.Core.Parser" data-source-line="19" id="ent0006"><rect fill="#F8FAFC" height="36.4883" rx="2.5" ry="2.5" style="stroke:#4B5563;stroke-width:0.5;" width="182.1279" x="45.94" y="379.22"/><text fill="#111827" font-family="sans-serif" font-size="14" lengthAdjust="spacing" textLength="162.1279" x="55.94" y="402.7552">YAML/Markdown Parser</text></g><!--entity Loader--><g class="entity" data-qualified-name="SS.Core.Loader" data-source-line="20" id="ent0007"><rect fill="#F8FAFC" height="36.4883" rx="2.5" ry="2.5" style="stroke:#4B5563;stroke-width:0.5;" width="98.4287" x="118.79" y="220.49"/><text fill="#111827" font-family="sans-serif" font-size="14" lengthAdjust="spacing" textLength="78.4287" x="128.79" y="244.0252">Skill Loader</text></g><!--entity GH--><g class="entity" data-qualified-name="SS.BuiltIn.GH" data-source-line="23" id="ent0009"><rect fill="#F8FAFC" height="52.9766" rx="2.5" ry="2.5" style="stroke:#4B5563;stroke-width:0.5;" width="116.3799" x="488.81" y="370.98"/><text fill="#111827" font-family="sans-serif" font-size="14" lengthAdjust="spacing" textLength="72.8027" x="510.5986" y="394.5152">GitHub CLI</text><text fill="#111827" font-family="sans-serif" font-size="14" lengthAdjust="spacing" textLength="96.3799" x="498.81" y="411.0034">gh integration</text></g><!--entity WX--><g class="entity" data-qualified-name="SS.BuiltIn.WX" data-source-line="24" id="ent0010"><rect fill="#F8FAFC" height="52.9766" rx="2.5" ry="2.5" style="stroke:#4B5563;stroke-width:0.5;" width="166.125" x="639.94" y="370.98"/><text fill="#111827" font-family="sans-serif" font-size="14" lengthAdjust="spacing" textLength="54.9609" x="695.522" y="394.5152">Weather</text><text fill="#111827" font-family="sans-serif" font-size="14" lengthAdjust="spacing" textLength="146.125" x="649.94" y="411.0034">wttr.in / Open-Meteo</text></g><!--entity SUM--><g class="entity" data-qualified-name="SS.BuiltIn.SUM" data-source-line="25" id="ent0011"><rect fill="#F8FAFC" height="52.9766" rx="2.5" ry="2.5" style="stroke:#4B5563;stroke-width:0.5;" width="176.2559" x="840.87" y="370.98"/><text fill="#111827" font-family="sans-serif" font-size="14" lengthAdjust="spacing" textLength="81.4297" x="888.2831" y="394.5152">Summarizer</text><text fill="#111827" font-family="sans-serif" font-size="14" lengthAdjust="spacing" textLength="156.2559" x="850.87" y="411.0034">URLs / Files / YouTube</text></g><!--entity TMX--><g class="entity" data-qualified-name="SS.BuiltIn.TMX" data-source-line="26" id="ent0012"><rect fill="#F8FAFC" height="52.9766" rx="2.5" ry="2.5" style="stroke:#4B5563;stroke-width:0.5;" width="162.9121" x="1052.54" y="370.98"/><text fill="#111827" font-family="sans-serif" font-size="14" lengthAdjust="spacing" textLength="111.7881" x="1078.102" y="394.5152">Tmux Controller</text><text fill="#111827" font-family="sans-serif" font-size="14" lengthAdjust="spacing" textLength="142.9121" x="1062.54" y="411.0034">Session Management</text></g><!--entity REG--><g class="entity" data-qualified-name="SS.BuiltIn.REG" data-source-line="27" id="ent0013"><rect fill="#F8FAFC" height="52.9766" rx="2.5" ry="2.5" style="stroke:#4B5563;stroke-width:0.5;" width="139.3145" x="1250.34" y="370.98"/><text fill="#111827" font-family="sans-serif" font-size="14" lengthAdjust="spacing" textLength="119.3145" x="1260.34" y="394.5152">ClawHub Registry</text><text fill="#111827" font-family="sans-serif" font-size="14" lengthAdjust="spacing" textLength="101.7803" x="1269.1071" y="411.0034">Search / Install</text></g><!--entity CRT--><g class="entity" data-qualified-name="SS.BuiltIn.CRT" data-source-line="28" id="ent0014"><rect fill="#F8FAFC" height="52.9766" rx="2.5" ry="2.5" style="stroke:#4B5563;stroke-width:0.5;" width="153.082" x="300.46" y="370.98"/><text fill="#111827" font-family="sans-serif" font-size="14" lengthAdjust="spacing" textLength="82.8037" x="335.5992" y="394.5152">Skill Creator</text><text fill="#111827" font-family="sans-serif" font-size="14" lengthAdjust="spacing" textLength="133.082" x="310.46" y="411.0034">New Skill Generator</text></g><!--entity YAML--><g class="entity" data-qualified-name="SS.Schema.YAML" data-source-line="31" id="ent0016"><rect fill="#F8FAFC" height="52.9766" rx="2.5" ry="2.5" style="stroke:#4B5563;stroke-width:0.5;" width="202.5742" x="61.71" y="708.93"/><text fill="#111827" font-family="sans-serif" font-size="14" lengthAdjust="spacing" textLength="122.8965" x="101.5489" y="732.4652">YAML Frontmatter</text><text fill="#111827" font-family="sans-serif" font-size="14" lengthAdjust="spacing" textLength="182.5742" x="71.71" y="748.9534">(name, description, config)</text></g><!--entity MD--><g class="entity" data-qualified-name="SS.Schema.MD" data-source-line="32" id="ent0017"><rect fill="#F8FAFC" height="52.9766" rx="2.5" ry="2.5" style="stroke:#4B5563;stroke-width:0.5;" width="178.8877" x="299.56" y="708.93"/><text fill="#111827" font-family="sans-serif" font-size="14" lengthAdjust="spacing" textLength="155.4082" x="311.2997" y="732.4652">Markdown Instructions</text><text fill="#111827" font-family="sans-serif" font-size="14" lengthAdjust="spacing" textLength="158.8877" x="309.56" y="748.9534">(agent execution steps)</text></g><!--entity GitHub--><g class="entity" data-qualified-name="External.GitHub" data-source-line="36" id="ent0019"><rect fill="#F8FAFC" height="36.4883" rx="2.5" ry="2.5" style="stroke:#4B5563;stroke-width:0.5;" width="93.0488" x="1505.48" y="548.2"/><text fill="#111827" font-family="sans-serif" font-size="14" lengthAdjust="spacing" textLength="73.0488" x="1515.48" y="571.7352">GitHub API</text></g><!--entity WeatherAPI--><g class="entity" data-qualified-name="External.WeatherAPI" data-source-line="37" id="ent0020"><rect fill="#F8FAFC" height="36.4883" rx="2.5" ry="2.5" style="stroke:#4B5563;stroke-width:0.5;" width="133.8594" x="1633.07" y="548.2"/><text fill="#111827" font-family="sans-serif" font-size="14" lengthAdjust="spacing" textLength="113.8594" x="1643.07" y="571.7352">Weather Services</text></g><!--entity ClawHub--><g class="entity" data-qualified-name="External.ClawHub" data-source-line="38" id="ent0021"><rect fill="#F8FAFC" height="36.4883" rx="2.5" ry="2.5" style="stroke:#4B5563;stroke-width:0.5;" width="139.3145" x="2170.34" y="548.2"/><text fill="#111827" font-family="sans-serif" font-size="14" lengthAdjust="spacing" textLength="119.3145" x="2180.34" y="571.7352">ClawHub Registry</text></g><!--entity TmuxSrv--><g class="entity" data-qualified-name="External.TmuxSrv" data-source-line="39" id="ent0022"><rect fill="#F8FAFC" height="36.4883" rx="2.5" ry="2.5" style="stroke:#4B5563;stroke-width:0.5;" width="121.7119" x="2013.14" y="548.2"/><text fill="#111827" font-family="sans-serif" font-size="14" lengthAdjust="spacing" textLength="101.7119" x="2023.14" y="571.7352">Tmux Sessions</text></g><!--entity ContentSrc--><g class="entity" data-qualified-name="External.ContentSrc" data-source-line="40" id="ent0023"><rect fill="#F8FAFC" height="52.9766" rx="2.5" ry="2.5" style="stroke:#4B5563;stroke-width:0.5;" width="176.2559" x="1801.87" y="539.96"/><text fill="#111827" font-family="sans-serif" font-size="14" lengthAdjust="spacing" textLength="111.0293" x="1834.4833" y="563.4952">Content Sources</text><text fill="#111827" font-family="sans-serif" font-size="14" lengthAdjust="spacing" textLength="156.2559" x="1811.87" y="579.9834">URLs / Files / YouTube</text></g><!--link Agent to Loader--><g class="link" data-entity-1="ent0002" data-entity-2="ent0007" data-link-type="dependency" data-source-line="42" id="lnk24"><path d="M168,77.91 C168,111.94 168,181.18 168,215.14" fill="none" id="Agent-to-Loader" style="stroke:#4B5563;stroke-width:1;"/><polygon fill="#4B5563" points="168,220.14,172,211.14,168,215.14,164,211.14,168,220.14" style="stroke:#4B5563;stroke-width:1;stroke-linejoin:miter;stroke-miterlimit:10;"/><text fill="#000000" font-family="sans-serif" font-size="13" lengthAdjust="spacing" textLength="120.4404" x="169" y="123.0584">Discover &amp; Execute</text></g><!--link Loader to Parser--><g class="link" data-entity-1="ent0007" data-entity-2="ent0006" data-link-type="dependency" data-source-line="43" id="lnk25"><path d="M164.5,257.41 C158.52,287.67 147.3496,344.1449 141.4096,374.1949" fill="none" id="Loader-to-Parser" style="stroke:#4B5563;stroke-width:1;"/><polygon fill="#4B5563" points="140.44,379.1,146.1093,371.0465,141.4096,374.1949,138.2612,369.4952,140.44,379.1" style="stroke:#4B5563;stroke-width:1;stroke-linejoin:miter;stroke-miterlimit:10;"/><text fill="#000000" font-family="sans-serif" font-size="13" lengthAdjust="spacing" textLength="33.5537" x="158.97" y="300.5484">Parse</text></g><!--link Parser to SD--><g class="link" data-entity-1="ent0006" data-entity-2="ent0005" data-link-type="dependency" data-source-line="44" id="lnk26"><path d="M140.15,416.02 C145.92,448.09 157.1964,510.8787 162.9564,542.9587" fill="none" id="Parser-to-SD" style="stroke:#4B5563;stroke-width:1;"/><polygon fill="#4B5563" points="163.84,547.88,166.1865,538.3148,162.9564,542.9587,158.3124,539.7286,163.84,547.88" style="stroke:#4B5563;stroke-width:1;stroke-linejoin:miter;stroke-miterlimit:10;"/><text fill="#000000" font-family="sans-serif" font-size="13" lengthAdjust="spacing" textLength="30.8242" x="153.9" y="485.5284">Read</text></g><!--link SD to Schema--><g class="link" data-entity-1="ent0005" data-entity-2="ent0015" data-link-type="dependency" data-source-line="45" id="lnk27"><path d="M227.97,575.21 C312,587.15 457.22,612.61 494,649.93 C497.28,653.2588 500.0589,657.0203 502.41,661.0611 C502.9977,662.0712 503.5588,663.0989 504.0942,664.1416 C504.3619,664.6629 502.4502,683.1732 502.7053,683.7017" fill="none" id="SD-to-Schema" style="stroke:#4B5563;stroke-width:1;"/><polygon fill="#4B5563" points="504.8783,688.2048,504.5694,678.3608,502.7053,683.7017,497.3644,681.8377,504.8783,688.2048" style="stroke:#4B5563;stroke-width:1;stroke-linejoin:miter;stroke-miterlimit:10;"/><text fill="#000000" font-family="sans-serif" font-size="13" lengthAdjust="spacing" textLength="55.542" x="483.24" y="638.4984">Contains</text></g><!--link Loader to BuiltIn--><g class="link" data-entity-1="ent0007" data-entity-2="ent0008" data-link-type="dependency" data-source-line="46" id="lnk28"><path d="M217.53,240.97 C442.59,246.8 1359.94,272.88 1406,311.98 C1409.61,315.045 1412.6192,318.635 1415.1209,322.5744 C1415.7463,323.5592 1416.34,324.5659 1416.9034,325.5917 C1417.1851,326.1046 1417.4592,326.6223 1417.726,327.1444 C1417.8594,327.4054 1415.7808,345.6708 1415.9105,345.934" fill="none" id="Loader-to-BuiltIn" style="stroke:#4B5563;stroke-width:1;"/><polygon fill="#4B5563" points="1418.1206,350.4191,1417.7304,340.5779,1415.9105,345.934,1410.5544,344.1141,1418.1206,350.4191" style="stroke:#4B5563;stroke-width:1;stroke-linejoin:miter;stroke-miterlimit:10;"/><text fill="#000000" font-family="sans-serif" font-size="13" lengthAdjust="spacing" textLength="53.3394" x="1373.83" y="300.5484">Route to</text></g><!--link GH to GitHub--><g class="link" data-entity-1="ent0009" data-entity-2="ent0019" data-link-type="dependency" data-source-line="47" id="lnk29"><path d="M572.8895,427.901 C586.6095,441.981 601.87,454.77 622,463.96 C695.07,497.32 721.25,479.33 801,488.96 C1067.08,521.08 1382.3101,550.2425 1500.3701,560.8525" fill="none" id="GH-GitHub" style="stroke:#4B5563;stroke-width:1;"/><polygon fill="#4B5563" points="569.4,424.32,572.8162,433.5574,572.8895,427.901,578.5458,427.9743,569.4,424.32" style="stroke:#4B5563;stroke-width:1;stroke-linejoin:miter;stroke-miterlimit:10;"/><polygon fill="#4B5563" points="1505.35,561.3,1496.7442,556.5105,1500.3701,560.8525,1496.0281,564.4784,1505.35,561.3" style="stroke:#4B5563;stroke-width:1;stroke-linejoin:miter;stroke-miterlimit:10;"/><text fill="#000000" font-family="sans-serif" font-size="13" lengthAdjust="spacing" textLength="39.9585" x="802" y="485.5284">gh CLI</text></g><!--link WX to WeatherAPI--><g class="link" data-entity-1="ent0010" data-entity-2="ent0020" data-link-type="dependency" data-source-line="48" id="lnk30"><path d="M758.3115,427.298 C777.0915,441.368 798.09,454.74 823,463.96 C904.12,493.97 929.72,482.81 1016,488.96 C1049.25,491.32 1584.67,485.57 1616,496.96 C1644.12,507.18 1666.323,527.4419 1681.683,544.1219" fill="none" id="WX-WeatherAPI" style="stroke:#4B5563;stroke-width:1;"/><polygon fill="#4B5563" points="754.31,424.3,759.1144,432.8975,758.3115,427.298,763.9111,426.4951,754.31,424.3" style="stroke:#4B5563;stroke-width:1;stroke-linejoin:miter;stroke-miterlimit:10;"/><polygon fill="#4B5563" points="1685.07,547.8,1681.9159,538.4699,1681.683,544.1219,1676.0309,543.8891,1685.07,547.8" style="stroke:#4B5563;stroke-width:1;stroke-linejoin:miter;stroke-miterlimit:10;"/><text fill="#000000" font-family="sans-serif" font-size="13" lengthAdjust="spacing" textLength="33.1792" x="1017" y="485.5284">HTTP</text></g><!--link REG to ClawHub--><g class="link" data-entity-1="ent0013" data-entity-2="ent0021" data-link-type="dependency" data-source-line="49" id="lnk31"><path d="M1344.5141,428.0323 C1357.9641,442.5023 1373.32,455.6 1394,463.96 C1433.08,479.75 2112.44,482.41 2152,496.96 C2180.89,507.58 2204.3337,527.8655 2220.6037,544.4055" fill="none" id="REG-ClawHub" style="stroke:#4B5563;stroke-width:1;"/><polygon fill="#4B5563" points="1341.11,424.37,1344.3076,433.6853,1344.5141,428.0323,1350.1672,428.2388,1341.11,424.37" style="stroke:#4B5563;stroke-width:1;stroke-linejoin:miter;stroke-miterlimit:10;"/><polygon fill="#4B5563" points="2224.11,547.97,2220.6502,538.7488,2220.6037,544.4055,2214.947,544.3589,2224.11,547.97" style="stroke:#4B5563;stroke-width:1;stroke-linejoin:miter;stroke-miterlimit:10;"/><text fill="#000000" font-family="sans-serif" font-size="13" lengthAdjust="spacing" textLength="86.2837" x="2047.62" y="485.5284">Search/Install</text></g><!--link TMX to TmuxSrv--><g class="link" data-entity-1="ent0012" data-entity-2="ent0022" data-link-type="dependency" data-source-line="50" id="lnk32"><path d="M1168.9453,427.3395 C1187.5153,441.4095 1208.28,454.76 1233,463.96 C1314.9,494.41 1340.84,482.78 1428,488.96 C1459.48,491.19 1966.55,485.62 1996,496.96 C2022.74,507.25 2043.1252,527.3489 2057.1852,544.0089" fill="none" id="TMX-TmuxSrv" style="stroke:#4B5563;stroke-width:1;"/><polygon fill="#4B5563" points="1164.96,424.32,1169.7179,432.9434,1168.9453,427.3395,1174.5491,426.5669,1164.96,424.32" style="stroke:#4B5563;stroke-width:1;stroke-linejoin:miter;stroke-miterlimit:10;"/><polygon fill="#4B5563" points="2060.41,547.83,2057.6623,538.3722,2057.1852,544.0089,2051.5485,543.5318,2060.41,547.83" style="stroke:#4B5563;stroke-width:1;stroke-linejoin:miter;stroke-miterlimit:10;"/><text fill="#000000" font-family="sans-serif" font-size="13" lengthAdjust="spacing" textLength="46.9727" x="1429" y="485.5284">Control</text></g><!--link SUM to ContentSrc--><g class="link" data-entity-1="ent0011" data-entity-2="ent0023" data-link-type="dependency" data-source-line="51" id="lnk33"><path d="M967.7085,427.1752 C987.6385,440.8952 1009.6,454.08 1035,463.96 C1090.24,485.45 1107.03,482.99 1166,488.96 C1200.16,492.41 1751.13,487.03 1784,496.96 C1812.32,505.51 1836.2963,521.0164 1856.3763,536.6664" fill="none" id="SUM-ContentSrc" style="stroke:#4B5563;stroke-width:1;"/><polygon fill="#4B5563" points="963.59,424.34,968.7351,432.7381,967.7085,427.1752,973.2714,426.1486,963.59,424.34" style="stroke:#4B5563;stroke-width:1;stroke-linejoin:miter;stroke-miterlimit:10;"/><polygon fill="#4B5563" points="1860.32,539.74,1855.6803,531.0525,1856.3763,536.6664,1850.7624,537.3624,1860.32,539.74" style="stroke:#4B5563;stroke-width:1;stroke-linejoin:miter;stroke-miterlimit:10;"/><text fill="#000000" font-family="sans-serif" font-size="13" lengthAdjust="spacing" textLength="84.519" x="1167" y="485.5284">Fetch/Extract</text></g><!--link CRT to SD--><g class="link" data-entity-1="ent0014" data-entity-2="ent0005" data-link-type="dependency" data-source-line="52" id="lnk34"><path d="M344.65,424.19 C301.5,458.5 230.1738,515.2183 192.9938,544.7783" fill="none" id="CRT-to-SD" style="stroke:#4B5563;stroke-width:1;"/><polygon fill="#4B5563" points="189.08,547.89,198.6141,545.42,192.9938,544.7783,193.6355,539.158,189.08,547.89" style="stroke:#4B5563;stroke-width:1;stroke-linejoin:miter;stroke-miterlimit:10;"/><text fill="#000000" font-family="sans-serif" font-size="13" lengthAdjust="spacing" textLength="56.5513" x="285.57" y="485.5284">Generate</text></g><?plantuml-src ZLJRRXf137tVhx0IgMgbK9GsDw6g4e5maTWaOZTA8kLbMCmookuCcfaDf5N_lPuBi9j4LLzWi8-FxMCR_Sp5YYbMmenbpxcIbPZtP24L6CM49XSA4-aTIY_PNAwvo6712eqrpnmNh2fCYXlJBNWkIWg4Z3vGrL1TfUJQ9pWycPsUddslEM-f19RZfLHpL05qTd9-SZ7x0FHVvIhC31DvWV0x0cWGX-m00obCi1qV7rzyExV8D-o7Yui5MsJHdyZ85HW9CscCfAQvpS2bY5Q-B3WGJ4ZoGaygF02cuVgIakyBEUZcLfaRbIrHKzL6AWTpPahmbgXDtHI59hvo9GLX73f9Y7G7JIm4abTjiDmdjezcwiHJzLtLKhrwgduTyjYD9-sOgMSQio2nbKPVdt--OuE9PFC0ySzw3vSLBqoB2_2P7ShPng9PsP2RKJM3tcJy9F8bS5gRdBGXPLtCS5G7toCpIrHFOcsC-ahiRRXPeMZ5Q50w_Fr3ez2gB9dYlsp8tNIY2J_W1ThlHrcbrSphbTp5zQYqh3QaeJ1A5eKDJL1hAWXY9gYvSZkAD6uawnLiRLkPOivflgysZj6mATbOQCEAmaLDhuRljUmfjFlm9AvnxIM38GhSBqblcjRb3NEdJIgPRy4zczBQYS90KICbCyOsybcm4e_eOdMc-CgAV0IP50kUVt4iDgBEi5i7su2gtC9hec5kat63MMLDGEktqfuYxbETjKglDfHPiEsI-atO6JzQXUxjs8_U_VnW_92WUk4PUgvWfAX_3SEBw8tlPXtcw_ci9L4l3JAIq3QSo4fHsd_kKi0colvd-8jljNw62u4EdQ3Ev0izFv4ALZ-CWi_2_AqHp3sYyDDwaZvPfyZc4RsSmK-yup8oBdITPtjg528f1VrnHSCH_B2ke787wDhewgBx1s_VwqY-KPhUHhIfthKLimD-ezjXdoEw08y8eeLgw6uYkgaGl1E4l0Cq54xZLomp4ItrlhUmx_WN?></g></svg>