<svg xmlns="http://www.w3.org/2000/svg" xmlns:xlink="http://www.w3.org/1999/xlink" contentStyleType="text/css" data-diagram-type="DESCRIPTION" height="505px" preserveAspectRatio="none" style="width:1277px;height:505px;" version="1.1" viewBox="0 0 1277 505" width="1277px" zoomAndPan="magnify"><?plantuml 1.2026.5?><defs><style><![CDATA[
@media (prefers-color-scheme: dark) {
  text { fill: #e5e7eb !important; }
  path, line, rect, circle, ellipse, polygon, polyline { stroke: #cbd5e1 !important; }
  .entity rect, .participant rect, .participant path, .sequenceLine rect, .class rect, .component rect, .component path, .note rect { fill: #111827 !important; }
  .cluster path { fill: none !important; }
  polygon { fill: #cbd5e1 !important; }
}
]]></style></defs><g><!--cluster Templates--><g class="cluster" data-qualified-name="Templates" data-source-line="13" id="ent0001"><path d="M8.5,6 L153.0684,6 A3.75,3.75 0 0 1 155.5684,8.5 L162.5684,44.9766 L1259.5,44.9766 A2.5,2.5 0 0 1 1262,47.4766 L1262,189.43 A2.5,2.5 0 0 1 1259.5,191.93 L8.5,191.93 A2.5,2.5 0 0 1 6,189.43 L6,8.5 A2.5,2.5 0 0 1 8.5,6" fill="none" style="stroke:#64748B;stroke-width:1.5;"/><line style="stroke:#64748B;stroke-width:1.5;" x1="6" x2="162.5684" y1="44.9766" y2="44.9766"/><text fill="#000000" font-family="sans-serif" font-size="14" font-weight="700" lengthAdjust="spacing" textLength="138.6738" x="12.4473" y="21.5352">nanobot/templates</text><text fill="#000000" font-family="sans-serif" font-size="14" font-weight="700" lengthAdjust="spacing" textLength="143.5684" x="10" y="38.0234">Configuration Layer</text></g><!--cluster Runtime--><g class="cluster" data-qualified-name="Runtime" data-source-line="20" id="ent0007"><path d="M358.5,240.93 L530.0225,240.93 A3.75,3.75 0 0 1 532.5225,243.43 L539.5225,279.9066 L663.5,279.9066 A2.5,2.5 0 0 1 666,282.4066 L666,488.38 A2.5,2.5 0 0 1 663.5,490.88 L358.5,490.88 A2.5,2.5 0 0 1 356,488.38 L356,243.43 A2.5,2.5 0 0 1 358.5,240.93" fill="none" style="stroke:#64748B;stroke-width:1.5;"/><line style="stroke:#64748B;stroke-width:1.5;" x1="356" x2="539.5225" y1="279.9066" y2="279.9066"/><text fill="#000000" font-family="sans-serif" font-size="14" font-weight="700" lengthAdjust="spacing" textLength="125.6855" x="382.4185" y="256.4652">Nanobot Runtime</text><text fill="#000000" font-family="sans-serif" font-size="14" font-weight="700" lengthAdjust="spacing" textLength="170.5225" x="360" y="272.9534">Agent Execution Engine</text></g><!--entity SOUL--><g class="entity" data-qualified-name="Templates.SOUL" data-source-line="14" id="ent0002"><rect fill="#F8FAFC" height="118.9297" rx="2.5" ry="2.5" style="stroke:#4B5563;stroke-width:0.5;" width="216" x="1030" y="57"/><text fill="#111827" font-family="sans-serif" font-size="14" lengthAdjust="spacing" textLength="61.8926" x="1107.0537" y="80.5352">SOUL.md</text><text fill="#111827" font-family="sans-serif" font-size="14" lengthAdjust="spacing" textLength="137.2451" x="1069.3774" y="97.0234">Personality &amp; Values</text><text fill="#111827" font-family="sans-serif" font-size="14" lengthAdjust="spacing" textLength="196" x="1040" y="113.5117">&#9473;&#9473;&#9473;&#9473;&#9473;&#9473;&#9473;&#9473;&#9473;&#9473;&#9473;&#9473;&#9473;&#9473;</text><text fill="#111827" font-family="sans-serif" font-size="14" lengthAdjust="spacing" textLength="134.6611" x="1070.6694" y="130">&#8226; Identity Definition</text><text fill="#111827" font-family="sans-serif" font-size="14" lengthAdjust="spacing" textLength="155.9688" x="1060.0156" y="146.4883">&#8226; Communication Style</text><text fill="#111827" font-family="sans-serif" font-size="14" lengthAdjust="spacing" textLength="172.6416" x="1051.6792" y="162.9766">&#8226; Core Values Framework</text></g><!--entity USER--><g class="entity" data-qualified-name="Templates.USER" data-source-line="15" id="ent0003"><rect fill="#F8FAFC" height="118.9297" rx="2.5" ry="2.5" style="stroke:#4B5563;stroke-width:0.5;" width="216" x="273" y="57"/><text fill="#111827" font-family="sans-serif" font-size="14" lengthAdjust="spacing" textLength="59.9922" x="351.0039" y="80.5352">USER.md</text><text fill="#111827" font-family="sans-serif" font-size="14" lengthAdjust="spacing" textLength="77.9023" x="342.0488" y="97.0234">User Profile</text><text fill="#111827" font-family="sans-serif" font-size="14" lengthAdjust="spacing" textLength="196" x="283" y="113.5117">&#9473;&#9473;&#9473;&#9473;&#9473;&#9473;&#9473;&#9473;&#9473;&#9473;&#9473;&#9473;&#9473;&#9473;</text><text fill="#111827" font-family="sans-serif" font-size="14" lengthAdjust="spacing" textLength="160.6035" x="300.6982" y="130">&#8226; Identity &amp; Preferences</text><text fill="#111827" font-family="sans-serif" font-size="14" lengthAdjust="spacing" textLength="143.6367" x="309.1816" y="146.4883">&#8226; Technical Expertise</text><text fill="#111827" font-family="sans-serif" font-size="14" lengthAdjust="spacing" textLength="105.0273" x="328.4863" y="162.9766">&#8226; Work Context</text></g><!--entity AGENTS--><g class="entity" data-qualified-name="Templates.AGENTS" data-source-line="16" id="ent0004"><rect fill="#F8FAFC" height="118.9297" rx="2.5" ry="2.5" style="stroke:#4B5563;stroke-width:0.5;" width="216" x="22" y="57"/><text fill="#111827" font-family="sans-serif" font-size="14" lengthAdjust="spacing" textLength="80.4111" x="89.7944" y="80.5352">AGENTS.md</text><text fill="#111827" font-family="sans-serif" font-size="14" lengthAdjust="spacing" textLength="124.9336" x="67.5332" y="97.0234">Agent Instructions</text><text fill="#111827" font-family="sans-serif" font-size="14" lengthAdjust="spacing" textLength="196" x="32" y="113.5117">&#9473;&#9473;&#9473;&#9473;&#9473;&#9473;&#9473;&#9473;&#9473;&#9473;&#9473;&#9473;&#9473;&#9473;</text><text fill="#111827" font-family="sans-serif" font-size="14" lengthAdjust="spacing" textLength="169.0391" x="45.4805" y="130">&#8226; Reminder Management</text><text fill="#111827" font-family="sans-serif" font-size="14" lengthAdjust="spacing" textLength="155.9277" x="52.0361" y="146.4883">&#8226; Heartbeat Task Rules</text><text fill="#111827" font-family="sans-serif" font-size="14" lengthAdjust="spacing" textLength="145.7832" x="57.1084" y="162.9766">&#8226; Behavior Guidelines</text></g><!--entity HEARTBEAT--><g class="entity" data-qualified-name="Templates.HEARTBEAT" data-source-line="17" id="ent0005"><rect fill="#F8FAFC" height="118.9297" rx="2.5" ry="2.5" style="stroke:#4B5563;stroke-width:0.5;" width="216" x="524" y="57"/><text fill="#111827" font-family="sans-serif" font-size="14" lengthAdjust="spacing" textLength="105.7041" x="579.1479" y="80.5352">HEARTBEAT.md</text><text fill="#111827" font-family="sans-serif" font-size="14" lengthAdjust="spacing" textLength="80.1855" x="591.9072" y="97.0234">Task Queue</text><text fill="#111827" font-family="sans-serif" font-size="14" lengthAdjust="spacing" textLength="196" x="534" y="113.5117">&#9473;&#9473;&#9473;&#9473;&#9473;&#9473;&#9473;&#9473;&#9473;&#9473;&#9473;&#9473;&#9473;&#9473;</text><text fill="#111827" font-family="sans-serif" font-size="14" lengthAdjust="spacing" textLength="96.9063" x="583.5469" y="130">&#8226; Active Tasks</text><text fill="#111827" font-family="sans-serif" font-size="14" lengthAdjust="spacing" textLength="129.6094" x="567.1953" y="146.4883">&#8226; Completed Tasks</text><text fill="#111827" font-family="sans-serif" font-size="14" lengthAdjust="spacing" textLength="104.3369" x="579.8315" y="162.9766">&#8226; 30-min Cycle</text></g><!--entity TOOLS--><g class="entity" data-qualified-name="Templates.TOOLS" data-source-line="18" id="ent0006"><rect fill="#F8FAFC" height="118.9297" rx="2.5" ry="2.5" style="stroke:#4B5563;stroke-width:0.5;" width="220.4365" x="774.78" y="57"/><text fill="#111827" font-family="sans-serif" font-size="14" lengthAdjust="spacing" textLength="71.9209" x="849.0378" y="80.5352">TOOLS.md</text><text fill="#111827" font-family="sans-serif" font-size="14" lengthAdjust="spacing" textLength="123.1152" x="823.4406" y="97.0234">Safety Constraints</text><text fill="#111827" font-family="sans-serif" font-size="14" lengthAdjust="spacing" textLength="196" x="786.9983" y="113.5117">&#9473;&#9473;&#9473;&#9473;&#9473;&#9473;&#9473;&#9473;&#9473;&#9473;&#9473;&#9473;&#9473;&#9473;</text><text fill="#111827" font-family="sans-serif" font-size="14" lengthAdjust="spacing" textLength="149.7959" x="810.1003" y="130">&#8226; Command Timeouts</text><text fill="#111827" font-family="sans-serif" font-size="14" lengthAdjust="spacing" textLength="200.4365" x="784.78" y="146.4883">&#8226; Dangerous Command Block</text><text fill="#111827" font-family="sans-serif" font-size="14" lengthAdjust="spacing" textLength="130.8467" x="819.5749" y="162.9766">&#8226; Workspace Limits</text></g><!--entity ENGINE--><g class="entity" data-qualified-name="Runtime.ENGINE" data-source-line="21" id="ent0008"><rect fill="#F8FAFC" height="52.9766" rx="2.5" ry="2.5" style="stroke:#4B5563;stroke-width:0.5;" width="122.6484" x="510.68" y="291.93"/><text fill="#111827" font-family="sans-serif" font-size="14" lengthAdjust="spacing" textLength="81.665" x="531.1717" y="315.4652">&#129302; AI Agent</text><text fill="#111827" font-family="sans-serif" font-size="14" lengthAdjust="spacing" textLength="102.6484" x="520.68" y="331.9534">Execution Core</text></g><!--entity CRON--><g class="entity" data-qualified-name="Runtime.CRON" data-source-line="22" id="ent0009"><rect fill="#F8FAFC" height="52.9766" rx="2.5" ry="2.5" style="stroke:#4B5563;stroke-width:0.5;" width="86.2744" x="371.86" y="291.93"/><text fill="#111827" font-family="sans-serif" font-size="14" lengthAdjust="spacing" textLength="56.1328" x="386.9308" y="315.4652">&#9200; Cron</text><text fill="#111827" font-family="sans-serif" font-size="14" lengthAdjust="spacing" textLength="66.2744" x="381.86" y="331.9534">Scheduler</text></g><!--entity CHANNEL--><g class="entity" data-qualified-name="Runtime.CHANNEL" data-source-line="23" id="ent0010"><rect fill="#F8FAFC" height="52.9766" rx="2.5" ry="2.5" style="stroke:#4B5563;stroke-width:0.5;" width="97.8984" x="439.05" y="421.9"/><text fill="#111827" font-family="sans-serif" font-size="14" lengthAdjust="spacing" textLength="77.8984" x="449.05" y="445.4352">&#128228; Delivery</text><text fill="#111827" font-family="sans-serif" font-size="14" lengthAdjust="spacing" textLength="62.4668" x="456.7658" y="461.9234">Channels</text></g><!--link SOUL to ENGINE--><g class="link" data-entity-1="ent0002" data-entity-2="ent0008" data-link-type="dependency" data-source-line="25" id="lnk11"><path d="M1051.31,176.3 C1038.59,184.45 1025.55,192.55 1013,199.93 C890.41,272.03 727.884,300.1815 638.724,310.9315" fill="none" id="SOUL-to-ENGINE" style="stroke:#4B5563;stroke-width:1;"/><polygon fill="#4B5563" points="633.76,311.53,643.1741,314.4239,638.724,310.9315,642.2165,306.4814,633.76,311.53" style="stroke:#4B5563;stroke-width:1;stroke-linejoin:miter;stroke-miterlimit:10;"/><text fill="#000000" font-family="sans-serif" font-size="13" lengthAdjust="spacing" textLength="98.0205" x="992.6" y="221.4984">Shapes Persona</text></g><!--link USER to ENGINE--><g class="link" data-entity-1="ent0003" data-entity-2="ent0008" data-link-type="dependency" data-source-line="26" id="lnk12"><path d="M379.56,176.18 C382.18,194.2 388.49,212.52 402,224.93 C414.18,236.11 460.86,226.26 476,232.93 C505.87,246.08 529.7402,268.268 547.5002,287.948" fill="none" id="USER-to-ENGINE" style="stroke:#4B5563;stroke-width:1;"/><polygon fill="#4B5563" points="550.85,291.66,547.7899,282.2986,547.5002,287.948,541.8507,287.6583,550.85,291.66" style="stroke:#4B5563;stroke-width:1;stroke-linejoin:miter;stroke-miterlimit:10;"/><text fill="#000000" font-family="sans-serif" font-size="13" lengthAdjust="spacing" textLength="149.3794" x="403" y="221.4984">Personalizes Responses</text></g><!--link TOOLS to ENGINE--><g class="link" data-entity-1="ent0006" data-entity-2="ent0008" data-link-type="dependency" data-source-line="27" id="lnk13"><path d="M874.53,176.42 C868.9,193.92 860.25,211.88 847,224.93 C789.21,281.83 700.294,303.0633 638.584,311.4933" fill="none" id="TOOLS-to-ENGINE" style="stroke:#4B5563;stroke-width:1;"/><polygon fill="#4B5563" points="633.63,312.17,643.0886,314.915,638.584,311.4933,642.0058,306.9887,633.63,312.17" style="stroke:#4B5563;stroke-width:1;stroke-linejoin:miter;stroke-miterlimit:10;"/><text fill="#000000" font-family="sans-serif" font-size="13" lengthAdjust="spacing" textLength="95.6973" x="861.24" y="221.4984">Enforces Safety</text></g><!--link AGENTS to ENGINE--><g class="link" data-entity-1="ent0004" data-entity-2="ent0008" data-link-type="dependency" data-source-line="28" id="lnk14"><path d="M185.36,176.37 C206.96,195.45 233.22,214.4 261,224.93 C305.71,241.86 431.59,215.22 476,232.93 C506.52,245.1 530.5403,267.6734 548.1603,287.7334" fill="none" id="AGENTS-to-ENGINE" style="stroke:#4B5563;stroke-width:1;"/><polygon fill="#4B5563" points="551.46,291.49,548.5259,282.0884,548.1603,287.7334,542.5153,287.3678,551.46,291.49" style="stroke:#4B5563;stroke-width:1;stroke-linejoin:miter;stroke-miterlimit:10;"/><text fill="#000000" font-family="sans-serif" font-size="13" lengthAdjust="spacing" textLength="119.2217" x="262" y="221.4984">Defines Task Rules</text></g><!--link ENGINE to HEARTBEAT--><g class="link" data-entity-1="ent0008" data-entity-2="ent0005" data-link-type="dependency" data-source-line="29" id="lnk15"><path d="M633.59,292.4 C661.99,277.37 692.91,255.21 709,224.93 C717.78,208.41 715.9577,195.664 705.5877,180.304" fill="none" id="ENGINE-to-HEARTBEAT" style="stroke:#4B5563;stroke-width:1;"/><polygon fill="#4B5563" points="702.79,176.16,704.5107,185.8574,705.5877,180.304,711.1411,181.381,702.79,176.16" style="stroke:#4B5563;stroke-width:1;stroke-linejoin:miter;stroke-miterlimit:10;"/><text fill="#000000" font-family="sans-serif" font-size="13" lengthAdjust="spacing" textLength="123.5635" x="714.54" y="221.4984">Reads/Writes Tasks</text></g><!--link HEARTBEAT to ENGINE--><g class="link" data-entity-1="ent0005" data-entity-2="ent0008" data-link-type="dependency" data-source-line="30" id="lnk16"><path d="M580.46,176.27 C574.12,186.27 568.61,196.98 565,207.93 C555.93,235.42 559.0465,263.9723 563.9265,286.6123" fill="none" id="HEARTBEAT-to-ENGINE" style="stroke:#4B5563;stroke-width:1;"/><polygon fill="#4B5563" points="564.98,291.5,566.9938,281.8592,563.9265,286.6123,559.1734,283.5449,564.98,291.5" style="stroke:#4B5563;stroke-width:1;stroke-linejoin:miter;stroke-miterlimit:10;"/><text fill="#000000" font-family="sans-serif" font-size="13" lengthAdjust="spacing" textLength="134.4561" x="566" y="221.4984">Triggers Every 30min</text></g><!--link AGENTS to CRON--><g class="link" data-entity-1="ent0004" data-entity-2="ent0009" data-link-type="dependency" data-source-line="31" id="lnk17"><path d="M47.3,176.2 C34.7,191.92 29.52,208.97 42,224.93 C82.54,276.75 277.0786,303.0858 366.5186,312.6958" fill="none" id="AGENTS-to-CRON" style="stroke:#4B5563;stroke-width:1;"/><polygon fill="#4B5563" points="371.49,313.23,362.9688,308.2914,366.5186,312.6958,362.1142,316.2456,371.49,313.23" style="stroke:#4B5563;stroke-width:1;stroke-linejoin:miter;stroke-miterlimit:10;"/><text fill="#000000" font-family="sans-serif" font-size="13" lengthAdjust="spacing" textLength="133.7578" x="43" y="221.4984">Schedules Reminders</text></g><!--link CRON to CHANNEL--><g class="link" data-entity-1="ent0009" data-entity-2="ent0010" data-link-type="dependency" data-source-line="32" id="lnk18"><path d="M403.6,345.24 C398.99,359.72 396.34,377.67 404,391.9 C411.7,406.22 420.643,414.8212 434.323,423.3212" fill="none" id="CRON-to-CHANNEL" style="stroke:#4B5563;stroke-width:1;"/><polygon fill="#4B5563" points="438.57,425.96,433.0365,417.8126,434.323,423.3212,428.8144,424.6077,438.57,425.96" style="stroke:#4B5563;stroke-width:1;stroke-linejoin:miter;stroke-miterlimit:10;"/><text fill="#000000" font-family="sans-serif" font-size="13" lengthAdjust="spacing" textLength="107.3896" x="405" y="388.4684">Triggers Delivery</text></g><!--link ENGINE to CHANNEL--><g class="link" data-entity-1="ent0008" data-entity-2="ent0010" data-link-type="dependency" data-source-line="33" id="lnk19"><path d="M555,345.31 C540.43,367.52 522.2843,395.1604 507.7143,417.3504" fill="none" id="ENGINE-to-CHANNEL" style="stroke:#4B5563;stroke-width:1;"/><polygon fill="#4B5563" points="504.97,421.53,513.2534,416.2022,507.7143,417.3504,506.5661,411.8113,504.97,421.53" style="stroke:#4B5563;stroke-width:1;stroke-linejoin:miter;stroke-miterlimit:10;"/><text fill="#000000" font-family="sans-serif" font-size="13" lengthAdjust="spacing" textLength="92.2759" x="536.03" y="388.4684">Routes to User</text></g><?plantuml-src dPJFRjD04CRlVefHA_LMIkbVSK1oKhUD59AIkFJIoyOUEwkiTwFTTTk0aE09E82u8g4-0C_K9-0Hc5qxZeCuL96Y73pVplxccvarCoxdJBC29YoPvLgLCkqgeJHOpQIX44eRc4PbfYnLzrpca35Xi1L9CMEbi34-s53mN1Pq41BwGzrIXLgh--g2xSF9qT7nGIjuHGWinuxIAUfQT7nuSdWw-O_eMRWQ4yjaBX0-1W1hYUlR0SwLjFMt_VtzqrSdJlbFzktiD6DP4dmAh9g3LJ1HrYegchiRk9B1lCA2BScaekYUnM8kc4LpAxjAPZmlDNDAwBC5wYrW1kAbXEXMf5lZuNN_HP7UoYlKHaack5t03hndedJPdhv_UUQFj9z_GIybJroACyouv8wX2dHLKPII9nNMs2u4BWCQw-lWd6p4UwLddjYXjL6lnz78eruRr72bLSPzaaqHToW7PaXTJ7of58incJf80T737BNbfgQy8IX2fG5xi1xEmRJXmeje48yzNfYxQUn9OtNf-xM1ZoCikAJvWRTCKgVTV5U1IsJQJf1PY9cPmQWKI_OEJjaTf_cvA7cAWaiqdhGYQxDUHk4exaHXx75zddSbbXju6L9zT-XHJDFdkK2BQVlZmSjTAWUwYqIWPse8sbZnSDYl71op3Ab1v3TvoBYq6pZe1ev9mk05gjBM96Tq5zAkcIRU4IgPhPfCQvqWz7d1RMMVfw9TR7PkKEqSMKzZLE2otz439gKVxaZcPBu_N6lML-xFpySV4FR0dxkLguDk5VonQ73H6qJjCqzVVqDNksKQ9rDCgUlLLdT7my5wxc-Fj7k2kg8Nz1XCcPGegagwb-5W4FMf5hTPiBlxfhu8NiDuokQqWFKZ4BZfNXSqpyC7aetGpAatQ0BlpheoafdIj55GTJ6evczTury7agncEAXZJjPC1ob7o5ApTwEvhUKcM8NNSiQQvzHRSi_LJZD78zU-t5dbAgtzCysEcS27lAQog9rjQMORS2KRqMXHAdgatQFq5m00?></g></svg>