<svg xmlns="http://www.w3.org/2000/svg" xmlns:xlink="http://www.w3.org/1999/xlink" contentStyleType="text/css" data-diagram-type="CLASS" height="715px" preserveAspectRatio="none" style="width:1300px;height:715px;" version="1.1" viewBox="0 0 1300 715" width="1300px" zoomAndPan="magnify"><?plantuml 1.2026.5?><defs><style><![CDATA[
@media (prefers-color-scheme: dark) {
  text { fill: #e5e7eb !important; }
  path, line, rect, circle, ellipse, polygon, polyline { stroke: #cbd5e1 !important; }
  .entity rect, .participant rect, .participant path, .sequenceLine rect, .class rect, .component rect, .component path, .note rect { fill: #111827 !important; }
  .cluster path { fill: none !important; }
  polygon { fill: #cbd5e1 !important; }
}
]]></style></defs><g><!--class CronService--><g class="entity" data-qualified-name="CronService" data-source-line="11" id="ent0001"><rect fill="#F8FAFC" height="229.3711" rx="2.5" ry="2.5" style="stroke:#4B5563;stroke-width:0.5;" width="348.7861" x="651.6" y="7"/><ellipse cx="781.7255" cy="23" fill="#ADD1B2" rx="11" ry="11" style="stroke:#181818;stroke-width:1;"/><path d="M784.1986,29.1431 Q783.6176,29.4419 782.9784,29.5913 Q782.3393,29.7407 781.6337,29.7407 Q779.1269,29.7407 777.807,28.0889 Q776.4872,26.437 776.4872,23.3159 Q776.4872,20.1865 777.807,18.5347 Q779.1269,16.8828 781.6337,16.8828 Q782.3393,16.8828 782.9867,17.0322 Q783.6342,17.1816 784.1986,17.4805 L784.1986,20.2031 Q783.5678,19.6221 782.9743,19.3523 Q782.3808,19.0825 781.7499,19.0825 Q780.4052,19.0825 779.7204,20.1492 Q779.0355,21.2158 779.0355,23.3159 Q779.0355,25.4077 779.7204,26.4744 Q780.4052,27.541 781.7499,27.541 Q782.3808,27.541 782.9743,27.2712 Q783.5678,27.0015 784.1986,26.4204 Z " fill="#000000"/><text fill="#111827" font-family="sans-serif" font-size="14" lengthAdjust="spacing" textLength="80.0352" x="802.2255" y="28.291">CronService</text><line style="stroke:#4B5563;stroke-width:0.5;" x1="652.6" x2="999.3861" y1="39" y2="39"/><line style="stroke:#4B5563;stroke-width:0.5;" x1="652.6" x2="999.3861" y1="47" y2="47"/><g data-visibility-modifier="PUBLIC_METHOD"><ellipse cx="662.6" cy="60.7441" fill="#84BE84" rx="3" ry="3" style="stroke:#038048;stroke-width:1;"/></g><text fill="#000000" font-family="sans-serif" font-size="14" lengthAdjust="spacing" textLength="73.3086" x="671.6" y="64.5352">start() void</text><g data-visibility-modifier="PUBLIC_METHOD"><ellipse cx="662.6" cy="77.2324" fill="#84BE84" rx="3" ry="3" style="stroke:#038048;stroke-width:1;"/></g><text fill="#000000" font-family="sans-serif" font-size="14" lengthAdjust="spacing" textLength="72.0234" x="671.6" y="81.0234">stop() void</text><g data-visibility-modifier="PUBLIC_METHOD"><ellipse cx="662.6" cy="93.7207" fill="#84BE84" rx="3" ry="3" style="stroke:#038048;stroke-width:1;"/></g><text fill="#000000" font-family="sans-serif" font-size="14" lengthAdjust="spacing" textLength="176.7773" x="671.6" y="97.5117">schedule(job: CronJob) str</text><g data-visibility-modifier="PUBLIC_METHOD"><ellipse cx="662.6" cy="110.209" fill="#84BE84" rx="3" ry="3" style="stroke:#038048;stroke-width:1;"/></g><text fill="#000000" font-family="sans-serif" font-size="14" lengthAdjust="spacing" textLength="188.248" x="671.6" y="114">unschedule(job_id: str) void</text><g data-visibility-modifier="PUBLIC_METHOD"><ellipse cx="662.6" cy="126.6973" fill="#84BE84" rx="3" ry="3" style="stroke:#038048;stroke-width:1;"/></g><text fill="#000000" font-family="sans-serif" font-size="14" lengthAdjust="spacing" textLength="244.7266" x="671.6" y="130.4883">run_job(job_id: str, force: bool) void</text><g data-visibility-modifier="PUBLIC_METHOD"><ellipse cx="662.6" cy="143.1855" fill="#84BE84" rx="3" ry="3" style="stroke:#038048;stroke-width:1;"/></g><text fill="#000000" font-family="sans-serif" font-size="14" lengthAdjust="spacing" textLength="322.7861" x="671.6" y="146.9766">list_jobs(include_disabled: bool) List&lt;CronJob&gt;</text><g data-visibility-modifier="PUBLIC_METHOD"><ellipse cx="662.6" cy="159.6738" fill="#84BE84" rx="3" ry="3" style="stroke:#038048;stroke-width:1;"/></g><text fill="#000000" font-family="sans-serif" font-size="14" lengthAdjust="spacing" textLength="172.3682" x="671.6" y="163.4648">get_status() ServiceStatus</text><g data-visibility-modifier="PRIVATE_METHOD"><rect fill="#F24D5C" height="6" style="stroke:#C82930;stroke-width:1;" width="6" x="659.6" y="173.1621"/></g><text fill="#000000" font-family="sans-serif" font-size="14" lengthAdjust="spacing" textLength="114.2354" x="671.6" y="179.9531">_load_jobs() void</text><g data-visibility-modifier="PRIVATE_METHOD"><rect fill="#F24D5C" height="6" style="stroke:#C82930;stroke-width:1;" width="6" x="659.6" y="189.6504"/></g><text fill="#000000" font-family="sans-serif" font-size="14" lengthAdjust="spacing" textLength="114.96" x="671.6" y="196.4414">_save_jobs() void</text><g data-visibility-modifier="PRIVATE_METHOD"><rect fill="#F24D5C" height="6" style="stroke:#C82930;stroke-width:1;" width="6" x="659.6" y="206.1387"/></g><text fill="#000000" font-family="sans-serif" font-size="14" lengthAdjust="spacing" textLength="132.1797" x="671.6" y="212.9297">_rearm_timer() void</text><g data-visibility-modifier="PRIVATE_METHOD"><rect fill="#F24D5C" height="6" style="stroke:#C82930;stroke-width:1;" width="6" x="659.6" y="222.627"/></g><text fill="#000000" font-family="sans-serif" font-size="14" lengthAdjust="spacing" textLength="215.9883" x="671.6" y="229.418">_execute_job(job: CronJob) void</text></g><!--class CronJob--><g class="entity" data-qualified-name="CronJob" data-source-line="25" id="ent0002"><rect fill="#F8FAFC" height="179.9063" rx="2.5" ry="2.5" style="stroke:#4B5563;stroke-width:0.5;" width="188.251" x="625.87" y="313.37"/><ellipse cx="688.5111" cy="329.37" fill="#ADD1B2" rx="11" ry="11" style="stroke:#181818;stroke-width:1;"/><path d="M690.9843,335.5131 Q690.4032,335.8119 689.764,335.9613 Q689.1249,336.1107 688.4193,336.1107 Q685.9125,336.1107 684.5927,334.4589 Q683.2728,332.807 683.2728,329.6859 Q683.2728,326.5565 684.5927,324.9047 Q685.9125,323.2528 688.4193,323.2528 Q689.1249,323.2528 689.7723,323.4022 Q690.4198,323.5516 690.9843,323.8505 L690.9843,326.5731 Q690.3534,325.9921 689.7599,325.7223 Q689.1664,325.4525 688.5355,325.4525 Q687.1908,325.4525 686.506,326.5192 Q685.8212,327.5858 685.8212,329.6859 Q685.8212,331.7777 686.506,332.8444 Q687.1908,333.911 688.5355,333.911 Q689.1664,333.911 689.7599,333.6412 Q690.3534,333.3715 690.9843,332.7904 Z " fill="#000000"/><text fill="#111827" font-family="sans-serif" font-size="14" lengthAdjust="spacing" textLength="54.4688" x="709.0111" y="334.661">CronJob</text><line style="stroke:#4B5563;stroke-width:0.5;" x1="626.87" x2="813.121" y1="345.37" y2="345.37"/><g data-visibility-modifier="PUBLIC_FIELD"><ellipse cx="636.87" cy="359.1141" fill="none" rx="3" ry="3" style="stroke:#038048;stroke-width:1;"/></g><text fill="#000000" font-family="sans-serif" font-size="14" lengthAdjust="spacing" textLength="39.8193" x="645.87" y="362.9052">id: str</text><g data-visibility-modifier="PUBLIC_FIELD"><ellipse cx="636.87" cy="375.6024" fill="none" rx="3" ry="3" style="stroke:#038048;stroke-width:1;"/></g><text fill="#000000" font-family="sans-serif" font-size="14" lengthAdjust="spacing" textLength="64.251" x="645.87" y="379.3934">name: str</text><g data-visibility-modifier="PUBLIC_FIELD"><ellipse cx="636.87" cy="392.0907" fill="none" rx="3" ry="3" style="stroke:#038048;stroke-width:1;"/></g><text fill="#000000" font-family="sans-serif" font-size="14" lengthAdjust="spacing" textLength="92.6064" x="645.87" y="395.8817">enabled: bool</text><g data-visibility-modifier="PUBLIC_FIELD"><ellipse cx="636.87" cy="408.579" fill="none" rx="3" ry="3" style="stroke:#038048;stroke-width:1;"/></g><text fill="#000000" font-family="sans-serif" font-size="14" lengthAdjust="spacing" textLength="162.251" x="645.87" y="412.37">schedule: CronSchedule</text><g data-visibility-modifier="PUBLIC_FIELD"><ellipse cx="636.87" cy="425.0673" fill="none" rx="3" ry="3" style="stroke:#038048;stroke-width:1;"/></g><text fill="#000000" font-family="sans-serif" font-size="14" lengthAdjust="spacing" textLength="135.6455" x="645.87" y="428.8583">payload: JobPayload</text><g data-visibility-modifier="PUBLIC_FIELD"><ellipse cx="636.87" cy="441.5555" fill="none" rx="3" ry="3" style="stroke:#038048;stroke-width:1;"/></g><text fill="#000000" font-family="sans-serif" font-size="14" lengthAdjust="spacing" textLength="97.3096" x="645.87" y="445.3466">state: JobState</text><g data-visibility-modifier="PUBLIC_FIELD"><ellipse cx="636.87" cy="458.0438" fill="none" rx="3" ry="3" style="stroke:#038048;stroke-width:1;"/></g><text fill="#000000" font-family="sans-serif" font-size="14" lengthAdjust="spacing" textLength="138.8379" x="645.87" y="461.8348">created_at: datetime</text><g data-visibility-modifier="PUBLIC_FIELD"><ellipse cx="636.87" cy="474.5321" fill="none" rx="3" ry="3" style="stroke:#038048;stroke-width:1;"/></g><text fill="#000000" font-family="sans-serif" font-size="14" lengthAdjust="spacing" textLength="144.4502" x="645.87" y="478.3231">updated_at: datetime</text><line style="stroke:#4B5563;stroke-width:0.5;" x1="626.87" x2="813.121" y1="485.2763" y2="485.2763"/></g><!--class CronSchedule--><g class="entity" data-qualified-name="CronSchedule" data-source-line="36" id="ent0003"><rect fill="#F8FAFC" height="130.4414" rx="2.5" ry="2.5" style="stroke:#4B5563;stroke-width:0.5;" width="245.9941" x="7" y="570.28"/><ellipse cx="79.1226" cy="586.28" fill="#ADD1B2" rx="11" ry="11" style="stroke:#181818;stroke-width:1;"/><path d="M81.5957,592.4231 Q81.0146,592.7219 80.3755,592.8713 Q79.7363,593.0207 79.0308,593.0207 Q76.5239,593.0207 75.2041,591.3689 Q73.8843,589.717 73.8843,586.5959 Q73.8843,583.4665 75.2041,581.8147 Q76.5239,580.1628 79.0308,580.1628 Q79.7363,580.1628 80.3838,580.3122 Q81.0313,580.4616 81.5957,580.7605 L81.5957,583.4831 Q80.9648,582.9021 80.3713,582.6323 Q79.7778,582.3625 79.147,582.3625 Q77.8022,582.3625 77.1174,583.4292 Q76.4326,584.4958 76.4326,586.5959 Q76.4326,588.6877 77.1174,589.7544 Q77.8022,590.821 79.147,590.821 Q79.7778,590.821 80.3713,590.5512 Q80.9648,590.2815 81.5957,589.7004 Z " fill="#000000"/><text fill="#111827" font-family="sans-serif" font-size="14" lengthAdjust="spacing" textLength="93.249" x="99.6226" y="591.571">CronSchedule</text><line style="stroke:#4B5563;stroke-width:0.5;" x1="8" x2="251.9941" y1="602.28" y2="602.28"/><g data-visibility-modifier="PUBLIC_FIELD"><ellipse cx="18" cy="616.0241" fill="none" rx="3" ry="3" style="stroke:#038048;stroke-width:1;"/></g><text fill="#000000" font-family="sans-serif" font-size="14" lengthAdjust="spacing" textLength="177.1875" x="27" y="619.8152">kind: "at" | "every" | "cron"</text><g data-visibility-modifier="PUBLIC_FIELD"><ellipse cx="18" cy="632.5124" fill="none" rx="3" ry="3" style="stroke:#038048;stroke-width:1;"/></g><text fill="#000000" font-family="sans-serif" font-size="14" lengthAdjust="spacing" textLength="161.8545" x="27" y="636.3034">at: Optional&lt;datetime&gt;</text><g data-visibility-modifier="PUBLIC_FIELD"><ellipse cx="18" cy="649.0007" fill="none" rx="3" ry="3" style="stroke:#038048;stroke-width:1;"/></g><text fill="#000000" font-family="sans-serif" font-size="14" lengthAdjust="spacing" textLength="219.9941" x="27" y="652.7917">interval_seconds: Optional&lt;int&gt;</text><g data-visibility-modifier="PUBLIC_FIELD"><ellipse cx="18" cy="665.489" fill="none" rx="3" ry="3" style="stroke:#038048;stroke-width:1;"/></g><text fill="#000000" font-family="sans-serif" font-size="14" lengthAdjust="spacing" textLength="218.7773" x="27" y="669.28">cron_expression: Optional&lt;str&gt;</text><g data-visibility-modifier="PUBLIC_FIELD"><ellipse cx="18" cy="681.9773" fill="none" rx="3" ry="3" style="stroke:#038048;stroke-width:1;"/></g><text fill="#000000" font-family="sans-serif" font-size="14" lengthAdjust="spacing" textLength="170.5225" x="27" y="685.7683">timezone: Optional&lt;str&gt;</text><line style="stroke:#4B5563;stroke-width:0.5;" x1="8" x2="251.9941" y1="692.7214" y2="692.7214"/></g><!--class JobPayload--><g class="entity" data-qualified-name="JobPayload" data-source-line="44" id="ent0004"><rect fill="#F8FAFC" height="113.9531" rx="2.5" ry="2.5" style="stroke:#4B5563;stroke-width:0.5;" width="348.54" x="545.73" y="578.52"/><ellipse cx="678.8804" cy="594.52" fill="#ADD1B2" rx="11" ry="11" style="stroke:#181818;stroke-width:1;"/><path d="M681.3535,600.6631 Q680.7725,600.9619 680.1333,601.1113 Q679.4942,601.2607 678.7886,601.2607 Q676.2818,601.2607 674.9619,599.6089 Q673.6421,597.957 673.6421,594.8359 Q673.6421,591.7065 674.9619,590.0547 Q676.2818,588.4028 678.7886,588.4028 Q679.4942,588.4028 680.1416,588.5522 Q680.7891,588.7016 681.3535,589.0005 L681.3535,591.7231 Q680.7227,591.1421 680.1292,590.8723 Q679.5357,590.6025 678.9048,590.6025 Q677.5601,590.6025 676.8753,591.6692 Q676.1904,592.7358 676.1904,594.8359 Q676.1904,596.9277 676.8753,597.9944 Q677.5601,599.061 678.9048,599.061 Q679.5357,599.061 680.1292,598.7912 Q680.7227,598.5215 681.3535,597.9404 Z " fill="#000000"/><text fill="#111827" font-family="sans-serif" font-size="14" lengthAdjust="spacing" textLength="73.7393" x="699.3804" y="599.811">JobPayload</text><line style="stroke:#4B5563;stroke-width:0.5;" x1="546.73" x2="893.27" y1="610.52" y2="610.52"/><g data-visibility-modifier="PUBLIC_FIELD"><ellipse cx="556.73" cy="624.2641" fill="none" rx="3" ry="3" style="stroke:#038048;stroke-width:1;"/></g><text fill="#000000" font-family="sans-serif" font-size="14" lengthAdjust="spacing" textLength="322.54" x="565.73" y="628.0552">kind: "agent_turn" | "message" | "system_event"</text><g data-visibility-modifier="PUBLIC_FIELD"><ellipse cx="556.73" cy="640.7524" fill="none" rx="3" ry="3" style="stroke:#038048;stroke-width:1;"/></g><text fill="#000000" font-family="sans-serif" font-size="14" lengthAdjust="spacing" textLength="166.6602" x="565.73" y="644.5434">message: Optional&lt;str&gt;</text><g data-visibility-modifier="PUBLIC_FIELD"><ellipse cx="556.73" cy="657.2407" fill="none" rx="3" ry="3" style="stroke:#038048;stroke-width:1;"/></g><text fill="#000000" font-family="sans-serif" font-size="14" lengthAdjust="spacing" textLength="160.0703" x="565.73" y="661.0317">channel: Optional&lt;str&gt;</text><g data-visibility-modifier="PUBLIC_FIELD"><ellipse cx="556.73" cy="673.729" fill="none" rx="3" ry="3" style="stroke:#038048;stroke-width:1;"/></g><text fill="#000000" font-family="sans-serif" font-size="14" lengthAdjust="spacing" textLength="166.585" x="565.73" y="677.52">recipient: Optional&lt;str&gt;</text><line style="stroke:#4B5563;stroke-width:0.5;" x1="546.73" x2="893.27" y1="684.4731" y2="684.4731"/></g><!--class JobState--><g class="entity" data-qualified-name="JobState" data-source-line="51" id="ent0005"><rect fill="#F8FAFC" height="113.9531" rx="2.5" ry="2.5" style="stroke:#4B5563;stroke-width:0.5;" width="275.0059" x="929.49" y="578.52"/><ellipse cx="1035.0881" cy="594.52" fill="#ADD1B2" rx="11" ry="11" style="stroke:#181818;stroke-width:1;"/><path d="M1037.5613,600.6631 Q1036.9802,600.9619 1036.3411,601.1113 Q1035.7019,601.2607 1034.9963,601.2607 Q1032.4895,601.2607 1031.1697,599.6089 Q1029.8499,597.957 1029.8499,594.8359 Q1029.8499,591.7065 1031.1697,590.0547 Q1032.4895,588.4028 1034.9963,588.4028 Q1035.7019,588.4028 1036.3494,588.5522 Q1036.9968,588.7016 1037.5613,589.0005 L1037.5613,591.7231 Q1036.9304,591.1421 1036.3369,590.8723 Q1035.7434,590.6025 1035.1126,590.6025 Q1033.7678,590.6025 1033.083,591.6692 Q1032.3982,592.7358 1032.3982,594.8359 Q1032.3982,596.9277 1033.083,597.9944 Q1033.7678,599.061 1035.1126,599.061 Q1035.7434,599.061 1036.3369,598.7912 Q1036.9304,598.5215 1037.5613,597.9404 Z " fill="#000000"/><text fill="#111827" font-family="sans-serif" font-size="14" lengthAdjust="spacing" textLength="55.3096" x="1055.5881" y="599.811">JobState</text><line style="stroke:#4B5563;stroke-width:0.5;" x1="930.49" x2="1203.4959" y1="610.52" y2="610.52"/><g data-visibility-modifier="PUBLIC_FIELD"><ellipse cx="940.49" cy="624.2641" fill="none" rx="3" ry="3" style="stroke:#038048;stroke-width:1;"/></g><text fill="#000000" font-family="sans-serif" font-size="14" lengthAdjust="spacing" textLength="209.3027" x="949.49" y="628.0552">next_run: Optional&lt;datetime&gt;</text><g data-visibility-modifier="PUBLIC_FIELD"><ellipse cx="940.49" cy="640.7524" fill="none" rx="3" ry="3" style="stroke:#038048;stroke-width:1;"/></g><text fill="#000000" font-family="sans-serif" font-size="14" lengthAdjust="spacing" textLength="203.1436" x="949.49" y="644.5434">last_run: Optional&lt;datetime&gt;</text><g data-visibility-modifier="PUBLIC_FIELD"><ellipse cx="940.49" cy="657.2407" fill="none" rx="3" ry="3" style="stroke:#038048;stroke-width:1;"/></g><text fill="#000000" font-family="sans-serif" font-size="14" lengthAdjust="spacing" textLength="249.0059" x="949.49" y="661.0317">status: "success" | "error" | "skipped"</text><g data-visibility-modifier="PUBLIC_FIELD"><ellipse cx="940.49" cy="673.729" fill="none" rx="3" ry="3" style="stroke:#038048;stroke-width:1;"/></g><text fill="#000000" font-family="sans-serif" font-size="14" lengthAdjust="spacing" textLength="207.2451" x="949.49" y="677.52">error_message: Optional&lt;str&gt;</text><line style="stroke:#4B5563;stroke-width:0.5;" x1="930.49" x2="1203.4959" y1="684.4731" y2="684.4731"/></g><!--class JobStore--><g class="entity" data-qualified-name="JobStore" data-source-line="58" id="ent0006"><rect fill="#F8FAFC" height="80.9766" rx="2.5" ry="2.5" style="stroke:#4B5563;stroke-width:0.5;" width="164.2773" x="848.86" y="362.84"/><ellipse cx="898.4137" cy="378.84" fill="#ADD1B2" rx="11" ry="11" style="stroke:#181818;stroke-width:1;"/><path d="M900.8869,384.9831 Q900.3058,385.2819 899.6666,385.4313 Q899.0275,385.5807 898.3219,385.5807 Q895.8151,385.5807 894.4953,383.9289 Q893.1754,382.277 893.1754,379.1559 Q893.1754,376.0265 894.4953,374.3747 Q895.8151,372.7228 898.3219,372.7228 Q899.0275,372.7228 899.6749,372.8722 Q900.3224,373.0216 900.8869,373.3205 L900.8869,376.0431 Q900.256,375.4621 899.6625,375.1923 Q899.069,374.9225 898.4381,374.9225 Q897.0934,374.9225 896.4086,375.9892 Q895.7238,377.0558 895.7238,379.1559 Q895.7238,381.2477 896.4086,382.3144 Q897.0934,383.381 898.4381,383.381 Q899.069,383.381 899.6625,383.1112 Q900.256,382.8415 900.8869,382.2604 Z " fill="#000000"/><text fill="#111827" font-family="sans-serif" font-size="14" lengthAdjust="spacing" textLength="56.6699" x="918.9137" y="384.131">JobStore</text><line style="stroke:#4B5563;stroke-width:0.5;" x1="849.86" x2="1012.1373" y1="394.84" y2="394.84"/><g data-visibility-modifier="PUBLIC_FIELD"><ellipse cx="859.86" cy="408.5841" fill="none" rx="3" ry="3" style="stroke:#038048;stroke-width:1;"/></g><text fill="#000000" font-family="sans-serif" font-size="14" lengthAdjust="spacing" textLength="76.207" x="868.86" y="412.3752">version: str</text><g data-visibility-modifier="PUBLIC_FIELD"><ellipse cx="859.86" cy="425.0724" fill="none" rx="3" ry="3" style="stroke:#038048;stroke-width:1;"/></g><text fill="#000000" font-family="sans-serif" font-size="14" lengthAdjust="spacing" textLength="138.2773" x="868.86" y="428.8634">jobs: List&lt;CronJob&gt;</text><line style="stroke:#4B5563;stroke-width:0.5;" x1="849.86" x2="1012.1373" y1="435.8166" y2="435.8166"/></g><g class="entity" data-qualified-name="GMN12" data-source-line="70" id="ent0013"><path d="M1034.94,93.72 L1034.94,117.69 L1000.83,121.69 L1034.94,125.69 L1034.94,149.6516 A0,0 0 0 0 1034.94,149.6516 L1285.046,149.6516 A0,0 0 0 0 1285.046,149.6516 L1285.046,103.72 L1275.046,93.72 L1034.94,93.72 A0,0 0 0 0 1034.94,93.72" fill="#FEFFDD" style="stroke:#181818;stroke-width:0.5;"/><path d="M1275.046,93.72 L1275.046,103.72 L1285.046,103.72 L1275.046,93.72" fill="#FEFFDD" style="stroke:#181818;stroke-width:0.5;"/><text fill="#000000" font-family="sans-serif" font-size="13" lengthAdjust="spacing" textLength="229.106" x="1040.94" y="111.2884">Event-driven timer-based execution</text><text fill="#000000" font-family="sans-serif" font-size="13" lengthAdjust="spacing" textLength="195.1587" x="1040.94" y="126.5989">Auto-saves after modifications</text><text fill="#000000" font-family="sans-serif" font-size="13" lengthAdjust="spacing" textLength="146.999" x="1040.94" y="141.9095">Graceful error handling</text></g><g class="entity" data-qualified-name="GMN15" data-source-line="75" id="ent0016"><path d="M287.61,599.88 L287.61,631.5 L253.46,635.5 L287.61,639.5 L287.61,671.1222 A0,0 0 0 0 287.61,671.1222 L510.3893,671.1222 A0,0 0 0 0 510.3893,671.1222 L510.3893,609.88 L500.3893,599.88 L287.61,599.88 A0,0 0 0 0 287.61,599.88" fill="#FEFFDD" style="stroke:#181818;stroke-width:0.5;"/><path d="M500.3893,599.88 L500.3893,609.88 L510.3893,609.88 L500.3893,599.88" fill="#FEFFDD" style="stroke:#181818;stroke-width:0.5;"/><text fill="#000000" font-family="sans-serif" font-size="13" lengthAdjust="spacing" textLength="201.7793" x="293.61" y="617.4484">Supports 3 scheduling patterns:</text><text fill="#000000" font-family="sans-serif" font-size="13" lengthAdjust="spacing" textLength="97.1763" x="293.61" y="632.7589">- One-time (at)</text><text fill="#000000" font-family="sans-serif" font-size="13" lengthAdjust="spacing" textLength="104.4316" x="293.61" y="648.0695">- Interval (every)</text><text fill="#000000" font-family="sans-serif" font-size="13" lengthAdjust="spacing" textLength="115.1401" x="293.61" y="663.38">- Cron expression</text></g><!--link CronService to CronJob--><g class="link" data-entity-1="ent0001" data-entity-2="ent0002" data-link-type="dependency" data-source-line="63" id="lnk7"><path codeLine="63" d="M782.73,236.83 C773.11,262.2 764.8211,284.0642 755.6511,308.2742" fill="none" id="CronService-to-CronJob" style="stroke:#4B5563;stroke-width:1;"/><polygon fill="#4B5563" points="753.88,312.95,760.8086,305.9504,755.6511,308.2742,753.3272,303.1167,753.88,312.95" style="stroke:#4B5563;stroke-width:1;stroke-linejoin:miter;stroke-miterlimit:10;"/><text fill="#000000" font-family="sans-serif" font-size="13" lengthAdjust="spacing" textLength="56.5386" x="770.82" y="279.9384">manages</text><text fill="#000000" font-family="sans-serif" font-size="13" lengthAdjust="spacing" textLength="8.2202" x="771.8566" y="256.8815">1</text><text fill="#000000" font-family="sans-serif" font-size="13" lengthAdjust="spacing" textLength="6.2651" x="750.3517" y="302.7315">*</text></g><!--reverse link CronJob to CronSchedule--><g class="link" data-entity-1="ent0002" data-entity-2="ent0003" data-link-type="composition" data-source-line="64" id="lnk8"><path codeLine="64" d="M614.3424,440.7005 C522.7324,472.7305 391.4,520.13 270,570.28 C264.56,572.52 259.02,574.86 253.44,577.25" fill="none" id="CronJob-backto-CronSchedule" style="stroke:#4B5563;stroke-width:1;"/><polygon fill="#4B5563" points="625.67,436.74,618.686,434.9444,614.3424,440.7005,621.3264,442.4961,625.67,436.74" style="stroke:#4B5563;stroke-width:1;stroke-linejoin:miter;stroke-miterlimit:10;"/><text fill="#000000" font-family="sans-serif" font-size="13" lengthAdjust="spacing" textLength="21.874" x="381.03" y="536.8484">has</text><text fill="#000000" font-family="sans-serif" font-size="13" lengthAdjust="spacing" textLength="8.2202" x="609.5365" y="436.4675">1</text><text fill="#000000" font-family="sans-serif" font-size="13" lengthAdjust="spacing" textLength="8.2202" x="260.8142" y="571.0261">1</text></g><!--reverse link CronJob to JobPayload--><g class="link" data-entity-1="ent0002" data-entity-2="ent0004" data-link-type="composition" data-source-line="65" id="lnk9"><path codeLine="65" d="M720,505.65 C720,534.08 720,552.72 720,578.14" fill="none" id="CronJob-backto-JobPayload" style="stroke:#4B5563;stroke-width:1;"/><polygon fill="#4B5563" points="720,493.65,716,499.65,720,505.65,724,499.65,720,493.65" style="stroke:#4B5563;stroke-width:1;stroke-linejoin:miter;stroke-miterlimit:10;"/><text fill="#000000" font-family="sans-serif" font-size="13" lengthAdjust="spacing" textLength="21.874" x="721" y="536.8484">has</text><text fill="#000000" font-family="sans-serif" font-size="13" lengthAdjust="spacing" textLength="8.2202" x="711.7025" y="513.7201">1</text><text fill="#000000" font-family="sans-serif" font-size="13" lengthAdjust="spacing" textLength="8.2202" x="711.5259" y="567.8229">1</text></g><!--reverse link CronJob to JobState--><g class="link" data-entity-1="ent0002" data-entity-2="ent0005" data-link-type="composition" data-source-line="66" id="lnk10"><path codeLine="66" d="M824.068,488.5019 C829.628,492.6019 825.52,489.47 831,493.28 C874.03,523.19 923.54,553.41 966.06,578.17" fill="none" id="CronJob-backto-JobState" style="stroke:#4B5563;stroke-width:1;"/><polygon fill="#4B5563" points="814.41,481.38,816.865,488.1603,824.068,488.5019,821.613,481.7216,814.41,481.38" style="stroke:#4B5563;stroke-width:1;stroke-linejoin:miter;stroke-miterlimit:10;"/><text fill="#000000" font-family="sans-serif" font-size="13" lengthAdjust="spacing" textLength="38.2446" x="901.54" y="536.8484">tracks</text><text fill="#000000" font-family="sans-serif" font-size="13" lengthAdjust="spacing" textLength="8.2202" x="822.2612" y="484.5832">1</text><text fill="#000000" font-family="sans-serif" font-size="13" lengthAdjust="spacing" textLength="8.2202" x="945.2847" y="567.8565">1</text></g><!--link CronService to JobStore--><g class="link" data-entity-1="ent0001" data-entity-2="ent0006" data-link-type="dependency" data-source-line="67" id="lnk11"><path codeLine="67" d="M868.86,236.83 C885.58,281.38 901.9128,324.8489 914.2328,357.6689" fill="none" id="CronService-to-JobStore" style="stroke:#4B5563;stroke-width:1;stroke-dasharray:7,7;"/><polygon fill="#4B5563" points="915.99,362.35,916.5719,352.5183,914.2328,357.6689,909.0822,355.3298,915.99,362.35" style="stroke:#4B5563;stroke-width:1;stroke-linejoin:miter;stroke-miterlimit:10;"/><text fill="#000000" font-family="sans-serif" font-size="13" lengthAdjust="spacing" textLength="101.0674" x="885.78" y="279.9384">persists to JSON</text></g><?plantuml-src ZLNRRjim37tFLn3kIzhD1RAkMs4K0RfY6rOCwu1yWA58TAB5bWn9Jjjj_VTHiXFBkNJDIsIU8ug752cxagfcXbKmPtorCBfHubQNse0pJ5c2KBcHtRBiaWdz8DK22bPQZ11UCclXpmZWapO2JUlbvFtyylB3XRVk-3yfhWfMS4A-QEKwssGokNhtaMmtnkY7eOldaTCrE0rpxPokG4Y3t4cjHiI7xlnRezKCpLfo3B6qlpVMCUF6fx3MKiHMNUyR-H95K-BubvvdmT-Tdf-2TQRdD2fcvL9a7j_rP1gL4nnJtaAX3SUCDEXobrzAw_m6EvQAbut0N4ZBvYMA3VyxCQwxaARznWMwd1IwnfAQJlqiV6yvQLvg9bhlE-UckMLhF08PPARAdQpGx8FuYBnnk14PPMjBVDuj3i5nORgyz0R5AjmneOgIi5-ezjXPzzNZDNlocZEW8t-swy65S1WWdwXe5oV53aNEN0Q2LbvwLFXQ74RtT6xYYSLIhr0u2NC9_8K4rsYUmeeJF-bftlbzxMysAwytfqJbbifHZLcPM-HQ2Hkn2Ph6MhIY8jK6hIKyub5-8vxt_rihF4GO2EipUKZMWaP5xXgZWgYA3YLJMDidwx3AIR5oaT2ESZGklcHAONaKf_wNjIIVhmayr3aEM-6Zowb7NqusRNy5g-q-Ie9jE2TLRO5fXfbM_qhMDOf8Ui3o5nAm7xusW_3fzhH57VIAx-Bim9petCNZCPaaaAPJICwIRMTcK3554TajsrizyonDm__WRcUmPCUfqMtvBx6jJkPV7RwoUx6Udq_x96HGU-tMMVyQtCtkVxJYb2ONHYwM3dGHR-_IyzbVlrGOIVyGHbewPnO5j7FCloGjyQPnElL3qG8hgDUWqa8MaZFFsSpKhnGf5aq9ePIaJucItiM0eX8XccDX3MVLhAbhRKZD1NGppR-lDNDqjB9PnqhXNc7gmuOnSwTRwxTk6i0u39GUy2T1t_s3mFu1?></g></svg>