<svg xmlns="http://www.w3.org/2000/svg" xmlns:xlink="http://www.w3.org/1999/xlink" contentStyleType="text/css" data-diagram-type="DESCRIPTION" height="858px" preserveAspectRatio="none" style="width:1032px;height:858px;" version="1.1" viewBox="0 0 1032 858" width="1032px" zoomAndPan="magnify"><?plantuml 1.2026.5?><defs><style><![CDATA[
@media (prefers-color-scheme: dark) {
  text { fill: #e5e7eb !important; }
  path, line, rect, circle, ellipse, polygon, polyline { stroke: #cbd5e1 !important; }
  .entity rect, .participant rect, .participant path, .sequenceLine rect, .class rect, .component rect, .component path, .note rect { fill: #111827 !important; }
  .cluster path { fill: none !important; }
  polygon { fill: #cbd5e1 !important; }
}
]]></style></defs><g><!--cluster External--><g class="cluster" data-qualified-name="External" data-source-line="13" id="ent0001"><path d="M408.5,731.88 L532.458,731.88 A3.75,3.75 0 0 1 534.958,734.38 L541.958,754.3683 L1014.5,754.3683 A2.5,2.5 0 0 1 1017,756.8683 L1017,833.36 A2.5,2.5 0 0 1 1014.5,835.86 L408.5,835.86 A2.5,2.5 0 0 1 406,833.36 L406,734.38 A2.5,2.5 0 0 1 408.5,731.88" fill="none" style="stroke:#64748B;stroke-width:1.5;"/><line style="stroke:#64748B;stroke-width:1.5;" x1="406" x2="541.958" y1="754.3683" y2="754.3683"/><text fill="#000000" font-family="sans-serif" font-size="14" font-weight="700" lengthAdjust="spacing" textLength="122.958" x="410" y="747.4152">External Systems</text></g><!--cluster Nanobot--><g class="cluster" data-qualified-name="Nanobot" data-source-line="18" id="ent0005"><path d="M317.5,6 L435.6611,6 A3.75,3.75 0 0 1 438.1611,8.5 L445.1611,28.4883 L456.5,28.4883 A2.5,2.5 0 0 1 459,30.9883 L459,90.99 A2.5,2.5 0 0 1 456.5,93.49 L317.5,93.49 A2.5,2.5 0 0 1 315,90.99 L315,8.5 A2.5,2.5 0 0 1 317.5,6" fill="none" style="stroke:#64748B;stroke-width:1.5;"/><line style="stroke:#64748B;stroke-width:1.5;" x1="315" x2="445.1611" y1="28.4883" y2="28.4883"/><text fill="#000000" font-family="sans-serif" font-size="14" font-weight="700" lengthAdjust="spacing" textLength="117.1611" x="319" y="21.5352">Nanobot System</text></g><!--cluster TmuxSkill--><g class="cluster" data-qualified-name="TmuxSkill" data-source-line="21" id="ent0007"><path d="M8.5,142.49 L159.8496,142.49 A3.75,3.75 0 0 1 162.3496,144.99 L169.3496,164.9783 L955.5,164.9783 A2.5,2.5 0 0 1 958,167.4783 L958,513.41 A2.5,2.5 0 0 1 955.5,515.91 L8.5,515.91 A2.5,2.5 0 0 1 6,513.41 L6,144.99 A2.5,2.5 0 0 1 8.5,142.49" fill="none" style="stroke:#64748B;stroke-width:1.5;"/><line style="stroke:#64748B;stroke-width:1.5;" x1="6" x2="169.3496" y1="164.9783" y2="164.9783"/><text fill="#000000" font-family="sans-serif" font-size="14" font-weight="700" lengthAdjust="spacing" textLength="150.3496" x="10" y="158.0252">nanobot/skills/tmux</text></g><!--cluster Config--><g class="cluster" data-qualified-name="TmuxSkill.Config" data-source-line="22" id="ent0008"><path d="M32.5,185.49 L177.0684,185.49 A3.75,3.75 0 0 1 179.5684,187.99 L186.5684,207.9783 L479.5,207.9783 A2.5,2.5 0 0 1 482,210.4783 L482,303.45 A2.5,2.5 0 0 1 479.5,305.95 L32.5,305.95 A2.5,2.5 0 0 1 30,303.45 L30,187.99 A2.5,2.5 0 0 1 32.5,185.49" fill="none" style="stroke:#64748B;stroke-width:1.5;"/><line style="stroke:#64748B;stroke-width:1.5;" x1="30" x2="186.5684" y1="207.9783" y2="207.9783"/><text fill="#000000" font-family="sans-serif" font-size="14" font-weight="700" lengthAdjust="spacing" textLength="143.5684" x="34" y="201.0252">Configuration Layer</text></g><!--cluster Core--><g class="cluster" data-qualified-name="TmuxSkill.Core" data-source-line="26" id="ent0011"><path d="M32.5,354.95 L156.5879,354.95 A3.75,3.75 0 0 1 159.0879,357.45 L166.0879,377.4383 L871.5,377.4383 A2.5,2.5 0 0 1 874,379.9383 L874,489.41 A2.5,2.5 0 0 1 871.5,491.91 L32.5,491.91 A2.5,2.5 0 0 1 30,489.41 L30,357.45 A2.5,2.5 0 0 1 32.5,354.95" fill="none" style="stroke:#64748B;stroke-width:1.5;"/><line style="stroke:#64748B;stroke-width:1.5;" x1="30" x2="166.0879" y1="377.4383" y2="377.4383"/><text fill="#000000" font-family="sans-serif" font-size="14" font-weight="700" lengthAdjust="spacing" textLength="123.0879" x="34" y="370.4852">Core Capabilities</text></g><!--cluster Orchestration--><g class="cluster" data-qualified-name="TmuxSkill.Orchestration" data-source-line="32" id="ent0016"><path d="M508.5,185.49 L652.501,185.49 A3.75,3.75 0 0 1 655.001,187.99 L662.001,207.9783 L931.5,207.9783 A2.5,2.5 0 0 1 934,210.4783 L934,303.45 A2.5,2.5 0 0 1 931.5,305.95 L508.5,305.95 A2.5,2.5 0 0 1 506,303.45 L506,187.99 A2.5,2.5 0 0 1 508.5,185.49" fill="none" style="stroke:#64748B;stroke-width:1.5;"/><line style="stroke:#64748B;stroke-width:1.5;" x1="506" x2="662.001" y1="207.9783" y2="207.9783"/><text fill="#000000" font-family="sans-serif" font-size="14" font-weight="700" lengthAdjust="spacing" textLength="143.001" x="510" y="201.0252">Orchestration Layer</text></g><!--cluster TmuxServer--><g class="cluster" data-qualified-name="TmuxServer" data-source-line="37" id="ent0019"><path d="M106.5,572.91 L212.5615,572.91 A3.75,3.75 0 0 1 215.0615,575.41 L222.0615,595.3983 L371.5,595.3983 A2.5,2.5 0 0 1 374,597.8983 L374,841.36 A2.5,2.5 0 0 1 371.5,843.86 L106.5,843.86 A2.5,2.5 0 0 1 104,841.36 L104,575.41 A2.5,2.5 0 0 1 106.5,572.91" fill="none" style="stroke:#64748B;stroke-width:1.5;"/><line style="stroke:#64748B;stroke-width:1.5;" x1="104" x2="222.0615" y1="595.3983" y2="595.3983"/><text fill="#000000" font-family="sans-serif" font-size="14" font-weight="700" lengthAdjust="spacing" textLength="105.0615" x="108" y="588.4452">tmux Server(s)</text></g><!--entity AGENT_CLIS--><g class="entity" data-qualified-name="External.AGENT_CLIS" data-source-line="14" id="ent0002"><rect fill="#F8FAFC" height="52.9766" rx="2.5" ry="2.5" style="stroke:#4B5563;stroke-width:0.5;" width="167.54" x="599.23" y="766.88"/><text fill="#111827" font-family="sans-serif" font-size="14" lengthAdjust="spacing" textLength="100.2422" x="632.8789" y="790.4152">Coding Agents</text><text fill="#111827" font-family="sans-serif" font-size="14" lengthAdjust="spacing" textLength="147.54" x="609.23" y="806.9034">(Claude Code, Codex)</text></g><!--entity SHELL--><g class="entity" data-qualified-name="External.SHELL" data-source-line="15" id="ent0003"><rect fill="#F8FAFC" height="52.9766" rx="2.5" ry="2.5" style="stroke:#4B5563;stroke-width:0.5;" width="141.9326" x="422.03" y="766.88"/><text fill="#111827" font-family="sans-serif" font-size="14" lengthAdjust="spacing" textLength="121.9326" x="432.03" y="790.4152">Shell Environment</text><text fill="#111827" font-family="sans-serif" font-size="14" lengthAdjust="spacing" textLength="105.0273" x="440.4826" y="806.9034">(bash/zsh/fish)</text></g><!--entity FS--><g class="entity" data-qualified-name="External.FS" data-source-line="16" id="ent0004"><rect fill="#F8FAFC" height="52.9766" rx="2.5" ry="2.5" style="stroke:#4B5563;stroke-width:0.5;" width="199.2041" x="801.4" y="766.88"/><text fill="#111827" font-family="sans-serif" font-size="14" lengthAdjust="spacing" textLength="75.9268" x="863.0387" y="790.4152">File System</text><text fill="#111827" font-family="sans-serif" font-size="14" lengthAdjust="spacing" textLength="179.2041" x="811.4" y="806.9034">(Git Worktrees, Socket Dir)</text></g><!--entity SKILL_INTF--><g class="entity" data-qualified-name="Nanobot.SKILL_INTF" data-source-line="19" id="ent0006"><rect fill="#F8FAFC" height="36.4883" rx="2.5" ry="2.5" style="stroke:#4B5563;stroke-width:0.5;" width="111.6289" x="331.19" y="41"/><text fill="#111827" font-family="sans-serif" font-size="14" lengthAdjust="spacing" textLength="91.6289" x="341.19" y="64.5352">Skill Interface</text></g><!--entity ENV--><g class="entity" data-qualified-name="TmuxSkill.Config.ENV" data-source-line="23" id="ent0009"><rect fill="#F8FAFC" height="69.4648" rx="2.5" ry="2.5" style="stroke:#4B5563;stroke-width:0.5;" width="226.4316" x="45.78" y="220.49"/><text fill="#111827" font-family="sans-serif" font-size="14" lengthAdjust="spacing" textLength="151.9971" x="82.9973" y="244.0252">Environment Variables</text><text fill="#111827" font-family="sans-serif" font-size="14" lengthAdjust="spacing" textLength="206.4316" x="55.78" y="260.5134">NANOBOT_TMUX_SOCKET_DIR</text><text fill="#111827" font-family="sans-serif" font-size="14" lengthAdjust="spacing" textLength="141.4355" x="88.278" y="277.0017">PYTHON_BASIC_REPL</text></g><!--entity SKILL_MD--><g class="entity" data-qualified-name="TmuxSkill.Config.SKILL_MD" data-source-line="24" id="ent0010"><rect fill="#F8FAFC" height="52.9766" rx="2.5" ry="2.5" style="stroke:#4B5563;stroke-width:0.5;" width="158.6807" x="307.66" y="228.73"/><text fill="#111827" font-family="sans-serif" font-size="14" lengthAdjust="spacing" textLength="61.9541" x="356.0233" y="252.2652">SKILL.md</text><text fill="#111827" font-family="sans-serif" font-size="14" lengthAdjust="spacing" textLength="138.6807" x="317.66" y="268.7534">Capability Definition</text></g><!--entity SESSION_MGR--><g class="entity" data-qualified-name="TmuxSkill.Core.SESSION_MGR" data-source-line="27" id="ent0012"><rect fill="#F8FAFC" height="85.9531" rx="2.5" ry="2.5" style="stroke:#4B5563;stroke-width:0.5;" width="184.2334" x="487.88" y="389.95"/><text fill="#111827" font-family="sans-serif" font-size="14" lengthAdjust="spacing" textLength="113.8457" x="523.0738" y="413.4852">Session Manager</text><text fill="#111827" font-family="sans-serif" font-size="14" lengthAdjust="spacing" textLength="147.3965" x="506.2985" y="429.9734">&#8226; Create/Kill Sessions</text><text fill="#111827" font-family="sans-serif" font-size="14" lengthAdjust="spacing" textLength="164.2334" x="497.88" y="446.4617">&#8226; List/Discover Sessions</text><text fill="#111827" font-family="sans-serif" font-size="14" lengthAdjust="spacing" textLength="119.3555" x="520.319" y="462.95">&#8226; Socket Isolation</text></g><!--entity INPUT_CTRL--><g class="entity" data-qualified-name="TmuxSkill.Core.INPUT_CTRL" data-source-line="28" id="ent0013"><rect fill="#F8FAFC" height="85.9531" rx="2.5" ry="2.5" style="stroke:#4B5563;stroke-width:0.5;" width="195.8203" x="257.09" y="389.95"/><text fill="#111827" font-family="sans-serif" font-size="14" lengthAdjust="spacing" textLength="108.0488" x="300.9757" y="413.4852">Input Controller</text><text fill="#111827" font-family="sans-serif" font-size="14" lengthAdjust="spacing" textLength="175.8203" x="267.09" y="429.9734">&#8226; Send Keys (literal mode)</text><text fill="#111827" font-family="sans-serif" font-size="14" lengthAdjust="spacing" textLength="138.7285" x="285.6359" y="446.4617">&#8226; Control Sequences</text><text fill="#111827" font-family="sans-serif" font-size="14" lengthAdjust="spacing" textLength="145.8447" x="282.0778" y="462.95">&#8226; Safe Input Handling</text></g><!--entity OUTPUT_MON--><g class="entity" data-qualified-name="TmuxSkill.Core.OUTPUT_MON" data-source-line="29" id="ent0014"><rect fill="#F8FAFC" height="85.9531" rx="2.5" ry="2.5" style="stroke:#4B5563;stroke-width:0.5;" width="150.9561" x="707.52" y="389.95"/><text fill="#111827" font-family="sans-serif" font-size="14" lengthAdjust="spacing" textLength="104.9248" x="730.5356" y="413.4852">Output Monitor</text><text fill="#111827" font-family="sans-serif" font-size="14" lengthAdjust="spacing" textLength="107.1123" x="729.4419" y="429.9734">&#8226; Pane Scraping</text><text fill="#111827" font-family="sans-serif" font-size="14" lengthAdjust="spacing" textLength="115.3223" x="725.3369" y="446.4617">&#8226; Pattern Waiting</text><text fill="#111827" font-family="sans-serif" font-size="14" lengthAdjust="spacing" textLength="130.9561" x="717.52" y="462.95">&#8226; Prompt Detection</text></g><!--entity TARGET--><g class="entity" data-qualified-name="TmuxSkill.Core.TARGET" data-source-line="30" id="ent0015"><rect fill="#F8FAFC" height="69.4648" rx="2.5" ry="2.5" style="stroke:#4B5563;stroke-width:0.5;" width="176.4336" x="45.78" y="398.2"/><text fill="#111827" font-family="sans-serif" font-size="14" lengthAdjust="spacing" textLength="115.5137" x="76.24" y="421.7352">Targeting Engine</text><text fill="#111827" font-family="sans-serif" font-size="14" lengthAdjust="spacing" textLength="156.4336" x="55.78" y="438.2234">&#8226; session:window.pane</text><text fill="#111827" font-family="sans-serif" font-size="14" lengthAdjust="spacing" textLength="145.332" x="61.3308" y="454.7117">&#8226; Multi-pane Support</text></g><!--entity PARALLEL--><g class="entity" data-qualified-name="TmuxSkill.Orchestration.PARALLEL" data-source-line="33" id="ent0017"><rect fill="#F8FAFC" height="69.4648" rx="2.5" ry="2.5" style="stroke:#4B5563;stroke-width:0.5;" width="215.3779" x="702.31" y="220.49"/><text fill="#111827" font-family="sans-serif" font-size="14" lengthAdjust="spacing" textLength="146.2891" x="736.8544" y="244.0252">Parallel Agent Runner</text><text fill="#111827" font-family="sans-serif" font-size="14" lengthAdjust="spacing" textLength="195.3779" x="712.31" y="260.5134">&#8226; Multi-session coordination</text><text fill="#111827" font-family="sans-serif" font-size="14" lengthAdjust="spacing" textLength="168.875" x="725.5615" y="277.0017">&#8226; Independent worktrees</text></g><!--entity HELPERS--><g class="entity" data-qualified-name="TmuxSkill.Orchestration.HELPERS" data-source-line="34" id="ent0018"><rect fill="#F8FAFC" height="69.4648" rx="2.5" ry="2.5" style="stroke:#4B5563;stroke-width:0.5;" width="145.0088" x="522.5" y="220.49"/><text fill="#111827" font-family="sans-serif" font-size="14" lengthAdjust="spacing" textLength="94.5752" x="547.7168" y="244.0252">Helper Scripts</text><text fill="#111827" font-family="sans-serif" font-size="14" lengthAdjust="spacing" textLength="125.0088" x="532.5" y="260.5134">&#8226; find-sessions.sh</text><text fill="#111827" font-family="sans-serif" font-size="14" lengthAdjust="spacing" textLength="122.8691" x="533.5698" y="277.0017">&#8226; wait-for-text.sh</text></g><!--entity SES1--><g class="entity" data-qualified-name="TmuxServer.SES1" data-source-line="38" id="ent0020"><rect fill="#F8FAFC" height="52.9766" rx="2.5" ry="2.5" style="stroke:#4B5563;stroke-width:0.5;" width="84.2305" x="127.88" y="615.91"/><text fill="#111827" font-family="sans-serif" font-size="14" lengthAdjust="spacing" textLength="64.2305" x="137.88" y="639.4452">Session 1</text><text fill="#111827" font-family="sans-serif" font-size="14" lengthAdjust="spacing" textLength="54.2021" x="142.8942" y="655.9334">Agent A</text></g><!--entity SES2--><g class="entity" data-qualified-name="TmuxServer.SES2" data-source-line="39" id="ent0021"><rect fill="#F8FAFC" height="52.9766" rx="2.5" ry="2.5" style="stroke:#4B5563;stroke-width:0.5;" width="84.2305" x="246.88" y="615.91"/><text fill="#111827" font-family="sans-serif" font-size="14" lengthAdjust="spacing" textLength="64.2305" x="256.88" y="639.4452">Session 2</text><text fill="#111827" font-family="sans-serif" font-size="14" lengthAdjust="spacing" textLength="52.5957" x="262.6974" y="655.9334">Agent B</text></g><!--entity SES3--><g class="entity" data-qualified-name="TmuxServer.SES3" data-source-line="40" id="ent0022"><rect fill="#F8FAFC" height="52.9766" rx="2.5" ry="2.5" style="stroke:#4B5563;stroke-width:0.5;" width="85.7207" x="128.14" y="766.88"/><text fill="#111827" font-family="sans-serif" font-size="14" lengthAdjust="spacing" textLength="65.7207" x="138.14" y="790.4152">Session N</text><text fill="#111827" font-family="sans-serif" font-size="14" lengthAdjust="spacing" textLength="54.8857" x="143.5575" y="806.9034">Agent N</text></g><!--link SKILL_INTF to SKILL_MD--><g class="link" data-entity-1="ent0006" data-entity-2="ent0010" data-link-type="dependency" data-source-line="42" id="lnk23"><path d="M387,77.8 C387,112.12 387,183.24 387,223.35" fill="none" id="SKILL_INTF-to-SKILL_MD" style="stroke:#4B5563;stroke-width:1;"/><polygon fill="#4B5563" points="387,228.35,391,219.35,387,223.35,383,219.35,387,228.35" style="stroke:#4B5563;stroke-width:1;stroke-linejoin:miter;stroke-miterlimit:10;"/><text fill="#000000" font-family="sans-serif" font-size="13" lengthAdjust="spacing" textLength="77.981" x="388" y="123.0584">Invokes Skill</text></g><!--link SKILL_MD to SESSION_MGR--><g class="link" data-entity-1="ent0010" data-entity-2="ent0012" data-link-type="dependency" data-source-line="43" id="lnk24"><path d="M415.48,282.15 C446.52,310.4 492.953,352.6837 529.733,386.1737" fill="none" id="SKILL_MD-to-SESSION_MGR" style="stroke:#4B5563;stroke-width:1;"/><polygon fill="#4B5563" points="533.43,389.54,529.4684,380.523,529.733,386.1737,524.0823,386.4382,533.43,389.54" style="stroke:#4B5563;stroke-width:1;stroke-linejoin:miter;stroke-miterlimit:10;"/></g><!--link SKILL_MD to INPUT_CTRL--><g class="link" data-entity-1="ent0010" data-entity-2="ent0013" data-link-type="dependency" data-source-line="44" id="lnk25"><path d="M382.28,282.15 C377.13,310.4 369.716,351.1309 363.616,384.6209" fill="none" id="SKILL_MD-to-INPUT_CTRL" style="stroke:#4B5563;stroke-width:1;"/><polygon fill="#4B5563" points="362.72,389.54,368.268,381.4025,363.616,384.6209,360.3975,379.9689,362.72,389.54" style="stroke:#4B5563;stroke-width:1;stroke-linejoin:miter;stroke-miterlimit:10;"/></g><!--link SKILL_MD to OUTPUT_MON--><g class="link" data-entity-1="ent0010" data-entity-2="ent0014" data-link-type="dependency" data-source-line="45" id="lnk26"><path d="M432.96,282.18 C454.56,293.41 481,305.82 506,313.95 C585.01,339.66 615.51,310.15 690,346.95 C710.98,357.32 727.1266,370.3423 742.9366,386.0823" fill="none" id="SKILL_MD-to-OUTPUT_MON" style="stroke:#4B5563;stroke-width:1;"/><polygon fill="#4B5563" points="746.48,389.61,742.9241,380.4255,742.9366,386.0823,737.2798,386.0949,746.48,389.61" style="stroke:#4B5563;stroke-width:1;stroke-linejoin:miter;stroke-miterlimit:10;"/></g><!--link SESSION_MGR to TmuxServer--><g class="link" data-entity-1="ent0012" data-entity-2="ent0019" data-link-type="dependency" data-source-line="46" id="lnk27"><path d="M546.68,476.27 C528.25,498.74 504.39,526.29 481,548.91 C457.795,571.35 429.575,594.105 406.8975,611.4287 C395.5588,620.0906 385.6056,627.3947 378.3578,632.6227 C377.4518,633.2762 376.5881,633.8972 375.7693,634.4844 C375.3598,634.778 374.9616,635.0632 374.5749,635.3397 C374.3816,635.4779 378.2602,632.7084 378.0727,632.8423" fill="none" id="SESSION_MGR-to-TmuxServer" style="stroke:#4B5563;stroke-width:1;"/><polygon fill="#4B5563" points="374.0036,635.748,383.6524,633.773,378.0727,632.8423,379.0034,627.2625,374.0036,635.748" style="stroke:#4B5563;stroke-width:1;stroke-linejoin:miter;stroke-miterlimit:10;"/><text fill="#000000" font-family="sans-serif" font-size="13" lengthAdjust="spacing" textLength="109.8843" x="496.55" y="545.4784">Creates/Manages</text></g><!--link INPUT_CTRL to TmuxServer--><g class="link" data-entity-1="ent0013" data-entity-2="ent0019" data-link-type="dependency" data-source-line="47" id="lnk28"><path d="M357.24,476.16 C358.0325,491.09 358.9656,508.6788 359.9222,526.7134 C360.4005,535.7308 360.8846,544.8596 361.36,553.8233 C361.5976,558.3052 361.8331,562.7458 362.0646,567.1105 C362.1224,568.2017 362.18,569.2881 362.2374,570.3693 C362.266,570.9098 362.2946,571.4491 362.3232,571.987 C362.3374,572.2559 362.0869,590.0198 362.1011,590.288" fill="none" id="INPUT_CTRL-to-TmuxServer" style="stroke:#4B5563;stroke-width:1;"/><polygon fill="#4B5563" points="362.3659,595.281,365.8837,586.0818,362.1011,590.288,357.8949,586.5054,362.3659,595.281" style="stroke:#4B5563;stroke-width:1;stroke-linejoin:miter;stroke-miterlimit:10;"/><text fill="#000000" font-family="sans-serif" font-size="13" lengthAdjust="spacing" textLength="110.0176" x="361.83" y="545.4784">Sends Keystrokes</text></g><!--link OUTPUT_MON to TmuxServer--><g class="link" data-entity-1="ent0014" data-entity-2="ent0019" data-link-type="dependency" data-source-line="48" id="lnk29"><path d="M746.77,476.03 C730.71,492.7 710.77,510.93 690,523.91 C626.06,563.85 546.5725,592.935 482.3313,612.175 C450.2106,621.795 421.9016,628.9538 401.2533,633.7775 C390.9291,636.1894 382.5202,638.0175 376.5076,639.2777 C375.756,639.4352 379.9382,638.5709 379.2625,638.7107" fill="none" id="OUTPUT_MON-to-TmuxServer" style="stroke:#4B5563;stroke-width:1;"/><polygon fill="#4B5563" points="374.3661,639.7236,383.9899,641.8173,379.2625,638.7107,382.3691,633.9832,374.3661,639.7236" style="stroke:#4B5563;stroke-width:1;stroke-linejoin:miter;stroke-miterlimit:10;"/><text fill="#000000" font-family="sans-serif" font-size="13" lengthAdjust="spacing" textLength="96.4653" x="675.12" y="545.4784">Scrapes Output</text></g><!--link TARGET to TmuxServer--><g class="link" data-entity-1="ent0015" data-entity-2="ent0019" data-link-type="dependency" data-source-line="49" id="lnk30"><path d="M156.64,468.15 C176.64,495.21 208.41,531.27 246,548.91 C266.38,558.47 329.99,542.16 347,556.91 C350.5775,560.0125 353.5623,563.6306 356.0462,567.5905 C356.6672,568.5805 357.2568,569.5918 357.8166,570.6218 C358.0965,571.1368 358.3689,571.6564 358.634,572.1804 C358.7003,572.3114 356.5407,590.4535 356.6061,590.585" fill="none" id="TARGET-to-TmuxServer" style="stroke:#4B5563;stroke-width:1;"/><polygon fill="#4B5563" points="358.8315,595.0624,358.4077,585.2227,356.6061,590.585,351.2438,588.7834,358.8315,595.0624" style="stroke:#4B5563;stroke-width:1;stroke-linejoin:miter;stroke-miterlimit:10;"/><text fill="#000000" font-family="sans-serif" font-size="13" lengthAdjust="spacing" textLength="105.4346" x="247" y="545.4784">Addresses Panes</text></g><!--link PARALLEL to SESSION_MGR--><g class="link" data-entity-1="ent0017" data-entity-2="ent0012" data-link-type="dependency" data-source-line="50" id="lnk31"><path d="M764.61,290.36 C742.13,307.32 714.59,328.16 690,346.95 C671.98,360.73 656.3151,372.781 638.7051,386.401" fill="none" id="PARALLEL-to-SESSION_MGR" style="stroke:#4B5563;stroke-width:1;"/><polygon fill="#4B5563" points="634.75,389.46,644.3163,387.1179,638.7051,386.401,639.422,380.7898,634.75,389.46" style="stroke:#4B5563;stroke-width:1;stroke-linejoin:miter;stroke-miterlimit:10;"/></g><!--link PARALLEL to INPUT_CTRL--><g class="link" data-entity-1="ent0017" data-entity-2="ent0013" data-link-type="dependency" data-source-line="51" id="lnk32"><path d="M745.18,290.34 C726.21,299.17 705.14,307.89 685,313.95 C592.43,341.83 559.25,309.81 470,346.95 C445.36,357.21 425.0459,370.7084 405.2259,386.5484" fill="none" id="PARALLEL-to-INPUT_CTRL" style="stroke:#4B5563;stroke-width:1;"/><polygon fill="#4B5563" points="401.32,389.67,410.8478,387.1759,405.2259,386.5484,405.8533,380.9265,401.32,389.67" style="stroke:#4B5563;stroke-width:1;stroke-linejoin:miter;stroke-miterlimit:10;"/></g><!--link PARALLEL to OUTPUT_MON--><g class="link" data-entity-1="ent0017" data-entity-2="ent0014" data-link-type="dependency" data-source-line="52" id="lnk33"><path d="M804.79,290.1 C800.43,318.52 794.9294,354.308 790.2394,384.828" fill="none" id="PARALLEL-to-OUTPUT_MON" style="stroke:#4B5563;stroke-width:1;"/><polygon fill="#4B5563" points="789.48,389.77,794.8006,381.482,790.2394,384.828,786.8934,380.2669,789.48,389.77" style="stroke:#4B5563;stroke-width:1;stroke-linejoin:miter;stroke-miterlimit:10;"/></g><!--link HELPERS to OUTPUT_MON--><g class="link" data-entity-1="ent0018" data-entity-2="ent0014" data-link-type="dependency" data-source-line="53" id="lnk34"><path d="M640.84,290.27 C654.48,299.1 669.85,307.84 685,313.95 C701.81,320.74 710.47,311.11 725,321.95 C747.22,338.55 759.9627,361.5303 768.9227,384.9403" fill="none" id="HELPERS-to-OUTPUT_MON" style="stroke:#4B5563;stroke-width:1;"/><polygon fill="#4B5563" points="770.71,389.61,771.2286,379.7748,768.9227,384.9403,763.7572,382.6344,770.71,389.61" style="stroke:#4B5563;stroke-width:1;stroke-linejoin:miter;stroke-miterlimit:10;"/></g><!--link HELPERS to SESSION_MGR--><g class="link" data-entity-1="ent0018" data-entity-2="ent0012" data-link-type="dependency" data-source-line="54" id="lnk35"><path d="M592.11,290.1 C589.68,318.52 586.6244,354.268 584.0244,384.788" fill="none" id="HELPERS-to-SESSION_MGR" style="stroke:#4B5563;stroke-width:1;"/><polygon fill="#4B5563" points="583.6,389.77,588.3495,381.142,584.0244,384.788,580.3784,380.463,583.6,389.77" style="stroke:#4B5563;stroke-width:1;stroke-linejoin:miter;stroke-miterlimit:10;"/></g><!--link ENV to SESSION_MGR--><g class="link" data-entity-1="ent0009" data-entity-2="ent0012" data-link-type="dependency" data-source-line="55" id="lnk36"><path d="M231.31,290.44 C250.18,298.72 270.66,307.14 290,313.95 C330.37,328.18 340.87,331.41 383,338.95 C421.22,345.8 433.86,332.74 470,346.95 C494.48,356.58 514.2395,370.1827 533.2495,386.3327" fill="none" id="ENV-to-SESSION_MGR" style="stroke:#4B5563;stroke-width:1;stroke-dasharray:7,7;"/><polygon fill="#4B5563" points="537.06,389.57,532.7908,380.6945,533.2495,386.3327,527.6112,386.7914,537.06,389.57" style="stroke:#4B5563;stroke-width:1;stroke-linejoin:miter;stroke-miterlimit:10;"/><text fill="#000000" font-family="sans-serif" font-size="13" lengthAdjust="spacing" textLength="68.9482" x="384" y="335.5184">Configures</text></g><!--link ENV to INPUT_CTRL--><g class="link" data-entity-1="ent0009" data-entity-2="ent0013" data-link-type="dependency" data-source-line="56" id="lnk37"><path d="M157.73,290.12 C158.99,307.17 163.67,326.74 177,338.95 C187.41,348.48 226.9,341.7 240,346.95 C264.88,356.93 285.3441,370.476 305.1841,386.436" fill="none" id="ENV-to-INPUT_CTRL" style="stroke:#4B5563;stroke-width:1;stroke-dasharray:7,7;"/><polygon fill="#4B5563" points="309.08,389.57,304.5746,380.8121,305.1841,386.436,299.5602,387.0455,309.08,389.57" style="stroke:#4B5563;stroke-width:1;stroke-linejoin:miter;stroke-miterlimit:10;"/><text fill="#000000" font-family="sans-serif" font-size="13" lengthAdjust="spacing" textLength="68.9482" x="178" y="335.5184">Configures</text></g><!--link TmuxServer to AGENT_CLIS--><g class="link" data-entity-1="ent0019" data-entity-2="ent0002" data-link-type="dependency" data-source-line="57" id="lnk38"><path d="M374.2679,645.7293 C374.7991,645.882 375.3539,646.042 375.9318,646.2091 C377.0877,646.5434 378.3358,646.9063 379.6717,647.2973 C382.3433,648.0792 385.3658,648.9732 388.7023,649.9745 C402.0484,653.9797 420.4194,659.7006 441.4638,666.8238 C483.5525,681.07 536.335,700.925 581,723.88 C604.71,736.07 625.5273,749.7754 644.7773,763.5854" fill="none" id="TmuxServer-to-AGENT_CLIS" style="stroke:#4B5563;stroke-width:1;"/><polygon fill="#4B5563" points="648.84,766.5,643.8589,758.0036,644.7773,763.5854,639.1955,764.5039,648.84,766.5" style="stroke:#4B5563;stroke-width:1;stroke-linejoin:miter;stroke-miterlimit:10;"/><text fill="#000000" font-family="sans-serif" font-size="13" lengthAdjust="spacing" textLength="35.6548" x="565.34" y="712.4484">Hosts</text></g><!--link TmuxServer to SHELL--><g class="link" data-entity-1="ent0019" data-entity-2="ent0003" data-link-type="dependency" data-source-line="58" id="lnk39"><path d="M374.0327,652.8186 C374.1253,652.9272 374.2185,653.0366 374.3125,653.1469 C374.5004,653.3673 374.6911,653.591 374.8845,653.8179 C375.2713,654.2717 375.669,654.7382 376.0771,655.217 C376.8934,656.1745 377.7516,657.1813 378.6489,658.2339 C385.8272,666.6547 395.5056,678.0081 406.2088,690.5638 C427.615,715.675 449.8767,741.7896 467.6767,762.6746" fill="none" id="TmuxServer-to-SHELL" style="stroke:#4B5563;stroke-width:1;"/><polygon fill="#4B5563" points="470.92,766.48,468.1264,757.0356,467.6767,762.6746,462.0378,762.2249,470.92,766.48" style="stroke:#4B5563;stroke-width:1;stroke-linejoin:miter;stroke-miterlimit:10;"/><text fill="#000000" font-family="sans-serif" font-size="13" lengthAdjust="spacing" textLength="46.9219" x="426.69" y="712.4484">Runs in</text></g><!--link SESSION_MGR to FS--><g class="link" data-entity-1="ent0012" data-entity-2="ent0004" data-link-type="dependency" data-source-line="59" id="lnk40"><path d="M617.52,475.98 C659.5,523.02 729.57,601.46 790,668.88 C820.4,702.8 852.2155,738.1732 874.6755,763.1332" fill="none" id="SESSION_MGR-to-FS" style="stroke:#4B5563;stroke-width:1;"/><polygon fill="#4B5563" points="878.02,766.85,874.9733,757.4842,874.6755,763.1332,869.0265,762.8354,878.02,766.85" style="stroke:#4B5563;stroke-width:1;stroke-linejoin:miter;stroke-miterlimit:10;"/><text fill="#000000" font-family="sans-serif" font-size="13" lengthAdjust="spacing" textLength="93.1582" x="791" y="647.4684">Socket Storage</text></g><!--link PARALLEL to FS--><g class="link" data-entity-1="ent0017" data-entity-2="ent0004" data-link-type="dependency" data-source-line="60" id="lnk41"><path d="M840.75,290.32 C853.35,306.36 866.68,326.44 874,346.95 C927.97,498.17 912.8131,691.5018 904.8731,761.5518" fill="none" id="PARALLEL-to-FS" style="stroke:#4B5563;stroke-width:1;"/><polygon fill="#4B5563" points="904.31,766.52,909.2982,758.0278,904.8731,761.5518,901.3491,757.1268,904.31,766.52" style="stroke:#4B5563;stroke-width:1;stroke-linejoin:miter;stroke-miterlimit:10;"/><text fill="#000000" font-family="sans-serif" font-size="13" lengthAdjust="spacing" textLength="96.9351" x="911.81" y="545.4784">Uses Worktrees</text></g><?plantuml-src ZLNRRkCs47tNLn3PbmHOst0sknlaeO0Yox4GMJOiPRS531YqHDc4PL8bgLmQ5EYtzDFw9HsAaat5Hj676C7CcSivd1d97MKb5dYFrZZTRGIlMERnWWka16OIN8GfHnvGSeip_aBP1kMuaCJoP2J7LQ4IyghSWcxO7W9H2Zz4M2XN2FvY2dowMN_z-ksBvPn32tX3xhd8Y6X0tsw-tzokpu3-Lxk2f0gpJK7GkuDG9t5J7Q4nPwgn3OV3s-ll6laX-wVyDiTvwlpfA5uYnT6QAyM1DDKLA6TEQTf25_uhC6QuGF6RL6GlBn2Mw61yTuujNNWyqqgw6sXQBjcbL-0g8mZCv7Fz-tfLHxiFVfIil328xUXuIue2-UoP2bwh3HdMM6u7Vy1VJkNM1CSJFmpjk365NzCSH3nGXNvoiLE24FaPnJpT4OL6L9ZeSGoS3zmYp3WmRw9hG6lg48jt55eBzDldE2McZySW35T1b8pjZCo43wIEa0ErhrvhT0B_c2plHx37MKutbS1QSHJYDo9giB5tMx1qGJ-me7XT4D0uSgFP_InP9TEdNrVnp7lqazKeM2pP_BTaCejMzsuSUAk5Fm_DkqK_EhmqX_u-Mp8FbtXD2whUq8Zab57TaiLpEh9PUbp0ixOXbCYcRK4-w4QarDIcc46SMB9__leRUO9WHGQFMem688qdf58DHbIc_9c83xxc8GF92tpipO_Z05XE7nPssO2LbT8gAi6BegqR4vQXH_8cqIKqJGHCxnvcyghfog01zNj5M4hQiZWdoEIRO9OLCDzrvI2QFy489ulEACugfP5J3lhnfkmSCnZFLE0IObkJqkk3Vc8Gxs0KV5_2f19bDh0kCtjAT9tfBBBB95XiY8w4RTbGHam2QVIwWsi69wrVujOnXJD6UsNTHrMMN2WpakxYmK_iPvs9T4kaEfd7hhtpmdCuIo1nOPOUBIh6MhrDsQOhb78uLfJLAOm_O1afuKrqt4kxiNMzkRjmmz3lI3iXHQc78XMqLCtZm9ncRG7PbrjZVG5LUpaNFGMd6wnrIZWQSt-Xbz_YgxSJ7bp0j5tAg-EUrfRpapnSCiFKRGTmU0vstSBkMzZrELZKmg8MzWNwEruMrElzSbX0T0UIFVCT0Q2-9Cx1KQEiLUWuh4djsAtHic9hboN2NREkSc1sM3h7VATOlMAotZ7O9MZKEHOv0zOx0MJCqZXc74zXRfO9a0k0UfEaqmx72UkEmsBTiLkicv7uBxET7audwlSxDgrESyAXiHPW2TJnMwnqxkD7460JBjK9elxIWHEMIYBAJfvfh2ERknZ3lO7dwPAj0KzQkiCNyLy0?></g></svg>