<svg xmlns="http://www.w3.org/2000/svg" xmlns:xlink="http://www.w3.org/1999/xlink" contentStyleType="text/css" data-diagram-type="SEQUENCE" height="1031px" preserveAspectRatio="none" style="width:741px;height:1031px;background:#FFFFFF;" version="1.1" viewBox="0 0 741 1031" width="741px" zoomAndPan="magnify"><?plantuml 1.2026.5?><defs/><rect data-xfeat-white-canvas="true" fill="#FFFFFF" height="100%" width="100%" x="0" y="0"/><g><rect fill="#F8FAFC" height="247" rx="4" ry="4" style="stroke:#CBD5E1;stroke-width:1.5;" width="499.6802" x="225.834" y="556"/><rect fill="#F8FAFC" height="110" rx="4" ry="4" style="stroke:#CBD5E1;stroke-width:1.5;" width="273.2637" x="235.834" y="631"/><path d="M235.834,686 L509.0977,686 L509.0977,737 A4,4 0 0 1 505.0977,741 L239.834,741 A4,4 0 0 1 235.834,737 L235.834,686" fill="#F8FAFC" style="stroke:none;stroke-width:1;"/><path d="M225.834,748 L725.5142,748 L725.5142,799 A4,4 0 0 1 721.5142,803 L229.834,803 A4,4 0 0 1 225.834,799 L225.834,748" fill="#F8FAFC" style="stroke:none;stroke-width:1;"/><rect fill="#F8FAFC" height="110" rx="4" ry="4" style="stroke:#CBD5E1;stroke-width:1.5;" width="183.9141" x="235.834" y="817"/><path d="M235.834,872 L419.748,872 L419.748,923 A4,4 0 0 1 415.748,927 L239.834,927 A4,4 0 0 1 235.834,923 L235.834,872" fill="#F8FAFC" style="stroke:none;stroke-width:1;"/><g class="participant-lifeline" data-entity-uid="part1" data-qualified-name="Client" data-source-line="2" id="part1-lifeline"><g><title>Client</title><rect fill="#000000" fill-opacity="0.00000" height="962" width="8" x="73.8965" y="34"/><line style="stroke:#94A3B8;stroke-width:0.5;stroke-dasharray:5,5;" x1="77" x2="77" y1="34" y2="996"/></g></g><g class="participant-lifeline" data-entity-uid="part2" data-qualified-name="CronService" data-source-line="3" id="part2-lifeline"><g><title>CronService</title><rect fill="#000000" fill-opacity="0.00000" height="962" width="8" x="287.3477" y="34"/><line style="stroke:#94A3B8;stroke-width:0.5;stroke-dasharray:5,5;" x1="290.834" x2="290.834" y1="34" y2="996"/></g></g><g class="participant-lifeline" data-entity-uid="part3" data-qualified-name="JobStore" data-source-line="4" id="part3-lifeline"><g><title>JobStore</title><rect fill="#000000" fill-opacity="0.00000" height="962" width="8" x="500.0977" y="34"/><line style="stroke:#94A3B8;stroke-width:0.5;stroke-dasharray:5,5;" x1="504.0806" x2="504.0806" y1="34" y2="996"/></g></g><g class="participant-lifeline" data-entity-uid="part4" data-qualified-name="Timer" data-source-line="5" id="part4-lifeline"><g><title>Timer</title><rect fill="#000000" fill-opacity="0.00000" height="962" width="8" x="570.001" y="34"/><line style="stroke:#94A3B8;stroke-width:0.5;stroke-dasharray:5,5;" x1="573.1147" x2="573.1147" y1="34" y2="996"/></g></g><g class="participant-lifeline" data-entity-uid="part5" data-qualified-name="Agent_Channel" data-source-line="6" id="part5-lifeline"><g><title>Agent.Channel</title><rect fill="#000000" fill-opacity="0.00000" height="962" width="8" x="658.2007" y="34"/><line style="stroke:#94A3B8;stroke-width:0.5;stroke-dasharray:5,5;" x1="661.8872" x2="661.8872" y1="34" y2="996"/></g></g><g class="participant participant-head" data-entity-uid="part1" data-qualified-name="Client" data-source-line="2" id="part1-head"><rect fill="#F8FAFC" height="28" rx="4" ry="4" style="stroke:#475569;stroke-width:0.5;" width="49.793" x="53" y="5"/><text fill="#0F172A" font-family="Helvetica" font-size="14" lengthAdjust="spacing" textLength="35.793" x="60" y="22.7803">Client</text></g><g class="participant participant-tail" data-entity-uid="part1" data-qualified-name="Client" data-source-line="2" id="part1-tail"><rect fill="#F8FAFC" height="28" rx="4" ry="4" style="stroke:#475569;stroke-width:0.5;" width="49.793" x="53" y="995"/><text fill="#0F172A" font-family="Helvetica" font-size="14" lengthAdjust="spacing" textLength="35.793" x="60" y="1012.7803">Client</text></g><g class="participant participant-head" data-entity-uid="part2" data-qualified-name="CronService" data-source-line="3" id="part2-head"><rect fill="#F8FAFC" height="28" rx="4" ry="4" style="stroke:#475569;stroke-width:0.5;" width="91.0273" x="245.834" y="5"/><text fill="#0F172A" font-family="Helvetica" font-size="14" lengthAdjust="spacing" textLength="77.0273" x="252.834" y="22.7803">CronService</text></g><g class="participant participant-tail" data-entity-uid="part2" data-qualified-name="CronService" data-source-line="3" id="part2-tail"><rect fill="#F8FAFC" height="28" rx="4" ry="4" style="stroke:#475569;stroke-width:0.5;" width="91.0273" x="245.834" y="995"/><text fill="#0F172A" font-family="Helvetica" font-size="14" lengthAdjust="spacing" textLength="77.0273" x="252.834" y="1012.7803">CronService</text></g><g class="participant participant-head" data-entity-uid="part3" data-qualified-name="JobStore" data-source-line="4" id="part3-head"><rect fill="#F8FAFC" height="28" rx="4" ry="4" style="stroke:#475569;stroke-width:0.5;" width="70.0342" x="469.0806" y="5"/><text fill="#0F172A" font-family="Helvetica" font-size="14" lengthAdjust="spacing" textLength="56.0342" x="476.0806" y="22.7803">JobStore</text></g><g class="participant participant-tail" data-entity-uid="part3" data-qualified-name="JobStore" data-source-line="4" id="part3-tail"><rect fill="#F8FAFC" height="28" rx="4" ry="4" style="stroke:#475569;stroke-width:0.5;" width="70.0342" x="469.0806" y="995"/><text fill="#0F172A" font-family="Helvetica" font-size="14" lengthAdjust="spacing" textLength="56.0342" x="476.0806" y="1012.7803">JobStore</text></g><g class="participant participant-head" data-entity-uid="part4" data-qualified-name="Timer" data-source-line="5" id="part4-head"><rect fill="#F8FAFC" height="28" rx="4" ry="4" style="stroke:#475569;stroke-width:0.5;" width="49.7725" x="549.1147" y="5"/><text fill="#0F172A" font-family="Helvetica" font-size="14" lengthAdjust="spacing" textLength="35.7725" x="556.1147" y="22.7803">Timer</text></g><g class="participant participant-tail" data-entity-uid="part4" data-qualified-name="Timer" data-source-line="5" id="part4-tail"><rect fill="#F8FAFC" height="28" rx="4" ry="4" style="stroke:#475569;stroke-width:0.5;" width="49.7725" x="549.1147" y="995"/><text fill="#0F172A" font-family="Helvetica" font-size="14" lengthAdjust="spacing" textLength="35.7725" x="556.1147" y="1012.7803">Timer</text></g><g class="participant participant-head" data-entity-uid="part5" data-qualified-name="Agent_Channel" data-source-line="6" id="part5-head"><rect fill="#F8FAFC" height="28" rx="4" ry="4" style="stroke:#475569;stroke-width:0.5;" width="106.627" x="608.8872" y="5"/><text fill="#0F172A" font-family="Helvetica" font-size="14" lengthAdjust="spacing" textLength="92.627" x="615.8872" y="22.7803">Agent/Channel</text></g><g class="participant participant-tail" data-entity-uid="part5" data-qualified-name="Agent_Channel" data-source-line="6" id="part5-tail"><rect fill="#F8FAFC" height="28" rx="4" ry="4" style="stroke:#475569;stroke-width:0.5;" width="106.627" x="608.8872" y="995"/><text fill="#0F172A" font-family="Helvetica" font-size="14" lengthAdjust="spacing" textLength="92.627" x="615.8872" y="1012.7803">Agent/Channel</text></g><path d="M214,53 L214,69 A4,4 0 0 0 218,73 L363,73 A4,4 0 0 0 367,69 L367,59 L357,49 L218,49 A4,4 0 0 0 214,53" fill="#FFF7ED" style="stroke:#FDBA74;stroke-width:0.5;"/><path d="M357,49 L357,57 A2,2 0 0 0 359,59 L367,59 L357,49" fill="#FFF7ED" style="stroke:#FDBA74;stroke-width:0.5;"/><text fill="#7C2D12" font-family="Helvetica" font-size="14" lengthAdjust="spacing" textLength="123.7236" x="229" y="64.7803">Service Initialization</text><g class="message" data-entity-1="part2" data-entity-2="part3" data-source-line="8" id="msg1"><line style="stroke:#64748B;stroke-width:1.1;" x1="502.0977" x2="492.0977" y1="96" y2="92"/><line style="stroke:#64748B;stroke-width:1.1;" x1="502.0977" x2="492.0977" y1="96" y2="100"/><line style="stroke:#64748B;stroke-width:1.1;" x1="291.3477" x2="503.0977" y1="96" y2="96"/><text fill="#334155" font-family="Helvetica" font-size="12" lengthAdjust="spacing" textLength="104.0684" x="345.6885" y="91.2402">Load persisted jobs</text></g><g class="message" data-entity-1="part3" data-entity-2="part2" data-source-line="9" id="msg2"><line style="stroke:#64748B;stroke-width:1.1;" x1="292.3477" x2="302.3477" y1="122" y2="118"/><line style="stroke:#64748B;stroke-width:1.1;" x1="292.3477" x2="302.3477" y1="122" y2="126"/><line style="stroke:#64748B;stroke-width:1.1;stroke-dasharray:2,2;" x1="291.3477" x2="503.0977" y1="122" y2="122"/><text fill="#334155" font-family="Helvetica" font-size="12" lengthAdjust="spacing" textLength="79.3652" x="358.04" y="117.2402">Return jobs list</text></g><g class="message" data-entity-1="part2" data-entity-2="part2" data-source-line="10" id="msg3"><line style="stroke:#64748B;stroke-width:1.1;" x1="291.3477" x2="333.3477" y1="148" y2="148"/><line style="stroke:#64748B;stroke-width:1.1;" x1="333.3477" x2="333.3477" y1="148" y2="161"/><line style="stroke:#64748B;stroke-width:1.1;" x1="291.3477" x2="333.3477" y1="161" y2="161"/><line style="stroke:#64748B;stroke-width:1.1;" x1="292.3477" x2="302.3477" y1="161" y2="157"/><line style="stroke:#64748B;stroke-width:1.1;" x1="292.3477" x2="302.3477" y1="161" y2="165"/><text fill="#334155" font-family="Helvetica" font-size="12" lengthAdjust="spacing" textLength="127.3887" x="298.3477" y="143.2402">Compute next run times</text></g><g class="message" data-entity-1="part2" data-entity-2="part4" data-source-line="11" id="msg4"><line style="stroke:#64748B;stroke-width:1.1;" x1="572.001" x2="562.001" y1="187" y2="183"/><line style="stroke:#64748B;stroke-width:1.1;" x1="572.001" x2="562.001" y1="187" y2="191"/><line style="stroke:#64748B;stroke-width:1.1;" x1="291.3477" x2="573.001" y1="187" y2="187"/><text fill="#334155" font-family="Helvetica" font-size="12" lengthAdjust="spacing" textLength="114.6973" x="375.3257" y="182.2402">Arm timer for next job</text></g><path d="M5,204 L5,220 A4,4 0 0 0 9,224 L147,224 A4,4 0 0 0 151,220 L151,210 L141,200 L9,200 A4,4 0 0 0 5,204" fill="#FFF7ED" style="stroke:#FDBA74;stroke-width:0.5;"/><path d="M141,200 L141,208 A2,2 0 0 0 143,210 L151,210 L141,200" fill="#FFF7ED" style="stroke:#FDBA74;stroke-width:0.5;"/><text fill="#7C2D12" font-family="Helvetica" font-size="14" lengthAdjust="spacing" textLength="116.7373" x="20" y="215.7803">Schedule New Job</text><g class="message" data-entity-1="part1" data-entity-2="part2" data-source-line="13" id="msg5"><line style="stroke:#64748B;stroke-width:1.1;" x1="289.3477" x2="279.3477" y1="247" y2="243"/><line style="stroke:#64748B;stroke-width:1.1;" x1="289.3477" x2="279.3477" y1="247" y2="251"/><line style="stroke:#64748B;stroke-width:1.1;" x1="77.8965" x2="290.3477" y1="247" y2="247"/><text fill="#334155" font-family="Helvetica" font-size="12" lengthAdjust="spacing" textLength="189.4512" x="89.8965" y="242.2402">schedule(name, schedule, payload)</text></g><g class="message" data-entity-1="part2" data-entity-2="part2" data-source-line="14" id="msg6"><line style="stroke:#64748B;stroke-width:1.1;" x1="291.3477" x2="333.3477" y1="273" y2="273"/><line style="stroke:#64748B;stroke-width:1.1;" x1="333.3477" x2="333.3477" y1="273" y2="286"/><line style="stroke:#64748B;stroke-width:1.1;" x1="291.3477" x2="333.3477" y1="286" y2="286"/><line style="stroke:#64748B;stroke-width:1.1;" x1="292.3477" x2="302.3477" y1="286" y2="282"/><line style="stroke:#64748B;stroke-width:1.1;" x1="292.3477" x2="302.3477" y1="286" y2="290"/><text fill="#334155" font-family="Helvetica" font-size="12" lengthAdjust="spacing" textLength="94.7344" x="298.3477" y="268.2402">Validate schedule</text></g><g class="message" data-entity-1="part2" data-entity-2="part2" data-source-line="15" id="msg7"><line style="stroke:#64748B;stroke-width:1.1;" x1="291.3477" x2="333.3477" y1="312" y2="312"/><line style="stroke:#64748B;stroke-width:1.1;" x1="333.3477" x2="333.3477" y1="312" y2="325"/><line style="stroke:#64748B;stroke-width:1.1;" x1="291.3477" x2="333.3477" y1="325" y2="325"/><line style="stroke:#64748B;stroke-width:1.1;" x1="292.3477" x2="302.3477" y1="325" y2="321"/><line style="stroke:#64748B;stroke-width:1.1;" x1="292.3477" x2="302.3477" y1="325" y2="329"/><text fill="#334155" font-family="Helvetica" font-size="12" lengthAdjust="spacing" textLength="124.7168" x="298.3477" y="307.2402">Create CronJob with ID</text></g><g class="message" data-entity-1="part2" data-entity-2="part2" data-source-line="16" id="msg8"><line style="stroke:#64748B;stroke-width:1.1;" x1="291.3477" x2="333.3477" y1="351" y2="351"/><line style="stroke:#64748B;stroke-width:1.1;" x1="333.3477" x2="333.3477" y1="351" y2="364"/><line style="stroke:#64748B;stroke-width:1.1;" x1="291.3477" x2="333.3477" y1="364" y2="364"/><line style="stroke:#64748B;stroke-width:1.1;" x1="292.3477" x2="302.3477" y1="364" y2="360"/><line style="stroke:#64748B;stroke-width:1.1;" x1="292.3477" x2="302.3477" y1="364" y2="368"/><text fill="#334155" font-family="Helvetica" font-size="12" lengthAdjust="spacing" textLength="98.7246" x="298.3477" y="346.2402">Compute next_run</text></g><g class="message" data-entity-1="part2" data-entity-2="part3" data-source-line="17" id="msg9"><line style="stroke:#64748B;stroke-width:1.1;" x1="502.0977" x2="492.0977" y1="390" y2="386"/><line style="stroke:#64748B;stroke-width:1.1;" x1="502.0977" x2="492.0977" y1="390" y2="394"/><line style="stroke:#64748B;stroke-width:1.1;" x1="291.3477" x2="503.0977" y1="390" y2="390"/><text fill="#334155" font-family="Helvetica" font-size="12" lengthAdjust="spacing" textLength="90.7148" x="352.3652" y="385.2402">Save jobs to disk</text></g><g class="message" data-entity-1="part2" data-entity-2="part4" data-source-line="18" id="msg10"><line style="stroke:#64748B;stroke-width:1.1;" x1="572.001" x2="562.001" y1="416" y2="412"/><line style="stroke:#64748B;stroke-width:1.1;" x1="572.001" x2="562.001" y1="416" y2="420"/><line style="stroke:#64748B;stroke-width:1.1;" x1="291.3477" x2="573.001" y1="416" y2="416"/><text fill="#334155" font-family="Helvetica" font-size="12" lengthAdjust="spacing" textLength="112.0195" x="376.6646" y="411.2402">Rearm timer if earlier</text></g><g class="message" data-entity-1="part2" data-entity-2="part1" data-source-line="19" id="msg11"><line style="stroke:#64748B;stroke-width:1.1;" x1="78.8965" x2="88.8965" y1="442" y2="438"/><line style="stroke:#64748B;stroke-width:1.1;" x1="78.8965" x2="88.8965" y1="442" y2="446"/><line style="stroke:#64748B;stroke-width:1.1;stroke-dasharray:2,2;" x1="77.8965" x2="290.3477" y1="442" y2="442"/><text fill="#334155" font-family="Helvetica" font-size="12" lengthAdjust="spacing" textLength="71.3789" x="148.9326" y="437.2402">Return job_id</text></g><path d="M523,459 L523,475 A4,4 0 0 0 527,479 L619,479 A4,4 0 0 0 623,475 L623,465 L613,455 L527,455 A4,4 0 0 0 523,459" fill="#FFF7ED" style="stroke:#FDBA74;stroke-width:0.5;"/><path d="M613,455 L613,463 A2,2 0 0 0 615,465 L623,465 L613,455" fill="#FFF7ED" style="stroke:#FDBA74;stroke-width:0.5;"/><text fill="#7C2D12" font-family="Helvetica" font-size="14" lengthAdjust="spacing" textLength="70.7725" x="538" y="470.7803">Timer Fires</text><g class="message" data-entity-1="part4" data-entity-2="part2" data-source-line="21" id="msg12"><line style="stroke:#64748B;stroke-width:1.1;" x1="292.3477" x2="302.3477" y1="502" y2="498"/><line style="stroke:#64748B;stroke-width:1.1;" x1="292.3477" x2="302.3477" y1="502" y2="506"/><line style="stroke:#64748B;stroke-width:1.1;" x1="291.3477" x2="573.001" y1="502" y2="502"/><text fill="#334155" font-family="Helvetica" font-size="12" lengthAdjust="spacing" textLength="108.75" x="378.2993" y="497.2402">Execute pending job</text></g><g class="message" data-entity-1="part2" data-entity-2="part2" data-source-line="22" id="msg13"><line style="stroke:#64748B;stroke-width:1.1;" x1="291.3477" x2="333.3477" y1="528" y2="528"/><line style="stroke:#64748B;stroke-width:1.1;" x1="333.3477" x2="333.3477" y1="528" y2="541"/><line style="stroke:#64748B;stroke-width:1.1;" x1="291.3477" x2="333.3477" y1="541" y2="541"/><line style="stroke:#64748B;stroke-width:1.1;" x1="292.3477" x2="302.3477" y1="541" y2="537"/><line style="stroke:#64748B;stroke-width:1.1;" x1="292.3477" x2="302.3477" y1="541" y2="545"/><text fill="#334155" font-family="Helvetica" font-size="12" lengthAdjust="spacing" textLength="89.3906" x="298.3477" y="523.2402">Check if enabled</text></g><path d="M229.834,556 L287.1719,556 L287.1719,562 L277.1719,572 L225.834,572 L225.834,560 A4,4 0 0 1 229.834,556" fill="#F8FAFC" style="stroke:#CBD5E1;stroke-width:1.5;"/><rect fill="none" height="247" rx="4" ry="4" style="stroke:#CBD5E1;stroke-width:1.5;" width="499.6802" x="225.834" y="556"/><text fill="#0F172A" font-family="Helvetica" font-size="14" font-weight="700" lengthAdjust="spacing" textLength="16.3379" x="240.834" y="567.7803">alt</text><text fill="#334155" font-family="Helvetica" font-size="14" font-weight="700" lengthAdjust="spacing" textLength="92.5586" x="302.1719" y="568.7803">[Job Enabled]</text><g class="message" data-entity-1="part2" data-entity-2="part5" data-source-line="24" id="msg14"><line style="stroke:#64748B;stroke-width:1.1;" x1="660.2007" x2="650.2007" y1="590" y2="586"/><line style="stroke:#64748B;stroke-width:1.1;" x1="660.2007" x2="650.2007" y1="590" y2="594"/><line style="stroke:#64748B;stroke-width:1.1;" x1="291.3477" x2="661.2007" y1="590" y2="590"/><text fill="#334155" font-family="Helvetica" font-size="12" lengthAdjust="spacing" textLength="88.7285" x="432.4099" y="585.2402">Execute payload</text></g><g class="message" data-entity-1="part5" data-entity-2="part2" data-source-line="25" id="msg15"><line style="stroke:#64748B;stroke-width:1.1;" x1="292.3477" x2="302.3477" y1="616" y2="612"/><line style="stroke:#64748B;stroke-width:1.1;" x1="292.3477" x2="302.3477" y1="616" y2="620"/><line style="stroke:#64748B;stroke-width:1.1;stroke-dasharray:2,2;" x1="291.3477" x2="661.2007" y1="616" y2="616"/><text fill="#334155" font-family="Helvetica" font-size="12" lengthAdjust="spacing" textLength="34.0137" x="459.7673" y="611.2402">Result</text></g><path d="M239.834,631 L297.1719,631 L297.1719,637 L287.1719,647 L235.834,647 L235.834,635 A4,4 0 0 1 239.834,631" fill="#F8FAFC" style="stroke:#CBD5E1;stroke-width:1.5;"/><rect fill="none" height="110" rx="4" ry="4" style="stroke:#CBD5E1;stroke-width:1.5;" width="273.2637" x="235.834" y="631"/><text fill="#0F172A" font-family="Helvetica" font-size="14" font-weight="700" lengthAdjust="spacing" textLength="16.3379" x="250.834" y="642.7803">alt</text><text fill="#334155" font-family="Helvetica" font-size="14" font-weight="700" lengthAdjust="spacing" textLength="66.1445" x="312.1719" y="643.7803">[Success]</text><g class="message" data-entity-1="part2" data-entity-2="part2" data-source-line="27" id="msg16"><line style="stroke:#64748B;stroke-width:1.1;" x1="291.3477" x2="333.3477" y1="665" y2="665"/><line style="stroke:#64748B;stroke-width:1.1;" x1="333.3477" x2="333.3477" y1="665" y2="678"/><line style="stroke:#64748B;stroke-width:1.1;" x1="291.3477" x2="333.3477" y1="678" y2="678"/><line style="stroke:#64748B;stroke-width:1.1;" x1="292.3477" x2="302.3477" y1="678" y2="674"/><line style="stroke:#64748B;stroke-width:1.1;" x1="292.3477" x2="302.3477" y1="678" y2="682"/><text fill="#334155" font-family="Helvetica" font-size="12" lengthAdjust="spacing" textLength="161.4023" x="298.3477" y="660.2402">Update state (status: success)</text></g><line style="stroke:#CBD5E1;stroke-width:1;stroke-dasharray:2,2;" x1="235.834" x2="509.0977" y1="687" y2="687"/><text fill="#334155" font-family="Helvetica" font-size="14" font-weight="700" lengthAdjust="spacing" textLength="43.5586" x="240.834" y="697.7803">[Error]</text><g class="message" data-entity-1="part2" data-entity-2="part2" data-source-line="29" id="msg17"><line style="stroke:#64748B;stroke-width:1.1;" x1="291.3477" x2="333.3477" y1="720" y2="720"/><line style="stroke:#64748B;stroke-width:1.1;" x1="333.3477" x2="333.3477" y1="720" y2="733"/><line style="stroke:#64748B;stroke-width:1.1;" x1="291.3477" x2="333.3477" y1="733" y2="733"/><line style="stroke:#64748B;stroke-width:1.1;" x1="292.3477" x2="302.3477" y1="733" y2="729"/><line style="stroke:#64748B;stroke-width:1.1;" x1="292.3477" x2="302.3477" y1="733" y2="737"/><text fill="#334155" font-family="Helvetica" font-size="12" lengthAdjust="spacing" textLength="198.75" x="298.3477" y="715.2402">Update state (status: error, message)</text></g><line style="stroke:#CBD5E1;stroke-width:1;stroke-dasharray:2,2;" x1="225.834" x2="725.5142" y1="749" y2="749"/><text fill="#334155" font-family="Helvetica" font-size="14" font-weight="700" lengthAdjust="spacing" textLength="96.4551" x="230.834" y="759.7803">[Job Disabled]</text><g class="message" data-entity-1="part2" data-entity-2="part2" data-source-line="32" id="msg18"><line style="stroke:#64748B;stroke-width:1.1;" x1="291.3477" x2="333.3477" y1="782" y2="782"/><line style="stroke:#64748B;stroke-width:1.1;" x1="333.3477" x2="333.3477" y1="782" y2="795"/><line style="stroke:#64748B;stroke-width:1.1;" x1="291.3477" x2="333.3477" y1="795" y2="795"/><line style="stroke:#64748B;stroke-width:1.1;" x1="292.3477" x2="302.3477" y1="795" y2="791"/><line style="stroke:#64748B;stroke-width:1.1;" x1="292.3477" x2="302.3477" y1="795" y2="799"/><text fill="#334155" font-family="Helvetica" font-size="12" lengthAdjust="spacing" textLength="78.0469" x="298.3477" y="777.2402">Skip execution</text></g><path d="M239.834,817 L297.1719,817 L297.1719,823 L287.1719,833 L235.834,833 L235.834,821 A4,4 0 0 1 239.834,817" fill="#F8FAFC" style="stroke:#CBD5E1;stroke-width:1.5;"/><rect fill="none" height="110" rx="4" ry="4" style="stroke:#CBD5E1;stroke-width:1.5;" width="183.9141" x="235.834" y="817"/><text fill="#0F172A" font-family="Helvetica" font-size="14" font-weight="700" lengthAdjust="spacing" textLength="16.3379" x="250.834" y="828.7803">alt</text><text fill="#334155" font-family="Helvetica" font-size="14" font-weight="700" lengthAdjust="spacing" textLength="99.5449" x="312.1719" y="829.7803">[One-shot Job]</text><g class="message" data-entity-1="part2" data-entity-2="part2" data-source-line="35" id="msg19"><line style="stroke:#64748B;stroke-width:1.1;" x1="291.3477" x2="333.3477" y1="851" y2="851"/><line style="stroke:#64748B;stroke-width:1.1;" x1="333.3477" x2="333.3477" y1="851" y2="864"/><line style="stroke:#64748B;stroke-width:1.1;" x1="291.3477" x2="333.3477" y1="864" y2="864"/><line style="stroke:#64748B;stroke-width:1.1;" x1="292.3477" x2="302.3477" y1="864" y2="860"/><line style="stroke:#64748B;stroke-width:1.1;" x1="292.3477" x2="302.3477" y1="864" y2="868"/><text fill="#334155" font-family="Helvetica" font-size="12" lengthAdjust="spacing" textLength="109.4004" x="298.3477" y="846.2402">Disable or delete job</text></g><line style="stroke:#CBD5E1;stroke-width:1;stroke-dasharray:2,2;" x1="235.834" x2="419.748" y1="873" y2="873"/><text fill="#334155" font-family="Helvetica" font-size="14" font-weight="700" lengthAdjust="spacing" textLength="140.7793" x="240.834" y="883.7803">[Recurring/Cron Job]</text><g class="message" data-entity-1="part2" data-entity-2="part2" data-source-line="37" id="msg20"><line style="stroke:#64748B;stroke-width:1.1;" x1="291.3477" x2="333.3477" y1="906" y2="906"/><line style="stroke:#64748B;stroke-width:1.1;" x1="333.3477" x2="333.3477" y1="906" y2="919"/><line style="stroke:#64748B;stroke-width:1.1;" x1="291.3477" x2="333.3477" y1="919" y2="919"/><line style="stroke:#64748B;stroke-width:1.1;" x1="292.3477" x2="302.3477" y1="919" y2="915"/><line style="stroke:#64748B;stroke-width:1.1;" x1="292.3477" x2="302.3477" y1="919" y2="923"/><text fill="#334155" font-family="Helvetica" font-size="12" lengthAdjust="spacing" textLength="98.7246" x="298.3477" y="901.2402">Compute next_run</text></g><g class="message" data-entity-1="part2" data-entity-2="part3" data-source-line="39" id="msg21"><line style="stroke:#64748B;stroke-width:1.1;" x1="502.0977" x2="492.0977" y1="952" y2="948"/><line style="stroke:#64748B;stroke-width:1.1;" x1="502.0977" x2="492.0977" y1="952" y2="956"/><line style="stroke:#64748B;stroke-width:1.1;" x1="291.3477" x2="503.0977" y1="952" y2="952"/><text fill="#334155" font-family="Helvetica" font-size="12" lengthAdjust="spacing" textLength="103.4121" x="346.0166" y="947.2402">Save updated state</text></g><g class="message" data-entity-1="part2" data-entity-2="part4" data-source-line="40" id="msg22"><line style="stroke:#64748B;stroke-width:1.1;" x1="572.001" x2="562.001" y1="978" y2="974"/><line style="stroke:#64748B;stroke-width:1.1;" x1="572.001" x2="562.001" y1="978" y2="982"/><line style="stroke:#64748B;stroke-width:1.1;" x1="291.3477" x2="573.001" y1="978" y2="978"/><text fill="#334155" font-family="Helvetica" font-size="12" lengthAdjust="spacing" textLength="98.707" x="383.3208" y="973.2402">Rearm for next job</text></g><?plantuml-src fLJ1Rjim3BtlAxYUMY1PxpaKAD8CQ35qGBpj6YWM4wkH9OEIqcvVFqgAFITsamtBmRQKnyV7Hr4VbIbra0WDsGqwfwmHUkehhF6J2hN-0Fnh17bLgaOO3rTphT3uAn0EykS8XAmfaFQgn8pxinw2d-owy9OoibqCOTzKZPGmwMi8kD-objjv9On1dO1fPtNOIG7FrYFOFL9V4ioW_NeqoYkXrI_XsOWKqWDEx-vQVJFuOeM41iafvr72YrsxX6yHKqRtOcUmH1_8921e3XfXFyBFRTq4bclmpGC50vxhTYDHoOyPt5ET80GRIpcASvsMdJeMAouhb44ZFEDhr9nvqx-dGjm1Ucr4ZPDkEM7xVsfsuUPI9J_OKIbOGXjwiNJ228zxB0rUbQ_WyU5V35knOMVRLuWzvbvu2rAvtVl6Bb5qrgeDy8fjeW4-oad-zLkzKlAa0ucK6v3VdnKTUfhMfoKjth2C9JLef3BRhg7dNAYmt2MTHgmrvlH2-zXaMFJsXZn7yz9BdjlS1Ht1Hewv2zftu9Yv26N9LqktTw62xqq-B3u-h-ChE3w5cUIcOq7j41P4blwF62F517YsdDXYZz_aabEUQDw3SkVSEqfLx5G3c0niBvAMBphorU3KLTPtatU1xf0QUB0bQlJOdOIaRibvYFY0tCQeloKTdPTMvTcv2Sb8cPsyD3Zzs-Wt?></g></svg>