<svg xmlns="http://www.w3.org/2000/svg" xmlns:xlink="http://www.w3.org/1999/xlink" contentStyleType="text/css" data-diagram-type="DESCRIPTION" height="1502px" preserveAspectRatio="none" style="width:2229px;height:1502px;" version="1.1" viewBox="0 0 2229 1502" width="2229px" zoomAndPan="magnify"><?plantuml 1.2026.5?><defs><style><![CDATA[
@media (prefers-color-scheme: dark) {
  text { fill: #e5e7eb !important; }
  path, line, rect, circle, ellipse, polygon, polyline { stroke: #cbd5e1 !important; }
  .entity rect, .participant rect, .participant path, .sequenceLine rect, .class rect, .component rect, .component path, .note rect { fill: #111827 !important; }
  .cluster path { fill: none !important; }
  polygon { fill: #cbd5e1 !important; }
}
]]></style></defs><g><!--cluster Users--><g class="cluster" data-qualified-name="Users" data-source-line="13" id="ent0001"><path d="M98.5,6 L140.208,6 A3.75,3.75 0 0 1 142.708,8.5 L149.708,28.4883 L474.5,28.4883 A2.5,2.5 0 0 1 477,30.9883 L477,106.99 A2.5,2.5 0 0 1 474.5,109.49 L98.5,109.49 A2.5,2.5 0 0 1 96,106.99 L96,8.5 A2.5,2.5 0 0 1 98.5,6" fill="none" style="stroke:#64748B;stroke-width:1.5;"/><line style="stroke:#64748B;stroke-width:1.5;" x1="96" x2="149.708" y1="28.4883" y2="28.4883"/><text fill="#000000" font-family="sans-serif" font-size="14" font-weight="700" lengthAdjust="spacing" textLength="40.708" x="100" y="21.5352">Users</text></g><!--cluster ChatPlatforms--><g class="cluster" data-qualified-name="ChatPlatforms" data-source-line="17" id="ent0004"><path d="M8.5,158.49 L179.9883,158.49 A3.75,3.75 0 0 1 182.4883,160.99 L189.4883,180.9783 L474.5,180.9783 A2.5,2.5 0 0 1 477,183.4783 L477,630.19 A2.5,2.5 0 0 1 474.5,632.69 L8.5,632.69 A2.5,2.5 0 0 1 6,630.19 L6,160.99 A2.5,2.5 0 0 1 8.5,158.49" fill="none" style="stroke:#64748B;stroke-width:1.5;"/><line style="stroke:#64748B;stroke-width:1.5;" x1="6" x2="189.4883" y1="180.9783" y2="180.9783"/><text fill="#000000" font-family="sans-serif" font-size="14" font-weight="700" lengthAdjust="spacing" textLength="170.4883" x="10" y="174.0252">Chat Platform Channels</text></g><!--cluster NanobotCore--><g class="cluster" data-qualified-name="NanobotCore" data-source-line="28" id="ent0014"><path d="M519.5,477.95 L686.3535,477.95 A3.75,3.75 0 0 1 688.8535,480.45 L695.8535,500.4383 L1857.5,500.4383 A2.5,2.5 0 0 1 1860,502.9383 L1860,1119.9 A2.5,2.5 0 0 1 1857.5,1122.4 L519.5,1122.4 A2.5,2.5 0 0 1 517,1119.9 L517,480.45 A2.5,2.5 0 0 1 519.5,477.95" fill="none" style="stroke:#64748B;stroke-width:1.5;"/><line style="stroke:#64748B;stroke-width:1.5;" x1="517" x2="695.8535" y1="500.4383" y2="500.4383"/><text fill="#000000" font-family="sans-serif" font-size="14" font-weight="700" lengthAdjust="spacing" textLength="165.8535" x="521" y="493.4852">Nanobot AI Framework</text></g><!--cluster ChannelLayer--><g class="cluster" data-qualified-name="NanobotCore.ChannelLayer" data-source-line="29" id="ent0015"><path d="M1239.5,528.95 L1368.9063,528.95 A3.75,3.75 0 0 1 1371.4063,531.45 L1378.4063,551.4383 L1410.5,551.4383 A2.5,2.5 0 0 1 1413,553.9383 L1413,630.43 A2.5,2.5 0 0 1 1410.5,632.93 L1239.5,632.93 A2.5,2.5 0 0 1 1237,630.43 L1237,531.45 A2.5,2.5 0 0 1 1239.5,528.95" fill="none" style="stroke:#64748B;stroke-width:1.5;"/><line style="stroke:#64748B;stroke-width:1.5;" x1="1237" x2="1378.4063" y1="551.4383" y2="551.4383"/><text fill="#000000" font-family="sans-serif" font-size="14" font-weight="700" lengthAdjust="spacing" textLength="128.4063" x="1241" y="544.4852">Channel Adapters</text></g><!--cluster AgentCore--><g class="cluster" data-qualified-name="NanobotCore.AgentCore" data-source-line="32" id="ent0017"><path d="M960.5,834.17 L1120.6816,834.17 A3.75,3.75 0 0 1 1123.1816,836.67 L1130.1816,856.6583 L1619.5,856.6583 A2.5,2.5 0 0 1 1622,859.1583 L1622,1079.9 A2.5,2.5 0 0 1 1619.5,1082.4 L960.5,1082.4 A2.5,2.5 0 0 1 958,1079.9 L958,836.67 A2.5,2.5 0 0 1 960.5,834.17" fill="none" style="stroke:#64748B;stroke-width:1.5;"/><line style="stroke:#64748B;stroke-width:1.5;" x1="958" x2="1130.1816" y1="856.6583" y2="856.6583"/><text fill="#000000" font-family="sans-serif" font-size="14" font-weight="700" lengthAdjust="spacing" textLength="159.1816" x="962" y="849.7052">Core Agent (~4k LOC)</text></g><!--cluster ProviderLayer--><g class="cluster" data-qualified-name="NanobotCore.ProviderLayer" data-source-line="39" id="ent0023"><path d="M1656.5,978.66 L1816.0801,978.66 A3.75,3.75 0 0 1 1818.5801,981.16 L1825.5801,1001.1483 L1825.5,1001.1483 A2.5,2.5 0 0 1 1828,1003.6483 L1828,1080.14 A2.5,2.5 0 0 1 1825.5,1082.64 L1656.5,1082.64 A2.5,2.5 0 0 1 1654,1080.14 L1654,981.16 A2.5,2.5 0 0 1 1656.5,978.66" fill="none" style="stroke:#64748B;stroke-width:1.5;"/><line style="stroke:#64748B;stroke-width:1.5;" x1="1654" x2="1825.5801" y1="1001.1483" y2="1001.1483"/><text fill="#000000" font-family="sans-serif" font-size="14" font-weight="700" lengthAdjust="spacing" textLength="158.5801" x="1658" y="994.1952">LLM Provider Registry</text></g><!--cluster Security--><g class="cluster" data-qualified-name="NanobotCore.Security" data-source-line="42" id="ent0025"><path d="M567.5,681.69 L669.8154,681.69 A3.75,3.75 0 0 1 672.3154,684.19 L679.3154,704.1783 L915.5,704.1783 A2.5,2.5 0 0 1 918,706.6783 L918,935.16 A2.5,2.5 0 0 1 915.5,937.66 L567.5,937.66 A2.5,2.5 0 0 1 565,935.16 L565,684.19 A2.5,2.5 0 0 1 567.5,681.69" fill="none" style="stroke:#64748B;stroke-width:1.5;"/><line style="stroke:#64748B;stroke-width:1.5;" x1="565" x2="679.3154" y1="704.1783" y2="704.1783"/><text fill="#000000" font-family="sans-serif" font-size="14" font-weight="700" lengthAdjust="spacing" textLength="101.3154" x="569" y="697.2252">Security Layer</text></g><!--cluster Config--><g class="cluster" data-qualified-name="NanobotCore.Config" data-source-line="47" id="ent0029"><path d="M1286.5,681.69 L1387.3525,681.69 A3.75,3.75 0 0 1 1389.8525,684.19 L1396.8525,704.1783 L1619.5,704.1783 A2.5,2.5 0 0 1 1622,706.6783 L1622,782.67 A2.5,2.5 0 0 1 1619.5,785.17 L1286.5,785.17 A2.5,2.5 0 0 1 1284,782.67 L1284,684.19 A2.5,2.5 0 0 1 1286.5,681.69" fill="none" style="stroke:#64748B;stroke-width:1.5;"/><line style="stroke:#64748B;stroke-width:1.5;" x1="1284" x2="1396.8525" y1="704.1783" y2="704.1783"/><text fill="#000000" font-family="sans-serif" font-size="14" font-weight="700" lengthAdjust="spacing" textLength="99.8525" x="1288" y="697.2252">Configuration</text></g><!--cluster LLMProviders--><g class="cluster" data-qualified-name="LLMProviders" data-source-line="52" id="ent0032"><path d="M1803.5,1171.4 L1906.6152,1171.4 A3.75,3.75 0 0 1 1909.1152,1173.9 L1916.1152,1193.8883 L2211.5,1193.8883 A2.5,2.5 0 0 1 2214,1196.3883 L2214,1485.36 A2.5,2.5 0 0 1 2211.5,1487.86 L1803.5,1487.86 A2.5,2.5 0 0 1 1801,1485.36 L1801,1173.9 A2.5,2.5 0 0 1 1803.5,1171.4" fill="none" style="stroke:#64748B;stroke-width:1.5;"/><line style="stroke:#64748B;stroke-width:1.5;" x1="1801" x2="1916.1152" y1="1193.8883" y2="1193.8883"/><text fill="#000000" font-family="sans-serif" font-size="14" font-weight="700" lengthAdjust="spacing" textLength="102.1152" x="1805" y="1186.9352">LLM Providers</text></g><!--cluster ExternalTools--><g class="cluster" data-qualified-name="ExternalTools" data-source-line="61" id="ent0040"><path d="M726.5,1171.4 L877.2822,1171.4 A3.75,3.75 0 0 1 879.7822,1173.9 L886.7822,1193.8883 L1043.5,1193.8883 A2.5,2.5 0 0 1 1046,1196.3883 L1046,1369.87 A2.5,2.5 0 0 1 1043.5,1372.37 L726.5,1372.37 A2.5,2.5 0 0 1 724,1369.87 L724,1173.9 A2.5,2.5 0 0 1 726.5,1171.4" fill="none" style="stroke:#64748B;stroke-width:1.5;"/><line style="stroke:#64748B;stroke-width:1.5;" x1="724" x2="886.7822" y1="1193.8883" y2="1193.8883"/><text fill="#000000" font-family="sans-serif" font-size="14" font-weight="700" lengthAdjust="spacing" textLength="149.7822" x="728" y="1186.9352">External Tools (MCP)</text></g><!--cluster Deployment--><g class="cluster" data-qualified-name="Deployment" data-source-line="66" id="ent0044"><path d="M519.5,308.98 L607.3848,308.98 A3.75,3.75 0 0 1 609.8848,311.48 L616.8848,331.4683 L1134.5,331.4683 A2.5,2.5 0 0 1 1137,333.9683 L1137,426.45 A2.5,2.5 0 0 1 1134.5,428.95 L519.5,428.95 A2.5,2.5 0 0 1 517,426.45 L517,311.48 A2.5,2.5 0 0 1 519.5,308.98" fill="none" style="stroke:#64748B;stroke-width:1.5;"/><line style="stroke:#64748B;stroke-width:1.5;" x1="517" x2="616.8848" y1="331.4683" y2="331.4683"/><text fill="#000000" font-family="sans-serif" font-size="14" font-weight="700" lengthAdjust="spacing" textLength="86.8848" x="521" y="324.5152">Deployment</text></g><!--entity U1--><g class="entity" data-qualified-name="Users.U1" data-source-line="14" id="ent0002"><rect fill="#F8FAFC" height="36.4883" rx="2.5" ry="2.5" style="stroke:#4B5563;stroke-width:0.5;" width="127.6416" x="120.18" y="49"/><text fill="#111827" font-family="sans-serif" font-size="14" lengthAdjust="spacing" textLength="107.6416" x="130.18" y="72.5352">&#128241; Mobile Apps</text></g><!--entity U2--><g class="entity" data-qualified-name="Users.U2" data-source-line="15" id="ent0003"><rect fill="#F8FAFC" height="36.4883" rx="2.5" ry="2.5" style="stroke:#4B5563;stroke-width:0.5;" width="150.7539" x="282.62" y="49"/><text fill="#111827" font-family="sans-serif" font-size="14" lengthAdjust="spacing" textLength="130.7539" x="292.62" y="72.5352">&#128187; Desktop Clients</text></g><!--entity TG--><g class="entity" data-qualified-name="ChatPlatforms.TG" data-source-line="18" id="ent0005"><rect fill="#F8FAFC" height="36.4883" rx="2.5" ry="2.5" style="stroke:#4B5563;stroke-width:0.5;" width="83.7588" x="30.12" y="201.49"/><text fill="#111827" font-family="sans-serif" font-size="14" lengthAdjust="spacing" textLength="63.7588" x="40.12" y="225.0252">Telegram</text></g><!--entity DC--><g class="entity" data-qualified-name="ChatPlatforms.DC" data-source-line="19" id="ent0006"><rect fill="#F8FAFC" height="36.4883" rx="2.5" ry="2.5" style="stroke:#4B5563;stroke-width:0.5;" width="71.9805" x="149.01" y="201.49"/><text fill="#111827" font-family="sans-serif" font-size="14" lengthAdjust="spacing" textLength="51.9805" x="159.01" y="225.0252">Discord</text></g><!--entity WA--><g class="entity" data-qualified-name="ChatPlatforms.WA" data-source-line="20" id="ent0007"><rect fill="#F8FAFC" height="36.4883" rx="2.5" ry="2.5" style="stroke:#4B5563;stroke-width:0.5;" width="88.0518" x="255.97" y="201.49"/><text fill="#111827" font-family="sans-serif" font-size="14" lengthAdjust="spacing" textLength="68.0518" x="265.97" y="225.0252">WhatsApp</text></g><!--entity SL--><g class="entity" data-qualified-name="ChatPlatforms.SL" data-source-line="21" id="ent0008"><rect fill="#F8FAFC" height="36.4883" rx="2.5" ry="2.5" style="stroke:#4B5563;stroke-width:0.5;" width="54.6719" x="378.66" y="201.49"/><text fill="#111827" font-family="sans-serif" font-size="14" lengthAdjust="spacing" textLength="34.6719" x="388.66" y="225.0252">Slack</text></g><!--entity FS--><g class="entity" data-qualified-name="ChatPlatforms.FS" data-source-line="22" id="ent0009"><rect fill="#F8FAFC" height="36.4883" rx="2.5" ry="2.5" style="stroke:#4B5563;stroke-width:0.5;" width="100.3154" x="73.84" y="360.22"/><text fill="#111827" font-family="sans-serif" font-size="14" lengthAdjust="spacing" textLength="80.3154" x="83.84" y="383.7552">Feishu/Lark</text></g><!--entity DT--><g class="entity" data-qualified-name="ChatPlatforms.DT" data-source-line="23" id="ent0010"><rect fill="#F8FAFC" height="36.4883" rx="2.5" ry="2.5" style="stroke:#4B5563;stroke-width:0.5;" width="80.7646" x="209.62" y="360.22"/><text fill="#111827" font-family="sans-serif" font-size="14" lengthAdjust="spacing" textLength="60.7646" x="219.62" y="383.7552">DingTalk</text></g><!--entity MX--><g class="entity" data-qualified-name="ChatPlatforms.MX" data-source-line="24" id="ent0011"><rect fill="#F8FAFC" height="36.4883" rx="2.5" ry="2.5" style="stroke:#4B5563;stroke-width:0.5;" width="63.3877" x="325.31" y="360.22"/><text fill="#111827" font-family="sans-serif" font-size="14" lengthAdjust="spacing" textLength="43.3877" x="335.31" y="383.7552">Matrix</text></g><!--entity EM--><g class="entity" data-qualified-name="ChatPlatforms.EM" data-source-line="25" id="ent0012"><rect fill="#F8FAFC" height="36.4883" rx="2.5" ry="2.5" style="stroke:#4B5563;stroke-width:0.5;" width="56.4834" x="164.76" y="572.2"/><text fill="#111827" font-family="sans-serif" font-size="14" lengthAdjust="spacing" textLength="36.4834" x="174.76" y="595.7352">Email</text></g><!--entity MC--><g class="entity" data-qualified-name="ChatPlatforms.MC" data-source-line="26" id="ent0013"><rect fill="#F8FAFC" height="36.4883" rx="2.5" ry="2.5" style="stroke:#4B5563;stroke-width:0.5;" width="69.4854" x="256.26" y="572.2"/><text fill="#111827" font-family="sans-serif" font-size="14" lengthAdjust="spacing" textLength="49.4854" x="266.26" y="595.7352">Mochat</text></g><!--entity CA--><g class="entity" data-qualified-name="NanobotCore.ChannelLayer.CA" data-source-line="30" id="ent0016"><rect fill="#F8FAFC" height="52.9766" rx="2.5" ry="2.5" style="stroke:#4B5563;stroke-width:0.5;" width="143.0537" x="1253.47" y="563.95"/><text fill="#111827" font-family="sans-serif" font-size="14" lengthAdjust="spacing" textLength="116.7305" x="1266.6316" y="587.4852">Platform-specific</text><text fill="#111827" font-family="sans-serif" font-size="14" lengthAdjust="spacing" textLength="123.0537" x="1263.47" y="603.9734">Message Handlers</text></g><!--entity AG--><g class="entity" data-qualified-name="NanobotCore.AgentCore.AG" data-source-line="33" id="ent0018"><rect fill="#F8FAFC" height="36.4883" rx="2.5" ry="2.5" style="stroke:#4B5563;stroke-width:0.5;" width="100.5547" x="1237.72" y="877.17"/><text fill="#111827" font-family="sans-serif" font-size="14" lengthAdjust="spacing" textLength="80.5547" x="1247.72" y="900.7052">Agent Logic</text></g><!--entity TK--><g class="entity" data-qualified-name="NanobotCore.AgentCore.TK" data-source-line="34" id="ent0019"><rect fill="#F8FAFC" height="36.4883" rx="2.5" ry="2.5" style="stroke:#4B5563;stroke-width:0.5;" width="102.626" x="1314.69" y="1021.91"/><text fill="#111827" font-family="sans-serif" font-size="14" lengthAdjust="spacing" textLength="82.626" x="1324.69" y="1045.4452">Tool System</text></g><!--entity MM--><g class="entity" data-qualified-name="NanobotCore.AgentCore.MM" data-source-line="35" id="ent0020"><rect fill="#F8FAFC" height="36.4883" rx="2.5" ry="2.5" style="stroke:#4B5563;stroke-width:0.5;" width="137.4688" x="1452.27" y="1021.91"/><text fill="#111827" font-family="sans-serif" font-size="14" lengthAdjust="spacing" textLength="117.4688" x="1462.27" y="1045.4452">Memory Manager</text></g><!--entity CR--><g class="entity" data-qualified-name="NanobotCore.AgentCore.CR" data-source-line="36" id="ent0021"><rect fill="#F8FAFC" height="36.4883" rx="2.5" ry="2.5" style="stroke:#4B5563;stroke-width:0.5;" width="123.4072" x="982.3" y="1021.91"/><text fill="#111827" font-family="sans-serif" font-size="14" lengthAdjust="spacing" textLength="103.4072" x="992.3" y="1045.4452">Cron Scheduler</text></g><!--entity HB--><g class="entity" data-qualified-name="NanobotCore.AgentCore.HB" data-source-line="37" id="ent0022"><rect fill="#F8FAFC" height="36.4883" rx="2.5" ry="2.5" style="stroke:#4B5563;stroke-width:0.5;" width="138.8906" x="1140.55" y="1021.91"/><text fill="#111827" font-family="sans-serif" font-size="14" lengthAdjust="spacing" textLength="118.8906" x="1150.55" y="1045.4452">Heartbeat System</text></g><!--entity PR--><g class="entity" data-qualified-name="NanobotCore.ProviderLayer.PR" data-source-line="40" id="ent0024"><rect fill="#F8FAFC" height="52.9766" rx="2.5" ry="2.5" style="stroke:#4B5563;stroke-width:0.5;" width="125.0342" x="1678.48" y="1013.66"/><text fill="#111827" font-family="sans-serif" font-size="14" lengthAdjust="spacing" textLength="105.0342" x="1688.48" y="1037.1952">Provider Router</text><text fill="#111827" font-family="sans-serif" font-size="14" lengthAdjust="spacing" textLength="60.6416" x="1710.6763" y="1053.6834">(LiteLLM)</text></g><!--entity AC--><g class="entity" data-qualified-name="NanobotCore.Security.AC" data-source-line="43" id="ent0026"><rect fill="#F8FAFC" height="36.4883" rx="2.5" ry="2.5" style="stroke:#4B5563;stroke-width:0.5;" width="121.0898" x="589.46" y="724.69"/><text fill="#111827" font-family="sans-serif" font-size="14" lengthAdjust="spacing" textLength="101.0898" x="599.46" y="748.2252">Access Control</text></g><!--entity SC--><g class="entity" data-qualified-name="NanobotCore.Security.SC" data-source-line="44" id="ent0027"><rect fill="#F8FAFC" height="36.4883" rx="2.5" ry="2.5" style="stroke:#4B5563;stroke-width:0.5;" width="128.4521" x="745.77" y="724.69"/><text fill="#111827" font-family="sans-serif" font-size="14" lengthAdjust="spacing" textLength="108.4521" x="755.77" y="748.2252">Command Filter</text></g><!--entity PS--><g class="entity" data-qualified-name="NanobotCore.Security.PS" data-source-line="45" id="ent0028"><rect fill="#F8FAFC" height="36.4883" rx="2.5" ry="2.5" style="stroke:#4B5563;stroke-width:0.5;" width="112.668" x="593.67" y="877.17"/><text fill="#111827" font-family="sans-serif" font-size="14" lengthAdjust="spacing" textLength="92.668" x="603.67" y="900.7052">Path Sanitizer</text></g><!--entity CF--><g class="entity" data-qualified-name="NanobotCore.Config.CF" data-source-line="48" id="ent0030"><rect fill="#F8FAFC" height="36.4883" rx="2.5" ry="2.5" style="stroke:#4B5563;stroke-width:0.5;" width="95.4961" x="1308.25" y="724.69"/><text fill="#111827" font-family="sans-serif" font-size="14" lengthAdjust="spacing" textLength="75.4961" x="1318.25" y="748.2252">config.json</text></g><!--entity ENV--><g class="entity" data-qualified-name="NanobotCore.Config.ENV" data-source-line="49" id="ent0031"><rect fill="#F8FAFC" height="36.4883" rx="2.5" ry="2.5" style="stroke:#4B5563;stroke-width:0.5;" width="139.5605" x="1439.22" y="724.69"/><text fill="#111827" font-family="sans-serif" font-size="14" lengthAdjust="spacing" textLength="119.5605" x="1449.22" y="748.2252">Environment Vars</text></g><!--entity OAI--><g class="entity" data-qualified-name="LLMProviders.OAI" data-source-line="53" id="ent0033"><rect fill="#F8FAFC" height="36.4883" rx="2.5" ry="2.5" style="stroke:#4B5563;stroke-width:0.5;" width="69.8682" x="1844.07" y="1214.4"/><text fill="#111827" font-family="sans-serif" font-size="14" lengthAdjust="spacing" textLength="49.8682" x="1854.07" y="1237.9352">OpenAI</text></g><!--entity ANT--><g class="entity" data-qualified-name="LLMProviders.ANT" data-source-line="54" id="ent0034"><rect fill="#F8FAFC" height="36.4883" rx="2.5" ry="2.5" style="stroke:#4B5563;stroke-width:0.5;" width="86.6299" x="1948.69" y="1214.4"/><text fill="#111827" font-family="sans-serif" font-size="14" lengthAdjust="spacing" textLength="66.6299" x="1958.69" y="1237.9352">Anthropic</text></g><!--entity GEM--><g class="entity" data-qualified-name="LLMProviders.GEM" data-source-line="55" id="ent0035"><rect fill="#F8FAFC" height="36.4883" rx="2.5" ry="2.5" style="stroke:#4B5563;stroke-width:0.5;" width="120.0918" x="2069.95" y="1214.4"/><text fill="#111827" font-family="sans-serif" font-size="14" lengthAdjust="spacing" textLength="100.0918" x="2079.95" y="1237.9352">Google Gemini</text></g><!--entity DSK--><g class="entity" data-qualified-name="LLMProviders.DSK" data-source-line="56" id="ent0036"><rect fill="#F8FAFC" height="36.4883" rx="2.5" ry="2.5" style="stroke:#4B5563;stroke-width:0.5;" width="86.2197" x="1847.89" y="1311.88"/><text fill="#111827" font-family="sans-serif" font-size="14" lengthAdjust="spacing" textLength="66.2197" x="1857.89" y="1335.4152">DeepSeek</text></g><!--entity GRQ--><g class="entity" data-qualified-name="LLMProviders.GRQ" data-source-line="57" id="ent0037"><rect fill="#F8FAFC" height="36.4883" rx="2.5" ry="2.5" style="stroke:#4B5563;stroke-width:0.5;" width="53.2568" x="1969.37" y="1311.88"/><text fill="#111827" font-family="sans-serif" font-size="14" lengthAdjust="spacing" textLength="33.2568" x="1979.37" y="1335.4152">Groq</text></g><!--entity VLL--><g class="entity" data-qualified-name="LLMProviders.VLL" data-source-line="58" id="ent0038"><rect fill="#F8FAFC" height="36.4883" rx="2.5" ry="2.5" style="stroke:#4B5563;stroke-width:0.5;" width="96.5898" x="2057.71" y="1311.88"/><text fill="#111827" font-family="sans-serif" font-size="14" lengthAdjust="spacing" textLength="76.5898" x="2067.71" y="1335.4152">vLLM/Local</text></g><!--entity OR--><g class="entity" data-qualified-name="LLMProviders.OR" data-source-line="59" id="ent0039"><rect fill="#F8FAFC" height="36.4883" rx="2.5" ry="2.5" style="stroke:#4B5563;stroke-width:0.5;" width="101.0811" x="1844.46" y="1427.37"/><text fill="#111827" font-family="sans-serif" font-size="14" lengthAdjust="spacing" textLength="81.0811" x="1854.46" y="1450.9052">OpenRouter</text></g><!--entity MCP1--><g class="entity" data-qualified-name="ExternalTools.MCP1" data-source-line="62" id="ent0041"><rect fill="#F8FAFC" height="36.4883" rx="2.5" ry="2.5" style="stroke:#4B5563;stroke-width:0.5;" width="109.6533" x="748.17" y="1214.4"/><text fill="#111827" font-family="sans-serif" font-size="14" lengthAdjust="spacing" textLength="89.6533" x="758.17" y="1237.9352">Tool Server 1</text></g><!--entity MCP2--><g class="entity" data-qualified-name="ExternalTools.MCP2" data-source-line="63" id="ent0042"><rect fill="#F8FAFC" height="36.4883" rx="2.5" ry="2.5" style="stroke:#4B5563;stroke-width:0.5;" width="109.6533" x="893.17" y="1214.4"/><text fill="#111827" font-family="sans-serif" font-size="14" lengthAdjust="spacing" textLength="89.6533" x="903.17" y="1237.9352">Tool Server 2</text></g><!--entity CH--><g class="entity" data-qualified-name="ExternalTools.CH" data-source-line="64" id="ent0043"><rect fill="#F8FAFC" height="36.4883" rx="2.5" ry="2.5" style="stroke:#4B5563;stroke-width:0.5;" width="119.4697" x="748.27" y="1311.88"/><text fill="#111827" font-family="sans-serif" font-size="14" lengthAdjust="spacing" textLength="99.4697" x="758.27" y="1335.4152">ClawHub Skills</text></g><!--entity DK--><g class="entity" data-qualified-name="Deployment.DK" data-source-line="67" id="ent0045"><rect fill="#F8FAFC" height="36.4883" rx="2.5" ry="2.5" style="stroke:#4B5563;stroke-width:0.5;" width="138.6035" x="540.7" y="360.22"/><text fill="#111827" font-family="sans-serif" font-size="14" lengthAdjust="spacing" textLength="118.6035" x="550.7" y="383.7552">Docker Container</text></g><!--entity DCY--><g class="entity" data-qualified-name="Deployment.DCY" data-source-line="68" id="ent0046"><rect fill="#F8FAFC" height="36.4883" rx="2.5" ry="2.5" style="stroke:#4B5563;stroke-width:0.5;" width="164.4434" x="714.78" y="360.22"/><text fill="#111827" font-family="sans-serif" font-size="14" lengthAdjust="spacing" textLength="144.4434" x="724.78" y="383.7552">docker-compose.yml</text></g><!--entity DF--><g class="entity" data-qualified-name="Deployment.DF" data-source-line="69" id="ent0047"><rect fill="#F8FAFC" height="52.9766" rx="2.5" ry="2.5" style="stroke:#4B5563;stroke-width:0.5;" width="179.3594" x="914.32" y="351.98"/><text fill="#111827" font-family="sans-serif" font-size="14" lengthAdjust="spacing" textLength="69.0088" x="969.4953" y="375.5152">Dockerfile</text><text fill="#111827" font-family="sans-serif" font-size="14" lengthAdjust="spacing" textLength="159.3594" x="924.32" y="392.0034">Python 3.12 + Node 20</text></g><!--link Users to ChatPlatforms--><g class="link" data-entity-1="ent0001" data-entity-2="ent0004" data-link-type="dependency" data-source-line="71" id="lnk48"><path d="M469,109.6063 C469,109.8637 469,110.1218 469,110.3805 C469,112.4505 469,114.5622 469,116.7072 C469,125.2876 469,134.4022 469,143.5162 C469,148.0733 469,152.6302 469,157.1201 C469,157.4007 469,157.6811 469,157.9611 C469,158.1012 469,175.7294 469,175.8693" fill="none" id="Users-to-ChatPlatforms" style="stroke:#4B5563;stroke-width:1;"/><polygon fill="#4B5563" points="469,180.8693,473,171.8693,469,175.8693,465,171.8693,469,180.8693" style="stroke:#4B5563;stroke-width:1;stroke-linejoin:miter;stroke-miterlimit:10;"/></g><!--link ChatPlatforms to CA--><g class="link" data-entity-1="ent0004" data-entity-2="ent0016" data-link-type="dependency" data-source-line="72" id="lnk49"><path d="M477.8962,220.6671 C478.3827,220.6638 478.8885,220.6604 479.4134,220.6569 C481.5131,220.6428 483.9188,220.627 486.6202,220.6098 C497.426,220.5411 512.9629,220.4503 532.5679,220.3568 C571.7779,220.1696 627.2598,219.9714 693.7077,219.9172 C826.6034,219.8087 1003.3631,220.2762 1181.5388,222.56 C1537.89,227.1275 1899.905,238.96 1928,267.98 C2100.15,445.8 1596.1856,546.4904 1401.9356,577.9604" fill="none" id="ChatPlatforms-to-CA" style="stroke:#4B5563;stroke-width:1;"/><polygon fill="#4B5563" points="1397,578.76,1406.5239,581.2692,1401.9356,577.9604,1405.2445,573.3722,1397,578.76" style="stroke:#4B5563;stroke-width:1;stroke-linejoin:miter;stroke-miterlimit:10;"/></g><!--link CA to Security--><g class="link" data-entity-1="ent0016" data-entity-2="ent0025" data-link-type="dependency" data-source-line="73" id="lnk50"><path d="M1296.03,617.36 C1282.52,628.33 1265.75,640.45 1249,648.69 C1179.98,682.625 1096.78,705.7425 1030.0775,720.47 C996.7262,727.8337 967.4994,733.1 946.2316,736.5722 C935.5977,738.3083 926.9535,739.5959 920.7785,740.4729 C920.0066,740.5825 919.2733,740.6857 918.5795,740.7826 C918.4061,740.8068 923.1875,740.1421 923.019,740.1655" fill="none" id="CA-to-Security" style="stroke:#4B5563;stroke-width:1;"/><polygon fill="#4B5563" points="918.0666,740.854,927.5317,743.5766,923.019,740.1655,926.43,735.6528,918.0666,740.854" style="stroke:#4B5563;stroke-width:1;stroke-linejoin:miter;stroke-miterlimit:10;"/></g><!--link Security to AG--><g class="link" data-entity-1="ent0025" data-entity-2="ent0018" data-link-type="dependency" data-source-line="74" id="lnk51"><path d="M918.0729,747.1471 C918.4381,747.2925 918.8148,747.4425 919.203,747.5971 C919.9793,747.9062 920.8011,748.2334 921.6672,748.5782 C928.596,751.3369 938.3552,755.2223 950.2466,759.9564 C974.0294,769.4247 1006.3413,782.2881 1041.5975,796.3237 C1112.11,824.395 1189.7547,855.3054 1239.1447,874.9704" fill="none" id="Security-to-AG" style="stroke:#4B5563;stroke-width:1;"/><polygon fill="#4B5563" points="1243.79,876.82,1236.9081,869.7745,1239.1447,874.9704,1233.9487,877.207,1243.79,876.82" style="stroke:#4B5563;stroke-width:1;stroke-linejoin:miter;stroke-miterlimit:10;"/></g><!--link AG to TK--><g class="link" data-entity-1="ent0018" data-entity-2="ent0019" data-link-type="dependency" data-source-line="75" id="lnk52"><path d="M1299.958,918.3075 C1314.928,945.6975 1338.9426,989.6322 1353.9626,1017.1222" fill="none" id="AG-TK" style="stroke:#4B5563;stroke-width:1;"/><polygon fill="#4B5563" points="1297.56,913.92,1298.3664,923.7358,1299.958,918.3075,1305.3863,919.8991,1297.56,913.92" style="stroke:#4B5563;stroke-width:1;stroke-linejoin:miter;stroke-miterlimit:10;"/><polygon fill="#4B5563" points="1356.36,1021.51,1355.5549,1011.6941,1353.9626,1017.1222,1348.5345,1015.5299,1356.36,1021.51" style="stroke:#4B5563;stroke-width:1;stroke-linejoin:miter;stroke-miterlimit:10;"/></g><!--link AG to MM--><g class="link" data-entity-1="ent0018" data-entity-2="ent0020" data-link-type="dependency" data-source-line="76" id="lnk53"><path d="M1302.8212,918.0466 C1312.5712,931.1066 1324.59,944.21 1342,953.66 C1378.92,973.72 1396.75,953.27 1435,970.66 C1462.11,982.98 1484.5415,1002.2177 1500.7215,1018.0977" fill="none" id="AG-MM" style="stroke:#4B5563;stroke-width:1;"/><polygon fill="#4B5563" points="1299.83,914.04,1302.0088,923.6448,1302.8212,918.0466,1308.4194,918.859,1299.83,914.04" style="stroke:#4B5563;stroke-width:1;stroke-linejoin:miter;stroke-miterlimit:10;"/><polygon fill="#4B5563" points="1504.29,1021.6,1500.6686,1012.4411,1500.7215,1018.0977,1495.0649,1018.1506,1504.29,1021.6" style="stroke:#4B5563;stroke-width:1;stroke-linejoin:miter;stroke-miterlimit:10;"/></g><!--link AG to CR--><g class="link" data-entity-1="ent0018" data-entity-2="ent0021" data-link-type="dependency" data-source-line="77" id="lnk54"><path d="M1234.5133,915.8606 C1200.6233,929.1106 1159.79,947.15 1123,970.66 C1099.9,985.42 1080.1487,1003.1081 1064.8887,1017.9981" fill="none" id="AG-CR" style="stroke:#4B5563;stroke-width:1;"/><polygon fill="#4B5563" points="1239.17,914.04,1229.3313,913.5918,1234.5133,915.8606,1232.2444,921.0426,1239.17,914.04" style="stroke:#4B5563;stroke-width:1;stroke-linejoin:miter;stroke-miterlimit:10;"/><polygon fill="#4B5563" points="1061.31,1021.49,1070.5451,1018.0675,1064.8887,1017.9981,1064.9581,1012.3417,1061.31,1021.49" style="stroke:#4B5563;stroke-width:1;stroke-linejoin:miter;stroke-miterlimit:10;"/></g><!--link AG to HB--><g class="link" data-entity-1="ent0018" data-entity-2="ent0022" data-link-type="dependency" data-source-line="78" id="lnk55"><path d="M1276.042,918.3075 C1261.072,945.6975 1237.0574,989.6322 1222.0374,1017.1222" fill="none" id="AG-HB" style="stroke:#4B5563;stroke-width:1;"/><polygon fill="#4B5563" points="1278.44,913.92,1270.6137,919.8991,1276.042,918.3075,1277.6336,923.7358,1278.44,913.92" style="stroke:#4B5563;stroke-width:1;stroke-linejoin:miter;stroke-miterlimit:10;"/><polygon fill="#4B5563" points="1219.64,1021.51,1227.4655,1015.5299,1222.0374,1017.1222,1220.4451,1011.6941,1219.64,1021.51" style="stroke:#4B5563;stroke-width:1;stroke-linejoin:miter;stroke-miterlimit:10;"/></g><!--link AG to PR--><g class="link" data-entity-1="ent0018" data-entity-2="ent0024" data-link-type="dependency" data-source-line="79" id="lnk56"><path d="M1299.15,914.07 C1308.72,927.51 1323.82,945.12 1342,953.66 C1368.6,966.17 1577.65,962.91 1606,970.66 C1639.72,979.88 1670.5317,995.4725 1696.4917,1010.7625" fill="none" id="AG-to-PR" style="stroke:#4B5563;stroke-width:1;"/><polygon fill="#4B5563" points="1700.8,1013.3,1695.0751,1005.2859,1696.4917,1010.7625,1691.0151,1012.1791,1700.8,1013.3" style="stroke:#4B5563;stroke-width:1;stroke-linejoin:miter;stroke-miterlimit:10;"/></g><!--link PR to LLMProviders--><g class="link" data-entity-1="ent0024" data-entity-2="ent0032" data-link-type="dependency" data-source-line="80" id="lnk57"><path d="M1750.17,1066.84 C1759.305,1092.43 1773.7,1132.7525 1785.9638,1167.1063 C1789.0297,1175.6947 1791.9624,1183.9101 1794.6465,1191.429 C1795.9885,1195.1884 1797.2683,1198.7737 1798.4716,1202.1445 C1799.0732,1203.8299 1799.6557,1205.4616 1800.2172,1207.0347 C1800.3576,1207.4279 1800.4966,1207.8175 1800.6343,1208.2034 C1800.7032,1208.3963 1799.0908,1203.8793 1799.159,1204.0703" fill="none" id="PR-to-LLMProviders" style="stroke:#4B5563;stroke-width:1;"/><polygon fill="#4B5563" points="1800.8399,1208.7793,1801.5815,1198.9584,1799.159,1204.0703,1794.0471,1201.6478,1800.8399,1208.7793" style="stroke:#4B5563;stroke-width:1;stroke-linejoin:miter;stroke-miterlimit:10;"/></g><!--link TK to ExternalTools--><g class="link" data-entity-1="ent0019" data-entity-2="ent0040" data-link-type="dependency" data-source-line="81" id="lnk58"><path d="M1357.75,1058.73 C1346.75,1080.36 1325.35,1116.86 1297,1138.4 C1249.05,1174.82 1185.5575,1197.975 1133.4387,1212.1013 C1107.3794,1219.1644 1084.1634,1223.9703 1067.1555,1227.0486 C1058.6515,1228.5877 1051.6995,1229.695 1046.7201,1230.4365 C1046.5645,1230.4596 1051.3569,1229.7504 1051.2051,1229.7728" fill="none" id="TK-to-ExternalTools" style="stroke:#4B5563;stroke-width:1;"/><polygon fill="#4B5563" points="1046.259,1230.5049,1055.7477,1233.144,1051.2051,1229.7728,1054.5764,1225.2303,1046.259,1230.5049" style="stroke:#4B5563;stroke-width:1;stroke-linejoin:miter;stroke-miterlimit:10;"/></g><!--link Config to AgentCore--><g class="link" data-entity-1="ent0029" data-entity-2="ent0017" data-link-type="dependency" data-source-line="82" id="lnk59"><path d="M1614,785.2959 C1614,785.5533 1614,785.8114 1614,786.0701 C1614,788.14 1614,790.2517 1614,792.3967 C1614,800.9769 1614,810.0913 1614,819.205 C1614,823.7619 1614,828.3186 1614,832.8083 C1614,833.0889 1614,833.3693 1614,833.6493 C1614,833.7894 1614,851.4176 1614,851.5575" fill="none" id="Config-to-AgentCore" style="stroke:#4B5563;stroke-width:1;"/><polygon fill="#4B5563" points="1614,856.5575,1618,847.5575,1614,851.5575,1610,847.5575,1614,856.5575" style="stroke:#4B5563;stroke-width:1;stroke-linejoin:miter;stroke-miterlimit:10;"/></g><!--link Deployment to NanobotCore--><g class="link" data-entity-1="ent0044" data-entity-2="ent0014" data-link-type="dependency" data-source-line="83" id="lnk60"><path d="M1120.8262,429.0875 C1120.4442,429.9321 1120.0449,430.7683 1119.6276,431.5943 C1118.7929,433.2463 1117.8859,434.8574 1116.9007,436.4125 C1114.9302,439.5227 1112.6463,442.4087 1110,444.95 C1098.0225,456.455 1084.5647,487.7376 1062.2119,497.9597" fill="none" id="Deployment-to-NanobotCore" style="stroke:#4B5563;stroke-width:1;"/><polygon fill="#4B5563" points="1057.6648,500.0391,1067.5131,499.9339,1062.2119,497.9597,1064.186,492.6585,1057.6648,500.0391" style="stroke:#4B5563;stroke-width:1;stroke-linejoin:miter;stroke-miterlimit:10;"/></g><!--link WA to DF--><g class="link" data-entity-1="ent0007" data-entity-2="ent0047" data-link-type="dependency" data-source-line="84" id="lnk61"><path d="M344.43,234.25 C349.97,235.66 355.6,236.94 361,237.98 C596.21,282.94 675.08,202.97 897,292.98 C929.24,306.05 956.1674,328.472 976.2874,348.172" fill="none" id="WA-to-DF" style="stroke:#4B5563;stroke-width:1;stroke-dasharray:7,7;"/><polygon fill="#4B5563" points="979.86,351.67,976.2277,342.5154,976.2874,348.172,970.6308,348.2316,979.86,351.67" style="stroke:#4B5563;stroke-width:1;stroke-linejoin:miter;stroke-miterlimit:10;"/><text fill="#000000" font-family="sans-serif" font-size="13" lengthAdjust="spacing" textLength="40.0854" x="872.04" y="281.5484">Bridge</text></g><?plantuml-src ZLNTRjis5BxNKnoaDnc6kBERji4m553as0ug9vhb9HkG6rgYPSuKgP9q4g_O7c9xW3v3h_jIVOGTaP97fYsmcuG-tyTp3h_p8xrbeY6ArB0YnRPISYVAH7Afm2WYD49Kc4WVM7f3Ild0H0LhmZNra9AkoOwR9NqqCMULgF4Y5FY7AeyLAoKVN81dfwkNBr-zyC0CKo0LFPUgfAeZlJfzVNgs-WhfVwMhQ668g3Y5zn50uBYB3Z2HmdIsuN1uDdhTCfzuVxO-MvDr4VqP6Tc0aR2InaXyD6iZC2cYngK5HxzeglGH40tsX87_I-BeyuT_Fi9ShXZ-Y9kcumr3oj-VO4prjesKS8OFwcWZ37y8aso8WOmJivQg1lmb1EMEs48zyYJ-ad9QeJ2Mjvpwq9Zf0lMno3ZnaLlqfp5R2zt6FfHppCVQyzItJoZJcztpb2Y7Jl8mbAYMX3jelFIXEJ6AFLfW_giFNDI4SMk_c0SNP87fkGk9Bz0L4HAh1F4bJF35z45skNH08bNR5RwWhOGGbwGnVGaxOqhsL8LAzWAVw8OMRCsAEp6dMhUkPaIK_E0X3ghM1eshTZIE_phTGdgTV6TfrjQbv4Lnr5HMh72qe6HBAJdaUsreLz2tWJAqbceFSo8mj78A1T8bIWh8YmqjTxmZ90kVCAD4cHN5HlE2pCxz1wNf738bxnaE5YnenRHHUylhhL_Jxd11xb3gEt6SCaFHbTCYM_WHSbhi53Dxi8vSh_McKAkYm090WkEif6kLEEZZHDOrbWOcZ9lUKq38YDb0JWGpx8-EaELX-SIQLJj5sf5tWbbBc4XXROFVTS-P18qixXaARzVZ3UcwvEBg1kDyGrT7GSl14CQxRgY8BotfEhuC915cesJJDyzLC6fJATl_KrepmInX6exMcD8cfxGRqpnehgcIxzoTnS--_HxJV9xAWhW2tAJfqqnTpLssGQ4l7j4k28UshJKSpvFCzKCFEFlxBoU0gdjifc6t1BBXjnYZdZ4AseAJXzbk1VcMyNw3plp4nhJXSjyMp2bn-1dcCfR55eEq_KUOw9uu3bGhBUMaa7KZDHtiQzwjsz--TBJ6RyIToFPcWrFwOZ0SmVTm9KiAen_SfGdcw3un9oTlmgKVXPy0YyTH4jjJFptHOOnQAswMU0e_jKTS8_qH5qP_nDNG7t45uB4zuQXc2tlospDQlhMse71HDoesMB_j8a_C5l1sStGRms3m1jy9FyAvOcL5_mK0?></g></svg>