<svg xmlns="http://www.w3.org/2000/svg" xmlns:xlink="http://www.w3.org/1999/xlink" contentStyleType="text/css" data-diagram-type="DESCRIPTION" height="427px" preserveAspectRatio="none" style="width:1018px;height:427px;background:#FFFFFF;" version="1.1" viewBox="0 0 1018 427" width="1018px" zoomAndPan="magnify"><?plantuml 1.2026.5?><defs/><rect data-xfeat-white-canvas="true" fill="#FFFFFF" height="100%" width="100%" x="0" y="0"/><g><!--cluster External_System--><g class="cluster" data-qualified-name="External_System" data-source-line="3" id="ent0001"><rect fill="#FFFFFF" height="83" rx="4" ry="4" style="stroke:#CBD5E1;stroke-width:1;" width="184" x="337.3" y="330"/><text fill="#0F172A" font-family="Helvetica" font-size="14" font-weight="700" lengthAdjust="spacing" textLength="108.9443" x="374.8278" y="342.7803">External System</text></g><!--cluster nanobot_skills_tmux_scripts--><g class="cluster" data-qualified-name="nanobot_skills_tmux_scripts" data-source-line="6" id="ent0003"><rect fill="#FFFFFF" height="148" rx="4" ry="4" style="stroke:#CBD5E1;stroke-width:1;" width="390" x="229.3" y="136"/><text fill="#0F172A" font-family="Helvetica" font-size="14" font-weight="700" lengthAdjust="spacing" textLength="181.2617" x="333.6691" y="148.7803">nanobot/skills/tmux/scripts</text></g><!--cluster Discovery_Layer--><g class="cluster" data-qualified-name="nanobot_skills_tmux_scripts.Discovery_Layer" data-source-line="7" id="ent0004"><rect fill="#FFFFFF" height="83" rx="4" ry="4" style="stroke:#CBD5E1;stroke-width:1;" width="152" x="253.3" y="177"/><text fill="#0F172A" font-family="Helvetica" font-size="14" font-weight="700" lengthAdjust="spacing" textLength="108.1787" x="275.2106" y="189.7803">Discovery Layer</text></g><!--cluster Synchronization_Layer--><g class="cluster" data-qualified-name="nanobot_skills_tmux_scripts.Synchronization_Layer" data-source-line="10" id="ent0006"><rect fill="#FFFFFF" height="83" rx="4" ry="4" style="stroke:#CBD5E1;stroke-width:1;" width="166" x="429.3" y="177"/><text fill="#0F172A" font-family="Helvetica" font-size="14" font-weight="700" lengthAdjust="spacing" textLength="150.1445" x="437.2277" y="189.7803">Synchronization Layer</text></g><!--cluster Consumers--><g class="cluster" data-qualified-name="Consumers" data-source-line="14" id="ent0008"><rect fill="#FFFFFF" height="83" rx="4" ry="4" style="stroke:#CBD5E1;stroke-width:1;" width="372" x="412.3" y="7"/><text fill="#0F172A" font-family="Helvetica" font-size="14" font-weight="700" lengthAdjust="spacing" textLength="77.0205" x="559.7897" y="19.7803">Consumers</text></g><!--entity TMUX--><g class="entity" data-qualified-name="External_System.TMUX" data-source-line="4" id="ent0002"><rect fill="#FFFFFF" height="34" rx="4" ry="4" style="stroke:#64748B;stroke-width:0.5;" width="151.4824" x="353.56" y="363"/><text fill="#0F172A" font-family="Helvetica" font-size="14" lengthAdjust="spacing" textLength="131.4824" x="363.56" y="383.7803">tmux server/sessions</text></g><!--entity FS--><g class="entity" data-qualified-name="nanobot_skills_tmux_scripts.Discovery_Layer.FS" data-source-line="8" id="ent0005"><rect fill="#FFFFFF" height="34" rx="4" ry="4" style="stroke:#64748B;stroke-width:0.5;" width="120.3789" x="269.11" y="210"/><text fill="#0F172A" font-family="Helvetica" font-size="14" lengthAdjust="spacing" textLength="100.3789" x="279.11" y="230.7803">find-sessions.sh</text></g><!--entity WFT--><g class="entity" data-qualified-name="nanobot_skills_tmux_scripts.Synchronization_Layer.WFT" data-source-line="11" id="ent0007"><rect fill="#FFFFFF" height="34" rx="4" ry="4" style="stroke:#64748B;stroke-width:0.5;" width="111.7998" x="467.4" y="210"/><text fill="#0F172A" font-family="Helvetica" font-size="14" lengthAdjust="spacing" textLength="91.7998" x="477.4" y="230.7803">wait-for-text.sh</text></g><!--entity NB--><g class="entity" data-qualified-name="Consumers.NB" data-source-line="15" id="ent0009"><rect fill="#FFFFFF" height="34" rx="4" ry="4" style="stroke:#64748B;stroke-width:0.5;" width="152.2959" x="428.15" y="40"/><text fill="#0F172A" font-family="Helvetica" font-size="14" lengthAdjust="spacing" textLength="132.2959" x="438.15" y="60.7803">nanobot Orchestrator</text></g><!--entity EXT--><g class="entity" data-qualified-name="Consumers.EXT" data-source-line="16" id="ent0010"><rect fill="#FFFFFF" height="34" rx="4" ry="4" style="stroke:#64748B;stroke-width:0.5;" width="146.0684" x="622.26" y="40"/><text fill="#0F172A" font-family="Helvetica" font-size="14" lengthAdjust="spacing" textLength="126.0684" x="632.26" y="60.7803">External Automation</text></g><!--entity ENV--><g class="entity" data-qualified-name="ENV" data-source-line="26" id="ent0019"><rect fill="#FFFFFF" height="34" rx="4" ry="4" style="stroke:#64748B;stroke-width:0.5;" width="98.5928" x="7" y="363"/><text fill="#0F172A" font-family="Helvetica" font-size="14" lengthAdjust="spacing" textLength="78.5928" x="17" y="383.7803">Environment</text></g><!--link NB to FS--><g class="link" data-entity-1="ent0009" data-entity-2="ent0005" data-link-type="dependency" data-source-line="18" id="lnk11"><path d="M427.79,66.14 C299.12,79.84 53.3,106 53.3,106 C53.3,106 53.3,120 53.3,120 C53.3,120 204.2824,177.9875 281.8024,207.7575" fill="none" id="NB-to-FS" style="stroke:#64748B;stroke-width:1.1;"/><polygon fill="#64748B" points="286.47,209.55,279.5023,202.5894,281.8024,207.7575,276.6342,210.0576,286.47,209.55" style="stroke:#64748B;stroke-width:1.1;stroke-linejoin:miter;stroke-miterlimit:10;"/><text fill="#334155" font-family="Helvetica" font-size="12" lengthAdjust="spacing" textLength="160.7402" x="54.3" y="116.2402">1. Discover available sessions</text></g><!--link FS to NB--><g class="link" data-entity-1="ent0005" data-entity-2="ent0009" data-link-type="dependency" data-source-line="20" id="lnk13"><path d="M324.74,209.9 C316.35,180.25 299.3,120 299.3,120 C299.3,120 299.3,106 299.3,106 C299.3,106 369.8218,89.4903 429.1618,75.5903" fill="none" id="FS-to-NB" style="stroke:#64748B;stroke-width:1.1;"/><polygon fill="#64748B" points="434.03,74.45,424.3549,72.608,429.1618,75.5903,426.1795,80.3972,434.03,74.45" style="stroke:#64748B;stroke-width:1.1;stroke-linejoin:miter;stroke-miterlimit:10;"/><text fill="#334155" font-family="Helvetica" font-size="12" lengthAdjust="spacing" textLength="111.3809" x="300.3" y="116.2402">3. Return session list</text></g><!--link FS to TMUX--><g class="link" data-entity-1="ent0005" data-entity-2="ent0002" data-link-type="dependency" data-source-line="19" id="lnk12"><path d="M327.25,244.34 C324.6,265.58 320.3,300 320.3,300 C320.3,300 320.3,314 320.3,314 C320.3,314 365.2059,340.7787 397.4959,360.0387" fill="none" id="FS-to-TMUX" style="stroke:#64748B;stroke-width:1.1;"/><polygon fill="#64748B" points="401.79,362.6,396.1096,354.5543,397.4959,360.0387,392.0115,361.4249,401.79,362.6" style="stroke:#64748B;stroke-width:1.1;stroke-linejoin:miter;stroke-miterlimit:10;"/><text fill="#334155" font-family="Helvetica" font-size="12" lengthAdjust="spacing" textLength="151.3945" x="321.3" y="310.2402">2. Query sockets &amp; sessions</text></g><!--link NB to WFT--><g class="link" data-entity-1="ent0009" data-entity-2="ent0007" data-link-type="dependency" data-source-line="21" id="lnk14"><path d="M476.53,74.25 C452.75,88.18 422.3,106 422.3,106 C422.3,106 422.3,120 422.3,120 C422.3,120 476.2503,176.6306 504.5103,206.2806" fill="none" id="NB-to-WFT" style="stroke:#64748B;stroke-width:1.1;"/><polygon fill="#64748B" points="507.96,209.9,504.6461,200.6254,504.5103,206.2806,498.8551,206.1449,507.96,209.9" style="stroke:#64748B;stroke-width:1.1;stroke-linejoin:miter;stroke-miterlimit:10;"/><text fill="#334155" font-family="Helvetica" font-size="12" lengthAdjust="spacing" textLength="110.7422" x="423.3" y="116.2402">4. Select target pane</text></g><!--link WFT to NB--><g class="link" data-entity-1="ent0007" data-entity-2="ent0009" data-link-type="dependency" data-source-line="23" id="lnk16"><path d="M525.88,209.9 C530.63,180.25 540.3,120 540.3,120 C540.3,120 540.3,106 540.3,106 C540.3,106 529.9305,92.1797 519.4805,78.2497" fill="none" id="WFT-to-NB" style="stroke:#64748B;stroke-width:1.1;"/><polygon fill="#64748B" points="516.48,74.25,518.6811,83.8497,519.4805,78.2497,525.0806,79.049,516.48,74.25" style="stroke:#64748B;stroke-width:1.1;stroke-linejoin:miter;stroke-miterlimit:10;"/><text fill="#334155" font-family="Helvetica" font-size="12" lengthAdjust="spacing" textLength="137.3965" x="541.3" y="116.2402">6. Pattern match / timeout</text></g><!--link WFT to TMUX--><g class="link" data-entity-1="ent0007" data-entity-2="ent0002" data-link-type="dependency" data-source-line="22" id="lnk15"><path d="M515.77,244.18 C504.19,269.09 483.3,314 483.3,314 C483.3,314 462.115,339.494 446.115,358.754" fill="none" id="WFT-to-TMUX" style="stroke:#64748B;stroke-width:1.1;"/><polygon fill="#64748B" points="442.92,362.6,451.7479,358.2332,446.115,358.754,445.5942,353.1212,442.92,362.6" style="stroke:#64748B;stroke-width:1.1;stroke-linejoin:miter;stroke-miterlimit:10;"/><text fill="#334155" font-family="Helvetica" font-size="12" lengthAdjust="spacing" textLength="106.0781" x="490.1" y="310.2402">5. Poll pane content</text></g><!--link EXT to FS--><g class="link" data-entity-1="ent0010" data-entity-2="ent0005" data-link-type="dependency" data-source-line="24" id="lnk17"><path d="M693.72,74.29 C691.94,92.66 689.3,120 689.3,120 C689.3,120 449.3,128 449.3,128 C449.3,128 387.4125,178.5371 353.2525,206.4371" fill="none" id="EXT-to-FS" style="stroke:#64748B;stroke-width:1.1;stroke-dasharray:7,7;"/><polygon fill="#64748B" points="349.38,209.6,358.8808,207.0049,353.2525,206.4371,353.8202,200.8089,349.38,209.6" style="stroke:#64748B;stroke-width:1.1;stroke-linejoin:miter;stroke-miterlimit:10;"/><text fill="#334155" font-family="Helvetica" font-size="12" lengthAdjust="spacing" textLength="113.4023" x="691.59" y="116.2402">Optional direct usage</text></g><!--link EXT to WFT--><g class="link" data-entity-1="ent0010" data-entity-2="ent0007" data-link-type="dependency" data-source-line="25" id="lnk18"><path d="M761.45,74.45 C817.32,88.35 888.3,106 888.3,106 C888.3,106 888.3,120 888.3,120 C888.3,120 686.7116,178.5457 584.3316,208.2757" fill="none" id="EXT-to-WFT" style="stroke:#64748B;stroke-width:1.1;stroke-dasharray:7,7;"/><polygon fill="#64748B" points="579.53,209.67,589.2884,211.0015,584.3316,208.2757,587.0575,203.3189,579.53,209.67" style="stroke:#64748B;stroke-width:1.1;stroke-linejoin:miter;stroke-miterlimit:10;"/><text fill="#334155" font-family="Helvetica" font-size="12" lengthAdjust="spacing" textLength="113.4023" x="889.3" y="116.2402">Optional direct usage</text></g><!--link FS to ENV--><g class="link" data-entity-1="ent0005" data-entity-2="ent0019" data-link-type="dependency" data-source-line="27" id="lnk20"><path d="M273.4,244.43 C201.09,265.68 84.3,300 84.3,300 C84.3,300 71.9701,334.7772 63.7701,357.9172" fill="none" id="FS-to-ENV" style="stroke:#64748B;stroke-width:1.1;stroke-dasharray:7,7;"/><polygon fill="#64748B" points="62.1,362.63,68.8764,355.4829,63.7701,357.9172,61.3358,352.8108,62.1,362.63" style="stroke:#64748B;stroke-width:1.1;stroke-linejoin:miter;stroke-miterlimit:10;"/><text fill="#334155" font-family="Helvetica" font-size="12" lengthAdjust="spacing" textLength="224.7188" x="85.3" y="310.2402">Reads: NANOBOT_TMUX_SOCKET_DIR</text></g><?plantuml-src RLBBRjim4BphAxOvz2O9wUlWGu0u3w1eAxMMq-GcCFJQ8aoH0hboxHRzzoxrglAuIRkpCpkpVAECrEq6eN5sYzuhQuIEgS8Q4zNMEYBR05buj4IsXeroA8b1KIFaNkmGpcwEX8w7e3XvmleCX8UnLlOr-1E5CM5scWUeRe_WqHtGfRwNzDtK-jlTG_JtFxCHnh9kwlTAQv-6kTHBfnhgyKE_xFjbw9T3dnKdcclbfMMn4tmL9tJTw5GhkzhJ1RVARE9niyHNtSHjCL-jE1bPEMlKRn7Ic34_wxp6_qieYhVMnOH76ldlRzSiC9EuOl6sHjTxdVwUKWqHGEvaXPwS8DklaItdiEb6borViLkilzD34CsM4CSNx10MS9vCsO0u2AN58nECOKIC2T1mAGQ_I-176uBrLkwHKt_x0idS2tYVm0gfTMPiWrQUHbrspfWF2HIeUMKWuNP8q0Y3KUZD13ycyDrgtVL0MaDeQC9qKfyO8IYu1VOfAqY1L8ssfOZDGf8CFlE6kgS-l6XeFOS-GVgLNiVCOpK7nQUkUOi-pkndy1qO-9CPLYWsVW7PPPOlytKPN9H5VlNbPbrUVrxz0m00?></g></svg>