<svg xmlns="http://www.w3.org/2000/svg" xmlns:xlink="http://www.w3.org/1999/xlink" contentStyleType="text/css" data-diagram-type="SEQUENCE" height="1113px" preserveAspectRatio="none" style="width:813px;height:1113px;" version="1.1" viewBox="0 0 813 1113" width="813px" zoomAndPan="magnify"><?plantuml 1.2026.5?><defs><style><![CDATA[
@media (prefers-color-scheme: dark) {
  text { fill: #e5e7eb !important; }
  path, line, rect, circle, ellipse, polygon, polyline { stroke: #cbd5e1 !important; }
  .entity rect, .participant rect, .participant path, .sequenceLine rect, .class rect, .component rect, .component path, .note rect { fill: #111827 !important; }
  .cluster path { fill: none !important; }
  polygon { fill: #cbd5e1 !important; }
}
]]></style></defs><g><rect fill="none" height="264.084" style="stroke:#000000;stroke-width:1.5;" width="549.7725" x="248.2207" y="605.457"/><rect fill="none" height="116.8867" style="stroke:#000000;stroke-width:1.5;" width="309.1543" x="258.2207" y="688.3887"/><rect fill="none" height="116.8867" style="stroke:#000000;stroke-width:1.5;" width="206.7983" x="258.2207" y="883.541"/><g class="participant-lifeline" data-entity-uid="part1" data-qualified-name="Client" data-source-line="11" id="part1-lifeline"><g><title>Client</title><rect fill="#000000" fill-opacity="0.00000" height="1039.5605" width="8" x="66.7524" y="36.4883"/><line style="stroke:#94A3B8;stroke-width:0.5;stroke-dasharray:5,5;" x1="70" x2="70" y1="36.4883" y2="1076.0488"/></g></g><g class="participant-lifeline" data-entity-uid="part2" data-qualified-name="CronService" data-source-line="12" id="part2-lifeline"><g><title>CronService</title><rect fill="#000000" fill-opacity="0.00000" height="1039.5605" width="8" x="311.2383" y="36.4883"/><line style="stroke:#94A3B8;stroke-width:0.5;stroke-dasharray:5,5;" x1="315.2207" x2="315.2207" y1="36.4883" y2="1076.0488"/></g></g><g class="participant-lifeline" data-entity-uid="part3" data-qualified-name="JobStore" data-source-line="13" id="part3-lifeline"><g><title>JobStore</title><rect fill="#000000" fill-opacity="0.00000" height="1039.5605" width="8" x="558.375" y="36.4883"/><line style="stroke:#94A3B8;stroke-width:0.5;stroke-dasharray:5,5;" x1="562.04" x2="562.04" y1="36.4883" y2="1076.0488"/></g></g><g class="participant-lifeline" data-entity-uid="part4" data-qualified-name="Timer" data-source-line="14" id="part4-lifeline"><g><title>Timer</title><rect fill="#000000" fill-opacity="0.00000" height="1039.5605" width="8" x="630.459" y="36.4883"/><line style="stroke:#94A3B8;stroke-width:0.5;stroke-dasharray:5,5;" x1="633.71" x2="633.71" y1="36.4883" y2="1076.0488"/></g></g><g class="participant-lifeline" data-entity-uid="part5" data-qualified-name="Agent_Channel" data-source-line="15" id="part5-lifeline"><g><title>Agent.Channel</title><rect fill="#000000" fill-opacity="0.00000" height="1039.5605" width="8" x="725.6006" y="36.4883"/><line style="stroke:#94A3B8;stroke-width:0.5;stroke-dasharray:5,5;" x1="729.208" x2="729.208" y1="36.4883" y2="1076.0488"/></g></g><g class="participant participant-head" data-entity-uid="part1" data-qualified-name="Client" data-source-line="11" id="part1-head"><rect fill="#F8FAFC" height="30.4883" rx="2.5" ry="2.5" style="stroke:#4B5563;stroke-width:0.5;" width="53.5049" x="44" y="5"/><text fill="#111827" font-family="sans-serif" font-size="14" lengthAdjust="spacing" textLength="39.5049" x="51" y="25.5352">Client</text></g><g class="participant participant-tail" data-entity-uid="part1" data-qualified-name="Client" data-source-line="11" id="part1-tail"><rect fill="#F8FAFC" height="30.4883" rx="2.5" ry="2.5" style="stroke:#4B5563;stroke-width:0.5;" width="53.5049" x="44" y="1075.0488"/><text fill="#111827" font-family="sans-serif" font-size="14" lengthAdjust="spacing" textLength="39.5049" x="51" y="1095.584">Client</text></g><g class="participant participant-head" data-entity-uid="part2" data-qualified-name="CronService" data-source-line="12" id="part2-head"><rect fill="#F8FAFC" height="30.4883" rx="2.5" ry="2.5" style="stroke:#4B5563;stroke-width:0.5;" width="94.0352" x="268.2207" y="5"/><text fill="#111827" font-family="sans-serif" font-size="14" lengthAdjust="spacing" textLength="80.0352" x="275.2207" y="25.5352">CronService</text></g><g class="participant participant-tail" data-entity-uid="part2" data-qualified-name="CronService" data-source-line="12" id="part2-tail"><rect fill="#F8FAFC" height="30.4883" rx="2.5" ry="2.5" style="stroke:#4B5563;stroke-width:0.5;" width="94.0352" x="268.2207" y="1075.0488"/><text fill="#111827" font-family="sans-serif" font-size="14" lengthAdjust="spacing" textLength="80.0352" x="275.2207" y="1095.584">CronService</text></g><g class="participant participant-head" data-entity-uid="part3" data-qualified-name="JobStore" data-source-line="13" id="part3-head"><rect fill="#F8FAFC" height="30.4883" rx="2.5" ry="2.5" style="stroke:#4B5563;stroke-width:0.5;" width="70.6699" x="527.04" y="5"/><text fill="#111827" font-family="sans-serif" font-size="14" lengthAdjust="spacing" textLength="56.6699" x="534.04" y="25.5352">JobStore</text></g><g class="participant participant-tail" data-entity-uid="part3" data-qualified-name="JobStore" data-source-line="13" id="part3-tail"><rect fill="#F8FAFC" height="30.4883" rx="2.5" ry="2.5" style="stroke:#4B5563;stroke-width:0.5;" width="70.6699" x="527.04" y="1075.0488"/><text fill="#111827" font-family="sans-serif" font-size="14" lengthAdjust="spacing" textLength="56.6699" x="534.04" y="1095.584">JobStore</text></g><g class="participant participant-head" data-entity-uid="part4" data-qualified-name="Timer" data-source-line="14" id="part4-head"><rect fill="#F8FAFC" height="30.4883" rx="2.5" ry="2.5" style="stroke:#4B5563;stroke-width:0.5;" width="53.498" x="607.71" y="5"/><text fill="#111827" font-family="sans-serif" font-size="14" lengthAdjust="spacing" textLength="39.498" x="614.71" y="25.5352">Timer</text></g><g class="participant participant-tail" data-entity-uid="part4" data-qualified-name="Timer" data-source-line="14" id="part4-tail"><rect fill="#F8FAFC" height="30.4883" rx="2.5" ry="2.5" style="stroke:#4B5563;stroke-width:0.5;" width="53.498" x="607.71" y="1075.0488"/><text fill="#111827" font-family="sans-serif" font-size="14" lengthAdjust="spacing" textLength="39.498" x="614.71" y="1095.584">Timer</text></g><g class="participant participant-head" data-entity-uid="part5" data-qualified-name="Agent_Channel" data-source-line="15" id="part5-head"><rect fill="#F8FAFC" height="30.4883" rx="2.5" ry="2.5" style="stroke:#4B5563;stroke-width:0.5;" width="116.7852" x="671.208" y="5"/><text fill="#111827" font-family="sans-serif" font-size="14" lengthAdjust="spacing" textLength="102.7852" x="678.208" y="25.5352">Agent/Channel</text></g><g class="participant participant-tail" data-entity-uid="part5" data-qualified-name="Agent_Channel" data-source-line="15" id="part5-tail"><rect fill="#F8FAFC" height="30.4883" rx="2.5" ry="2.5" style="stroke:#4B5563;stroke-width:0.5;" width="116.7852" x="671.208" y="1075.0488"/><text fill="#111827" font-family="sans-serif" font-size="14" lengthAdjust="spacing" textLength="102.7852" x="678.208" y="1095.584">Agent/Channel</text></g><path d="M241,51.4883 L241,76.4883 L388,76.4883 L388,61.4883 L378,51.4883 L241,51.4883" fill="#FEFFDD" style="stroke:#181818;stroke-width:0.5;"/><path d="M378,51.4883 L378,61.4883 L388,61.4883 L378,51.4883" fill="#FEFFDD" style="stroke:#181818;stroke-width:0.5;"/><text fill="#000000" font-family="sans-serif" font-size="13" lengthAdjust="spacing" textLength="126.2549" x="247" y="69.0566">Service Initialization</text><g class="message" data-entity-1="part2" data-entity-2="part3" data-source-line="17" id="msg1"><line style="stroke:#4B5563;stroke-width:1;" x1="560.375" x2="550.375" y1="103.1094" y2="99.1094"/><line style="stroke:#4B5563;stroke-width:1;" x1="560.375" x2="550.375" y1="103.1094" y2="107.1094"/><line style="stroke:#4B5563;stroke-width:1;" x1="315.2383" x2="561.375" y1="103.1094" y2="103.1094"/><text fill="#000000" font-family="sans-serif" font-size="13" lengthAdjust="spacing" textLength="123.2969" x="322.2383" y="98.3672">Load persisted jobs</text></g><g class="message" data-entity-1="part3" data-entity-2="part2" data-source-line="18" id="msg2"><line style="stroke:#4B5563;stroke-width:1;" x1="316.2383" x2="326.2383" y1="132.4199" y2="128.4199"/><line style="stroke:#4B5563;stroke-width:1;" x1="316.2383" x2="326.2383" y1="132.4199" y2="136.4199"/><line style="stroke:#4B5563;stroke-width:1;stroke-dasharray:2,2;" x1="315.2383" x2="561.375" y1="132.4199" y2="132.4199"/><text fill="#000000" font-family="sans-serif" font-size="13" lengthAdjust="spacing" textLength="95.7607" x="332.2383" y="127.6777">Return jobs list</text></g><g class="message" data-entity-1="part2" data-entity-2="part2" data-source-line="19" id="msg3"><line style="stroke:#4B5563;stroke-width:1;" x1="315.2383" x2="357.2383" y1="161.7305" y2="161.7305"/><line style="stroke:#4B5563;stroke-width:1;" x1="357.2383" x2="357.2383" y1="161.7305" y2="174.7305"/><line style="stroke:#4B5563;stroke-width:1;" x1="315.2383" x2="357.2383" y1="174.7305" y2="174.7305"/><line style="stroke:#4B5563;stroke-width:1;" x1="316.2383" x2="326.2383" y1="174.7305" y2="170.7305"/><line style="stroke:#4B5563;stroke-width:1;" x1="316.2383" x2="326.2383" y1="174.7305" y2="178.7305"/><text fill="#000000" font-family="sans-serif" font-size="13" lengthAdjust="spacing" textLength="154.0386" x="322.2383" y="156.9883">Compute next run times</text></g><g class="message" data-entity-1="part2" data-entity-2="part4" data-source-line="20" id="msg4"><line style="stroke:#4B5563;stroke-width:1;" x1="632.459" x2="622.459" y1="204.041" y2="200.041"/><line style="stroke:#4B5563;stroke-width:1;" x1="632.459" x2="622.459" y1="204.041" y2="208.041"/><line style="stroke:#4B5563;stroke-width:1;" x1="315.2383" x2="633.459" y1="204.041" y2="204.041"/><text fill="#000000" font-family="sans-serif" font-size="13" lengthAdjust="spacing" textLength="142.5493" x="322.2383" y="199.2988">Arm timer for next job</text></g><path d="M5,217.041 L5,242.041 L137,242.041 L137,227.041 L127,217.041 L5,217.041" fill="#FEFFDD" style="stroke:#181818;stroke-width:0.5;"/><path d="M127,217.041 L127,227.041 L137,227.041 L127,217.041" fill="#FEFFDD" style="stroke:#181818;stroke-width:0.5;"/><text fill="#000000" font-family="sans-serif" font-size="13" lengthAdjust="spacing" textLength="111.522" x="11" y="234.6094">Schedule New Job</text><g class="message" data-entity-1="part1" data-entity-2="part2" data-source-line="22" id="msg5"><line style="stroke:#4B5563;stroke-width:1;" x1="313.2383" x2="303.2383" y1="268.6621" y2="264.6621"/><line style="stroke:#4B5563;stroke-width:1;" x1="313.2383" x2="303.2383" y1="268.6621" y2="272.6621"/><line style="stroke:#4B5563;stroke-width:1;" x1="70.7524" x2="314.2383" y1="268.6621" y2="268.6621"/><text fill="#000000" font-family="sans-serif" font-size="13" lengthAdjust="spacing" textLength="220.4858" x="77.7524" y="263.9199">schedule(name, schedule, payload)</text></g><g class="message" data-entity-1="part2" data-entity-2="part2" data-source-line="23" id="msg6"><line style="stroke:#4B5563;stroke-width:1;" x1="315.2383" x2="357.2383" y1="297.9727" y2="297.9727"/><line style="stroke:#4B5563;stroke-width:1;" x1="357.2383" x2="357.2383" y1="297.9727" y2="310.9727"/><line style="stroke:#4B5563;stroke-width:1;" x1="315.2383" x2="357.2383" y1="310.9727" y2="310.9727"/><line style="stroke:#4B5563;stroke-width:1;" x1="316.2383" x2="326.2383" y1="310.9727" y2="306.9727"/><line style="stroke:#4B5563;stroke-width:1;" x1="316.2383" x2="326.2383" y1="310.9727" y2="314.9727"/><text fill="#000000" font-family="sans-serif" font-size="13" lengthAdjust="spacing" textLength="110.6206" x="322.2383" y="293.2305">Validate schedule</text></g><g class="message" data-entity-1="part2" data-entity-2="part2" data-source-line="24" id="msg7"><line style="stroke:#4B5563;stroke-width:1;" x1="315.2383" x2="357.2383" y1="340.2832" y2="340.2832"/><line style="stroke:#4B5563;stroke-width:1;" x1="357.2383" x2="357.2383" y1="340.2832" y2="353.2832"/><line style="stroke:#4B5563;stroke-width:1;" x1="315.2383" x2="357.2383" y1="353.2832" y2="353.2832"/><line style="stroke:#4B5563;stroke-width:1;" x1="316.2383" x2="326.2383" y1="353.2832" y2="349.2832"/><line style="stroke:#4B5563;stroke-width:1;" x1="316.2383" x2="326.2383" y1="353.2832" y2="357.2832"/><text fill="#000000" font-family="sans-serif" font-size="13" lengthAdjust="spacing" textLength="143.9458" x="322.2383" y="335.541">Create CronJob with ID</text></g><g class="message" data-entity-1="part2" data-entity-2="part2" data-source-line="25" id="msg8"><line style="stroke:#4B5563;stroke-width:1;" x1="315.2383" x2="357.2383" y1="382.5938" y2="382.5938"/><line style="stroke:#4B5563;stroke-width:1;" x1="357.2383" x2="357.2383" y1="382.5938" y2="395.5938"/><line style="stroke:#4B5563;stroke-width:1;" x1="315.2383" x2="357.2383" y1="395.5938" y2="395.5938"/><line style="stroke:#4B5563;stroke-width:1;" x1="316.2383" x2="326.2383" y1="395.5938" y2="391.5938"/><line style="stroke:#4B5563;stroke-width:1;" x1="316.2383" x2="326.2383" y1="395.5938" y2="399.5938"/><text fill="#000000" font-family="sans-serif" font-size="13" lengthAdjust="spacing" textLength="117.6855" x="322.2383" y="377.8516">Compute next_run</text></g><g class="message" data-entity-1="part2" data-entity-2="part3" data-source-line="26" id="msg9"><line style="stroke:#4B5563;stroke-width:1;" x1="560.375" x2="550.375" y1="424.9043" y2="420.9043"/><line style="stroke:#4B5563;stroke-width:1;" x1="560.375" x2="550.375" y1="424.9043" y2="428.9043"/><line style="stroke:#4B5563;stroke-width:1;" x1="315.2383" x2="561.375" y1="424.9043" y2="424.9043"/><text fill="#000000" font-family="sans-serif" font-size="13" lengthAdjust="spacing" textLength="106.2534" x="322.2383" y="420.1621">Save jobs to disk</text></g><g class="message" data-entity-1="part2" data-entity-2="part4" data-source-line="27" id="msg10"><line style="stroke:#4B5563;stroke-width:1;" x1="632.459" x2="622.459" y1="454.2148" y2="450.2148"/><line style="stroke:#4B5563;stroke-width:1;" x1="632.459" x2="622.459" y1="454.2148" y2="458.2148"/><line style="stroke:#4B5563;stroke-width:1;" x1="315.2383" x2="633.459" y1="454.2148" y2="454.2148"/><text fill="#000000" font-family="sans-serif" font-size="13" lengthAdjust="spacing" textLength="134.1133" x="322.2383" y="449.4727">Rearm timer if earlier</text></g><g class="message" data-entity-1="part2" data-entity-2="part1" data-source-line="28" id="msg11"><line style="stroke:#4B5563;stroke-width:1;" x1="71.7524" x2="81.7524" y1="483.5254" y2="479.5254"/><line style="stroke:#4B5563;stroke-width:1;" x1="71.7524" x2="81.7524" y1="483.5254" y2="487.5254"/><line style="stroke:#4B5563;stroke-width:1;stroke-dasharray:2,2;" x1="70.7524" x2="314.2383" y1="483.5254" y2="483.5254"/><text fill="#000000" font-family="sans-serif" font-size="13" lengthAdjust="spacing" textLength="84.4556" x="87.7524" y="478.7832">Return job_id</text></g><path d="M588,496.5254 L588,521.5254 L679,521.5254 L679,506.5254 L669,496.5254 L588,496.5254" fill="#FEFFDD" style="stroke:#181818;stroke-width:0.5;"/><path d="M669,496.5254 L669,506.5254 L679,506.5254 L669,496.5254" fill="#FEFFDD" style="stroke:#181818;stroke-width:0.5;"/><text fill="#000000" font-family="sans-serif" font-size="13" lengthAdjust="spacing" textLength="70.7065" x="594" y="514.0938">Timer Fires</text><g class="message" data-entity-1="part4" data-entity-2="part2" data-source-line="30" id="msg12"><line style="stroke:#4B5563;stroke-width:1;" x1="316.2383" x2="326.2383" y1="548.1465" y2="544.1465"/><line style="stroke:#4B5563;stroke-width:1;" x1="316.2383" x2="326.2383" y1="548.1465" y2="552.1465"/><line style="stroke:#4B5563;stroke-width:1;" x1="315.2383" x2="633.459" y1="548.1465" y2="548.1465"/><text fill="#000000" font-family="sans-serif" font-size="13" lengthAdjust="spacing" textLength="129.0479" x="332.2383" y="543.4043">Execute pending job</text></g><g class="message" data-entity-1="part2" data-entity-2="part2" data-source-line="31" id="msg13"><line style="stroke:#4B5563;stroke-width:1;" x1="315.2383" x2="357.2383" y1="577.457" y2="577.457"/><line style="stroke:#4B5563;stroke-width:1;" x1="357.2383" x2="357.2383" y1="577.457" y2="590.457"/><line style="stroke:#4B5563;stroke-width:1;" x1="315.2383" x2="357.2383" y1="590.457" y2="590.457"/><line style="stroke:#4B5563;stroke-width:1;" x1="316.2383" x2="326.2383" y1="590.457" y2="586.457"/><line style="stroke:#4B5563;stroke-width:1;" x1="316.2383" x2="326.2383" y1="590.457" y2="594.457"/><text fill="#000000" font-family="sans-serif" font-size="13" lengthAdjust="spacing" textLength="105.1807" x="322.2383" y="572.7148">Check if enabled</text></g><path d="M248.2207,605.457 L310.3594,605.457 L310.3594,612.7676 L300.3594,622.7676 L248.2207,622.7676 L248.2207,605.457" fill="#EEEEEE" style="stroke:#000000;stroke-width:1.5;"/><rect fill="none" height="264.084" style="stroke:#000000;stroke-width:1.5;" width="549.7725" x="248.2207" y="605.457"/><text fill="#000000" font-family="sans-serif" font-size="13" font-weight="700" lengthAdjust="spacing" textLength="17.1387" x="263.2207" y="619.0254">alt</text><text fill="#000000" font-family="sans-serif" font-size="11" font-weight="700" lengthAdjust="spacing" textLength="75.5928" x="325.3594" y="618.0918">[Job Enabled]</text><g class="message" data-entity-1="part2" data-entity-2="part5" data-source-line="33" id="msg14"><line style="stroke:#4B5563;stroke-width:1;" x1="727.6006" x2="717.6006" y1="644.0781" y2="640.0781"/><line style="stroke:#4B5563;stroke-width:1;" x1="727.6006" x2="717.6006" y1="644.0781" y2="648.0781"/><line style="stroke:#4B5563;stroke-width:1;" x1="315.2383" x2="728.6006" y1="644.0781" y2="644.0781"/><text fill="#000000" font-family="sans-serif" font-size="13" lengthAdjust="spacing" textLength="102.4639" x="322.2383" y="639.3359">Execute payload</text></g><g class="message" data-entity-1="part5" data-entity-2="part2" data-source-line="34" id="msg15"><line style="stroke:#4B5563;stroke-width:1;" x1="316.2383" x2="326.2383" y1="673.3887" y2="669.3887"/><line style="stroke:#4B5563;stroke-width:1;" x1="316.2383" x2="326.2383" y1="673.3887" y2="677.3887"/><line style="stroke:#4B5563;stroke-width:1;stroke-dasharray:2,2;" x1="315.2383" x2="728.6006" y1="673.3887" y2="673.3887"/><text fill="#000000" font-family="sans-serif" font-size="13" lengthAdjust="spacing" textLength="38.7778" x="332.2383" y="668.6465">Result</text></g><path d="M258.2207,688.3887 L320.3594,688.3887 L320.3594,695.6992 L310.3594,705.6992 L258.2207,705.6992 L258.2207,688.3887" fill="#EEEEEE" style="stroke:#000000;stroke-width:1.5;"/><rect fill="none" height="116.8867" style="stroke:#000000;stroke-width:1.5;" width="309.1543" x="258.2207" y="688.3887"/><text fill="#000000" font-family="sans-serif" font-size="13" font-weight="700" lengthAdjust="spacing" textLength="17.1387" x="273.2207" y="701.957">alt</text><text fill="#000000" font-family="sans-serif" font-size="11" font-weight="700" lengthAdjust="spacing" textLength="52.2554" x="335.3594" y="701.0234">[Success]</text><g class="message" data-entity-1="part2" data-entity-2="part2" data-source-line="36" id="msg16"><line style="stroke:#4B5563;stroke-width:1;" x1="315.2383" x2="357.2383" y1="727.0098" y2="727.0098"/><line style="stroke:#4B5563;stroke-width:1;" x1="357.2383" x2="357.2383" y1="727.0098" y2="740.0098"/><line style="stroke:#4B5563;stroke-width:1;" x1="315.2383" x2="357.2383" y1="740.0098" y2="740.0098"/><line style="stroke:#4B5563;stroke-width:1;" x1="316.2383" x2="326.2383" y1="740.0098" y2="736.0098"/><line style="stroke:#4B5563;stroke-width:1;" x1="316.2383" x2="326.2383" y1="740.0098" y2="744.0098"/><text fill="#000000" font-family="sans-serif" font-size="13" lengthAdjust="spacing" textLength="187.0718" x="322.2383" y="722.2676">Update state (status: success)</text></g><line style="stroke:#000000;stroke-width:1;stroke-dasharray:2,2;" x1="258.2207" x2="567.375" y1="749.0098" y2="749.0098"/><text fill="#000000" font-family="sans-serif" font-size="11" font-weight="700" lengthAdjust="spacing" textLength="36.7866" x="263.2207" y="759.6445">[Error]</text><g class="message" data-entity-1="part2" data-entity-2="part2" data-source-line="38" id="msg17"><line style="stroke:#4B5563;stroke-width:1;" x1="315.2383" x2="357.2383" y1="784.2754" y2="784.2754"/><line style="stroke:#4B5563;stroke-width:1;" x1="357.2383" x2="357.2383" y1="784.2754" y2="797.2754"/><line style="stroke:#4B5563;stroke-width:1;" x1="315.2383" x2="357.2383" y1="797.2754" y2="797.2754"/><line style="stroke:#4B5563;stroke-width:1;" x1="316.2383" x2="326.2383" y1="797.2754" y2="793.2754"/><line style="stroke:#4B5563;stroke-width:1;" x1="316.2383" x2="326.2383" y1="797.2754" y2="801.2754"/><text fill="#000000" font-family="sans-serif" font-size="13" lengthAdjust="spacing" textLength="233.1367" x="322.2383" y="779.5332">Update state (status: error, message)</text></g><line style="stroke:#000000;stroke-width:1;stroke-dasharray:2,2;" x1="248.2207" x2="797.9932" y1="813.2754" y2="813.2754"/><text fill="#000000" font-family="sans-serif" font-size="11" font-weight="700" lengthAdjust="spacing" textLength="80.2817" x="253.2207" y="823.9102">[Job Disabled]</text><g class="message" data-entity-1="part2" data-entity-2="part2" data-source-line="41" id="msg18"><line style="stroke:#4B5563;stroke-width:1;" x1="315.2383" x2="357.2383" y1="848.541" y2="848.541"/><line style="stroke:#4B5563;stroke-width:1;" x1="357.2383" x2="357.2383" y1="848.541" y2="861.541"/><line style="stroke:#4B5563;stroke-width:1;" x1="315.2383" x2="357.2383" y1="861.541" y2="861.541"/><line style="stroke:#4B5563;stroke-width:1;" x1="316.2383" x2="326.2383" y1="861.541" y2="857.541"/><line style="stroke:#4B5563;stroke-width:1;" x1="316.2383" x2="326.2383" y1="861.541" y2="865.541"/><text fill="#000000" font-family="sans-serif" font-size="13" lengthAdjust="spacing" textLength="92.5107" x="322.2383" y="843.7988">Skip execution</text></g><path d="M258.2207,883.541 L320.3594,883.541 L320.3594,890.8516 L310.3594,900.8516 L258.2207,900.8516 L258.2207,883.541" fill="#EEEEEE" style="stroke:#000000;stroke-width:1.5;"/><rect fill="none" height="116.8867" style="stroke:#000000;stroke-width:1.5;" width="206.7983" x="258.2207" y="883.541"/><text fill="#000000" font-family="sans-serif" font-size="13" font-weight="700" lengthAdjust="spacing" textLength="17.1387" x="273.2207" y="897.1094">alt</text><text fill="#000000" font-family="sans-serif" font-size="11" font-weight="700" lengthAdjust="spacing" textLength="85.3735" x="335.3594" y="896.1758">[One-shot Job]</text><g class="message" data-entity-1="part2" data-entity-2="part2" data-source-line="44" id="msg19"><line style="stroke:#4B5563;stroke-width:1;" x1="315.2383" x2="357.2383" y1="922.1621" y2="922.1621"/><line style="stroke:#4B5563;stroke-width:1;" x1="357.2383" x2="357.2383" y1="922.1621" y2="935.1621"/><line style="stroke:#4B5563;stroke-width:1;" x1="315.2383" x2="357.2383" y1="935.1621" y2="935.1621"/><line style="stroke:#4B5563;stroke-width:1;" x1="316.2383" x2="326.2383" y1="935.1621" y2="931.1621"/><line style="stroke:#4B5563;stroke-width:1;" x1="316.2383" x2="326.2383" y1="935.1621" y2="939.1621"/><text fill="#000000" font-family="sans-serif" font-size="13" lengthAdjust="spacing" textLength="130.7808" x="322.2383" y="917.4199">Disable or delete job</text></g><line style="stroke:#000000;stroke-width:1;stroke-dasharray:2,2;" x1="258.2207" x2="465.019" y1="944.1621" y2="944.1621"/><text fill="#000000" font-family="sans-serif" font-size="11" font-weight="700" lengthAdjust="spacing" textLength="119.1738" x="263.2207" y="954.7969">[Recurring/Cron Job]</text><g class="message" data-entity-1="part2" data-entity-2="part2" data-source-line="46" id="msg20"><line style="stroke:#4B5563;stroke-width:1;" x1="315.2383" x2="357.2383" y1="979.4277" y2="979.4277"/><line style="stroke:#4B5563;stroke-width:1;" x1="357.2383" x2="357.2383" y1="979.4277" y2="992.4277"/><line style="stroke:#4B5563;stroke-width:1;" x1="315.2383" x2="357.2383" y1="992.4277" y2="992.4277"/><line style="stroke:#4B5563;stroke-width:1;" x1="316.2383" x2="326.2383" y1="992.4277" y2="988.4277"/><line style="stroke:#4B5563;stroke-width:1;" x1="316.2383" x2="326.2383" y1="992.4277" y2="996.4277"/><text fill="#000000" font-family="sans-serif" font-size="13" lengthAdjust="spacing" textLength="117.6855" x="322.2383" y="974.6855">Compute next_run</text></g><g class="message" data-entity-1="part2" data-entity-2="part3" data-source-line="48" id="msg21"><line style="stroke:#4B5563;stroke-width:1;" x1="560.375" x2="550.375" y1="1028.7383" y2="1024.7383"/><line style="stroke:#4B5563;stroke-width:1;" x1="560.375" x2="550.375" y1="1028.7383" y2="1032.7383"/><line style="stroke:#4B5563;stroke-width:1;" x1="315.2383" x2="561.375" y1="1028.7383" y2="1028.7383"/><text fill="#000000" font-family="sans-serif" font-size="13" lengthAdjust="spacing" textLength="119.0503" x="322.2383" y="1023.9961">Save updated state</text></g><g class="message" data-entity-1="part2" data-entity-2="part4" data-source-line="49" id="msg22"><line style="stroke:#4B5563;stroke-width:1;" x1="632.459" x2="622.459" y1="1058.0488" y2="1054.0488"/><line style="stroke:#4B5563;stroke-width:1;" x1="632.459" x2="622.459" y1="1058.0488" y2="1062.0488"/><line style="stroke:#4B5563;stroke-width:1;" x1="315.2383" x2="633.459" y1="1058.0488" y2="1058.0488"/><text fill="#000000" font-family="sans-serif" font-size="13" lengthAdjust="spacing" textLength="118.79" x="322.2383" y="1053.3066">Rearm for next job</text></g><?plantuml-src fLHHRzCm47xlhpXjBvkqQYhReFHXqkWwQQWQg0LUAoUvDAQk7Mod7I3-EsUxoP8qj21U4jlttNTtt_biLbpcJBCrH2nUBRKgP39MGccmcab39fIsPogKoLYYjbmk8MN2ODs2tmgKCSBF7i2TrceRU4wlevkRrrVkCBPAlrCwGTqsJNcAKownONrxpQwY8La_Ccrvp7CcRRTx7T0gupGTfYoDcw079UtEF1WCXg_Uz7uH021_WS39M72g_GIOWR3iW6WbvwWtFCQ0UzdlWz-hQ4u216IvsOTzuclK7kDN-u2x9ULoESwOb2Wyq9yiTYVUuKbP1BL1NKy9Hb2k7YMtd0d-Wrckf7Uf0VktjsL-8vWgba2Esd1ZCO6lAZ8UNoBwXAxvZc26jj3I0q6GKmTx0pzMwxoWT2K-Mz2514jrcmulhyU8xjRQGpIar43lHR7QPVkEkOhZ39D283pXrkKSUBsrdOZPGSyaM-D5jRqW-RyBKk7yM2LVID64KGgbwz7IDJguEwFKOCjj1e_t_oBOWWGxsBuvss3eXLMGSBFwix0pP9MqF0NQaKnw3-_IyVhLMxtWIQi3dfGQ4FuFNEzwwlVjaYRF6BkISfI9UrpAXXvI8SDuvVEKB18OmZDXNPDXKZlRvsdCIoruQ7Fbr81rN7DJ25k1NUHv4STeJ7Lsf8BFURWirdtFtAymT0i3oNd5WlJEmeGULFr_nEWeBe1cox0brlXbADd7SUBTStD8lKQe-OhdW5x0yY4f-PmY7oJsJQPiDNb7w7QXWGOxGO4MgvlWivjH7AtfWbmwhxybxPoNCik3SrDu8PEWvB71gRz6lm40?></g></svg>