<svg xmlns="http://www.w3.org/2000/svg" xmlns:xlink="http://www.w3.org/1999/xlink" contentStyleType="text/css" data-diagram-type="SEQUENCE" height="775px" preserveAspectRatio="none" style="width:1021px;height:775px;background:#FFFFFF;" version="1.1" viewBox="0 0 1021 775" width="1021px" zoomAndPan="magnify"><?plantuml 1.2026.5?><defs/><rect data-xfeat-white-canvas="true" fill="#FFFFFF" height="100%" width="100%" x="0" y="0"/><g><rect fill="#F8FAFC" height="271" rx="4" ry="4" style="stroke:#CBD5E1;stroke-width:1.5;" width="996.9209" x="9" y="51"/><rect fill="#F8FAFC" height="219" rx="4" ry="4" style="stroke:#CBD5E1;stroke-width:1.5;" width="864.4531" x="9" y="336"/><rect fill="#F8FAFC" height="154" rx="4" ry="4" style="stroke:#CBD5E1;stroke-width:1.5;" width="498.0693" x="79.2881" y="569"/><g class="participant-lifeline" data-entity-uid="part1" data-qualified-name="User" data-source-line="2" id="part1-lifeline"><g><title>User</title><rect fill="#000000" fill-opacity="0.00000" height="706" width="8" x="40.7793" y="34"/><line style="stroke:#94A3B8;stroke-width:0.5;stroke-dasharray:5,5;" x1="44" x2="44" y1="34" y2="740"/></g></g><g class="participant-lifeline" data-entity-uid="part2" data-qualified-name="Platform" data-source-line="3" id="part2-lifeline"><g><title>Messaging Platform</title><rect fill="#000000" fill-opacity="0.00000" height="706" width="8" x="154.1465" y="34"/><line style="stroke:#94A3B8;stroke-width:0.5;stroke-dasharray:5,5;" x1="157.2881" x2="157.2881" y1="34" y2="740"/></g></g><g class="participant-lifeline" data-entity-uid="part3" data-qualified-name="Channel" data-source-line="4" id="part3-lifeline"><g><title>Channel Implementation</title><rect fill="#000000" fill-opacity="0.00000" height="706" width="8" x="315.8838" y="34"/><line style="stroke:#94A3B8;stroke-width:0.5;stroke-dasharray:5,5;" x1="319.0049" x2="319.0049" y1="34" y2="740"/></g></g><g class="participant-lifeline" data-entity-uid="part4" data-qualified-name="Manager" data-source-line="5" id="part4-lifeline"><g><title>ChannelManager</title><rect fill="#000000" fill-opacity="0.00000" height="706" width="8" x="494.6592" y="34"/><line style="stroke:#94A3B8;stroke-width:0.5;stroke-dasharray:5,5;" x1="497.9561" x2="497.9561" y1="34" y2="740"/></g></g><g class="participant-lifeline" data-entity-uid="part5" data-qualified-name="Bus" data-source-line="6" id="part5-lifeline"><g><title>Message Bus</title><rect fill="#000000" fill-opacity="0.00000" height="706" width="8" x="675.3975" y="34"/><line style="stroke:#94A3B8;stroke-width:0.5;stroke-dasharray:5,5;" x1="678.9873" x2="678.9873" y1="34" y2="740"/></g></g><g class="participant-lifeline" data-entity-uid="part6" data-qualified-name="Core" data-source-line="7" id="part6-lifeline"><g><title>Bot Core</title><rect fill="#000000" fill-opacity="0.00000" height="706" width="8" x="824.8291" y="34"/><line style="stroke:#94A3B8;stroke-width:0.5;stroke-dasharray:5,5;" x1="828.2051" x2="828.2051" y1="34" y2="740"/></g></g><g class="participant participant-head" data-entity-uid="part1" data-qualified-name="User" data-source-line="2" id="part1-head"><rect fill="#F8FAFC" height="28" rx="4" ry="4" style="stroke:#475569;stroke-width:0.5;" width="43.5586" x="23" y="5"/><text fill="#0F172A" font-family="Helvetica" font-size="14" lengthAdjust="spacing" textLength="29.5586" x="30" y="22.7803">User</text></g><g class="participant participant-tail" data-entity-uid="part1" data-qualified-name="User" data-source-line="2" id="part1-tail"><rect fill="#F8FAFC" height="28" rx="4" ry="4" style="stroke:#475569;stroke-width:0.5;" width="43.5586" x="23" y="739"/><text fill="#0F172A" font-family="Helvetica" font-size="14" lengthAdjust="spacing" textLength="29.5586" x="30" y="756.7803">User</text></g><g class="participant participant-head" data-entity-uid="part2" data-qualified-name="Platform" data-source-line="3" id="part2-head"><rect fill="#F8FAFC" height="28" rx="4" ry="4" style="stroke:#475569;stroke-width:0.5;" width="137.7168" x="89.2881" y="5"/><text fill="#0F172A" font-family="Helvetica" font-size="14" lengthAdjust="spacing" textLength="123.7168" x="96.2881" y="22.7803">Messaging Platform</text></g><g class="participant participant-tail" data-entity-uid="part2" data-qualified-name="Platform" data-source-line="3" id="part2-tail"><rect fill="#F8FAFC" height="28" rx="4" ry="4" style="stroke:#475569;stroke-width:0.5;" width="137.7168" x="89.2881" y="739"/><text fill="#0F172A" font-family="Helvetica" font-size="14" lengthAdjust="spacing" textLength="123.7168" x="96.2881" y="756.7803">Messaging Platform</text></g><g class="participant participant-head" data-entity-uid="part3" data-qualified-name="Channel" data-source-line="4" id="part3-head"><rect fill="#F8FAFC" height="28" rx="4" ry="4" style="stroke:#475569;stroke-width:0.5;" width="165.7578" x="237.0049" y="5"/><text fill="#0F172A" font-family="Helvetica" font-size="14" lengthAdjust="spacing" textLength="151.7578" x="244.0049" y="22.7803">Channel Implementation</text></g><g class="participant participant-tail" data-entity-uid="part3" data-qualified-name="Channel" data-source-line="4" id="part3-tail"><rect fill="#F8FAFC" height="28" rx="4" ry="4" style="stroke:#475569;stroke-width:0.5;" width="165.7578" x="237.0049" y="739"/><text fill="#0F172A" font-family="Helvetica" font-size="14" lengthAdjust="spacing" textLength="151.7578" x="244.0049" y="756.7803">Channel Implementation</text></g><g class="participant participant-head" data-entity-uid="part4" data-qualified-name="Manager" data-source-line="5" id="part4-head"><rect fill="#F8FAFC" height="28" rx="4" ry="4" style="stroke:#475569;stroke-width:0.5;" width="121.4063" x="437.9561" y="5"/><text fill="#0F172A" font-family="Helvetica" font-size="14" lengthAdjust="spacing" textLength="107.4063" x="444.9561" y="22.7803">ChannelManager</text></g><g class="participant participant-tail" data-entity-uid="part4" data-qualified-name="Manager" data-source-line="5" id="part4-tail"><rect fill="#F8FAFC" height="28" rx="4" ry="4" style="stroke:#475569;stroke-width:0.5;" width="121.4063" x="437.9561" y="739"/><text fill="#0F172A" font-family="Helvetica" font-size="14" lengthAdjust="spacing" textLength="107.4063" x="444.9561" y="756.7803">ChannelManager</text></g><g class="participant participant-head" data-entity-uid="part5" data-qualified-name="Bus" data-source-line="6" id="part5-head"><rect fill="#F8FAFC" height="28" rx="4" ry="4" style="stroke:#475569;stroke-width:0.5;" width="98.8203" x="629.9873" y="5"/><text fill="#0F172A" font-family="Helvetica" font-size="14" lengthAdjust="spacing" textLength="84.8203" x="636.9873" y="22.7803">Message Bus</text></g><g class="participant participant-tail" data-entity-uid="part5" data-qualified-name="Bus" data-source-line="6" id="part5-tail"><rect fill="#F8FAFC" height="28" rx="4" ry="4" style="stroke:#475569;stroke-width:0.5;" width="98.8203" x="629.9873" y="739"/><text fill="#0F172A" font-family="Helvetica" font-size="14" lengthAdjust="spacing" textLength="84.8203" x="636.9873" y="756.7803">Message Bus</text></g><g class="participant participant-head" data-entity-uid="part6" data-qualified-name="Core" data-source-line="7" id="part6-head"><rect fill="#F8FAFC" height="28" rx="4" ry="4" style="stroke:#475569;stroke-width:0.5;" width="69.248" x="794.2051" y="5"/><text fill="#0F172A" font-family="Helvetica" font-size="14" lengthAdjust="spacing" textLength="55.248" x="801.2051" y="22.7803">Bot Core</text></g><g class="participant participant-tail" data-entity-uid="part6" data-qualified-name="Core" data-source-line="7" id="part6-tail"><rect fill="#F8FAFC" height="28" rx="4" ry="4" style="stroke:#475569;stroke-width:0.5;" width="69.248" x="794.2051" y="739"/><text fill="#0F172A" font-family="Helvetica" font-size="14" lengthAdjust="spacing" textLength="55.248" x="801.2051" y="756.7803">Bot Core</text></g><path d="M13,51 L216.6475,51 L216.6475,57 L206.6475,67 L9,67 L9,55 A4,4 0 0 1 13,51" fill="#F8FAFC" style="stroke:#CBD5E1;stroke-width:1.5;"/><rect fill="none" height="271" rx="4" ry="4" style="stroke:#CBD5E1;stroke-width:1.5;" width="996.9209" x="9" y="51"/><text fill="#0F172A" font-family="Helvetica" font-size="14" font-weight="700" lengthAdjust="spacing" textLength="162.6475" x="24" y="62.7803">Phase rgb(230, 245, 255)</text><path d="M19,76 L19,92 A4,4 0 0 0 23,96 L850,96 A4,4 0 0 0 854,92 L854,82 L844,72 L23,72 A4,4 0 0 0 19,76" fill="#FFF7ED" style="stroke:#FDBA74;stroke-width:0.5;"/><path d="M844,72 L844,80 A2,2 0 0 0 846,82 L854,82 L844,72" fill="#FFF7ED" style="stroke:#FDBA74;stroke-width:0.5;"/><text fill="#7C2D12" font-family="Helvetica" font-size="14" lengthAdjust="spacing" textLength="144.751" x="364.3511" y="87.7803">Inbound Message Flow</text><g class="message" data-entity-1="part1" data-entity-2="part2" data-source-line="10" id="msg1"><line style="stroke:#64748B;stroke-width:1.1;" x1="156.1465" x2="146.1465" y1="119" y2="115"/><line style="stroke:#64748B;stroke-width:1.1;" x1="156.1465" x2="146.1465" y1="119" y2="123"/><line style="stroke:#64748B;stroke-width:1.1;" x1="44.7793" x2="157.1465" y1="119" y2="119"/><text fill="#334155" font-family="Helvetica" font-size="12" lengthAdjust="spacing" textLength="86.0508" x="58.4375" y="114.2402">Sends message</text></g><g class="message" data-entity-1="part2" data-entity-2="part3" data-source-line="11" id="msg2"><line style="stroke:#64748B;stroke-width:1.1;" x1="317.8838" x2="307.8838" y1="145" y2="141"/><line style="stroke:#64748B;stroke-width:1.1;" x1="317.8838" x2="307.8838" y1="145" y2="149"/><line style="stroke:#64748B;stroke-width:1.1;" x1="158.1465" x2="318.8838" y1="145" y2="145"/><text fill="#334155" font-family="Helvetica" font-size="12" lengthAdjust="spacing" textLength="112.7461" x="182.6421" y="140.2402">Push/Long-poll event</text></g><g class="message" data-entity-1="part3" data-entity-2="part3" data-source-line="12" id="msg3"><line style="stroke:#64748B;stroke-width:1.1;" x1="319.8838" x2="361.8838" y1="171" y2="171"/><line style="stroke:#64748B;stroke-width:1.1;" x1="361.8838" x2="361.8838" y1="171" y2="184"/><line style="stroke:#64748B;stroke-width:1.1;" x1="319.8838" x2="361.8838" y1="184" y2="184"/><line style="stroke:#64748B;stroke-width:1.1;" x1="320.8838" x2="330.8838" y1="184" y2="180"/><line style="stroke:#64748B;stroke-width:1.1;" x1="320.8838" x2="330.8838" y1="184" y2="188"/><text fill="#334155" font-family="Helvetica" font-size="12" lengthAdjust="spacing" textLength="136.7285" x="326.8838" y="166.2402">Validate sender (allowlist)</text></g><g class="message" data-entity-1="part3" data-entity-2="part3" data-source-line="13" id="msg4"><line style="stroke:#64748B;stroke-width:1.1;" x1="319.8838" x2="361.8838" y1="210" y2="210"/><line style="stroke:#64748B;stroke-width:1.1;" x1="361.8838" x2="361.8838" y1="210" y2="223"/><line style="stroke:#64748B;stroke-width:1.1;" x1="319.8838" x2="361.8838" y1="223" y2="223"/><line style="stroke:#64748B;stroke-width:1.1;" x1="320.8838" x2="330.8838" y1="223" y2="219"/><line style="stroke:#64748B;stroke-width:1.1;" x1="320.8838" x2="330.8838" y1="223" y2="227"/><text fill="#334155" font-family="Helvetica" font-size="12" lengthAdjust="spacing" textLength="121.4004" x="326.8838" y="205.2402">Parse content &amp; media</text></g><g class="message" data-entity-1="part3" data-entity-2="part5" data-source-line="14" id="msg5"><line style="stroke:#64748B;stroke-width:1.1;" x1="677.3975" x2="667.3975" y1="249" y2="245"/><line style="stroke:#64748B;stroke-width:1.1;" x1="677.3975" x2="667.3975" y1="249" y2="253"/><line style="stroke:#64748B;stroke-width:1.1;" x1="319.8838" x2="678.3975" y1="249" y2="249"/><text fill="#334155" font-family="Helvetica" font-size="12" lengthAdjust="spacing" textLength="118.0898" x="440.5957" y="244.2402">Publish inbound event</text></g><g class="message" data-entity-1="part5" data-entity-2="part6" data-source-line="15" id="msg6"><line style="stroke:#64748B;stroke-width:1.1;" x1="826.8291" x2="816.8291" y1="275" y2="271"/><line style="stroke:#64748B;stroke-width:1.1;" x1="826.8291" x2="816.8291" y1="275" y2="279"/><line style="stroke:#64748B;stroke-width:1.1;" x1="679.3975" x2="827.8291" y1="275" y2="275"/><text fill="#334155" font-family="Helvetica" font-size="12" lengthAdjust="spacing" textLength="103.3828" x="702.4219" y="270.2402">Consume message</text></g><g class="message" data-entity-1="part6" data-entity-2="part6" data-source-line="16" id="msg7"><line style="stroke:#64748B;stroke-width:1.1;" x1="828.8291" x2="870.8291" y1="301" y2="301"/><line style="stroke:#64748B;stroke-width:1.1;" x1="870.8291" x2="870.8291" y1="301" y2="314"/><line style="stroke:#64748B;stroke-width:1.1;" x1="828.8291" x2="870.8291" y1="314" y2="314"/><line style="stroke:#64748B;stroke-width:1.1;" x1="829.8291" x2="839.8291" y1="314" y2="310"/><line style="stroke:#64748B;stroke-width:1.1;" x1="829.8291" x2="839.8291" y1="314" y2="318"/><text fill="#334155" font-family="Helvetica" font-size="12" lengthAdjust="spacing" textLength="158.0918" x="835.8291" y="296.2402">Process &amp; generate response</text></g><path d="M13,336 L216.6475,336 L216.6475,342 L206.6475,352 L9,352 L9,340 A4,4 0 0 1 13,336" fill="#F8FAFC" style="stroke:#CBD5E1;stroke-width:1.5;"/><rect fill="none" height="219" rx="4" ry="4" style="stroke:#CBD5E1;stroke-width:1.5;" width="864.4531" x="9" y="336"/><text fill="#0F172A" font-family="Helvetica" font-size="14" font-weight="700" lengthAdjust="spacing" textLength="162.6475" x="24" y="347.7803">Phase rgb(255, 243, 224)</text><path d="M19,361 L19,377 A4,4 0 0 0 23,381 L850,381 A4,4 0 0 0 854,377 L854,367 L844,357 L23,357 A4,4 0 0 0 19,361" fill="#FFF7ED" style="stroke:#FDBA74;stroke-width:0.5;"/><path d="M844,357 L844,365 A2,2 0 0 0 846,367 L854,367 L844,357" fill="#FFF7ED" style="stroke:#FDBA74;stroke-width:0.5;"/><text fill="#7C2D12" font-family="Helvetica" font-size="14" lengthAdjust="spacing" textLength="155.6406" x="358.9063" y="372.7803">Outbound Message Flow</text><g class="message" data-entity-1="part6" data-entity-2="part5" data-source-line="20" id="msg8"><line style="stroke:#64748B;stroke-width:1.1;" x1="680.3975" x2="690.3975" y1="404" y2="400"/><line style="stroke:#64748B;stroke-width:1.1;" x1="680.3975" x2="690.3975" y1="404" y2="408"/><line style="stroke:#64748B;stroke-width:1.1;" x1="679.3975" x2="827.8291" y1="404" y2="404"/><text fill="#334155" font-family="Helvetica" font-size="12" lengthAdjust="spacing" textLength="125.4316" x="691.3975" y="399.2402">Publish outbound event</text></g><g class="message" data-entity-1="part5" data-entity-2="part4" data-source-line="21" id="msg9"><line style="stroke:#64748B;stroke-width:1.1;" x1="499.6592" x2="509.6592" y1="430" y2="426"/><line style="stroke:#64748B;stroke-width:1.1;" x1="499.6592" x2="509.6592" y1="430" y2="434"/><line style="stroke:#64748B;stroke-width:1.1;" x1="498.6592" x2="678.3975" y1="430" y2="430"/><text fill="#334155" font-family="Helvetica" font-size="12" lengthAdjust="spacing" textLength="156.7383" x="510.6592" y="425.2402">Dispatcher picks up message</text></g><g class="message" data-entity-1="part4" data-entity-2="part3" data-source-line="22" id="msg10"><line style="stroke:#64748B;stroke-width:1.1;" x1="320.8838" x2="330.8838" y1="456" y2="452"/><line style="stroke:#64748B;stroke-width:1.1;" x1="320.8838" x2="330.8838" y1="456" y2="460"/><line style="stroke:#64748B;stroke-width:1.1;" x1="319.8838" x2="497.6592" y1="456" y2="456"/><text fill="#334155" font-family="Helvetica" font-size="12" lengthAdjust="spacing" textLength="154.7754" x="331.8838" y="451.2402">Route to appropriate channel</text></g><g class="message" data-entity-1="part3" data-entity-2="part3" data-source-line="23" id="msg11"><line style="stroke:#64748B;stroke-width:1.1;" x1="319.8838" x2="361.8838" y1="482" y2="482"/><line style="stroke:#64748B;stroke-width:1.1;" x1="361.8838" x2="361.8838" y1="482" y2="495"/><line style="stroke:#64748B;stroke-width:1.1;" x1="319.8838" x2="361.8838" y1="495" y2="495"/><line style="stroke:#64748B;stroke-width:1.1;" x1="320.8838" x2="330.8838" y1="495" y2="491"/><line style="stroke:#64748B;stroke-width:1.1;" x1="320.8838" x2="330.8838" y1="495" y2="499"/><text fill="#334155" font-family="Helvetica" font-size="12" lengthAdjust="spacing" textLength="102.0234" x="326.8838" y="477.2402">Format for platform</text></g><g class="message" data-entity-1="part3" data-entity-2="part2" data-source-line="24" id="msg12"><line style="stroke:#64748B;stroke-width:1.1;" x1="159.1465" x2="169.1465" y1="521" y2="517"/><line style="stroke:#64748B;stroke-width:1.1;" x1="159.1465" x2="169.1465" y1="521" y2="525"/><line style="stroke:#64748B;stroke-width:1.1;" x1="158.1465" x2="318.8838" y1="521" y2="521"/><text fill="#334155" font-family="Helvetica" font-size="12" lengthAdjust="spacing" textLength="134.0684" x="171.981" y="516.2402">Send via API/WebSocket</text></g><g class="message" data-entity-1="part2" data-entity-2="part1" data-source-line="25" id="msg13"><line style="stroke:#64748B;stroke-width:1.1;" x1="45.7793" x2="55.7793" y1="547" y2="543"/><line style="stroke:#64748B;stroke-width:1.1;" x1="45.7793" x2="55.7793" y1="547" y2="551"/><line style="stroke:#64748B;stroke-width:1.1;" x1="44.7793" x2="157.1465" y1="547" y2="547"/><text fill="#334155" font-family="Helvetica" font-size="12" lengthAdjust="spacing" textLength="89.3672" x="56.7793" y="542.2402">Deliver message</text></g><path d="M83.2881,569 L286.9355,569 L286.9355,575 L276.9355,585 L79.2881,585 L79.2881,573 A4,4 0 0 1 83.2881,569" fill="#F8FAFC" style="stroke:#CBD5E1;stroke-width:1.5;"/><rect fill="none" height="154" rx="4" ry="4" style="stroke:#CBD5E1;stroke-width:1.5;" width="498.0693" x="79.2881" y="569"/><text fill="#0F172A" font-family="Helvetica" font-size="14" font-weight="700" lengthAdjust="spacing" textLength="162.6475" x="94.2881" y="580.7803">Phase rgb(232, 245, 233)</text><path d="M250,594 L250,610 A4,4 0 0 0 254,614 L563,614 A4,4 0 0 0 567,610 L567,600 L557,590 L254,590 A4,4 0 0 0 250,594" fill="#FFF7ED" style="stroke:#FDBA74;stroke-width:0.5;"/><path d="M557,590 L557,598 A2,2 0 0 0 559,600 L567,600 L557,590" fill="#FFF7ED" style="stroke:#FDBA74;stroke-width:0.5;"/><text fill="#7C2D12" font-family="Helvetica" font-size="14" lengthAdjust="spacing" textLength="140.0752" x="338.6411" y="605.7803">Lifecycle Management</text><g class="message" data-entity-1="part4" data-entity-2="part3" data-source-line="29" id="msg14"><line style="stroke:#64748B;stroke-width:1.1;" x1="320.8838" x2="330.8838" y1="637" y2="633"/><line style="stroke:#64748B;stroke-width:1.1;" x1="320.8838" x2="330.8838" y1="637" y2="641"/><line style="stroke:#64748B;stroke-width:1.1;" x1="319.8838" x2="497.6592" y1="637" y2="637"/><text fill="#334155" font-family="Helvetica" font-size="12" lengthAdjust="spacing" textLength="146.7246" x="335.9092" y="632.2402">start() - Initialize connection</text></g><g class="message" data-entity-1="part3" data-entity-2="part2" data-source-line="30" id="msg15"><line style="stroke:#64748B;stroke-width:1.1;" x1="159.1465" x2="169.1465" y1="663" y2="659"/><line style="stroke:#64748B;stroke-width:1.1;" x1="159.1465" x2="169.1465" y1="663" y2="667"/><line style="stroke:#64748B;stroke-width:1.1;" x1="158.1465" x2="318.8838" y1="663" y2="663"/><text fill="#334155" font-family="Helvetica" font-size="12" lengthAdjust="spacing" textLength="110.0684" x="183.981" y="658.2402">Establish connection</text></g><g class="message" data-entity-1="part4" data-entity-2="part3" data-source-line="31" id="msg16"><line style="stroke:#64748B;stroke-width:1.1;" x1="320.8838" x2="330.8838" y1="689" y2="685"/><line style="stroke:#64748B;stroke-width:1.1;" x1="320.8838" x2="330.8838" y1="689" y2="693"/><line style="stroke:#64748B;stroke-width:1.1;" x1="319.8838" x2="497.6592" y1="689" y2="689"/><text fill="#334155" font-family="Helvetica" font-size="12" lengthAdjust="spacing" textLength="141.3926" x="338.5752" y="684.2402">stop() - Graceful shutdown</text></g><g class="message" data-entity-1="part3" data-entity-2="part2" data-source-line="32" id="msg17"><line style="stroke:#64748B;stroke-width:1.1;" x1="159.1465" x2="169.1465" y1="715" y2="711"/><line style="stroke:#64748B;stroke-width:1.1;" x1="159.1465" x2="169.1465" y1="715" y2="719"/><line style="stroke:#64748B;stroke-width:1.1;" x1="158.1465" x2="318.8838" y1="715" y2="715"/><text fill="#334155" font-family="Helvetica" font-size="12" lengthAdjust="spacing" textLength="92.0566" x="192.9868" y="710.2402">Close connection</text></g><?plantuml-src XLHDZzCm4BtpAuOze5PgMTIFImuhiOL5bNOXOWMSfyuqiTQnBTlf2duzuzIfKfAM759NVi_ptlDCtaejL5CGM6VsvBqq6jKyL5JJUzdKwWtmOz45AQH57U3cXoTt0-WXBeRRJtm8bbANa2iCU-Fg5jpz6H8s5MfD2hQrLLnL1mmieYMbhOkS9zHO9ZLfVKaGmNtZMo3_3a7t9i36E3gMvKKBAPrfBEGLUW9NxYQBvOSPB5PhVgtNqnOIdwyc49W3kJQIMQH31bkzCuqkeAl_eCphYHA1yxkxBfKCdaaN7keZzWJhzXcQB6UGDxwwVJIwd5kZ5D218piH4ggF_ubA5iWAFPTWZHDKh4H97wRNQ3awTYsC3dm-l6DfXSGH0iSPDUtum0faydmkYY7nP8ubusorRseQE8sx9r3kZE1zhbgI9XV5E_AMgKS26nc_dtMycjMINulL_-xdMnEkN53IS-RET8mnUwd_ClWalSKWAYvdfNZnm1B_TPl0_Ro_y-a4mG1Q7aNhP7GjUWDmuPuUk3qm07S9sFwCdSFF6mqE4k5ZlhtzHRjd8rueZ7LS38lja98nkhw5Y_al5zryB9TZ-IVVisxcCtYKUnA_XQAqL_UJ7Od91nxRoHJcF5yoIExjFssNQXBnit7L-cSc7szoX31QozYsr1U7WlQD0byreJ2lryjibF43JHpPNm00?></g></svg>