<svg xmlns="http://www.w3.org/2000/svg" xmlns:xlink="http://www.w3.org/1999/xlink" contentStyleType="text/css" data-diagram-type="DESCRIPTION" height="923px" preserveAspectRatio="none" style="width:1468px;height:923px;" version="1.1" viewBox="0 0 1468 923" width="1468px" zoomAndPan="magnify"><?plantuml 1.2026.5?><defs><style><![CDATA[
@media (prefers-color-scheme: dark) {
  text { fill: #e5e7eb !important; }
  path, line, rect, circle, ellipse, polygon, polyline { stroke: #cbd5e1 !important; }
  .entity rect, .participant rect, .participant path, .sequenceLine rect, .class rect, .component rect, .component path, .note rect { fill: #111827 !important; }
  .cluster path { fill: none !important; }
  polygon { fill: #cbd5e1 !important; }
}
]]></style></defs><g><!--cluster Skill_Creator_Component--><g class="cluster" data-qualified-name="Skill_Creator_Component" data-source-line="13" id="ent0001"><path d="M247.5,6 L424.9697,6 A3.75,3.75 0 0 1 427.4697,8.5 L434.4697,28.4883 L967.5,28.4883 A2.5,2.5 0 0 1 970,30.9883 L970,107.48 A2.5,2.5 0 0 1 967.5,109.98 L247.5,109.98 A2.5,2.5 0 0 1 245,107.48 L245,8.5 A2.5,2.5 0 0 1 247.5,6" fill="none" style="stroke:#64748B;stroke-width:1.5;"/><line style="stroke:#64748B;stroke-width:1.5;" x1="245" x2="434.4697" y1="28.4883" y2="28.4883"/><text fill="#000000" font-family="sans-serif" font-size="14" font-weight="700" lengthAdjust="spacing" textLength="176.4697" x="249" y="21.5352">Skill Creator Component</text></g><!--cluster Skill_Creation_Workflow--><g class="cluster" data-qualified-name="Skill_Creation_Workflow" data-source-line="18" id="ent0005"><path d="M8.5,158.98 L178.5732,158.98 A3.75,3.75 0 0 1 181.0732,161.48 L188.0732,181.4683 L402.5,181.4683 A2.5,2.5 0 0 1 405,183.9683 L405,906.34 A2.5,2.5 0 0 1 402.5,908.84 L8.5,908.84 A2.5,2.5 0 0 1 6,906.34 L6,161.48 A2.5,2.5 0 0 1 8.5,158.98" fill="none" style="stroke:#64748B;stroke-width:1.5;"/><line style="stroke:#64748B;stroke-width:1.5;" x1="6" x2="188.0732" y1="181.4683" y2="181.4683"/><text fill="#000000" font-family="sans-serif" font-size="14" font-weight="700" lengthAdjust="spacing" textLength="169.0732" x="10" y="174.5152">Skill Creation Workflow</text></g><!--cluster Generated_Skill_Structure--><g class="cluster" data-qualified-name="Generated_Skill_Structure" data-source-line="26" id="ent0012"><path d="M431.5,553.91 L612.1484,553.91 A3.75,3.75 0 0 1 614.6484,556.41 L621.6484,576.3983 L1289.5,576.3983 A2.5,2.5 0 0 1 1292,578.8983 L1292,655.39 A2.5,2.5 0 0 1 1289.5,657.89 L431.5,657.89 A2.5,2.5 0 0 1 429,655.39 L429,556.41 A2.5,2.5 0 0 1 431.5,553.91" fill="none" style="stroke:#64748B;stroke-width:1.5;"/><line style="stroke:#64748B;stroke-width:1.5;" x1="429" x2="621.6484" y1="576.3983" y2="576.3983"/><text fill="#000000" font-family="sans-serif" font-size="14" font-weight="700" lengthAdjust="spacing" textLength="179.6484" x="433" y="569.4452">Generated Skill Structure</text></g><!--cluster Output--><g class="cluster" data-qualified-name="Output" data-source-line="32" id="ent0017"><path d="M431.5,804.86 L483.0381,804.86 A3.75,3.75 0 0 1 485.5381,807.36 L492.5381,827.3483 L652.5,827.3483 A2.5,2.5 0 0 1 655,829.8483 L655,906.34 A2.5,2.5 0 0 1 652.5,908.84 L431.5,908.84 A2.5,2.5 0 0 1 429,906.34 L429,807.36 A2.5,2.5 0 0 1 431.5,804.86" fill="none" style="stroke:#64748B;stroke-width:1.5;"/><line style="stroke:#64748B;stroke-width:1.5;" x1="429" x2="492.5381" y1="827.3483" y2="827.3483"/><text fill="#000000" font-family="sans-serif" font-size="14" font-weight="700" lengthAdjust="spacing" textLength="50.5381" x="433" y="820.3952">Output</text></g><!--entity SKILL_MD--><g class="entity" data-qualified-name="Skill_Creator_Component.SKILL_MD" data-source-line="14" id="ent0002"><rect fill="#F8FAFC" height="52.9766" rx="2.5" ry="2.5" style="stroke:#4B5563;stroke-width:0.5;" width="282.9375" x="260.53" y="41"/><text fill="#111827" font-family="sans-serif" font-size="14" lengthAdjust="spacing" textLength="61.9541" x="371.0217" y="64.5352">SKILL.md</text><text fill="#111827" font-family="sans-serif" font-size="14" lengthAdjust="spacing" textLength="262.9375" x="270.53" y="81.0234">Design Specification &amp; Workflow Guide</text></g><!--entity INIT--><g class="entity" data-qualified-name="Skill_Creator_Component.INIT" data-source-line="15" id="ent0003"><rect fill="#F8FAFC" height="52.9766" rx="2.5" ry="2.5" style="stroke:#4B5563;stroke-width:0.5;" width="130.1885" x="578.91" y="41"/><text fill="#111827" font-family="sans-serif" font-size="14" lengthAdjust="spacing" textLength="77.0342" x="605.4871" y="64.5352">init_skill.py</text><text fill="#111827" font-family="sans-serif" font-size="14" lengthAdjust="spacing" textLength="110.1885" x="588.91" y="81.0234">Scaffolding Tool</text></g><!--entity PACKAGE--><g class="entity" data-qualified-name="Skill_Creator_Component.PACKAGE" data-source-line="16" id="ent0004"><rect fill="#F8FAFC" height="52.9766" rx="2.5" ry="2.5" style="stroke:#4B5563;stroke-width:0.5;" width="209.9912" x="744" y="41"/><text fill="#111827" font-family="sans-serif" font-size="14" lengthAdjust="spacing" textLength="111.1729" x="793.4092" y="64.5352">package_skill.py</text><text fill="#111827" font-family="sans-serif" font-size="14" lengthAdjust="spacing" textLength="189.9912" x="754" y="81.0234">Validation &amp; Packaging Tool</text></g><!--entity STEP1--><g class="entity" data-qualified-name="Skill_Creation_Workflow.STEP1" data-source-line="19" id="ent0006"><rect fill="#F8FAFC" height="52.9766" rx="2.5" ry="2.5" style="stroke:#4B5563;stroke-width:0.5;" width="311.498" x="50.25" y="193.98"/><text fill="#111827" font-family="sans-serif" font-size="14" lengthAdjust="spacing" textLength="122.1104" x="144.9438" y="217.5152">/'1. UNDERSTAND</text><text fill="#111827" font-family="sans-serif" font-size="14" lengthAdjust="spacing" textLength="291.498" x="60.25" y="234.0034">Gather examples &amp; validate requirements'/</text></g><!--entity STEP2--><g class="entity" data-qualified-name="Skill_Creation_Workflow.STEP2" data-source-line="20" id="ent0007"><rect fill="#F8FAFC" height="52.9766" rx="2.5" ry="2.5" style="stroke:#4B5563;stroke-width:0.5;" width="262.0195" x="126.99" y="323.96"/><text fill="#111827" font-family="sans-serif" font-size="14" lengthAdjust="spacing" textLength="63.4648" x="226.2673" y="347.4952">/'2. PLAN</text><text fill="#111827" font-family="sans-serif" font-size="14" lengthAdjust="spacing" textLength="242.0195" x="136.99" y="363.9834">Identify scripts, references, assets'/</text></g><!--entity STEP3--><g class="entity" data-qualified-name="Skill_Creation_Workflow.STEP3" data-source-line="21" id="ent0008"><rect fill="#F8FAFC" height="52.9766" rx="2.5" ry="2.5" style="stroke:#4B5563;stroke-width:0.5;" width="157.293" x="231.35" y="453.93"/><text fill="#111827" font-family="sans-serif" font-size="14" lengthAdjust="spacing" textLength="96.7627" x="261.6151" y="477.4652">/'3. INITIALIZE</text><text fill="#111827" font-family="sans-serif" font-size="14" lengthAdjust="spacing" textLength="137.293" x="241.35" y="493.9534">Generate structure'/</text></g><!--entity STEP4--><g class="entity" data-qualified-name="Skill_Creation_Workflow.STEP4" data-source-line="22" id="ent0009"><rect fill="#F8FAFC" height="52.9766" rx="2.5" ry="2.5" style="stroke:#4B5563;stroke-width:0.5;" width="291.9268" x="97.04" y="588.91"/><text fill="#111827" font-family="sans-serif" font-size="14" lengthAdjust="spacing" textLength="59.2197" x="213.3935" y="612.4452">/'4. EDIT</text><text fill="#111827" font-family="sans-serif" font-size="14" lengthAdjust="spacing" textLength="271.9268" x="107.04" y="628.9334">Implement resources &amp; write SKILL.md'/</text></g><!--entity STEP5--><g class="entity" data-qualified-name="Skill_Creation_Workflow.STEP5" data-source-line="23" id="ent0010"><rect fill="#F8FAFC" height="52.9766" rx="2.5" ry="2.5" style="stroke:#4B5563;stroke-width:0.5;" width="206.9834" x="182.51" y="704.89"/><text fill="#111827" font-family="sans-serif" font-size="14" lengthAdjust="spacing" textLength="91.8477" x="240.0779" y="728.4252">/'5. PACKAGE</text><text fill="#111827" font-family="sans-serif" font-size="14" lengthAdjust="spacing" textLength="186.9834" x="192.51" y="744.9134">Validate &amp; create .skill file'/</text></g><!--entity STEP6--><g class="entity" data-qualified-name="Skill_Creation_Workflow.STEP6" data-source-line="24" id="ent0011"><rect fill="#F8FAFC" height="52.9766" rx="2.5" ry="2.5" style="stroke:#4B5563;stroke-width:0.5;" width="248.9834" x="79.51" y="839.86"/><text fill="#111827" font-family="sans-serif" font-size="14" lengthAdjust="spacing" textLength="83.6855" x="162.1589" y="863.3952">/'6. ITERATE</text><text fill="#111827" font-family="sans-serif" font-size="14" lengthAdjust="spacing" textLength="228.9834" x="89.51" y="879.8834">Real-world testing &amp; refinement'/</text></g><!--entity NEW_SKILL_MD--><g class="entity" data-qualified-name="Generated_Skill_Structure.NEW_SKILL_MD" data-source-line="27" id="ent0013"><rect fill="#F8FAFC" height="52.9766" rx="2.5" ry="2.5" style="stroke:#4B5563;stroke-width:0.5;" width="269.0811" x="445.46" y="588.91"/><text fill="#111827" font-family="sans-serif" font-size="14" lengthAdjust="spacing" textLength="142.1465" x="508.9273" y="612.4452">skill-name/SKILL.md</text><text fill="#111827" font-family="sans-serif" font-size="14" lengthAdjust="spacing" textLength="249.0811" x="455.46" y="628.9334">YAML frontmatter + Markdown body</text></g><!--entity SCRIPTS--><g class="entity" data-qualified-name="Generated_Skill_Structure.SCRIPTS" data-source-line="28" id="ent0014"><rect fill="#F8FAFC" height="52.9766" rx="2.5" ry="2.5" style="stroke:#4B5563;stroke-width:0.5;" width="130.2705" x="749.86" y="588.91"/><text fill="#111827" font-family="sans-serif" font-size="14" lengthAdjust="spacing" textLength="52.6094" x="788.6906" y="612.4452">scripts/</text><text fill="#111827" font-family="sans-serif" font-size="14" lengthAdjust="spacing" textLength="110.2705" x="759.86" y="628.9334">Executable code</text></g><!--entity REFS--><g class="entity" data-qualified-name="Generated_Skill_Structure.REFS" data-source-line="29" id="ent0015"><rect fill="#F8FAFC" height="52.9766" rx="2.5" ry="2.5" style="stroke:#4B5563;stroke-width:0.5;" width="187.7949" x="915.1" y="588.91"/><text fill="#111827" font-family="sans-serif" font-size="14" lengthAdjust="spacing" textLength="78.1416" x="969.9267" y="612.4452">references/</text><text fill="#111827" font-family="sans-serif" font-size="14" lengthAdjust="spacing" textLength="167.7949" x="925.1" y="628.9334">Loadable documentation</text></g><!--entity ASSETS--><g class="entity" data-qualified-name="Generated_Skill_Structure.ASSETS" data-source-line="30" id="ent0016"><rect fill="#F8FAFC" height="52.9766" rx="2.5" ry="2.5" style="stroke:#4B5563;stroke-width:0.5;" width="138.8359" x="1137.58" y="588.91"/><text fill="#111827" font-family="sans-serif" font-size="14" lengthAdjust="spacing" textLength="49.5195" x="1182.2382" y="612.4452">assets/</text><text fill="#111827" font-family="sans-serif" font-size="14" lengthAdjust="spacing" textLength="118.8359" x="1147.58" y="628.9334">Output templates</text></g><!--entity SKILL_FILE--><g class="entity" data-qualified-name="Output.SKILL_FILE" data-source-line="33" id="ent0018"><rect fill="#F8FAFC" height="52.9766" rx="2.5" ry="2.5" style="stroke:#4B5563;stroke-width:0.5;" width="193.708" x="445.15" y="839.86"/><text fill="#111827" font-family="sans-serif" font-size="14" lengthAdjust="spacing" textLength="104.7402" x="489.6339" y="863.3952">skill-name.skill</text><text fill="#111827" font-family="sans-serif" font-size="14" lengthAdjust="spacing" textLength="173.708" x="455.15" y="879.8834">Distributable zip package</text></g><!--link STEP1 to STEP2--><g class="link" data-entity-1="ent0006" data-entity-2="ent0007" data-link-type="dependency" data-source-line="35" id="lnk19"><path d="M216.52,247.37 C225.54,269.57 236.5997,296.757 245.6097,318.957" fill="none" id="STEP1-to-STEP2" style="stroke:#4B5563;stroke-width:1;"/><polygon fill="#4B5563" points="247.49,323.59,247.8118,313.7464,245.6097,318.957,240.3991,316.7549,247.49,323.59" style="stroke:#4B5563;stroke-width:1;stroke-linejoin:miter;stroke-miterlimit:10;"/></g><!--link STEP2 to STEP3--><g class="link" data-entity-1="ent0007" data-entity-2="ent0008" data-link-type="dependency" data-source-line="36" id="lnk20"><path d="M268.52,377.34 C277.54,399.55 288.599,426.7373 297.609,448.9273" fill="none" id="STEP2-to-STEP3" style="stroke:#4B5563;stroke-width:1;"/><polygon fill="#4B5563" points="299.49,453.56,299.8103,443.7164,297.609,448.9273,292.398,446.726,299.49,453.56" style="stroke:#4B5563;stroke-width:1;stroke-linejoin:miter;stroke-miterlimit:10;"/></g><!--link STEP3 to STEP4--><g class="link" data-entity-1="ent0008" data-entity-2="ent0009" data-link-type="dependency" data-source-line="37" id="lnk21"><path d="M296.92,507.38 C285.12,530.81 270.0906,560.6351 258.2906,584.0451" fill="none" id="STEP3-to-STEP4" style="stroke:#4B5563;stroke-width:1;"/><polygon fill="#4B5563" points="256.04,588.51,263.6629,582.2737,258.2906,584.0451,256.5191,578.6728,256.04,588.51" style="stroke:#4B5563;stroke-width:1;stroke-linejoin:miter;stroke-miterlimit:10;"/></g><!--link STEP4 to STEP5--><g class="link" data-entity-1="ent0009" data-entity-2="ent0010" data-link-type="dependency" data-source-line="38" id="lnk22"><path d="M252.76,642.26 C259.79,660.91 267.4848,681.302 274.5148,699.932" fill="none" id="STEP4-to-STEP5" style="stroke:#4B5563;stroke-width:1;"/><polygon fill="#4B5563" points="276.28,704.61,276.845,694.7774,274.5148,699.932,269.3601,697.6018,276.28,704.61" style="stroke:#4B5563;stroke-width:1;stroke-linejoin:miter;stroke-miterlimit:10;"/></g><!--link STEP5 to STEP6--><g class="link" data-entity-1="ent0010" data-entity-2="ent0011" data-link-type="dependency" data-source-line="39" id="lnk23"><path d="M269.99,758.33 C255.55,781.76 237.0249,811.7945 222.5849,835.2045" fill="none" id="STEP5-to-STEP6" style="stroke:#4B5563;stroke-width:1;"/><polygon fill="#4B5563" points="219.96,839.46,228.0893,833.9,222.5849,835.2045,221.2805,829.7001,219.96,839.46" style="stroke:#4B5563;stroke-width:1;stroke-linejoin:miter;stroke-miterlimit:10;"/></g><!--link STEP6 to STEP4--><g class="link" data-entity-1="ent0011" data-entity-2="ent0009" data-link-type="dependency" data-source-line="40" id="lnk24"><path d="M156.98,839.5 C108.16,809.11 42.91,756.27 74,704.89 C91.58,675.84 117.6016,657.9022 147.9716,644.3922" fill="none" id="STEP6-to-STEP4" style="stroke:#4B5563;stroke-width:1;stroke-dasharray:7,7;"/><polygon fill="#4B5563" points="152.54,642.36,142.6911,642.3633,147.9716,644.3922,145.9427,649.6727,152.54,642.36" style="stroke:#4B5563;stroke-width:1;stroke-linejoin:miter;stroke-miterlimit:10;"/><text fill="#000000" font-family="sans-serif" font-size="13" lengthAdjust="spacing" textLength="89.0894" x="75" y="736.4484">feedback loop</text></g><!--link SKILL_MD to STEP1--><g class="link" data-entity-1="ent0002" data-entity-2="ent0006" data-link-type="dependency" data-source-line="41" id="lnk25"><path d="M354.32,94.35 C338.48,103.64 321.05,114.64 306,125.98 C278.48,146.72 253.5638,170.4029 234.0838,190.1229" fill="none" id="SKILL_MD-to-STEP1" style="stroke:#4B5563;stroke-width:1;stroke-dasharray:7,7;"/><polygon fill="#4B5563" points="230.57,193.68,239.7406,190.0883,234.0838,190.1229,234.0492,184.4661,230.57,193.68" style="stroke:#4B5563;stroke-width:1;stroke-linejoin:miter;stroke-miterlimit:10;"/><text fill="#000000" font-family="sans-serif" font-size="13" lengthAdjust="spacing" textLength="98.4458" x="307" y="139.5484">guides all steps</text></g><!--link SKILL_MD to STEP2--><g class="link" data-entity-1="ent0002" data-entity-2="ent0007" data-link-type="dependency" data-source-line="42" id="lnk26"><path d="M406.39,94.45 C407.85,104.3 409.28,115.63 410,125.98 C413.83,181.35 409.37,200.5 379,246.96 C358.52,278.3 329.7479,302.3952 303.4279,320.7952" fill="none" id="SKILL_MD-to-STEP2" style="stroke:#4B5563;stroke-width:1;stroke-dasharray:7,7;"/><polygon fill="#4B5563" points="299.33,323.66,308.9981,321.7817,303.4279,320.7952,304.4144,315.225,299.33,323.66" style="stroke:#4B5563;stroke-width:1;stroke-linejoin:miter;stroke-miterlimit:10;"/><text fill="#000000" font-family="sans-serif" font-size="13" lengthAdjust="spacing" textLength="127.5879" x="412.17" y="218.0384">Degrees of Freedom</text><text fill="#000000" font-family="sans-serif" font-size="13" lengthAdjust="spacing" textLength="69.7671" x="441.0804" y="233.3489">Framework</text></g><!--link INIT to STEP3--><g class="link" data-entity-1="ent0003" data-entity-2="ent0008" data-link-type="dependency" data-source-line="43" id="lnk27"><path d="M633.05,94.47 C617.19,130.56 585.56,197.07 548,246.96 C484.6,331.17 394.4927,410.263 345.7627,450.573" fill="none" id="INIT-to-STEP3" style="stroke:#4B5563;stroke-width:1;"/><polygon fill="#4B5563" points="341.91,453.76,351.3944,451.1056,345.7627,450.573,346.2952,444.9413,341.91,453.76" style="stroke:#4B5563;stroke-width:1;stroke-linejoin:miter;stroke-miterlimit:10;"/><text fill="#000000" font-family="sans-serif" font-size="13" lengthAdjust="spacing" textLength="97.5063" x="523" y="290.5284">auto-generates</text></g><!--link PACKAGE to STEP5--><g class="link" data-entity-1="ent0004" data-entity-2="ent0010" data-link-type="dependency" data-source-line="44" id="lnk28"><path d="M954.34,80.19 C1095.63,98.86 1329,141.5 1329,219.47 C1329,219.47 1329,219.47 1329,616.4 C1329,643.86 1316.15,652.81 1292,665.89 C1214.14,708.06 635.699,723.7613 394.679,728.5213" fill="none" id="PACKAGE-to-STEP5" style="stroke:#4B5563;stroke-width:1;"/><polygon fill="#4B5563" points="389.68,728.62,398.7572,732.4415,394.679,728.5213,398.5993,724.4431,389.68,728.62" style="stroke:#4B5563;stroke-width:1;stroke-linejoin:miter;stroke-miterlimit:10;"/><text fill="#000000" font-family="sans-serif" font-size="13" lengthAdjust="spacing" textLength="122.9351" x="1330" y="420.4984">validates &amp; bundles</text></g><!--link STEP3 to NEW_SKILL_MD--><g class="link" data-entity-1="ent0008" data-entity-2="ent0013" data-link-type="dependency" data-source-line="45" id="lnk29"><path d="M362.7,507.38 C410.27,530.81 475.4145,562.8908 522.9445,586.3008" fill="none" id="STEP3-to-NEW_SKILL_MD" style="stroke:#4B5563;stroke-width:1;"/><polygon fill="#4B5563" points="527.43,588.51,521.1236,580.945,522.9445,586.3008,517.5888,588.1218,527.43,588.51" style="stroke:#4B5563;stroke-width:1;stroke-linejoin:miter;stroke-miterlimit:10;"/></g><!--link STEP3 to SCRIPTS--><g class="link" data-entity-1="ent0008" data-entity-2="ent0014" data-link-type="dependency" data-source-line="46" id="lnk30"><path d="M388.95,481.12 C476.47,483.53 620.04,495.81 732,545.91 C754.34,555.91 771.9577,570.1321 787.3477,585.0321" fill="none" id="STEP3-to-SCRIPTS" style="stroke:#4B5563;stroke-width:1;"/><polygon fill="#4B5563" points="790.94,588.51,787.2562,579.376,787.3477,585.0321,781.6916,585.1236,790.94,588.51" style="stroke:#4B5563;stroke-width:1;stroke-linejoin:miter;stroke-miterlimit:10;"/></g><!--link STEP3 to REFS--><g class="link" data-entity-1="ent0008" data-entity-2="ent0015" data-link-type="dependency" data-source-line="47" id="lnk31"><path d="M388.97,485.76 C526.9,494.06 805.8,514.22 898,545.91 C926.27,555.63 950.8312,570.624 971.9312,585.694" fill="none" id="STEP3-to-REFS" style="stroke:#4B5563;stroke-width:1;"/><polygon fill="#4B5563" points="976,588.6,971.001,580.1141,971.9312,585.694,966.3514,586.6242,976,588.6" style="stroke:#4B5563;stroke-width:1;stroke-linejoin:miter;stroke-miterlimit:10;"/></g><!--link STEP3 to ASSETS--><g class="link" data-entity-1="ent0008" data-entity-2="ent0016" data-link-type="dependency" data-source-line="48" id="lnk32"><path d="M389.14,481.93 C566.04,484 988.31,494.35 1120,545.91 C1143.81,555.23 1162.7236,569.9183 1178.8936,585.1783" fill="none" id="STEP3-to-ASSETS" style="stroke:#4B5563;stroke-width:1;"/><polygon fill="#4B5563" points="1182.53,588.61,1178.7299,579.5238,1178.8936,585.1783,1173.2391,585.342,1182.53,588.61" style="stroke:#4B5563;stroke-width:1;stroke-linejoin:miter;stroke-miterlimit:10;"/></g><!--link NEW_SKILL_MD to STEP5--><g class="link" data-entity-1="ent0013" data-entity-2="ent0010" data-link-type="dependency" data-source-line="49" id="lnk33"><path d="M513.29,642.26 C465.34,660.85 405.6219,684.0026 357.6219,702.6126" fill="none" id="NEW_SKILL_MD-to-STEP5" style="stroke:#4B5563;stroke-width:1;"/><polygon fill="#4B5563" points="352.96,704.42,362.7973,704.8961,357.6219,702.6126,359.9054,697.4371,352.96,704.42" style="stroke:#4B5563;stroke-width:1;stroke-linejoin:miter;stroke-miterlimit:10;"/></g><!--link STEP5 to SKILL_FILE--><g class="link" data-entity-1="ent0010" data-entity-2="ent0018" data-link-type="dependency" data-source-line="50" id="lnk34"><path d="M335.97,758.33 C381.07,781.76 442.6529,813.7453 487.7229,837.1553" fill="none" id="STEP5-to-SKILL_FILE" style="stroke:#4B5563;stroke-width:1;"/><polygon fill="#4B5563" points="492.16,839.46,486.0169,831.7618,487.7229,837.1553,482.3294,838.8612,492.16,839.46" style="stroke:#4B5563;stroke-width:1;stroke-linejoin:miter;stroke-miterlimit:10;"/></g><?plantuml-src ZLNRZjf847tdAqeJANd8uX73PKRxi983PcI5OH7sRfGL4chiCcbXkftkTfZPrVxxLhSlsDc9b1T4KUVKxLGr-iH5mHGxmu4bfwEIfKZdCfSAZ692amk56UWMfR-mL5wuE4B6SeqTJuePAtCJuxFnStuKPo92GX-eEYXVANcf4hoP7ARJsRZZt509x8WVf4fHrQ3Pv7xoS7W5z5FbAamC4ySSuPy1G2zmdHrWAOMfVnkDHWztznRvNVGtsKF6icJmxy380eo4WpH6KjFSPk1I38ggBBY9JZpFOQwG6IBEvRcGWegw0QR1-VQrRz_wgBXheJVHnt2ryixfJYnGqo0XAZ3X6K-OJGHluPDKfooN5tWiUOfLOClPFoswSRZWPgzjHgzusOaeOLacyzHg5qkPErwu3kCkf-wYG_kJvJnjCbUpxqNO-FEF_cD0atbj0fRMbFlz1CYtRrlfJU3stSY3FzQBO1l5_dgn4u_CV445-CpEHOwQAlbMbOMayDUIHB3Rfj_TLZdYO3FgnxlpOBForpiHfWJasGleHF72w5yeG8QqDGdITwOrziBSzSECFJUnq5-5VmLK5WfKjWXjL9cOKc67EkvJ9nu4Yp2c2cmBxZWKQbcgnFLpKPpYDD9tmapwOQPUC_5M6YHwOWUAu3dT8EDvjv9fFyICceY3hHzJY2soV7YHAa_1e3PMsRTs8bou4Zj1Pbs5cyRJIa-8cluTlFNkAxLRRrzbL-jGi3FUNbV-i_-qWapHIPwPeQS3tiCJKoTwSmJTNFhY4go3J_lNDhxMz7OdWcTCIiCEz6iYcnkPRyDD77K9L-s9iv8iTOnK9gNjtgseesw3POzNxGbnVYzDKHgQ7ObA7Mk7zgCee3oTULKmvwmPFvX49I1TFgULueUwXRzv0NMiphKlmvKzExVjC1p-LY-i-spjiRF7hJrnzgIrfywUjlRCsJFml1eFlqA6cDf_1yYbB0RDu5l8Y217-n9fOBGBsc2X_u-w8zG2Zme99ZDOqfTKddTYISyqqWQU1lQohdKJd9L63e_rCkb1lVVNqWdIF0FsX0xqMjFZq6cujoUTETIBSFt5wNirQm6xzDS7rkhm7m00?></g></svg>