<svg xmlns="http://www.w3.org/2000/svg" xmlns:xlink="http://www.w3.org/1999/xlink" contentStyleType="text/css" data-diagram-type="DESCRIPTION" height="660px" preserveAspectRatio="none" style="width:691px;height:660px;" version="1.1" viewBox="0 0 691 660" width="691px" zoomAndPan="magnify"><?plantuml 1.2026.5?><defs><style><![CDATA[
@media (prefers-color-scheme: dark) {
  text { fill: #e5e7eb !important; }
  path, line, rect, circle, ellipse, polygon, polyline { stroke: #cbd5e1 !important; }
  .entity rect, .participant rect, .participant path, .sequenceLine rect, .class rect, .component rect, .component path, .note rect { fill: #111827 !important; }
  .cluster path { fill: none !important; }
  polygon { fill: #cbd5e1 !important; }
}
]]></style></defs><g><!--cluster Session--><g class="cluster" data-qualified-name="Session" data-source-line="13" id="ent0001"><path d="M277.5,6 L405.9453,6 A3.75,3.75 0 0 1 408.4453,8.5 L415.4453,28.4883 L462.5,28.4883 A2.5,2.5 0 0 1 465,30.9883 L465,204.47 A2.5,2.5 0 0 1 462.5,206.97 L277.5,206.97 A2.5,2.5 0 0 1 275,204.47 L275,8.5 A2.5,2.5 0 0 1 277.5,6" fill="none" style="stroke:#64748B;stroke-width:1.5;"/><line style="stroke:#64748B;stroke-width:1.5;" x1="275" x2="415.4453" y1="28.4883" y2="28.4883"/><text fill="#000000" font-family="sans-serif" font-size="14" font-weight="700" lengthAdjust="spacing" textLength="127.4453" x="279" y="21.5352">&#128260; Active Session</text></g><!--cluster MemorySystem--><g class="cluster" data-qualified-name="MemorySystem" data-source-line="17" id="ent0004"><path d="M8.5,255.97 L333.4648,255.97 A3.75,3.75 0 0 1 335.9648,258.47 L342.9648,278.4583 L673.5,278.4583 A2.5,2.5 0 0 1 676,280.9583 L676,643.38 A2.5,2.5 0 0 1 673.5,645.88 L8.5,645.88 A2.5,2.5 0 0 1 6,643.38 L6,258.47 A2.5,2.5 0 0 1 8.5,255.97" fill="none" style="stroke:#64748B;stroke-width:1.5;"/><line style="stroke:#64748B;stroke-width:1.5;" x1="6" x2="342.9648" y1="278.4583" y2="278.4583"/><text fill="#000000" font-family="sans-serif" font-size="14" font-weight="700" lengthAdjust="spacing" textLength="323.9648" x="10" y="271.5052">&#128193; Memory Component (Always-Active Skill)</text></g><!--cluster SemanticLayer--><g class="cluster" data-qualified-name="MemorySystem.SemanticLayer" data-source-line="18" id="ent0005"><path d="M47.5,451.95 L243.2793,451.95 A3.75,3.75 0 0 1 245.7793,454.45 L252.7793,474.4383 L252.5,474.4383 A2.5,2.5 0 0 1 255,476.9383 L255,619.38 A2.5,2.5 0 0 1 252.5,621.88 L47.5,621.88 A2.5,2.5 0 0 1 45,619.38 L45,454.45 A2.5,2.5 0 0 1 47.5,451.95" fill="none" style="stroke:#64748B;stroke-width:1.5;"/><line style="stroke:#64748B;stroke-width:1.5;" x1="45" x2="252.7793" y1="474.4383" y2="474.4383"/><text fill="#000000" font-family="sans-serif" font-size="14" font-weight="700" lengthAdjust="spacing" textLength="194.7793" x="49" y="467.4852">&#129504; Semantic Memory Layer</text></g><!--cluster EpisodicLayer--><g class="cluster" data-qualified-name="MemorySystem.EpisodicLayer" data-source-line="21" id="ent0007"><path d="M296.5,460.19 L487.7744,460.19 A3.75,3.75 0 0 1 490.2744,462.69 L497.2744,482.6783 L523.5,482.6783 A2.5,2.5 0 0 1 526,485.1783 L526,611.14 A2.5,2.5 0 0 1 523.5,613.64 L296.5,613.64 A2.5,2.5 0 0 1 294,611.14 L294,462.69 A2.5,2.5 0 0 1 296.5,460.19" fill="none" style="stroke:#64748B;stroke-width:1.5;"/><line style="stroke:#64748B;stroke-width:1.5;" x1="294" x2="497.2744" y1="482.6783" y2="482.6783"/><text fill="#000000" font-family="sans-serif" font-size="14" font-weight="700" lengthAdjust="spacing" textLength="190.2744" x="298" y="475.7252">&#128220; Episodic Memory Layer</text></g><!--cluster Operations--><g class="cluster" data-qualified-name="MemorySystem.Operations" data-source-line="24" id="ent0009"><path d="M32.5,298.97 L188.9902,298.97 A3.75,3.75 0 0 1 191.4902,301.47 L198.4902,321.4583 L644.5,321.4583 A2.5,2.5 0 0 1 647,323.9583 L647,400.45 A2.5,2.5 0 0 1 644.5,402.95 L32.5,402.95 A2.5,2.5 0 0 1 30,400.45 L30,301.47 A2.5,2.5 0 0 1 32.5,298.97" fill="none" style="stroke:#64748B;stroke-width:1.5;"/><line style="stroke:#64748B;stroke-width:1.5;" x1="30" x2="198.4902" y1="321.4583" y2="321.4583"/><text fill="#000000" font-family="sans-serif" font-size="14" font-weight="700" lengthAdjust="spacing" textLength="155.4902" x="34" y="314.5052">&#9881;&#65039; Memory Operations</text></g><!--entity User--><g class="entity" data-qualified-name="Session.User" data-source-line="14" id="ent0002"><rect fill="#F8FAFC" height="36.4883" rx="2.5" ry="2.5" style="stroke:#4B5563;stroke-width:0.5;" width="127.7549" x="301.12" y="41"/><text fill="#111827" font-family="sans-serif" font-size="14" lengthAdjust="spacing" textLength="107.7549" x="311.12" y="64.5352">User Interaction</text></g><!--entity AI--><g class="entity" data-qualified-name="Session.AI" data-source-line="15" id="ent0003"><rect fill="#F8FAFC" height="36.4883" rx="2.5" ry="2.5" style="stroke:#4B5563;stroke-width:0.5;" width="158.3936" x="290.8" y="154.49"/><text fill="#111827" font-family="sans-serif" font-size="14" lengthAdjust="spacing" textLength="138.3936" x="300.8" y="178.0252">AI Assistant Context</text></g><!--entity MEMFile--><g class="entity" data-qualified-name="MemorySystem.SemanticLayer.MEMFile" data-source-line="19" id="ent0006"><rect fill="#F8FAFC" height="118.9297" rx="2.5" ry="2.5" style="stroke:#4B5563;stroke-width:0.5;" width="174" x="63" y="486.95"/><text fill="#111827" font-family="sans-serif" font-size="14" lengthAdjust="spacing" textLength="86.4678" x="106.7661" y="510.4852">MEMORY.md</text><text fill="#111827" font-family="sans-serif" font-size="14" lengthAdjust="spacing" textLength="154" x="73" y="526.9734">&#9473;&#9473;&#9473;&#9473;&#9473;&#9473;&#9473;&#9473;&#9473;&#9473;&#9473;</text><text fill="#111827" font-family="sans-serif" font-size="14" lengthAdjust="spacing" textLength="125.6104" x="87.1948" y="543.4617">&#8226; User Preferences</text><text fill="#111827" font-family="sans-serif" font-size="14" lengthAdjust="spacing" textLength="117.0723" x="91.4639" y="559.95">&#8226; Project Context</text><text fill="#111827" font-family="sans-serif" font-size="14" lengthAdjust="spacing" textLength="103.0996" x="98.4502" y="576.4383">&#8226; Relationships</text><text fill="#111827" font-family="sans-serif" font-size="14" lengthAdjust="spacing" textLength="124.9063" x="87.5469" y="592.9266">&#8226; Long-term Facts</text></g><!--entity HISTFile--><g class="entity" data-qualified-name="MemorySystem.EpisodicLayer.HISTFile" data-source-line="22" id="ent0008"><rect fill="#F8FAFC" height="102.4414" rx="2.5" ry="2.5" style="stroke:#4B5563;stroke-width:0.5;" width="200.708" x="309.65" y="495.19"/><text fill="#111827" font-family="sans-serif" font-size="14" lengthAdjust="spacing" textLength="85.4766" x="367.2657" y="518.7252">HISTORY.md</text><text fill="#111827" font-family="sans-serif" font-size="14" lengthAdjust="spacing" textLength="154" x="333.004" y="535.2134">&#9473;&#9473;&#9473;&#9473;&#9473;&#9473;&#9473;&#9473;&#9473;&#9473;&#9473;</text><text fill="#111827" font-family="sans-serif" font-size="14" lengthAdjust="spacing" textLength="152.7695" x="333.6192" y="551.7017">&#8226; Timestamped Events</text><text fill="#111827" font-family="sans-serif" font-size="14" lengthAdjust="spacing" textLength="180.708" x="319.65" y="568.19">&#8226; Conversation Summaries</text><text fill="#111827" font-family="sans-serif" font-size="14" lengthAdjust="spacing" textLength="171.1172" x="324.4454" y="584.6783">&#8226; [YYYY-MM-DD HH:MM]</text></g><!--entity AutoLoad--><g class="entity" data-qualified-name="MemorySystem.Operations.AutoLoad" data-source-line="25" id="ent0010"><rect fill="#F8FAFC" height="52.9766" rx="2.5" ry="2.5" style="stroke:#4B5563;stroke-width:0.5;" width="115.9561" x="201.02" y="333.97"/><text fill="#111827" font-family="sans-serif" font-size="14" lengthAdjust="spacing" textLength="72.8916" x="222.5522" y="357.5052">Auto-Load</text><text fill="#111827" font-family="sans-serif" font-size="14" lengthAdjust="spacing" textLength="95.9561" x="211.02" y="373.9934">(Session Start)</text></g><!--entity FactExtract--><g class="entity" data-qualified-name="MemorySystem.Operations.FactExtract" data-source-line="26" id="ent0011"><rect fill="#F8FAFC" height="52.9766" rx="2.5" ry="2.5" style="stroke:#4B5563;stroke-width:0.5;" width="120.6865" x="45.66" y="333.97"/><text fill="#111827" font-family="sans-serif" font-size="14" lengthAdjust="spacing" textLength="100.6865" x="55.66" y="357.5052">Fact Extraction</text><text fill="#111827" font-family="sans-serif" font-size="14" lengthAdjust="spacing" textLength="78.5449" x="66.7308" y="373.9934">(Automatic)</text></g><!--entity Consolidate--><g class="entity" data-qualified-name="MemorySystem.Operations.Consolidate" data-source-line="27" id="ent0012"><rect fill="#F8FAFC" height="52.9766" rx="2.5" ry="2.5" style="stroke:#4B5563;stroke-width:0.5;" width="130.8447" x="351.58" y="333.97"/><text fill="#111827" font-family="sans-serif" font-size="14" lengthAdjust="spacing" textLength="93.9189" x="370.0429" y="357.5052">Consolidation</text><text fill="#111827" font-family="sans-serif" font-size="14" lengthAdjust="spacing" textLength="110.8447" x="361.58" y="373.9934">(Size-Triggered)</text></g><!--entity Search--><g class="entity" data-qualified-name="MemorySystem.Operations.Search" data-source-line="28" id="ent0013"><rect fill="#F8FAFC" height="52.9766" rx="2.5" ry="2.5" style="stroke:#4B5563;stroke-width:0.5;" width="113.3584" x="517.32" y="333.97"/><text fill="#111827" font-family="sans-serif" font-size="14" lengthAdjust="spacing" textLength="81.5459" x="533.2263" y="357.5052">Grep Search</text><text fill="#111827" font-family="sans-serif" font-size="14" lengthAdjust="spacing" textLength="93.3584" x="527.32" y="373.9934">(On-Demand)</text></g><!--link User to AI--><g class="link" data-entity-1="ent0002" data-entity-2="ent0003" data-link-type="dependency" data-source-line="31" id="lnk14"><path d="M365.78,77.66 C366.72,98.48 368.0457,128.135 368.9857,149.065" fill="none" id="User-to-AI" style="stroke:#4B5563;stroke-width:1;"/><polygon fill="#4B5563" points="369.21,154.06,372.8022,144.8896,368.9857,149.065,364.8102,145.2485,369.21,154.06" style="stroke:#4B5563;stroke-width:1;stroke-linejoin:miter;stroke-miterlimit:10;"/><text fill="#000000" font-family="sans-serif" font-size="13" lengthAdjust="spacing" textLength="82.8179" x="368.8" y="121.0584">Conversation</text></g><!--link AutoLoad to AI--><g class="link" data-entity-1="ent0010" data-entity-2="ent0003" data-link-type="dependency" data-source-line="32" id="lnk15"><path d="M261.4,333.57 C265.21,304.31 274.88,256.42 299,222.97 C308.3,210.08 317.8265,202.0644 330.7765,193.9944" fill="none" id="AutoLoad-to-AI" style="stroke:#4B5563;stroke-width:1;"/><polygon fill="#4B5563" points="335.02,191.35,325.2662,192.7151,330.7765,193.9944,329.4972,199.5047,335.02,191.35" style="stroke:#4B5563;stroke-width:1;stroke-linejoin:miter;stroke-miterlimit:10;"/><text fill="#000000" font-family="sans-serif" font-size="13" lengthAdjust="spacing" textLength="100.8262" x="300" y="236.5384">1. Load Context</text></g><!--link AI to FactExtract--><g class="link" data-entity-1="ent0003" data-entity-2="ent0011" data-link-type="dependency" data-source-line="33" id="lnk16"><path d="M290.31,184.32 C238.81,192.63 177.82,205.68 158,222.97 C125.33,251.48 113.8214,297.8623 109.3114,328.7923" fill="none" id="AI-to-FactExtract" style="stroke:#4B5563;stroke-width:1;"/><polygon fill="#4B5563" points="108.59,333.74,113.8467,325.4113,109.3114,328.7923,105.9304,324.257,108.59,333.74" style="stroke:#4B5563;stroke-width:1;stroke-linejoin:miter;stroke-miterlimit:10;"/><text fill="#000000" font-family="sans-serif" font-size="13" lengthAdjust="spacing" textLength="121.3101" x="159" y="236.5384">2. New Information</text></g><!--link AI to Search--><g class="link" data-entity-1="ent0003" data-entity-2="ent0013" data-link-type="dependency" data-source-line="34" id="lnk17"><path d="M383.91,191.27 C397.29,206.81 418.98,228.72 443,239.97 C466.16,250.83 478.35,234.34 500,247.97 C531.84,268.03 551.0438,302.7571 562.3038,328.9271" fill="none" id="AI-to-Search" style="stroke:#4B5563;stroke-width:1;"/><polygon fill="#4B5563" points="564.28,333.52,564.3972,323.6718,562.3038,328.9271,557.0486,326.8337,564.28,333.52" style="stroke:#4B5563;stroke-width:1;stroke-linejoin:miter;stroke-miterlimit:10;"/><text fill="#000000" font-family="sans-serif" font-size="13" lengthAdjust="spacing" textLength="83.1035" x="444" y="236.5384">Search Query</text></g><!--link Search to AI--><g class="link" data-entity-1="ent0013" data-entity-2="ent0003" data-link-type="dependency" data-source-line="40" id="lnk23"><path d="M573.07,333.67 C570.58,303.15 561.85,252.73 532,222.97 C510.03,201.08 483.5309,189.9988 454.2309,183.2088" fill="none" id="Search-to-AI" style="stroke:#4B5563;stroke-width:1;"/><polygon fill="#4B5563" points="449.36,182.08,457.2246,188.0086,454.2309,183.2088,459.0307,180.2151,449.36,182.08" style="stroke:#4B5563;stroke-width:1;stroke-linejoin:miter;stroke-miterlimit:10;"/><text fill="#000000" font-family="sans-serif" font-size="13" lengthAdjust="spacing" textLength="45.4048" x="545.1" y="236.5384">Results</text></g><!--link FactExtract to MEMFile--><g class="link" data-entity-1="ent0011" data-entity-2="ent0006" data-link-type="dependency" data-source-line="35" id="lnk18"><path d="M71.92,387.2 C58.34,400.76 47.33,418.24 54,435.95 C60.9,454.28 69.2077,467.7184 81.9177,482.8784" fill="none" id="FactExtract-to-MEMFile" style="stroke:#4B5563;stroke-width:1;"/><polygon fill="#4B5563" points="85.13,486.71,82.413,477.2433,81.9177,482.8784,76.2825,482.3831,85.13,486.71" style="stroke:#4B5563;stroke-width:1;stroke-linejoin:miter;stroke-miterlimit:10;"/><text fill="#000000" font-family="sans-serif" font-size="13" lengthAdjust="spacing" textLength="80.3105" x="55" y="432.5184">Extract Facts</text></g><!--link FactExtract to HISTFile--><g class="link" data-entity-1="ent0011" data-entity-2="ent0008" data-link-type="dependency" data-source-line="36" id="lnk19"><path d="M136.5,387.15 C157.36,403.45 186.33,423.71 215,435.95 C230.87,442.73 237.04,437.38 253,443.95 C284.51,456.93 312.4519,473.5088 339.3319,491.8788" fill="none" id="FactExtract-to-HISTFile" style="stroke:#4B5563;stroke-width:1;"/><polygon fill="#4B5563" points="343.46,494.7,338.2864,486.3194,339.3319,491.8788,333.7725,492.9244,343.46,494.7" style="stroke:#4B5563;stroke-width:1;stroke-linejoin:miter;stroke-miterlimit:10;"/><text fill="#000000" font-family="sans-serif" font-size="13" lengthAdjust="spacing" textLength="67.7104" x="216" y="432.5184">Log Events</text></g><!--link Consolidate to HISTFile--><g class="link" data-entity-1="ent0012" data-entity-2="ent0008" data-link-type="dependency" data-source-line="37" id="lnk20"><path d="M411.52,387.38 C409.69,397.22 407.9,408.55 407,418.95 C404.85,443.89 404.9815,466.7052 406.0415,489.8752" fill="none" id="Consolidate-to-HISTFile" style="stroke:#4B5563;stroke-width:1;"/><polygon fill="#4B5563" points="406.27,494.87,409.8545,485.6966,406.0415,489.8752,401.8629,486.0622,406.27,494.87" style="stroke:#4B5563;stroke-width:1;stroke-linejoin:miter;stroke-miterlimit:10;"/><text fill="#000000" font-family="sans-serif" font-size="13" lengthAdjust="spacing" textLength="120.7388" x="408" y="432.5184">Summarize &amp; Move</text></g><!--link Consolidate to MEMFile--><g class="link" data-entity-1="ent0012" data-entity-2="ent0006" data-link-type="dependency" data-source-line="38" id="lnk21"><path d="M375.75,387.37 C362.6,395.28 347.85,403.77 334,410.95 C326.23,414.98 323.53,414.49 316,418.95 C282.8,438.61 252.4124,460.6992 223.6724,483.4192" fill="none" id="Consolidate-to-MEMFile" style="stroke:#4B5563;stroke-width:1;"/><polygon fill="#4B5563" points="219.75,486.52,229.2909,484.0765,223.6724,483.4192,224.3297,477.8007,219.75,486.52" style="stroke:#4B5563;stroke-width:1;stroke-linejoin:miter;stroke-miterlimit:10;"/><text fill="#000000" font-family="sans-serif" font-size="13" lengthAdjust="spacing" textLength="80.3105" x="317" y="432.5184">Extract Facts</text></g><!--link Search to HISTFile--><g class="link" data-entity-1="ent0013" data-entity-2="ent0008" data-link-type="dependency" data-source-line="39" id="lnk22"><path d="M562.51,387.28 C555.19,402.27 544.88,421.06 533,435.95 C516.15,457.07 498.7531,474.2292 478.7531,491.6192" fill="none" id="Search-to-HISTFile" style="stroke:#4B5563;stroke-width:1;"/><polygon fill="#4B5563" points="474.98,494.9,484.3963,492.0132,478.7531,491.6192,479.1471,485.9761,474.98,494.9" style="stroke:#4B5563;stroke-width:1;stroke-linejoin:miter;stroke-miterlimit:10;"/><text fill="#000000" font-family="sans-serif" font-size="13" lengthAdjust="spacing" textLength="86.7979" x="544.79" y="432.5184">Pattern Match</text></g><?plantuml-src bLJDRjD04BxxAKQjXCh1bLBwfnwGJ9lII349JJXKm65ZZzsbzgwrkqcQeafKuiw1Na1882wy0i_J5u17ODPU4oSj228hicU-R-RxPiVMPrmKJB4SHYmwIvKSYtXVPbA1KKneIg4mdlwDqgSibbCkKaXOfh6HYJ5XuymCyTm46Kz5JaI8w0zL0nKe9QTLWzNDqTRMzeD6iayIM8gFf8fHET3svixcxkWEq3_9LHWP9j8CuRK7i53OTGSubCAuMAlLsjtOiSYbwgl9RiAIoBlqZ2p0I1X9OoIPvhO3by8hAbcmylFpzLi8A3X16A3Mb5m1fkjx4Z8NjV9CeuAEdH4hovH86so2WWu4nDNqR62VrDA8Is3G8K6Dnk-l8CHSgXcXya8AUm9hGJPbC-tNYivubjqlsHLqCDC6SrBLgFFj2wdDgHkFwe9TDaFbV5IPChBe9co7lUEJzJn-8Mwkh_v-4UJDrz8gz1KcI0SNeQwYVILVKTNQQnKynepP4UbJNZXSLuhKfzdbS4ZZqvMhTdZ8CrmQp2Te5rpB-2v3TUOEGqUTmV0_7GrvZdHIUO4nj2Tq0auhUPcWqgK568ppd2bU-tr-GZy_3Fs30pWwsWl3bwKmsttPoyt73p--lwjDz0fQd78e9M7-k6WZ61lfToKZ5slr6WuCKwPQ19kssIR53XJQvyRj9H4jAgVgKKMo09TlyiYcbXcFcMCD-0NwGyNJb4uuhgXp33QfZnKMj5rCHQT4x0d_m6wQurHnciIbL-wCxp-azOUzXRbwjPDvkhKEPS2jaaT1cske9z36EZp1ARs7YLIvgrJXghO4SJTFnwXcNfDjKMxd25P7otsyXQiFb81TcRhry1hZM4QvFRb0k0UXdE0jx9ywExbBvVhCqDiY86I6Pjd0bACwHatVR_qB?></g></svg>