<svg xmlns="http://www.w3.org/2000/svg" xmlns:xlink="http://www.w3.org/1999/xlink" contentStyleType="text/css" data-diagram-type="DESCRIPTION" height="873px" preserveAspectRatio="none" style="width:1545px;height:873px;background:#FFFFFF;" version="1.1" viewBox="0 0 1545 873" width="1545px" zoomAndPan="magnify"><?plantuml 1.2026.5?><defs/><rect data-xfeat-white-canvas="true" fill="#FFFFFF" height="100%" width="100%" x="0" y="0"/><g><!--cluster NB--><g class="cluster" data-qualified-name="NB" data-source-line="3" id="ent0001"><rect fill="#FFFFFF" height="99" rx="4" ry="4" style="stroke:#CBD5E1;stroke-width:1;" width="203" x="1202" y="760"/><text fill="#0F172A" font-family="Helvetica" font-size="14" font-weight="700" lengthAdjust="spacing" textLength="133.3516" x="1236.8242" y="772.7803">&#129302; Nanobot System</text></g><!--cluster WS--><g class="cluster" data-qualified-name="WS" data-source-line="6" id="ent0003"><rect fill="#FFFFFF" height="712" rx="4" ry="4" style="stroke:#CBD5E1;stroke-width:1;" width="714" x="7" y="7"/><text fill="#0F172A" font-family="Helvetica" font-size="14" font-weight="700" lengthAdjust="spacing" textLength="150.9238" x="288.5381" y="19.7803">nanobot/skills/weather</text></g><!--cluster CONFIG--><g class="cluster" data-qualified-name="WS.CONFIG" data-source-line="7" id="ent0004"><rect fill="#FFFFFF" height="97" rx="4" ry="4" style="stroke:#CBD5E1;stroke-width:1;" width="666" x="31" y="48"/><text fill="#0F172A" font-family="Helvetica" font-size="14" font-weight="700" lengthAdjust="spacing" textLength="133.0068" x="297.4966" y="60.7803">Configuration Layer</text></g><!--cluster CORE--><g class="cluster" data-qualified-name="WS.CORE" data-source-line="12" id="ent0008"><rect fill="#FFFFFF" height="212" rx="4" ry="4" style="stroke:#CBD5E1;stroke-width:1;" width="268" x="325" y="186"/><text fill="#0F172A" font-family="Helvetica" font-size="14" font-weight="700" lengthAdjust="spacing" textLength="126.0342" x="395.9829" y="198.7803">Processing Engine</text></g><!--cluster SOURCES--><g class="cluster" data-qualified-name="WS.SOURCES" data-source-line="16" id="ent0011"><rect fill="#FFFFFF" height="256" rx="4" ry="4" style="stroke:#CBD5E1;stroke-width:1;" width="138" x="559" y="439"/><text fill="#0F172A" font-family="Helvetica" font-size="14" font-weight="700" lengthAdjust="spacing" textLength="122.9443" x="566.5278" y="451.7803">Data Source Layer</text></g><!--cluster OUTPUT--><g class="cluster" data-qualified-name="OUTPUT" data-source-line="21" id="ent0014"><rect fill="#FFFFFF" height="113" rx="4" ry="4" style="stroke:#CBD5E1;stroke-width:1;" width="721" x="753" y="590"/><text fill="#0F172A" font-family="Helvetica" font-size="14" font-weight="700" lengthAdjust="spacing" textLength="126.0342" x="1050.4829" y="602.7803">Response Formats</text></g><!--entity REQ--><g class="entity" data-qualified-name="NB.REQ" data-source-line="4" id="ent0002"><rect fill="#FFFFFF" height="34" rx="4" ry="4" style="stroke:#64748B;stroke-width:0.5;" width="128.9443" x="1252.53" y="801"/><text fill="#0F172A" font-family="Helvetica" font-size="14" lengthAdjust="spacing" textLength="108.9443" x="1262.53" y="821.7803">Weather Request</text></g><!--entity UNITS--><g class="entity" data-qualified-name="WS.CONFIG.UNITS" data-source-line="8" id="ent0005"><rect fill="#FFFFFF" height="48" rx="4" ry="4" style="stroke:#64748B;stroke-width:0.5;" width="118" x="47" y="81"/><text fill="#0F172A" font-family="Helvetica" font-size="14" lengthAdjust="spacing" textLength="75.4619" x="68.269" y="101.7803">Unit System</text><text fill="#0F172A" font-family="Helvetica" font-size="14" lengthAdjust="spacing" textLength="98" x="57" y="115.7803">(Metric / USCS)</text></g><!--entity FORMAT--><g class="entity" data-qualified-name="WS.CONFIG.FORMAT" data-source-line="9" id="ent0006"><rect fill="#FFFFFF" height="48" rx="4" ry="4" style="stroke:#64748B;stroke-width:0.5;" width="239.3926" x="207.3" y="81"/><text fill="#0F172A" font-family="Helvetica" font-size="14" lengthAdjust="spacing" textLength="90.2549" x="281.8688" y="101.7803">Output Format</text><text fill="#0F172A" font-family="Helvetica" font-size="14" lengthAdjust="spacing" textLength="219.3926" x="217.3" y="115.7803">(Compact / Detailed / PNG / JSON)</text></g><!--entity TIME--><g class="entity" data-qualified-name="WS.CONFIG.TIME" data-source-line="10" id="ent0007"><rect fill="#FFFFFF" height="48" rx="4" ry="4" style="stroke:#64748B;stroke-width:0.5;" width="192.7168" x="488.64" y="81"/><text fill="#0F172A" font-family="Helvetica" font-size="14" lengthAdjust="spacing" textLength="76.2549" x="546.871" y="101.7803">Time Range</text><text fill="#0F172A" font-family="Helvetica" font-size="14" lengthAdjust="spacing" textLength="172.7168" x="498.64" y="115.7803">(Current / Today / Forecast)</text></g><!--entity LOC--><g class="entity" data-qualified-name="WS.CORE.LOC" data-source-line="13" id="ent0009"><rect fill="#FFFFFF" height="48" rx="4" ry="4" style="stroke:#64748B;stroke-width:0.5;" width="193.4961" x="349.25" y="227"/><text fill="#0F172A" font-family="Helvetica" font-size="14" lengthAdjust="spacing" textLength="98.0547" x="396.9707" y="247.7803">Location Parser</text><text fill="#0F172A" font-family="Helvetica" font-size="14" lengthAdjust="spacing" textLength="173.4961" x="359.25" y="261.7803">(City / Airport / Coordinates)</text></g><!--entity ENC--><g class="entity" data-qualified-name="WS.CORE.ENC" data-source-line="14" id="ent0010"><rect fill="#FFFFFF" height="34" rx="4" ry="4" style="stroke:#64748B;stroke-width:0.5;" width="104.041" x="427.98" y="340"/><text fill="#0F172A" font-family="Helvetica" font-size="14" lengthAdjust="spacing" textLength="84.041" x="437.98" y="360.7803">URL Encoder</text></g><!--entity PRI--><g class="entity" data-qualified-name="WS.SOURCES.PRI" data-source-line="17" id="ent0012"><rect fill="#FFFFFF" height="48" rx="4" ry="4" style="stroke:#64748B;stroke-width:0.5;" width="77.5449" x="593.23" y="472"/><text fill="#0F172A" font-family="Helvetica" font-size="14" lengthAdjust="spacing" textLength="37.3379" x="613.3335" y="492.7803">wttr.in</text><text fill="#0F172A" font-family="Helvetica" font-size="14" lengthAdjust="spacing" textLength="57.5449" x="603.23" y="506.7803">(Primary)</text></g><!--entity SEC--><g class="entity" data-qualified-name="WS.SOURCES.SEC" data-source-line="18" id="ent0013"><rect fill="#FFFFFF" height="48" rx="4" ry="4" style="stroke:#64748B;stroke-width:0.5;" width="97.8203" x="583.09" y="631"/><text fill="#0F172A" font-family="Helvetica" font-size="14" lengthAdjust="spacing" textLength="77.8203" x="593.09" y="651.7803">Open-Meteo</text><text fill="#0F172A" font-family="Helvetica" font-size="14" lengthAdjust="spacing" textLength="61.4551" x="601.2726" y="665.7803">(Fallback)</text></g><!--entity COMPACT--><g class="entity" data-qualified-name="OUTPUT.COMPACT" data-source-line="22" id="ent0015"><rect fill="#FFFFFF" height="48" rx="4" ry="4" style="stroke:#64748B;stroke-width:0.5;" width="163.6465" x="777.18" y="631"/><text fill="#0F172A" font-family="Helvetica" font-size="14" lengthAdjust="spacing" textLength="119.8066" x="799.0999" y="651.7803">Compact Summary</text><text fill="#0F172A" font-family="Helvetica" font-size="14" lengthAdjust="spacing" textLength="143.6465" x="787.18" y="665.7803">&#127780;&#65039; 72&#176;F, Partly Cloudy</text></g><!--entity DETAIL--><g class="entity" data-qualified-name="OUTPUT.DETAIL" data-source-line="23" id="ent0016"><rect fill="#FFFFFF" height="48" rx="4" ry="4" style="stroke:#64748B;stroke-width:0.5;" width="139.0068" x="982.5" y="631"/><text fill="#0F172A" font-family="Helvetica" font-size="14" lengthAdjust="spacing" textLength="109.7168" x="997.145" y="651.7803">Detailed Forecast</text><text fill="#0F172A" font-family="Helvetica" font-size="14" lengthAdjust="spacing" textLength="119.0068" x="992.5" y="665.7803">(Multi-day, metrics)</text></g><!--entity IMG--><g class="entity" data-qualified-name="OUTPUT.IMG" data-source-line="24" id="ent0017"><rect fill="#FFFFFF" height="34" rx="4" ry="4" style="stroke:#64748B;stroke-width:0.5;" width="93.1377" x="1163.43" y="638"/><text fill="#0F172A" font-family="Helvetica" font-size="14" lengthAdjust="spacing" textLength="73.1377" x="1173.43" y="658.7803">PNG Image</text></g><!--entity JSON--><g class="entity" data-qualified-name="OUTPUT.JSON" data-source-line="25" id="ent0018"><rect fill="#FFFFFF" height="34" rx="4" ry="4" style="stroke:#64748B;stroke-width:0.5;" width="125.8135" x="1298.09" y="638"/><text fill="#0F172A" font-family="Helvetica" font-size="14" lengthAdjust="spacing" textLength="105.8135" x="1308.09" y="658.7803">Structured JSON</text></g><!--link REQ to LOC--><g class="link" data-entity-1="ent0002" data-entity-2="ent0009" data-link-type="dependency" data-source-line="27" id="lnk19"><path d="M1347.24,800.7 C1395.37,774.77 1484,727 1484,727 C1484,727 1530,656 1530,656 C1530,356 1530,356 1530,356 C1530,356 547,275 547,275 C547,275 550.4886,275.7752 548.0386,275.2252" fill="none" id="REQ-to-LOC" style="stroke:#64748B;stroke-width:1.1;"/><polygon fill="#64748B" points="543.16,274.13,551.0653,280.0042,548.0386,275.2252,552.8176,272.1985,543.16,274.13" style="stroke:#64748B;stroke-width:1.1;stroke-linejoin:miter;stroke-miterlimit:10;"/></g><!--link LOC to ENC--><g class="link" data-entity-1="ent0009" data-entity-2="ent0010" data-link-type="dependency" data-source-line="28" id="lnk20"><path d="M453.63,275.34 C460.01,294.86 467.4053,317.4779 473.0653,334.7779" fill="none" id="LOC-to-ENC" style="stroke:#64748B;stroke-width:1.1;"/><polygon fill="#64748B" points="474.62,339.53,475.6232,329.7324,473.0653,334.7779,468.0198,332.22,474.62,339.53" style="stroke:#64748B;stroke-width:1.1;stroke-linejoin:miter;stroke-miterlimit:10;"/></g><!--link ENC to PRI--><g class="link" data-entity-1="ent0010" data-entity-2="ent0012" data-link-type="dependency" data-source-line="29" id="lnk21"><path d="M498.03,374.25 C524.85,398.42 571.6557,440.6128 602.4157,468.3328" fill="none" id="ENC-to-PRI" style="stroke:#64748B;stroke-width:1.1;"/><polygon fill="#64748B" points="606.13,471.68,602.122,462.6835,602.4157,468.3328,596.7665,468.6264,606.13,471.68" style="stroke:#64748B;stroke-width:1.1;stroke-linejoin:miter;stroke-miterlimit:10;"/></g><!--link PRI to SEC--><g class="link" data-entity-1="ent0012" data-entity-2="ent0013" data-link-type="dependency" data-source-line="30" id="lnk22"><path d="M632,520.17 C632,549.85 632,596.01 632,625.74" fill="none" id="PRI-to-SEC" style="stroke:#64748B;stroke-width:1.1;stroke-dasharray:7,7;"/><polygon fill="#64748B" points="632,630.74,636,621.74,632,625.74,628,621.74,632,630.74" style="stroke:#64748B;stroke-width:1.1;stroke-linejoin:miter;stroke-miterlimit:10;"/><text fill="#334155" font-family="Helvetica" font-size="12" lengthAdjust="spacing" textLength="44.6836" x="633" y="562.2402">Fallback</text></g><!--link UNITS to CORE--><g class="link" data-entity-1="ent0005" data-entity-2="ent0008" data-link-type="dependency" data-source-line="31" id="lnk23"><path d="M146,129.5 C166,141.25 186,153 186,153 C186,153 561,170 561,170 C561,170 562.4538,174.845 564.6456,182.1503 C564.9196,183.0635 565.2051,184.0151 565.5008,185.0005 C565.5747,185.2468 564.2123,180.7062 564.2875,180.9567" fill="none" id="UNITS-to-CORE" style="stroke:#64748B;stroke-width:1.1;"/><polygon fill="#64748B" points="565.7244,185.7458,566.9693,175.9759,564.2875,180.9567,559.3067,178.2749,565.7244,185.7458" style="stroke:#64748B;stroke-width:1.1;stroke-linejoin:miter;stroke-miterlimit:10;"/></g><!--link FORMAT to CORE--><g class="link" data-entity-1="ent0006" data-entity-2="ent0008" data-link-type="dependency" data-source-line="32" id="lnk24"><path d="M397.5,129.5 C432.75,141.25 468,153 468,153 C468,153 561,170 561,170 C561,170 562.4538,174.845 564.6456,182.1503 C564.9196,183.0635 565.2051,184.0151 565.5008,185.0005 C565.5747,185.2468 564.2123,180.7062 564.2875,180.9567" fill="none" id="FORMAT-to-CORE" style="stroke:#64748B;stroke-width:1.1;"/><polygon fill="#64748B" points="565.7244,185.7458,566.9693,175.9759,564.2875,180.9567,559.3067,178.2749,565.7244,185.7458" style="stroke:#64748B;stroke-width:1.1;stroke-linejoin:miter;stroke-miterlimit:10;"/></g><!--link TIME to CORE--><g class="link" data-entity-1="ent0007" data-entity-2="ent0008" data-link-type="dependency" data-source-line="33" id="lnk25"><path d="M585,129.46 C585,139.5 585,151.8988 585,164.8872 C585,171.3814 585,178.023 585,184.591 C585,185.0015 585,180.4117 585,180.8215" fill="none" id="TIME-to-CORE" style="stroke:#64748B;stroke-width:1.1;"/><polygon fill="#64748B" points="585,185.8215,589,176.8215,585,180.8215,581,176.8215,585,185.8215" style="stroke:#64748B;stroke-width:1.1;stroke-linejoin:miter;stroke-miterlimit:10;"/></g><!--link PRI to OUTPUT--><g class="link" data-entity-1="ent0012" data-entity-2="ent0014" data-link-type="dependency" data-source-line="34" id="lnk26"><path d="M671.07,500.71 C832.87,516.09 1442,574 1442,574 C1442,574 1443.4538,578.845 1445.6456,586.1503 C1445.9196,587.0635 1446.2051,588.0151 1446.5008,589.0005 C1446.5747,589.2468 1445.2123,584.7062 1445.2875,584.9567" fill="none" id="PRI-to-OUTPUT" style="stroke:#64748B;stroke-width:1.1;"/><polygon fill="#64748B" points="1446.7244,589.7458,1447.9693,579.9759,1445.2875,584.9567,1440.3067,582.2749,1446.7244,589.7458" style="stroke:#64748B;stroke-width:1.1;stroke-linejoin:miter;stroke-miterlimit:10;"/></g><!--link SEC to OUTPUT--><g class="link" data-entity-1="ent0013" data-entity-2="ent0014" data-link-type="dependency" data-source-line="35" id="lnk27"><path d="M665.21,630.76 C708.85,598.92 780,547 780,547 C780,547 1421,547 1421,547 C1421,547 1442,574 1442,574 C1442,574 1443.3625,578.5988 1445.4383,585.6047 C1445.6978,586.4804 1445.9684,587.3938 1446.2489,588.3405 C1446.3891,588.8138 1445.1114,584.5015 1445.2564,584.991" fill="none" id="SEC-to-OUTPUT" style="stroke:#64748B;stroke-width:1.1;"/><polygon fill="#64748B" points="1446.6769,589.785,1447.9553,580.0194,1445.2564,584.991,1440.2849,582.2921,1446.6769,589.785" style="stroke:#64748B;stroke-width:1.1;stroke-linejoin:miter;stroke-miterlimit:10;"/></g><!--link COMPACT to NB--><g class="link" data-entity-1="ent0015" data-entity-2="ent0001" data-link-type="dependency" data-source-line="36" id="lnk28"><path d="M892.68,679.44 C922.39,700.13 961,727 961,727 C961,727 1022.28,749.15 1084.0388,771.4725 C1114.9181,782.6338 1145.9172,793.8381 1169.4358,802.3384 C1181.1951,806.5886 1191.0843,810.1627 1198.1533,812.7175 C1199.0369,813.0368 1199.8765,813.3402 1200.6701,813.627 C1201.067,813.7704 1196.7499,812.2103 1197.1236,812.3454" fill="none" id="COMPACT-to-NB" style="stroke:#64748B;stroke-width:1.1;"/><polygon fill="#64748B" points="1201.8259,814.0447,1194.7212,807.224,1197.1236,812.3454,1192.0022,814.7478,1201.8259,814.0447" style="stroke:#64748B;stroke-width:1.1;stroke-linejoin:miter;stroke-miterlimit:10;"/></g><!--link DETAIL to NB--><g class="link" data-entity-1="ent0016" data-entity-2="ent0001" data-link-type="dependency" data-source-line="37" id="lnk29"><path d="M1074.97,679.41 C1096.54,701.39 1129.5875,735.065 1157.5888,763.5975 C1171.5894,777.8638 1184.3284,790.8444 1193.7405,800.4347 C1196.0935,802.8323 1198.2385,805.0179 1200.1434,806.9589 C1200.6196,807.4441 1201.0808,807.914 1201.5265,808.3681 C1201.6379,808.4816 1198.2461,805.0257 1198.3556,805.1372" fill="none" id="DETAIL-to-NB" style="stroke:#64748B;stroke-width:1.1;"/><polygon fill="#64748B" points="1201.8578,808.7057,1198.4086,799.4806,1198.3556,805.1372,1192.699,805.0842,1201.8578,808.7057" style="stroke:#64748B;stroke-width:1.1;stroke-linejoin:miter;stroke-miterlimit:10;"/></g><!--link IMG to NB--><g class="link" data-entity-1="ent0017" data-entity-2="ent0001" data-link-type="dependency" data-source-line="38" id="lnk30"><path d="M1210,672.32 C1210,692.465 1210,727.8275 1210,758.5475 C1210,759.0275 1210,754.5064 1210,754.984" fill="none" id="IMG-to-NB" style="stroke:#64748B;stroke-width:1.1;"/><polygon fill="#64748B" points="1210,759.984,1214,750.984,1210,754.984,1206,750.984,1210,759.984" style="stroke:#64748B;stroke-width:1.1;stroke-linejoin:miter;stroke-miterlimit:10;"/></g><!--link JSON to NB--><g class="link" data-entity-1="ent0018" data-entity-2="ent0001" data-link-type="dependency" data-source-line="39" id="lnk31"><path d="M1341.75,672.47 C1317.23,693.44 1278,727 1278,727 C1278,727 1235,744 1235,744 C1235,744 1233.4863,748.4213 1231.2038,755.0877 C1230.9184,755.921 1230.6211,756.7893 1230.3132,757.6886 C1230.1593,758.1382 1230.0027,758.5955 1229.8437,759.06 C1229.7642,759.2922 1231.3037,754.7958 1231.2229,755.0316" fill="none" id="JSON-to-NB" style="stroke:#64748B;stroke-width:1.1;"/><polygon fill="#64748B" points="1229.6033,759.762,1236.303,752.543,1231.2229,755.0316,1228.7343,749.9516,1229.6033,759.762" style="stroke:#64748B;stroke-width:1.1;stroke-linejoin:miter;stroke-miterlimit:10;"/></g><?plantuml-src LLCxRjj04ErvYech1B0a84s050PaYX8OI2H3Kd3ZPasEbON9NMO_C8GWDmYGBgqR7o1bwbmeFa9cbvH55YlEa6_UctqpUiD5rTWQeLFo7hNcKh1cPhvWYtDksoOmiWCZuKuQ8rkekSBA42ZeMFN03WWNBq_Flo1XGX84YgCss5u0qv1SmxV0ePauD8IxGKQq2dByQb4RZycZpy7tCvNeMHRwWJUDNZps5HvvKn3RAp2KufuVh6Ak5TYouu0AqsGTRwQwUy5FVTsAjpiqYbUmW7qH5kzyqJw9os9SaLhJMGDhgLfcg2QKBIaRAbgXORp1ci8isT3lfo9DUfPrck-MvPYcv2r2JWaw3giK2iTHofeTwKdqM35j-l8otaLZAp8bApSESO187BZ0uNvvDBtTLbQz2HbJ6fLJuiRHBxdgf7A2ePIgve8PrBtMDWqd1kLRqgXaFPWO9U6uanKp30ffLOKZfujqduTHCMtcqHWrvuAQo1HlcJhsUbaUJ-pjKCne3YW9k6PDSqTIFRA8dFH8F4VTIQ5n68Rsg7HVPljoAdsQKM5R9tmhNfv-FF_xynC-lF_xUttfx37D4S96sleuUBdBbk5aOg_ZFSt6BOnj39_Ho2wXzRipcBYAocMy7LUxZOXRQjj_ZtURySV2A5iPguZSxOo7k80kIty2cCsk_5Ze-DZDW8wFdNrqO3w_SWR1HpYP5lZLzI2t6K6_W-VSBTKvSnmkwUqB7DKe7UpmhvBheB_UAQFBd4BNz13_1m00?></g></svg>