<svg xmlns="http://www.w3.org/2000/svg" xmlns:xlink="http://www.w3.org/1999/xlink" contentStyleType="text/css" data-diagram-type="DESCRIPTION" height="791px" preserveAspectRatio="none" style="width:1041px;height:791px;background:#FFFFFF;" version="1.1" viewBox="0 0 1041 791" width="1041px" zoomAndPan="magnify"><?plantuml 1.2026.5?><defs/><rect data-xfeat-white-canvas="true" fill="#FFFFFF" height="100%" width="100%" x="0" y="0"/><g><!--cluster External--><g class="cluster" data-qualified-name="External" data-source-line="3" id="ent0001"><rect fill="#FFFFFF" height="97" rx="4" ry="4" style="stroke:#CBD5E1;stroke-width:1;" width="536" x="491" y="506"/><text fill="#0F172A" font-family="Helvetica" font-size="14" font-weight="700" lengthAdjust="spacing" textLength="108.9443" x="704.5278" y="518.7803">External System</text></g><!--cluster HeartbeatComponent--><g class="cluster" data-qualified-name="HeartbeatComponent" data-source-line="8" id="ent0005"><rect fill="#FFFFFF" height="770" rx="4" ry="4" style="stroke:#CBD5E1;stroke-width:1;" width="460" x="7" y="7"/><text fill="#0F172A" font-family="Helvetica" font-size="14" font-weight="700" lengthAdjust="spacing" textLength="122.1172" x="175.9414" y="19.7803">nanobot/heartbeat</text></g><!--cluster Interface--><g class="cluster" data-qualified-name="HeartbeatComponent.Interface" data-source-line="9" id="ent0006"><rect fill="#FFFFFF" height="111" rx="4" ry="4" style="stroke:#CBD5E1;stroke-width:1;" width="160" x="134" y="48"/><text fill="#0F172A" font-family="Helvetica" font-size="14" font-weight="700" lengthAdjust="spacing" text-decoration="underline" textLength="20.9932" x="193.3896" y="60.7803">init</text><text fill="#0F172A" font-family="Helvetica" font-size="14" font-weight="700" lengthAdjust="spacing" textLength="20.2275" x="214.3828" y="60.7803">.py</text><text fill="#0F172A" font-family="Helvetica" font-size="14" font-weight="700" lengthAdjust="spacing" textLength="111.2412" x="158.3794" y="74.7803">Module Interface</text></g><!--cluster Core--><g class="cluster" data-qualified-name="HeartbeatComponent.Core" data-source-line="12" id="ent0008"><rect fill="#FFFFFF" height="561" rx="4" ry="4" style="stroke:#CBD5E1;stroke-width:1;" width="412" x="31" y="192"/><text fill="#0F172A" font-family="Helvetica" font-size="14" font-weight="700" lengthAdjust="spacing" textLength="68.4961" x="202.752" y="204.7803">service.py</text><text fill="#0F172A" font-family="Helvetica" font-size="14" font-weight="700" lengthAdjust="spacing" textLength="139.2412" x="167.3794" y="218.7803">Core Implementation</text></g><!--cluster Lifecycle--><g class="cluster" data-qualified-name="HeartbeatComponent.Core.Lifecycle" data-source-line="13" id="ent0009"><rect fill="#FFFFFF" height="83" rx="4" ry="4" style="stroke:#CBD5E1;stroke-width:1;" width="330" x="72" y="247"/><text fill="#0F172A" font-family="Helvetica" font-size="14" font-weight="700" lengthAdjust="spacing" textLength="149.3857" x="162.3071" y="259.7803">Lifecycle Management</text></g><!--cluster Engine--><g class="cluster" data-qualified-name="HeartbeatComponent.Core.Engine" data-source-line="18" id="ent0013"><rect fill="#FFFFFF" height="366" rx="4" ry="4" style="stroke:#CBD5E1;stroke-width:1;" width="364" x="55" y="363"/><text fill="#0F172A" font-family="Helvetica" font-size="14" font-weight="700" lengthAdjust="spacing" textLength="115.1377" x="179.4312" y="375.7803">Heartbeat Engine</text></g><!--entity WORKSPACE--><g class="entity" data-qualified-name="External.WORKSPACE" data-source-line="4" id="ent0002"><rect fill="#FFFFFF" height="48" rx="4" ry="4" style="stroke:#64748B;stroke-width:0.5;" width="127.3516" x="507.32" y="539"/><text fill="#0F172A" font-family="Helvetica" font-size="14" lengthAdjust="spacing" textLength="92.9102" x="524.5407" y="559.7803">&#128193; Workspace</text><text fill="#0F172A" font-family="Helvetica" font-size="14" lengthAdjust="spacing" textLength="107.3516" x="517.32" y="573.7803">HEARTBEAT.md</text></g><!--entity CALLBACKS--><g class="entity" data-qualified-name="External.CALLBACKS" data-source-line="5" id="ent0003"><rect fill="#FFFFFF" height="48" rx="4" ry="4" style="stroke:#64748B;stroke-width:0.5;" width="166.3164" x="844.84" y="539"/><text fill="#0F172A" font-family="Helvetica" font-size="14" lengthAdjust="spacing" textLength="83.5791" x="886.2087" y="559.7803">&#128268; Callbacks</text><text fill="#0F172A" font-family="Helvetica" font-size="14" lengthAdjust="spacing" textLength="146.3164" x="854.84" y="573.7803">(on_execute, on_notify)</text></g><!--entity LLM_PROVIDER--><g class="entity" data-qualified-name="External.LLM_PROVIDER" data-source-line="6" id="ent0004"><rect fill="#FFFFFF" height="34" rx="4" ry="4" style="stroke:#64748B;stroke-width:0.5;" width="126.1445" x="676.93" y="546"/><text fill="#0F172A" font-family="Helvetica" font-size="14" lengthAdjust="spacing" textLength="106.1445" x="686.93" y="566.7803">&#129302; LLM Provider</text></g><!--entity PUBLIC--><g class="entity" data-qualified-name="HeartbeatComponent.Interface.PUBLIC" data-source-line="10" id="ent0007"><rect fill="#FFFFFF" height="48" rx="4" ry="4" style="stroke:#64748B;stroke-width:0.5;" width="128.165" x="149.92" y="95"/><text fill="#0F172A" font-family="Helvetica" font-size="14" lengthAdjust="spacing" textLength="108.165" x="159.92" y="115.7803">HeartbeatService</text><text fill="#0F172A" font-family="Helvetica" font-size="14" lengthAdjust="spacing" textLength="73.9102" x="177.0474" y="129.7803">(Public API)</text></g><!--entity START--><g class="entity" data-qualified-name="HeartbeatComponent.Core.Lifecycle.START" data-source-line="14" id="ent0010"><rect fill="#FFFFFF" height="34" rx="4" ry="4" style="stroke:#64748B;stroke-width:0.5;" width="56.5518" x="87.72" y="280"/><text fill="#0F172A" font-family="Helvetica" font-size="14" lengthAdjust="spacing" textLength="36.5518" x="97.72" y="300.7803">start()</text></g><!--entity STOP--><g class="entity" data-qualified-name="HeartbeatComponent.Core.Lifecycle.STOP" data-source-line="15" id="ent0011"><rect fill="#FFFFFF" height="34" rx="4" ry="4" style="stroke:#64748B;stroke-width:0.5;" width="55.7861" x="186.11" y="280"/><text fill="#0F172A" font-family="Helvetica" font-size="14" lengthAdjust="spacing" textLength="35.7861" x="196.11" y="300.7803">stop()</text></g><!--entity TRIGGER--><g class="entity" data-qualified-name="HeartbeatComponent.Core.Lifecycle.TRIGGER" data-source-line="16" id="ent0012"><rect fill="#FFFFFF" height="34" rx="4" ry="4" style="stroke:#64748B;stroke-width:0.5;" width="102.4756" x="283.76" y="280"/><text fill="#0F172A" font-family="Helvetica" font-size="14" lengthAdjust="spacing" textLength="82.4756" x="293.76" y="300.7803">trigger_now()</text></g><!--entity LOOP--><g class="entity" data-qualified-name="HeartbeatComponent.Core.Engine.LOOP" data-source-line="19" id="ent0014"><rect fill="#FFFFFF" height="48" rx="4" ry="4" style="stroke:#64748B;stroke-width:0.5;" width="158.5098" x="70.75" y="396"/><text fill="#0F172A" font-family="Helvetica" font-size="14" lengthAdjust="spacing" textLength="96.0479" x="101.981" y="416.7803">&#9200; Async Loop</text><text fill="#0F172A" font-family="Helvetica" font-size="14" lengthAdjust="spacing" textLength="138.5098" x="80.75" y="430.7803">(Configurable Interval)</text></g><!--entity READER--><g class="entity" data-qualified-name="HeartbeatComponent.Core.Engine.READER" data-source-line="20" id="ent0015"><rect fill="#FFFFFF" height="48" rx="4" ry="4" style="stroke:#64748B;stroke-width:0.5;" width="136.6758" x="261.66" y="539"/><text fill="#0F172A" font-family="Helvetica" font-size="14" lengthAdjust="spacing" textLength="95.2549" x="282.3704" y="559.7803">&#128196; File Reader</text><text fill="#0F172A" font-family="Helvetica" font-size="14" lengthAdjust="spacing" textLength="116.6758" x="271.66" y="573.7803">(HEARTBEAT.md)</text></g><!--entity DECIDER--><g class="entity" data-qualified-name="HeartbeatComponent.Core.Engine.DECIDER" data-source-line="21" id="ent0016"><rect fill="#FFFFFF" height="48" rx="4" ry="4" style="stroke:#64748B;stroke-width:0.5;" width="137.4961" x="263.25" y="665"/><text fill="#0F172A" font-family="Helvetica" font-size="14" lengthAdjust="spacing" textLength="107.7031" x="278.1465" y="685.7803">&#129504; LLM Decision</text><text fill="#0F172A" font-family="Helvetica" font-size="14" lengthAdjust="spacing" textLength="117.4961" x="273.25" y="699.7803">(Phase 1: skip/run)</text></g><!--entity EXECUTOR--><g class="entity" data-qualified-name="HeartbeatComponent.Core.Engine.EXECUTOR" data-source-line="22" id="ent0017"><rect fill="#FFFFFF" height="48" rx="4" ry="4" style="stroke:#64748B;stroke-width:0.5;" width="132.3652" x="270.82" y="396"/><text fill="#0F172A" font-family="Helvetica" font-size="14" lengthAdjust="spacing" textLength="112.3652" x="280.82" y="416.7803">&#9889; Task Executor</text><text fill="#0F172A" font-family="Helvetica" font-size="14" lengthAdjust="spacing" textLength="60.6963" x="306.6545" y="430.7803">(Phase 2)</text></g><!--link PUBLIC to START--><g class="link" data-entity-1="ent0007" data-entity-2="ent0010" data-link-type="dependency" data-source-line="26" id="lnk18"><path d="M196.03,143.47 C182.05,161.73 165,184 165,184 C165,184 138.5742,244.3992 125.0242,275.3692" fill="none" id="PUBLIC-to-START" style="stroke:#64748B;stroke-width:1.1;"/><polygon fill="#64748B" points="123.02,279.95,130.2921,273.308,125.0242,275.3692,122.9629,270.1013,123.02,279.95" style="stroke:#64748B;stroke-width:1.1;stroke-linejoin:miter;stroke-miterlimit:10;"/></g><!--link PUBLIC to STOP--><g class="link" data-entity-1="ent0007" data-entity-2="ent0011" data-link-type="dependency" data-source-line="27" id="lnk19"><path d="M214,143.37 C214,179.65 214,243.6 214,274.86" fill="none" id="PUBLIC-to-STOP" style="stroke:#64748B;stroke-width:1.1;"/><polygon fill="#64748B" points="214,279.86,218,270.86,214,274.86,210,270.86,214,279.86" style="stroke:#64748B;stroke-width:1.1;stroke-linejoin:miter;stroke-miterlimit:10;"/></g><!--link PUBLIC to TRIGGER--><g class="link" data-entity-1="ent0007" data-entity-2="ent0012" data-link-type="dependency" data-source-line="28" id="lnk20"><path d="M231.97,143.47 C245.95,161.73 263,184 263,184 C263,184 302.0771,244.7735 321.9771,275.7435" fill="none" id="PUBLIC-to-TRIGGER" style="stroke:#64748B;stroke-width:1.1;"/><polygon fill="#64748B" points="324.68,279.95,323.18,270.216,321.9771,275.7435,316.4496,274.5407,324.68,279.95" style="stroke:#64748B;stroke-width:1.1;stroke-linejoin:miter;stroke-miterlimit:10;"/></g><!--link START to LOOP--><g class="link" data-entity-1="ent0010" data-entity-2="ent0014" data-link-type="dependency" data-source-line="29" id="lnk21"><path d="M120.59,314.32 C126.49,335.35 135.4474,367.2264 142.1574,391.1064" fill="none" id="START-to-LOOP" style="stroke:#64748B;stroke-width:1.1;"/><polygon fill="#64748B" points="143.51,395.92,144.9263,386.1735,142.1574,391.1064,137.2245,388.3376,143.51,395.92" style="stroke:#64748B;stroke-width:1.1;stroke-linejoin:miter;stroke-miterlimit:10;"/></g><!--link TRIGGER to LOOP--><g class="link" data-entity-1="ent0012" data-entity-2="ent0014" data-link-type="dependency" data-source-line="30" id="lnk22"><path d="M310.05,314.32 C278,335.28 226.3342,369.0728 189.8142,392.9628" fill="none" id="TRIGGER-to-LOOP" style="stroke:#64748B;stroke-width:1.1;"/><polygon fill="#64748B" points="185.63,395.7,195.3514,394.1205,189.8142,392.9628,190.9719,387.4257,185.63,395.7" style="stroke:#64748B;stroke-width:1.1;stroke-linejoin:miter;stroke-miterlimit:10;"/></g><!--link LOOP to READER--><g class="link" data-entity-1="ent0014" data-entity-2="ent0015" data-link-type="dependency" data-source-line="31" id="lnk23"><path d="M179.72,444.28 C213.07,470.41 262.9239,509.4567 296.2939,535.5967" fill="none" id="LOOP-to-READER" style="stroke:#64748B;stroke-width:1.1;"/><polygon fill="#64748B" points="300.23,538.68,295.6116,529.9811,296.2939,535.5967,290.6783,536.2789,300.23,538.68" style="stroke:#64748B;stroke-width:1.1;stroke-linejoin:miter;stroke-miterlimit:10;"/><text fill="#334155" font-family="Helvetica" font-size="12" lengthAdjust="spacing" textLength="64.6816" x="235.6" y="486.2402">Interval Tick</text></g><!--link READER to WORKSPACE--><g class="link" data-entity-1="ent0015" data-entity-2="ent0002" data-link-type="dependency" data-source-line="32" id="lnk24"><path d="M398.74,563 C432.82,563 468.73,563 502.13,563" fill="none" id="READER-to-WORKSPACE" style="stroke:#64748B;stroke-width:1.1;"/><polygon fill="#64748B" points="507.13,563,498.13,559,502.13,563,498.13,567,507.13,563" style="stroke:#64748B;stroke-width:1.1;stroke-linejoin:miter;stroke-miterlimit:10;"/><text fill="#334155" font-family="Helvetica" font-size="12" lengthAdjust="spacing" textLength="64.0254" x="420.83" y="556.2402">Read Tasks</text></g><!--link READER to DECIDER--><g class="link" data-entity-1="ent0015" data-entity-2="ent0016" data-link-type="dependency" data-source-line="33" id="lnk25"><path d="M330.38,587.32 C330.73,609.49 331.1887,637.6507 331.5487,659.7807" fill="none" id="READER-to-DECIDER" style="stroke:#64748B;stroke-width:1.1;"/><polygon fill="#64748B" points="331.63,664.78,335.4831,655.7161,331.5487,659.7807,327.4841,655.8463,331.63,664.78" style="stroke:#64748B;stroke-width:1.1;stroke-linejoin:miter;stroke-miterlimit:10;"/><text fill="#334155" font-family="Helvetica" font-size="12" lengthAdjust="spacing" textLength="71.3672" x="332.06" y="629.2402">Task Content</text></g><!--link DECIDER to LLM_PROVIDER--><g class="link" data-entity-1="ent0016" data-entity-2="ent0004" data-link-type="dependency" data-source-line="34" id="lnk26"><path d="M401.11,671.58 C496.26,648.96 656,611 656,611 C656,611 682.0365,596.4312 706.2565,582.8812" fill="none" id="DECIDER-to-LLM_PROVIDER" style="stroke:#64748B;stroke-width:1.1;"/><polygon fill="#64748B" points="710.62,580.44,700.8127,581.3433,706.2565,582.8812,704.7186,588.325,710.62,580.44" style="stroke:#64748B;stroke-width:1.1;stroke-linejoin:miter;stroke-miterlimit:10;"/><text fill="#334155" font-family="Helvetica" font-size="12" lengthAdjust="spacing" textLength="71.3613" x="623.3" y="629.2402">LLM Analysis</text></g><!--link LLM_PROVIDER to EXECUTOR--><g class="link" data-entity-1="ent0004" data-entity-2="ent0017" data-link-type="dependency" data-source-line="35" id="lnk27"><path d="M718.37,545.52 C693.48,526.56 656,498 656,498 C656,498 501.8305,460.7829 408.3405,438.2229" fill="none" id="LLM_PROVIDER-to-EXECUTOR" style="stroke:#64748B;stroke-width:1.1;"/><polygon fill="#64748B" points="403.48,437.05,411.2906,443.0496,408.3405,438.2229,413.1672,435.2728,403.48,437.05" style="stroke:#64748B;stroke-width:1.1;stroke-linejoin:miter;stroke-miterlimit:10;"/><text fill="#334155" font-family="Helvetica" font-size="12" lengthAdjust="spacing" textLength="70.0313" x="623.82" y="486.2402">Decision: run</text></g><!--link LLM_PROVIDER to LOOP--><g class="link" data-entity-1="ent0004" data-entity-2="ent0014" data-link-type="dependency" data-source-line="36" id="lnk28"><path d="M718.37,545.52 C693.48,526.56 656,498 656,498 C656,498 484,490 484,490 C484,490 250,444 250,444 C250,444 246.2921,443.1537 234.1521,440.3537" fill="none" id="LLM_PROVIDER-to-LOOP" style="stroke:#64748B;stroke-width:1.1;"/><polygon fill="#64748B" points="229.28,439.23,237.1508,445.1504,234.1521,440.3537,238.9487,437.355,229.28,439.23" style="stroke:#64748B;stroke-width:1.1;stroke-linejoin:miter;stroke-miterlimit:10;"/><text fill="#334155" font-family="Helvetica" font-size="12" lengthAdjust="spacing" textLength="74.0273" x="485" y="486.2402">Decision: skip</text></g><!--link EXECUTOR to CALLBACKS--><g class="link" data-entity-1="ent0017" data-entity-2="ent0003" data-link-type="dependency" data-source-line="37" id="lnk29"><path d="M403.64,430.96 C509.69,446.81 705,476 705,476 C705,476 824,498 824,498 C824,498 855.9214,517.65 885.6014,535.91" fill="none" id="EXECUTOR-to-CALLBACKS" style="stroke:#64748B;stroke-width:1.1;"/><polygon fill="#64748B" points="889.86,538.53,884.2905,530.4071,885.6014,535.91,880.0985,537.2209,889.86,538.53" style="stroke:#64748B;stroke-width:1.1;stroke-linejoin:miter;stroke-miterlimit:10;"/><text fill="#334155" font-family="Helvetica" font-size="12" lengthAdjust="spacing" textLength="43.3594" x="779.66" y="486.2402">Execute</text></g><!--link EXECUTOR to CALLBACKS--><g class="link" data-entity-1="ent0017" data-entity-2="ent0003" data-link-type="dependency" data-source-line="38" id="lnk30"><path d="M403.51,428.36 C538.94,443.35 834,476 834,476 C834,476 870.7909,509.665 898.6209,535.125" fill="none" id="EXECUTOR-to-CALLBACKS-1" style="stroke:#64748B;stroke-width:1.1;"/><polygon fill="#64748B" points="902.31,538.5,898.3695,529.4738,898.6209,535.125,892.9696,535.3764,902.31,538.5" style="stroke:#64748B;stroke-width:1.1;stroke-linejoin:miter;stroke-miterlimit:10;"/><text fill="#334155" font-family="Helvetica" font-size="12" lengthAdjust="spacing" textLength="40.0137" x="848.64" y="486.2402">Results</text></g><?plantuml-src TLF1ZjCm4BtdAuOz5Obs1SSUaD8qx5QRgb6QPJbKgjpKJQqcTcGxPIl40McFI1n07BW04X9Nlcc_W4zWRBVP18GgLV7CUvvvRpoF6C-AUasXac93bMA2awAljxIa0rQNXQT51Lh0IcWjIbWpIJED8AyYsOxa5Cx2Mqqbac1-K9gMPq0KDB4tdi4JdXU8_Ftrupku4NAda4mN_3BqatGK-kcWN5lQpIovciT-47PPdzv3G8fYXHNLWlS4Nz9RcjMQFW7yvaAppU6nlI3mesZa1rVpxWK_FaCKJI6MOi_ML5ee1fPnCdiv6OU9z_P13YTSeDZpBILIhoZH5drvEWMYh0IdNAEqXhDSCixqSZce3Wi-5UiQoquuMh11dPRVdBgEDDVEgTmpuqalhbS5oy2F9qvIV3sA9a6xG-MmjbWW99OggmBdnJKnat56c7YhmuXjQ7R8iEQKS8mOjBEXINGQKneRwxaEvYcEgPiKLPERnUsKbYpFgSIXl3uYqcHoST6rk54D8SyPTmwvpsuNznz-WQyEF8D8Y0hD2GJViBoMP7LoU4yALoUQTJl1ntO7BnX-9fJWq97TVc-Eb8I-6N-7zlERVInZcZ6p3MOaMw8eF1s2sh7gNDRSaSTXCFcBVV_bEwH4xN01p0CLic4_SvpmLHXSfpDZX_cvuKA___peSYU0Wbhdav4MQ2DMyZ7y431_zkJ4mR0n2bAMxRnZs22QVKEGSSdshjg8eqRCMrdelyQNuvt2jcXhaH1dlFDnzG-AAQ-JC-2JVWIU31u2ElelqifeeupvNiCta6RR4USCf_y795JLXLP_0000?></g></svg>