<svg xmlns="http://www.w3.org/2000/svg" xmlns:xlink="http://www.w3.org/1999/xlink" contentStyleType="text/css" data-diagram-type="SEQUENCE" height="713px" preserveAspectRatio="none" style="width:677px;height:713px;background:#FFFFFF;" version="1.1" viewBox="0 0 677 713" width="677px" zoomAndPan="magnify"><?plantuml 1.2026.5?><defs/><rect data-xfeat-white-canvas="true" fill="#FFFFFF" height="100%" width="100%" x="0" y="0"/><g><rect fill="#F8FAFC" height="120" rx="4" ry="4" style="stroke:#CBD5E1;stroke-width:1.5;" width="443.1831" x="217.9624" y="150"/><rect fill="#F8FAFC" height="205" rx="4" ry="4" style="stroke:#CBD5E1;stroke-width:1.5;" width="523.7256" x="10" y="344"/><rect fill="#F8FAFC" height="84" rx="4" ry="4" style="stroke:#CBD5E1;stroke-width:1.5;" width="291.8589" x="20" y="458"/><path d="M20,500 L311.8589,500 L311.8589,538 A4,4 0 0 1 307.8589,542 L24,542 A4,4 0 0 1 20,538 L20,500" fill="#F8FAFC" style="stroke:none;stroke-width:1;"/><g class="participant-lifeline" data-entity-uid="part1" data-qualified-name="N" data-source-line="2" id="part1-lifeline"><g><title>Nanobot</title><rect fill="#000000" fill-opacity="0.00000" height="644" width="8" x="59.4653" y="34"/><line style="stroke:#94A3B8;stroke-width:0.5;stroke-dasharray:5,5;" x1="63" x2="63" y1="34" y2="678"/></g></g><g class="participant-lifeline" data-entity-uid="part2" data-qualified-name="T" data-source-line="3" id="part2-lifeline"><g><title>tmux Skill</title><rect fill="#000000" fill-opacity="0.00000" height="644" width="8" x="260.9106" y="34"/><line style="stroke:#94A3B8;stroke-width:0.5;stroke-dasharray:5,5;" x1="263.9624" x2="263.9624" y1="34" y2="678"/></g></g><g class="participant-lifeline" data-entity-uid="part3" data-qualified-name="S" data-source-line="4" id="part3-lifeline"><g><title>tmux Server</title><rect fill="#000000" fill-opacity="0.00000" height="644" width="8" x="474.9946" y="34"/><line style="stroke:#94A3B8;stroke-width:0.5;stroke-dasharray:5,5;" x1="478.2637" x2="478.2637" y1="34" y2="678"/></g></g><g class="participant-lifeline" data-entity-uid="part4" data-qualified-name="A" data-source-line="5" id="part4-lifeline"><g><title>Coding Agent</title><rect fill="#000000" fill-opacity="0.00000" height="644" width="8" x="597.7251" y="34"/><line style="stroke:#94A3B8;stroke-width:0.5;stroke-dasharray:5,5;" x1="601.3047" x2="601.3047" y1="34" y2="678"/></g></g><g class="participant participant-head" data-entity-uid="part1" data-qualified-name="N" data-source-line="2" id="part1-head"><rect fill="#F8FAFC" height="28" rx="4" ry="4" style="stroke:#475569;stroke-width:0.5;" width="66.9307" x="30" y="5"/><text fill="#0F172A" font-family="Helvetica" font-size="14" lengthAdjust="spacing" textLength="52.9307" x="37" y="22.7803">Nanobot</text></g><g class="participant participant-tail" data-entity-uid="part1" data-qualified-name="N" data-source-line="2" id="part1-tail"><rect fill="#F8FAFC" height="28" rx="4" ry="4" style="stroke:#475569;stroke-width:0.5;" width="66.9307" x="30" y="677"/><text fill="#0F172A" font-family="Helvetica" font-size="14" lengthAdjust="spacing" textLength="52.9307" x="37" y="694.7803">Nanobot</text></g><g class="participant participant-head" data-entity-uid="part2" data-qualified-name="T" data-source-line="3" id="part2-head"><rect fill="#F8FAFC" height="28" rx="4" ry="4" style="stroke:#475569;stroke-width:0.5;" width="73.8965" x="227.9624" y="5"/><text fill="#0F172A" font-family="Helvetica" font-size="14" lengthAdjust="spacing" textLength="59.8965" x="234.9624" y="22.7803">tmux Skill</text></g><g class="participant participant-tail" data-entity-uid="part2" data-qualified-name="T" data-source-line="3" id="part2-tail"><rect fill="#F8FAFC" height="28" rx="4" ry="4" style="stroke:#475569;stroke-width:0.5;" width="73.8965" x="227.9624" y="677"/><text fill="#0F172A" font-family="Helvetica" font-size="14" lengthAdjust="spacing" textLength="59.8965" x="234.9624" y="694.7803">tmux Skill</text></g><g class="participant participant-head" data-entity-uid="part3" data-qualified-name="S" data-source-line="4" id="part3-head"><rect fill="#F8FAFC" height="28" rx="4" ry="4" style="stroke:#475569;stroke-width:0.5;" width="89.4619" x="434.2637" y="5"/><text fill="#0F172A" font-family="Helvetica" font-size="14" lengthAdjust="spacing" textLength="75.4619" x="441.2637" y="22.7803">tmux Server</text></g><g class="participant participant-tail" data-entity-uid="part3" data-qualified-name="S" data-source-line="4" id="part3-tail"><rect fill="#F8FAFC" height="28" rx="4" ry="4" style="stroke:#475569;stroke-width:0.5;" width="89.4619" x="434.2637" y="677"/><text fill="#0F172A" font-family="Helvetica" font-size="14" lengthAdjust="spacing" textLength="75.4619" x="441.2637" y="694.7803">tmux Server</text></g><g class="participant participant-head" data-entity-uid="part4" data-qualified-name="A" data-source-line="5" id="part4-head"><rect fill="#F8FAFC" height="28" rx="4" ry="4" style="stroke:#475569;stroke-width:0.5;" width="98.8408" x="552.3047" y="5"/><text fill="#0F172A" font-family="Helvetica" font-size="14" lengthAdjust="spacing" textLength="84.8408" x="559.3047" y="22.7803">Coding Agent</text></g><g class="participant participant-tail" data-entity-uid="part4" data-qualified-name="A" data-source-line="5" id="part4-tail"><rect fill="#F8FAFC" height="28" rx="4" ry="4" style="stroke:#475569;stroke-width:0.5;" width="98.8408" x="552.3047" y="677"/><text fill="#0F172A" font-family="Helvetica" font-size="14" lengthAdjust="spacing" textLength="84.8408" x="559.3047" y="694.7803">Coding Agent</text></g><path d="M24,53 L24,69 A4,4 0 0 0 28,73 L636,73 A4,4 0 0 0 640,69 L640,59 L630,49 L28,49 A4,4 0 0 0 24,53" fill="#FFF7ED" style="stroke:#FDBA74;stroke-width:0.5;"/><path d="M630,49 L630,57 A2,2 0 0 0 632,59 L640,59 L630,49" fill="#FFF7ED" style="stroke:#FDBA74;stroke-width:0.5;"/><text fill="#7C2D12" font-family="Helvetica" font-size="14" lengthAdjust="spacing" textLength="208.5371" x="227.8042" y="64.7803">Parallel Agent Orchestration Flow</text><g class="message" data-entity-1="part1" data-entity-2="part2" data-source-line="7" id="msg1"><line style="stroke:#64748B;stroke-width:1.1;" x1="262.9106" x2="252.9106" y1="96" y2="92"/><line style="stroke:#64748B;stroke-width:1.1;" x1="262.9106" x2="252.9106" y1="96" y2="100"/><line style="stroke:#64748B;stroke-width:1.1;" x1="63.4653" x2="263.9106" y1="96" y2="96"/><text fill="#334155" font-family="Helvetica" font-size="12" lengthAdjust="spacing" textLength="177.4453" x="75.4653" y="91.2402">Request: Run 3 agents in parallel</text></g><g class="message" data-entity-1="part2" data-entity-2="part2" data-source-line="8" id="msg2"><line style="stroke:#64748B;stroke-width:1.1;" x1="264.9106" x2="306.9106" y1="122" y2="122"/><line style="stroke:#64748B;stroke-width:1.1;" x1="306.9106" x2="306.9106" y1="122" y2="135"/><line style="stroke:#64748B;stroke-width:1.1;" x1="264.9106" x2="306.9106" y1="135" y2="135"/><line style="stroke:#64748B;stroke-width:1.1;" x1="265.9106" x2="275.9106" y1="135" y2="131"/><line style="stroke:#64748B;stroke-width:1.1;" x1="265.9106" x2="275.9106" y1="135" y2="139"/><text fill="#334155" font-family="Helvetica" font-size="12" lengthAdjust="spacing" textLength="165.4336" x="271.9106" y="117.2402">Generate isolated socket paths</text></g><path d="M221.9624,150 L292.5073,150 L292.5073,156 L282.5073,166 L217.9624,166 L217.9624,154 A4,4 0 0 1 221.9624,150" fill="#F8FAFC" style="stroke:#CBD5E1;stroke-width:1.5;"/><rect fill="none" height="120" rx="4" ry="4" style="stroke:#CBD5E1;stroke-width:1.5;" width="443.1831" x="217.9624" y="150"/><text fill="#0F172A" font-family="Helvetica" font-size="14" font-weight="700" lengthAdjust="spacing" textLength="29.5449" x="232.9624" y="161.7803">loop</text><text fill="#334155" font-family="Helvetica" font-size="14" font-weight="700" lengthAdjust="spacing" textLength="108.9033" x="307.5073" y="162.7803">[For each agent]</text><g class="message" data-entity-1="part2" data-entity-2="part3" data-source-line="10" id="msg3"><line style="stroke:#64748B;stroke-width:1.1;" x1="476.9946" x2="466.9946" y1="184" y2="180"/><line style="stroke:#64748B;stroke-width:1.1;" x1="476.9946" x2="466.9946" y1="184" y2="188"/><line style="stroke:#64748B;stroke-width:1.1;" x1="264.9106" x2="477.9946" y1="184" y2="184"/><text fill="#334155" font-family="Helvetica" font-size="12" lengthAdjust="spacing" textLength="170.7422" x="286.5815" y="179.2402">Create session (isolated socket)</text></g><g class="message" data-entity-1="part3" data-entity-2="part2" data-source-line="11" id="msg4"><line style="stroke:#64748B;stroke-width:1.1;" x1="265.9106" x2="275.9106" y1="210" y2="206"/><line style="stroke:#64748B;stroke-width:1.1;" x1="265.9106" x2="275.9106" y1="210" y2="214"/><line style="stroke:#64748B;stroke-width:1.1;stroke-dasharray:2,2;" x1="264.9106" x2="477.9946" y1="210" y2="210"/><text fill="#334155" font-family="Helvetica" font-size="12" lengthAdjust="spacing" textLength="86.0508" x="328.9272" y="205.2402">Session created</text></g><g class="message" data-entity-1="part2" data-entity-2="part3" data-source-line="12" id="msg5"><line style="stroke:#64748B;stroke-width:1.1;" x1="476.9946" x2="466.9946" y1="236" y2="232"/><line style="stroke:#64748B;stroke-width:1.1;" x1="476.9946" x2="466.9946" y1="236" y2="240"/><line style="stroke:#64748B;stroke-width:1.1;" x1="264.9106" x2="477.9946" y1="236" y2="236"/><text fill="#334155" font-family="Helvetica" font-size="12" lengthAdjust="spacing" textLength="190.084" x="276.9106" y="231.2402">Send startup command (send-keys)</text></g><g class="message" data-entity-1="part3" data-entity-2="part4" data-source-line="13" id="msg6"><line style="stroke:#64748B;stroke-width:1.1;" x1="599.7251" x2="589.7251" y1="262" y2="258"/><line style="stroke:#64748B;stroke-width:1.1;" x1="599.7251" x2="589.7251" y1="262" y2="266"/><line style="stroke:#64748B;stroke-width:1.1;" x1="478.9946" x2="600.7251" y1="262" y2="262"/><text fill="#334155" font-family="Helvetica" font-size="12" lengthAdjust="spacing" textLength="98.7305" x="490.9946" y="257.2402">Execute agent CLI</text></g><g class="message" data-entity-1="part2" data-entity-2="part1" data-source-line="15" id="msg7"><line style="stroke:#64748B;stroke-width:1.1;" x1="64.4653" x2="74.4653" y1="295" y2="291"/><line style="stroke:#64748B;stroke-width:1.1;" x1="64.4653" x2="74.4653" y1="295" y2="299"/><line style="stroke:#64748B;stroke-width:1.1;stroke-dasharray:2,2;" x1="63.4653" x2="263.9106" y1="295" y2="295"/><text fill="#334155" font-family="Helvetica" font-size="12" lengthAdjust="spacing" textLength="82.043" x="123.1665" y="290.2402">Sessions ready</text></g><path d="M24,312 L24,328 A4,4 0 0 0 28,332 L636,332 A4,4 0 0 0 640,328 L640,318 L630,308 L28,308 A4,4 0 0 0 24,312" fill="#FFF7ED" style="stroke:#FDBA74;stroke-width:0.5;"/><path d="M630,308 L630,316 A2,2 0 0 0 632,318 L640,318 L630,308" fill="#FFF7ED" style="stroke:#FDBA74;stroke-width:0.5;"/><text fill="#7C2D12" font-family="Helvetica" font-size="14" lengthAdjust="spacing" textLength="111.2822" x="276.4316" y="323.7803">Output Monitoring</text><path d="M14,344 L84.5449,344 L84.5449,350 L74.5449,360 L10,360 L10,348 A4,4 0 0 1 14,344" fill="#F8FAFC" style="stroke:#CBD5E1;stroke-width:1.5;"/><rect fill="none" height="205" rx="4" ry="4" style="stroke:#CBD5E1;stroke-width:1.5;" width="523.7256" x="10" y="344"/><text fill="#0F172A" font-family="Helvetica" font-size="14" font-weight="700" lengthAdjust="spacing" textLength="29.5449" x="25" y="355.7803">loop</text><text fill="#334155" font-family="Helvetica" font-size="14" font-weight="700" lengthAdjust="spacing" textLength="118.9863" x="99.5449" y="356.7803">[Until completion]</text><g class="message" data-entity-1="part2" data-entity-2="part3" data-source-line="18" id="msg8"><line style="stroke:#64748B;stroke-width:1.1;" x1="476.9946" x2="466.9946" y1="378" y2="374"/><line style="stroke:#64748B;stroke-width:1.1;" x1="476.9946" x2="466.9946" y1="378" y2="382"/><line style="stroke:#64748B;stroke-width:1.1;" x1="264.9106" x2="477.9946" y1="378" y2="378"/><text fill="#334155" font-family="Helvetica" font-size="12" lengthAdjust="spacing" textLength="109.418" x="317.2437" y="373.2402">Capture pane output</text></g><g class="message" data-entity-1="part3" data-entity-2="part2" data-source-line="19" id="msg9"><line style="stroke:#64748B;stroke-width:1.1;" x1="265.9106" x2="275.9106" y1="404" y2="400"/><line style="stroke:#64748B;stroke-width:1.1;" x1="265.9106" x2="275.9106" y1="404" y2="408"/><line style="stroke:#64748B;stroke-width:1.1;stroke-dasharray:2,2;" x1="264.9106" x2="477.9946" y1="404" y2="404"/><text fill="#334155" font-family="Helvetica" font-size="12" lengthAdjust="spacing" textLength="80.6953" x="331.605" y="399.2402">Terminal buffer</text></g><g class="message" data-entity-1="part2" data-entity-2="part2" data-source-line="20" id="msg10"><line style="stroke:#64748B;stroke-width:1.1;" x1="264.9106" x2="306.9106" y1="430" y2="430"/><line style="stroke:#64748B;stroke-width:1.1;" x1="306.9106" x2="306.9106" y1="430" y2="443"/><line style="stroke:#64748B;stroke-width:1.1;" x1="264.9106" x2="306.9106" y1="443" y2="443"/><line style="stroke:#64748B;stroke-width:1.1;" x1="265.9106" x2="275.9106" y1="443" y2="439"/><line style="stroke:#64748B;stroke-width:1.1;" x1="265.9106" x2="275.9106" y1="443" y2="447"/><text fill="#334155" font-family="Helvetica" font-size="12" lengthAdjust="spacing" textLength="132.7266" x="271.9106" y="425.2402">Check for prompt/pattern</text></g><path d="M24,458 L81.3379,458 L81.3379,464 L71.3379,474 L20,474 L20,462 A4,4 0 0 1 24,458" fill="#F8FAFC" style="stroke:#CBD5E1;stroke-width:1.5;"/><rect fill="none" height="84" rx="4" ry="4" style="stroke:#CBD5E1;stroke-width:1.5;" width="291.8589" x="20" y="458"/><text fill="#0F172A" font-family="Helvetica" font-size="14" font-weight="700" lengthAdjust="spacing" textLength="16.3379" x="35" y="469.7803">alt</text><text fill="#334155" font-family="Helvetica" font-size="14" font-weight="700" lengthAdjust="spacing" textLength="100.3174" x="96.3379" y="470.7803">[Pattern found]</text><g class="message" data-entity-1="part2" data-entity-2="part1" data-source-line="22" id="msg11"><line style="stroke:#64748B;stroke-width:1.1;" x1="64.4653" x2="74.4653" y1="492" y2="488"/><line style="stroke:#64748B;stroke-width:1.1;" x1="64.4653" x2="74.4653" y1="492" y2="496"/><line style="stroke:#64748B;stroke-width:1.1;stroke-dasharray:2,2;" x1="63.4653" x2="263.9106" y1="492" y2="492"/><text fill="#334155" font-family="Helvetica" font-size="12" lengthAdjust="spacing" textLength="114.0527" x="107.1616" y="487.2402">Command completed</text></g><line style="stroke:#CBD5E1;stroke-width:1;stroke-dasharray:2,2;" x1="20" x2="311.8589" y1="501" y2="501"/><text fill="#334155" font-family="Helvetica" font-size="14" font-weight="700" lengthAdjust="spacing" textLength="63.7656" x="25" y="511.7803">[Timeout]</text><g class="message" data-entity-1="part2" data-entity-2="part1" data-source-line="24" id="msg12"><line style="stroke:#64748B;stroke-width:1.1;" x1="64.4653" x2="74.4653" y1="534" y2="530"/><line style="stroke:#64748B;stroke-width:1.1;" x1="64.4653" x2="74.4653" y1="534" y2="538"/><line style="stroke:#64748B;stroke-width:1.1;stroke-dasharray:2,2;" x1="63.4653" x2="263.9106" y1="534" y2="534"/><text fill="#334155" font-family="Helvetica" font-size="12" lengthAdjust="spacing" textLength="72.0176" x="128.1792" y="529.2402">Timeout error</text></g><path d="M24,565 L24,581 A4,4 0 0 0 28,585 L636,585 A4,4 0 0 0 640,581 L640,571 L630,561 L28,561 A4,4 0 0 0 24,565" fill="#FFF7ED" style="stroke:#FDBA74;stroke-width:0.5;"/><path d="M630,561 L630,569 A2,2 0 0 0 632,571 L640,571 L630,561" fill="#FFF7ED" style="stroke:#FDBA74;stroke-width:0.5;"/><text fill="#7C2D12" font-family="Helvetica" font-size="14" lengthAdjust="spacing" textLength="52.1514" x="305.9971" y="576.7803">Cleanup</text><g class="message" data-entity-1="part1" data-entity-2="part2" data-source-line="28" id="msg13"><line style="stroke:#64748B;stroke-width:1.1;" x1="262.9106" x2="252.9106" y1="608" y2="604"/><line style="stroke:#64748B;stroke-width:1.1;" x1="262.9106" x2="252.9106" y1="608" y2="612"/><line style="stroke:#64748B;stroke-width:1.1;" x1="63.4653" x2="263.9106" y1="608" y2="608"/><text fill="#334155" font-family="Helvetica" font-size="12" lengthAdjust="spacing" textLength="66.0234" x="131.1763" y="603.2402">Kill sessions</text></g><g class="message" data-entity-1="part2" data-entity-2="part3" data-source-line="29" id="msg14"><line style="stroke:#64748B;stroke-width:1.1;" x1="476.9946" x2="466.9946" y1="634" y2="630"/><line style="stroke:#64748B;stroke-width:1.1;" x1="476.9946" x2="466.9946" y1="634" y2="638"/><line style="stroke:#64748B;stroke-width:1.1;" x1="264.9106" x2="477.9946" y1="634" y2="634"/><text fill="#334155" font-family="Helvetica" font-size="12" lengthAdjust="spacing" textLength="104.0391" x="319.9331" y="629.2402">Terminate sessions</text></g><g class="message" data-entity-1="part3" data-entity-2="part2" data-source-line="30" id="msg15"><line style="stroke:#64748B;stroke-width:1.1;" x1="265.9106" x2="275.9106" y1="660" y2="656"/><line style="stroke:#64748B;stroke-width:1.1;" x1="265.9106" x2="275.9106" y1="660" y2="664"/><line style="stroke:#64748B;stroke-width:1.1;stroke-dasharray:2,2;" x1="264.9106" x2="477.9946" y1="660" y2="660"/><text fill="#334155" font-family="Helvetica" font-size="12" lengthAdjust="spacing" textLength="55.3535" x="344.2759" y="655.2402">Confirmed</text></g><?plantuml-src TPF1SjGm38RlVGhHKvbXou7R7dPc9qCPff0o93o0woYDPstBs3AqRu_Y94tOXLoSM9z-oR-LDyPhcpk44Ad7b0nvPNSyeCDRavsz0dc2Ycoq2SepNDVAqoFnDQW4zMMONNw6vcIiBKJxFmBZBum5QIwHYZhZd-3uX7ugT2nCJOn0aWVrkoFiuPkAobgq4mWFKG-OE2gMKy2TfTzJrkvmQFVm7NzcYSfBzl01r9YImFYnSb4fS3l1dz2Zw22OH5RM3XBf4xB0FAH2Mg80TnG1bHuckRA_g3Hxg2AE6cdo5MxEnDw-yirkAjlCf2w9tRbUWrvoMPpA0JGvf-Jx9idkxeGlQQjtE1ptyF4PTPO6IdDGVVbS0C7demfLlnPD84MxbtyQ_P0vP8Qlv0rJbAjP7VZXsTYncM1nzFt20nKuHvalvKMow5mSkyNeZCmTFEQ-n_YNX8Ih0VK9Uh5QXjG5VY-Nm1ZNKigop4BP4opxrRZjEQlPiBdNZRre4q9h7DAckMtg70ECaTRs5YENzTorogBoEMo7y5x-YsKUqjN6fjc2TLgcwE9GHRutqM7t1m00?></g></svg>