<svg xmlns="http://www.w3.org/2000/svg" xmlns:xlink="http://www.w3.org/1999/xlink" contentStyleType="text/css" data-diagram-type="SEQUENCE" height="581px" preserveAspectRatio="none" style="width:729px;height:581px;background:#FFFFFF;" version="1.1" viewBox="0 0 729 581" width="729px" zoomAndPan="magnify"><?plantuml 1.2026.5?><defs/><rect data-xfeat-white-canvas="true" fill="#FFFFFF" height="100%" width="100%" x="0" y="0"/><g><rect fill="#F8FAFC" height="94" rx="4" ry="4" style="stroke:#CBD5E1;stroke-width:1.5;" width="444.3491" x="163.2896" y="103"/><rect fill="#F8FAFC" height="67" rx="4" ry="4" style="stroke:#CBD5E1;stroke-width:1.5;" width="274.248" x="350.3711" y="237"/><rect fill="#F8FAFC" height="55" rx="4" ry="4" style="stroke:#CBD5E1;stroke-width:1.5;" width="226.7793" x="350.3711" y="422"/><g class="participant-lifeline" data-entity-uid="part1" data-qualified-name="User" data-source-line="2" id="part1-lifeline"><g><title>. User.Agent</title><rect fill="#000000" fill-opacity="0.00000" height="512" width="8" x="54.4619" y="34"/><line style="stroke:#94A3B8;stroke-width:0.5;stroke-dasharray:5,5;" x1="58" x2="58" y1="34" y2="546"/></g></g><g class="participant-lifeline" data-entity-uid="part2" data-qualified-name="NB" data-source-line="3" id="part2-lifeline"><g><title>Nanobot Core</title><rect fill="#000000" fill-opacity="0.00000" height="512" width="8" x="219.8721" y="34"/><line style="stroke:#94A3B8;stroke-width:0.5;stroke-dasharray:5,5;" x1="223.2896" x2="223.2896" y1="34" y2="546"/></g></g><g class="participant-lifeline" data-entity-uid="part3" data-qualified-name="Skill" data-source-line="4" id="part3-lifeline"><g><title>GitHub Skill</title><rect fill="#000000" fill-opacity="0.00000" height="512" width="8" x="399.9365" y="34"/><line style="stroke:#94A3B8;stroke-width:0.5;stroke-dasharray:5,5;" x1="403.3711" x2="403.3711" y1="34" y2="546"/></g></g><g class="participant-lifeline" data-entity-uid="part4" data-qualified-name="CLI" data-source-line="5" id="part4-lifeline"><g><title>gh CLI</title><rect fill="#000000" fill-opacity="0.00000" height="512" width="8" x="566.0146" y="34"/><line style="stroke:#94A3B8;stroke-width:0.5;stroke-dasharray:5,5;" x1="569.3906" x2="569.3906" y1="34" y2="546"/></g></g><g class="participant-lifeline" data-entity-uid="part5" data-qualified-name="GH" data-source-line="6" id="part5-lifeline"><g><title>GitHub API</title><rect fill="#000000" fill-opacity="0.00000" height="512" width="8" x="672.7314" y="34"/><line style="stroke:#94A3B8;stroke-width:0.5;stroke-dasharray:5,5;" x1="676.7178" x2="676.7178" y1="34" y2="546"/></g></g><g class="participant participant-head" data-entity-uid="part1" data-qualified-name="User" data-source-line="2" id="part1-head"><rect fill="#F8FAFC" height="28" rx="4" ry="4" style="stroke:#475569;stroke-width:0.5;" width="106.9238" x="5" y="5"/><text fill="#0F172A" font-family="Helvetica" font-size="14" lengthAdjust="spacing" textLength="92.9238" x="12" y="22.7803">&#128100; User/Agent</text></g><g class="participant participant-tail" data-entity-uid="part1" data-qualified-name="User" data-source-line="2" id="part1-tail"><rect fill="#F8FAFC" height="28" rx="4" ry="4" style="stroke:#475569;stroke-width:0.5;" width="106.9238" x="5" y="545"/><text fill="#0F172A" font-family="Helvetica" font-size="14" lengthAdjust="spacing" textLength="92.9238" x="12" y="562.7803">&#128100; User/Agent</text></g><g class="participant participant-head" data-entity-uid="part2" data-qualified-name="NB" data-source-line="3" id="part2-head"><rect fill="#F8FAFC" height="28" rx="4" ry="4" style="stroke:#475569;stroke-width:0.5;" width="101.165" x="173.2896" y="5"/><text fill="#0F172A" font-family="Helvetica" font-size="14" lengthAdjust="spacing" textLength="87.165" x="180.2896" y="22.7803">Nanobot Core</text></g><g class="participant participant-tail" data-entity-uid="part2" data-qualified-name="NB" data-source-line="3" id="part2-tail"><rect fill="#F8FAFC" height="28" rx="4" ry="4" style="stroke:#475569;stroke-width:0.5;" width="101.165" x="173.2896" y="545"/><text fill="#0F172A" font-family="Helvetica" font-size="14" lengthAdjust="spacing" textLength="87.165" x="180.2896" y="562.7803">Nanobot Core</text></g><g class="participant participant-head" data-entity-uid="part3" data-qualified-name="Skill" data-source-line="4" id="part3-head"><rect fill="#F8FAFC" height="28" rx="4" ry="4" style="stroke:#475569;stroke-width:0.5;" width="87.1309" x="360.3711" y="5"/><text fill="#0F172A" font-family="Helvetica" font-size="14" lengthAdjust="spacing" textLength="73.1309" x="367.3711" y="22.7803">GitHub Skill</text></g><g class="participant participant-tail" data-entity-uid="part3" data-qualified-name="Skill" data-source-line="4" id="part3-tail"><rect fill="#F8FAFC" height="28" rx="4" ry="4" style="stroke:#475569;stroke-width:0.5;" width="87.1309" x="360.3711" y="545"/><text fill="#0F172A" font-family="Helvetica" font-size="14" lengthAdjust="spacing" textLength="73.1309" x="367.3711" y="562.7803">GitHub Skill</text></g><g class="participant participant-head" data-entity-uid="part4" data-qualified-name="CLI" data-source-line="5" id="part4-head"><rect fill="#F8FAFC" height="28" rx="4" ry="4" style="stroke:#475569;stroke-width:0.5;" width="55.248" x="542.3906" y="5"/><text fill="#0F172A" font-family="Helvetica" font-size="14" lengthAdjust="spacing" textLength="41.248" x="549.3906" y="22.7803">gh CLI</text></g><g class="participant participant-tail" data-entity-uid="part4" data-qualified-name="CLI" data-source-line="5" id="part4-tail"><rect fill="#F8FAFC" height="28" rx="4" ry="4" style="stroke:#475569;stroke-width:0.5;" width="55.248" x="542.3906" y="545"/><text fill="#0F172A" font-family="Helvetica" font-size="14" lengthAdjust="spacing" textLength="41.248" x="549.3906" y="562.7803">gh CLI</text></g><g class="participant participant-head" data-entity-uid="part5" data-qualified-name="GH" data-source-line="6" id="part5-head"><rect fill="#F8FAFC" height="28" rx="4" ry="4" style="stroke:#475569;stroke-width:0.5;" width="84.0273" x="634.7178" y="5"/><text fill="#0F172A" font-family="Helvetica" font-size="14" lengthAdjust="spacing" textLength="70.0273" x="641.7178" y="22.7803">GitHub API</text></g><g class="participant participant-tail" data-entity-uid="part5" data-qualified-name="GH" data-source-line="6" id="part5-tail"><rect fill="#F8FAFC" height="28" rx="4" ry="4" style="stroke:#475569;stroke-width:0.5;" width="84.0273" x="634.7178" y="545"/><text fill="#0F172A" font-family="Helvetica" font-size="14" lengthAdjust="spacing" textLength="70.0273" x="641.7178" y="562.7803">GitHub API</text></g><g class="message" data-entity-1="part1" data-entity-2="part2" data-source-line="7" id="msg1"><line style="stroke:#64748B;stroke-width:1.1;" x1="221.8721" x2="211.8721" y1="62" y2="58"/><line style="stroke:#64748B;stroke-width:1.1;" x1="221.8721" x2="211.8721" y1="62" y2="66"/><line style="stroke:#64748B;stroke-width:1.1;" x1="58.4619" x2="222.8721" y1="62" y2="62"/><text fill="#334155" font-family="Helvetica" font-size="12" lengthAdjust="spacing" textLength="141.4102" x="70.4619" y="57.2402">Request GitHub Operation</text></g><g class="message" data-entity-1="part2" data-entity-2="part3" data-source-line="8" id="msg2"><line style="stroke:#64748B;stroke-width:1.1;" x1="401.9365" x2="391.9365" y1="88" y2="84"/><line style="stroke:#64748B;stroke-width:1.1;" x1="401.9365" x2="391.9365" y1="88" y2="92"/><line style="stroke:#64748B;stroke-width:1.1;" x1="223.8721" x2="402.9365" y1="88" y2="88"/><text fill="#334155" font-family="Helvetica" font-size="12" lengthAdjust="spacing" textLength="82.7227" x="272.543" y="83.2402">Load SKILL.md</text></g><path d="M167.2896,103 L224.6274,103 L224.6274,109 L214.6274,119 L163.2896,119 L163.2896,107 A4,4 0 0 1 167.2896,103" fill="#F8FAFC" style="stroke:#CBD5E1;stroke-width:1.5;"/><rect fill="none" height="94" rx="4" ry="4" style="stroke:#CBD5E1;stroke-width:1.5;" width="444.3491" x="163.2896" y="103"/><text fill="#0F172A" font-family="Helvetica" font-size="14" font-weight="700" lengthAdjust="spacing" textLength="16.3379" x="178.2896" y="114.7803">alt</text><text fill="#334155" font-family="Helvetica" font-size="14" font-weight="700" lengthAdjust="spacing" textLength="119.7725" x="239.6274" y="115.7803">[CLI Not Installed]</text><g class="message" data-entity-1="part3" data-entity-2="part4" data-source-line="10" id="msg3"><line style="stroke:#64748B;stroke-width:1.1;" x1="568.0146" x2="558.0146" y1="137" y2="133"/><line style="stroke:#64748B;stroke-width:1.1;" x1="568.0146" x2="558.0146" y1="137" y2="141"/><line style="stroke:#64748B;stroke-width:1.1;" x1="403.9365" x2="569.0146" y1="137" y2="137"/><text fill="#334155" font-family="Helvetica" font-size="12" lengthAdjust="spacing" textLength="142.0781" x="415.9365" y="132.2402">Check Binary Dependency</text></g><g class="message" data-entity-1="part4" data-entity-2="part3" data-source-line="11" id="msg4"><line style="stroke:#64748B;stroke-width:1.1;" x1="404.9365" x2="414.9365" y1="163" y2="159"/><line style="stroke:#64748B;stroke-width:1.1;" x1="404.9365" x2="414.9365" y1="163" y2="167"/><line style="stroke:#64748B;stroke-width:1.1;stroke-dasharray:2,2;" x1="403.9365" x2="569.0146" y1="163" y2="163"/><text fill="#334155" font-family="Helvetica" font-size="12" lengthAdjust="spacing" textLength="56.0332" x="458.959" y="158.2402">Not Found</text></g><g class="message" data-entity-1="part3" data-entity-2="part2" data-source-line="12" id="msg5"><line style="stroke:#64748B;stroke-width:1.1;" x1="224.8721" x2="234.8721" y1="189" y2="185"/><line style="stroke:#64748B;stroke-width:1.1;" x1="224.8721" x2="234.8721" y1="189" y2="193"/><line style="stroke:#64748B;stroke-width:1.1;stroke-dasharray:2,2;" x1="223.8721" x2="402.9365" y1="189" y2="189"/><text fill="#334155" font-family="Helvetica" font-size="12" lengthAdjust="spacing" textLength="156.0645" x="235.8721" y="184.2402">Trigger Installation (brew/apt)</text></g><g class="message" data-entity-1="part2" data-entity-2="part3" data-source-line="14" id="msg6"><line style="stroke:#64748B;stroke-width:1.1;" x1="401.9365" x2="391.9365" y1="222" y2="218"/><line style="stroke:#64748B;stroke-width:1.1;" x1="401.9365" x2="391.9365" y1="222" y2="226"/><line style="stroke:#64748B;stroke-width:1.1;" x1="223.8721" x2="402.9365" y1="222" y2="222"/><text fill="#334155" font-family="Helvetica" font-size="12" lengthAdjust="spacing" textLength="99.3926" x="264.208" y="217.2402">Execute Operation</text></g><path d="M354.3711,237 L411.709,237 L411.709,243 L401.709,253 L350.3711,253 L350.3711,241 A4,4 0 0 1 354.3711,237" fill="#F8FAFC" style="stroke:#CBD5E1;stroke-width:1.5;"/><rect fill="none" height="67" rx="4" ry="4" style="stroke:#CBD5E1;stroke-width:1.5;" width="274.248" x="350.3711" y="237"/><text fill="#0F172A" font-family="Helvetica" font-size="14" font-weight="700" lengthAdjust="spacing" textLength="16.3379" x="365.3711" y="248.7803">alt</text><text fill="#334155" font-family="Helvetica" font-size="14" font-weight="700" lengthAdjust="spacing" textLength="192.9102" x="426.709" y="249.7803">[Repository Context Needed]</text><g class="message" data-entity-1="part3" data-entity-2="part3" data-source-line="16" id="msg7"><line style="stroke:#64748B;stroke-width:1.1;" x1="403.9365" x2="445.9365" y1="283" y2="283"/><line style="stroke:#64748B;stroke-width:1.1;" x1="445.9365" x2="445.9365" y1="283" y2="296"/><line style="stroke:#64748B;stroke-width:1.1;" x1="403.9365" x2="445.9365" y1="296" y2="296"/><line style="stroke:#64748B;stroke-width:1.1;" x1="404.9365" x2="414.9365" y1="296" y2="292"/><line style="stroke:#64748B;stroke-width:1.1;" x1="404.9365" x2="414.9365" y1="296" y2="300"/><text fill="#334155" font-family="Helvetica" font-size="12" lengthAdjust="spacing" textLength="104.0449" x="433.0586" y="266.2402">Resolve Repository</text><text fill="#334155" font-family="Helvetica" font-size="12" lengthAdjust="spacing" textLength="148.2891" x="410.9365" y="278.2402">(auto-detect | explicit | URL)</text></g><g class="message" data-entity-1="part3" data-entity-2="part4" data-source-line="18" id="msg8"><line style="stroke:#64748B;stroke-width:1.1;" x1="568.0146" x2="558.0146" y1="329" y2="325"/><line style="stroke:#64748B;stroke-width:1.1;" x1="568.0146" x2="558.0146" y1="329" y2="333"/><line style="stroke:#64748B;stroke-width:1.1;" x1="403.9365" x2="569.0146" y1="329" y2="329"/><text fill="#334155" font-family="Helvetica" font-size="12" lengthAdjust="spacing" textLength="126.7207" x="423.6152" y="324.2402">Construct gh Command</text></g><g class="message" data-entity-1="part4" data-entity-2="part5" data-source-line="19" id="msg9"><line style="stroke:#64748B;stroke-width:1.1;" x1="674.7314" x2="664.7314" y1="355" y2="351"/><line style="stroke:#64748B;stroke-width:1.1;" x1="674.7314" x2="664.7314" y1="355" y2="359"/><line style="stroke:#64748B;stroke-width:1.1;" x1="570.0146" x2="675.7314" y1="355" y2="355"/><text fill="#334155" font-family="Helvetica" font-size="12" lengthAdjust="spacing" textLength="67.3711" x="589.6875" y="350.2402">API Request</text></g><g class="message" data-entity-1="part5" data-entity-2="part4" data-source-line="20" id="msg10"><line style="stroke:#64748B;stroke-width:1.1;" x1="571.0146" x2="581.0146" y1="381" y2="377"/><line style="stroke:#64748B;stroke-width:1.1;" x1="571.0146" x2="581.0146" y1="381" y2="385"/><line style="stroke:#64748B;stroke-width:1.1;stroke-dasharray:2,2;" x1="570.0146" x2="675.7314" y1="381" y2="381"/><text fill="#334155" font-family="Helvetica" font-size="12" lengthAdjust="spacing" textLength="82.7168" x="582.0146" y="376.2402">Response Data</text></g><g class="message" data-entity-1="part4" data-entity-2="part3" data-source-line="21" id="msg11"><line style="stroke:#64748B;stroke-width:1.1;" x1="404.9365" x2="414.9365" y1="407" y2="403"/><line style="stroke:#64748B;stroke-width:1.1;" x1="404.9365" x2="414.9365" y1="407" y2="411"/><line style="stroke:#64748B;stroke-width:1.1;stroke-dasharray:2,2;" x1="403.9365" x2="569.0146" y1="407" y2="407"/><text fill="#334155" font-family="Helvetica" font-size="12" lengthAdjust="spacing" textLength="71.3613" x="451.2949" y="402.2402">JSON Output</text></g><path d="M354.3711,422 L411.709,422 L411.709,428 L401.709,438 L350.3711,438 L350.3711,426 A4,4 0 0 1 354.3711,422" fill="#F8FAFC" style="stroke:#CBD5E1;stroke-width:1.5;"/><rect fill="none" height="55" rx="4" ry="4" style="stroke:#CBD5E1;stroke-width:1.5;" width="226.7793" x="350.3711" y="422"/><text fill="#0F172A" font-family="Helvetica" font-size="14" font-weight="700" lengthAdjust="spacing" textLength="16.3379" x="365.3711" y="433.7803">alt</text><text fill="#334155" font-family="Helvetica" font-size="14" font-weight="700" lengthAdjust="spacing" textLength="145.4414" x="426.709" y="434.7803">[jq Filtering Required]</text><g class="message" data-entity-1="part3" data-entity-2="part3" data-source-line="23" id="msg12"><line style="stroke:#64748B;stroke-width:1.1;" x1="403.9365" x2="445.9365" y1="456" y2="456"/><line style="stroke:#64748B;stroke-width:1.1;" x1="445.9365" x2="445.9365" y1="456" y2="469"/><line style="stroke:#64748B;stroke-width:1.1;" x1="403.9365" x2="445.9365" y1="469" y2="469"/><line style="stroke:#64748B;stroke-width:1.1;" x1="404.9365" x2="414.9365" y1="469" y2="465"/><line style="stroke:#64748B;stroke-width:1.1;" x1="404.9365" x2="414.9365" y1="469" y2="473"/><text fill="#334155" font-family="Helvetica" font-size="12" lengthAdjust="spacing" textLength="100.6992" x="410.9365" y="451.2402">Apply jq Transform</text></g><g class="message" data-entity-1="part3" data-entity-2="part2" data-source-line="25" id="msg13"><line style="stroke:#64748B;stroke-width:1.1;" x1="224.8721" x2="234.8721" y1="502" y2="498"/><line style="stroke:#64748B;stroke-width:1.1;" x1="224.8721" x2="234.8721" y1="502" y2="506"/><line style="stroke:#64748B;stroke-width:1.1;stroke-dasharray:2,2;" x1="223.8721" x2="402.9365" y1="502" y2="502"/><text fill="#334155" font-family="Helvetica" font-size="12" lengthAdjust="spacing" textLength="92.707" x="267.5508" y="497.2402">Structured Result</text></g><g class="message" data-entity-1="part2" data-entity-2="part1" data-source-line="26" id="msg14"><line style="stroke:#64748B;stroke-width:1.1;" x1="59.4619" x2="69.4619" y1="528" y2="524"/><line style="stroke:#64748B;stroke-width:1.1;" x1="59.4619" x2="69.4619" y1="528" y2="532"/><line style="stroke:#64748B;stroke-width:1.1;stroke-dasharray:2,2;" x1="58.4619" x2="222.8721" y1="528" y2="528"/><text fill="#334155" font-family="Helvetica" font-size="12" lengthAdjust="spacing" textLength="112.0547" x="85.1396" y="523.2402">Formatted Response</text></g><?plantuml-src TP9DKkCm48NtdAB92XQ6lHUfIW8a0PT39R1Zqx4RHo1BGcf1KiKbEC5ive1pX94KXx-0DvQhlzVzdjg7GbNIrmJ6wdjoJcY5CkCLjNGYV2iF83m6BOjA65GClNz_tlx2hIDxEcX8SG_GfSzziaIbbvfXf2qbh1pkGsF14x-4nQEGCa7fjCyrAnWLqqI4zwzz1jTRPZn9I3IMzVlbC8SvFNbo31quCsIHGzp4bSD0fSav51fhM5nDY-AahLCL9SUXK8OmK-KOfQHj9Jv95kI1o66qekeHXaAXtS0P6L8rgMhp3WSe-nWL6rvehxutwopVMD4qP7SparquMbfwEKN3nqb4dVXpWlCrLPxfMyQOOav6Ey4wc1jfnRHcA8dg7z9qhURaj7ocJy8xTOIUTLOJKyNm2hGsCgmX7c_dnLTNN-z6XnpM1r5SfcvRxAXuAVt-U9B7zUqMbIhZIRPJ1oScD20uGyQ3_RkyNCnAc7asdj_ZFZp1XP1CLgWczHNszwW3O-GcIcuiAdUlRVj3b6upYvJ3XsxHbvUysq6entyk3skrBJ9lWMJyFm00?></g></svg>