<svg xmlns="http://www.w3.org/2000/svg" xmlns:xlink="http://www.w3.org/1999/xlink" contentStyleType="text/css" data-diagram-type="DESCRIPTION" height="1039px" preserveAspectRatio="none" style="width:1063px;height:1039px;background:#FFFFFF;" version="1.1" viewBox="0 0 1063 1039" width="1063px" zoomAndPan="magnify"><?plantuml 1.2026.5?><defs/><rect data-xfeat-white-canvas="true" fill="#FFFFFF" height="100%" width="100%" x="0" y="0"/><g><!--cluster NB--><g class="cluster" data-qualified-name="NB" data-source-line="3" id="ent0001"><rect fill="#FFFFFF" height="209" rx="4" ry="4" style="stroke:#CBD5E1;stroke-width:1;" width="188" x="275" y="7"/><text fill="#0F172A" font-family="Helvetica" font-size="14" font-weight="700" lengthAdjust="spacing" textLength="169.1377" x="284.4312" y="19.7803">&#129302; Nanobot Core System</text></g><!--cluster GH_COMP--><g class="cluster" data-qualified-name="GH_COMP" data-source-line="7" id="ent0004"><rect fill="#FFFFFF" height="422" rx="4" ry="4" style="stroke:#CBD5E1;stroke-width:1;" width="595" x="7" y="249"/><text fill="#0F172A" font-family="Helvetica" font-size="14" font-weight="700" lengthAdjust="spacing" textLength="163.6621" x="222.6689" y="261.7803">&#128230; nanobot/skills/github</text></g><!--cluster FEATURES--><g class="cluster" data-qualified-name="GH_COMP.FEATURES" data-source-line="8" id="ent0005"><rect fill="#FFFFFF" height="97" rx="4" ry="4" style="stroke:#CBD5E1;stroke-width:1;" width="547" x="31" y="290"/><text fill="#0F172A" font-family="Helvetica" font-size="14" font-weight="700" lengthAdjust="spacing" textLength="108.1514" x="250.4243" y="302.7803">Capability Layer</text></g><!--cluster UTILS--><g class="cluster" data-qualified-name="GH_COMP.UTILS" data-source-line="14" id="ent0010"><rect fill="#FFFFFF" height="227" rx="4" ry="4" style="stroke:#CBD5E1;stroke-width:1;" width="118" x="312" y="420"/><text fill="#0F172A" font-family="Helvetica" font-size="14" font-weight="700" lengthAdjust="spacing" textLength="80.1377" x="330.9312" y="432.7803">Utility Layer</text></g><!--cluster EXT--><g class="cluster" data-qualified-name="EXT" data-source-line="19" id="ent0013"><rect fill="#FFFFFF" height="247" rx="4" ry="4" style="stroke:#CBD5E1;stroke-width:1;" width="268" x="626" y="550"/><text fill="#0F172A" font-family="Helvetica" font-size="14" font-weight="700" lengthAdjust="spacing" textLength="174.3438" x="672.8281" y="562.7803">&#127760; External Dependencies</text></g><!--cluster GH_API--><g class="cluster" data-qualified-name="GH_API" data-source-line="24" id="ent0017"><rect fill="#FFFFFF" height="182" rx="4" ry="4" style="stroke:#CBD5E1;stroke-width:1;" width="396" x="458" y="843"/><text fill="#0F172A" font-family="Helvetica" font-size="14" font-weight="700" lengthAdjust="spacing" textLength="125.2207" x="593.3896" y="855.7803">&#9729;&#65039; GitHub Platform</text></g><!--entity ORCH--><g class="entity" data-qualified-name="NB.ORCH" data-source-line="4" id="ent0002"><rect fill="#FFFFFF" height="34" rx="4" ry="4" style="stroke:#64748B;stroke-width:0.5;" width="127.3584" x="305.32" y="40"/><text fill="#0F172A" font-family="Helvetica" font-size="14" lengthAdjust="spacing" textLength="107.3584" x="315.32" y="60.7803">Skill Orchestrator</text></g><!--entity SKILL--><g class="entity" data-qualified-name="NB.SKILL" data-source-line="5" id="ent0003"><rect fill="#FFFFFF" height="48" rx="4" ry="4" style="stroke:#64748B;stroke-width:0.5;" width="155.3857" x="291.31" y="152"/><text fill="#0F172A" font-family="Helvetica" font-size="14" lengthAdjust="spacing" textLength="61.4756" x="338.2651" y="172.7803">SKILL.md</text><text fill="#0F172A" font-family="Helvetica" font-size="14" lengthAdjust="spacing" textLength="135.3857" x="301.31" y="186.7803">GitHub Skill Definition</text></g><!--entity PR--><g class="entity" data-qualified-name="GH_COMP.FEATURES.PR" data-source-line="9" id="ent0006"><rect fill="#FFFFFF" height="48" rx="4" ry="4" style="stroke:#64748B;stroke-width:0.5;" width="122.2686" x="307.87" y="323"/><text fill="#0F172A" font-family="Helvetica" font-size="14" lengthAdjust="spacing" textLength="102.2686" x="317.87" y="343.7803">&#128256; Pull Request</text><text fill="#0F172A" font-family="Helvetica" font-size="14" lengthAdjust="spacing" textLength="81.7168" x="328.1459" y="357.7803">Management</text></g><!--entity WF--><g class="entity" data-qualified-name="GH_COMP.FEATURES.WF" data-source-line="10" id="ent0007"><rect fill="#FFFFFF" height="48" rx="4" ry="4" style="stroke:#64748B;stroke-width:0.5;" width="89.877" x="472.06" y="323"/><text fill="#0F172A" font-family="Helvetica" font-size="14" lengthAdjust="spacing" textLength="69.877" x="482.06" y="343.7803">&#9881;&#65039; Workflow</text><text fill="#0F172A" font-family="Helvetica" font-size="14" lengthAdjust="spacing" textLength="65.3652" x="484.3159" y="357.7803">Monitoring</text></g><!--entity API--><g class="entity" data-qualified-name="GH_COMP.FEATURES.API" data-source-line="11" id="ent0008"><rect fill="#FFFFFF" height="48" rx="4" ry="4" style="stroke:#64748B;stroke-width:0.5;" width="75.248" x="47.38" y="323"/><text fill="#0F172A" font-family="Helvetica" font-size="14" lengthAdjust="spacing" textLength="45.4551" x="62.2765" y="343.7803">&#128268; API</text><text fill="#0F172A" font-family="Helvetica" font-size="14" lengthAdjust="spacing" textLength="55.248" x="57.38" y="357.7803">Gateway</text></g><!--entity ISS--><g class="entity" data-qualified-name="GH_COMP.FEATURES.ISS" data-source-line="12" id="ent0009"><rect fill="#FFFFFF" height="48" rx="4" ry="4" style="stroke:#64748B;stroke-width:0.5;" width="101.7168" x="164.14" y="323"/><text fill="#0F172A" font-family="Helvetica" font-size="14" lengthAdjust="spacing" textLength="56.3516" x="186.8226" y="343.7803">&#128203; Issue</text><text fill="#0F172A" font-family="Helvetica" font-size="14" lengthAdjust="spacing" textLength="81.7168" x="174.14" y="357.7803">Management</text></g><!--entity FMT--><g class="entity" data-qualified-name="GH_COMP.UTILS.FMT" data-source-line="15" id="ent0011"><rect fill="#FFFFFF" height="48" rx="4" ry="4" style="stroke:#64748B;stroke-width:0.5;" width="80.6758" x="328.66" y="453"/><text fill="#0F172A" font-family="Helvetica" font-size="14" lengthAdjust="spacing" textLength="52.124" x="342.9359" y="473.7803">JSON/jq</text><text fill="#0F172A" font-family="Helvetica" font-size="14" lengthAdjust="spacing" textLength="60.6758" x="338.66" y="487.7803">Formatter</text></g><!--entity REPO--><g class="entity" data-qualified-name="GH_COMP.UTILS.REPO" data-source-line="16" id="ent0012"><rect fill="#FFFFFF" height="48" rx="4" ry="4" style="stroke:#64748B;stroke-width:0.5;" width="86.917" x="327.54" y="583"/><text fill="#0F172A" font-family="Helvetica" font-size="14" lengthAdjust="spacing" textLength="66.917" x="337.54" y="603.7803">Repository</text><text fill="#0F172A" font-family="Helvetica" font-size="14" lengthAdjust="spacing" textLength="55.2412" x="343.3779" y="617.7803">Resolver</text></g><!--entity GH_CLI--><g class="entity" data-qualified-name="EXT.GH_CLI" data-source-line="20" id="ent0014"><rect fill="#FFFFFF" height="48" rx="4" ry="4" style="stroke:#64748B;stroke-width:0.5;" width="89.248" x="692.38" y="733"/><text fill="#0F172A" font-family="Helvetica" font-size="14" lengthAdjust="spacing" textLength="69.248" x="702.38" y="753.7803">GitHub CLI</text><text fill="#0F172A" font-family="Helvetica" font-size="14" lengthAdjust="spacing" textLength="66.917" x="703.5455" y="767.7803">(gh binary)</text></g><!--entity BREW--><g class="entity" data-qualified-name="EXT.BREW" data-source-line="21" id="ent0015"><rect fill="#FFFFFF" height="34" rx="4" ry="4" style="stroke:#64748B;stroke-width:0.5;" width="87.6895" x="642.16" y="590"/><text fill="#0F172A" font-family="Helvetica" font-size="14" lengthAdjust="spacing" textLength="67.6895" x="652.16" y="610.7803">Homebrew</text></g><!--entity APT--><g class="entity" data-qualified-name="EXT.APT" data-source-line="22" id="ent0016"><rect fill="#FFFFFF" height="48" rx="4" ry="4" style="stroke:#64748B;stroke-width:0.5;" width="105.5996" x="772.2" y="583"/><text fill="#0F172A" font-family="Helvetica" font-size="14" lengthAdjust="spacing" textLength="85.5996" x="782.2" y="603.7803">APT Package</text><text fill="#0F172A" font-family="Helvetica" font-size="14" lengthAdjust="spacing" textLength="55.2549" x="797.3724" y="617.7803">Manager</text></g><!--entity REST--><g class="entity" data-qualified-name="GH_API.REST" data-source-line="25" id="ent0018"><rect fill="#FFFFFF" height="34" rx="4" ry="4" style="stroke:#64748B;stroke-width:0.5;" width="83.793" x="608.1" y="876"/><text fill="#0F172A" font-family="Helvetica" font-size="14" lengthAdjust="spacing" textLength="63.793" x="618.1" y="896.7803">REST API</text></g><!--entity GQL--><g class="entity" data-qualified-name="GH_API.GQL" data-source-line="26" id="ent0019"><rect fill="#FFFFFF" height="34" rx="4" ry="4" style="stroke:#64748B;stroke-width:0.5;" width="104.041" x="733.98" y="876"/><text fill="#0F172A" font-family="Helvetica" font-size="14" lengthAdjust="spacing" textLength="84.041" x="743.98" y="896.7803">GraphQL API</text></g><!--entity ACTIONS--><g class="entity" data-qualified-name="GH_API.ACTIONS" data-source-line="27" id="ent0020"><rect fill="#FFFFFF" height="34" rx="4" ry="4" style="stroke:#64748B;stroke-width:0.5;" width="113.3721" x="474.31" y="975"/><text fill="#0F172A" font-family="Helvetica" font-size="14" lengthAdjust="spacing" textLength="93.3721" x="484.31" y="995.7803">GitHub Actions</text></g><!--entity PRS--><g class="entity" data-qualified-name="GH_API.PRS" data-source-line="28" id="ent0021"><rect fill="#FFFFFF" height="34" rx="4" ry="4" style="stroke:#64748B;stroke-width:0.5;" width="106.3789" x="629.81" y="975"/><text fill="#0F172A" font-family="Helvetica" font-size="14" lengthAdjust="spacing" textLength="86.3789" x="639.81" y="995.7803">Pull Requests</text></g><!--entity ISSUES--><g class="entity" data-qualified-name="GH_API.ISSUES" data-source-line="29" id="ent0022"><rect fill="#FFFFFF" height="34" rx="4" ry="4" style="stroke:#64748B;stroke-width:0.5;" width="60.4619" x="777.77" y="975"/><text fill="#0F172A" font-family="Helvetica" font-size="14" lengthAdjust="spacing" textLength="40.4619" x="787.77" y="995.7803">Issues</text></g><!--link ORCH to SKILL--><g class="link" data-entity-1="ent0002" data-entity-2="ent0003" data-link-type="dependency" data-source-line="31" id="lnk23"><path d="M369,74.27 C369,94.36 369,123.69 369,146.6" fill="none" id="ORCH-to-SKILL" style="stroke:#64748B;stroke-width:1.1;"/><polygon fill="#64748B" points="369,151.6,373,142.6,369,146.6,365,142.6,369,151.6" style="stroke:#64748B;stroke-width:1.1;stroke-linejoin:miter;stroke-miterlimit:10;"/><text fill="#334155" font-family="Helvetica" font-size="12" lengthAdjust="spacing" textLength="66.6914" x="370" y="116.2402">Invokes Skill</text></g><!--link SKILL to PR--><g class="link" data-entity-1="ent0003" data-entity-2="ent0006" data-link-type="dependency" data-source-line="32" id="lnk24"><path d="M369,200.5 C369,232.79 369,285.52 369,317.7" fill="none" id="SKILL-to-PR" style="stroke:#64748B;stroke-width:1.1;"/><polygon fill="#64748B" points="369,322.7,373,313.7,369,317.7,365,313.7,369,322.7" style="stroke:#64748B;stroke-width:1.1;stroke-linejoin:miter;stroke-miterlimit:10;"/></g><!--link SKILL to WF--><g class="link" data-entity-1="ent0003" data-entity-2="ent0007" data-link-type="dependency" data-source-line="33" id="lnk25"><path d="M399.07,200.47 C422.47,218.73 451,241 451,241 C451,241 480.2499,287.5263 499.6899,318.4663" fill="none" id="SKILL-to-WF" style="stroke:#64748B;stroke-width:1.1;"/><polygon fill="#64748B" points="502.35,322.7,500.9488,312.9513,499.6899,318.4663,494.1749,317.2074,502.35,322.7" style="stroke:#64748B;stroke-width:1.1;stroke-linejoin:miter;stroke-miterlimit:10;"/></g><!--link SKILL to API--><g class="link" data-entity-1="ent0003" data-entity-2="ent0008" data-link-type="dependency" data-source-line="34" id="lnk26"><path d="M290.91,199.11 C225.58,217.61 143,241 143,241 C143,241 117.3775,287.3833 100.2875,318.3233" fill="none" id="SKILL-to-API" style="stroke:#64748B;stroke-width:1.1;"/><polygon fill="#64748B" points="97.87,322.7,105.7229,316.7559,100.2875,318.3233,98.7202,312.8879,97.87,322.7" style="stroke:#64748B;stroke-width:1.1;stroke-linejoin:miter;stroke-miterlimit:10;"/></g><!--link SKILL to ISS--><g class="link" data-entity-1="ent0003" data-entity-2="ent0009" data-link-type="dependency" data-source-line="35" id="lnk27"><path d="M338.93,200.47 C315.53,218.73 287,241 287,241 C287,241 255.0171,287.636 233.8071,318.576" fill="none" id="SKILL-to-ISS" style="stroke:#64748B;stroke-width:1.1;"/><polygon fill="#64748B" points="230.98,322.7,239.368,317.5384,233.8071,318.576,232.7696,313.0151,230.98,322.7" style="stroke:#64748B;stroke-width:1.1;stroke-linejoin:miter;stroke-miterlimit:10;"/></g><!--link PR to FMT--><g class="link" data-entity-1="ent0006" data-entity-2="ent0011" data-link-type="dependency" data-source-line="36" id="lnk28"><path d="M369,371.48 C369,394.57 369,424.63 369,447.67" fill="none" id="PR-to-FMT" style="stroke:#64748B;stroke-width:1.1;"/><polygon fill="#64748B" points="369,452.67,373,443.67,369,447.67,365,443.67,369,452.67" style="stroke:#64748B;stroke-width:1.1;stroke-linejoin:miter;stroke-miterlimit:10;"/></g><!--link WF to FMT--><g class="link" data-entity-1="ent0007" data-entity-2="ent0011" data-link-type="dependency" data-source-line="37" id="lnk29"><path d="M489.85,371.48 C463.15,394.57 426.4024,426.3599 399.7524,449.3999" fill="none" id="WF-to-FMT" style="stroke:#64748B;stroke-width:1.1;"/><polygon fill="#64748B" points="395.97,452.67,405.3944,449.8098,399.7524,449.3999,400.1623,443.758,395.97,452.67" style="stroke:#64748B;stroke-width:1.1;stroke-linejoin:miter;stroke-miterlimit:10;"/></g><!--link API to FMT--><g class="link" data-entity-1="ent0008" data-entity-2="ent0011" data-link-type="dependency" data-source-line="38" id="lnk30"><path d="M114,371.5 C128.5,383.25 143,395 143,395 C143,395 258.5635,436.4123 323.6235,459.7423" fill="none" id="API-to-FMT" style="stroke:#64748B;stroke-width:1.1;"/><polygon fill="#64748B" points="328.33,461.43,321.2084,454.6269,323.6235,459.7423,318.508,462.1573,328.33,461.43" style="stroke:#64748B;stroke-width:1.1;stroke-linejoin:miter;stroke-miterlimit:10;"/></g><!--link ISS to FMT--><g class="link" data-entity-1="ent0009" data-entity-2="ent0011" data-link-type="dependency" data-source-line="39" id="lnk31"><path d="M243.25,371.48 C271.03,394.57 309.3648,426.434 337.0848,449.474" fill="none" id="ISS-to-FMT" style="stroke:#64748B;stroke-width:1.1;"/><polygon fill="#64748B" points="340.93,452.67,336.5655,443.841,337.0848,449.474,331.4518,449.9933,340.93,452.67" style="stroke:#64748B;stroke-width:1.1;stroke-linejoin:miter;stroke-miterlimit:10;"/></g><!--link FMT to REPO--><g class="link" data-entity-1="ent0011" data-entity-2="ent0012" data-link-type="dependency" data-source-line="40" id="lnk32"><path d="M369.37,501.48 C369.73,524.57 370.2019,554.6306 370.5619,577.6706" fill="none" id="FMT-to-REPO" style="stroke:#64748B;stroke-width:1.1;"/><polygon fill="#64748B" points="370.64,582.67,374.4989,573.6086,370.5619,577.6706,366.4999,573.7336,370.64,582.67" style="stroke:#64748B;stroke-width:1.1;stroke-linejoin:miter;stroke-miterlimit:10;"/></g><!--link SKILL to GH_CLI--><g class="link" data-entity-1="ent0003" data-entity-2="ent0014" data-link-type="dependency" data-source-line="41" id="lnk33"><path d="M447.17,200.06 C603.97,246.3 942,346 942,346 C942,346 942,346 942,608 C942,608 899,679 899,679 C899,679 834.1655,709.8129 786.2155,732.6129" fill="none" id="SKILL-to-GH_CLI" style="stroke:#64748B;stroke-width:1.1;stroke-dasharray:7,7;"/><polygon fill="#64748B" points="781.7,734.76,791.5456,734.5076,786.2155,732.6129,788.1102,727.2828,781.7,734.76" style="stroke:#64748B;stroke-width:1.1;stroke-linejoin:miter;stroke-miterlimit:10;"/><text fill="#334155" font-family="Helvetica" font-size="12" lengthAdjust="spacing" textLength="104.7305" x="943" y="480.2402">Dependency Check</text></g><!--link BREW to GH_CLI--><g class="link" data-entity-1="ent0015" data-entity-2="ent0014" data-link-type="dependency" data-source-line="42" id="lnk34"><path d="M690.35,624.2 C697.52,650.84 711,701 711,701 C711,701 716.7558,713.1584 723.8358,728.1584" fill="none" id="BREW-to-GH_CLI" style="stroke:#64748B;stroke-width:1.1;stroke-dasharray:7,7;"/><polygon fill="#64748B" points="725.97,732.68,725.7457,722.8337,723.8358,728.1584,718.5111,726.2484,725.97,732.68" style="stroke:#64748B;stroke-width:1.1;stroke-linejoin:miter;stroke-miterlimit:10;"/><text fill="#334155" font-family="Helvetica" font-size="12" lengthAdjust="spacing" textLength="31.3477" x="712" y="697.2402">Install</text></g><!--link APT to GH_CLI--><g class="link" data-entity-1="ent0016" data-entity-2="ent0014" data-link-type="dependency" data-source-line="43" id="lnk35"><path d="M811.06,631.45 C794.58,659.16 769.8851,700.6922 753.4351,728.3622" fill="none" id="APT-to-GH_CLI" style="stroke:#64748B;stroke-width:1.1;stroke-dasharray:7,7;"/><polygon fill="#64748B" points="750.88,732.66,758.9175,726.968,753.4351,728.3622,752.0409,722.8798,750.88,732.66" style="stroke:#64748B;stroke-width:1.1;stroke-linejoin:miter;stroke-miterlimit:10;"/><text fill="#334155" font-family="Helvetica" font-size="12" lengthAdjust="spacing" textLength="31.3477" x="776.73" y="697.2402">Install</text></g><!--link REPO to GH_CLI--><g class="link" data-entity-1="ent0012" data-entity-2="ent0014" data-link-type="dependency" data-source-line="44" id="lnk36"><path d="M414.77,627.38 C476.31,654.64 581,701 581,701 C581,701 641.0944,722.1877 687.1644,738.4277" fill="none" id="REPO-to-GH_CLI" style="stroke:#64748B;stroke-width:1.1;"/><polygon fill="#64748B" points="691.88,740.09,684.7218,733.3254,687.1644,738.4277,682.0621,740.8704,691.88,740.09" style="stroke:#64748B;stroke-width:1.1;stroke-linejoin:miter;stroke-miterlimit:10;"/><text fill="#334155" font-family="Helvetica" font-size="12" lengthAdjust="spacing" textLength="114.0469" x="582" y="697.2402">Executes Commands</text></g><!--link GH_CLI to REST--><g class="link" data-entity-1="ent0014" data-entity-2="ent0018" data-link-type="dependency" data-source-line="45" id="lnk37"><path d="M720.46,781.32 C709.83,796.32 698,813 698,813 C698,813 676.6063,848.2169 662.5463,871.3569" fill="none" id="GH_CLI-to-REST" style="stroke:#64748B;stroke-width:1.1;"/><polygon fill="#64748B" points="659.95,875.63,668.0419,870.0156,662.5463,871.3569,661.205,865.8614,659.95,875.63" style="stroke:#64748B;stroke-width:1.1;stroke-linejoin:miter;stroke-miterlimit:10;"/><text fill="#334155" font-family="Helvetica" font-size="12" lengthAdjust="spacing" textLength="49.3477" x="699" y="823.2402">API Calls</text></g><!--link GH_CLI to GQL--><g class="link" data-entity-1="ent0014" data-entity-2="ent0019" data-link-type="dependency" data-source-line="46" id="lnk38"><path d="M745.54,781.34 C755.41,808.34 769.6822,847.3844 778.3122,870.9744" fill="none" id="GH_CLI-to-GQL" style="stroke:#64748B;stroke-width:1.1;"/><polygon fill="#64748B" points="780.03,875.67,780.6944,865.8436,778.3122,870.9744,773.1814,868.5921,780.03,875.67" style="stroke:#64748B;stroke-width:1.1;stroke-linejoin:miter;stroke-miterlimit:10;"/><text fill="#334155" font-family="Helvetica" font-size="12" lengthAdjust="spacing" textLength="49.3477" x="762.5" y="823.2402">API Calls</text></g><!--link REST to ACTIONS--><g class="link" data-entity-1="ent0018" data-entity-2="ent0020" data-link-type="dependency" data-source-line="47" id="lnk39"><path d="M629.81,910.45 C607.8,928.4 576.6657,953.781 554.7657,971.631" fill="none" id="REST-to-ACTIONS" style="stroke:#64748B;stroke-width:1.1;"/><polygon fill="#64748B" points="550.89,974.79,560.3934,972.2044,554.7657,971.631,555.3391,966.0033,550.89,974.79" style="stroke:#64748B;stroke-width:1.1;stroke-linejoin:miter;stroke-miterlimit:10;"/></g><!--link REST to PRS--><g class="link" data-entity-1="ent0018" data-entity-2="ent0021" data-link-type="dependency" data-source-line="48" id="lnk40"><path d="M655.6,910.45 C661.7,928.4 669.8002,952.2062 675.8702,970.0562" fill="none" id="REST-to-PRS" style="stroke:#64748B;stroke-width:1.1;"/><polygon fill="#64748B" points="677.48,974.79,678.3695,964.9814,675.8702,970.0562,670.7954,967.557,677.48,974.79" style="stroke:#64748B;stroke-width:1.1;stroke-linejoin:miter;stroke-miterlimit:10;"/></g><!--link REST to ISSUES--><g class="link" data-entity-1="ent0018" data-entity-2="ent0022" data-link-type="dependency" data-source-line="49" id="lnk41"><path d="M676.8,910.45 C705.94,928.35 747.979,954.1539 777.069,972.0139" fill="none" id="REST-to-ISSUES" style="stroke:#64748B;stroke-width:1.1;"/><polygon fill="#64748B" points="781.33,974.63,775.753,966.5123,777.069,972.0139,771.5673,973.3299,781.33,974.63" style="stroke:#64748B;stroke-width:1.1;stroke-linejoin:miter;stroke-miterlimit:10;"/></g><!--link GQL to PRS--><g class="link" data-entity-1="ent0019" data-entity-2="ent0021" data-link-type="dependency" data-source-line="50" id="lnk42"><path d="M768.53,910.45 C749.47,928.4 722.8105,953.5126 703.8505,971.3626" fill="none" id="GQL-to-PRS" style="stroke:#64748B;stroke-width:1.1;"/><polygon fill="#64748B" points="700.21,974.79,709.5048,971.5331,703.8505,971.3626,704.021,965.7084,700.21,974.79" style="stroke:#64748B;stroke-width:1.1;stroke-linejoin:miter;stroke-miterlimit:10;"/></g><!--link GQL to ISSUES--><g class="link" data-entity-1="ent0019" data-entity-2="ent0022" data-link-type="dependency" data-source-line="51" id="lnk43"><path d="M789.73,910.45 C793.8,928.4 799.1637,952.0639 803.2137,969.9139" fill="none" id="GQL-to-ISSUES" style="stroke:#64748B;stroke-width:1.1;"/><polygon fill="#64748B" points="804.32,974.79,806.2295,965.128,803.2137,969.9139,798.4277,966.8981,804.32,974.79" style="stroke:#64748B;stroke-width:1.1;stroke-linejoin:miter;stroke-miterlimit:10;"/></g><?plantuml-src RLFDRjD04BxdAOQUuD3qtaEbr3Y9mKrSsr4uH48RPvCiiNTTxxgjXP3AcKeW5I7WqWlY6NYUlW1z16RNFxLB3vPc_NspyyryiyyOZ-9yHI7Dn9fAoGGdyRxQqeJsMPx4FILIK0AMGYcHm8fbD598wgKasf4DXRtxsr_VO4AuG0fO8gCG55BHP0-8XCanlE_f5C8tCPA37OjZc6RHbagL4IKoGvlwrhX3U-suRZzPBVY8gN6-X3Bl9LqppdHvasLOlGzjAJU_WPTI3gHEaGSRfhRvql17uxVMzCH3HKs6HLAoP35J1RYaeAMQeJq8PxuTTANVttwz0Yz76Juzor7-WfyGZhSab2kJv_bj_jtF7t__V8Qvo7RhM5mWMw1saJ6-CUpvyD7jrp3m7EoOA7f12iF17rtIpITmfCpfVxMT86XFOgOUDpKB7VTHHw-2wUJWtTc23qMM4ANgza_2DikdgP1QUB7WFfKYFgzulkrDiMPd_jTVmBx4Yt29qAsKyXNb4QFI9DXlmgw0obpBnRQVRxQmP9nanOl6BBVJ_LWaT9dH2mCV-_Qy3Gwy4BnIHpsRh1fXs9Puz_sZTgMgxCL4hR7vkYBEkwiGjo3KBbGD1vt9Z3AIRa_T1X-TkazqDp3lfPp0m0gTwIHeizeR9QirwX2Ctx8sUMPhd_LxWVtze_89m24u_5pig2pVIQ_ygt5SoOS3Rjp3GQ_MmqclZ-URKDi_7pQX7aaT8wk9yJEnsOBoedx_gB8D5JNk5s1jQRJhQSUw58TBHL2kzkv9GDzjYZI8VKcZN66ZbaWImbUoLq6b53JhK7S65gPtCFIc0nckcKDbIVD3ZxyvL1FNsJLMnoNq3m00?></g></svg>