<svg xmlns="http://www.w3.org/2000/svg" xmlns:xlink="http://www.w3.org/1999/xlink" contentStyleType="text/css" data-diagram-type="DESCRIPTION" height="1323px" preserveAspectRatio="none" style="width:1396px;height:1323px;background:#FFFFFF;" version="1.1" viewBox="0 0 1396 1323" width="1396px" zoomAndPan="magnify"><?plantuml 1.2026.5?><defs/><rect data-xfeat-white-canvas="true" fill="#FFFFFF" height="100%" width="100%" x="0" y="0"/><g><!--cluster External--><g class="cluster" data-qualified-name="External" data-source-line="3" id="ent0001"><rect fill="#FFFFFF" height="113" rx="4" ry="4" style="stroke:#CBD5E1;stroke-width:1;" width="621" x="183" y="7"/><text fill="#0F172A" font-family="Helvetica" font-size="14" font-weight="700" lengthAdjust="spacing" textLength="114.3857" x="436.3071" y="19.7803">External Sources</text></g><!--cluster ConfigComponent--><g class="cluster" data-qualified-name="ConfigComponent" data-source-line="8" id="ent0005"><rect fill="#FFFFFF" height="1028" rx="4" ry="4" style="stroke:#CBD5E1;stroke-width:1;" width="944" x="7" y="174"/><text fill="#0F172A" font-family="Helvetica" font-size="14" font-weight="700" lengthAdjust="spacing" textLength="182.7451" x="387.6274" y="186.7803">nanobot/config Component</text></g><!--cluster Interface--><g class="cluster" data-qualified-name="ConfigComponent.Interface" data-source-line="9" id="ent0006"><rect fill="#FFFFFF" height="97" rx="4" ry="4" style="stroke:#CBD5E1;stroke-width:1;" width="488" x="439" y="738"/><text fill="#0F172A" font-family="Helvetica" font-size="14" font-weight="700" lengthAdjust="spacing" textLength="77.7861" x="621.1655" y="750.7803">Public API (</text><text fill="#0F172A" font-family="Helvetica" font-size="14" font-weight="700" lengthAdjust="spacing" text-decoration="underline" textLength="20.9932" x="698.9517" y="750.7803">init</text><text fill="#0F172A" font-family="Helvetica" font-size="14" font-weight="700" lengthAdjust="spacing" textLength="24.8896" x="719.9448" y="750.7803">.py)</text></g><!--cluster CoreLogic--><g class="cluster" data-qualified-name="ConfigComponent.CoreLogic" data-source-line="14" id="ent0010"><rect fill="#FFFFFF" height="620" rx="4" ry="4" style="stroke:#CBD5E1;stroke-width:1;" width="368" x="39" y="223"/><text fill="#0F172A" font-family="Helvetica" font-size="14" font-weight="700" lengthAdjust="spacing" textLength="148.5723" x="148.7139" y="235.7803">Core Logic (loader.py)</text></g><!--cluster DataModel--><g class="cluster" data-qualified-name="ConfigComponent.DataModel" data-source-line="22" id="ent0017"><rect fill="#FFFFFF" height="265" rx="4" ry="4" style="stroke:#CBD5E1;stroke-width:1;" width="596" x="181" y="905"/><text fill="#0F172A" font-family="Helvetica" font-size="14" font-weight="700" lengthAdjust="spacing" textLength="160.2617" x="398.8691" y="917.7803">Data Model (schema.py)</text></g><!--cluster Consumers--><g class="cluster" data-qualified-name="Consumers" data-source-line="30" id="ent0023"><rect fill="#FFFFFF" height="245" rx="4" ry="4" style="stroke:#CBD5E1;stroke-width:1;" width="375" x="983" y="1064"/><text fill="#0F172A" font-family="Helvetica" font-size="14" font-weight="700" lengthAdjust="spacing" textLength="130.7168" x="1105.1416" y="1076.7803">System Consumers</text></g><!--entity ENV--><g class="entity" data-qualified-name="External.ENV" data-source-line="4" id="ent0002"><rect fill="#FFFFFF" height="48" rx="4" ry="4" style="stroke:#64748B;stroke-width:0.5;" width="160.8477" x="233.58" y="48"/><text fill="#0F172A" font-family="Helvetica" font-size="14" lengthAdjust="spacing" textLength="140.8477" x="243.58" y="68.7803">Environment Variables</text><text fill="#0F172A" font-family="Helvetica" font-size="14" lengthAdjust="spacing" textLength="91.7861" x="268.1108" y="82.7803">(NANOBOT_*)</text></g><!--entity FILE--><g class="entity" data-qualified-name="External.FILE" data-source-line="5" id="ent0003"><rect fill="#FFFFFF" height="48" rx="4" ry="4" style="stroke:#64748B;stroke-width:0.5;" width="158.5303" x="436.73" y="48"/><text fill="#0F172A" font-family="Helvetica" font-size="14" lengthAdjust="spacing" textLength="66.917" x="482.5366" y="68.7803">Config File</text><text fill="#0F172A" font-family="Helvetica" font-size="14" lengthAdjust="spacing" textLength="138.5303" x="446.73" y="82.7803">(/.nanobot/config.json)</text></g><!--entity LEGACY--><g class="entity" data-qualified-name="External.LEGACY" data-source-line="6" id="ent0004"><rect fill="#FFFFFF" height="34" rx="4" ry="4" style="stroke:#64748B;stroke-width:0.5;" width="142.9512" x="637.52" y="55"/><text fill="#0F172A" font-family="Helvetica" font-size="14" lengthAdjust="spacing" textLength="122.9512" x="647.52" y="75.7803">Legacy Config Files</text></g><!--entity LOAD--><g class="entity" data-qualified-name="ConfigComponent.Interface.LOAD" data-source-line="10" id="ent0007"><rect fill="#FFFFFF" height="34" rx="4" ry="4" style="stroke:#64748B;stroke-width:0.5;" width="100.9375" x="810.53" y="778"/><text fill="#0F172A" font-family="Helvetica" font-size="14" lengthAdjust="spacing" textLength="80.9375" x="820.53" y="798.7803">load_config()</text></g><!--entity GETPATH--><g class="entity" data-qualified-name="ConfigComponent.Interface.GETPATH" data-source-line="11" id="ent0008"><rect fill="#FFFFFF" height="34" rx="4" ry="4" style="stroke:#64748B;stroke-width:0.5;" width="128.9648" x="639.52" y="778"/><text fill="#0F172A" font-family="Helvetica" font-size="14" lengthAdjust="spacing" textLength="108.9648" x="649.52" y="798.7803">get_config_path()</text></g><!--entity CONFIG--><g class="entity" data-qualified-name="ConfigComponent.Interface.CONFIG" data-source-line="12" id="ent0009"><rect fill="#FFFFFF" height="48" rx="4" ry="4" style="stroke:#64748B;stroke-width:0.5;" width="142.9238" x="454.54" y="771"/><text fill="#0F172A" font-family="Helvetica" font-size="14" lengthAdjust="spacing" textLength="79.3652" x="486.3193" y="791.7803">Config Class</text><text fill="#0F172A" font-family="Helvetica" font-size="14" lengthAdjust="spacing" textLength="122.9238" x="464.54" y="805.7803">(Type-Safe Access)</text></g><!--entity RESOLVE--><g class="entity" data-qualified-name="ConfigComponent.CoreLogic.RESOLVE" data-source-line="15" id="ent0011"><rect fill="#FFFFFF" height="48" rx="4" ry="4" style="stroke:#64748B;stroke-width:0.5;" width="137.8721" x="63.06" y="264"/><text fill="#0F172A" font-family="Helvetica" font-size="14" lengthAdjust="spacing" textLength="98.8408" x="82.5756" y="284.7803">Path Resolution</text><text fill="#0F172A" font-family="Helvetica" font-size="14" lengthAdjust="spacing" textLength="117.8721" x="73.06" y="298.7803">(Default + Custom)</text></g><!--entity READ--><g class="entity" data-qualified-name="ConfigComponent.CoreLogic.READ" data-source-line="16" id="ent0012"><rect fill="#FFFFFF" height="48" rx="4" ry="4" style="stroke:#64748B;stroke-width:0.5;" width="110.2139" x="107.89" y="390"/><text fill="#0F172A" font-family="Helvetica" font-size="14" lengthAdjust="spacing" textLength="78.5996" x="123.6971" y="410.7803">File Reading</text><text fill="#0F172A" font-family="Helvetica" font-size="14" lengthAdjust="spacing" textLength="90.2139" x="117.89" y="424.7803">(UTF-8 JSON)</text></g><!--entity WRITE--><g class="entity" data-qualified-name="ConfigComponent.CoreLogic.WRITE" data-source-line="17" id="ent0013"><rect fill="#FFFFFF" height="48" rx="4" ry="4" style="stroke:#64748B;stroke-width:0.5;" width="114.1377" x="242.93" y="264"/><text fill="#0F172A" font-family="Helvetica" font-size="14" lengthAdjust="spacing" textLength="70.0068" x="264.9954" y="284.7803">File Writing</text><text fill="#0F172A" font-family="Helvetica" font-size="14" lengthAdjust="spacing" textLength="94.1377" x="252.93" y="298.7803">(Pretty Printed)</text></g><!--entity MIGRATE--><g class="entity" data-qualified-name="ConfigComponent.CoreLogic.MIGRATE" data-source-line="18" id="ent0014"><rect fill="#FFFFFF" height="48" rx="4" ry="4" style="stroke:#64748B;stroke-width:0.5;" width="141.3857" x="185.31" y="516"/><text fill="#0F172A" font-family="Helvetica" font-size="14" lengthAdjust="spacing" textLength="112.8271" x="199.5893" y="536.7803">Schema Migration</text><text fill="#0F172A" font-family="Helvetica" font-size="14" lengthAdjust="spacing" textLength="121.3857" x="195.31" y="550.7803">(Version Upgrades)</text></g><!--entity VALIDATE--><g class="entity" data-qualified-name="ConfigComponent.CoreLogic.VALIDATE" data-source-line="19" id="ent0015"><rect fill="#FFFFFF" height="34" rx="4" ry="4" style="stroke:#64748B;stroke-width:0.5;" width="139.0752" x="211.46" y="642"/><text fill="#0F172A" font-family="Helvetica" font-size="14" lengthAdjust="spacing" textLength="119.0752" x="221.46" y="662.7803">Pydantic Validation</text></g><!--entity FALLBACK--><g class="entity" data-qualified-name="ConfigComponent.CoreLogic.FALLBACK" data-source-line="20" id="ent0016"><rect fill="#FFFFFF" height="48" rx="4" ry="4" style="stroke:#64748B;stroke-width:0.5;" width="123.4551" x="219.27" y="771"/><text fill="#0F172A" font-family="Helvetica" font-size="14" lengthAdjust="spacing" textLength="100.3789" x="230.8081" y="791.7803">Default Fallback</text><text fill="#0F172A" font-family="Helvetica" font-size="14" lengthAdjust="spacing" textLength="103.4551" x="229.27" y="805.7803">(Error Recovery)</text></g><!--entity CHANNELS--><g class="entity" data-qualified-name="ConfigComponent.DataModel.CHANNELS" data-source-line="23" id="ent0018"><rect fill="#FFFFFF" height="48" rx="4" ry="4" style="stroke:#64748B;stroke-width:0.5;" width="123.5098" x="205.25" y="946"/><text fill="#0F172A" font-family="Helvetica" font-size="14" lengthAdjust="spacing" textLength="103.5098" x="215.25" y="966.7803">Channel Configs</text><text fill="#0F172A" font-family="Helvetica" font-size="14" lengthAdjust="spacing" textLength="96.0859" x="218.9619" y="980.7803">(10+ Platforms)</text></g><!--entity LLMS--><g class="entity" data-qualified-name="ConfigComponent.DataModel.LLMS" data-source-line="24" id="ent0019"><rect fill="#FFFFFF" height="48" rx="4" ry="4" style="stroke:#64748B;stroke-width:0.5;" width="110.6445" x="370.68" y="946"/><text fill="#0F172A" font-family="Helvetica" font-size="14" lengthAdjust="spacing" textLength="90.2549" x="380.8748" y="966.7803">LLM Providers</text><text fill="#0F172A" font-family="Helvetica" font-size="14" lengthAdjust="spacing" textLength="90.6445" x="380.68" y="980.7803">(15+ Services)</text></g><!--entity AGENT--><g class="entity" data-qualified-name="ConfigComponent.DataModel.AGENT" data-source-line="25" id="ent0020"><rect fill="#FFFFFF" height="48" rx="4" ry="4" style="stroke:#64748B;stroke-width:0.5;" width="203.5928" x="523.2" y="946"/><text fill="#0F172A" font-family="Helvetica" font-size="14" lengthAdjust="spacing" textLength="91.0615" x="579.4656" y="966.7803">Agent Settings</text><text fill="#0F172A" font-family="Helvetica" font-size="14" lengthAdjust="spacing" textLength="183.5928" x="533.2" y="980.7803">(Workspace, Model, Memory)</text></g><!--entity TOOLS--><g class="entity" data-qualified-name="ConfigComponent.DataModel.TOOLS" data-source-line="26" id="ent0021"><rect fill="#FFFFFF" height="48" rx="4" ry="4" style="stroke:#64748B;stroke-width:0.5;" width="184.1582" x="204.92" y="1098"/><text fill="#0F172A" font-family="Helvetica" font-size="14" lengthAdjust="spacing" textLength="78.5928" x="257.7027" y="1118.7803">Tool Configs</text><text fill="#0F172A" font-family="Helvetica" font-size="14" lengthAdjust="spacing" textLength="164.1582" x="214.92" y="1132.7803">(Web Search, Shell, MCP)</text></g><!--entity GATEWAY--><g class="entity" data-qualified-name="ConfigComponent.DataModel.GATEWAY" data-source-line="27" id="ent0022"><rect fill="#FFFFFF" height="48" rx="4" ry="4" style="stroke:#64748B;stroke-width:0.5;" width="135.1377" x="431.43" y="1098"/><text fill="#0F172A" font-family="Helvetica" font-size="14" lengthAdjust="spacing" textLength="100.3721" x="448.8128" y="1118.7803">Gateway Server</text><text fill="#0F172A" font-family="Helvetica" font-size="14" lengthAdjust="spacing" textLength="115.1377" x="441.43" y="1132.7803">(HTTP, Heartbeat)</text></g><!--entity APP--><g class="entity" data-qualified-name="Consumers.APP" data-source-line="31" id="ent0024"><rect fill="#FFFFFF" height="34" rx="4" ry="4" style="stroke:#64748B;stroke-width:0.5;" width="145.3096" x="1007.35" y="1105"/><text fill="#0F172A" font-family="Helvetica" font-size="14" lengthAdjust="spacing" textLength="125.3096" x="1017.35" y="1125.7803">Nanobot Application</text></g><!--entity AGENT_RUNNER--><g class="entity" data-qualified-name="Consumers.AGENT_RUNNER" data-source-line="32" id="ent0025"><rect fill="#FFFFFF" height="34" rx="4" ry="4" style="stroke:#64748B;stroke-width:0.5;" width="112.6064" x="1194.7" y="1105"/><text fill="#0F172A" font-family="Helvetica" font-size="14" lengthAdjust="spacing" textLength="92.6064" x="1204.7" y="1125.7803">Agent Runtime</text></g><!--entity CHANNEL_MGR--><g class="entity" data-qualified-name="Consumers.CHANNEL_MGR" data-source-line="33" id="ent0026"><rect fill="#FFFFFF" height="34" rx="4" ry="4" style="stroke:#64748B;stroke-width:0.5;" width="138.2959" x="1010.85" y="1251"/><text fill="#0F172A" font-family="Helvetica" font-size="14" lengthAdjust="spacing" textLength="118.2959" x="1020.85" y="1271.7803">Channel Managers</text></g><!--entity LLM_CLIENT--><g class="entity" data-qualified-name="Consumers.LLM_CLIENT" data-source-line="34" id="ent0027"><rect fill="#FFFFFF" height="34" rx="4" ry="4" style="stroke:#64748B;stroke-width:0.5;" width="86.917" x="1191.54" y="1251"/><text fill="#0F172A" font-family="Helvetica" font-size="14" lengthAdjust="spacing" textLength="66.917" x="1201.54" y="1271.7803">LLM Client</text></g><!--link External to CoreLogic--><g class="link" data-entity-1="ent0001" data-entity-2="ent0010" data-link-type="dependency" data-source-line="36" id="lnk28"><path d="M209.7349,120.2086 C209.7772,120.3152 209.8194,120.4214 209.8614,120.5274 C210.0296,120.9512 210.1956,121.3697 210.3594,121.7825 C211.0145,123.4336 211.6331,124.993 212.2037,126.4313 C214.4862,132.1844 216,136 216,136 C216,136 306,158 306,158 C306,158 375,166 375,166 C375,166 376.4538,173.3281 378.6456,184.3775 C379.7416,189.9022 381.022,196.3572 382.3976,203.2916 C383.0854,206.7589 383.7969,210.346 384.521,213.9966 C384.8831,215.8219 385.2483,217.663 385.6153,219.513 C385.7987,220.438 385.9827,221.3652 386.1668,222.2938 C386.2129,222.5259 385.2861,217.8537 385.3322,218.086" fill="none" id="External-to-CoreLogic" style="stroke:#64748B;stroke-width:1.1;"/><polygon fill="#64748B" points="386.305,222.9904,388.4775,213.3842,385.3322,218.086,380.6304,214.9407,386.305,222.9904" style="stroke:#64748B;stroke-width:1.1;stroke-linejoin:miter;stroke-miterlimit:10;"/><text fill="#334155" font-family="Helvetica" font-size="12" lengthAdjust="spacing" textLength="67.377" x="307" y="154.2402">config inputs</text></g><!--link LOAD to CoreLogic--><g class="link" data-entity-1="ent0007" data-entity-2="ent0010" data-link-type="dependency" data-source-line="37" id="lnk29"><path d="M846.16,777.57 C813.85,741.79 740,660 740,660 C740,413 740,413 740,413 C740,413 656.0775,382.4825 571.4988,351.7263 C529.2094,336.3481 486.7559,320.9103 454.5467,309.1977 C438.4421,303.3413 424.8986,298.4163 415.2171,294.8956 C412.7967,294.0155 410.6177,293.2231 408.7005,292.5259 C408.2211,292.3516 412.4571,293.892 412.0108,293.7297" fill="none" id="LOAD-to-CoreLogic" style="stroke:#64748B;stroke-width:1.1;"/><polygon fill="#64748B" points="407.3119,292.0209,414.403,298.8559,412.0108,293.7297,417.137,291.3376,407.3119,292.0209" style="stroke:#64748B;stroke-width:1.1;stroke-linejoin:miter;stroke-miterlimit:10;"/><text fill="#334155" font-family="Helvetica" font-size="12" lengthAdjust="spacing" textLength="66.0469" x="741" y="543.2402">load request</text></g><!--link GETPATH to RESOLVE--><g class="link" data-entity-1="ent0008" data-entity-2="ent0011" data-link-type="dependency" data-source-line="38" id="lnk30"><path d="M681.85,777.52 C656.37,758.56 618,730 618,730 C618,730 442,660 442,660 C442,413 442,413 442,413 C442,413 285.1924,350.2769 195.3124,314.3269" fill="none" id="GETPATH-to-RESOLVE" style="stroke:#64748B;stroke-width:1.1;"/><polygon fill="#64748B" points="190.67,312.47,197.5409,319.5263,195.3124,314.3269,200.5118,312.0984,190.67,312.47" style="stroke:#64748B;stroke-width:1.1;stroke-linejoin:miter;stroke-miterlimit:10;"/><text fill="#334155" font-family="Helvetica" font-size="12" lengthAdjust="spacing" textLength="62.0508" x="443" y="543.2402">path lookup</text></g><!--link RESOLVE to READ--><g class="link" data-entity-1="ent0011" data-entity-2="ent0012" data-link-type="dependency" data-source-line="39" id="lnk31"><path d="M137.83,312.32 C143.37,334.49 150.4458,362.7997 155.9858,384.9297" fill="none" id="RESOLVE-to-READ" style="stroke:#64748B;stroke-width:1.1;"/><polygon fill="#64748B" points="157.2,389.78,158.8947,380.078,155.9858,384.9297,151.1341,382.0208,157.2,389.78" style="stroke:#64748B;stroke-width:1.1;stroke-linejoin:miter;stroke-miterlimit:10;"/><text fill="#334155" font-family="Helvetica" font-size="12" lengthAdjust="spacing" textLength="50.6953" x="149.43" y="354.2402">locate file</text></g><!--link READ to MIGRATE--><g class="link" data-entity-1="ent0012" data-entity-2="ent0014" data-link-type="dependency" data-source-line="40" id="lnk32"><path d="M180.49,438.32 C197.12,460.49 218.9786,489.6511 235.5886,511.7811" fill="none" id="READ-to-MIGRATE" style="stroke:#64748B;stroke-width:1.1;"/><polygon fill="#64748B" points="238.59,515.78,236.3865,506.1808,235.5886,511.7811,229.9883,510.9831,238.59,515.78" style="stroke:#64748B;stroke-width:1.1;stroke-linejoin:miter;stroke-miterlimit:10;"/><text fill="#334155" font-family="Helvetica" font-size="12" lengthAdjust="spacing" textLength="65.3555" x="213.29" y="480.2402">parse JSON</text></g><!--link MIGRATE to VALIDATE--><g class="link" data-entity-1="ent0014" data-entity-2="ent0015" data-link-type="dependency" data-source-line="41" id="lnk33"><path d="M261,564.4 C265.9,587.34 272.1935,616.8107 276.4935,636.9007" fill="none" id="MIGRATE-to-VALIDATE" style="stroke:#64748B;stroke-width:1.1;"/><polygon fill="#64748B" points="277.54,641.79,279.5677,632.1521,276.4935,636.9007,271.7449,633.8265,277.54,641.79" style="stroke:#64748B;stroke-width:1.1;stroke-linejoin:miter;stroke-miterlimit:10;"/><text fill="#334155" font-family="Helvetica" font-size="12" lengthAdjust="spacing" textLength="89.3906" x="271.74" y="606.2402">upgrade schema</text></g><!--link VALIDATE to CONFIG--><g class="link" data-entity-1="ent0015" data-entity-2="ent0009" data-link-type="dependency" data-source-line="42" id="lnk34"><path d="M308.86,676.45 C339.97,694.82 386,722 386,722 C386,722 435.2234,747.3136 476.1034,768.3336" fill="none" id="VALIDATE-to-CONFIG" style="stroke:#64748B;stroke-width:1.1;"/><polygon fill="#64748B" points="480.55,770.62,474.3752,762.9472,476.1034,768.3336,470.717,770.0618,480.55,770.62" style="stroke:#64748B;stroke-width:1.1;stroke-linejoin:miter;stroke-miterlimit:10;"/><text fill="#334155" font-family="Helvetica" font-size="12" lengthAdjust="spacing" textLength="43.3477" x="387" y="718.2402">success</text></g><!--link VALIDATE to FALLBACK--><g class="link" data-entity-1="ent0015" data-entity-2="ent0016" data-link-type="dependency" data-source-line="43" id="lnk35"><path d="M281,676.43 C281,700.05 281,738.72 281,765.68" fill="none" id="VALIDATE-to-FALLBACK" style="stroke:#64748B;stroke-width:1.1;"/><polygon fill="#64748B" points="281,770.68,285,761.68,281,765.68,277,761.68,281,770.68" style="stroke:#64748B;stroke-width:1.1;stroke-linejoin:miter;stroke-miterlimit:10;"/><text fill="#334155" font-family="Helvetica" font-size="12" lengthAdjust="spacing" textLength="32.6836" x="282" y="718.2402">failure</text></g><!--link FALLBACK to CONFIG--><g class="link" data-entity-1="ent0016" data-entity-2="ent0009" data-link-type="dependency" data-source-line="44" id="lnk36"><path d="M343.14,795 C377.02,795 414.12,795 449.37,795" fill="none" id="FALLBACK-to-CONFIG" style="stroke:#64748B;stroke-width:1.1;"/><polygon fill="#64748B" points="454.37,795,445.37,791,449.37,795,445.37,799,454.37,795" style="stroke:#64748B;stroke-width:1.1;stroke-linejoin:miter;stroke-miterlimit:10;"/><text fill="#334155" font-family="Helvetica" font-size="12" lengthAdjust="spacing" textLength="68.0449" x="364.63" y="788.2402">safe defaults</text></g><!--link WRITE to FILE--><g class="link" data-entity-1="ent0013" data-entity-2="ent0003" data-link-type="dependency" data-source-line="45" id="lnk37"><path d="M311.76,263.67 C329.49,228.51 361,166 361,166 C361,166 381,158 381,158 C381,158 434.5588,124.2741 474.5188,99.1141" fill="none" id="WRITE-to-FILE" style="stroke:#64748B;stroke-width:1.1;"/><polygon fill="#64748B" points="478.75,96.45,469.0027,97.8604,474.5188,99.1141,473.2652,104.6303,478.75,96.45" style="stroke:#64748B;stroke-width:1.1;stroke-linejoin:miter;stroke-miterlimit:10;"/><text fill="#334155" font-family="Helvetica" font-size="12" lengthAdjust="spacing" textLength="81.3809" x="401.6" y="154.2402">persist updates</text></g><!--link CONFIG to DataModel--><g class="link" data-entity-1="ent0009" data-entity-2="ent0017" data-link-type="dependency" data-source-line="46" id="lnk38"><path d="M560.63,819.46 C587.07,837.37 619,859 619,859 C619,859 745,889 745,889 C745,889 746.4538,893.845 748.6456,901.1503 C748.9196,902.0635 749.2051,903.0151 749.5008,904.0005 C749.5747,904.2468 748.2123,899.7062 748.2875,899.9567" fill="none" id="CONFIG-to-DataModel" style="stroke:#64748B;stroke-width:1.1;"/><polygon fill="#64748B" points="749.7244,904.7458,750.9693,894.9759,748.2875,899.9567,743.3067,897.2749,749.7244,904.7458" style="stroke:#64748B;stroke-width:1.1;stroke-linejoin:miter;stroke-miterlimit:10;"/><text fill="#334155" font-family="Helvetica" font-size="12" lengthAdjust="spacing" textLength="76.7109" x="712.21" y="877.2402">typed sections</text></g><!--link DataModel to Consumers--><g class="link" data-entity-1="ent0017" data-entity-2="ent0023" data-link-type="dependency" data-source-line="47" id="lnk39"><path d="M777.6132,972.1901 C777.9075,972.2308 778.2088,972.2726 778.5172,972.3153 C779.134,972.4008 779.779,972.4901 780.4517,972.5833 C781.7972,972.7697 783.2534,972.9715 784.8164,973.188 C787.9423,973.6211 791.4949,974.1132 795.4411,974.6598 C811.226,976.8464 833.3082,979.9049 859.5664,983.5417 C912.0828,990.8153 981.3031,1000.4019 1050.2563,1009.9513 C1188.1625,1029.05 1325,1048 1325,1048 C1325,1048 1326.5138,1052.4212 1328.7963,1059.0877 C1329.0816,1059.921 1329.3789,1060.7893 1329.6868,1061.6886 C1329.8407,1062.1382 1329.9973,1062.5955 1330.1563,1063.06 C1330.2358,1063.2922 1328.6963,1058.7958 1328.7771,1059.0316" fill="none" id="DataModel-to-Consumers" style="stroke:#64748B;stroke-width:1.1;"/><polygon fill="#64748B" points="1330.3967,1063.762,1331.2657,1053.9516,1328.7771,1059.0316,1323.697,1056.543,1330.3967,1063.762" style="stroke:#64748B;stroke-width:1.1;stroke-linejoin:miter;stroke-miterlimit:10;"/><text fill="#334155" font-family="Helvetica" font-size="12" lengthAdjust="spacing" textLength="112.0605" x="1268.18" y="1036.2402">runtime configuration</text></g><?plantuml-src RLLDZzis4BthLqnpShlhJNieKEmXWAArlMvbMx2qDWeK46XfRBDBaIf9RMeKwM_FK9HiASd94ESzyisR3__0PI6Q4g7MweZ6S2MPcDepLlZ0cqe4LjLW5HoKjQg2aciiB862cXMlx8JmRlQlHKqaI5MZ2pJlW1cu7luNE0AJ9-6Wyerh9IkK5dPCStOGQFwIatMutdpSPFbFFthoUZTaHKeU-GdcN21X_t__89bKfETzqGOU_ZPAUk9y6S-6p1XFhBZ0u0AlBfujmkZFuFCjYV6LnAXg9Kbc2_VywndbTEKbpK7m0i9a2PCyvvBRF7-eBrxEKf89HrRWs0MXM9dxXoOU66_2fo7YXBO3v3Mpvmwrc6L9c3r_nvf8CEDyp2urJbDsH0WBgeJnl6YpdYyNmsmZfH5YTIBb4wS6zLMp2_d8I7D2Cc2BHed6LP_UUi8ZQuI5EuWQGwtXwTjPkebteo8usudAIYvFn7l9vjFVuFTqi-uPuznR-5vpw-69Hcila6XEPfQUijykiz4JQK7zoc35JvfrydQeNI_3Iqrd9NPMh9QBRJZc9fUIIKlvxfZWPKjleRimNZvzXUrpdZCX3cGclJFJMcbAhr1lg3iFvs4SVmoZFuQMFp5B0bM90YQcbNkrt8LyP6HvT6PIqg6liIllBp_VGIAOFIfTzRLz3jVhMPoEkZvUaL_gZLDTMzglTv2YVkD5RmCXHepmvDew9QV9T4VPA_rgI3lUUytqWvNgymiNitKsv6TA3NNkyK2NCLsSxo4zet3qAF7SRBCPgrqmYv_OfLM8cjZFMPRSmpFnxG6PxNgVAh4FtSWEF4qlncBb7ZPDHRdsm-g_ncwk_O13MDSqiBSoXqdohHFRXZgYmbko-VQ5RDv-hpmh9abC_xWlHxvQRB-kI2Hulq_eCu_YfJFnSt3TbDFfXy7qFKAtYhYi6si2joA-WRZP1Ot_D6XiqAs75jID8K7S_Y2SUctge3_r2BhFtK1U81nfw8BsoCMwAMdPsc0xh45_w03zR12YyVC5lgU3QwILsYuU0fccNKVZQ3yb53yoBXgDmVLep7OBhVIZPu9s-Fq5jEsTHZVfnf8IcbuqGSTpYDjaFOAbtLY2yVzU9hY5lAbzqpo2ziNl_6_yHla2?></g></svg>