<svg xmlns="http://www.w3.org/2000/svg" xmlns:xlink="http://www.w3.org/1999/xlink" contentStyleType="text/css" data-diagram-type="DESCRIPTION" height="649px" preserveAspectRatio="none" style="width:875px;height:649px;background:#FFFFFF;" version="1.1" viewBox="0 0 875 649" width="875px" zoomAndPan="magnify"><?plantuml 1.2026.5?><defs/><rect data-xfeat-white-canvas="true" fill="#FFFFFF" height="100%" width="100%" x="0" y="0"/><g><!--cluster External--><g class="cluster" data-qualified-name="External" data-source-line="3" id="ent0001"><rect fill="#FFFFFF" height="83" rx="4" ry="4" style="stroke:#CBD5E1;stroke-width:1;" width="396" x="465" y="521"/><text fill="#0F172A" font-family="Helvetica" font-size="14" font-weight="700" lengthAdjust="spacing" textLength="116.7305" x="604.6348" y="533.7803">External Systems</text></g><!--cluster AgentCore--><g class="cluster" data-qualified-name="AgentCore" data-source-line="8" id="ent0005"><rect fill="#FFFFFF" height="628" rx="4" ry="4" style="stroke:#CBD5E1;stroke-width:1;" width="434" x="7" y="7"/><text fill="#0F172A" font-family="Helvetica" font-size="14" font-weight="700" lengthAdjust="spacing" textLength="96.4346" x="175.7827" y="19.7803">nanobot/agent</text></g><!--cluster Orchestrator--><g class="cluster" data-qualified-name="AgentCore.Orchestrator" data-source-line="9" id="ent0006"><rect fill="#FFFFFF" height="209" rx="4" ry="4" style="stroke:#CBD5E1;stroke-width:1;" width="149" x="148" y="48"/><text fill="#0F172A" font-family="Helvetica" font-size="14" font-weight="700" lengthAdjust="spacing" textLength="133.0479" x="155.9761" y="60.7803">Orchestration Layer</text></g><!--cluster ContextLayer--><g class="cluster" data-qualified-name="AgentCore.ContextLayer" data-source-line="13" id="ent0009"><rect fill="#FFFFFF" height="97" rx="4" ry="4" style="stroke:#CBD5E1;stroke-width:1;" width="144" x="51" y="281"/><text fill="#0F172A" font-family="Helvetica" font-size="14" font-weight="700" lengthAdjust="spacing" textLength="93.3584" x="76.3208" y="293.7803">Context Layer</text></g><!--cluster PersistenceLayer--><g class="cluster" data-qualified-name="AgentCore.PersistenceLayer" data-source-line="16" id="ent0011"><rect fill="#FFFFFF" height="209" rx="4" ry="4" style="stroke:#CBD5E1;stroke-width:1;" width="138" x="42" y="402"/><text fill="#0F172A" font-family="Helvetica" font-size="14" font-weight="700" lengthAdjust="spacing" textLength="119.8545" x="51.0728" y="414.7803">Persistence Layer</text></g><!--cluster CapabilityLayer--><g class="cluster" data-qualified-name="AgentCore.CapabilityLayer" data-source-line="20" id="ent0014"><rect fill="#FFFFFF" height="202" rx="4" ry="4" style="stroke:#CBD5E1;stroke-width:1;" width="146" x="204" y="402"/><text fill="#0F172A" font-family="Helvetica" font-size="14" font-weight="700" lengthAdjust="spacing" textLength="108.1514" x="222.9243" y="414.7803">Capability Layer</text></g><!--cluster ExecutionLayer--><g class="cluster" data-qualified-name="AgentCore.ExecutionLayer" data-source-line="24" id="ent0017"><rect fill="#FFFFFF" height="97" rx="4" ry="4" style="stroke:#CBD5E1;stroke-width:1;" width="168" x="249" y="281"/><text fill="#0F172A" font-family="Helvetica" font-size="14" font-weight="700" lengthAdjust="spacing" textLength="108.1514" x="278.9243" y="293.7803">Execution Layer</text></g><!--entity LLM--><g class="entity" data-qualified-name="External.LLM" data-source-line="4" id="ent0002"><rect fill="#FFFFFF" height="34" rx="4" ry="4" style="stroke:#64748B;stroke-width:0.5;" width="103.2549" x="741.37" y="554"/><text fill="#0F172A" font-family="Helvetica" font-size="14" lengthAdjust="spacing" textLength="83.2549" x="751.37" y="574.7803">LLM Provider</text></g><!--entity FS--><g class="entity" data-qualified-name="External.FS" data-source-line="5" id="ent0003"><rect fill="#FFFFFF" height="34" rx="4" ry="4" style="stroke:#64748B;stroke-width:0.5;" width="93.124" x="481.44" y="554"/><text fill="#0F172A" font-family="Helvetica" font-size="14" lengthAdjust="spacing" textLength="73.124" x="491.44" y="574.7803">File System</text></g><!--entity WEB--><g class="entity" data-qualified-name="External.WEB" data-source-line="6" id="ent0004"><rect fill="#FFFFFF" height="34" rx="4" ry="4" style="stroke:#64748B;stroke-width:0.5;" width="82.2412" x="616.88" y="554"/><text fill="#0F172A" font-family="Helvetica" font-size="14" lengthAdjust="spacing" textLength="62.2412" x="626.88" y="574.7803">Web APIs</text></g><!--entity INIT--><g class="entity" data-qualified-name="AgentCore.Orchestrator.INIT" data-source-line="10" id="ent0007"><rect fill="#FFFFFF" height="48" rx="4" ry="4" style="stroke:#64748B;stroke-width:0.5;" width="95.4893" x="174.26" y="81"/><text fill="#0F172A" font-family="Helvetica" font-size="14" lengthAdjust="spacing" text-decoration="underline" textLength="17.8965" x="203.7185" y="101.7803">init</text><text fill="#0F172A" font-family="Helvetica" font-size="14" lengthAdjust="spacing" textLength="18.6758" x="221.615" y="101.7803">.py</text><text fill="#0F172A" font-family="Helvetica" font-size="14" lengthAdjust="spacing" textLength="75.4893" x="184.26" y="115.7803">Module Hub</text></g><!--entity LOOP--><g class="entity" data-qualified-name="AgentCore.Orchestrator.LOOP" data-source-line="11" id="ent0008"><rect fill="#FFFFFF" height="48" rx="4" ry="4" style="stroke:#64748B;stroke-width:0.5;" width="91.6201" x="176.19" y="193"/><text fill="#0F172A" font-family="Helvetica" font-size="14" lengthAdjust="spacing" textLength="45.1445" x="199.4278" y="213.7803">loop.py</text><text fill="#0F172A" font-family="Helvetica" font-size="14" lengthAdjust="spacing" textLength="71.6201" x="186.19" y="227.7803">Agent Loop</text></g><!--entity CTX--><g class="entity" data-qualified-name="AgentCore.ContextLayer.CTX" data-source-line="14" id="ent0010"><rect fill="#FFFFFF" height="48" rx="4" ry="4" style="stroke:#64748B;stroke-width:0.5;" width="111.8271" x="67.09" y="314"/><text fill="#0F172A" font-family="Helvetica" font-size="14" lengthAdjust="spacing" textLength="63.8135" x="91.0968" y="334.7803">context.py</text><text fill="#0F172A" font-family="Helvetica" font-size="14" lengthAdjust="spacing" textLength="91.8271" x="77.09" y="348.7803">ContextBuilder</text></g><!--entity MEM--><g class="entity" data-qualified-name="AgentCore.PersistenceLayer.MEM" data-source-line="17" id="ent0012"><rect fill="#FFFFFF" height="48" rx="4" ry="4" style="stroke:#64748B;stroke-width:0.5;" width="104.0205" x="58.99" y="435"/><text fill="#0F172A" font-family="Helvetica" font-size="14" lengthAdjust="spacing" textLength="69.2344" x="76.3831" y="455.7803">memory.py</text><text fill="#0F172A" font-family="Helvetica" font-size="14" lengthAdjust="spacing" textLength="84.0205" x="68.99" y="469.7803">MemoryStore</text></g><!--entity MEM_FILES--><g class="entity" data-qualified-name="AgentCore.PersistenceLayer.MEM_FILES" data-source-line="18" id="ent0013"><rect fill="#FFFFFF" height="48" rx="4" ry="4" style="stroke:#64748B;stroke-width:0.5;" width="106.3379" x="57.83" y="547"/><text fill="#0F172A" font-family="Helvetica" font-size="14" lengthAdjust="spacing" textLength="86.3379" x="67.83" y="567.7803">MEMORY.md</text><text fill="#0F172A" font-family="Helvetica" font-size="14" lengthAdjust="spacing" textLength="85.5654" x="68.2162" y="581.7803">HISTORY.md</text></g><!--entity SKILLS--><g class="entity" data-qualified-name="AgentCore.CapabilityLayer.SKILLS" data-source-line="21" id="ent0015"><rect fill="#FFFFFF" height="48" rx="4" ry="4" style="stroke:#64748B;stroke-width:0.5;" width="96.2617" x="223.87" y="435"/><text fill="#0F172A" font-family="Helvetica" font-size="14" lengthAdjust="spacing" textLength="49.0068" x="247.4974" y="455.7803">skills.py</text><text fill="#0F172A" font-family="Helvetica" font-size="14" lengthAdjust="spacing" textLength="76.2617" x="233.87" y="469.7803">SkillsLoader</text></g><!--entity SKILL_FILES--><g class="entity" data-qualified-name="AgentCore.CapabilityLayer.SKILL_FILES" data-source-line="22" id="ent0016"><rect fill="#FFFFFF" height="34" rx="4" ry="4" style="stroke:#64748B;stroke-width:0.5;" width="114.9238" x="219.54" y="554"/><text fill="#0F172A" font-family="Helvetica" font-size="14" lengthAdjust="spacing" textLength="94.9238" x="229.54" y="574.7803">SKILL.md Files</text></g><!--entity SUB--><g class="entity" data-qualified-name="AgentCore.ExecutionLayer.SUB" data-source-line="25" id="ent0018"><rect fill="#FFFFFF" height="48" rx="4" ry="4" style="stroke:#64748B;stroke-width:0.5;" width="135.1992" x="265.4" y="314"/><text fill="#0F172A" font-family="Helvetica" font-size="14" lengthAdjust="spacing" textLength="76.2822" x="294.8585" y="334.7803">subagent.py</text><text fill="#0F172A" font-family="Helvetica" font-size="14" lengthAdjust="spacing" textLength="115.1992" x="275.4" y="348.7803">SubagentManager</text></g><!--link INIT to LOOP--><g class="link" data-entity-1="ent0007" data-entity-2="ent0008" data-link-type="dependency" data-source-line="28" id="lnk19"><path d="M222,129.33 C222,148 222,169.05 222,187.71" fill="none" id="INIT-to-LOOP" style="stroke:#64748B;stroke-width:1.1;"/><polygon fill="#64748B" points="222,192.71,226,183.71,222,187.71,218,183.71,222,192.71" style="stroke:#64748B;stroke-width:1.1;stroke-linejoin:miter;stroke-miterlimit:10;"/></g><!--link LOOP to CTX--><g class="link" data-entity-1="ent0008" data-entity-2="ent0010" data-link-type="dependency" data-source-line="29" id="lnk20"><path d="M199.4809,245.0726 C182.0309,266.0326 162.8979,289.0363 145.4679,309.9863" fill="none" id="LOOP-CTX" style="stroke:#64748B;stroke-width:1.1;"/><polygon fill="#64748B" points="202.68,241.23,193.8475,245.5874,199.4809,245.0726,199.9957,250.706,202.68,241.23" style="stroke:#64748B;stroke-width:1.1;stroke-linejoin:miter;stroke-miterlimit:10;"/><polygon fill="#64748B" points="142.27,313.83,151.1011,309.4697,145.4679,309.9863,144.9512,304.3531,142.27,313.83" style="stroke:#64748B;stroke-width:1.1;stroke-linejoin:miter;stroke-miterlimit:10;"/></g><!--link LOOP to MEM--><g class="link" data-entity-1="ent0008" data-entity-2="ent0012" data-link-type="dependency" data-source-line="30" id="lnk21"><path d="M171.3252,234.1054 C120.0752,250.4054 49,273 49,273 C49,273 49,386 49,386 C49,386 69.658,409.9806 87.778,431.0306" fill="none" id="LOOP-MEM" style="stroke:#64748B;stroke-width:1.1;"/><polygon fill="#64748B" points="176.09,232.59,166.301,231.5059,171.3252,234.1054,168.7257,239.1296,176.09,232.59" style="stroke:#64748B;stroke-width:1.1;stroke-linejoin:miter;stroke-miterlimit:10;"/><polygon fill="#64748B" points="91.04,434.82,88.2,425.3895,87.778,431.0306,82.137,430.6086,91.04,434.82" style="stroke:#64748B;stroke-width:1.1;stroke-linejoin:miter;stroke-miterlimit:10;"/></g><!--link LOOP to SKILLS--><g class="link" data-entity-1="ent0008" data-entity-2="ent0015" data-link-type="dependency" data-source-line="31" id="lnk22"><path d="M226.216,246.3055 C233.086,292.4655 247,386 247,386 C247,386 254.9997,409.0467 262.3097,430.0967" fill="none" id="LOOP-SKILLS" style="stroke:#64748B;stroke-width:1.1;"/><polygon fill="#64748B" points="225.48,241.36,222.8485,250.8508,226.216,246.3055,230.7613,249.6731,225.48,241.36" style="stroke:#64748B;stroke-width:1.1;stroke-linejoin:miter;stroke-miterlimit:10;"/><polygon fill="#64748B" points="263.95,434.82,264.7762,425.0059,262.3097,430.0967,257.2189,427.6303,263.95,434.82" style="stroke:#64748B;stroke-width:1.1;stroke-linejoin:miter;stroke-miterlimit:10;"/></g><!--link LOOP to SUB--><g class="link" data-entity-1="ent0008" data-entity-2="ent0018" data-link-type="dependency" data-source-line="32" id="lnk23"><path d="M243.67,241.23 C263.22,262.19 288.4397,289.2236 307.9797,310.1736" fill="none" id="LOOP-to-SUB" style="stroke:#64748B;stroke-width:1.1;"/><polygon fill="#64748B" points="311.39,313.83,308.1765,304.5201,307.9797,310.1736,302.3262,309.9767,311.39,313.83" style="stroke:#64748B;stroke-width:1.1;stroke-linejoin:miter;stroke-miterlimit:10;"/></g><!--link CTX to MEM--><g class="link" data-entity-1="ent0010" data-entity-2="ent0012" data-link-type="dependency" data-source-line="33" id="lnk24"><path d="M120.66,362.23 C118.54,383.19 115.951,408.9052 113.841,429.8552" fill="none" id="CTX-to-MEM" style="stroke:#64748B;stroke-width:1.1;"/><polygon fill="#64748B" points="113.34,434.83,118.2217,426.2761,113.841,429.8552,110.262,425.4745,113.34,434.83" style="stroke:#64748B;stroke-width:1.1;stroke-linejoin:miter;stroke-miterlimit:10;"/></g><!--link CTX to SKILLS--><g class="link" data-entity-1="ent0010" data-entity-2="ent0015" data-link-type="dependency" data-source-line="34" id="lnk25"><path d="M152.08,362.23 C178.25,383.13 212.6032,410.5596 238.8332,431.5096" fill="none" id="CTX-to-SKILLS" style="stroke:#64748B;stroke-width:1.1;"/><polygon fill="#64748B" points="242.74,434.63,238.204,425.8879,238.8332,431.5096,233.2114,432.1388,242.74,434.63" style="stroke:#64748B;stroke-width:1.1;stroke-linejoin:miter;stroke-miterlimit:10;"/></g><!--link MEM to MEM_FILES--><g class="link" data-entity-1="ent0012" data-entity-2="ent0013" data-link-type="dependency" data-source-line="35" id="lnk26"><path d="M111,488.33 C111,507 111,523.05 111,541.71" fill="none" id="MEM-MEM_FILES" style="stroke:#64748B;stroke-width:1.1;"/><polygon fill="#64748B" points="111,483.33,107,492.33,111,488.33,115,492.33,111,483.33" style="stroke:#64748B;stroke-width:1.1;stroke-linejoin:miter;stroke-miterlimit:10;"/><polygon fill="#64748B" points="111,546.71,115,537.71,111,541.71,107,537.71,111,546.71" style="stroke:#64748B;stroke-width:1.1;stroke-linejoin:miter;stroke-miterlimit:10;"/></g><!--link SKILLS to SKILL_FILES--><g class="link" data-entity-1="ent0015" data-entity-2="ent0016" data-link-type="dependency" data-source-line="36" id="lnk27"><path d="M273.2863,488.3249 C274.2463,509.5149 275.1945,530.2251 276.0345,548.8351" fill="none" id="SKILLS-SKILL_FILES" style="stroke:#64748B;stroke-width:1.1;"/><polygon fill="#64748B" points="273.06,483.33,269.4714,492.5018,273.2863,488.3249,277.4632,492.1397,273.06,483.33" style="stroke:#64748B;stroke-width:1.1;stroke-linejoin:miter;stroke-miterlimit:10;"/><polygon fill="#64748B" points="276.26,553.83,279.8501,544.6588,276.0345,548.8351,271.8582,545.0195,276.26,553.83" style="stroke:#64748B;stroke-width:1.1;stroke-linejoin:miter;stroke-miterlimit:10;"/></g><!--link LOOP to LLM--><g class="link" data-entity-1="ent0008" data-entity-2="ent0002" data-link-type="dependency" data-source-line="37" id="lnk28"><path d="M273.0058,232.2347 C331.2358,248.4947 419,273 419,273 C419,273 635,394 635,394 C635,394 735.9596,506.4696 775.0796,550.0396" fill="none" id="LOOP-LLM" style="stroke:#64748B;stroke-width:1.1;"/><polygon fill="#64748B" points="268.19,230.89,275.7826,237.1632,273.0058,232.2347,277.9342,229.4579,268.19,230.89" style="stroke:#64748B;stroke-width:1.1;stroke-linejoin:miter;stroke-miterlimit:10;"/><polygon fill="#64748B" points="778.42,553.76,775.3836,544.3909,775.0796,550.0396,769.4309,549.7356,778.42,553.76" style="stroke:#64748B;stroke-width:1.1;stroke-linejoin:miter;stroke-miterlimit:10;"/></g><!--link MEM to FS--><g class="link" data-entity-1="ent0012" data-entity-2="ent0003" data-link-type="dependency" data-source-line="38" id="lnk29"><path d="M168.2577,474.4745 C188.4877,479.5845 202,483 202,483 C202,483 352,513 352,513 C352,513 424.4031,536.45 476.5431,553.33" fill="none" id="MEM-FS" style="stroke:#64748B;stroke-width:1.1;"/><polygon fill="#64748B" points="163.41,473.25,171.1563,479.3323,168.2577,474.4745,173.1155,471.5759,163.41,473.25" style="stroke:#64748B;stroke-width:1.1;stroke-linejoin:miter;stroke-miterlimit:10;"/><polygon fill="#64748B" points="481.3,554.87,473.9696,548.2924,476.5431,553.33,471.5055,555.9035,481.3,554.87" style="stroke:#64748B;stroke-width:1.1;stroke-linejoin:miter;stroke-miterlimit:10;"/></g><!--link SKILLS to FS--><g class="link" data-entity-1="ent0015" data-entity-2="ent0003" data-link-type="dependency" data-source-line="39" id="lnk30"><path d="M325.044,482.7935 C374.184,503.9035 440.0564,532.2055 485.1664,551.5955" fill="none" id="SKILLS-FS" style="stroke:#64748B;stroke-width:1.1;"/><polygon fill="#64748B" points="320.45,480.82,327.1404,488.0476,325.044,482.7935,330.2981,480.6972,320.45,480.82" style="stroke:#64748B;stroke-width:1.1;stroke-linejoin:miter;stroke-miterlimit:10;"/><polygon fill="#64748B" points="489.76,553.57,483.0711,546.341,485.1664,551.5955,479.9119,553.6908,489.76,553.57" style="stroke:#64748B;stroke-width:1.1;stroke-linejoin:miter;stroke-miterlimit:10;"/></g><!--link SUB to LLM--><g class="link" data-entity-1="ent0018" data-entity-2="ent0002" data-link-type="dependency" data-source-line="40" id="lnk31"><path d="M405.6543,358.7838 C464.3343,374.7638 535,394 535,394 C535,394 720,513 720,513 C720,513 746.3887,533.6033 767.9487,550.4333" fill="none" id="SUB-LLM" style="stroke:#64748B;stroke-width:1.1;"/><polygon fill="#64748B" points="400.83,357.47,408.4627,363.6943,405.6543,358.7838,410.5648,355.9754,400.83,357.47" style="stroke:#64748B;stroke-width:1.1;stroke-linejoin:miter;stroke-miterlimit:10;"/><polygon fill="#64748B" points="771.89,553.51,767.2569,544.8189,767.9487,550.4333,762.3343,551.1251,771.89,553.51" style="stroke:#64748B;stroke-width:1.1;stroke-linejoin:miter;stroke-miterlimit:10;"/></g><!--link SUB to FS--><g class="link" data-entity-1="ent0018" data-entity-2="ent0003" data-link-type="dependency" data-source-line="41" id="lnk32"><path d="M355.9954,366.2406 C395.5054,413.0406 476.8645,509.4295 510.9145,549.7595" fill="none" id="SUB-FS" style="stroke:#64748B;stroke-width:1.1;"/><polygon fill="#64748B" points="352.77,362.42,355.5193,371.8773,355.9954,366.2406,361.6322,366.7167,352.77,362.42" style="stroke:#64748B;stroke-width:1.1;stroke-linejoin:miter;stroke-miterlimit:10;"/><polygon fill="#64748B" points="514.14,553.58,511.3904,544.1228,510.9145,549.7595,505.2777,549.2836,514.14,553.58" style="stroke:#64748B;stroke-width:1.1;stroke-linejoin:miter;stroke-miterlimit:10;"/></g><!--link SUB to WEB--><g class="link" data-entity-1="ent0018" data-entity-2="ent0004" data-link-type="dependency" data-source-line="42" id="lnk33"><path d="M387.0479,364.6222 C418.5779,379.5722 449,394 449,394 C449,394 596,513 596,513 C596,513 618.0788,533.2964 636.3888,550.1264" fill="none" id="SUB-WEB" style="stroke:#64748B;stroke-width:1.1;"/><polygon fill="#64748B" points="382.53,362.48,388.9484,369.9502,387.0479,364.6222,392.3759,362.7216,382.53,362.48" style="stroke:#64748B;stroke-width:1.1;stroke-linejoin:miter;stroke-miterlimit:10;"/><polygon fill="#64748B" points="640.07,553.51,636.1508,544.4745,636.3888,550.1264,630.737,550.3644,640.07,553.51" style="stroke:#64748B;stroke-width:1.1;stroke-linejoin:miter;stroke-miterlimit:10;"/></g><!--link CTX to LLM--><g class="link" data-entity-1="ent0010" data-entity-2="ent0002" data-link-type="dependency" data-source-line="43" id="lnk34"><path d="M179.2,360.3 C212,372.74 247,386 247,386 C247,386 352,394 352,394 C352,394 525,483 525,483 C525,483 720,513 720,513 C720,513 746.3887,533.6033 767.9487,550.4333" fill="none" id="CTX-to-LLM" style="stroke:#64748B;stroke-width:1.1;"/><polygon fill="#64748B" points="771.89,553.51,767.2569,544.8189,767.9487,550.4333,762.3343,551.1251,771.89,553.51" style="stroke:#64748B;stroke-width:1.1;stroke-linejoin:miter;stroke-miterlimit:10;"/></g><?plantuml-src RLFRRgCm47tdAxnvJ_O7gafDH5Iqf8cMLDsLAY43qzQgiP5jLa5L_xtZ2s2wUO6PCsTcpjZZ7qpKl6-0T4g-WDPC2ihNvWrQsB2-vOcH7J6ILD8OsPA6AQWDafAErk_q5SWglHXGc4IAGHjezOfGJIRm8x49LBnofERvWPoK_CSQK8w6G1pVC_pwCYwyB-Be4rJaxfJv1a_fDlcSHGWg94hyYOumZd1dhPrKW18csb7LRw2DedO4ajCXw9XngPQIov89PifoqmtFuY2R7i7xld9PsKDsZhbSoixnN6-Ie-kdF1vFiTYT50Ok9keV40Si-zS-uie6rhPdV3p0tVbFNFa4IZCyFb53L3r2htHeePLgyFCviy1309TuI1VNW-xnzzzDspoB-wmuUtiabliiJul5cBIZ5UFC3F6a4tX5Ydvdd6idfN1cBkauQV4ho_F5FZW45H2xDdec_QyalK3TVxlo2Rkcew_S8dabmJbGWVyWvj5ktsTYDu2irxV-Yks7t5ZNNilisMESlJ280voFjP1FHkPe1nv2KvKmcOz4rG8-zx3lQahSBpEi-xYTUPCJ1-pp6eKWwGi0?></g></svg>