<svg xmlns="http://www.w3.org/2000/svg" xmlns:xlink="http://www.w3.org/1999/xlink" contentStyleType="text/css" data-diagram-type="DESCRIPTION" height="653px" preserveAspectRatio="none" style="width:1661px;height:653px;" version="1.1" viewBox="0 0 1661 653" width="1661px" zoomAndPan="magnify"><?plantuml 1.2026.5?><defs><style><![CDATA[
@media (prefers-color-scheme: dark) {
  text { fill: #e5e7eb !important; }
  path, line, rect, circle, ellipse, polygon, polyline { stroke: #cbd5e1 !important; }
  .entity rect, .participant rect, .participant path, .sequenceLine rect, .class rect, .component rect, .component path, .note rect { fill: #111827 !important; }
  .cluster path { fill: none !important; }
  polygon { fill: #cbd5e1 !important; }
}
]]></style></defs><g><!--cluster External_Sources--><g class="cluster" data-qualified-name="External_Sources" data-source-line="13" id="ent0001"><path d="M1190.5,6 L1311.0811,6 A3.75,3.75 0 0 1 1313.5811,8.5 L1320.5811,28.4883 L1643.5,28.4883 A2.5,2.5 0 0 1 1646,30.9883 L1646,90.98 A2.5,2.5 0 0 1 1643.5,93.48 L1190.5,93.48 A2.5,2.5 0 0 1 1188,90.98 L1188,8.5 A2.5,2.5 0 0 1 1190.5,6" fill="none" style="stroke:#64748B;stroke-width:1.5;"/><line style="stroke:#64748B;stroke-width:1.5;" x1="1188" x2="1320.5811" y1="28.4883" y2="28.4883"/><text fill="#000000" font-family="sans-serif" font-size="14" font-weight="700" lengthAdjust="spacing" textLength="119.5811" x="1192" y="21.5352">External Sources</text></g><!--cluster summarize_Component--><g class="cluster" data-qualified-name="summarize_Component" data-source-line="18" id="ent0005"><path d="M49.5,6 L217.9736,6 A3.75,3.75 0 0 1 220.4736,8.5 L227.4736,28.4883 L1161.5,28.4883 A2.5,2.5 0 0 1 1164,30.9883 L1164,524.18 A2.5,2.5 0 0 1 1161.5,526.68 L49.5,526.68 A2.5,2.5 0 0 1 47,524.18 L47,8.5 A2.5,2.5 0 0 1 49.5,6" fill="none" style="stroke:#64748B;stroke-width:1.5;"/><line style="stroke:#64748B;stroke-width:1.5;" x1="47" x2="227.4736" y1="28.4883" y2="28.4883"/><text fill="#000000" font-family="sans-serif" font-size="14" font-weight="700" lengthAdjust="spacing" textLength="167.4736" x="51" y="21.5352">summarize Component</text></g><!--cluster Ingestion_Layer--><g class="cluster" data-qualified-name="summarize_Component.Ingestion_Layer" data-source-line="20" id="ent0007"><path d="M540.5,117.48 L652.7686,117.48 A3.75,3.75 0 0 1 655.2686,119.98 L662.2686,139.9683 L1137.5,139.9683 A2.5,2.5 0 0 1 1140,142.4683 L1140,202.47 A2.5,2.5 0 0 1 1137.5,204.97 L540.5,204.97 A2.5,2.5 0 0 1 538,202.47 L538,119.98 A2.5,2.5 0 0 1 540.5,117.48" fill="none" style="stroke:#64748B;stroke-width:1.5;"/><line style="stroke:#64748B;stroke-width:1.5;" x1="538" x2="662.2686" y1="139.9683" y2="139.9683"/><text fill="#000000" font-family="sans-serif" font-size="14" font-weight="700" lengthAdjust="spacing" textLength="111.2686" x="542" y="133.0152">Ingestion Layer</text></g><!--cluster AI_Provider_Gateway--><g class="cluster" data-qualified-name="summarize_Component.AI_Provider_Gateway" data-source-line="26" id="ent0012"><path d="M88.5,318.71 L235.29,318.71 A3.75,3.75 0 0 1 237.79,321.21 L244.79,341.1983 L642.5,341.1983 A2.5,2.5 0 0 1 645,343.6983 L645,500.18 A2.5,2.5 0 0 1 642.5,502.68 L88.5,502.68 A2.5,2.5 0 0 1 86,500.18 L86,321.21 A2.5,2.5 0 0 1 88.5,318.71" fill="none" style="stroke:#64748B;stroke-width:1.5;"/><line style="stroke:#64748B;stroke-width:1.5;" x1="86" x2="244.79" y1="341.1983" y2="341.1983"/><text fill="#000000" font-family="sans-serif" font-size="14" font-weight="700" lengthAdjust="spacing" textLength="145.79" x="90" y="334.2452">AI Provider Gateway</text></g><!--cluster Outputs--><g class="cluster" data-qualified-name="Outputs" data-source-line="36" id="ent0020"><path d="M8.5,550.68 L67.9541,550.68 A3.75,3.75 0 0 1 70.4541,553.18 L77.4541,573.1683 L566.5,573.1683 A2.5,2.5 0 0 1 569,575.6683 L569,635.67 A2.5,2.5 0 0 1 566.5,638.17 L8.5,638.17 A2.5,2.5 0 0 1 6,635.67 L6,553.18 A2.5,2.5 0 0 1 8.5,550.68" fill="none" style="stroke:#64748B;stroke-width:1.5;"/><line style="stroke:#64748B;stroke-width:1.5;" x1="6" x2="77.4541" y1="573.1683" y2="573.1683"/><text fill="#000000" font-family="sans-serif" font-size="14" font-weight="700" lengthAdjust="spacing" textLength="58.4541" x="10" y="566.2152">Outputs</text></g><!--entity WEB--><g class="entity" data-qualified-name="External_Sources.WEB" data-source-line="14" id="ent0002"><rect fill="#F8FAFC" height="36.4883" rx="2.5" ry="2.5" style="stroke:#4B5563;stroke-width:0.5;" width="86.1719" x="1203.91" y="41"/><text fill="#111827" font-family="sans-serif" font-size="14" lengthAdjust="spacing" textLength="66.1719" x="1213.91" y="64.5352">Web URLs</text></g><!--entity FS--><g class="entity" data-qualified-name="External_Sources.FS" data-source-line="15" id="ent0003"><rect fill="#F8FAFC" height="36.4883" rx="2.5" ry="2.5" style="stroke:#4B5563;stroke-width:0.5;" width="139.0479" x="1325.48" y="41"/><text fill="#111827" font-family="sans-serif" font-size="14" lengthAdjust="spacing" textLength="119.0479" x="1335.48" y="64.5352">Local Files / PDFs</text></g><!--entity YT--><g class="entity" data-qualified-name="External_Sources.YT" data-source-line="16" id="ent0004"><rect fill="#F8FAFC" height="36.4883" rx="2.5" ry="2.5" style="stroke:#4B5563;stroke-width:0.5;" width="130.1406" x="1499.93" y="41"/><text fill="#111827" font-family="sans-serif" font-size="14" lengthAdjust="spacing" textLength="110.1406" x="1509.93" y="64.5352">YouTube Videos</text></g><!--entity CLI--><g class="entity" data-qualified-name="summarize_Component.CLI" data-source-line="19" id="ent0006"><rect fill="#F8FAFC" height="36.4883" rx="2.5" ry="2.5" style="stroke:#4B5563;stroke-width:0.5;" width="194.4463" x="324.78" y="152.48"/><text fill="#111827" font-family="sans-serif" font-size="14" lengthAdjust="spacing" textLength="174.4463" x="334.78" y="176.0152">CLI Interface / Entry Point</text></g><!--entity TEXT_NORMALIZER--><g class="entity" data-qualified-name="summarize_Component.TEXT_NORMALIZER" data-source-line="25" id="ent0011"><rect fill="#F8FAFC" height="36.4883" rx="2.5" ry="2.5" style="stroke:#4B5563;stroke-width:0.5;" width="130.0244" x="670.99" y="257.22"/><text fill="#111827" font-family="sans-serif" font-size="14" lengthAdjust="spacing" textLength="110.0244" x="680.99" y="280.7552">Text Normalizer</text></g><!--entity CONFIG--><g class="entity" data-qualified-name="summarize_Component.CONFIG" data-source-line="33" id="ent0018"><rect fill="#F8FAFC" height="36.4883" rx="2.5" ry="2.5" style="stroke:#4B5563;stroke-width:0.5;" width="176.5156" x="106.74" y="41"/><text fill="#111827" font-family="sans-serif" font-size="14" lengthAdjust="spacing" textLength="156.5156" x="116.74" y="64.5352">Configuration Manager</text></g><!--entity DB--><g class="entity" data-qualified-name="summarize_Component.DB" data-source-line="34" id="ent0019"><rect fill="#F8FAFC" height="52.9766" rx="2.5" ry="2.5" style="stroke:#4B5563;stroke-width:0.5;" width="189.9072" x="100.05" y="144.24"/><text fill="#111827" font-family="sans-serif" font-size="14" lengthAdjust="spacing" textLength="84.2324" x="152.8874" y="167.7752">Config Store</text><text fill="#111827" font-family="sans-serif" font-size="14" lengthAdjust="spacing" textLength="169.9072" x="110.05" y="184.2634">/.summarize/config.json</text></g><!--entity WEB_HANDLER--><g class="entity" data-qualified-name="summarize_Component.Ingestion_Layer.WEB_HANDLER" data-source-line="21" id="ent0008"><rect fill="#F8FAFC" height="36.4883" rx="2.5" ry="2.5" style="stroke:#4B5563;stroke-width:0.5;" width="190.0029" x="554" y="152.48"/><text fill="#111827" font-family="sans-serif" font-size="14" lengthAdjust="spacing" textLength="170.0029" x="564" y="176.0152">HTTP / Firecrawl Handler</text></g><!--entity FILE_PARSER--><g class="entity" data-qualified-name="summarize_Component.Ingestion_Layer.FILE_PARSER" data-source-line="22" id="ent0009"><rect fill="#F8FAFC" height="36.4883" rx="2.5" ry="2.5" style="stroke:#4B5563;stroke-width:0.5;" width="89.6924" x="779.15" y="152.48"/><text fill="#111827" font-family="sans-serif" font-size="14" lengthAdjust="spacing" textLength="69.6924" x="789.15" y="176.0152">File Parser</text></g><!--entity YT_EXTRACT--><g class="entity" data-qualified-name="summarize_Component.Ingestion_Layer.YT_EXTRACT" data-source-line="23" id="ent0010"><rect fill="#F8FAFC" height="36.4883" rx="2.5" ry="2.5" style="stroke:#4B5563;stroke-width:0.5;" width="219.7598" x="904.12" y="152.48"/><text fill="#111827" font-family="sans-serif" font-size="14" lengthAdjust="spacing" textLength="199.7598" x="914.12" y="176.0152">YouTube Transcript Extractor</text></g><!--entity PROV_ROUTER--><g class="entity" data-qualified-name="summarize_Component.AI_Provider_Gateway.PROV_ROUTER" data-source-line="27" id="ent0013"><rect fill="#F8FAFC" height="36.4883" rx="2.5" ry="2.5" style="stroke:#4B5563;stroke-width:0.5;" width="125.0342" x="288.48" y="353.71"/><text fill="#111827" font-family="sans-serif" font-size="14" lengthAdjust="spacing" textLength="105.0342" x="298.48" y="377.2452">Provider Router</text></g><!--entity OPENAI--><g class="entity" data-qualified-name="summarize_Component.AI_Provider_Gateway.OPENAI" data-source-line="28" id="ent0014"><rect fill="#F8FAFC" height="36.4883" rx="2.5" ry="2.5" style="stroke:#4B5563;stroke-width:0.5;" width="95.7285" x="102.14" y="450.19"/><text fill="#111827" font-family="sans-serif" font-size="14" lengthAdjust="spacing" textLength="75.7285" x="112.14" y="473.7252">OpenAI API</text></g><!--entity ANTHROPIC--><g class="entity" data-qualified-name="summarize_Component.AI_Provider_Gateway.ANTHROPIC" data-source-line="29" id="ent0015"><rect fill="#F8FAFC" height="36.4883" rx="2.5" ry="2.5" style="stroke:#4B5563;stroke-width:0.5;" width="112.4902" x="232.75" y="450.19"/><text fill="#111827" font-family="sans-serif" font-size="14" lengthAdjust="spacing" textLength="92.4902" x="242.75" y="473.7252">Anthropic API</text></g><!--entity XAI--><g class="entity" data-qualified-name="summarize_Component.AI_Provider_Gateway.XAI" data-source-line="30" id="ent0016"><rect fill="#F8FAFC" height="36.4883" rx="2.5" ry="2.5" style="stroke:#4B5563;stroke-width:0.5;" width="68.1387" x="379.93" y="450.19"/><text fill="#111827" font-family="sans-serif" font-size="14" lengthAdjust="spacing" textLength="48.1387" x="389.93" y="473.7252">xAI API</text></g><!--entity GEMINI--><g class="entity" data-qualified-name="summarize_Component.AI_Provider_Gateway.GEMINI" data-source-line="31" id="ent0017"><rect fill="#F8FAFC" height="36.4883" rx="2.5" ry="2.5" style="stroke:#4B5563;stroke-width:0.5;" width="145.9521" x="483.02" y="450.19"/><text fill="#111827" font-family="sans-serif" font-size="14" lengthAdjust="spacing" textLength="125.9521" x="493.02" y="473.7252">Google Gemini API</text></g><!--entity HUMAN_OUT--><g class="entity" data-qualified-name="Outputs.HUMAN_OUT" data-source-line="37" id="ent0021"><rect fill="#F8FAFC" height="36.4883" rx="2.5" ry="2.5" style="stroke:#4B5563;stroke-width:0.5;" width="205.7256" x="22.14" y="585.68"/><text fill="#111827" font-family="sans-serif" font-size="14" lengthAdjust="spacing" textLength="185.7256" x="32.14" y="609.2152">Human-Readable Summary</text></g><!--entity JSON_OUT--><g class="entity" data-qualified-name="Outputs.JSON_OUT" data-source-line="38" id="ent0022"><rect fill="#F8FAFC" height="36.4883" rx="2.5" ry="2.5" style="stroke:#4B5563;stroke-width:0.5;" width="105.0801" x="262.46" y="585.68"/><text fill="#111827" font-family="sans-serif" font-size="14" lengthAdjust="spacing" textLength="85.0801" x="272.46" y="609.2152">JSON Output</text></g><!--entity RAW_TEXT--><g class="entity" data-qualified-name="Outputs.RAW_TEXT" data-source-line="39" id="ent0023"><rect fill="#F8FAFC" height="36.4883" rx="2.5" ry="2.5" style="stroke:#4B5563;stroke-width:0.5;" width="150.5938" x="402.7" y="585.68"/><text fill="#111827" font-family="sans-serif" font-size="14" lengthAdjust="spacing" textLength="130.5938" x="412.7" y="609.2152">Raw Extracted Text</text></g><!--entity Extract--><g class="entity" data-qualified-name="Extract" data-source-line="58" id="ent0041"><rect fill="#F8FAFC" height="36.4883" rx="2.5" ry="2.5" style="stroke:#4B5563;stroke-width:0.5;" width="67.2773" x="1180.36" y="353.71"/><text fill="#111827" font-family="sans-serif" font-size="14" lengthAdjust="spacing" textLength="47.2773" x="1190.36" y="377.2452">Extract</text></g><!--link WEB to WEB_HANDLER--><g class="link" data-entity-1="ent0002" data-entity-2="ent0008" data-link-type="dependency" data-source-line="41" id="lnk24"><path d="M1219.39,77.82 C1203.78,86.75 1183.53,96.69 1164,101.48 C1077.22,122.77 848.47,86.96 762,109.48 C729.3,118 699.759,134.8796 677.769,149.4396" fill="none" id="WEB-to-WEB_HANDLER" style="stroke:#4B5563;stroke-width:1;"/><polygon fill="#4B5563" points="673.6,152.2,683.3125,150.5665,677.769,149.4396,678.8959,143.8962,673.6,152.2" style="stroke:#4B5563;stroke-width:1;stroke-linejoin:miter;stroke-miterlimit:10;"/></g><!--link FS to FILE_PARSER--><g class="link" data-entity-1="ent0003" data-entity-2="ent0009" data-link-type="dependency" data-source-line="42" id="lnk25"><path d="M1365.95,77.83 C1349.56,86.76 1328.34,96.7 1308,101.48 C1262.45,112.19 930.25,91.65 887,109.48 C865.87,118.19 850.8331,133.6537 839.5231,148.0937" fill="none" id="FS-to-FILE_PARSER" style="stroke:#4B5563;stroke-width:1;"/><polygon fill="#4B5563" points="836.44,152.03,845.1386,147.4111,839.5231,148.0937,838.8405,142.4782,836.44,152.03" style="stroke:#4B5563;stroke-width:1;stroke-linejoin:miter;stroke-miterlimit:10;"/></g><!--link YT to YT_EXTRACT--><g class="link" data-entity-1="ent0004" data-entity-2="ent0010" data-link-type="dependency" data-source-line="43" id="lnk26"><path d="M1535.22,77.92 C1519.82,86.3 1500.43,95.72 1482,101.48 C1362.88,138.72 1225.214,155.3997 1128.964,163.1297" fill="none" id="YT-to-YT_EXTRACT" style="stroke:#4B5563;stroke-width:1;"/><polygon fill="#4B5563" points="1123.98,163.53,1133.2713,166.7967,1128.964,163.1297,1132.6309,158.8224,1123.98,163.53" style="stroke:#4B5563;stroke-width:1;stroke-linejoin:miter;stroke-miterlimit:10;"/></g><!--link WEB_HANDLER to TEXT_NORMALIZER--><g class="link" data-entity-1="ent0008" data-entity-2="ent0011" data-link-type="dependency" data-source-line="44" id="lnk27"><path d="M663.76,189.16 C679.76,208.05 701.9088,234.2043 717.9388,253.1343" fill="none" id="WEB_HANDLER-to-TEXT_NORMALIZER" style="stroke:#4B5563;stroke-width:1;"/><polygon fill="#4B5563" points="721.17,256.95,718.4065,247.4968,717.9388,253.1343,712.3014,252.6667,721.17,256.95" style="stroke:#4B5563;stroke-width:1;stroke-linejoin:miter;stroke-miterlimit:10;"/></g><!--link FILE_PARSER to TEXT_NORMALIZER--><g class="link" data-entity-1="ent0009" data-entity-2="ent0011" data-link-type="dependency" data-source-line="45" id="lnk28"><path d="M809.07,189.16 C792.89,208.05 770.4621,234.2222 754.2521,253.1522" fill="none" id="FILE_PARSER-to-TEXT_NORMALIZER" style="stroke:#4B5563;stroke-width:1;"/><polygon fill="#4B5563" points="751,256.95,759.8921,252.7156,754.2521,253.1522,753.8156,247.5122,751,256.95" style="stroke:#4B5563;stroke-width:1;stroke-linejoin:miter;stroke-miterlimit:10;"/></g><!--link YT_EXTRACT to TEXT_NORMALIZER--><g class="link" data-entity-1="ent0010" data-entity-2="ent0011" data-link-type="dependency" data-source-line="46" id="lnk29"><path d="M966.21,189.39 C915.14,208.26 839.33,236.2769 788.32,255.1269" fill="none" id="YT_EXTRACT-to-TEXT_NORMALIZER" style="stroke:#4B5563;stroke-width:1;"/><polygon fill="#4B5563" points="783.63,256.86,793.4585,257.4924,788.32,255.1269,790.6855,249.9884,783.63,256.86" style="stroke:#4B5563;stroke-width:1;stroke-linejoin:miter;stroke-miterlimit:10;"/></g><!--link CLI to TEXT_NORMALIZER--><g class="link" data-entity-1="ent0006" data-entity-2="ent0011" data-link-type="dependency" data-source-line="47" id="lnk30"><path d="M470.39,189.43 C491.14,196.89 515.69,205.55 538,212.97 C584.45,228.43 632.6352,243.3689 672.1052,255.3389" fill="none" id="CLI-to-TEXT_NORMALIZER" style="stroke:#4B5563;stroke-width:1;"/><polygon fill="#4B5563" points="676.89,256.79,669.4382,250.3502,672.1052,255.3389,667.1165,258.0059,676.89,256.79" style="stroke:#4B5563;stroke-width:1;stroke-linejoin:miter;stroke-miterlimit:10;"/></g><!--link TEXT_NORMALIZER to PROV_ROUTER--><g class="link" data-entity-1="ent0011" data-entity-2="ent0013" data-link-type="dependency" data-source-line="48" id="lnk31"><path d="M670.69,292.49 C598.93,310.1 489.3359,336.9982 418.6059,354.3582" fill="none" id="TEXT_NORMALIZER-to-PROV_ROUTER" style="stroke:#4B5563;stroke-width:1;"/><polygon fill="#4B5563" points="413.75,355.55,423.444,357.2894,418.6059,354.3582,421.5371,349.52,413.75,355.55" style="stroke:#4B5563;stroke-width:1;stroke-linejoin:miter;stroke-miterlimit:10;"/></g><!--link PROV_ROUTER to OPENAI--><g class="link" data-entity-1="ent0013" data-entity-2="ent0014" data-link-type="dependency" data-source-line="49" id="lnk32"><path d="M313.66,390.5 C277.68,407.42 228.0348,430.7526 192.0048,447.6926" fill="none" id="PROV_ROUTER-to-OPENAI" style="stroke:#4B5563;stroke-width:1;"/><polygon fill="#4B5563" points="187.48,449.82,197.3266,449.6105,192.0048,447.6926,193.9228,442.3708,187.48,449.82" style="stroke:#4B5563;stroke-width:1;stroke-linejoin:miter;stroke-miterlimit:10;"/></g><!--link PROV_ROUTER to ANTHROPIC--><g class="link" data-entity-1="ent0013" data-entity-2="ent0015" data-link-type="dependency" data-source-line="50" id="lnk33"><path d="M339.63,390.28 C328.51,407.22 314.4117,428.6987 303.2517,445.7187" fill="none" id="PROV_ROUTER-to-ANTHROPIC" style="stroke:#4B5563;stroke-width:1;"/><polygon fill="#4B5563" points="300.51,449.9,308.79,444.567,303.2517,445.7187,302.1,440.1803,300.51,449.9" style="stroke:#4B5563;stroke-width:1;stroke-linejoin:miter;stroke-miterlimit:10;"/></g><!--link PROV_ROUTER to XAI--><g class="link" data-entity-1="ent0013" data-entity-2="ent0016" data-link-type="dependency" data-source-line="51" id="lnk34"><path d="M362.56,390.28 C373.85,407.22 388.1876,428.719 399.5276,445.739" fill="none" id="PROV_ROUTER-to-XAI" style="stroke:#4B5563;stroke-width:1;"/><polygon fill="#4B5563" points="402.3,449.9,400.6385,440.1923,399.5276,445.739,393.9809,444.6281,402.3,449.9" style="stroke:#4B5563;stroke-width:1;stroke-linejoin:miter;stroke-miterlimit:10;"/></g><!--link PROV_ROUTER to GEMINI--><g class="link" data-entity-1="ent0013" data-entity-2="ent0017" data-link-type="dependency" data-source-line="52" id="lnk35"><path d="M389.08,390.5 C425.78,407.42 476.479,430.7874 513.239,447.7274" fill="none" id="PROV_ROUTER-to-GEMINI" style="stroke:#4B5563;stroke-width:1;"/><polygon fill="#4B5563" points="517.78,449.82,511.2803,442.4205,513.239,447.7274,507.9321,449.6861,517.78,449.82" style="stroke:#4B5563;stroke-width:1;stroke-linejoin:miter;stroke-miterlimit:10;"/></g><!--link CONFIG to DB--><g class="link" data-entity-1="ent0018" data-entity-2="ent0019" data-link-type="dependency" data-source-line="53" id="lnk36"><path d="M195,77.83 C195,95.72 195,118.64 195,139.02" fill="none" id="CONFIG-to-DB" style="stroke:#4B5563;stroke-width:1;"/><polygon fill="#4B5563" points="195,144.02,199,135.02,195,139.02,191,135.02,195,144.02" style="stroke:#4B5563;stroke-width:1;stroke-linejoin:miter;stroke-miterlimit:10;"/></g><!--link CONFIG to PROV_ROUTER--><g class="link" data-entity-1="ent0018" data-entity-2="ent0013" data-link-type="dependency" data-source-line="54" id="lnk37"><path d="M122.15,77.89 C106.71,85.11 92.29,95.25 83,109.48 C57.86,148 60.18,173.04 83,212.97 C126.74,289.53 218.9304,331.1274 283.4304,352.3474" fill="none" id="CONFIG-to-PROV_ROUTER" style="stroke:#4B5563;stroke-width:1;stroke-dasharray:7,7;"/><polygon fill="#4B5563" points="288.18,353.91,280.8808,347.2977,283.4304,352.3474,278.3807,354.897,288.18,353.91" style="stroke:#4B5563;stroke-width:1;stroke-linejoin:miter;stroke-miterlimit:10;"/></g><!--link CONFIG to CLI--><g class="link" data-entity-1="ent0018" data-entity-2="ent0006" data-link-type="dependency" data-source-line="55" id="lnk38"><path d="M237.06,77.93 C258.2,87.02 284.13,98.48 307,109.48 C335.23,123.07 362.3089,137.2872 385.1789,149.6172" fill="none" id="CONFIG-to-CLI" style="stroke:#4B5563;stroke-width:1;stroke-dasharray:7,7;"/><polygon fill="#4B5563" points="389.58,151.99,383.5562,144.1981,385.1789,149.6172,379.7598,151.2399,389.58,151.99" style="stroke:#4B5563;stroke-width:1;stroke-linejoin:miter;stroke-miterlimit:10;"/></g><!--link OPENAI to HUMAN_OUT--><g class="link" data-entity-1="ent0014" data-entity-2="ent0021" data-link-type="dependency" data-source-line="56" id="lnk39"><path d="M146.68,487.16 C141.87,512.84 133.9523,555.1658 129.1723,580.6358" fill="none" id="OPENAI-to-HUMAN_OUT" style="stroke:#4B5563;stroke-width:1;"/><polygon fill="#4B5563" points="128.25,585.55,133.8414,577.4422,129.1723,580.6358,125.9787,575.9666,128.25,585.55" style="stroke:#4B5563;stroke-width:1;stroke-linejoin:miter;stroke-miterlimit:10;"/></g><!--link ANTHROPIC to JSON_OUT--><g class="link" data-entity-1="ent0015" data-entity-2="ent0022" data-link-type="dependency" data-source-line="57" id="lnk40"><path d="M292.45,487.16 C297.45,512.84 305.6924,555.1726 310.6624,580.6426" fill="none" id="ANTHROPIC-to-JSON_OUT" style="stroke:#4B5563;stroke-width:1;"/><polygon fill="#4B5563" points="311.62,585.55,313.8223,575.9505,310.6624,580.6426,305.9704,577.4827,311.62,585.55" style="stroke:#4B5563;stroke-width:1;stroke-linejoin:miter;stroke-miterlimit:10;"/></g><!--link TEXT_NORMALIZER to Extract--><g class="link" data-entity-1="ent0011" data-entity-2="ent0041" data-link-type="association" data-source-line="59" id="lnk42"><path d="M801.46,289.4 C904.5,309.77 1100.92,348.6 1179.88,364.2" fill="none" id="TEXT_NORMALIZER-Extract" style="stroke:#4B5563;stroke-width:1;"/></g><?plantuml-src ZLHTRvim57tFhxXgdvkgMzlrQH9D8M4YW0ZzcYOX0uQoWesCMTfDss-VRHnYiZpi9S7ddllXSmzqhnLf4KCDf2XxBHdjIRwWDMN06IAT2672Pzt8wbvGJhSLAQ50TOUDI8uBrDSync_SggkID28HCl63cS6o6AFReS7fPNfrTVtH28PY15JYMyfop3Jf-lBJvKrwXFHVupASSKJA6iEl6S2aiEuEu532DNPnSN7puPDa7bG_BMuAL6IptpDEM-0KKiev5PUkP8UAabaxZ0KdzfkuCK4rR6ZFCjoT0EfW1oOQ5EFiHpjvn2dSHzv0VRHlpPX7Cr7BgMgHT0xXdJEmd8r9UgPztASO7geSqu7m78jXnw6wlcaGgtvYMD2cfKIef5WZdepuTBI5vu8hTrYW38i1RCBPEuIqqWL4VD_59INkf1hWeNVC56744eLDgw_YE1H57QaYGziQLeZajSuKGYGhox_pxCZCaL884x1EqnpNivFGYZPJsawIMFeYOrNBvH8OoZXbMg34VeeZQo65CXAbWS6dh46rq6NWneAP-46qjZptg-WptjXo8MJqXv2TmH9nl4NlAi5oansUQ7nwyp4heZtNNS8eU4YYu3wUtYHeCH5zhD1Lh22qVSir2HRXBuosLJPoB3zUHK7eBapQcr7aQLfXIQdyN-Ac8jL8MjfhrtUdwYmeAQgoPqYjUOs8a66OVX7uZhlybmiReJZ-HlwSpqUtdMSgDF_UKQAIxsvDjmOzRti--5W_7_YcRn0vYp3AKIhE6rLtK7vrlxRyH8Xeyhzi0bzNKYHvFkH4QBjp2Cv1ka1H8-inaUiNymb3mjdPvuandOs2J1C-nmeo_6KagD2XdOpie_5zgQDX-OuUmm_EYcDwp7XMCUsiGtXlfiF8qn6sDitW1eM8tUhJV3uTm83bTsJehtBsMnoxA_pOulJITjzP-NpawhlGNm00?></g></svg>