<svg xmlns="http://www.w3.org/2000/svg" xmlns:xlink="http://www.w3.org/1999/xlink" contentStyleType="text/css" data-diagram-type="SEQUENCE" height="579px" preserveAspectRatio="none" style="width:623px;height:579px;background:#FFFFFF;" version="1.1" viewBox="0 0 623 579" width="623px" zoomAndPan="magnify"><?plantuml 1.2026.5?><defs/><rect data-xfeat-white-canvas="true" fill="#FFFFFF" height="100%" width="100%" x="0" y="0"/><g><rect fill="#F8FAFC" height="260" rx="4" ry="4" style="stroke:#CBD5E1;stroke-width:1.5;" width="416.3643" x="191.2563" y="103"/><path d="M191.2563,145 L607.6206,145 L607.6206,359 A4,4 0 0 1 603.6206,363 L195.2563,363 A4,4 0 0 1 191.2563,359 L191.2563,145" fill="#F8FAFC" style="stroke:none;stroke-width:1;"/><rect fill="#F8FAFC" height="136" rx="4" ry="4" style="stroke:#CBD5E1;stroke-width:1.5;" width="396.3643" x="201.2563" y="194"/><path d="M201.2563,275 L597.6206,275 L597.6206,326 A4,4 0 0 1 593.6206,330 L205.2563,330 A4,4 0 0 1 201.2563,326 L201.2563,275" fill="#F8FAFC" style="stroke:none;stroke-width:1;"/><g class="participant-lifeline" data-entity-uid="part1" data-qualified-name="Client" data-source-line="2" id="part1-lifeline"><g><title>nanobot.core</title><rect fill="#000000" fill-opacity="0.00000" height="510" width="8" x="48.8652" y="34"/><line style="stroke:#94A3B8;stroke-width:0.5;stroke-dasharray:5,5;" x1="52" x2="52" y1="34" y2="544"/></g></g><g class="participant-lifeline" data-entity-uid="part2" data-qualified-name="SM" data-source-line="3" id="part2-lifeline"><g><title>SessionManager</title><rect fill="#000000" fill-opacity="0.00000" height="510" width="8" x="266.7871" y="34"/><line style="stroke:#94A3B8;stroke-width:0.5;stroke-dasharray:5,5;" x1="270.2563" x2="270.2563" y1="34" y2="544"/></g></g><g class="participant-lifeline" data-entity-uid="part3" data-qualified-name="Cache" data-source-line="4" id="part3-lifeline"><g><title>In-Memory Cache</title><rect fill="#000000" fill-opacity="0.00000" height="510" width="8" x="398.9453" y="34"/><line style="stroke:#94A3B8;stroke-width:0.5;stroke-dasharray:5,5;" x1="402.3179" x2="402.3179" y1="34" y2="544"/></g></g><g class="participant-lifeline" data-entity-uid="part4" data-qualified-name="FS" data-source-line="5" id="part4-lifeline"><g><title>JSONL Storage</title><rect fill="#000000" fill-opacity="0.00000" height="510" width="8" x="527.5967" y="34"/><line style="stroke:#94A3B8;stroke-width:0.5;stroke-dasharray:5,5;" x1="531.5728" x2="531.5728" y1="34" y2="544"/></g></g><g class="participant participant-head" data-entity-uid="part1" data-qualified-name="Client" data-source-line="2" id="part1-head"><rect fill="#F8FAFC" height="28" rx="4" ry="4" style="stroke:#475569;stroke-width:0.5;" width="95.7305" x="5" y="5"/><text fill="#0F172A" font-family="Helvetica" font-size="14" lengthAdjust="spacing" textLength="81.7305" x="12" y="22.7803">nanobot/core</text></g><g class="participant participant-tail" data-entity-uid="part1" data-qualified-name="Client" data-source-line="2" id="part1-tail"><rect fill="#F8FAFC" height="28" rx="4" ry="4" style="stroke:#475569;stroke-width:0.5;" width="95.7305" x="5" y="543"/><text fill="#0F172A" font-family="Helvetica" font-size="14" lengthAdjust="spacing" textLength="81.7305" x="12" y="560.7803">nanobot/core</text></g><g class="participant participant-head" data-entity-uid="part2" data-qualified-name="SM" data-source-line="3" id="part2-head"><rect fill="#F8FAFC" height="28" rx="4" ry="4" style="stroke:#475569;stroke-width:0.5;" width="119.0615" x="211.2563" y="5"/><text fill="#0F172A" font-family="Helvetica" font-size="14" lengthAdjust="spacing" textLength="105.0615" x="218.2563" y="22.7803">SessionManager</text></g><g class="participant participant-tail" data-entity-uid="part2" data-qualified-name="SM" data-source-line="3" id="part2-tail"><rect fill="#F8FAFC" height="28" rx="4" ry="4" style="stroke:#475569;stroke-width:0.5;" width="119.0615" x="211.2563" y="543"/><text fill="#0F172A" font-family="Helvetica" font-size="14" lengthAdjust="spacing" textLength="105.0615" x="218.2563" y="560.7803">SessionManager</text></g><g class="participant participant-head" data-entity-uid="part3" data-qualified-name="Cache" data-source-line="4" id="part3-head"><rect fill="#F8FAFC" height="28" rx="4" ry="4" style="stroke:#475569;stroke-width:0.5;" width="125.2549" x="340.3179" y="5"/><text fill="#0F172A" font-family="Helvetica" font-size="14" lengthAdjust="spacing" textLength="111.2549" x="347.3179" y="22.7803">In-Memory Cache</text></g><g class="participant participant-tail" data-entity-uid="part3" data-qualified-name="Cache" data-source-line="4" id="part3-tail"><rect fill="#F8FAFC" height="28" rx="4" ry="4" style="stroke:#475569;stroke-width:0.5;" width="125.2549" x="340.3179" y="543"/><text fill="#0F172A" font-family="Helvetica" font-size="14" lengthAdjust="spacing" textLength="111.2549" x="347.3179" y="560.7803">In-Memory Cache</text></g><g class="participant participant-head" data-entity-uid="part4" data-qualified-name="FS" data-source-line="5" id="part4-head"><rect fill="#F8FAFC" height="28" rx="4" ry="4" style="stroke:#475569;stroke-width:0.5;" width="112.0479" x="475.5728" y="5"/><text fill="#0F172A" font-family="Helvetica" font-size="14" lengthAdjust="spacing" textLength="98.0479" x="482.5728" y="22.7803">JSONL Storage</text></g><g class="participant participant-tail" data-entity-uid="part4" data-qualified-name="FS" data-source-line="5" id="part4-tail"><rect fill="#F8FAFC" height="28" rx="4" ry="4" style="stroke:#475569;stroke-width:0.5;" width="112.0479" x="475.5728" y="543"/><text fill="#0F172A" font-family="Helvetica" font-size="14" lengthAdjust="spacing" textLength="98.0479" x="482.5728" y="560.7803">JSONL Storage</text></g><g class="message" data-entity-1="part1" data-entity-2="part2" data-source-line="6" id="msg1"><line style="stroke:#64748B;stroke-width:1.1;" x1="268.7871" x2="258.7871" y1="62" y2="58"/><line style="stroke:#64748B;stroke-width:1.1;" x1="268.7871" x2="258.7871" y1="62" y2="66"/><line style="stroke:#64748B;stroke-width:1.1;" x1="52.8652" x2="269.7871" y1="62" y2="62"/><text fill="#334155" font-family="Helvetica" font-size="12" lengthAdjust="spacing" textLength="170.6895" x="76.4814" y="57.2402">get_or_create('channel:chat_id')</text></g><g class="message" data-entity-1="part2" data-entity-2="part3" data-source-line="7" id="msg2"><line style="stroke:#64748B;stroke-width:1.1;" x1="400.9453" x2="390.9453" y1="88" y2="84"/><line style="stroke:#64748B;stroke-width:1.1;" x1="400.9453" x2="390.9453" y1="88" y2="92"/><line style="stroke:#64748B;stroke-width:1.1;" x1="270.7871" x2="401.9453" y1="88" y2="88"/><text fill="#334155" font-family="Helvetica" font-size="12" lengthAdjust="spacing" textLength="96.709" x="288.5117" y="83.2402">check_cache(key)</text></g><path d="M195.2563,103 L252.5942,103 L252.5942,109 L242.5942,119 L191.2563,119 L191.2563,107 A4,4 0 0 1 195.2563,103" fill="#F8FAFC" style="stroke:#CBD5E1;stroke-width:1.5;"/><rect fill="none" height="260" rx="4" ry="4" style="stroke:#CBD5E1;stroke-width:1.5;" width="416.3643" x="191.2563" y="103"/><text fill="#0F172A" font-family="Helvetica" font-size="14" font-weight="700" lengthAdjust="spacing" textLength="16.3379" x="206.2563" y="114.7803">alt</text><text fill="#334155" font-family="Helvetica" font-size="14" font-weight="700" lengthAdjust="spacing" textLength="73.8965" x="267.5942" y="115.7803">[Cache Hit]</text><g class="message" data-entity-1="part3" data-entity-2="part2" data-source-line="9" id="msg3"><line style="stroke:#64748B;stroke-width:1.1;" x1="271.7871" x2="281.7871" y1="137" y2="133"/><line style="stroke:#64748B;stroke-width:1.1;" x1="271.7871" x2="281.7871" y1="137" y2="141"/><line style="stroke:#64748B;stroke-width:1.1;stroke-dasharray:2,2;" x1="270.7871" x2="401.9453" y1="137" y2="137"/><text fill="#334155" font-family="Helvetica" font-size="12" lengthAdjust="spacing" textLength="42.6914" x="315.5205" y="132.2402">Session</text></g><line style="stroke:#CBD5E1;stroke-width:1;stroke-dasharray:2,2;" x1="191.2563" x2="607.6206" y1="146" y2="146"/><text fill="#334155" font-family="Helvetica" font-size="14" font-weight="700" lengthAdjust="spacing" textLength="86.3584" x="196.2563" y="156.7803">[Cache Miss]</text><g class="message" data-entity-1="part2" data-entity-2="part4" data-source-line="11" id="msg4"><line style="stroke:#64748B;stroke-width:1.1;" x1="529.5967" x2="519.5967" y1="179" y2="175"/><line style="stroke:#64748B;stroke-width:1.1;" x1="529.5967" x2="519.5967" y1="179" y2="183"/><line style="stroke:#64748B;stroke-width:1.1;" x1="270.7871" x2="530.5967" y1="179" y2="179"/><text fill="#334155" font-family="Helvetica" font-size="12" lengthAdjust="spacing" textLength="96.7148" x="352.8345" y="174.2402">load_session(key)</text></g><path d="M205.2563,194 L262.5942,194 L262.5942,200 L252.5942,210 L201.2563,210 L201.2563,198 A4,4 0 0 1 205.2563,194" fill="#F8FAFC" style="stroke:#CBD5E1;stroke-width:1.5;"/><rect fill="none" height="136" rx="4" ry="4" style="stroke:#CBD5E1;stroke-width:1.5;" width="396.3643" x="201.2563" y="194"/><text fill="#0F172A" font-family="Helvetica" font-size="14" font-weight="700" lengthAdjust="spacing" textLength="16.3379" x="216.2563" y="205.7803">alt</text><text fill="#334155" font-family="Helvetica" font-size="14" font-weight="700" lengthAdjust="spacing" textLength="108.1514" x="277.5942" y="206.7803">[Session Exists]</text><g class="message" data-entity-1="part4" data-entity-2="part2" data-source-line="13" id="msg5"><line style="stroke:#64748B;stroke-width:1.1;" x1="271.7871" x2="281.7871" y1="228" y2="224"/><line style="stroke:#64748B;stroke-width:1.1;" x1="271.7871" x2="281.7871" y1="228" y2="232"/><line style="stroke:#64748B;stroke-width:1.1;stroke-dasharray:2,2;" x1="270.7871" x2="530.5967" y1="228" y2="228"/><text fill="#334155" font-family="Helvetica" font-size="12" lengthAdjust="spacing" textLength="69.3809" x="366.5015" y="223.2402">Session data</text></g><g class="message" data-entity-1="part2" data-entity-2="part2" data-source-line="14" id="msg6"><line style="stroke:#64748B;stroke-width:1.1;" x1="270.7871" x2="312.7871" y1="254" y2="254"/><line style="stroke:#64748B;stroke-width:1.1;" x1="312.7871" x2="312.7871" y1="254" y2="267"/><line style="stroke:#64748B;stroke-width:1.1;" x1="270.7871" x2="312.7871" y1="267" y2="267"/><line style="stroke:#64748B;stroke-width:1.1;" x1="271.7871" x2="281.7871" y1="267" y2="263"/><line style="stroke:#64748B;stroke-width:1.1;" x1="271.7871" x2="281.7871" y1="267" y2="271"/><text fill="#334155" font-family="Helvetica" font-size="12" lengthAdjust="spacing" textLength="115.3887" x="277.7871" y="249.2402">deserialize messages</text></g><line style="stroke:#CBD5E1;stroke-width:1;stroke-dasharray:2,2;" x1="201.2563" x2="597.6206" y1="276" y2="276"/><text fill="#334155" font-family="Helvetica" font-size="14" font-weight="700" lengthAdjust="spacing" textLength="95.6895" x="206.2563" y="286.7803">[New Session]</text><g class="message" data-entity-1="part2" data-entity-2="part2" data-source-line="16" id="msg7"><line style="stroke:#64748B;stroke-width:1.1;" x1="270.7871" x2="312.7871" y1="309" y2="309"/><line style="stroke:#64748B;stroke-width:1.1;" x1="312.7871" x2="312.7871" y1="309" y2="322"/><line style="stroke:#64748B;stroke-width:1.1;" x1="270.7871" x2="312.7871" y1="322" y2="322"/><line style="stroke:#64748B;stroke-width:1.1;" x1="271.7871" x2="281.7871" y1="322" y2="318"/><line style="stroke:#64748B;stroke-width:1.1;" x1="271.7871" x2="281.7871" y1="322" y2="326"/><text fill="#334155" font-family="Helvetica" font-size="12" lengthAdjust="spacing" textLength="112.7168" x="277.7871" y="304.2402">create new Session()</text></g><g class="message" data-entity-1="part2" data-entity-2="part3" data-source-line="18" id="msg8"><line style="stroke:#64748B;stroke-width:1.1;" x1="400.9453" x2="390.9453" y1="355" y2="351"/><line style="stroke:#64748B;stroke-width:1.1;" x1="400.9453" x2="390.9453" y1="355" y2="359"/><line style="stroke:#64748B;stroke-width:1.1;" x1="270.7871" x2="401.9453" y1="355" y2="355"/><text fill="#334155" font-family="Helvetica" font-size="12" lengthAdjust="spacing" textLength="75.3574" x="299.1875" y="350.2402">store(session)</text></g><g class="message" data-entity-1="part2" data-entity-2="part1" data-source-line="20" id="msg9"><line style="stroke:#64748B;stroke-width:1.1;" x1="53.8652" x2="63.8652" y1="388" y2="384"/><line style="stroke:#64748B;stroke-width:1.1;" x1="53.8652" x2="63.8652" y1="388" y2="392"/><line style="stroke:#64748B;stroke-width:1.1;stroke-dasharray:2,2;" x1="52.8652" x2="269.7871" y1="388" y2="388"/><text fill="#334155" font-family="Helvetica" font-size="12" lengthAdjust="spacing" textLength="42.6914" x="140.4805" y="383.2402">Session</text></g><g class="message" data-entity-1="part1" data-entity-2="part2" data-source-line="21" id="msg10"><line style="stroke:#64748B;stroke-width:1.1;" x1="268.7871" x2="258.7871" y1="414" y2="410"/><line style="stroke:#64748B;stroke-width:1.1;" x1="268.7871" x2="258.7871" y1="414" y2="418"/><line style="stroke:#64748B;stroke-width:1.1;" x1="52.8652" x2="269.7871" y1="414" y2="414"/><text fill="#334155" font-family="Helvetica" font-size="12" lengthAdjust="spacing" textLength="193.9219" x="64.8652" y="409.2402">session.add_message('user', 'Hello')</text></g><g class="message" data-entity-1="part2" data-entity-2="part3" data-source-line="22" id="msg11"><line style="stroke:#64748B;stroke-width:1.1;" x1="400.9453" x2="390.9453" y1="440" y2="436"/><line style="stroke:#64748B;stroke-width:1.1;" x1="400.9453" x2="390.9453" y1="440" y2="444"/><line style="stroke:#64748B;stroke-width:1.1;" x1="270.7871" x2="401.9453" y1="440" y2="440"/><text fill="#334155" font-family="Helvetica" font-size="12" lengthAdjust="spacing" textLength="72.0586" x="300.8369" y="435.2402">update cache</text></g><g class="message" data-entity-1="part2" data-entity-2="part4" data-source-line="23" id="msg12"><line style="stroke:#64748B;stroke-width:1.1;" x1="529.5967" x2="519.5967" y1="466" y2="462"/><line style="stroke:#64748B;stroke-width:1.1;" x1="529.5967" x2="519.5967" y1="466" y2="470"/><line style="stroke:#64748B;stroke-width:1.1;" x1="270.7871" x2="530.5967" y1="466" y2="466"/><text fill="#334155" font-family="Helvetica" font-size="12" lengthAdjust="spacing" textLength="121.3887" x="340.4976" y="461.2402">save_session(session)</text></g><g class="message" data-entity-1="part4" data-entity-2="part2" data-source-line="24" id="msg13"><line style="stroke:#64748B;stroke-width:1.1;" x1="271.7871" x2="281.7871" y1="492" y2="488"/><line style="stroke:#64748B;stroke-width:1.1;" x1="271.7871" x2="281.7871" y1="492" y2="496"/><line style="stroke:#64748B;stroke-width:1.1;stroke-dasharray:2,2;" x1="270.7871" x2="530.5967" y1="492" y2="492"/><text fill="#334155" font-family="Helvetica" font-size="12" lengthAdjust="spacing" textLength="48.6914" x="376.8462" y="487.2402">persisted</text></g><path d="M215,509 L215,525 A4,4 0 0 0 219,529 L582,529 A4,4 0 0 0 586,525 L586,515 L576,505 L219,505 A4,4 0 0 0 215,509" fill="#FFF7ED" style="stroke:#FDBA74;stroke-width:0.5;"/><path d="M576,505 L576,513 A2,2 0 0 0 578,515 L586,515 L576,505" fill="#FFF7ED" style="stroke:#FDBA74;stroke-width:0.5;"/><text fill="#7C2D12" font-family="Helvetica" font-size="14" lengthAdjust="spacing" textLength="258.3027" x="271.5308" y="520.7803">Atomic JSONL write with UTF-8 encoding</text><?plantuml-src RPBDJiCm48JlFCN29K4YS4KvL4A8210f1yCvMkobjN3io7PRojFZs6wZK7p8xxUpisEVIytLHX0CrdoISz9eL9LVKq_NSjEhCmXhGEibbmDg3nSQjVam_eORInU03kwL9ErFGPRaMjIu8XjHrfvYJxfggJTs3_V8rrboV3f5dzdhyWMODpOeHh1XaKeMgiM2jJMio7V6TjmIUYeBlaQjITNXxZifYijOmTf0npOrX0l_wlZuKdxHFW6eVB81Zp8D5nkDNwhSA0yOVv9obFbMEdSiY7qQLeCoA3gNAgOkXqvP2Xw-fVDJzRWQzgSV2FGuGsAJaH3ao4fKyeUW3tI8QHAB5fUqc_a-aKYnWPwuSh9AMimdomcwi2LKvkaIVa03Dd9nW-QHpJOjrrwZ45rsNXQRC4rn1SKZAMN-sRZD84Ql_7XQZcaxtD8nxPclASw1h0jfK_AvD479RCa6aQk6GGrttlIIGpfqEol3_vtqQtX_QwhRC1ytGkhLBm00?></g></svg>