<svg xmlns="http://www.w3.org/2000/svg" xmlns:xlink="http://www.w3.org/1999/xlink" contentStyleType="text/css" data-diagram-type="DESCRIPTION" height="742px" preserveAspectRatio="none" style="width:2102px;height:742px;" version="1.1" viewBox="0 0 2102 742" width="2102px" zoomAndPan="magnify"><?plantuml 1.2026.5?><defs><style><![CDATA[
@media (prefers-color-scheme: dark) {
  text { fill: #e5e7eb !important; }
  path, line, rect, circle, ellipse, polygon, polyline { stroke: #cbd5e1 !important; }
  .entity rect, .participant rect, .participant path, .sequenceLine rect, .class rect, .component rect, .component path, .note rect { fill: #111827 !important; }
  .cluster path { fill: none !important; }
  polygon { fill: #cbd5e1 !important; }
}
]]></style></defs><g><!--cluster External--><g class="cluster" data-qualified-name="External" data-source-line="13" id="ent0001"><path d="M1430.5,227.33 L1551.0811,227.33 A3.75,3.75 0 0 1 1553.5811,229.83 L1560.5811,249.8183 L2029.5,249.8183 A2.5,2.5 0 0 1 2032,252.3183 L2032,328.8 A2.5,2.5 0 0 1 2029.5,331.3 L1430.5,331.3 A2.5,2.5 0 0 1 1428,328.8 L1428,229.83 A2.5,2.5 0 0 1 1430.5,227.33" fill="none" style="stroke:#64748B;stroke-width:1.5;"/><line style="stroke:#64748B;stroke-width:1.5;" x1="1428" x2="1560.5811" y1="249.8183" y2="249.8183"/><text fill="#000000" font-family="sans-serif" font-size="14" font-weight="700" lengthAdjust="spacing" textLength="119.5811" x="1432" y="242.8652">External Sources</text></g><!--cluster ConfigComponent--><g class="cluster" data-qualified-name="ConfigComponent" data-source-line="18" id="ent0005"><path d="M8.5,47.35 L209.6357,47.35 A3.75,3.75 0 0 1 212.1357,49.85 L219.1357,69.8383 L1375.5,69.8383 A2.5,2.5 0 0 1 1378,72.3383 L1378,725 A2.5,2.5 0 0 1 1375.5,727.5 L8.5,727.5 A2.5,2.5 0 0 1 6,725 L6,49.85 A2.5,2.5 0 0 1 8.5,47.35" fill="none" style="stroke:#64748B;stroke-width:1.5;"/><line style="stroke:#64748B;stroke-width:1.5;" x1="6" x2="219.1357" y1="69.8383" y2="69.8383"/><text fill="#000000" font-family="sans-serif" font-size="14" font-weight="700" lengthAdjust="spacing" textLength="200.1357" x="10" y="62.8852">nanobot/config Component</text></g><!--cluster Interface--><g class="cluster" data-qualified-name="ConfigComponent.Interface" data-source-line="19" id="ent0006"><path d="M394.5,90.35 L527.126,90.35 A3.75,3.75 0 0 1 529.626,92.85 L536.626,112.8383 L885.5,112.8383 A2.5,2.5 0 0 1 888,115.3383 L888,191.83 A2.5,2.5 0 0 1 885.5,194.33 L394.5,194.33 A2.5,2.5 0 0 1 392,191.83 L392,92.85 A2.5,2.5 0 0 1 394.5,90.35" fill="none" style="stroke:#64748B;stroke-width:1.5;"/><line style="stroke:#64748B;stroke-width:1.5;" x1="392" x2="536.626" y1="112.8383" y2="112.8383"/><text fill="#000000" font-family="sans-serif" font-size="14" font-weight="700" lengthAdjust="spacing" textLength="81.5664" x="396" y="105.8852">Public API (</text><text fill="#000000" font-family="sans-serif" font-size="14" font-weight="700" lengthAdjust="spacing" text-decoration="underline" textLength="23.9736" x="477.5664" y="105.8852">init</text><text fill="#000000" font-family="sans-serif" font-size="14" font-weight="700" lengthAdjust="spacing" textLength="26.0859" x="501.54" y="105.8852">.py)</text></g><!--cluster CoreLogic--><g class="cluster" data-qualified-name="ConfigComponent.CoreLogic" data-source-line="24" id="ent0010"><path d="M32.5,90.35 L191.376,90.35 A3.75,3.75 0 0 1 193.876,92.85 L200.876,112.8383 L365.5,112.8383 A2.5,2.5 0 0 1 368,115.3383 L368,701 A2.5,2.5 0 0 1 365.5,703.5 L32.5,703.5 A2.5,2.5 0 0 1 30,701 L30,92.85 A2.5,2.5 0 0 1 32.5,90.35" fill="none" style="stroke:#64748B;stroke-width:1.5;"/><line style="stroke:#64748B;stroke-width:1.5;" x1="30" x2="200.876" y1="112.8383" y2="112.8383"/><text fill="#000000" font-family="sans-serif" font-size="14" font-weight="700" lengthAdjust="spacing" textLength="157.876" x="34" y="105.8852">Core Logic (loader.py)</text></g><!--cluster DataModel--><g class="cluster" data-qualified-name="ConfigComponent.DataModel" data-source-line="32" id="ent0017"><path d="M394.5,227.33 L567.4922,227.33 A3.75,3.75 0 0 1 569.9922,229.83 L576.9922,249.8183 L1351.5,249.8183 A2.5,2.5 0 0 1 1354,252.3183 L1354,328.8 A2.5,2.5 0 0 1 1351.5,331.3 L394.5,331.3 A2.5,2.5 0 0 1 392,328.8 L392,229.83 A2.5,2.5 0 0 1 394.5,227.33" fill="none" style="stroke:#64748B;stroke-width:1.5;"/><line style="stroke:#64748B;stroke-width:1.5;" x1="392" x2="576.9922" y1="249.8183" y2="249.8183"/><text fill="#000000" font-family="sans-serif" font-size="14" font-weight="700" lengthAdjust="spacing" textLength="171.9922" x="396" y="242.8652">Data Model (schema.py)</text></g><!--cluster Consumers--><g class="cluster" data-qualified-name="Consumers" data-source-line="40" id="ent0023"><path d="M1404.5,380.3 L1542.9229,380.3 A3.75,3.75 0 0 1 1545.4229,382.8 L1552.4229,402.7883 L2053.5,402.7883 A2.5,2.5 0 0 1 2056,405.2883 L2056,465.29 A2.5,2.5 0 0 1 2053.5,467.79 L1404.5,467.79 A2.5,2.5 0 0 1 1402,465.29 L1402,382.8 A2.5,2.5 0 0 1 1404.5,380.3" fill="none" style="stroke:#64748B;stroke-width:1.5;"/><line style="stroke:#64748B;stroke-width:1.5;" x1="1402" x2="1552.4229" y1="402.7883" y2="402.7883"/><text fill="#000000" font-family="sans-serif" font-size="14" font-weight="700" lengthAdjust="spacing" textLength="137.4229" x="1406" y="395.8352">System Consumers</text></g><!--entity ENV--><g class="entity" data-qualified-name="External.ENV" data-source-line="14" id="ent0002"><rect fill="#F8FAFC" height="52.9766" rx="2.5" ry="2.5" style="stroke:#4B5563;stroke-width:0.5;" width="171.9971" x="1844" y="262.33"/><text fill="#111827" font-family="sans-serif" font-size="14" lengthAdjust="spacing" textLength="151.9971" x="1854" y="285.8652">Environment Variables</text><text fill="#111827" font-family="sans-serif" font-size="14" lengthAdjust="spacing" textLength="91.8545" x="1884.0713" y="302.3534">(NANOBOT_*)</text></g><!--entity FILE--><g class="entity" data-qualified-name="External.FILE" data-source-line="15" id="ent0003"><rect fill="#F8FAFC" height="52.9766" rx="2.5" ry="2.5" style="stroke:#4B5563;stroke-width:0.5;" width="180.0703" x="1628.96" y="262.33"/><text fill="#111827" font-family="sans-serif" font-size="14" lengthAdjust="spacing" textLength="72.7275" x="1682.6314" y="285.8652">Config File</text><text fill="#111827" font-family="sans-serif" font-size="14" lengthAdjust="spacing" textLength="160.0703" x="1638.96" y="302.3534">(/.nanobot/config.json)</text></g><!--entity LEGACY--><g class="entity" data-qualified-name="External.LEGACY" data-source-line="16" id="ent0004"><rect fill="#F8FAFC" height="36.4883" rx="2.5" ry="2.5" style="stroke:#4B5563;stroke-width:0.5;" width="150.5049" x="1443.75" y="270.57"/><text fill="#111827" font-family="sans-serif" font-size="14" lengthAdjust="spacing" textLength="130.5049" x="1453.75" y="294.1052">Legacy Config Files</text></g><!--entity LOAD--><g class="entity" data-qualified-name="ConfigComponent.Interface.LOAD" data-source-line="20" id="ent0007"><rect fill="#F8FAFC" height="36.4883" rx="2.5" ry="2.5" style="stroke:#4B5563;stroke-width:0.5;" width="107.6777" x="581.16" y="133.59"/><text fill="#111827" font-family="sans-serif" font-size="14" lengthAdjust="spacing" textLength="87.6777" x="591.16" y="157.1252">load_config()</text></g><!--entity GETPATH--><g class="entity" data-qualified-name="ConfigComponent.Interface.GETPATH" data-source-line="21" id="ent0008"><rect fill="#F8FAFC" height="36.4883" rx="2.5" ry="2.5" style="stroke:#4B5563;stroke-width:0.5;" width="137.7217" x="408.14" y="133.59"/><text fill="#111827" font-family="sans-serif" font-size="14" lengthAdjust="spacing" textLength="117.7217" x="418.14" y="157.1252">get_config_path()</text></g><!--entity CONFIG--><g class="entity" data-qualified-name="ConfigComponent.Interface.CONFIG" data-source-line="22" id="ent0009"><rect fill="#F8FAFC" height="52.9766" rx="2.5" ry="2.5" style="stroke:#4B5563;stroke-width:0.5;" width="148.707" x="723.65" y="125.35"/><text fill="#111827" font-family="sans-serif" font-size="14" lengthAdjust="spacing" textLength="85.0664" x="755.4703" y="148.8852">Config Class</text><text fill="#111827" font-family="sans-serif" font-size="14" lengthAdjust="spacing" textLength="128.707" x="733.65" y="165.3734">(Type-Safe Access)</text></g><!--entity RESOLVE--><g class="entity" data-qualified-name="ConfigComponent.CoreLogic.RESOLVE" data-source-line="25" id="ent0011"><rect fill="#F8FAFC" height="52.9766" rx="2.5" ry="2.5" style="stroke:#4B5563;stroke-width:0.5;" width="150.6484" x="45.68" y="125.35"/><text fill="#111827" font-family="sans-serif" font-size="14" lengthAdjust="spacing" textLength="105.5195" x="68.2445" y="148.8852">Path Resolution</text><text fill="#111827" font-family="sans-serif" font-size="14" lengthAdjust="spacing" textLength="130.6484" x="55.68" y="165.3734">(Default + Custom)</text></g><!--entity READ--><g class="entity" data-qualified-name="ConfigComponent.CoreLogic.READ" data-source-line="26" id="ent0012"><rect fill="#F8FAFC" height="52.9766" rx="2.5" ry="2.5" style="stroke:#4B5563;stroke-width:0.5;" width="109.6602" x="225.17" y="262.33"/><text fill="#111827" font-family="sans-serif" font-size="14" lengthAdjust="spacing" textLength="82.4893" x="238.7554" y="285.8652">File Reading</text><text fill="#111827" font-family="sans-serif" font-size="14" lengthAdjust="spacing" textLength="89.6602" x="235.17" y="302.3534">(UTF-8 JSON)</text></g><!--entity WRITE--><g class="entity" data-qualified-name="ConfigComponent.CoreLogic.WRITE" data-source-line="27" id="ent0013"><rect fill="#F8FAFC" height="52.9766" rx="2.5" ry="2.5" style="stroke:#4B5563;stroke-width:0.5;" width="120.6387" x="231.68" y="125.35"/><text fill="#111827" font-family="sans-serif" font-size="14" lengthAdjust="spacing" textLength="76.2822" x="253.8582" y="148.8852">File Writing</text><text fill="#111827" font-family="sans-serif" font-size="14" lengthAdjust="spacing" textLength="100.6387" x="241.68" y="165.3734">(Pretty Printed)</text></g><!--entity MIGRATE--><g class="entity" data-qualified-name="ConfigComponent.CoreLogic.MIGRATE" data-source-line="28" id="ent0014"><rect fill="#F8FAFC" height="52.9766" rx="2.5" ry="2.5" style="stroke:#4B5563;stroke-width:0.5;" width="149.1377" x="202.43" y="407.06"/><text fill="#111827" font-family="sans-serif" font-size="14" lengthAdjust="spacing" textLength="121.2969" x="216.3504" y="430.5952">Schema Migration</text><text fill="#111827" font-family="sans-serif" font-size="14" lengthAdjust="spacing" textLength="129.1377" x="212.43" y="447.0834">(Version Upgrades)</text></g><!--entity VALIDATE--><g class="entity" data-qualified-name="ConfigComponent.CoreLogic.VALIDATE" data-source-line="29" id="ent0015"><rect fill="#F8FAFC" height="36.4883" rx="2.5" ry="2.5" style="stroke:#4B5563;stroke-width:0.5;" width="149.2607" x="202.37" y="521.04"/><text fill="#111827" font-family="sans-serif" font-size="14" lengthAdjust="spacing" textLength="129.2607" x="212.37" y="544.5752">Pydantic Validation</text></g><!--entity FALLBACK--><g class="entity" data-qualified-name="ConfigComponent.CoreLogic.FALLBACK" data-source-line="30" id="ent0016"><rect fill="#F8FAFC" height="52.9766" rx="2.5" ry="2.5" style="stroke:#4B5563;stroke-width:0.5;" width="128.7939" x="139.6" y="634.52"/><text fill="#111827" font-family="sans-serif" font-size="14" lengthAdjust="spacing" textLength="108.7939" x="149.6" y="658.0552">Default Fallback</text><text fill="#111827" font-family="sans-serif" font-size="14" lengthAdjust="spacing" textLength="107.4199" x="150.287" y="674.5434">(Error Recovery)</text></g><!--entity CHANNELS--><g class="entity" data-qualified-name="ConfigComponent.DataModel.CHANNELS" data-source-line="33" id="ent0018"><rect fill="#F8FAFC" height="52.9766" rx="2.5" ry="2.5" style="stroke:#4B5563;stroke-width:0.5;" width="131.7949" x="408.1" y="262.33"/><text fill="#111827" font-family="sans-serif" font-size="14" lengthAdjust="spacing" textLength="111.7949" x="418.1" y="285.8652">Channel Configs</text><text fill="#111827" font-family="sans-serif" font-size="14" lengthAdjust="spacing" textLength="106.8047" x="420.5951" y="302.3534">(10+ Platforms)</text></g><!--entity LLMS--><g class="entity" data-qualified-name="ConfigComponent.DataModel.LLMS" data-source-line="34" id="ent0019"><rect fill="#F8FAFC" height="52.9766" rx="2.5" ry="2.5" style="stroke:#4B5563;stroke-width:0.5;" width="116.8379" x="574.58" y="262.33"/><text fill="#111827" font-family="sans-serif" font-size="14" lengthAdjust="spacing" textLength="94.2539" x="585.872" y="285.8652">LLM Providers</text><text fill="#111827" font-family="sans-serif" font-size="14" lengthAdjust="spacing" textLength="96.8379" x="584.58" y="302.3534">(15+ Services)</text></g><!--entity AGENT--><g class="entity" data-qualified-name="ConfigComponent.DataModel.AGENT" data-source-line="35" id="ent0020"><rect fill="#F8FAFC" height="52.9766" rx="2.5" ry="2.5" style="stroke:#4B5563;stroke-width:0.5;" width="215.8496" x="726.08" y="262.33"/><text fill="#111827" font-family="sans-serif" font-size="14" lengthAdjust="spacing" textLength="98.957" x="784.5263" y="285.8652">Agent Settings</text><text fill="#111827" font-family="sans-serif" font-size="14" lengthAdjust="spacing" textLength="195.8496" x="736.08" y="302.3534">(Workspace, Model, Memory)</text></g><!--entity TOOLS--><g class="entity" data-qualified-name="ConfigComponent.DataModel.TOOLS" data-source-line="36" id="ent0021"><rect fill="#F8FAFC" height="52.9766" rx="2.5" ry="2.5" style="stroke:#4B5563;stroke-width:0.5;" width="186.1064" x="976.95" y="262.33"/><text fill="#111827" font-family="sans-serif" font-size="14" lengthAdjust="spacing" textLength="86.5635" x="1026.7215" y="285.8652">Tool Configs</text><text fill="#111827" font-family="sans-serif" font-size="14" lengthAdjust="spacing" textLength="166.1064" x="986.95" y="302.3534">(Web Search, Shell, MCP)</text></g><!--entity GATEWAY--><g class="entity" data-qualified-name="ConfigComponent.DataModel.GATEWAY" data-source-line="37" id="ent0022"><rect fill="#F8FAFC" height="52.9766" rx="2.5" ry="2.5" style="stroke:#4B5563;stroke-width:0.5;" width="140.0596" x="1197.97" y="262.33"/><text fill="#111827" font-family="sans-serif" font-size="14" lengthAdjust="spacing" textLength="102.9902" x="1216.5047" y="285.8652">Gateway Server</text><text fill="#111827" font-family="sans-serif" font-size="14" lengthAdjust="spacing" textLength="120.0596" x="1207.97" y="302.3534">(HTTP, Heartbeat)</text></g><!--entity APP--><g class="entity" data-qualified-name="Consumers.APP" data-source-line="41" id="ent0024"><rect fill="#F8FAFC" height="36.4883" rx="2.5" ry="2.5" style="stroke:#4B5563;stroke-width:0.5;" width="159.2891" x="1880.36" y="415.3"/><text fill="#111827" font-family="sans-serif" font-size="14" lengthAdjust="spacing" textLength="139.2891" x="1890.36" y="438.8352">Nanobot Application</text></g><!--entity AGENT_RUNNER--><g class="entity" data-qualified-name="Consumers.AGENT_RUNNER" data-source-line="42" id="ent0025"><rect fill="#F8FAFC" height="36.4883" rx="2.5" ry="2.5" style="stroke:#4B5563;stroke-width:0.5;" width="120.9258" x="1724.54" y="415.3"/><text fill="#111827" font-family="sans-serif" font-size="14" lengthAdjust="spacing" textLength="100.9258" x="1734.54" y="438.8352">Agent Runtime</text></g><!--entity CHANNEL_MGR--><g class="entity" data-qualified-name="Consumers.CHANNEL_MGR" data-source-line="43" id="ent0026"><rect fill="#F8FAFC" height="36.4883" rx="2.5" ry="2.5" style="stroke:#4B5563;stroke-width:0.5;" width="145.3643" x="1418.32" y="415.3"/><text fill="#111827" font-family="sans-serif" font-size="14" lengthAdjust="spacing" textLength="125.3643" x="1428.32" y="438.8352">Channel Managers</text></g><!--entity LLM_CLIENT--><g class="entity" data-qualified-name="Consumers.LLM_CLIENT" data-source-line="44" id="ent0027"><rect fill="#F8FAFC" height="36.4883" rx="2.5" ry="2.5" style="stroke:#4B5563;stroke-width:0.5;" width="90.9229" x="1598.54" y="415.3"/><text fill="#111827" font-family="sans-serif" font-size="14" lengthAdjust="spacing" textLength="70.9229" x="1608.54" y="438.8352">LLM Client</text></g><!--link ENV to VALIDATE--><g class="link" data-entity-1="ent0002" data-entity-2="ent0015" data-link-type="dependency" data-source-line="46" id="lnk28"><path d="M1994.18,315.74 C2018.05,328.9 2042.57,347.46 2056,372.3 C2077.87,412.76 2087.95,442.7 2056,475.79 C1995.98,537.96 687.6,539.2001 357,538.5301" fill="none" id="ENV-to-VALIDATE" style="stroke:#4B5563;stroke-width:1;"/><polygon fill="#4B5563" points="352,538.52,360.9919,542.5382,357,538.5301,361.0081,534.5382,352,538.52" style="stroke:#4B5563;stroke-width:1;stroke-linejoin:miter;stroke-miterlimit:10;"/></g><!--link FILE to READ--><g class="link" data-entity-1="ent0003" data-entity-2="ent0012" data-link-type="dependency" data-source-line="47" id="lnk29"><path d="M1689.41,262.22 C1665.7,243.03 1630.54,219.12 1594.5,210.83 C1562.42,203.45 441.58,203.45 409.5,210.83 C372.67,219.3 340.264,239.8626 315.484,258.9126" fill="none" id="FILE-to-READ" style="stroke:#4B5563;stroke-width:1;"/><polygon fill="#4B5563" points="311.52,261.96,321.0931,259.6459,315.484,258.9126,316.2173,253.3035,311.52,261.96" style="stroke:#4B5563;stroke-width:1;stroke-linejoin:miter;stroke-miterlimit:10;"/></g><!--link LEGACY to MIGRATE--><g class="link" data-entity-1="ent0004" data-entity-2="ent0014" data-link-type="dependency" data-source-line="48" id="lnk30"><path d="M1469.84,307.45 C1437.37,318.37 1393.66,331.72 1354,339.3 C982.32,410.35 533.0387,427.2063 356.8187,431.2163" fill="none" id="LEGACY-to-MIGRATE" style="stroke:#4B5563;stroke-width:1;"/><polygon fill="#4B5563" points="351.82,431.33,360.9087,435.1242,356.8187,431.2163,360.7267,427.1263,351.82,431.33" style="stroke:#4B5563;stroke-width:1;stroke-linejoin:miter;stroke-miterlimit:10;"/></g><!--link READ to MIGRATE--><g class="link" data-entity-1="ent0012" data-entity-2="ent0014" data-link-type="dependency" data-source-line="49" id="lnk31"><path d="M279.46,315.66 C278.91,341.53 278.1846,376.0911 277.6446,401.8911" fill="none" id="READ-to-MIGRATE" style="stroke:#4B5563;stroke-width:1;"/><polygon fill="#4B5563" points="277.54,406.89,281.7275,397.9757,277.6446,401.8911,273.7292,397.8083,277.54,406.89" style="stroke:#4B5563;stroke-width:1;stroke-linejoin:miter;stroke-miterlimit:10;"/></g><!--link MIGRATE to VALIDATE--><g class="link" data-entity-1="ent0014" data-entity-2="ent0015" data-link-type="dependency" data-source-line="50" id="lnk32"><path d="M277,460.46 C277,479.3 277,499.3 277,515.82" fill="none" id="MIGRATE-to-VALIDATE" style="stroke:#4B5563;stroke-width:1;"/><polygon fill="#4B5563" points="277,520.82,281,511.82,277,515.82,273,511.82,277,520.82" style="stroke:#4B5563;stroke-width:1;stroke-linejoin:miter;stroke-miterlimit:10;"/></g><!--link VALIDATE to CONFIG--><g class="link" data-entity-1="ent0015" data-entity-2="ent0009" data-link-type="dependency" data-source-line="51" id="lnk33"><path d="M317.83,520.76 C336.65,510.49 357.35,495.59 369,475.79 C427.03,377.15 309.66,298.81 392,219.33 C417.14,195.06 672.36,211.77 706,202.33 C724.33,197.18 738.7824,190.4343 754.5424,181.3143" fill="none" id="VALIDATE-to-CONFIG" style="stroke:#4B5563;stroke-width:1;"/><polygon fill="#4B5563" points="758.87,178.81,749.0768,179.8557,754.5424,181.3143,753.0837,186.7799,758.87,178.81" style="stroke:#4B5563;stroke-width:1;stroke-linejoin:miter;stroke-miterlimit:10;"/><text fill="#000000" font-family="sans-serif" font-size="13" lengthAdjust="spacing" textLength="48.8833" x="378.93" y="360.8684">Success</text></g><!--link VALIDATE to FALLBACK--><g class="link" data-entity-1="ent0015" data-entity-2="ent0016" data-link-type="dependency" data-source-line="52" id="lnk34"><path d="M266.23,557.95 C253.93,578.11 236.3127,607.0008 222.2727,630.0308" fill="none" id="VALIDATE-to-FALLBACK" style="stroke:#4B5563;stroke-width:1;"/><polygon fill="#4B5563" points="219.67,634.3,227.7702,628.6976,222.2727,630.0308,220.9395,624.5333,219.67,634.3" style="stroke:#4B5563;stroke-width:1;stroke-linejoin:miter;stroke-miterlimit:10;"/><text fill="#000000" font-family="sans-serif" font-size="13" lengthAdjust="spacing" textLength="42.2944" x="248.04" y="601.0884">Failure</text></g><!--link FALLBACK to CONFIG--><g class="link" data-entity-1="ent0016" data-entity-2="ent0009" data-link-type="dependency" data-source-line="53" id="lnk35"><path d="M190.71,634.13 C179.75,610.37 166,573.86 166,540.28 C166,287.81 166,287.81 166,287.81 C166,252.11 177.24,237.46 208,219.33 C255.69,191.2 652.5,216.57 706,202.33 C724.58,197.38 739.2216,190.5702 755.0716,181.3202" fill="none" id="FALLBACK-to-CONFIG" style="stroke:#4B5563;stroke-width:1;"/><polygon fill="#4B5563" points="759.39,178.8,749.6007,179.8816,755.0716,181.3202,753.633,186.7911,759.39,178.8" style="stroke:#4B5563;stroke-width:1;stroke-linejoin:miter;stroke-miterlimit:10;"/></g><!--link RESOLVE to READ--><g class="link" data-entity-1="ent0011" data-entity-2="ent0012" data-link-type="dependency" data-source-line="54" id="lnk36"><path d="M151.28,178.54 C179.48,202.48 217.4981,234.7543 245.7481,258.7343" fill="none" id="RESOLVE-to-READ" style="stroke:#4B5563;stroke-width:1;"/><polygon fill="#4B5563" points="249.56,261.97,245.2872,253.0963,245.7481,258.7343,240.1101,259.1952,249.56,261.97" style="stroke:#4B5563;stroke-width:1;stroke-linejoin:miter;stroke-miterlimit:10;"/></g><!--link WRITE to FILE--><g class="link" data-entity-1="ent0013" data-entity-2="ent0003" data-link-type="dependency" data-source-line="55" id="lnk37"><path d="M333.72,178.68 C351.08,188.02 371.85,197.46 392,202.33 C523.79,234.12 1482.16,180.35 1612,219.33 C1640.52,227.89 1664.7499,243.4175 1685.0399,259.0575" fill="none" id="WRITE-to-FILE" style="stroke:#4B5563;stroke-width:1;"/><polygon fill="#4B5563" points="1689,262.11,1684.3139,253.4474,1685.0399,259.0575,1679.4299,259.7835,1689,262.11" style="stroke:#4B5563;stroke-width:1;stroke-linejoin:miter;stroke-miterlimit:10;"/></g><!--link CONFIG to CHANNELS--><g class="link" data-entity-1="ent0009" data-entity-2="ent0018" data-link-type="dependency" data-source-line="56" id="lnk38"><path d="M757.8,178.76 C742.2,187.64 723.83,196.74 706,202.33 C642.4,222.25 618.34,193.26 557,219.33 C534.3,228.97 516.519,243.3783 501.149,258.4583" fill="none" id="CONFIG-to-CHANNELS" style="stroke:#4B5563;stroke-width:1;"/><polygon fill="#4B5563" points="497.58,261.96,506.8056,258.5122,501.149,258.4583,501.2029,252.8017,497.58,261.96" style="stroke:#4B5563;stroke-width:1;stroke-linejoin:miter;stroke-miterlimit:10;"/></g><!--link CONFIG to LLMS--><g class="link" data-entity-1="ent0009" data-entity-2="ent0019" data-link-type="dependency" data-source-line="57" id="lnk39"><path d="M761.91,178.63 C745.5,190.66 725.99,205.37 709,219.33 C692.39,232.97 678.1759,245.6206 663.9359,258.7506" fill="none" id="CONFIG-to-LLMS" style="stroke:#4B5563;stroke-width:1;"/><polygon fill="#4B5563" points="660.26,262.14,669.5881,258.9799,663.9359,258.7506,664.1651,253.0984,660.26,262.14" style="stroke:#4B5563;stroke-width:1;stroke-linejoin:miter;stroke-miterlimit:10;"/></g><!--link CONFIG to AGENT--><g class="link" data-entity-1="ent0009" data-entity-2="ent0020" data-link-type="dependency" data-source-line="58" id="lnk40"><path d="M804.86,178.54 C811.26,202.56 819.4807,233.3891 825.8807,257.3691" fill="none" id="CONFIG-to-AGENT" style="stroke:#4B5563;stroke-width:1;"/><polygon fill="#4B5563" points="827.17,262.2,828.714,252.4729,825.8807,257.3691,820.9845,254.5358,827.17,262.2" style="stroke:#4B5563;stroke-width:1;stroke-linejoin:miter;stroke-miterlimit:10;"/></g><!--link CONFIG to TOOLS--><g class="link" data-entity-1="ent0009" data-entity-2="ent0021" data-link-type="dependency" data-source-line="59" id="lnk41"><path d="M867.65,178.76 C896.41,190.18 929.78,204.4 959,219.33 C983.9,232.05 1006.4108,245.7159 1027.3908,259.2759" fill="none" id="CONFIG-to-TOOLS" style="stroke:#4B5563;stroke-width:1;"/><polygon fill="#4B5563" points="1031.59,261.99,1026.2026,253.7452,1027.3908,259.2759,1021.8601,260.464,1031.59,261.99" style="stroke:#4B5563;stroke-width:1;stroke-linejoin:miter;stroke-miterlimit:10;"/></g><!--link CONFIG to GATEWAY--><g class="link" data-entity-1="ent0009" data-entity-2="ent0022" data-link-type="dependency" data-source-line="60" id="lnk42"><path d="M872.77,155.03 C952.34,159.78 1080.37,174.46 1181,219.33 C1204,229.58 1222.549,243.8971 1238.789,258.7371" fill="none" id="CONFIG-to-GATEWAY" style="stroke:#4B5563;stroke-width:1;"/><polygon fill="#4B5563" points="1242.48,262.11,1238.5344,253.086,1238.789,258.7371,1233.1378,258.9917,1242.48,262.11" style="stroke:#4B5563;stroke-width:1;stroke-linejoin:miter;stroke-miterlimit:10;"/></g><!--link LOAD to RESOLVE--><g class="link" data-entity-1="ent0007" data-entity-2="ent0011" data-link-type="dependency" data-source-line="61" id="lnk43"><path d="M629.42,133.12 C618.96,102.15 593.06,41.94 545.5,24.35 C512.78,12.24 264.22,12.24 231.5,24.35 C184.39,41.78 153.1624,88.6579 136.1224,120.6179" fill="none" id="LOAD-to-RESOLVE" style="stroke:#4B5563;stroke-width:1;"/><polygon fill="#4B5563" points="133.77,125.03,141.5339,118.9702,136.1224,120.6179,134.4746,115.2064,133.77,125.03" style="stroke:#4B5563;stroke-width:1;stroke-linejoin:miter;stroke-miterlimit:10;"/></g><!--link LOAD to READ--><g class="link" data-entity-1="ent0007" data-entity-2="ent0012" data-link-type="dependency" data-source-line="62" id="lnk44"><path d="M615.87,170.48 C602.23,181.86 582.86,195.72 563,202.33 C520.79,216.36 404.05,193.19 363,210.33 C336.99,221.19 317.3432,240.2508 302.2332,258.3608" fill="none" id="LOAD-to-READ" style="stroke:#4B5563;stroke-width:1;"/><polygon fill="#4B5563" points="299.03,262.2,307.8671,257.852,302.2332,258.3608,301.7244,252.7269,299.03,262.2" style="stroke:#4B5563;stroke-width:1;stroke-linejoin:miter;stroke-miterlimit:10;"/></g><!--link LOAD to VALIDATE--><g class="link" data-entity-1="ent0007" data-entity-2="ent0015" data-link-type="dependency" data-source-line="63" id="lnk45"><path d="M616.21,170.36 C602.57,181.84 583.07,195.88 563,202.33 C541.52,209.23 172.79,194.22 157,210.33 C73.94,295.04 117.03,378.56 185,475.79 C198.5,495.1 215.6545,507.7523 234.4945,518.2723" fill="none" id="LOAD-to-VALIDATE" style="stroke:#4B5563;stroke-width:1;"/><polygon fill="#4B5563" points="238.86,520.71,232.9522,512.8298,234.4945,518.2723,229.0519,519.8146,238.86,520.71" style="stroke:#4B5563;stroke-width:1;stroke-linejoin:miter;stroke-miterlimit:10;"/></g><!--link GETPATH to RESOLVE--><g class="link" data-entity-1="ent0008" data-entity-2="ent0011" data-link-type="dependency" data-source-line="64" id="lnk46"><path d="M466.3,133.45 C447.48,103.28 405.19,44.58 350.5,24.35 C300.9,6 281.1,6 231.5,24.35 C184.39,41.78 153.1624,88.6579 136.1224,120.6179" fill="none" id="GETPATH-to-RESOLVE" style="stroke:#4B5563;stroke-width:1;"/><polygon fill="#4B5563" points="133.77,125.03,141.5339,118.9702,136.1224,120.6179,134.4746,115.2064,133.77,125.03" style="stroke:#4B5563;stroke-width:1;stroke-linejoin:miter;stroke-miterlimit:10;"/></g><!--link CONFIG to APP--><g class="link" data-entity-1="ent0009" data-entity-2="ent0024" data-link-type="dependency" data-source-line="65" id="lnk47"><path d="M872.72,153.86 C1005.48,156.96 1275.87,169.4 1354,219.33 C1406.79,253.06 1374.49,306.72 1428,339.3 C1510.8,389.72 1770.85,342.2 1863,372.3 C1891.27,381.54 1915.7303,397.6032 1934.4403,411.8332" fill="none" id="CONFIG-to-APP" style="stroke:#4B5563;stroke-width:1;"/><polygon fill="#4B5563" points="1938.42,414.86,1933.6779,406.2279,1934.4403,411.8332,1928.835,412.5955,1938.42,414.86" style="stroke:#4B5563;stroke-width:1;stroke-linejoin:miter;stroke-miterlimit:10;"/></g><!--link CHANNELS to CHANNEL_MGR--><g class="link" data-entity-1="ent0018" data-entity-2="ent0026" data-link-type="dependency" data-source-line="66" id="lnk48"><path d="M510.47,315.77 C524.42,324.55 540.88,333.57 557,339.3 C629.37,365.02 651.72,355.32 728,364.3 C980.77,394.06 1277.0333,417.0962 1413.0133,427.0162" fill="none" id="CHANNELS-to-CHANNEL_MGR" style="stroke:#4B5563;stroke-width:1;"/><polygon fill="#4B5563" points="1418,427.38,1409.3149,422.7358,1413.0133,427.0162,1408.7328,430.7146,1418,427.38" style="stroke:#4B5563;stroke-width:1;stroke-linejoin:miter;stroke-miterlimit:10;"/></g><!--link LLMS to LLM_CLIENT--><g class="link" data-entity-1="ent0019" data-entity-2="ent0027" data-link-type="dependency" data-source-line="67" id="lnk49"><path d="M665.19,315.78 C678.08,324.78 693.52,333.95 709,339.3 C827.92,380.41 865.34,357.89 991,364.3 C1007.37,365.14 1565.83,366.1 1581,372.3 C1602.15,380.95 1617.1913,396.4203 1628.4913,410.8803" fill="none" id="LLMS-to-LLM_CLIENT" style="stroke:#4B5563;stroke-width:1;"/><polygon fill="#4B5563" points="1631.57,414.82,1629.18,405.2655,1628.4913,410.8803,1622.8765,410.1915,1631.57,414.82" style="stroke:#4B5563;stroke-width:1;stroke-linejoin:miter;stroke-miterlimit:10;"/></g><!--link AGENT to AGENT_RUNNER--><g class="link" data-entity-1="ent0020" data-entity-2="ent0025" data-link-type="dependency" data-source-line="68" id="lnk50"><path d="M889.86,315.73 C911.09,324.56 935.76,333.62 959,339.3 C1064.46,365.08 1093.62,357.88 1202,364.3 C1230.01,365.96 1680.52,363.03 1707,372.3 C1731.55,380.9 1750.902,396.9869 1765.452,411.5169" fill="none" id="AGENT-to-AGENT_RUNNER" style="stroke:#4B5563;stroke-width:1;"/><polygon fill="#4B5563" points="1768.99,415.05,1765.4481,405.86,1765.452,411.5169,1759.7952,411.5208,1768.99,415.05" style="stroke:#4B5563;stroke-width:1;stroke-linejoin:miter;stroke-miterlimit:10;"/></g><!--link TOOLS to AGENT_RUNNER--><g class="link" data-entity-1="ent0021" data-entity-2="ent0025" data-link-type="dependency" data-source-line="69" id="lnk51"><path d="M1120.45,315.71 C1138.81,324.27 1159.98,333.17 1180,339.3 C1242.11,358.33 1259.34,358.05 1324,364.3 C1366.37,368.4 1666.86,358.14 1707,372.3 C1731.53,380.96 1750.8784,397.0406 1765.4384,411.5506" fill="none" id="TOOLS-to-AGENT_RUNNER" style="stroke:#4B5563;stroke-width:1;"/><polygon fill="#4B5563" points="1768.98,415.08,1765.4287,405.8937,1765.4384,411.5506,1759.7815,411.5603,1768.98,415.08" style="stroke:#4B5563;stroke-width:1;stroke-linejoin:miter;stroke-miterlimit:10;"/></g><!--link GATEWAY to APP--><g class="link" data-entity-1="ent0022" data-entity-2="ent0024" data-link-type="dependency" data-source-line="70" id="lnk52"><path d="M1292.02,315.44 C1310.18,332.85 1336.73,354.45 1365,364.3 C1417.26,382.52 1809.91,356.69 1863,372.3 C1891.91,380.8 1916.742,397.369 1935.352,411.929" fill="none" id="GATEWAY-to-APP" style="stroke:#4B5563;stroke-width:1;"/><polygon fill="#4B5563" points="1939.29,415.01,1934.6664,406.3139,1935.352,411.929,1929.7369,412.6146,1939.29,415.01" style="stroke:#4B5563;stroke-width:1;stroke-linejoin:miter;stroke-miterlimit:10;"/></g><?plantuml-src ZLHDR-Cs4BthLn3PYzjyRDCckq4F1HH5ThoLRS5IR1Ge8D0IBREXIO6YaZKMsz_U8IdQL3Q7NYnpPXxdpPlXjC-KDrZYFThWyhcMekDL99YGI4dCMt0HheBs6DNkS2LUAQ_H5hEMU9wAR777L4w-gf3Hcky1Y4hu8TAB2gKKhpR1XvlDxUsdtpnd2XHmJUw5h8ZiWpxTVBwvsxmJzB_eIb8gp6j6qBS0eS75VNQ4neAhtdPzVNttwsST-URs3zkxBTwMmVT0YGOfWJP2AG55Kvs12XuqbXOwYxz2nHmpb8bEbgGzGxX5H-Etu4JfBEOlL0ghr0fBYZUCj7_pqJoSB-uNUV7pJnOyN_ceIF0jhT6OCWAn_twyufWBuFEnD8whVrh1BN0yJM8VcP0QbmVaNM3P9V4aZFw2uev53Ay4nBuH76YQS8i_sg2c8oxjDeoMA4odQ5GKb5DL55VDmTAPwbdOuf8CLM02LuLDDBA1oI9yy2Dgelg0ei5grqTDuZmDyyTtf8aORhME-Q4XbndU4XIMq8dMugB5V3oT-DL6GXAKY1gOZpGR8e-SjSjw1fnJe86Mf1Miqzs7N0zs_D4vYheMHiF2bt6sI5Q39cZP0OehU4I0Uyh7btVeIxQOEyImTXE-bbJPy5GIfGuebHJ4h2nalPpcWnHPkIDxZ6QqbhYdjoAoXN_egG5RHNefPjF9CXnYqqE5kO9wLvZHoi1Dw2fCfWzlObtDOyoONX-G9uRtBQ6yKhmGsMiu3fFaFep-z2L_m0e8YeemD6eDtQFascKz0ycZ7UOSZBR7khtNlvoZb66r5NBlUliOpkTnaWscFfc1NkA5GbyDxFOSPKI-qDB90143H5ZhiSv0QH1TGzP2FiDoASc5vGmViXUkld0IptCVdmlXyroJ3Lo6PRcxGDcEC0sFKelD5uiXsmbMv1KV34CY0VsOv-a5UWIysX2i-jc7Jgn3_MGzJRD3gyXU9swxFTJg7giz3TMSsmUEmgQ11tjgSvYcFognx60YzkHKRB5y0fcNxxLdXZcGSSbjEuhPPFcs8n6ZRf_0iOYIgHRnUm3B3brU_d6QDxt4ZCMy3BkgpDaDhxOF3FrtU8txOwns1Q3VKTQPnJ3qkda5_nXJraaI74qdTD2_xHCtymxj3NhnzaaCmesbPpD3vvtj57a6EngUmJLThyS-gzqkda5Bv4x7sljDES3ucQ7dZg5FrxHDqtHyNPSCrHDfDms6y8_cdhPBzHy0?></g></svg>