<svg xmlns="http://www.w3.org/2000/svg" xmlns:xlink="http://www.w3.org/1999/xlink" contentStyleType="text/css" data-diagram-type="DESCRIPTION" height="709px" preserveAspectRatio="none" style="width:1013px;height:709px;background:#FFFFFF;" version="1.1" viewBox="0 0 1013 709" width="1013px" zoomAndPan="magnify"><?plantuml 1.2026.5?><defs/><rect data-xfeat-white-canvas="true" fill="#FFFFFF" height="100%" width="100%" x="0" y="0"/><g><!--cluster External--><g class="cluster" data-qualified-name="External" data-source-line="3" id="ent0001"><rect fill="#FFFFFF" height="83" rx="4" ry="4" style="stroke:#CBD5E1;stroke-width:1;" width="526" x="201" y="7"/><text fill="#0F172A" font-family="Helvetica" font-size="14" font-weight="700" lengthAdjust="spacing" textLength="136.1582" x="395.9209" y="19.7803">External Consumers</text></g><!--cluster Utils--><g class="cluster" data-qualified-name="Utils" data-source-line="8" id="ent0005"><rect fill="#FFFFFF" height="442" rx="4" ry="4" style="stroke:#CBD5E1;stroke-width:1;" width="987" x="12" y="123"/><text fill="#0F172A" font-family="Helvetica" font-size="14" font-weight="700" lengthAdjust="spacing" textLength="169.5313" x="420.7344" y="135.7803">nanobot/utils Component</text></g><!--cluster Init--><g class="cluster" data-qualified-name="Utils.Init" data-source-line="9" id="ent0006"><rect fill="#FFFFFF" height="97" rx="4" ry="4" style="stroke:#CBD5E1;stroke-width:1;" width="168" x="413" y="164"/><text fill="#0F172A" font-family="Helvetica" font-size="14" font-weight="700" lengthAdjust="spacing" text-decoration="underline" textLength="20.9932" x="476.3896" y="176.7803">init</text><text fill="#0F172A" font-family="Helvetica" font-size="14" font-weight="700" lengthAdjust="spacing" textLength="20.2275" x="497.3828" y="176.7803">.py</text></g><!--cluster Helpers--><g class="cluster" data-qualified-name="Utils.Helpers" data-source-line="12" id="ent0008"><rect fill="#FFFFFF" height="247" rx="4" ry="4" style="stroke:#CBD5E1;stroke-width:1;" width="939" x="36" y="294"/><text fill="#0F172A" font-family="Helvetica" font-size="14" font-weight="700" lengthAdjust="spacing" textLength="70.0273" x="470.4863" y="306.7803">helpers.py</text></g><!--cluster PathMgmt--><g class="cluster" data-qualified-name="Utils.Helpers.PathMgmt" data-source-line="13" id="ent0009"><rect fill="#FFFFFF" height="83" rx="4" ry="4" style="stroke:#CBD5E1;stroke-width:1;" width="351" x="422" y="335"/><text fill="#0F172A" font-family="Helvetica" font-size="14" font-weight="700" lengthAdjust="spacing" textLength="119.7998" x="537.6001" y="347.7803">Path Management</text></g><!--cluster FileOps--><g class="cluster" data-qualified-name="Utils.Helpers.FileOps" data-source-line="17" id="ent0012"><rect fill="#FFFFFF" height="182" rx="4" ry="4" style="stroke:#CBD5E1;stroke-width:1;" width="338" x="60" y="335"/><text fill="#0F172A" font-family="Helvetica" font-size="14" font-weight="700" lengthAdjust="spacing" textLength="101.9102" x="178.0449" y="347.7803">File Operations</text></g><!--cluster Utilities--><g class="cluster" data-qualified-name="Utils.Helpers.Utilities" data-source-line="22" id="ent0016"><rect fill="#FFFFFF" height="83" rx="4" ry="4" style="stroke:#CBD5E1;stroke-width:1;" width="154" x="797" y="335"/><text fill="#0F172A" font-family="Helvetica" font-size="14" font-weight="700" lengthAdjust="spacing" textLength="50.5654" x="848.7173" y="347.7803">Utilities</text></g><!--cluster FileSystem--><g class="cluster" data-qualified-name="FileSystem" data-source-line="27" id="ent0018"><rect fill="#FFFFFF" height="97" rx="4" ry="4" style="stroke:#CBD5E1;stroke-width:1;" width="755" x="7" y="598"/><text fill="#0F172A" font-family="Helvetica" font-size="14" font-weight="700" lengthAdjust="spacing" textLength="113.6201" x="327.6899" y="610.7803">Filesystem Layer</text></g><!--entity APP--><g class="entity" data-qualified-name="External.APP" data-source-line="4" id="ent0002"><rect fill="#FFFFFF" height="34" rx="4" ry="4" style="stroke:#64748B;stroke-width:0.5;" width="179.5439" x="217.23" y="40"/><text fill="#0F172A" font-family="Helvetica" font-size="14" lengthAdjust="spacing" textLength="159.5439" x="227.23" y="60.7803">Nanobot Core Application</text></g><!--entity CLI--><g class="entity" data-qualified-name="External.CLI" data-source-line="5" id="ent0003"><rect fill="#FFFFFF" height="34" rx="4" ry="4" style="stroke:#64748B;stroke-width:0.5;" width="117.2549" x="438.37" y="40"/><text fill="#0F172A" font-family="Helvetica" font-size="14" lengthAdjust="spacing" textLength="97.2549" x="448.37" y="60.7803">CLI Commands</text></g><!--entity AGENTS--><g class="entity" data-qualified-name="External.AGENTS" data-source-line="6" id="ent0004"><rect fill="#FFFFFF" height="34" rx="4" ry="4" style="stroke:#64748B;stroke-width:0.5;" width="113.3926" x="597.3" y="40"/><text fill="#0F172A" font-family="Helvetica" font-size="14" lengthAdjust="spacing" textLength="93.3926" x="607.3" y="60.7803">Agent Modules</text></g><!--entity ALLEXPORT--><g class="entity" data-qualified-name="Utils.Init.ALLEXPORT" data-source-line="10" id="ent0007"><rect fill="#FFFFFF" height="48" rx="4" ry="4" style="stroke:#64748B;stroke-width:0.5;" width="135.9375" x="429.03" y="197"/><text fill="#0F172A" font-family="Helvetica" font-size="14" lengthAdjust="spacing" textLength="115.9375" x="439.03" y="217.7803">Public API Exports</text><text fill="#0F172A" font-family="Helvetica" font-size="14" lengthAdjust="spacing" textLength="4.6621" x="485.3332" y="231.7803">(</text><text fill="#0F172A" font-family="Helvetica" font-size="14" lengthAdjust="spacing" text-decoration="underline" textLength="14.0068" x="489.9953" y="231.7803">all</text><text fill="#0F172A" font-family="Helvetica" font-size="14" lengthAdjust="spacing" textLength="4.6621" x="504.0022" y="231.7803">)</text></g><!--entity GETWP--><g class="entity" data-qualified-name="Utils.Helpers.PathMgmt.GETWP" data-source-line="14" id="ent0010"><rect fill="#FFFFFF" height="34" rx="4" ry="4" style="stroke:#64748B;stroke-width:0.5;" width="158.5234" x="598.74" y="368"/><text fill="#0F172A" font-family="Helvetica" font-size="14" lengthAdjust="spacing" textLength="138.5234" x="608.74" y="388.7803">get_workspace_path()</text></g><!--entity GETDP--><g class="entity" data-qualified-name="Utils.Helpers.PathMgmt.GETDP" data-source-line="15" id="ent0011"><rect fill="#FFFFFF" height="34" rx="4" ry="4" style="stroke:#64748B;stroke-width:0.5;" width="118.8545" x="437.57" y="368"/><text fill="#0F172A" font-family="Helvetica" font-size="14" lengthAdjust="spacing" textLength="98.8545" x="447.57" y="388.7803">get_data_path()</text></g><!--entity ENSURE--><g class="entity" data-qualified-name="Utils.Helpers.FileOps.ENSURE" data-source-line="18" id="ent0013"><rect fill="#FFFFFF" height="34" rx="4" ry="4" style="stroke:#64748B;stroke-width:0.5;" width="95.4756" x="81.26" y="467"/><text fill="#0F172A" font-family="Helvetica" font-size="14" lengthAdjust="spacing" textLength="75.4756" x="91.26" y="487.7803">ensure_dir()</text></g><!--entity SANITIZE--><g class="entity" data-qualified-name="Utils.Helpers.FileOps.SANITIZE" data-source-line="19" id="ent0014"><rect fill="#FFFFFF" height="34" rx="4" ry="4" style="stroke:#64748B;stroke-width:0.5;" width="137.4961" x="244.25" y="368"/><text fill="#0F172A" font-family="Helvetica" font-size="14" lengthAdjust="spacing" textLength="117.4961" x="254.25" y="388.7803">sanitize_filename()</text></g><!--entity SYNC--><g class="entity" data-qualified-name="Utils.Helpers.FileOps.SYNC" data-source-line="20" id="ent0015"><rect fill="#FFFFFF" height="34" rx="4" ry="4" style="stroke:#64748B;stroke-width:0.5;" width="126.5928" x="75.7" y="368"/><text fill="#0F172A" font-family="Helvetica" font-size="14" lengthAdjust="spacing" textLength="106.5928" x="85.7" y="388.7803">sync_templates()</text></g><!--entity TIMESTAMP--><g class="entity" data-qualified-name="Utils.Helpers.Utilities.TIMESTAMP" data-source-line="23" id="ent0017"><rect fill="#FFFFFF" height="34" rx="4" ry="4" style="stroke:#64748B;stroke-width:0.5;" width="121.1445" x="813.43" y="368"/><text fill="#0F172A" font-family="Helvetica" font-size="14" lengthAdjust="spacing" textLength="101.1445" x="823.43" y="388.7803">get_timestamp()</text></g><!--entity DATA_DIR--><g class="entity" data-qualified-name="FileSystem.DATA_DIR" data-source-line="28" id="ent0019"><rect fill="#FFFFFF" height="48" rx="4" ry="4" style="stroke:#64748B;stroke-width:0.5;" width="118.793" x="22.6" y="631"/><text fill="#0F172A" font-family="Helvetica" font-size="14" lengthAdjust="spacing" textLength="62.2754" x="50.8588" y="651.7803">/.nanobot/</text><text fill="#0F172A" font-family="Helvetica" font-size="14" lengthAdjust="spacing" textLength="98.793" x="32.6" y="665.7803">(Data Directory)</text></g><!--entity WORKSPACE--><g class="entity" data-qualified-name="FileSystem.WORKSPACE" data-source-line="29" id="ent0020"><rect fill="#FFFFFF" height="48" rx="4" ry="4" style="stroke:#64748B;stroke-width:0.5;" width="153.082" x="592.46" y="631"/><text fill="#0F172A" font-family="Helvetica" font-size="14" lengthAdjust="spacing" textLength="133.082" x="602.46" y="651.7803">/.nanobot/workspace/</text><text fill="#0F172A" font-family="Helvetica" font-size="14" lengthAdjust="spacing" textLength="112.8066" x="612.5977" y="665.7803">(Workspace Root)</text></g><!--entity MEMORY--><g class="entity" data-qualified-name="FileSystem.MEMORY" data-source-line="30" id="ent0021"><rect fill="#FFFFFF" height="34" rx="4" ry="4" style="stroke:#64748B;stroke-width:0.5;" width="74.4482" x="183.78" y="638"/><text fill="#0F172A" font-family="Helvetica" font-size="14" lengthAdjust="spacing" textLength="54.4482" x="193.78" y="658.7803">memory/</text></g><!--entity SKILLS--><g class="entity" data-qualified-name="FileSystem.SKILLS" data-source-line="31" id="ent0022"><rect fill="#FFFFFF" height="34" rx="4" ry="4" style="stroke:#64748B;stroke-width:0.5;" width="54.2207" x="299.89" y="638"/><text fill="#0F172A" font-family="Helvetica" font-size="14" lengthAdjust="spacing" textLength="34.2207" x="309.89" y="658.7803">skills/</text></g><!--entity TEMPLATES--><g class="entity" data-qualified-name="FileSystem.TEMPLATES" data-source-line="32" id="ent0023"><rect fill="#FFFFFF" height="48" rx="4" ry="4" style="stroke:#64748B;stroke-width:0.5;" width="154.6133" x="395.69" y="631"/><text fill="#0F172A" font-family="Helvetica" font-size="14" lengthAdjust="spacing" textLength="120.627" x="412.6832" y="651.7803">Bundled Templates</text><text fill="#0F172A" font-family="Helvetica" font-size="14" lengthAdjust="spacing" textLength="134.6133" x="405.69" y="665.7803">(Package Resources)</text></g><!--link APP to ALLEXPORT--><g class="link" data-entity-1="ent0002" data-entity-2="ent0007" data-link-type="dependency" data-source-line="34" id="lnk24"><path d="M326.26,74.42 C360.13,103.3 426.6456,160.0055 465.6456,193.2655" fill="none" id="APP-to-ALLEXPORT" style="stroke:#64748B;stroke-width:1.1;"/><polygon fill="#64748B" points="469.45,196.51,465.1977,187.6264,465.6456,193.2655,460.0065,193.7135,469.45,196.51" style="stroke:#64748B;stroke-width:1.1;stroke-linejoin:miter;stroke-miterlimit:10;"/></g><!--link CLI to ALLEXPORT--><g class="link" data-entity-1="ent0003" data-entity-2="ent0007" data-link-type="dependency" data-source-line="35" id="lnk25"><path d="M497,74.42 C497,103.3 497,158.25 497,191.51" fill="none" id="CLI-to-ALLEXPORT" style="stroke:#64748B;stroke-width:1.1;"/><polygon fill="#64748B" points="497,196.51,501,187.51,497,191.51,493,187.51,497,196.51" style="stroke:#64748B;stroke-width:1.1;stroke-linejoin:miter;stroke-miterlimit:10;"/></g><!--link AGENTS to ALLEXPORT--><g class="link" data-entity-1="ent0004" data-entity-2="ent0007" data-link-type="dependency" data-source-line="36" id="lnk26"><path d="M638.08,74.42 C610.1,103.3 555.4689,159.6588 523.2489,192.9188" fill="none" id="AGENTS-to-ALLEXPORT" style="stroke:#64748B;stroke-width:1.1;"/><polygon fill="#64748B" points="519.77,196.51,528.9051,192.8289,523.2489,192.9188,523.1591,187.2626,519.77,196.51" style="stroke:#64748B;stroke-width:1.1;stroke-linejoin:miter;stroke-miterlimit:10;"/></g><!--link ALLEXPORT to GETWP--><g class="link" data-entity-1="ent0007" data-entity-2="ent0010" data-link-type="dependency" data-source-line="37" id="lnk27"><path d="M526.33,245.47 C549.17,263.73 577,286 577,286 C577,286 629.0523,336.4974 657.7323,364.3374" fill="none" id="ALLEXPORT-to-GETWP" style="stroke:#64748B;stroke-width:1.1;"/><polygon fill="#64748B" points="661.32,367.82,657.6483,358.6812,657.7323,364.3374,652.0761,364.4215,661.32,367.82" style="stroke:#64748B;stroke-width:1.1;stroke-linejoin:miter;stroke-miterlimit:10;"/></g><!--link ALLEXPORT to GETDP--><g class="link" data-entity-1="ent0007" data-entity-2="ent0011" data-link-type="dependency" data-source-line="38" id="lnk28"><path d="M497,245.21 C497,278.46 497,333.8 497,362.71" fill="none" id="ALLEXPORT-to-GETDP" style="stroke:#64748B;stroke-width:1.1;"/><polygon fill="#64748B" points="497,367.71,501,358.71,497,362.71,493,358.71,497,367.71" style="stroke:#64748B;stroke-width:1.1;stroke-linejoin:miter;stroke-miterlimit:10;"/></g><!--link ALLEXPORT to ENSURE--><g class="link" data-entity-1="ent0007" data-entity-2="ent0013" data-link-type="dependency" data-source-line="39" id="lnk29"><path d="M565.27,231.58 C692.48,249.44 953,286 953,286 C953,286 953,426 953,426 C953,426 358.3981,467.135 182.1581,479.325" fill="none" id="ALLEXPORT-to-ENSURE" style="stroke:#64748B;stroke-width:1.1;"/><polygon fill="#64748B" points="177.17,479.67,186.4246,483.0394,182.1581,479.325,185.8725,475.0585,177.17,479.67" style="stroke:#64748B;stroke-width:1.1;stroke-linejoin:miter;stroke-miterlimit:10;"/></g><!--link ALLEXPORT to SANITIZE--><g class="link" data-entity-1="ent0007" data-entity-2="ent0014" data-link-type="dependency" data-source-line="40" id="lnk30"><path d="M468.77,245.47 C446.79,263.73 420,286 420,286 C420,286 364.7468,336.6025 334.3568,364.4425" fill="none" id="ALLEXPORT-to-SANITIZE" style="stroke:#64748B;stroke-width:1.1;"/><polygon fill="#64748B" points="330.67,367.82,340.0083,364.69,334.3568,364.4425,334.6043,358.7911,330.67,367.82" style="stroke:#64748B;stroke-width:1.1;stroke-linejoin:miter;stroke-miterlimit:10;"/></g><!--link ALLEXPORT to SYNC--><g class="link" data-entity-1="ent0007" data-entity-2="ent0015" data-link-type="dependency" data-source-line="41" id="lnk31"><path d="M428.57,237.98 C347.41,256.94 223,286 223,286 C223,286 179.9837,336.1835 156.1237,364.0235" fill="none" id="ALLEXPORT-to-SYNC" style="stroke:#64748B;stroke-width:1.1;"/><polygon fill="#64748B" points="152.87,367.82,161.7639,363.5893,156.1237,364.0235,155.6895,358.3834,152.87,367.82" style="stroke:#64748B;stroke-width:1.1;stroke-linejoin:miter;stroke-miterlimit:10;"/></g><!--link GETWP to ENSURE--><g class="link" data-entity-1="ent0010" data-entity-2="ent0013" data-link-type="dependency" data-source-line="42" id="lnk32"><path d="M636.63,402.38 C608.74,413.43 577,426 577,426 C577,426 202,434 202,434 C202,434 178.6915,449.6434 157.4615,463.8934" fill="none" id="GETWP-to-ENSURE" style="stroke:#64748B;stroke-width:1.1;"/><polygon fill="#64748B" points="153.31,466.68,163.012,464.9854,157.4615,463.8934,158.5535,458.343,153.31,466.68" style="stroke:#64748B;stroke-width:1.1;stroke-linejoin:miter;stroke-miterlimit:10;"/></g><!--link GETWP to WORKSPACE--><g class="link" data-entity-1="ent0010" data-entity-2="ent0020" data-link-type="dependency" data-source-line="43" id="lnk33"><path d="M714.87,402.38 C746.15,416.29 786,434 786,434 C786,434 786,582 786,582 C786,582 745.4084,606.9797 711.2484,627.9997" fill="none" id="GETWP-to-WORKSPACE" style="stroke:#64748B;stroke-width:1.1;"/><polygon fill="#64748B" points="706.99,630.62,716.7514,629.3101,711.2484,627.9997,712.5588,622.4967,706.99,630.62" style="stroke:#64748B;stroke-width:1.1;stroke-linejoin:miter;stroke-miterlimit:10;"/></g><!--link GETDP to ENSURE--><g class="link" data-entity-1="ent0011" data-entity-2="ent0013" data-link-type="dependency" data-source-line="44" id="lnk34"><path d="M457.27,402.38 C430.48,413.43 400,426 400,426 C400,426 179,434 179,434 C179,434 163.761,448.9303 149.221,463.1803" fill="none" id="GETDP-to-ENSURE" style="stroke:#64748B;stroke-width:1.1;"/><polygon fill="#64748B" points="145.65,466.68,154.8775,463.2372,149.221,463.1803,149.2779,457.5237,145.65,466.68" style="stroke:#64748B;stroke-width:1.1;stroke-linejoin:miter;stroke-miterlimit:10;"/></g><!--link GETDP to DATA_DIR--><g class="link" data-entity-1="ent0011" data-entity-2="ent0019" data-link-type="dependency" data-source-line="45" id="lnk35"><path d="M529.95,402.27 C552.37,413.34 578,426 578,426 C578,426 712,467 712,467 C712,467 712,573 712,573 C712,573 163,590 163,590 C163,590 138.7438,609.171 115.6238,627.431" fill="none" id="GETDP-to-DATA_DIR" style="stroke:#64748B;stroke-width:1.1;"/><polygon fill="#64748B" points="111.7,630.53,121.242,628.0909,115.6238,627.431,116.2837,621.8128,111.7,630.53" style="stroke:#64748B;stroke-width:1.1;stroke-linejoin:miter;stroke-miterlimit:10;"/></g><!--link SYNC to TEMPLATES--><g class="link" data-entity-1="ent0015" data-entity-2="ent0023" data-link-type="dependency" data-source-line="46" id="lnk36"><path d="M172.79,402.38 C201.47,416.29 238,434 238,434 C238,434 294,467 294,467 C294,467 399.2524,576.9582 447.2324,627.0782" fill="none" id="SYNC-to-TEMPLATES" style="stroke:#64748B;stroke-width:1.1;"/><polygon fill="#64748B" points="450.69,630.69,447.3558,621.4227,447.2324,627.0782,441.5769,626.9548,450.69,630.69" style="stroke:#64748B;stroke-width:1.1;stroke-linejoin:miter;stroke-miterlimit:10;"/></g><!--link SYNC to ENSURE--><g class="link" data-entity-1="ent0015" data-entity-2="ent0013" data-link-type="dependency" data-source-line="47" id="lnk37"><path d="M137.3,402.45 C135.45,420.4 133.0227,443.9664 131.1827,461.8164" fill="none" id="SYNC-to-ENSURE" style="stroke:#64748B;stroke-width:1.1;"/><polygon fill="#64748B" points="130.67,466.79,135.5718,458.2476,131.1827,461.8164,127.6139,457.4273,130.67,466.79" style="stroke:#64748B;stroke-width:1.1;stroke-linejoin:miter;stroke-miterlimit:10;"/></g><!--link SYNC to MEMORY--><g class="link" data-entity-1="ent0015" data-entity-2="ent0021" data-link-type="dependency" data-source-line="48" id="lnk38"><path d="M150.94,402.39 C168.18,426.06 198,467 198,467 C198,467 212.7891,587.2775 218.3891,632.7675" fill="none" id="SYNC-to-MEMORY" style="stroke:#64748B;stroke-width:1.1;"/><polygon fill="#64748B" points="219,637.73,221.8704,628.3087,218.3891,632.7675,213.9303,629.2862,219,637.73" style="stroke:#64748B;stroke-width:1.1;stroke-linejoin:miter;stroke-miterlimit:10;"/></g><!--link SYNC to SKILLS--><g class="link" data-entity-1="ent0015" data-entity-2="ent0022" data-link-type="dependency" data-source-line="49" id="lnk39"><path d="M161.68,402.25 C181.12,416.18 206,434 206,434 C206,434 237,467 237,467 C237,467 295.1011,587.7349 317.0011,633.2249" fill="none" id="SYNC-to-SKILLS" style="stroke:#64748B;stroke-width:1.1;"/><polygon fill="#64748B" points="319.17,637.73,318.8701,627.8857,317.0011,633.2249,311.6619,631.3559,319.17,637.73" style="stroke:#64748B;stroke-width:1.1;stroke-linejoin:miter;stroke-miterlimit:10;"/></g><!--link SYNC to WORKSPACE--><g class="link" data-entity-1="ent0015" data-entity-2="ent0020" data-link-type="dependency" data-source-line="50" id="lnk40"><path d="M173.17,402.27 C196.42,413.34 223,426 223,426 C223,426 271,434 271,434 C271,434 377,467 377,467 C377,467 542,573 542,573 C542,573 571,590 571,590 C571,590 600.9137,609.536 628.8737,627.796" fill="none" id="SYNC-to-WORKSPACE" style="stroke:#64748B;stroke-width:1.1;"/><polygon fill="#64748B" points="633.06,630.53,627.7118,622.2598,628.8737,627.796,623.3374,628.9579,633.06,630.53" style="stroke:#64748B;stroke-width:1.1;stroke-linejoin:miter;stroke-miterlimit:10;"/></g><!--link ENSURE to WORKSPACE--><g class="link" data-entity-1="ent0013" data-entity-2="ent0020" data-link-type="dependency" data-source-line="51" id="lnk41"><path d="M177.04,497.98 C274.87,524.41 488,582 488,582 C488,582 571,590 571,590 C571,590 600.9137,609.536 628.8737,627.796" fill="none" id="ENSURE-to-WORKSPACE" style="stroke:#64748B;stroke-width:1.1;"/><polygon fill="#64748B" points="633.06,630.53,627.7118,622.2598,628.8737,627.796,623.3374,628.9579,633.06,630.53" style="stroke:#64748B;stroke-width:1.1;stroke-linejoin:miter;stroke-miterlimit:10;"/></g><!--link ENSURE to DATA_DIR--><g class="link" data-entity-1="ent0013" data-entity-2="ent0019" data-link-type="dependency" data-source-line="52" id="lnk42"><path d="M124.49,501.2 C116.13,531.28 99.5199,591.0029 89.8399,625.8029" fill="none" id="ENSURE-to-DATA_DIR" style="stroke:#64748B;stroke-width:1.1;"/><polygon fill="#64748B" points="88.5,630.62,94.7656,623.0211,89.8399,625.8029,87.0582,620.8772,88.5,630.62" style="stroke:#64748B;stroke-width:1.1;stroke-linejoin:miter;stroke-miterlimit:10;"/></g><!--link SANITIZE to WORKSPACE--><g class="link" data-entity-1="ent0014" data-entity-2="ent0020" data-link-type="dependency" data-source-line="53" id="lnk43"><path d="M356.83,402.38 C386.38,413.43 420,426 420,426 C420,426 531,434 531,434 C531,434 616.403,570.1544 651.833,626.6344" fill="none" id="SANITIZE-to-WORKSPACE" style="stroke:#64748B;stroke-width:1.1;"/><polygon fill="#64748B" points="654.49,630.87,653.0959,621.1203,651.833,626.6344,646.3189,625.3715,654.49,630.87" style="stroke:#64748B;stroke-width:1.1;stroke-linejoin:miter;stroke-miterlimit:10;"/><text fill="#334155" font-family="Helvetica" font-size="12" lengthAdjust="spacing" textLength="83.373" x="618.09" y="487.2402">Safe Filenames</text></g><?plantuml-src TLDDRzim3BtdLsWzTOUsznq6U8dN6RKJmtRHTXWWg36R6D4NB1bRLdI_VPJbxw8ty_dnaNoaFbLopviIYAxL2nXJASdubJs2WEkg4NnbbIPMaMTbhHAah6hOMoIjDDkVs078HVZ7Ger9PAsaQGJKve8mGmRuTULIc3nm96-PL2Y5t1f8e3Mlzip9jIb1cawvwpX2dX1CbbuIWUd_u03IaaIL3GTF26x3RP6ltiRcfAztqzYA6wUcbSIibdtVOgyZcT9ALfRIQtrk2H56y_RJvXaxnaOZd4-hsffVyf9InZcbdtqBSHm-fhkic7Pn1AxHbrxtXm-dfLDcZoHX4WFHz-Umv20MBHp0qj-gFXdC1QgHS-ahtuR5Gxfabioo1McJJblxNY5rX-sqQ_0sEcodpRmku79he7W0dLIupU-pS4en30sh_W9zGG7917JCFDX6HVHppZtBFRKWD6SMJ4zysgwdpRaDeMAttI5wRuYj11ZBXEw4YYW9yo98tAXlot7DsM1X4hCprCEykGTdolzkhllxmJLlq4goQUzVrMTVPnCK0Tr4sGTPmvvS_aCVa4mfw_CVTjbTdWRhcJK211QuQGb9cEoofvbnfufpu__cTr4SvzE_tnfPSYX9qJkBXTDk-0oCQkezcCwZC4dZe0ZTUy6NHwwklawkrps-EU8VrnBilrhSd-0xRBF4kjEPWyELB61t4wtmD7K4HWlRIWjI1mnxScejCau_G5tM47VU3t7dzX2FbNtcn-1OlfjnJYLVICvUeBr3zspCVm00?></g></svg>