<svg xmlns="http://www.w3.org/2000/svg" xmlns:xlink="http://www.w3.org/1999/xlink" contentStyleType="text/css" data-diagram-type="DESCRIPTION" height="570px" preserveAspectRatio="none" style="width:4248px;height:570px;" version="1.1" viewBox="0 0 4248 570" width="4248px" zoomAndPan="magnify"><?plantuml 1.2026.5?><defs><style><![CDATA[
@media (prefers-color-scheme: dark) {
  text { fill: #e5e7eb !important; }
  path, line, rect, circle, ellipse, polygon, polyline { stroke: #cbd5e1 !important; }
  .entity rect, .participant rect, .participant path, .sequenceLine rect, .class rect, .component rect, .component path, .note rect { fill: #111827 !important; }
  .cluster path { fill: none !important; }
  polygon { fill: #cbd5e1 !important; }
}
]]></style></defs><g><!--cluster Users--><g class="cluster" data-qualified-name="Users" data-source-line="13" id="ent0001"><path d="M2723.5,65.49 L2788.8223,65.49 A3.75,3.75 0 0 1 2791.3223,67.99 L2798.3223,87.9783 L3063.5,87.9783 A2.5,2.5 0 0 1 3066,90.4783 L3066,150.48 A2.5,2.5 0 0 1 3063.5,152.98 L2723.5,152.98 A2.5,2.5 0 0 1 2721,150.48 L2721,67.99 A2.5,2.5 0 0 1 2723.5,65.49" fill="none" style="stroke:#64748B;stroke-width:1.5;"/><line style="stroke:#64748B;stroke-width:1.5;" x1="2721" x2="2798.3223" y1="87.9783" y2="87.9783"/><text fill="#000000" font-family="sans-serif" font-size="14" font-weight="700" lengthAdjust="spacing" textLength="64.3223" x="2725" y="81.0252">&#128101; Users</text></g><!--cluster ChatPlatforms--><g class="cluster" data-qualified-name="ChatPlatforms" data-source-line="17" id="ent0004"><path d="M8.5,65.49 L203.6025,65.49 A3.75,3.75 0 0 1 206.1025,67.99 L213.1025,87.9783 L349.5,87.9783 A2.5,2.5 0 0 1 352,90.4783 L352,407.92 A2.5,2.5 0 0 1 349.5,410.42 L8.5,410.42 A2.5,2.5 0 0 1 6,407.92 L6,67.99 A2.5,2.5 0 0 1 8.5,65.49" fill="none" style="stroke:#64748B;stroke-width:1.5;"/><line style="stroke:#64748B;stroke-width:1.5;" x1="6" x2="213.1025" y1="87.9783" y2="87.9783"/><text fill="#000000" font-family="sans-serif" font-size="14" font-weight="700" lengthAdjust="spacing" textLength="194.1025" x="10" y="81.0252">&#128225; Chat Platform Channels</text></g><!--cluster BridgeLayer--><g class="cluster" data-qualified-name="BridgeLayer" data-source-line="28" id="ent0014"><path d="M3092.5,49 L3235.5469,49 A3.75,3.75 0 0 1 3238.0469,51.5 L3245.0469,71.4883 L3255.5,71.4883 A2.5,2.5 0 0 1 3258,73.9883 L3258,166.97 A2.5,2.5 0 0 1 3255.5,169.47 L3092.5,169.47 A2.5,2.5 0 0 1 3090,166.97 L3090,51.5 A2.5,2.5 0 0 1 3092.5,49" fill="none" style="stroke:#64748B;stroke-width:1.5;"/><line style="stroke:#64748B;stroke-width:1.5;" x1="3090" x2="3245.0469" y1="71.4883" y2="71.4883"/><text fill="#000000" font-family="sans-serif" font-size="14" font-weight="700" lengthAdjust="spacing" textLength="142.0469" x="3094" y="64.5352">&#127753; Protocol Bridges</text></g><!--cluster NanobotCore--><g class="cluster" data-qualified-name="NanobotCore" data-source-line="31" id="ent0016"><path d="M378.5,6 L568.9678,6 A3.75,3.75 0 0 1 571.4678,8.5 L578.4678,28.4883 L2292.5,28.4883 A2.5,2.5 0 0 1 2295,30.9883 L2295,553.14 A2.5,2.5 0 0 1 2292.5,555.64 L378.5,555.64 A2.5,2.5 0 0 1 376,553.14 L376,8.5 A2.5,2.5 0 0 1 378.5,6" fill="none" style="stroke:#64748B;stroke-width:1.5;"/><line style="stroke:#64748B;stroke-width:1.5;" x1="376" x2="578.4678" y1="28.4883" y2="28.4883"/><text fill="#000000" font-family="sans-serif" font-size="14" font-weight="700" lengthAdjust="spacing" textLength="189.4678" x="380" y="21.5352">&#129302; Nanobot AI Framework</text></g><!--cluster ChannelLayer--><g class="cluster" data-qualified-name="NanobotCore.ChannelLayer" data-source-line="32" id="ent0017"><path d="M402.5,57.25 L531.9063,57.25 A3.75,3.75 0 0 1 534.4063,59.75 L541.4063,79.7383 L573.5,79.7383 A2.5,2.5 0 0 1 576,82.2383 L576,158.72 A2.5,2.5 0 0 1 573.5,161.22 L402.5,161.22 A2.5,2.5 0 0 1 400,158.72 L400,59.75 A2.5,2.5 0 0 1 402.5,57.25" fill="none" style="stroke:#64748B;stroke-width:1.5;"/><line style="stroke:#64748B;stroke-width:1.5;" x1="400" x2="541.4063" y1="79.7383" y2="79.7383"/><text fill="#000000" font-family="sans-serif" font-size="14" font-weight="700" lengthAdjust="spacing" textLength="128.4063" x="404" y="72.7852">Channel Adapters</text></g><!--cluster BusLayer--><g class="cluster" data-qualified-name="NanobotCore.BusLayer" data-source-line="35" id="ent0019"><path d="M602.5,49 L696.4551,49 A3.75,3.75 0 0 1 698.9551,51.5 L705.9551,71.4883 L779.5,71.4883 A2.5,2.5 0 0 1 782,73.9883 L782,166.97 A2.5,2.5 0 0 1 779.5,169.47 L602.5,169.47 A2.5,2.5 0 0 1 600,166.97 L600,51.5 A2.5,2.5 0 0 1 602.5,49" fill="none" style="stroke:#64748B;stroke-width:1.5;"/><line style="stroke:#64748B;stroke-width:1.5;" x1="600" x2="705.9551" y1="71.4883" y2="71.4883"/><text fill="#000000" font-family="sans-serif" font-size="14" font-weight="700" lengthAdjust="spacing" textLength="92.9551" x="604" y="64.5352">Message Bus</text></g><!--cluster AgentCore--><g class="cluster" data-qualified-name="NanobotCore.AgentCore" data-source-line="38" id="ent0021"><path d="M808.5,57.25 L968.6816,57.25 A3.75,3.75 0 0 1 971.1816,59.75 L978.1816,79.7383 L1238.5,79.7383 A2.5,2.5 0 0 1 1241,82.2383 L1241,288.19 A2.5,2.5 0 0 1 1238.5,290.69 L808.5,290.69 A2.5,2.5 0 0 1 806,288.19 L806,59.75 A2.5,2.5 0 0 1 808.5,57.25" fill="none" style="stroke:#64748B;stroke-width:1.5;"/><line style="stroke:#64748B;stroke-width:1.5;" x1="806" x2="978.1816" y1="79.7383" y2="79.7383"/><text fill="#000000" font-family="sans-serif" font-size="14" font-weight="700" lengthAdjust="spacing" textLength="159.1816" x="810" y="72.7852">Core Agent (~4k LOC)</text></g><!--cluster ToolLayer--><g class="cluster" data-qualified-name="NanobotCore.ToolLayer" data-source-line="44" id="ent0026"><path d="M1267.5,57.25 L1356.7383,57.25 A3.75,3.75 0 0 1 1359.2383,59.75 L1366.2383,79.7383 L1715.5,79.7383 A2.5,2.5 0 0 1 1718,82.2383 L1718,279.94 A2.5,2.5 0 0 1 1715.5,282.44 L1267.5,282.44 A2.5,2.5 0 0 1 1265,279.94 L1265,59.75 A2.5,2.5 0 0 1 1267.5,57.25" fill="none" style="stroke:#64748B;stroke-width:1.5;"/><line style="stroke:#64748B;stroke-width:1.5;" x1="1265" x2="1366.2383" y1="79.7383" y2="79.7383"/><text fill="#000000" font-family="sans-serif" font-size="14" font-weight="700" lengthAdjust="spacing" textLength="88.2383" x="1269" y="72.7852">Tool System</text></g><!--cluster SkillLayer--><g class="cluster" data-qualified-name="NanobotCore.SkillLayer" data-source-line="51" id="ent0032"><path d="M1744.5,57.25 L1832.1592,57.25 A3.75,3.75 0 0 1 1834.6592,59.75 L1841.6592,79.7383 L2064.5,79.7383 A2.5,2.5 0 0 1 2067,82.2383 L2067,158.72 A2.5,2.5 0 0 1 2064.5,161.22 L1744.5,161.22 A2.5,2.5 0 0 1 1742,158.72 L1742,59.75 A2.5,2.5 0 0 1 1744.5,57.25" fill="none" style="stroke:#64748B;stroke-width:1.5;"/><line style="stroke:#64748B;stroke-width:1.5;" x1="1742" x2="1841.6592" y1="79.7383" y2="79.7383"/><text fill="#000000" font-family="sans-serif" font-size="14" font-weight="700" lengthAdjust="spacing" textLength="86.6592" x="1746" y="72.7852">Skill System</text></g><!--cluster ProviderLayer--><g class="cluster" data-qualified-name="NanobotCore.ProviderLayer" data-source-line="55" id="ent0035"><path d="M2093.5,49 L2253.0801,49 A3.75,3.75 0 0 1 2255.5801,51.5 L2262.5801,71.4883 L2268.5,71.4883 A2.5,2.5 0 0 1 2271,73.9883 L2271,166.97 A2.5,2.5 0 0 1 2268.5,169.47 L2093.5,169.47 A2.5,2.5 0 0 1 2091,166.97 L2091,51.5 A2.5,2.5 0 0 1 2093.5,49" fill="none" style="stroke:#64748B;stroke-width:1.5;"/><line style="stroke:#64748B;stroke-width:1.5;" x1="2091" x2="2262.5801" y1="71.4883" y2="71.4883"/><text fill="#000000" font-family="sans-serif" font-size="14" font-weight="700" lengthAdjust="spacing" textLength="158.5801" x="2095" y="64.5352">LLM Provider Registry</text></g><!--cluster SecurityLayer--><g class="cluster" data-qualified-name="NanobotCore.SecurityLayer" data-source-line="58" id="ent0037"><path d="M858.5,322.93 L960.8154,322.93 A3.75,3.75 0 0 1 963.3154,325.43 L970.3154,345.4183 L1170.5,345.4183 A2.5,2.5 0 0 1 1173,347.9183 L1173,520.9 A2.5,2.5 0 0 1 1170.5,523.4 L858.5,523.4 A2.5,2.5 0 0 1 856,520.9 L856,325.43 A2.5,2.5 0 0 1 858.5,322.93" fill="none" style="stroke:#64748B;stroke-width:1.5;"/><line style="stroke:#64748B;stroke-width:1.5;" x1="856" x2="970.3154" y1="345.4183" y2="345.4183"/><text fill="#000000" font-family="sans-serif" font-size="14" font-weight="700" lengthAdjust="spacing" textLength="101.3154" x="860" y="338.4652">Security Layer</text></g><!--cluster InfraLayer--><g class="cluster" data-qualified-name="NanobotCore.InfraLayer" data-source-line="63" id="ent0041"><path d="M1199.5,314.69 L1300.7695,314.69 A3.75,3.75 0 0 1 1303.2695,317.19 L1310.2695,337.1783 L1682.5,337.1783 A2.5,2.5 0 0 1 1685,339.6783 L1685,529.14 A2.5,2.5 0 0 1 1682.5,531.64 L1199.5,531.64 A2.5,2.5 0 0 1 1197,529.14 L1197,317.19 A2.5,2.5 0 0 1 1199.5,314.69" fill="none" style="stroke:#64748B;stroke-width:1.5;"/><line style="stroke:#64748B;stroke-width:1.5;" x1="1197" x2="1310.2695" y1="337.1783" y2="337.1783"/><text fill="#000000" font-family="sans-serif" font-size="14" font-weight="700" lengthAdjust="spacing" textLength="100.2695" x="1201" y="330.2252">Infrastructure</text></g><!--cluster LLMProviders--><g class="cluster" data-qualified-name="LLMProviders" data-source-line="71" id="ent0047"><path d="M2321.5,65.49 L2448.2295,65.49 A3.75,3.75 0 0 1 2450.7295,67.99 L2457.7295,87.9783 L2694.5,87.9783 A2.5,2.5 0 0 1 2697,90.4783 L2697,407.92 A2.5,2.5 0 0 1 2694.5,410.42 L2321.5,410.42 A2.5,2.5 0 0 1 2319,407.92 L2319,67.99 A2.5,2.5 0 0 1 2321.5,65.49" fill="none" style="stroke:#64748B;stroke-width:1.5;"/><line style="stroke:#64748B;stroke-width:1.5;" x1="2319" x2="2457.7295" y1="87.9783" y2="87.9783"/><text fill="#000000" font-family="sans-serif" font-size="14" font-weight="700" lengthAdjust="spacing" textLength="125.7295" x="2323" y="81.0252">&#129504; LLM Providers</text></g><!--cluster ExternalTools--><g class="cluster" data-qualified-name="ExternalTools" data-source-line="80" id="ent0055"><path d="M3284.5,65.49 L3458.8965,65.49 A3.75,3.75 0 0 1 3461.3965,67.99 L3468.3965,87.9783 L3565.5,87.9783 A2.5,2.5 0 0 1 3568,90.4783 L3568,150.48 A2.5,2.5 0 0 1 3565.5,152.98 L3284.5,152.98 A2.5,2.5 0 0 1 3282,150.48 L3282,67.99 A2.5,2.5 0 0 1 3284.5,65.49" fill="none" style="stroke:#64748B;stroke-width:1.5;"/><line style="stroke:#64748B;stroke-width:1.5;" x1="3282" x2="3468.3965" y1="87.9783" y2="87.9783"/><text fill="#000000" font-family="sans-serif" font-size="14" font-weight="700" lengthAdjust="spacing" textLength="173.3965" x="3286" y="81.0252">&#128295; External Tools (MCP)</text></g><!--cluster Deployment--><g class="cluster" data-qualified-name="Deployment" data-source-line="84" id="ent0058"><path d="M3594.5,57.25 L3705.999,57.25 A3.75,3.75 0 0 1 3708.499,59.75 L3715.499,79.7383 L4000.5,79.7383 A2.5,2.5 0 0 1 4003,82.2383 L4003,158.72 A2.5,2.5 0 0 1 4000.5,161.22 L3594.5,161.22 A2.5,2.5 0 0 1 3592,158.72 L3592,59.75 A2.5,2.5 0 0 1 3594.5,57.25" fill="none" style="stroke:#64748B;stroke-width:1.5;"/><line style="stroke:#64748B;stroke-width:1.5;" x1="3592" x2="3715.499" y1="79.7383" y2="79.7383"/><text fill="#000000" font-family="sans-serif" font-size="14" font-weight="700" lengthAdjust="spacing" textLength="110.499" x="3596" y="72.7852">&#128230; Deployment</text></g><!--cluster Storage--><g class="cluster" data-qualified-name="Storage" data-source-line="88" id="ent0061"><path d="M4029.5,40.76 L4185.6582,40.76 A3.75,3.75 0 0 1 4188.1582,43.26 L4195.1582,63.2483 L4230.5,63.2483 A2.5,2.5 0 0 1 4233,65.7483 L4233,175.21 A2.5,2.5 0 0 1 4230.5,177.71 L4029.5,177.71 A2.5,2.5 0 0 1 4027,175.21 L4027,43.26 A2.5,2.5 0 0 1 4029.5,40.76" fill="none" style="stroke:#64748B;stroke-width:1.5;"/><line style="stroke:#64748B;stroke-width:1.5;" x1="4027" x2="4195.1582" y1="63.2483" y2="63.2483"/><text fill="#000000" font-family="sans-serif" font-size="14" font-weight="700" lengthAdjust="spacing" textLength="155.1582" x="4031" y="56.2952">&#128190; Persistent Storage</text></g><!--entity U1--><g class="entity" data-qualified-name="Users.U1" data-source-line="14" id="ent0002"><rect fill="#F8FAFC" height="36.4883" rx="2.5" ry="2.5" style="stroke:#4B5563;stroke-width:0.5;" width="127.6416" x="2737.18" y="100.49"/><text fill="#111827" font-family="sans-serif" font-size="14" lengthAdjust="spacing" textLength="107.6416" x="2747.18" y="124.0252">&#128241; Mobile Apps</text></g><!--entity U2--><g class="entity" data-qualified-name="Users.U2" data-source-line="15" id="ent0003"><rect fill="#F8FAFC" height="36.4883" rx="2.5" ry="2.5" style="stroke:#4B5563;stroke-width:0.5;" width="150.7539" x="2899.62" y="100.49"/><text fill="#111827" font-family="sans-serif" font-size="14" lengthAdjust="spacing" textLength="130.7539" x="2909.62" y="124.0252">&#128187; Desktop Clients</text></g><!--entity TG--><g class="entity" data-qualified-name="ChatPlatforms.TG" data-source-line="18" id="ent0005"><rect fill="#F8FAFC" height="36.4883" rx="2.5" ry="2.5" style="stroke:#4B5563;stroke-width:0.5;" width="83.7588" x="22.12" y="100.49"/><text fill="#111827" font-family="sans-serif" font-size="14" lengthAdjust="spacing" textLength="63.7588" x="32.12" y="124.0252">Telegram</text></g><!--entity DC--><g class="entity" data-qualified-name="ChatPlatforms.DC" data-source-line="19" id="ent0006"><rect fill="#F8FAFC" height="36.4883" rx="2.5" ry="2.5" style="stroke:#4B5563;stroke-width:0.5;" width="71.9805" x="141.01" y="100.49"/><text fill="#111827" font-family="sans-serif" font-size="14" lengthAdjust="spacing" textLength="51.9805" x="151.01" y="124.0252">Discord</text></g><!--entity WA--><g class="entity" data-qualified-name="ChatPlatforms.WA" data-source-line="20" id="ent0007"><rect fill="#F8FAFC" height="36.4883" rx="2.5" ry="2.5" style="stroke:#4B5563;stroke-width:0.5;" width="88.0518" x="247.97" y="100.49"/><text fill="#111827" font-family="sans-serif" font-size="14" lengthAdjust="spacing" textLength="68.0518" x="257.97" y="124.0252">WhatsApp</text></g><!--entity SL--><g class="entity" data-qualified-name="ChatPlatforms.SL" data-source-line="21" id="ent0008"><rect fill="#F8FAFC" height="36.4883" rx="2.5" ry="2.5" style="stroke:#4B5563;stroke-width:0.5;" width="54.6719" x="30.66" y="229.95"/><text fill="#111827" font-family="sans-serif" font-size="14" lengthAdjust="spacing" textLength="34.6719" x="40.66" y="253.4852">Slack</text></g><!--entity FS--><g class="entity" data-qualified-name="ChatPlatforms.FS" data-source-line="22" id="ent0009"><rect fill="#F8FAFC" height="36.4883" rx="2.5" ry="2.5" style="stroke:#4B5563;stroke-width:0.5;" width="100.3154" x="119.84" y="229.95"/><text fill="#111827" font-family="sans-serif" font-size="14" lengthAdjust="spacing" textLength="80.3154" x="129.84" y="253.4852">Feishu/Lark</text></g><!--entity DT--><g class="entity" data-qualified-name="ChatPlatforms.DT" data-source-line="23" id="ent0010"><rect fill="#F8FAFC" height="36.4883" rx="2.5" ry="2.5" style="stroke:#4B5563;stroke-width:0.5;" width="80.7646" x="255.62" y="229.95"/><text fill="#111827" font-family="sans-serif" font-size="14" lengthAdjust="spacing" textLength="60.7646" x="265.62" y="253.4852">DingTalk</text></g><!--entity MX--><g class="entity" data-qualified-name="ChatPlatforms.MX" data-source-line="24" id="ent0011"><rect fill="#F8FAFC" height="36.4883" rx="2.5" ry="2.5" style="stroke:#4B5563;stroke-width:0.5;" width="63.3877" x="26.31" y="357.93"/><text fill="#111827" font-family="sans-serif" font-size="14" lengthAdjust="spacing" textLength="43.3877" x="36.31" y="381.4652">Matrix</text></g><!--entity EM--><g class="entity" data-qualified-name="ChatPlatforms.EM" data-source-line="25" id="ent0012"><rect fill="#F8FAFC" height="36.4883" rx="2.5" ry="2.5" style="stroke:#4B5563;stroke-width:0.5;" width="56.4834" x="124.76" y="357.93"/><text fill="#111827" font-family="sans-serif" font-size="14" lengthAdjust="spacing" textLength="36.4834" x="134.76" y="381.4652">Email</text></g><!--entity MC--><g class="entity" data-qualified-name="ChatPlatforms.MC" data-source-line="26" id="ent0013"><rect fill="#F8FAFC" height="36.4883" rx="2.5" ry="2.5" style="stroke:#4B5563;stroke-width:0.5;" width="69.4854" x="216.26" y="357.93"/><text fill="#111827" font-family="sans-serif" font-size="14" lengthAdjust="spacing" textLength="49.4854" x="226.26" y="381.4652">Mochat</text></g><!--entity WABRIDGE--><g class="entity" data-qualified-name="BridgeLayer.WABRIDGE" data-source-line="29" id="ent0015"><rect fill="#F8FAFC" height="69.4648" rx="2.5" ry="2.5" style="stroke:#4B5563;stroke-width:0.5;" width="135.6504" x="3106.17" y="84"/><text fill="#111827" font-family="sans-serif" font-size="14" lengthAdjust="spacing" textLength="115.6504" x="3116.17" y="107.5352">WhatsApp Bridge</text><text fill="#111827" font-family="sans-serif" font-size="14" lengthAdjust="spacing" textLength="113.9551" x="3117.0177" y="124.0234">(Node.js/Baileys)</text><text fill="#111827" font-family="sans-serif" font-size="14" lengthAdjust="spacing" textLength="71.3057" x="3138.3424" y="140.5117">bridge/src</text></g><!--entity CHMGR--><g class="entity" data-qualified-name="NanobotCore.ChannelLayer.CHMGR" data-source-line="33" id="ent0018"><rect fill="#F8FAFC" height="52.9766" rx="2.5" ry="2.5" style="stroke:#4B5563;stroke-width:0.5;" width="143.6484" x="416.18" y="92.25"/><text fill="#111827" font-family="sans-serif" font-size="14" lengthAdjust="spacing" textLength="113.7979" x="431.1053" y="115.7852">ChannelManager</text><text fill="#111827" font-family="sans-serif" font-size="14" lengthAdjust="spacing" textLength="123.6484" x="426.18" y="132.2734">nanobot/channels</text></g><!--entity BUS--><g class="entity" data-qualified-name="NanobotCore.BusLayer.BUS" data-source-line="36" id="ent0020"><rect fill="#F8FAFC" height="69.4648" rx="2.5" ry="2.5" style="stroke:#4B5563;stroke-width:0.5;" width="149.2402" x="616.38" y="84"/><text fill="#111827" font-family="sans-serif" font-size="14" lengthAdjust="spacing" textLength="82.2705" x="649.8649" y="107.5352">MessageBus</text><text fill="#111827" font-family="sans-serif" font-size="14" lengthAdjust="spacing" textLength="88.334" x="646.8331" y="124.0234">nanobot/bus</text><text fill="#111827" font-family="sans-serif" font-size="14" lengthAdjust="spacing" textLength="129.2402" x="626.38" y="140.5117">Async Event Queue</text></g><!--entity AG--><g class="entity" data-qualified-name="NanobotCore.AgentCore.AG" data-source-line="39" id="ent0022"><rect fill="#F8FAFC" height="52.9766" rx="2.5" ry="2.5" style="stroke:#4B5563;stroke-width:0.5;" width="121.8828" x="889.06" y="92.25"/><text fill="#111827" font-family="sans-serif" font-size="14" lengthAdjust="spacing" textLength="78.0186" x="910.9921" y="115.7852">Agent Loop</text><text fill="#111827" font-family="sans-serif" font-size="14" lengthAdjust="spacing" textLength="101.8828" x="899.06" y="132.2734">nanobot/agent</text></g><!--entity CTX--><g class="entity" data-qualified-name="NanobotCore.AgentCore.CTX" data-source-line="40" id="ent0023"><rect fill="#F8FAFC" height="36.4883" rx="2.5" ry="2.5" style="stroke:#4B5563;stroke-width:0.5;" width="125.4375" x="1081.28" y="100.49"/><text fill="#111827" font-family="sans-serif" font-size="14" lengthAdjust="spacing" textLength="105.4375" x="1091.28" y="124.0252">Context Builder</text></g><!--entity MEM--><g class="entity" data-qualified-name="NanobotCore.AgentCore.MEM" data-source-line="41" id="ent0024"><rect fill="#F8FAFC" height="52.9766" rx="2.5" ry="2.5" style="stroke:#4B5563;stroke-width:0.5;" width="221.0381" x="822.48" y="221.71"/><text fill="#111827" font-family="sans-serif" font-size="14" lengthAdjust="spacing" textLength="93.9053" x="886.0464" y="245.2452">Memory Store</text><text fill="#111827" font-family="sans-serif" font-size="14" lengthAdjust="spacing" textLength="201.0381" x="832.48" y="261.7334">(MEMORY.md + HISTORY.md)</text></g><!--entity SUB--><g class="entity" data-qualified-name="NanobotCore.AgentCore.SUB" data-source-line="42" id="ent0025"><rect fill="#F8FAFC" height="36.4883" rx="2.5" ry="2.5" style="stroke:#4B5563;stroke-width:0.5;" width="146.123" x="1078.94" y="229.95"/><text fill="#111827" font-family="sans-serif" font-size="14" lengthAdjust="spacing" textLength="126.123" x="1088.94" y="253.4852">Subagent Manager</text></g><!--entity TOOLS--><g class="entity" data-qualified-name="NanobotCore.ToolLayer.TOOLS" data-source-line="45" id="ent0027"><rect fill="#F8FAFC" height="52.9766" rx="2.5" ry="2.5" style="stroke:#4B5563;stroke-width:0.5;" width="162.8438" x="1280.58" y="92.25"/><text fill="#111827" font-family="sans-serif" font-size="14" lengthAdjust="spacing" textLength="84.9434" x="1319.5302" y="115.7852">ToolRegistry</text><text fill="#111827" font-family="sans-serif" font-size="14" lengthAdjust="spacing" textLength="142.8438" x="1290.58" y="132.2734">nanobot/agent/tools</text></g><!--entity FS_TOOL--><g class="entity" data-qualified-name="NanobotCore.ToolLayer.FS_TOOL" data-source-line="46" id="ent0028"><rect fill="#F8FAFC" height="36.4883" rx="2.5" ry="2.5" style="stroke:#4B5563;stroke-width:0.5;" width="91.0938" x="1478.45" y="100.49"/><text fill="#111827" font-family="sans-serif" font-size="14" lengthAdjust="spacing" textLength="71.0938" x="1488.45" y="124.0252">Filesystem</text></g><!--entity WEB_TOOL--><g class="entity" data-qualified-name="NanobotCore.ToolLayer.WEB_TOOL" data-source-line="47" id="ent0029"><rect fill="#F8FAFC" height="36.4883" rx="2.5" ry="2.5" style="stroke:#4B5563;stroke-width:0.5;" width="97.6768" x="1604.16" y="100.49"/><text fill="#111827" font-family="sans-serif" font-size="14" lengthAdjust="spacing" textLength="77.6768" x="1614.16" y="124.0252">Web Search</text></g><!--entity SHELL_TOOL--><g class="entity" data-qualified-name="NanobotCore.ToolLayer.SHELL_TOOL" data-source-line="48" id="ent0030"><rect fill="#F8FAFC" height="36.4883" rx="2.5" ry="2.5" style="stroke:#4B5563;stroke-width:0.5;" width="52.1221" x="1335.94" y="229.95"/><text fill="#111827" font-family="sans-serif" font-size="14" lengthAdjust="spacing" textLength="32.1221" x="1345.94" y="253.4852">Shell</text></g><!--entity MCP_TOOL--><g class="entity" data-qualified-name="NanobotCore.ToolLayer.MCP_TOOL" data-source-line="49" id="ent0031"><rect fill="#F8FAFC" height="36.4883" rx="2.5" ry="2.5" style="stroke:#4B5563;stroke-width:0.5;" width="97.082" x="1423.46" y="229.95"/><text fill="#111827" font-family="sans-serif" font-size="14" lengthAdjust="spacing" textLength="77.082" x="1433.46" y="253.4852">MCP Bridge</text></g><!--entity SKILLS--><g class="entity" data-qualified-name="NanobotCore.SkillLayer.SKILLS" data-source-line="52" id="ent0033"><rect fill="#F8FAFC" height="52.9766" rx="2.5" ry="2.5" style="stroke:#4B5563;stroke-width:0.5;" width="118.2939" x="1757.85" y="92.25"/><text fill="#111827" font-family="sans-serif" font-size="14" lengthAdjust="spacing" textLength="81.1357" x="1776.4291" y="115.7852">SkillsLoader</text><text fill="#111827" font-family="sans-serif" font-size="14" lengthAdjust="spacing" textLength="98.2939" x="1767.85" y="132.2734">nanobot/skills</text></g><!--entity SKILL_REGISTRY--><g class="entity" data-qualified-name="NanobotCore.SkillLayer.SKILL_REGISTRY" data-source-line="53" id="ent0034"><rect fill="#F8FAFC" height="36.4883" rx="2.5" ry="2.5" style="stroke:#4B5563;stroke-width:0.5;" width="139.3145" x="1911.34" y="100.49"/><text fill="#111827" font-family="sans-serif" font-size="14" lengthAdjust="spacing" textLength="119.3145" x="1921.34" y="124.0252">ClawHub Registry</text></g><!--entity PR--><g class="entity" data-qualified-name="NanobotCore.ProviderLayer.PR" data-source-line="56" id="ent0036"><rect fill="#F8FAFC" height="69.4648" rx="2.5" ry="2.5" style="stroke:#4B5563;stroke-width:0.5;" width="147.6064" x="2107.2" y="84"/><text fill="#111827" font-family="sans-serif" font-size="14" lengthAdjust="spacing" textLength="105.0342" x="2128.4861" y="107.5352">Provider Router</text><text fill="#111827" font-family="sans-serif" font-size="14" lengthAdjust="spacing" textLength="127.6064" x="2117.2" y="124.0234">nanobot/providers</text><text fill="#111827" font-family="sans-serif" font-size="14" lengthAdjust="spacing" textLength="60.6416" x="2150.6824" y="140.5117">(LiteLLM)</text></g><!--entity AC--><g class="entity" data-qualified-name="NanobotCore.SecurityLayer.AC" data-source-line="59" id="ent0038"><rect fill="#F8FAFC" height="36.4883" rx="2.5" ry="2.5" style="stroke:#4B5563;stroke-width:0.5;" width="121.0898" x="872.46" y="357.93"/><text fill="#111827" font-family="sans-serif" font-size="14" lengthAdjust="spacing" textLength="101.0898" x="882.46" y="381.4652">Access Control</text></g><!--entity SCMD--><g class="entity" data-qualified-name="NanobotCore.SecurityLayer.SCMD" data-source-line="60" id="ent0039"><rect fill="#F8FAFC" height="36.4883" rx="2.5" ry="2.5" style="stroke:#4B5563;stroke-width:0.5;" width="128.4521" x="1028.77" y="357.93"/><text fill="#111827" font-family="sans-serif" font-size="14" lengthAdjust="spacing" textLength="108.4521" x="1038.77" y="381.4652">Command Filter</text></g><!--entity PSAN--><g class="entity" data-qualified-name="NanobotCore.SecurityLayer.PSAN" data-source-line="61" id="ent0040"><rect fill="#F8FAFC" height="36.4883" rx="2.5" ry="2.5" style="stroke:#4B5563;stroke-width:0.5;" width="112.668" x="876.67" y="470.91"/><text fill="#111827" font-family="sans-serif" font-size="14" lengthAdjust="spacing" textLength="92.668" x="886.67" y="494.4452">Path Sanitizer</text></g><!--entity CFG--><g class="entity" data-qualified-name="NanobotCore.InfraLayer.CFG" data-source-line="64" id="ent0042"><rect fill="#F8FAFC" height="52.9766" rx="2.5" ry="2.5" style="stroke:#4B5563;stroke-width:0.5;" width="127.7959" x="1213.1" y="349.69"/><text fill="#111827" font-family="sans-serif" font-size="14" lengthAdjust="spacing" textLength="107.7959" x="1223.1" y="373.2252">Config Manager</text><text fill="#111827" font-family="sans-serif" font-size="14" lengthAdjust="spacing" textLength="106.0801" x="1223.9579" y="389.7134">nanobot/config</text></g><!--entity SESS--><g class="entity" data-qualified-name="NanobotCore.InfraLayer.SESS" data-source-line="65" id="ent0043"><rect fill="#F8FAFC" height="52.9766" rx="2.5" ry="2.5" style="stroke:#4B5563;stroke-width:0.5;" width="134.2422" x="1375.88" y="349.69"/><text fill="#111827" font-family="sans-serif" font-size="14" lengthAdjust="spacing" textLength="113.8457" x="1386.0782" y="373.2252">Session Manager</text><text fill="#111827" font-family="sans-serif" font-size="14" lengthAdjust="spacing" textLength="114.2422" x="1385.88" y="389.7134">nanobot/session</text></g><!--entity CRON--><g class="entity" data-qualified-name="NanobotCore.InfraLayer.CRON" data-source-line="66" id="ent0044"><rect fill="#F8FAFC" height="52.9766" rx="2.5" ry="2.5" style="stroke:#4B5563;stroke-width:0.5;" width="123.4072" x="1545.3" y="349.69"/><text fill="#111827" font-family="sans-serif" font-size="14" lengthAdjust="spacing" textLength="103.4072" x="1555.3" y="373.2252">Cron Scheduler</text><text fill="#111827" font-family="sans-serif" font-size="14" lengthAdjust="spacing" textLength="93.8848" x="1560.0612" y="389.7134">nanobot/cron</text></g><!--entity HB--><g class="entity" data-qualified-name="NanobotCore.InfraLayer.HB" data-source-line="67" id="ent0045"><rect fill="#F8FAFC" height="52.9766" rx="2.5" ry="2.5" style="stroke:#4B5563;stroke-width:0.5;" width="148.4609" x="1212.77" y="462.66"/><text fill="#111827" font-family="sans-serif" font-size="14" lengthAdjust="spacing" textLength="118.125" x="1227.938" y="486.1952">Heartbeat Service</text><text fill="#111827" font-family="sans-serif" font-size="14" lengthAdjust="spacing" textLength="128.4609" x="1222.77" y="502.6834">nanobot/heartbeat</text></g><!--entity TPL--><g class="entity" data-qualified-name="NanobotCore.InfraLayer.TPL" data-source-line="68" id="ent0046"><rect fill="#F8FAFC" height="52.9766" rx="2.5" ry="2.5" style="stroke:#4B5563;stroke-width:0.5;" width="150.5664" x="1396.72" y="462.66"/><text fill="#111827" font-family="sans-serif" font-size="14" lengthAdjust="spacing" textLength="70.4854" x="1436.7605" y="486.1952">Templates</text><text fill="#111827" font-family="sans-serif" font-size="14" lengthAdjust="spacing" textLength="130.5664" x="1406.72" y="502.6834">nanobot/templates</text></g><!--entity OAI--><g class="entity" data-qualified-name="LLMProviders.OAI" data-source-line="72" id="ent0048"><rect fill="#F8FAFC" height="36.4883" rx="2.5" ry="2.5" style="stroke:#4B5563;stroke-width:0.5;" width="69.8682" x="2335.07" y="100.49"/><text fill="#111827" font-family="sans-serif" font-size="14" lengthAdjust="spacing" textLength="49.8682" x="2345.07" y="124.0252">OpenAI</text></g><!--entity ANT--><g class="entity" data-qualified-name="LLMProviders.ANT" data-source-line="73" id="ent0049"><rect fill="#F8FAFC" height="36.4883" rx="2.5" ry="2.5" style="stroke:#4B5563;stroke-width:0.5;" width="86.6299" x="2439.69" y="100.49"/><text fill="#111827" font-family="sans-serif" font-size="14" lengthAdjust="spacing" textLength="66.6299" x="2449.69" y="124.0252">Anthropic</text></g><!--entity GEM--><g class="entity" data-qualified-name="LLMProviders.GEM" data-source-line="74" id="ent0050"><rect fill="#F8FAFC" height="36.4883" rx="2.5" ry="2.5" style="stroke:#4B5563;stroke-width:0.5;" width="120.0918" x="2560.95" y="100.49"/><text fill="#111827" font-family="sans-serif" font-size="14" lengthAdjust="spacing" textLength="100.0918" x="2570.95" y="124.0252">Google Gemini</text></g><!--entity DSK--><g class="entity" data-qualified-name="LLMProviders.DSK" data-source-line="75" id="ent0051"><rect fill="#F8FAFC" height="36.4883" rx="2.5" ry="2.5" style="stroke:#4B5563;stroke-width:0.5;" width="86.2197" x="2338.89" y="229.95"/><text fill="#111827" font-family="sans-serif" font-size="14" lengthAdjust="spacing" textLength="66.2197" x="2348.89" y="253.4852">DeepSeek</text></g><!--entity GRQ--><g class="entity" data-qualified-name="LLMProviders.GRQ" data-source-line="76" id="ent0052"><rect fill="#F8FAFC" height="36.4883" rx="2.5" ry="2.5" style="stroke:#4B5563;stroke-width:0.5;" width="53.2568" x="2460.37" y="229.95"/><text fill="#111827" font-family="sans-serif" font-size="14" lengthAdjust="spacing" textLength="33.2568" x="2470.37" y="253.4852">Groq</text></g><!--entity VLL--><g class="entity" data-qualified-name="LLMProviders.VLL" data-source-line="77" id="ent0053"><rect fill="#F8FAFC" height="36.4883" rx="2.5" ry="2.5" style="stroke:#4B5563;stroke-width:0.5;" width="96.5898" x="2548.71" y="229.95"/><text fill="#111827" font-family="sans-serif" font-size="14" lengthAdjust="spacing" textLength="76.5898" x="2558.71" y="253.4852">vLLM/Local</text></g><!--entity OR--><g class="entity" data-qualified-name="LLMProviders.OR" data-source-line="78" id="ent0054"><rect fill="#F8FAFC" height="36.4883" rx="2.5" ry="2.5" style="stroke:#4B5563;stroke-width:0.5;" width="101.0811" x="2335.46" y="357.93"/><text fill="#111827" font-family="sans-serif" font-size="14" lengthAdjust="spacing" textLength="81.0811" x="2345.46" y="381.4652">OpenRouter</text></g><!--entity MCP1--><g class="entity" data-qualified-name="ExternalTools.MCP1" data-source-line="81" id="ent0056"><rect fill="#F8FAFC" height="36.4883" rx="2.5" ry="2.5" style="stroke:#4B5563;stroke-width:0.5;" width="109.0381" x="3298.48" y="100.49"/><text fill="#111827" font-family="sans-serif" font-size="14" lengthAdjust="spacing" textLength="89.0381" x="3308.48" y="124.0252">MCP Server 1</text></g><!--entity MCP2--><g class="entity" data-qualified-name="ExternalTools.MCP2" data-source-line="82" id="ent0057"><rect fill="#F8FAFC" height="36.4883" rx="2.5" ry="2.5" style="stroke:#4B5563;stroke-width:0.5;" width="109.0381" x="3442.48" y="100.49"/><text fill="#111827" font-family="sans-serif" font-size="14" lengthAdjust="spacing" textLength="89.0381" x="3452.48" y="124.0252">MCP Server 2</text></g><!--entity DK--><g class="entity" data-qualified-name="Deployment.DK" data-source-line="85" id="ent0059"><rect fill="#F8FAFC" height="52.9766" rx="2.5" ry="2.5" style="stroke:#4B5563;stroke-width:0.5;" width="179.3594" x="3608.32" y="92.25"/><text fill="#111827" font-family="sans-serif" font-size="14" lengthAdjust="spacing" textLength="118.6035" x="3638.6979" y="115.7852">Docker Container</text><text fill="#111827" font-family="sans-serif" font-size="14" lengthAdjust="spacing" textLength="159.3594" x="3618.32" y="132.2734">Python 3.12 + Node 20</text></g><!--entity DCY--><g class="entity" data-qualified-name="Deployment.DCY" data-source-line="86" id="ent0060"><rect fill="#F8FAFC" height="36.4883" rx="2.5" ry="2.5" style="stroke:#4B5563;stroke-width:0.5;" width="164.4434" x="3822.78" y="100.49"/><text fill="#111827" font-family="sans-serif" font-size="14" lengthAdjust="spacing" textLength="144.4434" x="3832.78" y="124.0252">docker-compose.yml</text></g><!--entity WORKSPACE--><g class="entity" data-qualified-name="Storage.WORKSPACE" data-source-line="89" id="ent0062"><rect fill="#F8FAFC" height="85.9531" rx="2.5" ry="2.5" style="stroke:#4B5563;stroke-width:0.5;" width="174.7588" x="4042.62" y="75.76"/><text fill="#111827" font-family="sans-serif" font-size="14" lengthAdjust="spacing" textLength="154.7588" x="4052.62" y="99.2952">/.nanobot/workspace/</text><text fill="#111827" font-family="sans-serif" font-size="14" lengthAdjust="spacing" textLength="98.7451" x="4080.6268" y="115.7834">&#8226; MEMORY.md</text><text fill="#111827" font-family="sans-serif" font-size="14" lengthAdjust="spacing" textLength="97.7539" x="4081.1224" y="132.2717">&#8226; HISTORY.md</text><text fill="#111827" font-family="sans-serif" font-size="14" lengthAdjust="spacing" textLength="46.874" x="4106.5624" y="148.76">&#8226; skills</text></g><?plantuml-src ZLRBRXit5DtxAuXauw2eLJbEukrez8HdB4KZrp5W8A1cA8dL33abERQLe46t1RffKdJR1zfctNM1Vao_e9_Goo778cKLwCOMxxblddivSarPYGKkq1odwwNW5Sj2ddE1bC1C0aIOEf3tMdA5CtvBsH8jS2w9WsHaWQjSpSYT2dAwP0KOeXJ-4E5e1KBmMnFWySdysRFdJnrm0YdW9UbmaH5XbPwVl3WvdUzH-b_f2f8gp9OvGMyF4F8Ss-W8zJbJLjPkjq-FNsZD7U-F5wSBl4WFlZfGl4IAepbNYaFHL4UWd1sK9Ytqw9yVl_iDNKWYv2E4fVa5qRUPWCQ7Fr3CvnGEGLbQlRQlylvFr2LohSE5EOMghDenvE34-l0p2bTOeKcErOABGfyO8xdHrb23x2Gn8pbPGejglTd0XRfKfj2f6kc6Bd89_YIaN4ENWGibEIHLovF8bVS9bQkg5M5Xq7xYXsBB6SuDr9svK8oLe7Sr4BzoWLw1QLxBUx5dm5D8pnY4VfU-_GPD15SyvJdg29ejYUcF-HtX3H5-Tvf2hSOrEppd6JdwGhOw49niv9DhDg-XbXIfRKTdEkeEUdxaNtz0vvXne0iAHgWF3IUttBR20Y4NcfxtHlO6KP3XKZKqii8zgLeanWoinJLZncihzOWmZ0TJDxEOIAb_T2hRYKhkyMsr0DpwdUj383SiHRqRFUClAr8Hu-GYSMFKXGLBhNFuxcIDed7ufDQhPRPi9vfHZJWljz6mbXaZZwCX32ri6iYRvZ3JfiZPAp_vWeiDIXG4WWkCU_5uUdLKPEWJD1mbCtCm2SK-av9gNiT5jgc6rXSTjxWP1oub6wc87I4ux-cW5a_9aaebDZjLjHHWflkpyJZovg8F99DRv_tajLRn64hcA25Of2l3lbxdWKgo8haPb6JOYw87U1nEBB_jq4oCYbDbigQvLsOjs5DdBPSHnvdBGLbBZU7PAF9h37DyEwpcg6dFLktrj3U06vfUkQb4KQo7-8P21D-caUv9Qsl0A-LcLbe0k7mOKKN0kw72n1kJXAILe6g3QjycGolQ4or8KnWOfBafkEby4FgiBGhCCWJNgnftOTprCiPgXHBCgA9lhCea2SxTf4Pi8J1KNwMg4kRkQj6-vS3PWYxHm-LGoytKzBt1Ig02UCyUcaW3cAHxYN-L0YoIT4MoAlV226iGJiVdhi4GcAlc11wkX8WRcfAjpQg1QiDXnt-qYXAUC-Ai8zM8p21DD7sz3Vpn9-HIn-Y1v5xWTsnS4XQCQgLnCF9kbwcLu2Krwpuuzrwh0UVw_u0KbD5QOU3lb2uXPKA8VUcICyzOy2-DpVIbAx-1D5iHJx7XqkTHj9kfeRN9TkhN_Vr7rBi3aE6yNauI7SA46v8tW96_tLqA-aw0IUrcBRJ_G-6uKTZzAFaTlbtAd6-APdblZtwqBa_Nu4XF3APCKsUoKIiWqzEZzZ4iQltgekFFZ0-lPrbj-MdAYv9BShGfSlkzSkNdylulD85BXcsXW-l70DjzPt_x2Rrh7JNCqkyqV56cf7ND_lxw5tJ_W9ZZzWqnPsVNNOwdPyaa2E5Ru5y0?></g></svg>