<svg xmlns="http://www.w3.org/2000/svg" xmlns:xlink="http://www.w3.org/1999/xlink" contentStyleType="text/css" data-diagram-type="DESCRIPTION" height="738px" preserveAspectRatio="none" style="width:845px;height:738px;background:#FFFFFF;" version="1.1" viewBox="0 0 845 738" width="845px" zoomAndPan="magnify"><?plantuml 1.2026.5?><defs/><rect data-xfeat-white-canvas="true" fill="#FFFFFF" height="100%" width="100%" x="0" y="0"/><g><!--cluster External--><g class="cluster" data-qualified-name="External" data-source-line="3" id="ent0001"><rect fill="#FFFFFF" height="97" rx="4" ry="4" style="stroke:#CBD5E1;stroke-width:1;" width="132" x="355" y="7"/><text fill="#0F172A" font-family="Helvetica" font-size="14" font-weight="700" lengthAdjust="spacing" textLength="116.7441" x="362.6279" y="19.7803">External Services</text></g><!--cluster Bridge--><g class="cluster" data-qualified-name="Bridge" data-source-line="6" id="ent0003"><rect fill="#FFFFFF" height="574" rx="4" ry="4" style="stroke:#CBD5E1;stroke-width:1;" width="574" x="7" y="150"/><text fill="#0F172A" font-family="Helvetica" font-size="14" font-weight="700" lengthAdjust="spacing" textLength="124.4346" x="231.7827" y="162.7803">bridge Component</text></g><!--cluster Config--><g class="cluster" data-qualified-name="Bridge.Config" data-source-line="7" id="ent0004"><rect fill="#FFFFFF" height="240" rx="4" ry="4" style="stroke:#CBD5E1;stroke-width:1;" width="202" x="31" y="191"/><text fill="#0F172A" font-family="Helvetica" font-size="14" font-weight="700" lengthAdjust="spacing" textLength="133.0068" x="65.4966" y="203.7803">Configuration Layer</text></g><!--cluster Runtime--><g class="cluster" data-qualified-name="Bridge.Runtime" data-source-line="11" id="ent0007"><rect fill="#FFFFFF" height="240" rx="4" ry="4" style="stroke:#CBD5E1;stroke-width:1;" width="300" x="257" y="191"/><text fill="#0F172A" font-family="Helvetica" font-size="14" font-weight="700" lengthAdjust="spacing" textLength="97.248" x="358.376" y="203.7803">Runtime Layer</text></g><!--cluster Build--><g class="cluster" data-qualified-name="Bridge.Build" data-source-line="16" id="ent0011"><rect fill="#FFFFFF" height="223" rx="4" ry="4" style="stroke:#CBD5E1;stroke-width:1;" width="174" x="45" y="477"/><text fill="#0F172A" font-family="Helvetica" font-size="14" font-weight="700" lengthAdjust="spacing" textLength="95.6758" x="84.1621" y="489.7803">Build Artifacts</text></g><!--cluster Consumer--><g class="cluster" data-qualified-name="Consumer" data-source-line="21" id="ent0014"><rect fill="#FFFFFF" height="97" rx="4" ry="4" style="stroke:#CBD5E1;stroke-width:1;" width="133" x="698" y="334"/><text fill="#0F172A" font-family="Helvetica" font-size="14" font-weight="700" lengthAdjust="spacing" textLength="117.4414" x="705.7793" y="346.7803">Nanobot Platform</text></g><!--entity WA--><g class="entity" data-qualified-name="External.WA" data-source-line="4" id="ent0002"><rect fill="#FFFFFF" height="48" rx="4" ry="4" style="stroke:#64748B;stroke-width:0.5;" width="84.5859" x="378.71" y="40"/><text fill="#0F172A" font-family="Helvetica" font-size="14" lengthAdjust="spacing" textLength="64.5859" x="388.71" y="60.7803">WhatsApp</text><text fill="#0F172A" font-family="Helvetica" font-size="14" lengthAdjust="spacing" textLength="51.3447" x="395.3306" y="74.7803">Network</text></g><!--entity PKG--><g class="entity" data-qualified-name="Bridge.Config.PKG" data-source-line="8" id="ent0005"><rect fill="#FFFFFF" height="48" rx="4" ry="4" style="stroke:#64748B;stroke-width:0.5;" width="169.4131" x="47.29" y="224"/><text fill="#0F172A" font-family="Helvetica" font-size="14" lengthAdjust="spacing" textLength="82.5029" x="90.7451" y="244.7803">package.json</text><text fill="#0F172A" font-family="Helvetica" font-size="14" lengthAdjust="spacing" textLength="149.4131" x="57.29" y="258.7803">Dependencies &amp; Scripts</text></g><!--entity TSC--><g class="entity" data-qualified-name="Bridge.Config.TSC" data-source-line="9" id="ent0006"><rect fill="#FFFFFF" height="48" rx="4" ry="4" style="stroke:#64748B;stroke-width:0.5;" width="148.3994" x="57.8" y="367"/><text fill="#0F172A" font-family="Helvetica" font-size="14" lengthAdjust="spacing" textLength="77.8203" x="93.0896" y="387.7803">tsconfig.json</text><text fill="#0F172A" font-family="Helvetica" font-size="14" lengthAdjust="spacing" textLength="128.3994" x="67.8" y="401.7803">Compilation Settings</text></g><!--entity AUTH--><g class="entity" data-qualified-name="Bridge.Runtime.AUTH" data-source-line="12" id="ent0008"><rect fill="#FFFFFF" height="48" rx="4" ry="4" style="stroke:#64748B;stroke-width:0.5;" width="133.6201" x="273.19" y="224"/><text fill="#0F172A" font-family="Helvetica" font-size="14" lengthAdjust="spacing" textLength="113.6201" x="283.19" y="244.7803">QR Authentication</text><text fill="#0F172A" font-family="Helvetica" font-size="14" lengthAdjust="spacing" textLength="45.917" x="317.0416" y="258.7803">Module</text></g><!--entity WS--><g class="entity" data-qualified-name="Bridge.Runtime.WS" data-source-line="13" id="ent0009"><rect fill="#FFFFFF" height="48" rx="4" ry="4" style="stroke:#64748B;stroke-width:0.5;" width="91.5859" x="449.21" y="224"/><text fill="#0F172A" font-family="Helvetica" font-size="14" lengthAdjust="spacing" textLength="71.5859" x="459.21" y="244.7803">WebSocket</text><text fill="#0F172A" font-family="Helvetica" font-size="14" lengthAdjust="spacing" textLength="49.0273" x="470.4893" y="258.7803">Handler</text></g><!--entity LOG--><g class="entity" data-qualified-name="Bridge.Runtime.LOG" data-source-line="14" id="ent0010"><rect fill="#FFFFFF" height="48" rx="4" ry="4" style="stroke:#64748B;stroke-width:0.5;" width="95.5029" x="373.25" y="367"/><text fill="#0F172A" font-family="Helvetica" font-size="14" lengthAdjust="spacing" textLength="75.5029" x="383.25" y="387.7803">Pino Logger</text><text fill="#0F172A" font-family="Helvetica" font-size="14" lengthAdjust="spacing" textLength="52.9238" x="394.5396" y="401.7803">Instance</text></g><!--entity SRC--><g class="entity" data-qualified-name="Bridge.Build.SRC" data-source-line="17" id="ent0012"><rect fill="#FFFFFF" height="48" rx="4" ry="4" style="stroke:#64748B;stroke-width:0.5;" width="135.1582" x="64.42" y="510"/><text fill="#0F172A" font-family="Helvetica" font-size="14" lengthAdjust="spacing" textLength="22.5518" x="120.7232" y="530.7803">src/</text><text fill="#0F172A" font-family="Helvetica" font-size="14" lengthAdjust="spacing" textLength="115.1582" x="74.42" y="544.7803">TypeScript Source</text></g><!--entity DIST--><g class="entity" data-qualified-name="Bridge.Build.DIST" data-source-line="18" id="ent0013"><rect fill="#FFFFFF" height="48" rx="4" ry="4" style="stroke:#64748B;stroke-width:0.5;" width="141.7754" x="61.11" y="636"/><text fill="#0F172A" font-family="Helvetica" font-size="14" lengthAdjust="spacing" textLength="25.6758" x="119.1598" y="656.7803">dist/</text><text fill="#0F172A" font-family="Helvetica" font-size="14" lengthAdjust="spacing" textLength="121.7754" x="71.11" y="670.7803">Compiled JS + .d.ts</text></g><!--entity NB--><g class="entity" data-qualified-name="Consumer.NB" data-source-line="22" id="ent0015"><rect fill="#FFFFFF" height="48" rx="4" ry="4" style="stroke:#64748B;stroke-width:0.5;" width="100.9102" x="713.54" y="367"/><text fill="#0F172A" font-family="Helvetica" font-size="14" lengthAdjust="spacing" textLength="52.9307" x="737.5297" y="387.7803">Nanobot</text><text fill="#0F172A" font-family="Helvetica" font-size="14" lengthAdjust="spacing" textLength="80.9102" x="723.54" y="401.7803">Core System</text></g><!--entity TERM--><g class="entity" data-qualified-name="TERM" data-source-line="26" id="ent0018"><rect fill="#FFFFFF" height="48" rx="4" ry="4" style="stroke:#64748B;stroke-width:0.5;" width="74.4551" x="596.77" y="367"/><text fill="#0F172A" font-family="Helvetica" font-size="14" lengthAdjust="spacing" textLength="54.4551" x="606.77" y="387.7803">Terminal</text><text fill="#0F172A" font-family="Helvetica" font-size="14" lengthAdjust="spacing" textLength="42.0273" x="612.9839" y="401.7803">Output</text></g><!--link WA to WS--><g class="link" data-entity-1="ent0002" data-entity-2="ent0009" data-link-type="dependency" data-source-line="24" id="lnk16"><path d="M432.4032,93.0518 C446.6132,128.0018 469.4474,184.1479 483.6274,219.0379" fill="none" id="WA-WS" style="stroke:#64748B;stroke-width:1.1;"/><polygon fill="#64748B" points="430.52,88.42,430.2043,98.2638,432.4032,93.0518,437.6152,95.2507,430.52,88.42" style="stroke:#64748B;stroke-width:1.1;stroke-linejoin:miter;stroke-miterlimit:10;"/><polygon fill="#64748B" points="485.51,223.67,485.827,213.8262,483.6274,219.0379,478.4157,216.8383,485.51,223.67" style="stroke:#64748B;stroke-width:1.1;stroke-linejoin:miter;stroke-miterlimit:10;"/><text fill="#334155" font-family="Helvetica" font-size="12" lengthAdjust="spacing" textLength="86.0391" x="448.05" y="130.2402">Baileys Protocol</text></g><!--link WA to AUTH--><g class="link" data-entity-1="ent0002" data-entity-2="ent0008" data-link-type="dependency" data-source-line="25" id="lnk17"><path d="M391.31,88.32 C372.24,103.32 351,120 351,120 C351,120 345.6206,182.0586 342.4506,218.7286" fill="none" id="WA-to-AUTH" style="stroke:#64748B;stroke-width:1.1;"/><polygon fill="#64748B" points="342.02,223.71,346.7803,215.0879,342.4506,218.7286,338.81,214.3989,342.02,223.71" style="stroke:#64748B;stroke-width:1.1;stroke-linejoin:miter;stroke-miterlimit:10;"/><text fill="#334155" font-family="Helvetica" font-size="12" lengthAdjust="spacing" textLength="82.0605" x="352" y="130.2402">Auth Challenge</text></g><!--link AUTH to TERM--><g class="link" data-entity-1="ent0008" data-entity-2="ent0018" data-link-type="dependency" data-source-line="27" id="lnk19"><path d="M406.89,270.26 C455.57,285.74 513,304 513,304 C513,304 559,326 559,326 C559,326 581.2857,345.0254 602.6957,363.2854" fill="none" id="AUTH-to-TERM" style="stroke:#64748B;stroke-width:1.1;"/><polygon fill="#64748B" points="606.5,366.53,602.2479,357.6463,602.6957,363.2854,597.0566,363.7332,606.5,366.53" style="stroke:#64748B;stroke-width:1.1;stroke-linejoin:miter;stroke-miterlimit:10;"/><text fill="#334155" font-family="Helvetica" font-size="12" lengthAdjust="spacing" textLength="50.0215" x="542.47" y="314.2402">QR Code</text></g><!--link PKG to TSC--><g class="link" data-entity-1="ent0005" data-entity-2="ent0006" data-link-type="dependency" data-source-line="28" id="lnk20"><path d="M132,272.28 C132,298.41 132,335.54 132,361.68" fill="none" id="PKG-to-TSC" style="stroke:#64748B;stroke-width:1.1;"/><polygon fill="#64748B" points="132,366.68,136,357.68,132,361.68,128,357.68,132,366.68" style="stroke:#64748B;stroke-width:1.1;stroke-linejoin:miter;stroke-miterlimit:10;"/><text fill="#334155" font-family="Helvetica" font-size="12" lengthAdjust="spacing" textLength="40.6875" x="133" y="314.2402">Defines</text></g><!--link TSC to SRC--><g class="link" data-entity-1="ent0006" data-entity-2="ent0012" data-link-type="dependency" data-source-line="29" id="lnk21"><path d="M132,415.28 C132,441.41 132,478.54 132,504.68" fill="none" id="TSC-to-SRC" style="stroke:#64748B;stroke-width:1.1;"/><polygon fill="#64748B" points="132,509.68,136,500.68,132,504.68,128,500.68,132,509.68" style="stroke:#64748B;stroke-width:1.1;stroke-linejoin:miter;stroke-miterlimit:10;"/><text fill="#334155" font-family="Helvetica" font-size="12" lengthAdjust="spacing" textLength="50.0156" x="133" y="457.2402">Compiles</text></g><!--link SRC to DIST--><g class="link" data-entity-1="ent0012" data-entity-2="ent0013" data-link-type="dependency" data-source-line="30" id="lnk22"><path d="M132,558.32 C132,580.49 132,608.65 132,630.78" fill="none" id="SRC-to-DIST" style="stroke:#64748B;stroke-width:1.1;"/><polygon fill="#64748B" points="132,635.78,136,626.78,132,630.78,128,626.78,132,635.78" style="stroke:#64748B;stroke-width:1.1;stroke-linejoin:miter;stroke-miterlimit:10;"/><text fill="#334155" font-family="Helvetica" font-size="12" lengthAdjust="spacing" textLength="30" x="133" y="600.2402">Emits</text></g><!--link WS to LOG--><g class="link" data-entity-1="ent0009" data-entity-2="ent0010" data-link-type="dependency" data-source-line="31" id="lnk23"><path d="M482.78,272.28 C469.07,298.41 449.2837,336.1128 435.5637,362.2528" fill="none" id="WS-to-LOG" style="stroke:#64748B;stroke-width:1.1;"/><polygon fill="#64748B" points="433.24,366.68,440.9645,360.5699,435.5637,362.2528,433.8809,356.852,433.24,366.68" style="stroke:#64748B;stroke-width:1.1;stroke-linejoin:miter;stroke-miterlimit:10;"/><text fill="#334155" font-family="Helvetica" font-size="12" lengthAdjust="spacing" textLength="36.6855" x="465.63" y="314.2402">Events</text></g><!--link AUTH to LOG--><g class="link" data-entity-1="ent0008" data-entity-2="ent0010" data-link-type="dependency" data-source-line="32" id="lnk24"><path d="M353.38,272.28 C368.38,298.41 390.1002,336.204 405.1102,362.344" fill="none" id="AUTH-to-LOG" style="stroke:#64748B;stroke-width:1.1;"/><polygon fill="#64748B" points="407.6,366.68,406.5872,356.8834,405.1102,362.344,399.6496,360.867,407.6,366.68" style="stroke:#64748B;stroke-width:1.1;stroke-linejoin:miter;stroke-miterlimit:10;"/><text fill="#334155" font-family="Helvetica" font-size="12" lengthAdjust="spacing" textLength="34.0195" x="379.07" y="314.2402">Status</text></g><!--link WS to NB--><g class="link" data-entity-1="ent0009" data-entity-2="ent0015" data-link-type="dependency" data-source-line="33" id="lnk25"><path d="M541.14,268.77 C588.71,289.16 656,318 656,318 C656,318 692,326 692,326 C692,326 713.3124,344.9489 733.8624,363.2089" fill="none" id="WS-to-NB" style="stroke:#64748B;stroke-width:1.1;"/><polygon fill="#64748B" points="737.6,366.53,733.5291,357.5618,733.8624,363.2089,728.2153,363.5421,737.6,366.53" style="stroke:#64748B;stroke-width:1.1;stroke-linejoin:miter;stroke-miterlimit:10;"/><text fill="#334155" font-family="Helvetica" font-size="12" lengthAdjust="spacing" textLength="54.6914" x="657" y="314.2402">Messages</text></g><!--link NB to WS--><g class="link" data-entity-1="ent0015" data-entity-2="ent0009" data-link-type="dependency" data-source-line="34" id="lnk26"><path d="M751.43,366.5 C737.81,341.04 718,304 718,304 C718,304 611.3745,277.7075 546.0645,261.5975" fill="none" id="NB-to-WS" style="stroke:#64748B;stroke-width:1.1;"/><polygon fill="#64748B" points="541.21,260.4,548.9901,266.439,546.0645,261.5975,550.9061,258.6718,541.21,260.4" style="stroke:#64748B;stroke-width:1.1;stroke-linejoin:miter;stroke-miterlimit:10;"/><text fill="#334155" font-family="Helvetica" font-size="12" lengthAdjust="spacing" textLength="92.7129" x="725.68" y="314.2402">Send Commands</text></g><?plantuml-src LLF1Zjem4BtdAzmzz5B1tgkgKWXeTrjWASwAIox66O9BCexiyRPerN_lE0aGJf7Vl7dp_3pvP53NeGJHEdi0xur5LK_e20rCJMZgX6mho8gz9RADA8q3JKnAMgLFgWBniFXBuBX9I73lHeD_4CgBA_gHn0w5LStStL6HJzksm3NG7-jE7NUN9lzkUdjdIlvcjcaj0b97cVNWnusMMJoOAZWLtOYbEeFhc3r-FtPeclxs5WkSGmjO0ce3NdmMKZlJKkzwy_Dft4TUTsf3OxHawdwW12A3LT-MosnyWsr0CWsCJ5sGErU_jY8Dd3INT2TQuCgMeOQk9NtBd--YWxsq-WHKuBF2iXwKTt9CsXYqOcch2bo1B-WPrxtSylLfR74MJ5sAr94vA3rSliVkB7gd7mlCpotqAGbfWniKvJORKqlZwV6I4PJYXnHVnBIS3kBp5vcpWP65jKBBMoKsdEZ1kkRoUZuquEvj3DIexa38ioVewUiPA-vIyMqo-SvHYAzYfdZwcL_IMRBQrh4QYp5EBiV0HNPKTGrOmNX63gunlB05lWPgGxzs-MAxIhhMg15FhC7lbjaI4bwM7fOPetCu60IVn5D4EHv6XpXy4eyHZZamlcWC-OGTHupV9aBll0d-Dgr79IaAL-Pwnj2AVrDEq2TykjvRyah7QGtlXlyF?></g></svg>