<svg xmlns="http://www.w3.org/2000/svg" xmlns:xlink="http://www.w3.org/1999/xlink" contentStyleType="text/css" data-diagram-type="CLASS" height="510px" preserveAspectRatio="none" style="width:1128px;height:510px;" version="1.1" viewBox="0 0 1128 510" width="1128px" zoomAndPan="magnify"><?plantuml 1.2026.5?><defs><style><![CDATA[
@media (prefers-color-scheme: dark) {
  text { fill: #e5e7eb !important; }
  path, line, rect, circle, ellipse, polygon, polyline { stroke: #cbd5e1 !important; }
  .entity rect, .participant rect, .participant path, .sequenceLine rect, .class rect, .component rect, .component path, .note rect { fill: #111827 !important; }
  .cluster path { fill: none !important; }
  polygon { fill: #cbd5e1 !important; }
}
]]></style></defs><g><!--cluster Public_API--><g class="cluster" data-qualified-name="Public_API" data-source-line="11" id="ent0001"><path d="M8.5,6 L83.6494,6 A3.75,3.75 0 0 1 86.1494,8.5 L93.1494,28.4883 L405.5,28.4883 A2.5,2.5 0 0 1 408,30.9883 L408,492.6 A2.5,2.5 0 0 1 405.5,495.1 L8.5,495.1 A2.5,2.5 0 0 1 6,492.6 L6,8.5 A2.5,2.5 0 0 1 8.5,6" fill="none" style="stroke:#000000;stroke-width:1.5;"/><line style="stroke:#000000;stroke-width:1.5;" x1="6" x2="93.1494" y1="28.4883" y2="28.4883"/><text fill="#000000" font-family="sans-serif" font-size="14" font-weight="700" lengthAdjust="spacing" textLength="74.1494" x="10" y="21.5352">Public_API</text></g><!--cluster Storage_Layer--><g class="cluster" data-qualified-name="Storage_Layer" data-source-line="33" id="ent0004"><path d="M506.5,269.93 L608.248,269.93 A3.75,3.75 0 0 1 610.748,272.43 L617.748,292.4183 L913.5,292.4183 A2.5,2.5 0 0 1 916,294.9183 L916,467.87 A2.5,2.5 0 0 1 913.5,470.37 L506.5,470.37 A2.5,2.5 0 0 1 504,467.87 L504,272.43 A2.5,2.5 0 0 1 506.5,269.93" fill="none" style="stroke:#000000;stroke-width:1.5;"/><line style="stroke:#000000;stroke-width:1.5;" x1="504" x2="617.748" y1="292.4183" y2="292.4183"/><text fill="#000000" font-family="sans-serif" font-size="14" font-weight="700" lengthAdjust="spacing" textLength="100.748" x="508" y="285.4652">Storage_Layer</text></g><!--class SessionManager--><g class="entity" data-qualified-name="Public_API.SessionManager" data-source-line="12" id="ent0002"><rect fill="#F8FAFC" height="146.9297" rx="2.5" ry="2.5" style="stroke:#4B5563;stroke-width:0.5;" width="254.6006" x="135.7" y="60"/><ellipse cx="204.0423" cy="76" fill="#ADD1B2" rx="11" ry="11" style="stroke:#181818;stroke-width:1;"/><path d="M206.5154,82.1431 Q205.9344,82.4419 205.2952,82.5913 Q204.6561,82.7407 203.9505,82.7407 Q201.4437,82.7407 200.1238,81.0889 Q198.804,79.437 198.804,76.3159 Q198.804,73.1865 200.1238,71.5347 Q201.4437,69.8828 203.9505,69.8828 Q204.6561,69.8828 205.3035,70.0322 Q205.951,70.1816 206.5154,70.4805 L206.5154,73.2031 Q205.8846,72.6221 205.2911,72.3523 Q204.6976,72.0825 204.0667,72.0825 Q202.722,72.0825 202.0372,73.1492 Q201.3523,74.2158 201.3523,76.3159 Q201.3523,78.4077 202.0372,79.4744 Q202.722,80.541 204.0667,80.541 Q204.6976,80.541 205.2911,80.2712 Q205.8846,80.0015 206.5154,79.4204 Z " fill="#000000"/><text fill="#111827" font-family="sans-serif" font-size="14" lengthAdjust="spacing" textLength="109.416" x="224.5423" y="81.291">SessionManager</text><line style="stroke:#4B5563;stroke-width:0.5;" x1="136.7" x2="389.3006" y1="92" y2="92"/><g data-visibility-modifier="PRIVATE_FIELD"><rect fill="none" height="6" style="stroke:#C82930;stroke-width:1;" width="6" x="143.7" y="102.7441"/></g><text fill="#000000" font-family="sans-serif" font-size="14" lengthAdjust="spacing" textLength="181.5283" x="155.7" y="109.5352">_cache: Dict&lt;str, Session&gt;</text><g data-visibility-modifier="PRIVATE_FIELD"><rect fill="none" height="6" style="stroke:#C82930;stroke-width:1;" width="6" x="143.7" y="119.2324"/></g><text fill="#000000" font-family="sans-serif" font-size="14" lengthAdjust="spacing" textLength="154.6699" x="155.7" y="126.0234">_workspace_path: Path</text><line style="stroke:#4B5563;stroke-width:0.5;" x1="136.7" x2="389.3006" y1="132.9766" y2="132.9766"/><g data-visibility-modifier="PUBLIC_METHOD"><ellipse cx="146.7" cy="146.7207" fill="#84BE84" rx="3" ry="3" style="stroke:#038048;stroke-width:1;"/></g><text fill="#000000" font-family="sans-serif" font-size="14" lengthAdjust="spacing" textLength="206.3018" x="155.7" y="150.5117">get_or_create(key: str) Session</text><g data-visibility-modifier="PUBLIC_METHOD"><ellipse cx="146.7" cy="163.209" fill="#84BE84" rx="3" ry="3" style="stroke:#038048;stroke-width:1;"/></g><text fill="#000000" font-family="sans-serif" font-size="14" lengthAdjust="spacing" textLength="124.9746" x="155.7" y="167">clear(key: str) void</text><g data-visibility-modifier="PUBLIC_METHOD"><ellipse cx="146.7" cy="179.6973" fill="#84BE84" rx="3" ry="3" style="stroke:#038048;stroke-width:1;"/></g><text fill="#000000" font-family="sans-serif" font-size="14" lengthAdjust="spacing" textLength="157.8828" x="155.7" y="183.4883">invalidate(key: str) void</text><g data-visibility-modifier="PUBLIC_METHOD"><ellipse cx="146.7" cy="196.1855" fill="#84BE84" rx="3" ry="3" style="stroke:#038048;stroke-width:1;"/></g><text fill="#000000" font-family="sans-serif" font-size="14" lengthAdjust="spacing" textLength="228.6006" x="155.7" y="199.9766">list_sessions() List&lt;SessionMeta&gt;</text></g><!--class Session--><g class="entity" data-qualified-name="Public_API.Session" data-source-line="21" id="ent0003"><rect fill="#F8FAFC" height="179.9063" rx="2.5" ry="2.5" style="stroke:#4B5563;stroke-width:0.5;" width="370.9893" x="21.51" y="299.19"/><ellipse cx="177.2805" cy="315.19" fill="#ADD1B2" rx="11" ry="11" style="stroke:#181818;stroke-width:1;"/><path d="M179.7537,321.3331 Q179.1726,321.6319 178.5334,321.7813 Q177.8943,321.9307 177.1887,321.9307 Q174.6819,321.9307 173.3621,320.2789 Q172.0422,318.627 172.0422,315.5059 Q172.0422,312.3765 173.3621,310.7247 Q174.6819,309.0728 177.1887,309.0728 Q177.8943,309.0728 178.5417,309.2222 Q179.1892,309.3716 179.7537,309.6705 L179.7537,312.3931 Q179.1228,311.8121 178.5293,311.5423 Q177.9358,311.2725 177.3049,311.2725 Q175.9602,311.2725 175.2754,312.3392 Q174.5906,313.4058 174.5906,315.5059 Q174.5906,317.5977 175.2754,318.6644 Q175.9602,319.731 177.3049,319.731 Q177.9358,319.731 178.5293,319.4612 Q179.1228,319.1915 179.7537,318.6104 Z " fill="#000000"/><text fill="#111827" font-family="sans-serif" font-size="14" lengthAdjust="spacing" textLength="50.9482" x="197.7805" y="320.481">Session</text><line style="stroke:#4B5563;stroke-width:0.5;" x1="22.51" x2="391.4993" y1="331.19" y2="331.19"/><g data-visibility-modifier="PUBLIC_FIELD"><ellipse cx="32.51" cy="344.9341" fill="none" rx="3" ry="3" style="stroke:#038048;stroke-width:1;"/></g><text fill="#000000" font-family="sans-serif" font-size="14" lengthAdjust="spacing" textLength="50.2578" x="41.51" y="348.7252">key: str</text><g data-visibility-modifier="PUBLIC_FIELD"><ellipse cx="32.51" cy="361.4224" fill="none" rx="3" ry="3" style="stroke:#038048;stroke-width:1;"/></g><text fill="#000000" font-family="sans-serif" font-size="14" lengthAdjust="spacing" textLength="179.9355" x="41.51" y="365.2134">messages: List&lt;Message&gt;</text><g data-visibility-modifier="PUBLIC_FIELD"><ellipse cx="32.51" cy="377.9107" fill="none" rx="3" ry="3" style="stroke:#038048;stroke-width:1;"/></g><text fill="#000000" font-family="sans-serif" font-size="14" lengthAdjust="spacing" textLength="99.1484" x="41.51" y="381.7017">metadata: Dict</text><g data-visibility-modifier="PUBLIC_FIELD"><ellipse cx="32.51" cy="394.399" fill="none" rx="3" ry="3" style="stroke:#038048;stroke-width:1;"/></g><text fill="#000000" font-family="sans-serif" font-size="14" lengthAdjust="spacing" textLength="138.8379" x="41.51" y="398.19">created_at: datetime</text><g data-visibility-modifier="PUBLIC_FIELD"><ellipse cx="32.51" cy="410.8873" fill="none" rx="3" ry="3" style="stroke:#038048;stroke-width:1;"/></g><text fill="#000000" font-family="sans-serif" font-size="14" lengthAdjust="spacing" textLength="144.4502" x="41.51" y="414.6783">updated_at: datetime</text><g data-visibility-modifier="PUBLIC_FIELD"><ellipse cx="32.51" cy="427.3755" fill="none" rx="3" ry="3" style="stroke:#038048;stroke-width:1;"/></g><text fill="#000000" font-family="sans-serif" font-size="14" lengthAdjust="spacing" textLength="184.9053" x="41.51" y="431.1666">consolidation_progress: int</text><line style="stroke:#4B5563;stroke-width:0.5;" x1="22.51" x2="391.4993" y1="438.1197" y2="438.1197"/><g data-visibility-modifier="PUBLIC_METHOD"><ellipse cx="32.51" cy="451.8638" fill="#84BE84" rx="3" ry="3" style="stroke:#038048;stroke-width:1;"/></g><text fill="#000000" font-family="sans-serif" font-size="14" lengthAdjust="spacing" textLength="344.9893" x="41.51" y="455.6548">add_message(role, content, tool_calls, tool_call_id)</text><g data-visibility-modifier="PUBLIC_METHOD"><ellipse cx="32.51" cy="468.3521" fill="#84BE84" rx="3" ry="3" style="stroke:#038048;stroke-width:1;"/></g><text fill="#000000" font-family="sans-serif" font-size="14" lengthAdjust="spacing" textLength="39.0195" x="41.51" y="472.1431">save()</text></g><!--class JSONLStorage--><g class="entity" data-qualified-name="Storage_Layer.JSONLStorage" data-source-line="34" id="ent0005"><rect fill="#F8FAFC" height="97.4648" rx="2.5" ry="2.5" style="stroke:#4B5563;stroke-width:0.5;" width="175.3721" x="520.31" y="340.41"/><ellipse cx="558.4529" cy="356.41" fill="#ADD1B2" rx="11" ry="11" style="stroke:#181818;stroke-width:1;"/><path d="M560.9261,362.5531 Q560.345,362.8519 559.7058,363.0013 Q559.0667,363.1507 558.3611,363.1507 Q555.8543,363.1507 554.5345,361.4989 Q553.2146,359.847 553.2146,356.7259 Q553.2146,353.5965 554.5345,351.9447 Q555.8543,350.2928 558.3611,350.2928 Q559.0667,350.2928 559.7142,350.4422 Q560.3616,350.5916 560.9261,350.8905 L560.9261,353.6131 Q560.2952,353.0321 559.7017,352.7623 Q559.1082,352.4925 558.4773,352.4925 Q557.1326,352.4925 556.4478,353.5592 Q555.763,354.6258 555.763,356.7259 Q555.763,358.8177 556.4478,359.8844 Q557.1326,360.951 558.4773,360.951 Q559.1082,360.951 559.7017,360.6812 Q560.2952,360.4115 560.9261,359.8304 Z " fill="#000000"/><text fill="#111827" font-family="sans-serif" font-size="14" lengthAdjust="spacing" textLength="91.9434" x="577.5958" y="361.701">JSONLStorage</text><line style="stroke:#4B5563;stroke-width:0.5;" x1="521.31" x2="694.6821" y1="372.41" y2="372.41"/><line style="stroke:#4B5563;stroke-width:0.5;" x1="521.31" x2="694.6821" y1="380.41" y2="380.41"/><g data-visibility-modifier="PUBLIC_METHOD"><ellipse cx="531.31" cy="394.1541" fill="#84BE84" rx="3" ry="3" style="stroke:#038048;stroke-width:1;"/></g><text fill="#000000" font-family="sans-serif" font-size="14" lengthAdjust="spacing" textLength="149.3721" x="540.31" y="397.9452">save(session: Session)</text><g data-visibility-modifier="PUBLIC_METHOD"><ellipse cx="531.31" cy="410.6424" fill="#84BE84" rx="3" ry="3" style="stroke:#038048;stroke-width:1;"/></g><text fill="#000000" font-family="sans-serif" font-size="14" lengthAdjust="spacing" textLength="143.9307" x="540.31" y="414.4334">load(key: str) Session</text><g data-visibility-modifier="PUBLIC_METHOD"><ellipse cx="531.31" cy="427.1307" fill="#84BE84" rx="3" ry="3" style="stroke:#038048;stroke-width:1;"/></g><text fill="#000000" font-family="sans-serif" font-size="14" lengthAdjust="spacing" textLength="111.2412" x="540.31" y="430.9217">migrate_legacy()</text></g><!--class Message--><g class="entity" data-qualified-name="Storage_Layer.Message" data-source-line="40" id="ent0006"><rect fill="#F8FAFC" height="130.4414" rx="2.5" ry="2.5" style="stroke:#4B5563;stroke-width:0.5;" width="169.2334" x="730.38" y="323.93"/><ellipse cx="781.5504" cy="339.93" fill="#ADD1B2" rx="11" ry="11" style="stroke:#181818;stroke-width:1;"/><path d="M784.0236,346.0731 Q783.4425,346.3719 782.8033,346.5213 Q782.1642,346.6707 781.4586,346.6707 Q778.9518,346.6707 777.632,345.0189 Q776.3121,343.367 776.3121,340.2459 Q776.3121,337.1165 777.632,335.4647 Q778.9518,333.8128 781.4586,333.8128 Q782.1642,333.8128 782.8116,333.9622 Q783.4591,334.1116 784.0236,334.4105 L784.0236,337.1331 Q783.3927,336.5521 782.7992,336.2823 Q782.2057,336.0125 781.5748,336.0125 Q780.2301,336.0125 779.5453,337.0792 Q778.8605,338.1458 778.8605,340.2459 Q778.8605,342.3377 779.5453,343.4044 Q780.2301,344.471 781.5748,344.471 Q782.2057,344.471 782.7992,344.2012 Q783.3927,343.9315 784.0236,343.3504 Z " fill="#000000"/><text fill="#111827" font-family="sans-serif" font-size="14" lengthAdjust="spacing" textLength="58.3926" x="802.0504" y="345.221">Message</text><line style="stroke:#4B5563;stroke-width:0.5;" x1="731.38" x2="898.6134" y1="355.93" y2="355.93"/><g data-visibility-modifier="PUBLIC_FIELD"><ellipse cx="741.38" cy="369.6741" fill="none" rx="3" ry="3" style="stroke:#038048;stroke-width:1;"/></g><text fill="#000000" font-family="sans-serif" font-size="14" lengthAdjust="spacing" textLength="53.1357" x="750.38" y="373.4652">role: str</text><g data-visibility-modifier="PUBLIC_FIELD"><ellipse cx="741.38" cy="386.1624" fill="none" rx="3" ry="3" style="stroke:#038048;stroke-width:1;"/></g><text fill="#000000" font-family="sans-serif" font-size="14" lengthAdjust="spacing" textLength="78.3809" x="750.38" y="389.9534">content: str</text><g data-visibility-modifier="PUBLIC_FIELD"><ellipse cx="741.38" cy="402.6507" fill="none" rx="3" ry="3" style="stroke:#038048;stroke-width:1;"/></g><text fill="#000000" font-family="sans-serif" font-size="14" lengthAdjust="spacing" textLength="140.7314" x="750.38" y="406.4417">timestamp: datetime</text><g data-visibility-modifier="PUBLIC_FIELD"><ellipse cx="741.38" cy="419.139" fill="none" rx="3" ry="3" style="stroke:#038048;stroke-width:1;"/></g><text fill="#000000" font-family="sans-serif" font-size="14" lengthAdjust="spacing" textLength="130.5117" x="750.38" y="422.93">tool_calls: Optional</text><g data-visibility-modifier="PUBLIC_FIELD"><ellipse cx="741.38" cy="435.6273" fill="none" rx="3" ry="3" style="stroke:#038048;stroke-width:1;"/></g><text fill="#000000" font-family="sans-serif" font-size="14" lengthAdjust="spacing" textLength="143.2334" x="750.38" y="439.4183">tool_call_id: Optional</text><line style="stroke:#4B5563;stroke-width:0.5;" x1="731.38" x2="898.6134" y1="446.3714" y2="446.3714"/></g><g class="entity" data-qualified-name="GMN11" data-source-line="55" id="ent0012"><path d="M425.49,113.15 L425.49,129.46 L390.56,133.46 L425.49,137.46 L425.49,153.7711 A0,0 0 0 0 425.49,153.7711 L642.512,153.7711 A0,0 0 0 0 642.512,153.7711 L642.512,123.15 L632.512,113.15 L425.49,113.15 A0,0 0 0 0 425.49,113.15" fill="#FEFFDD" style="stroke:#181818;stroke-width:0.5;"/><path d="M632.512,113.15 L632.512,123.15 L642.512,123.15 L632.512,113.15" fill="#FEFFDD" style="stroke:#181818;stroke-width:0.5;"/><text fill="#000000" font-family="sans-serif" font-size="13" lengthAdjust="spacing" textLength="136.5635" x="431.49" y="130.7184">Entry point defined in</text><text fill="#000000" font-family="sans-serif" font-size="13" lengthAdjust="spacing" text-decoration="underline" textLength="20.4458" x="572.1668" y="130.7184">init</text><text fill="#000000" font-family="sans-serif" font-size="13" lengthAdjust="spacing" textLength="19.0874" x="592.6126" y="130.7184">.py</text><text fill="#000000" font-family="sans-serif" font-size="13" lengthAdjust="spacing" textLength="177.2139" x="431.49" y="146.0289">Exposes clean public API via</text><text fill="#000000" font-family="sans-serif" font-size="13" lengthAdjust="spacing" text-decoration="underline" textLength="14.6948" x="612.8171" y="146.0289">all</text></g><g class="entity" data-qualified-name="GMN14" data-source-line="59" id="ent0015"><path d="M934.38,361.18 L934.38,417.1116 L1113.6207,417.1116 L1113.6207,371.18 L1103.6207,361.18 L934.38,361.18" fill="#FEFFDD" style="stroke:#181818;stroke-width:0.5;"/><path d="M1103.6207,361.18 L1103.6207,371.18 L1113.6207,371.18 L1103.6207,361.18" fill="#FEFFDD" style="stroke:#181818;stroke-width:1;"/><text fill="#000000" font-family="sans-serif" font-size="13" lengthAdjust="spacing" textLength="143.3555" x="940.38" y="378.7484">Handles atomic writes,</text><text fill="#000000" font-family="sans-serif" font-size="13" lengthAdjust="spacing" textLength="136.6777" x="940.38" y="394.0589">legacy migration, and</text><text fill="#000000" font-family="sans-serif" font-size="13" lengthAdjust="spacing" textLength="158.2407" x="940.38" y="409.3695">workspace-scoped paths</text></g><!--link SessionManager to Session--><g class="link" data-entity-1="ent0002" data-entity-2="ent0003" data-link-type="dependency" data-source-line="49" id="lnk7"><path codeLine="49" d="M246.95,207.16 C240.65,235.71 234.4278,263.8775 227.8078,293.8675" fill="none" id="SessionManager-to-Session" style="stroke:#4B5563;stroke-width:1;"/><polygon fill="#4B5563" points="226.73,298.75,232.5759,290.8238,227.8078,293.8675,224.764,289.0994,226.73,298.75" style="stroke:#4B5563;stroke-width:1;stroke-linejoin:miter;stroke-miterlimit:10;"/><text fill="#000000" font-family="sans-serif" font-size="13" lengthAdjust="spacing" textLength="56.5386" x="241.02" y="250.4984">manages</text><text fill="#000000" font-family="sans-serif" font-size="13" lengthAdjust="spacing" textLength="8.2202" x="237.0495" y="227.4821">1</text><text fill="#000000" font-family="sans-serif" font-size="13" lengthAdjust="spacing" textLength="6.2651" x="222.0734" y="288.5299">*</text></g><!--link Session to Message--><g class="link" data-entity-1="ent0003" data-entity-2="ent0006" data-link-type="dependency" data-source-line="50" id="lnk8"><path codeLine="50" d="M388.28,298.75 C425.68,283.97 465.44,270.94 504,263.09 C595.02,244.57 629.17,223.09 713,263.09 C740.06,276 759.3726,295.9079 776.0726,319.5179" fill="none" id="Session-to-Message" style="stroke:#4B5563;stroke-width:1;"/><polygon fill="#4B5563" points="778.96,323.6,777.0284,313.9424,776.0726,319.5179,770.4971,318.5622,778.96,323.6" style="stroke:#4B5563;stroke-width:1;stroke-linejoin:miter;stroke-miterlimit:10;"/><text fill="#000000" font-family="sans-serif" font-size="13" lengthAdjust="spacing" textLength="53.2061" x="534.5" y="250.4984">contains</text><text fill="#000000" font-family="sans-serif" font-size="13" lengthAdjust="spacing" textLength="8.2202" x="394.4154" y="288.5299">1</text><text fill="#000000" font-family="sans-serif" font-size="13" lengthAdjust="spacing" textLength="6.2651" x="768.7049" y="313.1954">*</text></g><!--link SessionManager to JSONLStorage--><g class="link" data-entity-1="ent0002" data-entity-2="ent0005" data-link-type="dependency" data-source-line="51" id="lnk9"><path codeLine="51" d="M361.86,207.16 C419.91,249.84 487.6119,299.6178 538.6319,337.1378" fill="none" id="SessionManager-to-JSONLStorage" style="stroke:#4B5563;stroke-width:1;"/><polygon fill="#4B5563" points="542.66,340.1,537.7793,331.5456,538.6319,337.1378,533.0397,337.9904,542.66,340.1" style="stroke:#4B5563;stroke-width:1;stroke-linejoin:miter;stroke-miterlimit:10;"/><text fill="#000000" font-family="sans-serif" font-size="13" lengthAdjust="spacing" textLength="71.0239" x="426.16" y="250.4984">persists via</text></g><!--link JSONLStorage to Session--><g class="link" data-entity-1="ent0005" data-entity-2="ent0003" data-link-type="dependency" data-source-line="52" id="lnk10"><path codeLine="52" d="M520.03,389.15 C482.5,389.15 442.18,389.15 397.83,389.15" fill="none" id="JSONLStorage-to-Session" style="stroke:#4B5563;stroke-width:1;stroke-dasharray:7,7;"/><polygon fill="#4B5563" points="392.83,389.15,401.83,393.15,397.83,389.15,401.83,385.15,392.83,389.15" style="stroke:#4B5563;stroke-width:1;stroke-linejoin:miter;stroke-miterlimit:10;"/><text fill="#000000" font-family="sans-serif" font-size="13" lengthAdjust="spacing" textLength="91.3491" x="410.9" y="382.7184">deserializes to</text></g><!--link JSONLStorage to GMN14--><g class="link" data-entity-1="ent0005" data-entity-2="ent0015" data-link-type="association" data-source-line="59" id="lnk16"><path d="M631.47,340.06 C651.96,303.47 685.47,256.21 730.5,234.43 C797.72,201.91 831.09,202.31 898.5,234.43 C953.45,260.61 992.16,323.92 1010.99,360.93" fill="none" id="JSONLStorage-GMN14" style="stroke:#4B5563;stroke-width:1;stroke-dasharray:7,7;"/></g><?plantuml-src XLJBRjim4BpxAnREnMdj06wRDX020-aBRP4q0V81n9fSouGfaY0PkswHVy_gvKgAW-XWMDpXS3WxshZHrcF00fOeDtbm3rPzSSO5I05jv1BPD8e7L5oZSZjjSrYXYTIfI8CnmhyHm6SN58MQvUJ3ylpyu_joTS1_ihfOuKfovRkpgLcRp-SNxpxnsbK8RjUdU1mbvo4vMBgKN05A1v99EpjYF81dVim9ndSFIwEbkBhxEQxar4yjxvvYv1qtQ1aQEkNoUPjJ4Yu86GWJJJQqpo2cSDhkweEb8GmTqDPfrKTekqMZLP_hESpec4IiZuYJKxZczyjMA2LSzE0p8L6kAOElMgPBffosyeQudGiRRg0auJ6jCxZZtmFaSNJScQ4bhV3-Qi5WDZ1cjTYR-dKn12NaosCjTM1UPR4Ic38e3Kgwe3xYmQjN4AYKQ8HCWZCq1Sb1uhXEEIJEi4_6nCv_eTLfdo7YbYQ3DUQ8hkeQko5yS7dWCpBGDdNCwrXuoDrzSe7_Y6lSKtWUlL_tjx-l6ypGvKf84u6iRSL0c76eNijaeVF0NWb3ESfzvshFsjsqR2YazF58lnjZZrJAjiI4XN-fI_zRaS6jBqr5ymA26tG4qpDxyFsEvsEOpHOmVZC-13Y3egh6xeOUihrxLWK6jOt7k4jqhsSPU0gHynvXgx7QqgkVdIqw8XH52fg__xyKEOErVEiIGT3vEe5R3GviBlpDfh07xpXlpB7IbXHd3uJGLYSXplo-1VxnZYC3vHoouAkX1ppqId4CB_qK5PIigWu-eg2hlw7zWLOPfaKUiKou2pfHd3R5EbTGnuobJu7HJUqmRcPHEi-gowaJUmgU0000?></g></svg>