<svg xmlns="http://www.w3.org/2000/svg" xmlns:xlink="http://www.w3.org/1999/xlink" contentStyleType="text/css" data-diagram-type="DESCRIPTION" height="639px" preserveAspectRatio="none" style="width:1258px;height:639px;background:#FFFFFF;" version="1.1" viewBox="0 0 1258 639" width="1258px" zoomAndPan="magnify"><?plantuml 1.2026.5?><defs/><rect data-xfeat-white-canvas="true" fill="#FFFFFF" height="100%" width="100%" x="0" y="0"/><g><g class="title" data-source-line="3"><text fill="#0F172A" font-family="Helvetica" font-size="14" font-weight="700" lengthAdjust="spacing" textLength="263.6826" x="493.8279" y="20.7803">Bridge Component - Container Diagram</text></g><!--cluster bridge--><g class="cluster" data-qualified-name="bridge" data-source-line="6" id="ent0003"><rect fill="#FFFFFF" height="453" rx="4" ry="4" style="stroke:#CBD5E1;stroke-width:1;" width="710" x="263.94" y="42"/><text fill="#0F172A" font-family="Helvetica" font-size="14" font-weight="700" lengthAdjust="spacing" textLength="149.3447" x="544.2676" y="54.7803">bridge/src Component</text></g><!--entity index--><g class="entity" data-qualified-name="bridge.index" data-source-line="7" id="ent0004"><rect fill="#FFFFFF" height="72" rx="4" ry="4" style="stroke:#64748B;stroke-width:0.5;" width="327.1299" x="382.38" y="75"/><rect fill="#FFFFFF" height="10" style="stroke:#64748B;stroke-width:0.5;" width="15" x="689.5099" y="80"/><rect fill="#FFFFFF" height="2" style="stroke:#64748B;stroke-width:0.5;" width="4" x="687.5099" y="82"/><rect fill="#FFFFFF" height="2" style="stroke:#64748B;stroke-width:0.5;" width="4" x="687.5099" y="86"/><text fill="#0F172A" font-family="Helvetica" font-size="14" lengthAdjust="spacing" textLength="48.248" x="516.8209" y="105.7803">index.ts</text><text fill="#0F172A" font-family="Helvetica" font-size="14" lengthAdjust="spacing" textLength="68.4756" x="506.7071" y="119.7803">Entry Point</text><text fill="#0F172A" font-family="Helvetica" font-size="14" lengthAdjust="spacing" textLength="287.1299" x="397.38" y="133.7803">Process lifecycle, config loading, crypto polyfill</text></g><!--entity server--><g class="entity" data-qualified-name="bridge.server" data-source-line="8" id="ent0005"><rect fill="#FFFFFF" height="72" rx="4" ry="4" style="stroke:#64748B;stroke-width:0.5;" width="388.6533" x="558.62" y="237"/><rect fill="#FFFFFF" height="10" style="stroke:#64748B;stroke-width:0.5;" width="15" x="927.2733" y="242"/><rect fill="#FFFFFF" height="2" style="stroke:#64748B;stroke-width:0.5;" width="4" x="925.2733" y="244"/><rect fill="#FFFFFF" height="2" style="stroke:#64748B;stroke-width:0.5;" width="4" x="925.2733" y="248"/><text fill="#0F172A" font-family="Helvetica" font-size="14" lengthAdjust="spacing" textLength="53.6758" x="721.1088" y="267.7803">server.ts</text><text fill="#0F172A" font-family="Helvetica" font-size="14" lengthAdjust="spacing" textLength="116.71" x="689.5917" y="281.7803">WebSocket Server</text><text fill="#0F172A" font-family="Helvetica" font-size="14" lengthAdjust="spacing" textLength="348.6533" x="573.62" y="295.7803">Client connections, auth, message routing, broadcasting</text></g><!--entity whatsapp_client--><g class="entity" data-qualified-name="bridge.whatsapp_client" data-source-line="9" id="ent0006"><rect fill="#FFFFFF" height="72" rx="4" ry="4" style="stroke:#64748B;stroke-width:0.5;" width="347.3711" x="280.26" y="407"/><rect fill="#FFFFFF" height="10" style="stroke:#64748B;stroke-width:0.5;" width="15" x="607.6311" y="412"/><rect fill="#FFFFFF" height="2" style="stroke:#64748B;stroke-width:0.5;" width="4" x="605.6311" y="414"/><rect fill="#FFFFFF" height="2" style="stroke:#64748B;stroke-width:0.5;" width="4" x="605.6311" y="418"/><text fill="#0F172A" font-family="Helvetica" font-size="14" lengthAdjust="spacing" textLength="74.71" x="411.5906" y="437.7803">whatsapp.ts</text><text fill="#0F172A" font-family="Helvetica" font-size="14" lengthAdjust="spacing" textLength="104.2686" x="396.8113" y="451.7803">WhatsApp Client</text><text fill="#0F172A" font-family="Helvetica" font-size="14" lengthAdjust="spacing" textLength="307.3711" x="295.26" y="465.7803">Baileys wrapper, QR auth, message send/receive</text></g><!--entity types--><g class="entity" data-qualified-name="bridge.types" data-source-line="10" id="ent0007"><path d="M670.11,417.5 C670.11,407.5 813.944,407.5 813.944,407.5 C813.944,407.5 957.778,407.5 957.778,417.5 L957.778,468.5 C957.778,478.5 813.944,478.5 813.944,478.5 C813.944,478.5 670.11,478.5 670.11,468.5 L670.11,417.5" fill="#FFFFFF" style="stroke:#64748B;stroke-width:0.5;"/><path d="M670.11,417.5 C670.11,427.5 813.944,427.5 813.944,427.5 C813.944,427.5 957.778,427.5 957.778,417.5" fill="none" style="stroke:#64748B;stroke-width:0.5;"/><text fill="#0F172A" font-family="Helvetica" font-size="14" lengthAdjust="spacing" textLength="59.917" x="783.9855" y="442.2803">types.d.ts</text><text fill="#0F172A" font-family="Helvetica" font-size="14" lengthAdjust="spacing" textLength="100.3789" x="763.7545" y="456.2803">Type Definitions</text><text fill="#0F172A" font-family="Helvetica" font-size="14" lengthAdjust="spacing" textLength="267.668" x="680.11" y="470.2803">TypeScript declarations for qrcode-terminal</text></g><!--entity user--><g class="entity" data-qualified-name="user" data-source-line="4" id="ent0001"><ellipse cx="121.9443" cy="407.5" fill="#F1F1F1" rx="8" ry="8" style="stroke:#181818;stroke-width:0.5;"/><path d="M121.9443,415.5 L121.9443,442.5 M108.9443,423.5 L134.9443,423.5 M121.9443,442.5 L108.9443,457.5 M121.9443,442.5 L134.9443,457.5" fill="none" style="stroke:#181818;stroke-width:0.5;"/><text fill="#0F172A" font-family="Helvetica" font-size="14" lengthAdjust="spacing" textLength="58.3584" x="92.7651" y="469.7803">End User</text><text fill="#0F172A" font-family="Helvetica" font-size="14" lengthAdjust="spacing" textLength="231.8887" x="6" y="483.7803">Sends/receives WhatsApp messages</text></g><!--entity whatsapp--><g class="entity" data-qualified-name="whatsapp" data-source-line="5" id="ent0002"><rect fill="#FFFFFF" height="48" rx="4" ry="4" style="stroke:#64748B;stroke-width:0.5;" width="214.8584" x="52.52" y="577"/><text fill="#0F172A" font-family="Helvetica" font-size="14" lengthAdjust="spacing" textLength="116.71" x="101.5942" y="597.7803">WhatsApp Servers</text><text fill="#0F172A" font-family="Helvetica" font-size="14" lengthAdjust="spacing" textLength="194.8584" x="62.52" y="611.7803">Meta's WhatsApp infrastructure</text></g><!--entity python_backend--><g class="entity" data-qualified-name="python_backend" data-source-line="12" id="ent0008"><rect fill="#FFFFFF" height="72" rx="4" ry="4" style="stroke:#64748B;stroke-width:0.5;" width="254.7783" x="989.56" y="75"/><rect fill="#FFFFFF" height="10" style="stroke:#64748B;stroke-width:0.5;" width="15" x="1224.3383" y="80"/><rect fill="#FFFFFF" height="2" style="stroke:#64748B;stroke-width:0.5;" width="4" x="1222.3383" y="82"/><rect fill="#FFFFFF" height="2" style="stroke:#64748B;stroke-width:0.5;" width="4" x="1222.3383" y="86"/><text fill="#0F172A" font-family="Helvetica" font-size="14" lengthAdjust="spacing" textLength="101.958" x="1060.9702" y="105.7803">Python Backend</text><text fill="#0F172A" font-family="Helvetica" font-size="14" lengthAdjust="spacing" textLength="81.7305" x="1071.0839" y="119.7803">nanobot core</text><text fill="#0F172A" font-family="Helvetica" font-size="14" lengthAdjust="spacing" textLength="214.7783" x="1004.56" y="133.7803">Connects via WebSocket to bridge</text></g><!--link user to whatsapp--><g class="link" data-entity-1="ent0001" data-entity-2="ent0002" data-link-type="dependency" data-source-line="13" id="lnk9"><path d="M132.53,487.45 C139.56,516.3 147.328,548.1917 153.048,571.7017" fill="none" id="user-to-whatsapp" style="stroke:#64748B;stroke-width:1.1;"/><polygon fill="#64748B" points="154.23,576.56,155.989,566.8695,153.048,571.7017,148.2157,568.7607,154.23,576.56" style="stroke:#64748B;stroke-width:1.1;stroke-linejoin:miter;stroke-miterlimit:10;"/><text fill="#334155" font-family="Helvetica" font-size="12" lengthAdjust="spacing" textLength="27.3398" x="146.47" y="535.2402">Uses</text></g><!--link whatsapp_client to whatsapp--><g class="link" data-entity-1="ent0006" data-entity-2="ent0002" data-link-type="dependency" data-source-line="14" id="lnk10"><path d="M387.23,479.4 C331.15,509.15 257.0066,548.4961 208.4666,574.2561" fill="none" id="whatsapp_client-to-whatsapp" style="stroke:#64748B;stroke-width:1.1;"/><polygon fill="#64748B" points="204.05,576.6,213.875,575.9143,208.4666,574.2561,210.1248,568.8478,204.05,576.6" style="stroke:#64748B;stroke-width:1.1;stroke-linejoin:miter;stroke-miterlimit:10;"/><text fill="#334155" font-family="Helvetica" font-size="12" lengthAdjust="spacing" textLength="61.3594" x="332.6138" y="529.2402">WebSocket</text><text fill="#334155" font-family="Helvetica" font-size="12" lengthAdjust="spacing" textLength="110.707" x="307.94" y="541.2402">(WhatsApp Protocol)</text></g><!--link index to server--><g class="link" data-entity-1="ent0004" data-entity-2="ent0005" data-link-type="dependency" data-source-line="15" id="lnk11"><path d="M591.63,147.31 C625.92,173.81 668.714,206.8923 703.064,233.4423" fill="none" id="index-to-server" style="stroke:#64748B;stroke-width:1.1;"/><polygon fill="#64748B" points="707.02,236.5,702.3453,227.8313,703.064,233.4423,697.4529,234.1609,707.02,236.5" style="stroke:#64748B;stroke-width:1.1;stroke-linejoin:miter;stroke-miterlimit:10;"/><text fill="#334155" font-family="Helvetica" font-size="12" lengthAdjust="spacing" textLength="49.3535" x="662.84" y="195.2402">Initializes</text></g><!--link index to whatsapp_client--><g class="link" data-entity-1="ent0004" data-entity-2="ent0006" data-link-type="dependency" data-source-line="16" id="lnk12"><path d="M529.2,147.49 C511.75,184.44 486.94,237 486.94,237 C486.94,237 469.8443,343.2135 460.4143,401.8235" fill="none" id="index-to-whatsapp_client" style="stroke:#64748B;stroke-width:1.1;"/><polygon fill="#64748B" points="459.62,406.76,464.9989,398.5097,460.4143,401.8235,457.1004,397.2389,459.62,406.76" style="stroke:#64748B;stroke-width:1.1;stroke-linejoin:miter;stroke-miterlimit:10;"/><text fill="#334155" font-family="Helvetica" font-size="12" lengthAdjust="spacing" textLength="49.3535" x="487.94" y="276.2402">Initializes</text></g><!--link server to whatsapp_client--><g class="link" data-entity-1="ent0005" data-entity-2="ent0006" data-link-type="dependency" data-source-line="17" id="lnk13"><path d="M689.9,309.42 C639.01,338.01 572.1291,375.6009 521.2591,404.1809" fill="none" id="server-to-whatsapp_client" style="stroke:#64748B;stroke-width:1.1;"/><polygon fill="#64748B" points="516.9,406.63,526.7057,405.709,521.2591,404.1809,522.7872,398.7344,516.9,406.63" style="stroke:#64748B;stroke-width:1.1;stroke-linejoin:miter;stroke-miterlimit:10;"/><text fill="#334155" font-family="Helvetica" font-size="12" lengthAdjust="spacing" textLength="64.0195" x="650.2407" y="351.2402">Calls send()</text><text fill="#334155" font-family="Helvetica" font-size="12" lengthAdjust="spacing" textLength="102.041" x="631.23" y="363.2402">Receives callbacks</text></g><!--link server to types--><g class="link" data-entity-1="ent0005" data-entity-2="ent0007" data-link-type="dependency" data-source-line="18" id="lnk14"><path d="M765.73,309.22 C776.18,337.99 789.164,373.74 799.574,402.42" fill="none" id="server-to-types" style="stroke:#64748B;stroke-width:1.1;"/><polygon fill="#64748B" points="801.28,407.12,801.9693,397.2953,799.574,402.42,794.4493,400.0248,801.28,407.12" style="stroke:#64748B;stroke-width:1.1;stroke-linejoin:miter;stroke-miterlimit:10;"/><text fill="#334155" font-family="Helvetica" font-size="12" lengthAdjust="spacing" textLength="59.3555" x="786.27" y="357.2402">Uses types</text></g><!--link python_backend to server--><g class="link" data-entity-1="ent0008" data-entity-2="ent0005" data-link-type="dependency" data-source-line="19" id="lnk15"><path d="M1036.61,147.31 C976.32,173.81 898.6773,207.938 838.2773,234.488" fill="none" id="python_backend-to-server" style="stroke:#64748B;stroke-width:1.1;"/><polygon fill="#64748B" points="833.7,236.5,843.5488,236.5402,838.2773,234.488,840.3295,229.2165,833.7,236.5" style="stroke:#64748B;stroke-width:1.1;stroke-linejoin:miter;stroke-miterlimit:10;"/><text fill="#334155" font-family="Helvetica" font-size="12" lengthAdjust="spacing" textLength="61.3594" x="983.4275" y="189.2402">WebSocket</text><text fill="#334155" font-family="Helvetica" font-size="12" lengthAdjust="spacing" textLength="112.7344" x="957.74" y="201.2402">(ws://127.0.0.1:3001)</text></g><?plantuml-src RLDDRzim3BtxLt2vh0NorUrG88S1Qzh33WEwPaCl1Wf6fXEXCgL9T3jls7yVBITf4Wo-sDBZUtoFz3lBnhKLGOY-ffIiPtGJsL93KzishX0VG3oilOXleBAHZ2Ye42kEu2RQQaEmz4tmJ2mmqNSMj4mHRYrk8ZO56l4HHdTSmOz4iUGLSPLcoaJsXH8yRb7Ivn2WqGPmGsa4cA1LQD6h8MzKQNH0hIY-K4mbVoN1zqVbbkk8IM9hf8sKILxxEmoX26YUbHf6wzpnB4NprdM63XVmfp07CoFB5VsQYchTiSGExhrbAVa-UgEjWhCrcSuu6eFnNDiDE8-LvOr-noveRC6xhhREPONCTaoVifFC_qZhbJVF93jx9I-TxK5Ap4FaQGpOodQyZmcYRoMBhQFA6hMkNrbf83wMsWSnYEqJ6pHAla7hgDEuea8eZk7RmvbMqf7j9tQIx9F974M5WcjCch1qWTAqoahVzHrkgRPiiuNXP6MY3G8L6OSHymNKkY8_e_4LJOHYOtKDiqvcA_uUUxdlPEiPRdIasbN9ZEnrFpMgI9hR45Y25ulm5ck_mtd2cJLaYgVrG57qkmQJoQU3ArZqgvgACvVdc0DzoHU7K7Kxn1llBeiyy5mp34GhllH1eBE_bVpj-bpc5BSh_ZzmYSwbF9wBov8Vzl-KqUFUtKbrpd9dRHViQH2dlHwxUqsBsUpgm_Lqhi_LukDyVdNv3m00?></g></svg>