<svg xmlns="http://www.w3.org/2000/svg" xmlns:xlink="http://www.w3.org/1999/xlink" contentStyleType="text/css" data-diagram-type="DESCRIPTION" height="778px" preserveAspectRatio="none" style="width:875px;height:778px;" version="1.1" viewBox="0 0 875 778" width="875px" zoomAndPan="magnify"><?plantuml 1.2026.5?><defs><style><![CDATA[
@media (prefers-color-scheme: dark) {
  text { fill: #e5e7eb !important; }
  path, line, rect, circle, ellipse, polygon, polyline { stroke: #cbd5e1 !important; }
  .entity rect, .participant rect, .participant path, .sequenceLine rect, .class rect, .component rect, .component path, .note rect { fill: #111827 !important; }
  .cluster path { fill: none !important; }
  polygon { fill: #cbd5e1 !important; }
}
]]></style></defs><g><!--cluster External--><g class="cluster" data-qualified-name="External" data-source-line="13" id="ent0001"><path d="M365.5,6 L489.0068,6 A3.75,3.75 0 0 1 491.5068,8.5 L498.5068,28.4883 L498.5,28.4883 A2.5,2.5 0 0 1 501,30.9883 L501,107.47 A2.5,2.5 0 0 1 498.5,109.97 L365.5,109.97 A2.5,2.5 0 0 1 363,107.47 L363,8.5 A2.5,2.5 0 0 1 365.5,6" fill="none" style="stroke:#64748B;stroke-width:1.5;"/><line style="stroke:#64748B;stroke-width:1.5;" x1="363" x2="498.5068" y1="28.4883" y2="28.4883"/><text fill="#000000" font-family="sans-serif" font-size="14" font-weight="700" lengthAdjust="spacing" textLength="122.5068" x="367" y="21.5352">External Services</text></g><!--cluster Bridge--><g class="cluster" data-qualified-name="Bridge" data-source-line="16" id="ent0003"><path d="M8.5,158.97 L143.9971,158.97 A3.75,3.75 0 0 1 146.4971,161.47 L153.4971,181.4583 L591.5,181.4583 A2.5,2.5 0 0 1 594,183.9583 L594,761.38 A2.5,2.5 0 0 1 591.5,763.88 L8.5,763.88 A2.5,2.5 0 0 1 6,761.38 L6,161.47 A2.5,2.5 0 0 1 8.5,158.97" fill="none" style="stroke:#64748B;stroke-width:1.5;"/><line style="stroke:#64748B;stroke-width:1.5;" x1="6" x2="153.4971" y1="181.4583" y2="181.4583"/><text fill="#000000" font-family="sans-serif" font-size="14" font-weight="700" lengthAdjust="spacing" textLength="134.4971" x="10" y="174.5052">bridge Component</text></g><!--cluster Config--><g class="cluster" data-qualified-name="Bridge.Config" data-source-line="17" id="ent0004"><path d="M32.5,201.97 L177.0684,201.97 A3.75,3.75 0 0 1 179.5684,204.47 L186.5684,224.4583 L239.5,224.4583 A2.5,2.5 0 0 1 242,226.9583 L242,454.43 A2.5,2.5 0 0 1 239.5,456.93 L32.5,456.93 A2.5,2.5 0 0 1 30,454.43 L30,204.47 A2.5,2.5 0 0 1 32.5,201.97" fill="none" style="stroke:#64748B;stroke-width:1.5;"/><line style="stroke:#64748B;stroke-width:1.5;" x1="30" x2="186.5684" y1="224.4583" y2="224.4583"/><text fill="#000000" font-family="sans-serif" font-size="14" font-weight="700" lengthAdjust="spacing" textLength="143.5684" x="34" y="217.5052">Configuration Layer</text></g><!--cluster Runtime--><g class="cluster" data-qualified-name="Bridge.Runtime" data-source-line="21" id="ent0007"><path d="M268.5,201.97 L373.2695,201.97 A3.75,3.75 0 0 1 375.7695,204.47 L382.7695,224.4583 L567.5,224.4583 A2.5,2.5 0 0 1 570,226.9583 L570,454.43 A2.5,2.5 0 0 1 567.5,456.93 L268.5,456.93 A2.5,2.5 0 0 1 266,454.43 L266,204.47 A2.5,2.5 0 0 1 268.5,201.97" fill="none" style="stroke:#64748B;stroke-width:1.5;"/><line style="stroke:#64748B;stroke-width:1.5;" x1="266" x2="382.7695" y1="224.4583" y2="224.4583"/><text fill="#000000" font-family="sans-serif" font-size="14" font-weight="700" lengthAdjust="spacing" textLength="103.7695" x="270" y="217.5052">Runtime Layer</text></g><!--cluster Build--><g class="cluster" data-qualified-name="Bridge.Build" data-source-line="26" id="ent0011"><path d="M46.5,505.93 L150.4834,505.93 A3.75,3.75 0 0 1 152.9834,508.43 L159.9834,528.4183 L225.5,528.4183 A2.5,2.5 0 0 1 228,530.9183 L228,737.38 A2.5,2.5 0 0 1 225.5,739.88 L46.5,739.88 A2.5,2.5 0 0 1 44,737.38 L44,508.43 A2.5,2.5 0 0 1 46.5,505.93" fill="none" style="stroke:#64748B;stroke-width:1.5;"/><line style="stroke:#64748B;stroke-width:1.5;" x1="44" x2="159.9834" y1="528.4183" y2="528.4183"/><text fill="#000000" font-family="sans-serif" font-size="14" font-weight="700" lengthAdjust="spacing" textLength="102.9834" x="48" y="521.4652">Build Artifacts</text></g><!--cluster Consumer--><g class="cluster" data-qualified-name="Consumer" data-source-line="31" id="ent0014"><path d="M710.5,352.95 L838.8604,352.95 A3.75,3.75 0 0 1 841.3604,355.45 L848.3604,375.4383 L848.5,375.4383 A2.5,2.5 0 0 1 851,377.9383 L851,454.43 A2.5,2.5 0 0 1 848.5,456.93 L710.5,456.93 A2.5,2.5 0 0 1 708,454.43 L708,355.45 A2.5,2.5 0 0 1 710.5,352.95" fill="none" style="stroke:#64748B;stroke-width:1.5;"/><line style="stroke:#64748B;stroke-width:1.5;" x1="708" x2="848.3604" y1="375.4383" y2="375.4383"/><text fill="#000000" font-family="sans-serif" font-size="14" font-weight="700" lengthAdjust="spacing" textLength="127.3604" x="712" y="368.4852">Nanobot Platform</text></g><!--entity WA--><g class="entity" data-qualified-name="External.WA" data-source-line="14" id="ent0002"><rect fill="#F8FAFC" height="52.9766" rx="2.5" ry="2.5" style="stroke:#4B5563;stroke-width:0.5;" width="88.0518" x="387.97" y="41"/><text fill="#111827" font-family="sans-serif" font-size="14" lengthAdjust="spacing" textLength="68.0518" x="397.97" y="64.5352">WhatsApp</text><text fill="#111827" font-family="sans-serif" font-size="14" lengthAdjust="spacing" textLength="56.6768" x="403.6575" y="81.0234">Network</text></g><!--entity PKG--><g class="entity" data-qualified-name="Bridge.Config.PKG" data-source-line="18" id="ent0005"><rect fill="#F8FAFC" height="52.9766" rx="2.5" ry="2.5" style="stroke:#4B5563;stroke-width:0.5;" width="179.332" x="46.33" y="236.97"/><text fill="#111827" font-family="sans-serif" font-size="14" lengthAdjust="spacing" textLength="89.2705" x="91.3608" y="260.5052">package.json</text><text fill="#111827" font-family="sans-serif" font-size="14" lengthAdjust="spacing" textLength="159.332" x="56.33" y="276.9934">Dependencies &amp; Scripts</text></g><!--entity TSC--><g class="entity" data-qualified-name="Bridge.Config.TSC" data-source-line="19" id="ent0006"><rect fill="#F8FAFC" height="52.9766" rx="2.5" ry="2.5" style="stroke:#4B5563;stroke-width:0.5;" width="161.4082" x="55.3" y="387.95"/><text fill="#111827" font-family="sans-serif" font-size="14" lengthAdjust="spacing" textLength="87.8691" x="92.0695" y="411.4852">tsconfig.json</text><text fill="#111827" font-family="sans-serif" font-size="14" lengthAdjust="spacing" textLength="141.4082" x="65.3" y="427.9734">Compilation Settings</text></g><!--entity AUTH--><g class="entity" data-qualified-name="Bridge.Runtime.AUTH" data-source-line="22" id="ent0008"><rect fill="#F8FAFC" height="52.9766" rx="2.5" ry="2.5" style="stroke:#4B5563;stroke-width:0.5;" width="143.6758" x="282.16" y="236.97"/><text fill="#111827" font-family="sans-serif" font-size="14" lengthAdjust="spacing" textLength="123.6758" x="292.16" y="260.5052">QR Authentication</text><text fill="#111827" font-family="sans-serif" font-size="14" lengthAdjust="spacing" textLength="50.0049" x="328.9954" y="276.9934">Module</text></g><!--entity WS--><g class="entity" data-qualified-name="Bridge.Runtime.WS" data-source-line="23" id="ent0009"><rect fill="#F8FAFC" height="52.9766" rx="2.5" ry="2.5" style="stroke:#4B5563;stroke-width:0.5;" width="93.1172" x="460.44" y="236.97"/><text fill="#111827" font-family="sans-serif" font-size="14" lengthAdjust="spacing" textLength="73.1172" x="470.44" y="260.5052">WebSocket</text><text fill="#111827" font-family="sans-serif" font-size="14" lengthAdjust="spacing" textLength="53.0947" x="480.4512" y="276.9934">Handler</text></g><!--entity LOG--><g class="entity" data-qualified-name="Bridge.Runtime.LOG" data-source-line="24" id="ent0010"><rect fill="#F8FAFC" height="52.9766" rx="2.5" ry="2.5" style="stroke:#4B5563;stroke-width:0.5;" width="100.5547" x="390.72" y="387.95"/><text fill="#111827" font-family="sans-serif" font-size="14" lengthAdjust="spacing" textLength="80.5547" x="400.72" y="411.4852">Pino Logger</text><text fill="#111827" font-family="sans-serif" font-size="14" lengthAdjust="spacing" textLength="56.4854" x="412.7547" y="427.9734">Instance</text></g><!--entity SRC--><g class="entity" data-qualified-name="Bridge.Build.SRC" data-source-line="27" id="ent0012"><rect fill="#F8FAFC" height="52.9766" rx="2.5" ry="2.5" style="stroke:#4B5563;stroke-width:0.5;" width="141.2695" x="65.37" y="540.93"/><text fill="#111827" font-family="sans-serif" font-size="14" lengthAdjust="spacing" textLength="27.3779" x="122.3158" y="564.4652">src/</text><text fill="#111827" font-family="sans-serif" font-size="14" lengthAdjust="spacing" textLength="121.2695" x="75.37" y="580.9534">TypeScript Source</text></g><!--entity DIST--><g class="entity" data-qualified-name="Bridge.Build.DIST" data-source-line="28" id="ent0013"><rect fill="#F8FAFC" height="52.9766" rx="2.5" ry="2.5" style="stroke:#4B5563;stroke-width:0.5;" width="151.2295" x="60.39" y="670.9"/><text fill="#111827" font-family="sans-serif" font-size="14" lengthAdjust="spacing" textLength="32.5732" x="119.7181" y="694.4352">dist/</text><text fill="#111827" font-family="sans-serif" font-size="14" lengthAdjust="spacing" textLength="131.2295" x="70.39" y="710.9234">Compiled JS + .d.ts</text></g><!--entity NB--><g class="entity" data-qualified-name="Consumer.NB" data-source-line="32" id="ent0015"><rect fill="#F8FAFC" height="52.9766" rx="2.5" ry="2.5" style="stroke:#4B5563;stroke-width:0.5;" width="104.3418" x="724.83" y="387.95"/><text fill="#111827" font-family="sans-serif" font-size="14" lengthAdjust="spacing" textLength="58.0098" x="747.996" y="411.4852">Nanobot</text><text fill="#111827" font-family="sans-serif" font-size="14" lengthAdjust="spacing" textLength="84.3418" x="734.83" y="427.9734">Core System</text></g><!--entity TERM--><g class="entity" data-qualified-name="TERM" data-source-line="36" id="ent0018"><rect fill="#F8FAFC" height="52.9766" rx="2.5" ry="2.5" style="stroke:#4B5563;stroke-width:0.5;" width="79.9648" x="610.02" y="387.95"/><text fill="#111827" font-family="sans-serif" font-size="14" lengthAdjust="spacing" textLength="59.9648" x="620.02" y="411.4852">Terminal</text><text fill="#111827" font-family="sans-serif" font-size="14" lengthAdjust="spacing" textLength="47.5371" x="626.2339" y="427.9734">Output</text></g><!--link WA to WS--><g class="link" data-entity-1="ent0002" data-entity-2="ent0009" data-link-type="dependency" data-source-line="34" id="lnk16"><path d="M450.296,98.5882 C455.866,108.3082 459.39,115.27 464,125.97 C480.06,163.28 491.8738,203.7756 499.2338,231.6556" fill="none" id="WA-WS" style="stroke:#4B5563;stroke-width:1;"/><polygon fill="#4B5563" points="447.81,94.25,448.8142,104.0475,450.296,98.5882,455.7553,100.07,447.81,94.25" style="stroke:#4B5563;stroke-width:1;stroke-linejoin:miter;stroke-miterlimit:10;"/><polygon fill="#4B5563" points="500.51,236.49,502.0803,226.7671,499.2338,231.6556,494.3453,228.8091,500.51,236.49" style="stroke:#4B5563;stroke-width:1;stroke-linejoin:miter;stroke-miterlimit:10;"/><text fill="#000000" font-family="sans-serif" font-size="13" lengthAdjust="spacing" textLength="98.687" x="470.89" y="139.5384">Baileys Protocol</text></g><!--link WA to AUTH--><g class="link" data-entity-1="ent0002" data-entity-2="ent0008" data-link-type="dependency" data-source-line="35" id="lnk17"><path d="M387.76,92.89 C375.99,101.69 364.7,112.77 358,125.97 C340.18,161.06 342.9753,203.0968 347.7153,231.7968" fill="none" id="WA-to-AUTH" style="stroke:#4B5563;stroke-width:1;"/><polygon fill="#4B5563" points="348.53,236.73,351.01,227.1985,347.7153,231.7968,343.1169,228.5021,348.53,236.73" style="stroke:#4B5563;stroke-width:1;stroke-linejoin:miter;stroke-miterlimit:10;"/><text fill="#000000" font-family="sans-serif" font-size="13" lengthAdjust="spacing" textLength="96.4971" x="359" y="139.5384">Auth Challenge</text></g><!--link AUTH to TERM--><g class="link" data-entity-1="ent0008" data-entity-2="ent0018" data-link-type="dependency" data-source-line="37" id="lnk19"><path d="M426.16,285.92 C470.97,299.42 521.91,315.17 532,319.95 C550.27,328.6 553.84,332.8 570,344.95 C587.68,358.25 602.7719,370.9706 617.7219,384.1706" fill="none" id="AUTH-to-TERM" style="stroke:#4B5563;stroke-width:1;"/><polygon fill="#4B5563" points="621.47,387.48,617.3709,378.5247,617.7219,384.1706,612.076,384.5216,621.47,387.48" style="stroke:#4B5563;stroke-width:1;stroke-linejoin:miter;stroke-miterlimit:10;"/><text fill="#000000" font-family="sans-serif" font-size="13" lengthAdjust="spacing" textLength="54.8374" x="560.47" y="333.5184">QR Code</text></g><!--link PKG to TSC--><g class="link" data-entity-1="ent0005" data-entity-2="ent0006" data-link-type="dependency" data-source-line="38" id="lnk20"><path d="M136,290.41 C136,317.67 136,355.29 136,382.54" fill="none" id="PKG-to-TSC" style="stroke:#4B5563;stroke-width:1;"/><polygon fill="#4B5563" points="136,387.54,140,378.54,136,382.54,132,378.54,136,387.54" style="stroke:#4B5563;stroke-width:1;stroke-linejoin:miter;stroke-miterlimit:10;"/><text fill="#000000" font-family="sans-serif" font-size="13" lengthAdjust="spacing" textLength="47.4551" x="137" y="333.5184">Defines</text></g><!--link TSC to SRC--><g class="link" data-entity-1="ent0006" data-entity-2="ent0012" data-link-type="dependency" data-source-line="39" id="lnk21"><path d="M136,441.39 C136,469.13 136,507.84 136,535.55" fill="none" id="TSC-to-SRC" style="stroke:#4B5563;stroke-width:1;"/><polygon fill="#4B5563" points="136,540.55,140,531.55,136,535.55,132,531.55,136,540.55" style="stroke:#4B5563;stroke-width:1;stroke-linejoin:miter;stroke-miterlimit:10;"/><text fill="#000000" font-family="sans-serif" font-size="13" lengthAdjust="spacing" textLength="58.6841" x="137" y="486.4984">Compiles</text></g><!--link SRC to DIST--><g class="link" data-entity-1="ent0012" data-entity-2="ent0013" data-link-type="dependency" data-source-line="40" id="lnk22"><path d="M136,594.31 C136,616.52 136,643.34 136,665.53" fill="none" id="SRC-to-DIST" style="stroke:#4B5563;stroke-width:1;"/><polygon fill="#4B5563" points="136,670.53,140,661.53,136,665.53,132,661.53,136,670.53" style="stroke:#4B5563;stroke-width:1;stroke-linejoin:miter;stroke-miterlimit:10;"/><text fill="#000000" font-family="sans-serif" font-size="13" lengthAdjust="spacing" textLength="34.4297" x="137" y="637.4684">Emits</text></g><!--link WS to LOG--><g class="link" data-entity-1="ent0009" data-entity-2="ent0010" data-link-type="dependency" data-source-line="41" id="lnk23"><path d="M495.5,290.41 C483.43,317.67 466.5635,355.7178 454.5035,382.9678" fill="none" id="WS-to-LOG" style="stroke:#4B5563;stroke-width:1;"/><polygon fill="#4B5563" points="452.48,387.54,459.7801,380.9288,454.5035,382.9678,452.4646,377.6912,452.48,387.54" style="stroke:#4B5563;stroke-width:1;stroke-linejoin:miter;stroke-miterlimit:10;"/><text fill="#000000" font-family="sans-serif" font-size="13" lengthAdjust="spacing" textLength="40.5742" x="482.85" y="333.5184">Events</text></g><!--link AUTH to LOG--><g class="link" data-entity-1="ent0008" data-entity-2="ent0010" data-link-type="dependency" data-source-line="42" id="lnk24"><path d="M369.15,290.41 C385.07,317.67 407.439,355.9721 423.349,383.2221" fill="none" id="AUTH-to-LOG" style="stroke:#4B5563;stroke-width:1;"/><polygon fill="#4B5563" points="425.87,387.54,424.7865,377.7509,423.349,383.2221,417.8778,381.7846,425.87,387.54" style="stroke:#4B5563;stroke-width:1;stroke-linejoin:miter;stroke-miterlimit:10;"/><text fill="#000000" font-family="sans-serif" font-size="13" lengthAdjust="spacing" textLength="38.6001" x="395.89" y="333.5184">Status</text></g><!--link WS to NB--><g class="link" data-entity-1="ent0009" data-entity-2="ent0015" data-link-type="dependency" data-source-line="43" id="lnk25"><path d="M554.05,284.23 C578.57,294.65 609,307.77 636,319.95 C652.13,327.22 655.28,331.17 672,336.95 C687.08,342.17 692.99,337.31 707,344.95 C726.4,355.54 740.8659,369.2598 753.6359,383.9198" fill="none" id="WS-to-NB" style="stroke:#4B5563;stroke-width:1;"/><polygon fill="#4B5563" points="756.92,387.69,754.0247,378.2763,753.6359,383.9198,747.9924,383.5309,756.92,387.69" style="stroke:#4B5563;stroke-width:1;stroke-linejoin:miter;stroke-miterlimit:10;"/><text fill="#000000" font-family="sans-serif" font-size="13" lengthAdjust="spacing" textLength="60.8486" x="673" y="333.5184">Messages</text></g><!--link NB to WS--><g class="link" data-entity-1="ent0015" data-entity-2="ent0009" data-link-type="dependency" data-source-line="44" id="lnk26"><path d="M772.9,387.85 C768.15,366.6 758.21,337.17 738,319.95 C686.04,275.68 609.7173,265.6256 558.7173,263.9356" fill="none" id="NB-to-WS" style="stroke:#4B5563;stroke-width:1;"/><polygon fill="#4B5563" points="553.72,263.77,562.5826,268.0659,558.7173,263.9356,562.8475,260.0703,553.72,263.77" style="stroke:#4B5563;stroke-width:1;stroke-linejoin:miter;stroke-miterlimit:10;"/><text fill="#000000" font-family="sans-serif" font-size="13" lengthAdjust="spacing" textLength="105.917" x="753.28" y="333.5184">Send Commands</text></g><?plantuml-src ZL9DJzmm4BtdLun0wgK2HCkNggfIDb2WXMMxJhMNNBp99EjkCevi1rYX_lUEux1agnvwIUJdDs_UF8zTAsgbaGqiPRwkZEweI7Ij3JWZoV8LaelibcLNij1FYYeePMrnT5DWARlQfVZiubfLr70XvFn1CsB5nkYdq63_P7bwUlPnT3bZ2xB2YJO5ce5qTd9-Sh7y1-c_x1hCdQIgHdY907Q4X-u0NpMv0Ji-FhxuSEwPVwdlbnUbBFFeT-Hq2qx3KZkdUMZbEoXDKHjimTxLCqzCiWQ1vb7bQFT0MjYYBz6Rfxt5IZeRjsr6KtHFsgnxxYBcFbkzfL45_nFTj9fukfuo2U3B6otHLAggCzAxWJkvGTCp0xxRTYWw_6KrPNI9BLA1b2kqy0v4RbJhWklPz-jndRDvhpOKUakg3Wq5EiTR4SfIaOmdc7VaL8CZKw_8ZgiVSuWxj-8HLTwBPdIlYwx6lYJ-cTxiH8TBeVCrkenk91NreBmGOz9CaOOxNLLeChebotWUvEuUhiSM9vsg2rvEfqgP3yC7RCUYDVbHHkccnP0I2DsPGL7Cap6rKDOTlMQ41NmJy1uEYyD1_F9Mf6nWP64gIVDMmOmJBRLfNb_FTWsQNHi3rQiR1B6n3WDzEc75HGoV3mw-S1JmYHUPks_u9OrsEjUrl_MNFaw-ze53if9rZLJXk4UAfb6yi1azTAxjmjgbL_Fxg2_r6lx46lnkYIumucK9i4WOlSHI4Th8dppAyJ0wn64ZV_Impu7ngqOv6x5ZZ_7RUEYHDy6-TGkeSD9rM-Pqmj0zMii9seXFsxa5hxJlrl1ks3y0?></g></svg>