<svg xmlns="http://www.w3.org/2000/svg" xmlns:xlink="http://www.w3.org/1999/xlink" contentStyleType="text/css" data-diagram-type="DESCRIPTION" height="643px" preserveAspectRatio="none" style="width:1628px;height:643px;background:#FFFFFF;" version="1.1" viewBox="0 0 1628 643" width="1628px" zoomAndPan="magnify"><?plantuml 1.2026.5?><defs/><rect data-xfeat-white-canvas="true" fill="#FFFFFF" height="100%" width="100%" x="0" y="0"/><g><!--cluster External_Sources--><g class="cluster" data-qualified-name="External_Sources" data-source-line="3" id="ent0001"><rect fill="#FFFFFF" height="83" rx="4" ry="4" style="stroke:#CBD5E1;stroke-width:1;" width="462" x="1152" y="7"/><text fill="#0F172A" font-family="Helvetica" font-size="14" font-weight="700" lengthAdjust="spacing" textLength="114.3857" x="1325.8071" y="19.7803">External Sources</text></g><!--cluster summarize_Component--><g class="cluster" data-qualified-name="summarize_Component" data-source-line="8" id="ent0005"><rect fill="#FFFFFF" height="515" rx="4" ry="4" style="stroke:#CBD5E1;stroke-width:1;" width="1084" x="44" y="7"/><text fill="#0F172A" font-family="Helvetica" font-size="14" font-weight="700" lengthAdjust="spacing" textLength="154.7998" x="508.6001" y="19.7803">summarize Component</text></g><!--cluster Ingestion_Layer--><g class="cluster" data-qualified-name="summarize_Component.Ingestion_Layer" data-source-line="10" id="ent0007"><rect fill="#FFFFFF" height="83" rx="4" ry="4" style="stroke:#CBD5E1;stroke-width:1;" width="584" x="520" y="114"/><text fill="#0F172A" font-family="Helvetica" font-size="14" font-weight="700" lengthAdjust="spacing" textLength="103.4688" x="760.2656" y="126.7803">Ingestion Layer</text></g><!--cluster AI_Provider_Gateway--><g class="cluster" data-qualified-name="summarize_Component.AI_Provider_Gateway" data-source-line="16" id="ent0012"><rect fill="#FFFFFF" height="181" rx="4" ry="4" style="stroke:#CBD5E1;stroke-width:1;" width="564" x="81" y="317"/><text fill="#0F172A" font-family="Helvetica" font-size="14" font-weight="700" lengthAdjust="spacing" textLength="136.165" x="294.9175" y="329.7803">AI Provider Gateway</text></g><!--cluster Outputs--><g class="cluster" data-qualified-name="Outputs" data-source-line="26" id="ent0020"><rect fill="#FFFFFF" height="83" rx="4" ry="4" style="stroke:#CBD5E1;stroke-width:1;" width="555" x="7" y="546"/><text fill="#0F172A" font-family="Helvetica" font-size="14" font-weight="700" lengthAdjust="spacing" textLength="53.6553" x="257.6724" y="558.7803">Outputs</text></g><!--entity WEB--><g class="entity" data-qualified-name="External_Sources.WEB" data-source-line="4" id="ent0002"><rect fill="#FFFFFF" height="34" rx="4" ry="4" style="stroke:#64748B;stroke-width:0.5;" width="87.6826" x="1168.16" y="40"/><text fill="#0F172A" font-family="Helvetica" font-size="14" lengthAdjust="spacing" textLength="67.6826" x="1178.16" y="60.7803">Web URLs</text></g><!--entity FS--><g class="entity" data-qualified-name="External_Sources.FS" data-source-line="5" id="ent0003"><rect fill="#FFFFFF" height="34" rx="4" ry="4" style="stroke:#64748B;stroke-width:0.5;" width="133.5859" x="1298.21" y="40"/><text fill="#0F172A" font-family="Helvetica" font-size="14" lengthAdjust="spacing" textLength="113.5859" x="1308.21" y="60.7803">Local Files / PDFs</text></g><!--entity YT--><g class="entity" data-qualified-name="External_Sources.YT" data-source-line="6" id="ent0004"><rect fill="#FFFFFF" height="34" rx="4" ry="4" style="stroke:#64748B;stroke-width:0.5;" width="123.5166" x="1474.24" y="40"/><text fill="#0F172A" font-family="Helvetica" font-size="14" lengthAdjust="spacing" textLength="103.5166" x="1484.24" y="60.7803">YouTube Videos</text></g><!--entity CLI--><g class="entity" data-qualified-name="summarize_Component.CLI" data-source-line="9" id="ent0006"><rect fill="#FFFFFF" height="34" rx="4" ry="4" style="stroke:#64748B;stroke-width:0.5;" width="180.2959" x="313.85" y="147"/><text fill="#0F172A" font-family="Helvetica" font-size="14" lengthAdjust="spacing" textLength="160.2959" x="323.85" y="167.7803">CLI Interface / Entry Point</text></g><!--entity TEXT_NORMALIZER--><g class="entity" data-qualified-name="summarize_Component.TEXT_NORMALIZER" data-source-line="15" id="ent0011"><rect fill="#FFFFFF" height="34" rx="4" ry="4" style="stroke:#64748B;stroke-width:0.5;" width="118.793" x="652.6" y="252"/><text fill="#0F172A" font-family="Helvetica" font-size="14" lengthAdjust="spacing" textLength="98.793" x="662.6" y="272.7803">Text Normalizer</text></g><!--entity CONFIG--><g class="entity" data-qualified-name="summarize_Component.CONFIG" data-source-line="23" id="ent0018"><rect fill="#FFFFFF" height="34" rx="4" ry="4" style="stroke:#64748B;stroke-width:0.5;" width="162.4199" x="106.79" y="40"/><text fill="#0F172A" font-family="Helvetica" font-size="14" lengthAdjust="spacing" textLength="142.4199" x="116.79" y="60.7803">Configuration Manager</text></g><!--entity DB--><g class="entity" data-qualified-name="summarize_Component.DB" data-source-line="24" id="ent0019"><rect fill="#FFFFFF" height="48" rx="4" ry="4" style="stroke:#64748B;stroke-width:0.5;" width="167.0547" x="104.47" y="140"/><text fill="#0F172A" font-family="Helvetica" font-size="14" lengthAdjust="spacing" textLength="77.8203" x="149.0872" y="160.7803">Config Store</text><text fill="#0F172A" font-family="Helvetica" font-size="14" lengthAdjust="spacing" textLength="147.0547" x="114.47" y="174.7803">/.summarize/config.json</text></g><!--entity WEB_HANDLER--><g class="entity" data-qualified-name="summarize_Component.Ingestion_Layer.WEB_HANDLER" data-source-line="11" id="ent0008"><rect fill="#FFFFFF" height="34" rx="4" ry="4" style="stroke:#64748B;stroke-width:0.5;" width="177.917" x="536.04" y="147"/><text fill="#0F172A" font-family="Helvetica" font-size="14" lengthAdjust="spacing" textLength="157.917" x="546.04" y="167.7803">HTTP / Firecrawl Handler</text></g><!--entity FILE_PARSER--><g class="entity" data-qualified-name="summarize_Component.Ingestion_Layer.FILE_PARSER" data-source-line="12" id="ent0009"><rect fill="#FFFFFF" height="34" rx="4" ry="4" style="stroke:#64748B;stroke-width:0.5;" width="87.6826" x="756.16" y="147"/><text fill="#0F172A" font-family="Helvetica" font-size="14" lengthAdjust="spacing" textLength="67.6826" x="766.16" y="167.7803">File Parser</text></g><!--entity YT_EXTRACT--><g class="entity" data-qualified-name="summarize_Component.Ingestion_Layer.YT_EXTRACT" data-source-line="13" id="ent0010"><rect fill="#FFFFFF" height="34" rx="4" ry="4" style="stroke:#64748B;stroke-width:0.5;" width="202.8477" x="885.58" y="147"/><text fill="#0F172A" font-family="Helvetica" font-size="14" lengthAdjust="spacing" textLength="182.8477" x="895.58" y="167.7803">YouTube Transcript Extractor</text></g><!--entity PROV_ROUTER--><g class="entity" data-qualified-name="summarize_Component.AI_Provider_Gateway.PROV_ROUTER" data-source-line="17" id="ent0013"><rect fill="#FFFFFF" height="34" rx="4" ry="4" style="stroke:#64748B;stroke-width:0.5;" width="118.041" x="290.98" y="350"/><text fill="#0F172A" font-family="Helvetica" font-size="14" lengthAdjust="spacing" textLength="98.041" x="300.98" y="370.7803">Provider Router</text></g><!--entity OPENAI--><g class="entity" data-qualified-name="summarize_Component.AI_Provider_Gateway.OPENAI" data-source-line="18" id="ent0014"><rect fill="#FFFFFF" height="34" rx="4" ry="4" style="stroke:#64748B;stroke-width:0.5;" width="93.9307" x="97.03" y="448"/><text fill="#0F172A" font-family="Helvetica" font-size="14" lengthAdjust="spacing" textLength="73.9307" x="107.03" y="468.7803">OpenAI API</text></g><!--entity ANTHROPIC--><g class="entity" data-qualified-name="summarize_Component.AI_Provider_Gateway.ANTHROPIC" data-source-line="19" id="ent0015"><rect fill="#FFFFFF" height="34" rx="4" ry="4" style="stroke:#64748B;stroke-width:0.5;" width="105.5996" x="233.2" y="448"/><text fill="#0F172A" font-family="Helvetica" font-size="14" lengthAdjust="spacing" textLength="85.5996" x="243.2" y="468.7803">Anthropic API</text></g><!--entity XAI--><g class="entity" data-qualified-name="summarize_Component.AI_Provider_Gateway.XAI" data-source-line="20" id="ent0016"><rect fill="#FFFFFF" height="34" rx="4" ry="4" style="stroke:#64748B;stroke-width:0.5;" width="66.6826" x="380.66" y="448"/><text fill="#0F172A" font-family="Helvetica" font-size="14" lengthAdjust="spacing" textLength="46.6826" x="390.66" y="468.7803">xAI API</text></g><!--entity GEMINI--><g class="entity" data-qualified-name="summarize_Component.AI_Provider_Gateway.GEMINI" data-source-line="21" id="ent0017"><rect fill="#FFFFFF" height="34" rx="4" ry="4" style="stroke:#64748B;stroke-width:0.5;" width="139.834" x="489.08" y="448"/><text fill="#0F172A" font-family="Helvetica" font-size="14" lengthAdjust="spacing" textLength="119.834" x="499.08" y="468.7803">Google Gemini API</text></g><!--entity HUMAN_OUT--><g class="entity" data-qualified-name="Outputs.HUMAN_OUT" data-source-line="27" id="ent0021"><rect fill="#FFFFFF" height="34" rx="4" ry="4" style="stroke:#64748B;stroke-width:0.5;" width="193.5166" x="23.24" y="579"/><text fill="#0F172A" font-family="Helvetica" font-size="14" lengthAdjust="spacing" textLength="173.5166" x="33.24" y="599.7803">Human-Readable Summary</text></g><!--entity JSON_OUT--><g class="entity" data-qualified-name="Outputs.JSON_OUT" data-source-line="28" id="ent0022"><rect fill="#FFFFFF" height="34" rx="4" ry="4" style="stroke:#64748B;stroke-width:0.5;" width="103.2549" x="258.37" y="579"/><text fill="#0F172A" font-family="Helvetica" font-size="14" lengthAdjust="spacing" textLength="83.2549" x="268.37" y="599.7803">JSON Output</text></g><!--entity RAW_TEXT--><g class="entity" data-qualified-name="Outputs.RAW_TEXT" data-source-line="29" id="ent0023"><rect fill="#FFFFFF" height="34" rx="4" ry="4" style="stroke:#64748B;stroke-width:0.5;" width="142.1514" x="403.92" y="579"/><text fill="#0F172A" font-family="Helvetica" font-size="14" lengthAdjust="spacing" textLength="122.1514" x="413.92" y="599.7803">Raw Extracted Text</text></g><!--entity Extract--><g class="entity" data-qualified-name="Extract" data-source-line="48" id="ent0041"><rect fill="#FFFFFF" height="34" rx="4" ry="4" style="stroke:#64748B;stroke-width:0.5;" width="63.5654" x="1144.22" y="350"/><text fill="#0F172A" font-family="Helvetica" font-size="14" lengthAdjust="spacing" textLength="43.5654" x="1154.22" y="370.7803">Extract</text></g><!--link WEB to WEB_HANDLER--><g class="link" data-entity-1="ent0002" data-entity-2="ent0008" data-link-type="dependency" data-source-line="31" id="lnk24"><path d="M1178.65,74.27 C1155.95,85.34 1130,98 1130,98 C1130,98 735,106 735,106 C735,106 693.7394,127.3797 661.2594,144.2097" fill="none" id="WEB-to-WEB_HANDLER" style="stroke:#64748B;stroke-width:1.1;"/><polygon fill="#64748B" points="656.82,146.51,666.6512,145.9209,661.2594,144.2097,662.9707,138.8178,656.82,146.51" style="stroke:#64748B;stroke-width:1.1;stroke-linejoin:miter;stroke-miterlimit:10;"/></g><!--link FS to FILE_PARSER--><g class="link" data-entity-1="ent0003" data-entity-2="ent0009" data-link-type="dependency" data-source-line="32" id="lnk25"><path d="M1328.95,74.39 C1304.65,85.43 1277,98 1277,98 C1277,98 865,106 865,106 C865,106 841.76,126.3842 822.56,143.2142" fill="none" id="FS-to-FILE_PARSER" style="stroke:#64748B;stroke-width:1.1;"/><polygon fill="#64748B" points="818.8,146.51,828.2046,143.5854,822.56,143.2142,822.9313,137.5695,818.8,146.51" style="stroke:#64748B;stroke-width:1.1;stroke-linejoin:miter;stroke-miterlimit:10;"/></g><!--link YT to YT_EXTRACT--><g class="link" data-entity-1="ent0004" data-entity-2="ent0010" data-link-type="dependency" data-source-line="33" id="lnk26"><path d="M1502.24,74.27 C1479.26,85.34 1453,98 1453,98 C1453,98 1230.762,128.9991 1093.642,148.1291" fill="none" id="YT-to-YT_EXTRACT" style="stroke:#64748B;stroke-width:1.1;"/><polygon fill="#64748B" points="1088.69,148.82,1098.1564,151.5381,1093.642,148.1291,1097.051,143.6148,1088.69,148.82" style="stroke:#64748B;stroke-width:1.1;stroke-linejoin:miter;stroke-miterlimit:10;"/></g><!--link WEB_HANDLER to TEXT_NORMALIZER--><g class="link" data-entity-1="ent0008" data-entity-2="ent0011" data-link-type="dependency" data-source-line="34" id="lnk27"><path d="M638.59,181.09 C654.84,200.33 678.6543,228.5197 694.9843,247.8597" fill="none" id="WEB_HANDLER-to-TEXT_NORMALIZER" style="stroke:#64748B;stroke-width:1.1;"/><polygon fill="#64748B" points="698.21,251.68,695.4599,242.2229,694.9843,247.8597,689.3475,247.384,698.21,251.68" style="stroke:#64748B;stroke-width:1.1;stroke-linejoin:miter;stroke-miterlimit:10;"/></g><!--link FILE_PARSER to TEXT_NORMALIZER--><g class="link" data-entity-1="ent0009" data-entity-2="ent0011" data-link-type="dependency" data-source-line="35" id="lnk28"><path d="M786.25,181.09 C769.81,200.33 745.7075,228.5382 729.1875,247.8782" fill="none" id="FILE_PARSER-to-TEXT_NORMALIZER" style="stroke:#64748B;stroke-width:1.1;"/><polygon fill="#64748B" points="725.94,251.68,734.8269,247.4347,729.1875,247.8782,728.744,242.2387,725.94,251.68" style="stroke:#64748B;stroke-width:1.1;stroke-linejoin:miter;stroke-miterlimit:10;"/></g><!--link YT_EXTRACT to TEXT_NORMALIZER--><g class="link" data-entity-1="ent0010" data-entity-2="ent0011" data-link-type="dependency" data-source-line="36" id="lnk29"><path d="M943.12,181.43 C891.72,200.69 811.7426,230.647 760.4026,249.867" fill="none" id="YT_EXTRACT-to-TEXT_NORMALIZER" style="stroke:#64748B;stroke-width:1.1;"/><polygon fill="#64748B" points="755.72,251.62,765.5511,252.2107,760.4026,249.867,762.7463,244.7185,755.72,251.62" style="stroke:#64748B;stroke-width:1.1;stroke-linejoin:miter;stroke-miterlimit:10;"/></g><!--link CLI to TEXT_NORMALIZER--><g class="link" data-entity-1="ent0006" data-entity-2="ent0011" data-link-type="dependency" data-source-line="37" id="lnk30"><path d="M450.7,181.38 C482.18,192.43 518,205 518,205 C518,205 599.0446,231.3154 656.5246,249.9854" fill="none" id="CLI-to-TEXT_NORMALIZER" style="stroke:#64748B;stroke-width:1.1;"/><polygon fill="#64748B" points="661.28,251.53,653.9559,244.9454,656.5246,249.9854,651.4845,252.5541,661.28,251.53" style="stroke:#64748B;stroke-width:1.1;stroke-linejoin:miter;stroke-miterlimit:10;"/></g><!--link TEXT_NORMALIZER to PROV_ROUTER--><g class="link" data-entity-1="ent0011" data-entity-2="ent0013" data-link-type="dependency" data-source-line="38" id="lnk31"><path d="M652.22,285.85 C584.95,303.69 481.1631,331.2188 414.0931,348.9988" fill="none" id="TEXT_NORMALIZER-to-PROV_ROUTER" style="stroke:#64748B;stroke-width:1.1;"/><polygon fill="#64748B" points="409.26,350.28,418.9845,351.8402,414.0931,348.9988,416.9345,344.1073,409.26,350.28" style="stroke:#64748B;stroke-width:1.1;stroke-linejoin:miter;stroke-miterlimit:10;"/></g><!--link PROV_ROUTER to OPENAI--><g class="link" data-entity-1="ent0013" data-entity-2="ent0014" data-link-type="dependency" data-source-line="39" id="lnk32"><path d="M315.05,384.29 C277.17,401.94 221.5916,427.8371 183.6516,445.5271" fill="none" id="PROV_ROUTER-to-OPENAI" style="stroke:#64748B;stroke-width:1.1;"/><polygon fill="#64748B" points="179.12,447.64,188.9672,447.462,183.6516,445.5271,185.5866,440.2114,179.12,447.64" style="stroke:#64748B;stroke-width:1.1;stroke-linejoin:miter;stroke-miterlimit:10;"/></g><!--link PROV_ROUTER to ANTHROPIC--><g class="link" data-entity-1="ent0013" data-entity-2="ent0015" data-link-type="dependency" data-source-line="40" id="lnk33"><path d="M339.14,384.29 C327.37,401.94 311.473,425.7894 299.683,443.4794" fill="none" id="PROV_ROUTER-to-ANTHROPIC" style="stroke:#64748B;stroke-width:1.1;"/><polygon fill="#64748B" points="296.91,447.64,305.2298,442.3693,299.683,443.4794,298.5728,437.9325,296.91,447.64" style="stroke:#64748B;stroke-width:1.1;stroke-linejoin:miter;stroke-miterlimit:10;"/></g><!--link PROV_ROUTER to XAI--><g class="link" data-entity-1="ent0013" data-entity-2="ent0016" data-link-type="dependency" data-source-line="41" id="lnk34"><path d="M360.86,384.29 C372.63,401.94 388.527,425.7894 400.317,443.4794" fill="none" id="PROV_ROUTER-to-XAI" style="stroke:#64748B;stroke-width:1.1;"/><polygon fill="#64748B" points="403.09,447.64,401.4272,437.9325,400.317,443.4794,394.7702,442.3693,403.09,447.64" style="stroke:#64748B;stroke-width:1.1;stroke-linejoin:miter;stroke-miterlimit:10;"/></g><!--link PROV_ROUTER to GEMINI--><g class="link" data-entity-1="ent0013" data-entity-2="ent0017" data-link-type="dependency" data-source-line="42" id="lnk35"><path d="M385.45,384.29 C423.89,401.94 480.3267,427.8624 518.8267,445.5524" fill="none" id="PROV_ROUTER-to-GEMINI" style="stroke:#64748B;stroke-width:1.1;"/><polygon fill="#64748B" points="523.37,447.64,516.862,440.2477,518.8267,445.5524,513.5219,447.517,523.37,447.64" style="stroke:#64748B;stroke-width:1.1;stroke-linejoin:miter;stroke-miterlimit:10;"/></g><!--link CONFIG to DB--><g class="link" data-entity-1="ent0018" data-entity-2="ent0019" data-link-type="dependency" data-source-line="43" id="lnk36"><path d="M188,74.41 C188,91.94 188,114.89 188,134.7" fill="none" id="CONFIG-to-DB" style="stroke:#64748B;stroke-width:1.1;"/><polygon fill="#64748B" points="188,139.7,192,130.7,188,134.7,184,130.7,188,139.7" style="stroke:#64748B;stroke-width:1.1;stroke-linejoin:miter;stroke-miterlimit:10;"/></g><!--link CONFIG to PROV_ROUTER--><g class="link" data-entity-1="ent0018" data-entity-2="ent0013" data-link-type="dependency" data-source-line="44" id="lnk37"><path d="M152.16,74.38 C121.74,88.29 83,106 83,106 C83,106 83,205 83,205 C83,205 250.7682,306.1682 318.6482,347.0982" fill="none" id="CONFIG-to-PROV_ROUTER" style="stroke:#64748B;stroke-width:1.1;stroke-dasharray:7,7;"/><polygon fill="#64748B" points="322.93,349.68,317.2882,341.6072,318.6482,347.0982,313.1572,348.4582,322.93,349.68" style="stroke:#64748B;stroke-width:1.1;stroke-linejoin:miter;stroke-miterlimit:10;"/></g><!--link CONFIG to CLI--><g class="link" data-entity-1="ent0018" data-entity-2="ent0006" data-link-type="dependency" data-source-line="45" id="lnk38"><path d="M223.84,74.38 C254.26,88.29 293,106 293,106 C293,106 334.662,127.3963 367.442,144.2263" fill="none" id="CONFIG-to-CLI" style="stroke:#64748B;stroke-width:1.1;stroke-dasharray:7,7;"/><polygon fill="#64748B" points="371.89,146.51,365.7106,138.8409,367.442,144.2263,362.0566,145.9577,371.89,146.51" style="stroke:#64748B;stroke-width:1.1;stroke-linejoin:miter;stroke-miterlimit:10;"/></g><!--link OPENAI to HUMAN_OUT--><g class="link" data-entity-1="ent0014" data-entity-2="ent0021" data-link-type="dependency" data-source-line="46" id="lnk39"><path d="M140.96,482.34 C136.34,507.15 128.5363,549.1447 123.9263,573.8747" fill="none" id="OPENAI-to-HUMAN_OUT" style="stroke:#64748B;stroke-width:1.1;"/><polygon fill="#64748B" points="123.01,578.79,128.5916,570.6754,123.9263,573.8747,120.727,569.2094,123.01,578.79" style="stroke:#64748B;stroke-width:1.1;stroke-linejoin:miter;stroke-miterlimit:10;"/></g><!--link ANTHROPIC to JSON_OUT--><g class="link" data-entity-1="ent0015" data-entity-2="ent0022" data-link-type="dependency" data-source-line="47" id="lnk40"><path d="M289.04,482.34 C293.66,507.15 301.4637,549.1447 306.0737,573.8747" fill="none" id="ANTHROPIC-to-JSON_OUT" style="stroke:#64748B;stroke-width:1.1;"/><polygon fill="#64748B" points="306.99,578.79,309.273,569.2094,306.0737,573.8747,301.4084,570.6754,306.99,578.79" style="stroke:#64748B;stroke-width:1.1;stroke-linejoin:miter;stroke-miterlimit:10;"/></g><!--link TEXT_NORMALIZER to Extract--><g class="link" data-entity-1="ent0011" data-entity-2="ent0041" data-link-type="association" data-source-line="49" id="lnk42"><path d="M771.71,282.35 C871.08,302.91 1067.07,343.46 1143.97,359.37" fill="none" id="TEXT_NORMALIZER-Extract" style="stroke:#64748B;stroke-width:1.1;"/></g><?plantuml-src RLJTafem6BttATAzrts3ph08cWu20xXgfpDCXEYcXOG9eMexxRCt2G63zShaVEVxoVcEV2AqgBeIWuQp4svRmYYgvk83rtX1khgQ2TO0mS2H2S5gK1AE2o59imOLFz0PWnVlAZ2NII1b7Izm-m9G2mOmDo3uFLE9Y9uhcRB3Hx1DWfwwyzxiMC0AMSidbKnw1V7Ixrb-QfCEhCkw8mRlfCIi9noosP_xK6rNruYJNnYuh6uOnLHereZd8puTpGqWW5GEVq85bWDuLF0RY1an1MJytWNICswL6Y10DymrOSHoZKshhxCibaLzfI97bmgi4Iqhaoc5oDTEk0oynCvHKe0OyTRGV1XuUUmawPGsI99nHDk2aqQe9N1K2CQDGBctpnB7LK9PYHc-2X0oNgDAwj9pCydCmoZPE07yAlkCBtOWY3dxAMNdO8K4lg2RJd1WFk2vmQSl7xCIrWdJ9KwYzpo9jjdq9L63gUpZn52pejWB7MWJ72e-E6j8CNASC5idKGnTctQrYkod5LQCgTyLhWab8sdbRM08f-guZ9x8kUD8htc3g9IXdzwDGX-k_kU2L2gElz6_hulHRQ-53Ys-jupgvEMRxTQe4qqdUX-RyuDlkXhHUO9HYOxodkgwlVBhxSO9SocYpV-IHg6ff4dg_iX9q6Lm22w1Se6c9iukL-kNyqb3WldyyyIOVgeXsuI7J4EMlwm47NgqavNzD7ulzJIi_gFFy8UxvjWUiyuwPfpr2D_Dz1ZPFs4Rq_Hkq8ZShRaj5jC1B5XzH_h-EkU-nR6xnfyjpYnj-CwgyvEd3w5_?></g></svg>