<svg xmlns="http://www.w3.org/2000/svg" xmlns:xlink="http://www.w3.org/1999/xlink" contentStyleType="text/css" data-diagram-type="DESCRIPTION" height="736px" preserveAspectRatio="none" style="width:1064px;height:736px;" version="1.1" viewBox="0 0 1064 736" width="1064px" zoomAndPan="magnify"><?plantuml 1.2026.5?><defs><style><![CDATA[
@media (prefers-color-scheme: dark) {
  text { fill: #e5e7eb !important; }
  path, line, rect, circle, ellipse, polygon, polyline { stroke: #cbd5e1 !important; }
  .entity rect, .participant rect, .participant path, .sequenceLine rect, .class rect, .component rect, .component path, .note rect { fill: #111827 !important; }
  .cluster path { fill: none !important; }
  polygon { fill: #cbd5e1 !important; }
}
]]></style></defs><g><!--cluster External--><g class="cluster" data-qualified-name="External" data-source-line="13" id="ent0001"><path d="M228.5,6 L374.292,6 A3.75,3.75 0 0 1 376.792,8.5 L383.792,28.4883 L765.5,28.4883 A2.5,2.5 0 0 1 768,30.9883 L768,90.99 A2.5,2.5 0 0 1 765.5,93.49 L228.5,93.49 A2.5,2.5 0 0 1 226,90.99 L226,8.5 A2.5,2.5 0 0 1 228.5,6" fill="none" style="stroke:#64748B;stroke-width:1.5;"/><line style="stroke:#64748B;stroke-width:1.5;" x1="226" x2="383.792" y1="28.4883" y2="28.4883"/><text fill="#000000" font-family="sans-serif" font-size="14" font-weight="700" lengthAdjust="spacing" textLength="144.792" x="230" y="21.5352">External Consumers</text></g><!--cluster Utils--><g class="cluster" data-qualified-name="Utils" data-source-line="18" id="ent0005"><path d="M38.5,126.49 L226.3467,126.49 A3.75,3.75 0 0 1 228.8467,128.99 L235.8467,148.9783 L1046.5,148.9783 A2.5,2.5 0 0 1 1049,151.4783 L1049,581.94 A2.5,2.5 0 0 1 1046.5,584.44 L38.5,584.44 A2.5,2.5 0 0 1 36,581.94 L36,128.99 A2.5,2.5 0 0 1 38.5,126.49" fill="none" style="stroke:#64748B;stroke-width:1.5;"/><line style="stroke:#64748B;stroke-width:1.5;" x1="36" x2="235.8467" y1="148.9783" y2="148.9783"/><text fill="#000000" font-family="sans-serif" font-size="14" font-weight="700" lengthAdjust="spacing" textLength="186.8467" x="40" y="142.0252">nanobot/utils Component</text></g><!--cluster Init--><g class="cluster" data-qualified-name="Utils.Init" data-source-line="19" id="ent0006"><path d="M449.5,169.49 L495.3711,169.49 A3.75,3.75 0 0 1 497.8711,171.99 L504.8711,191.9783 L618.5,191.9783 A2.5,2.5 0 0 1 621,194.4783 L621,270.97 A2.5,2.5 0 0 1 618.5,273.47 L449.5,273.47 A2.5,2.5 0 0 1 447,270.97 L447,171.99 A2.5,2.5 0 0 1 449.5,169.49" fill="none" style="stroke:#64748B;stroke-width:1.5;"/><line style="stroke:#64748B;stroke-width:1.5;" x1="447" x2="504.8711" y1="191.9783" y2="191.9783"/><text fill="#000000" font-family="sans-serif" font-size="14" font-weight="700" lengthAdjust="spacing" text-decoration="underline" textLength="23.9736" x="451" y="185.0252">init</text><text fill="#000000" font-family="sans-serif" font-size="14" font-weight="700" lengthAdjust="spacing" textLength="20.8975" x="474.9736" y="185.0252">.py</text></g><!--cluster Helpers--><g class="cluster" data-qualified-name="Utils.Helpers" data-source-line="22" id="ent0008"><path d="M62.5,306.47 L138.1074,306.47 A3.75,3.75 0 0 1 140.6074,308.97 L147.6074,328.9583 L1022.5,328.9583 A2.5,2.5 0 0 1 1025,331.4583 L1025,557.94 A2.5,2.5 0 0 1 1022.5,560.44 L62.5,560.44 A2.5,2.5 0 0 1 60,557.94 L60,308.97 A2.5,2.5 0 0 1 62.5,306.47" fill="none" style="stroke:#64748B;stroke-width:1.5;"/><line style="stroke:#64748B;stroke-width:1.5;" x1="60" x2="147.6074" y1="328.9583" y2="328.9583"/><text fill="#000000" font-family="sans-serif" font-size="14" font-weight="700" lengthAdjust="spacing" textLength="74.6074" x="64" y="322.0052">helpers.py</text></g><!--cluster PathMgmt--><g class="cluster" data-qualified-name="Utils.Helpers.PathMgmt" data-source-line="23" id="ent0009"><path d="M458.5,349.47 L588.248,349.47 A3.75,3.75 0 0 1 590.748,351.97 L597.748,371.9583 L812.5,371.9583 A2.5,2.5 0 0 1 815,374.4583 L815,434.46 A2.5,2.5 0 0 1 812.5,436.96 L458.5,436.96 A2.5,2.5 0 0 1 456,434.46 L456,351.97 A2.5,2.5 0 0 1 458.5,349.47" fill="none" style="stroke:#64748B;stroke-width:1.5;"/><line style="stroke:#64748B;stroke-width:1.5;" x1="456" x2="597.748" y1="371.9583" y2="371.9583"/><text fill="#000000" font-family="sans-serif" font-size="14" font-weight="700" lengthAdjust="spacing" textLength="128.748" x="460" y="365.0052">Path Management</text></g><!--cluster FileOps--><g class="cluster" data-qualified-name="Utils.Helpers.FileOps" data-source-line="27" id="ent0012"><path d="M86.5,349.47 L197.3398,349.47 A3.75,3.75 0 0 1 199.8398,351.97 L206.8398,371.9583 L429.5,371.9583 A2.5,2.5 0 0 1 432,374.4583 L432,533.94 A2.5,2.5 0 0 1 429.5,536.44 L86.5,536.44 A2.5,2.5 0 0 1 84,533.94 L84,351.97 A2.5,2.5 0 0 1 86.5,349.47" fill="none" style="stroke:#64748B;stroke-width:1.5;"/><line style="stroke:#64748B;stroke-width:1.5;" x1="84" x2="206.8398" y1="371.9583" y2="371.9583"/><text fill="#000000" font-family="sans-serif" font-size="14" font-weight="700" lengthAdjust="spacing" textLength="109.8398" x="88" y="365.0052">File Operations</text></g><!--cluster Utilities--><g class="cluster" data-qualified-name="Utils.Helpers.Utilities" data-source-line="32" id="ent0016"><path d="M841.5,349.47 L898.4863,349.47 A3.75,3.75 0 0 1 900.9863,351.97 L907.9863,371.9583 L998.5,371.9583 A2.5,2.5 0 0 1 1001,374.4583 L1001,434.46 A2.5,2.5 0 0 1 998.5,436.96 L841.5,436.96 A2.5,2.5 0 0 1 839,434.46 L839,351.97 A2.5,2.5 0 0 1 841.5,349.47" fill="none" style="stroke:#64748B;stroke-width:1.5;"/><line style="stroke:#64748B;stroke-width:1.5;" x1="839" x2="907.9863" y1="371.9583" y2="371.9583"/><text fill="#000000" font-family="sans-serif" font-size="14" font-weight="700" lengthAdjust="spacing" textLength="55.9863" x="843" y="365.0052">Utilities</text></g><!--cluster FileSystem--><g class="cluster" data-qualified-name="FileSystem" data-source-line="37" id="ent0018"><path d="M8.5,617.44 L130.0107,617.44 A3.75,3.75 0 0 1 132.5107,619.94 L139.5107,639.9283 L778.5,639.9283 A2.5,2.5 0 0 1 781,642.4283 L781,718.92 A2.5,2.5 0 0 1 778.5,721.42 L8.5,721.42 A2.5,2.5 0 0 1 6,718.92 L6,619.94 A2.5,2.5 0 0 1 8.5,617.44" fill="none" style="stroke:#64748B;stroke-width:1.5;"/><line style="stroke:#64748B;stroke-width:1.5;" x1="6" x2="139.5107" y1="639.9283" y2="639.9283"/><text fill="#000000" font-family="sans-serif" font-size="14" font-weight="700" lengthAdjust="spacing" textLength="120.5107" x="10" y="632.9752">Filesystem Layer</text></g><!--entity APP--><g class="entity" data-qualified-name="External.APP" data-source-line="14" id="ent0002"><rect fill="#F8FAFC" height="36.4883" rx="2.5" ry="2.5" style="stroke:#4B5563;stroke-width:0.5;" width="195.5332" x="242.23" y="41"/><text fill="#111827" font-family="sans-serif" font-size="14" lengthAdjust="spacing" textLength="175.5332" x="252.23" y="64.5352">Nanobot Core Application</text></g><!--entity CLI--><g class="entity" data-qualified-name="External.CLI" data-source-line="15" id="ent0003"><rect fill="#F8FAFC" height="36.4883" rx="2.5" ry="2.5" style="stroke:#4B5563;stroke-width:0.5;" width="122.4092" x="472.8" y="41"/><text fill="#111827" font-family="sans-serif" font-size="14" lengthAdjust="spacing" textLength="102.4092" x="482.8" y="64.5352">CLI Commands</text></g><!--entity AGENTS--><g class="entity" data-qualified-name="External.AGENTS" data-source-line="16" id="ent0004"><rect fill="#F8FAFC" height="36.4883" rx="2.5" ry="2.5" style="stroke:#4B5563;stroke-width:0.5;" width="121.6846" x="630.16" y="41"/><text fill="#111827" font-family="sans-serif" font-size="14" lengthAdjust="spacing" textLength="101.6846" x="640.16" y="64.5352">Agent Modules</text></g><!--entity ALLEXPORT--><g class="entity" data-qualified-name="Utils.Init.ALLEXPORT" data-source-line="20" id="ent0007"><rect fill="#F8FAFC" height="52.9766" rx="2.5" ry="2.5" style="stroke:#4B5563;stroke-width:0.5;" width="142.4795" x="462.76" y="204.49"/><text fill="#111827" font-family="sans-serif" font-size="14" lengthAdjust="spacing" textLength="122.4795" x="472.76" y="228.0252">Public API Exports</text><text fill="#111827" font-family="sans-serif" font-size="14" lengthAdjust="spacing" textLength="4.5527" x="521.5344" y="244.5134">(</text><text fill="#111827" font-family="sans-serif" font-size="14" lengthAdjust="spacing" text-decoration="underline" textLength="15.8252" x="526.0871" y="244.5134">all</text><text fill="#111827" font-family="sans-serif" font-size="14" lengthAdjust="spacing" textLength="4.5527" x="541.9123" y="244.5134">)</text></g><!--entity GETWP--><g class="entity" data-qualified-name="Utils.Helpers.PathMgmt.GETWP" data-source-line="24" id="ent0010"><rect fill="#F8FAFC" height="36.4883" rx="2.5" ry="2.5" style="stroke:#4B5563;stroke-width:0.5;" width="167.2871" x="631.36" y="384.47"/><text fill="#111827" font-family="sans-serif" font-size="14" lengthAdjust="spacing" textLength="147.2871" x="641.36" y="408.0052">get_workspace_path()</text></g><!--entity GETDP--><g class="entity" data-qualified-name="Utils.Helpers.PathMgmt.GETDP" data-source-line="25" id="ent0011"><rect fill="#F8FAFC" height="36.4883" rx="2.5" ry="2.5" style="stroke:#4B5563;stroke-width:0.5;" width="124.8496" x="471.58" y="384.47"/><text fill="#111827" font-family="sans-serif" font-size="14" lengthAdjust="spacing" textLength="104.8496" x="481.58" y="408.0052">get_data_path()</text></g><!--entity ENSURE--><g class="entity" data-qualified-name="Utils.Helpers.FileOps.ENSURE" data-source-line="28" id="ent0013"><rect fill="#F8FAFC" height="36.4883" rx="2.5" ry="2.5" style="stroke:#4B5563;stroke-width:0.5;" width="100.5342" x="107.73" y="483.96"/><text fill="#111827" font-family="sans-serif" font-size="14" lengthAdjust="spacing" textLength="80.5342" x="117.73" y="507.4952">ensure_dir()</text></g><!--entity SANITIZE--><g class="entity" data-qualified-name="Utils.Helpers.FileOps.SANITIZE" data-source-line="29" id="ent0014"><rect fill="#F8FAFC" height="36.4883" rx="2.5" ry="2.5" style="stroke:#4B5563;stroke-width:0.5;" width="147.1484" x="268.43" y="384.47"/><text fill="#111827" font-family="sans-serif" font-size="14" lengthAdjust="spacing" textLength="127.1484" x="278.43" y="408.0052">sanitize_filename()</text></g><!--entity SYNC--><g class="entity" data-qualified-name="Utils.Helpers.FileOps.SYNC" data-source-line="30" id="ent0015"><rect fill="#F8FAFC" height="36.4883" rx="2.5" ry="2.5" style="stroke:#4B5563;stroke-width:0.5;" width="133.2852" x="100.36" y="384.47"/><text fill="#111827" font-family="sans-serif" font-size="14" lengthAdjust="spacing" textLength="113.2852" x="110.36" y="408.0052">sync_templates()</text></g><!--entity TIMESTAMP--><g class="entity" data-qualified-name="Utils.Helpers.Utilities.TIMESTAMP" data-source-line="33" id="ent0017"><rect fill="#F8FAFC" height="36.4883" rx="2.5" ry="2.5" style="stroke:#4B5563;stroke-width:0.5;" width="130.0107" x="854.99" y="384.47"/><text fill="#111827" font-family="sans-serif" font-size="14" lengthAdjust="spacing" textLength="110.0107" x="864.99" y="408.0052">get_timestamp()</text></g><!--entity DATA_DIR--><g class="entity" data-qualified-name="FileSystem.DATA_DIR" data-source-line="38" id="ent0019"><rect fill="#F8FAFC" height="52.9766" rx="2.5" ry="2.5" style="stroke:#4B5563;stroke-width:0.5;" width="126.832" x="21.58" y="652.44"/><text fill="#111827" font-family="sans-serif" font-size="14" lengthAdjust="spacing" textLength="75.4688" x="47.2616" y="675.9752">/.nanobot/</text><text fill="#111827" font-family="sans-serif" font-size="14" lengthAdjust="spacing" textLength="106.832" x="31.58" y="692.4634">(Data Directory)</text></g><!--entity WORKSPACE--><g class="entity" data-qualified-name="FileSystem.WORKSPACE" data-source-line="39" id="ent0020"><rect fill="#F8FAFC" height="52.9766" rx="2.5" ry="2.5" style="stroke:#4B5563;stroke-width:0.5;" width="174.7588" x="590.62" y="652.44"/><text fill="#111827" font-family="sans-serif" font-size="14" lengthAdjust="spacing" textLength="154.7588" x="600.62" y="675.9752">/.nanobot/workspace/</text><text fill="#111827" font-family="sans-serif" font-size="14" lengthAdjust="spacing" textLength="117.9609" x="619.0189" y="692.4634">(Workspace Root)</text></g><!--entity MEMORY--><g class="entity" data-qualified-name="FileSystem.MEMORY" data-source-line="40" id="ent0021"><rect fill="#F8FAFC" height="36.4883" rx="2.5" ry="2.5" style="stroke:#4B5563;stroke-width:0.5;" width="82.9248" x="183.54" y="660.69"/><text fill="#111827" font-family="sans-serif" font-size="14" lengthAdjust="spacing" textLength="62.9248" x="193.54" y="684.2252">memory/</text></g><!--entity SKILLS--><g class="entity" data-qualified-name="FileSystem.SKILLS" data-source-line="41" id="ent0022"><rect fill="#F8FAFC" height="36.4883" rx="2.5" ry="2.5" style="stroke:#4B5563;stroke-width:0.5;" width="61.9385" x="301.03" y="660.69"/><text fill="#111827" font-family="sans-serif" font-size="14" lengthAdjust="spacing" textLength="41.9385" x="311.03" y="684.2252">skills/</text></g><!--entity TEMPLATES--><g class="entity" data-qualified-name="FileSystem.TEMPLATES" data-source-line="42" id="ent0023"><rect fill="#F8FAFC" height="52.9766" rx="2.5" ry="2.5" style="stroke:#4B5563;stroke-width:0.5;" width="157.5322" x="398.23" y="652.44"/><text fill="#111827" font-family="sans-serif" font-size="14" lengthAdjust="spacing" textLength="129.8145" x="412.0889" y="675.9752">Bundled Templates</text><text fill="#111827" font-family="sans-serif" font-size="14" lengthAdjust="spacing" textLength="137.5322" x="408.23" y="692.4634">(Package Resources)</text></g><!--link APP to ALLEXPORT--><g class="link" data-entity-1="ent0002" data-entity-2="ent0007" data-link-type="dependency" data-source-line="44" id="lnk24"><path d="M360.03,77.77 C394.3,107.75 460.5873,165.7472 500.5473,200.7172" fill="none" id="APP-to-ALLEXPORT" style="stroke:#4B5563;stroke-width:1;"/><polygon fill="#4B5563" points="504.31,204.01,500.1715,195.0729,500.5473,200.7172,494.903,201.0931,504.31,204.01" style="stroke:#4B5563;stroke-width:1;stroke-linejoin:miter;stroke-miterlimit:10;"/></g><!--link CLI to ALLEXPORT--><g class="link" data-entity-1="ent0003" data-entity-2="ent0007" data-link-type="dependency" data-source-line="45" id="lnk25"><path d="M534,77.77 C534,107.75 534,164.04 534,199.01" fill="none" id="CLI-to-ALLEXPORT" style="stroke:#4B5563;stroke-width:1;"/><polygon fill="#4B5563" points="534,204.01,538,195.01,534,199.01,530,195.01,534,204.01" style="stroke:#4B5563;stroke-width:1;stroke-linejoin:miter;stroke-miterlimit:10;"/></g><!--link AGENTS to ALLEXPORT--><g class="link" data-entity-1="ent0004" data-entity-2="ent0007" data-link-type="dependency" data-source-line="46" id="lnk26"><path d="M674.79,77.77 C647.06,107.75 593.7654,165.3696 561.4154,200.3396" fill="none" id="AGENTS-to-ALLEXPORT" style="stroke:#4B5563;stroke-width:1;"/><polygon fill="#4B5563" points="558.02,204.01,567.0679,200.1197,561.4154,200.3396,561.1954,194.6871,558.02,204.01" style="stroke:#4B5563;stroke-width:1;stroke-linejoin:miter;stroke-miterlimit:10;"/></g><!--link ALLEXPORT to GETWP--><g class="link" data-entity-1="ent0007" data-entity-2="ent0010" data-link-type="dependency" data-source-line="47" id="lnk27"><path d="M566.57,257.77 C581.35,269.8 598.86,284.51 614,298.47 C645.15,327.19 675.7849,359.3287 695.3249,380.3387" fill="none" id="ALLEXPORT-to-GETWP" style="stroke:#4B5563;stroke-width:1;"/><polygon fill="#4B5563" points="698.73,384,695.5298,374.6856,695.3249,380.3387,689.6717,380.1338,698.73,384" style="stroke:#4B5563;stroke-width:1;stroke-linejoin:miter;stroke-miterlimit:10;"/></g><!--link ALLEXPORT to GETDP--><g class="link" data-entity-1="ent0007" data-entity-2="ent0011" data-link-type="dependency" data-source-line="48" id="lnk28"><path d="M534,257.76 C534,292.63 534,348.92 534,379.02" fill="none" id="ALLEXPORT-to-GETDP" style="stroke:#4B5563;stroke-width:1;"/><polygon fill="#4B5563" points="534,384.02,538,375.02,534,379.02,530,375.02,534,384.02" style="stroke:#4B5563;stroke-width:1;stroke-linejoin:miter;stroke-miterlimit:10;"/></g><!--link ALLEXPORT to ENSURE--><g class="link" data-entity-1="ent0007" data-entity-2="ent0013" data-link-type="dependency" data-source-line="49" id="lnk29"><path d="M605.61,231.26 C723.55,231.77 950.68,240.48 1001,298.47 C1043.67,347.64 1045.48,397.41 1001,444.96 C987.38,459.52 393.384,489.6851 213.534,498.5051" fill="none" id="ALLEXPORT-to-ENSURE" style="stroke:#4B5563;stroke-width:1;"/><polygon fill="#4B5563" points="208.54,498.75,217.7251,502.3044,213.534,498.5051,217.3333,494.314,208.54,498.75" style="stroke:#4B5563;stroke-width:1;stroke-linejoin:miter;stroke-miterlimit:10;"/></g><!--link ALLEXPORT to SANITIZE--><g class="link" data-entity-1="ent0007" data-entity-2="ent0014" data-link-type="dependency" data-source-line="50" id="lnk30"><path d="M503.44,257.66 C488.97,269.91 471.51,284.84 456,298.47 C422.3,328.08 387.4211,359.9063 364.8911,380.6163" fill="none" id="ALLEXPORT-to-SANITIZE" style="stroke:#4B5563;stroke-width:1;"/><polygon fill="#4B5563" points="361.21,384,370.5429,380.8542,364.8911,380.6163,365.129,374.9644,361.21,384" style="stroke:#4B5563;stroke-width:1;stroke-linejoin:miter;stroke-miterlimit:10;"/></g><!--link ALLEXPORT to SYNC--><g class="link" data-entity-1="ent0007" data-entity-2="ent0015" data-link-type="dependency" data-source-line="51" id="lnk31"><path d="M462.53,235.98 C402.16,242.22 315.49,258.1 251,298.47 C216.53,320.05 192.2353,356.4114 178.8653,379.7514" fill="none" id="ALLEXPORT-to-SYNC" style="stroke:#4B5563;stroke-width:1;"/><polygon fill="#4B5563" points="176.38,384.09,184.3244,378.2688,178.8653,379.7514,177.3827,374.2923,176.38,384.09" style="stroke:#4B5563;stroke-width:1;stroke-linejoin:miter;stroke-miterlimit:10;"/></g><!--link GETWP to ENSURE--><g class="link" data-entity-1="ent0010" data-entity-2="ent0013" data-link-type="dependency" data-source-line="52" id="lnk32"><path d="M680.94,421.29 C661.81,430.21 637.18,440.15 614,444.96 C571.99,453.65 268.83,439.78 228,452.96 C208.76,459.16 193.8892,469.3249 180.6692,480.4249" fill="none" id="GETWP-to-ENSURE" style="stroke:#4B5563;stroke-width:1;"/><polygon fill="#4B5563" points="176.84,483.64,186.3047,480.9161,180.6692,480.4249,181.1605,474.7894,176.84,483.64" style="stroke:#4B5563;stroke-width:1;stroke-linejoin:miter;stroke-miterlimit:10;"/></g><!--link GETWP to WORKSPACE--><g class="link" data-entity-1="ent0010" data-entity-2="ent0020" data-link-type="dependency" data-source-line="53" id="lnk33"><path d="M724.59,421.39 C729.01,430.52 733.77,442.03 736,452.96 C749.21,517.61 757.03,538.89 736,601.44 C729.63,620.4 719.7896,634.6422 707.6296,648.4122" fill="none" id="GETWP-to-WORKSPACE" style="stroke:#4B5563;stroke-width:1;"/><polygon fill="#4B5563" points="704.32,652.16,713.2756,648.0616,707.6296,648.4122,707.2791,642.7662,704.32,652.16" style="stroke:#4B5563;stroke-width:1;stroke-linejoin:miter;stroke-miterlimit:10;"/></g><!--link GETDP to ENSURE--><g class="link" data-entity-1="ent0011" data-entity-2="ent0013" data-link-type="dependency" data-source-line="54" id="lnk34"><path d="M499.09,421.36 C479.82,430.19 455.17,440.02 432,444.96 C407.53,450.17 229.98,443.06 207,452.96 C192.09,459.38 182.3191,468.6902 173.5091,479.6702" fill="none" id="GETDP-to-ENSURE" style="stroke:#4B5563;stroke-width:1;"/><polygon fill="#4B5563" points="170.38,483.57,179.1323,479.0536,173.5091,479.6702,172.8925,474.047,170.38,483.57" style="stroke:#4B5563;stroke-width:1;stroke-linejoin:miter;stroke-miterlimit:10;"/></g><!--link GETDP to DATA_DIR--><g class="link" data-entity-1="ent0011" data-entity-2="ent0019" data-link-type="dependency" data-source-line="55" id="lnk35"><path d="M568.06,421.32 C613.28,444.72 687.57,483.24 688,483.96 C713.01,525.18 721.54,557.8 688,592.44 C667.82,613.29 193.08,599.03 166,609.44 C142.97,618.3 125.3274,633.0476 110.4274,648.5276" fill="none" id="GETDP-to-DATA_DIR" style="stroke:#4B5563;stroke-width:1;"/><polygon fill="#4B5563" points="106.96,652.13,116.0832,648.4196,110.4274,648.5276,110.3194,642.8718,106.96,652.13" style="stroke:#4B5563;stroke-width:1;stroke-linejoin:miter;stroke-miterlimit:10;"/></g><!--link SYNC to TEMPLATES--><g class="link" data-entity-1="ent0015" data-entity-2="ent0023" data-link-type="dependency" data-source-line="56" id="lnk36"><path d="M202.93,421.27 C221.12,430.38 243.43,441.89 263,452.96 C285.76,465.82 293.2,466.87 313,483.96 C373.93,536.54 428.4387,608.6507 456.3787,648.0707" fill="none" id="SYNC-to-TEMPLATES" style="stroke:#4B5563;stroke-width:1;"/><polygon fill="#4B5563" points="459.27,652.15,457.3291,642.4943,456.3787,648.0707,450.8023,647.1204,459.27,652.15" style="stroke:#4B5563;stroke-width:1;stroke-linejoin:miter;stroke-miterlimit:10;"/></g><!--link SYNC to ENSURE--><g class="link" data-entity-1="ent0015" data-entity-2="ent0013" data-link-type="dependency" data-source-line="57" id="lnk37"><path d="M165.39,421.14 C163.76,438.78 161.7185,460.9111 160.0885,478.6111" fill="none" id="SYNC-to-ENSURE" style="stroke:#4B5563;stroke-width:1;"/><polygon fill="#4B5563" points="159.63,483.59,164.4385,474.9947,160.0885,478.6111,156.4722,474.2611,159.63,483.59" style="stroke:#4B5563;stroke-width:1;stroke-linejoin:miter;stroke-miterlimit:10;"/></g><!--link SYNC to MEMORY--><g class="link" data-entity-1="ent0015" data-entity-2="ent0021" data-link-type="dependency" data-source-line="58" id="lnk38"><path d="M185.1,421.22 C199.3,436.31 217.97,459.47 226,483.96 C246.37,546.03 236.216,620.5065 229.656,655.3165" fill="none" id="SYNC-to-MEMORY" style="stroke:#4B5563;stroke-width:1;"/><polygon fill="#4B5563" points="228.73,660.23,234.3275,652.1264,229.656,655.3165,226.4659,650.6449,228.73,660.23" style="stroke:#4B5563;stroke-width:1;stroke-linejoin:miter;stroke-miterlimit:10;"/></g><!--link SYNC to SKILLS--><g class="link" data-entity-1="ent0015" data-entity-2="ent0022" data-link-type="dependency" data-source-line="59" id="lnk39"><path d="M197.11,421.43 C210.21,429.98 225.23,440.98 237,452.96 C297.02,514.05 320.5643,613.8827 328.2043,655.3627" fill="none" id="SYNC-to-SKILLS" style="stroke:#4B5563;stroke-width:1;"/><polygon fill="#4B5563" points="329.11,660.28,331.4136,650.7043,328.2043,655.3627,323.5459,652.1534,329.11,660.28" style="stroke:#4B5563;stroke-width:1;stroke-linejoin:miter;stroke-miterlimit:10;"/></g><!--link SYNC to WORKSPACE--><g class="link" data-entity-1="ent0015" data-entity-2="ent0020" data-link-type="dependency" data-source-line="60" id="lnk40"><path d="M198.1,421.34 C213.6,429.51 232.86,438.75 251,444.96 C267.74,450.68 272.87,448.53 290,452.96 C334.64,464.49 347.92,463.02 389,483.96 C461.03,520.66 465.24,551.58 535,592.44 C550.96,601.79 556.76,600.58 573,609.44 C596.5,622.26 617.5279,635.7547 637.3279,649.2447" fill="none" id="SYNC-to-WORKSPACE" style="stroke:#4B5563;stroke-width:1;"/><polygon fill="#4B5563" points="641.46,652.06,636.2744,643.6868,637.3279,649.2447,631.77,650.2982,641.46,652.06" style="stroke:#4B5563;stroke-width:1;stroke-linejoin:miter;stroke-miterlimit:10;"/></g><!--link ENSURE to WORKSPACE--><g class="link" data-entity-1="ent0013" data-entity-2="ent0020" data-link-type="dependency" data-source-line="61" id="lnk41"><path d="M202.03,520.86 C261.05,543.69 369.58,582.73 466,601.44 C512.81,610.53 527.83,594.16 573,609.44 C600.42,618.72 623.7255,633.8033 643.5955,649.0733" fill="none" id="ENSURE-to-WORKSPACE" style="stroke:#4B5563;stroke-width:1;"/><polygon fill="#4B5563" points="647.56,652.12,642.8612,643.4643,643.5955,649.0733,637.9865,649.8075,647.56,652.12" style="stroke:#4B5563;stroke-width:1;stroke-linejoin:miter;stroke-miterlimit:10;"/></g><!--link ENSURE to DATA_DIR--><g class="link" data-entity-1="ent0013" data-entity-2="ent0019" data-link-type="dependency" data-source-line="62" id="lnk42"><path d="M150.6,520.92 C137.66,551.89 112.7973,611.3964 97.7673,647.3764" fill="none" id="ENSURE-to-DATA_DIR" style="stroke:#4B5563;stroke-width:1;"/><polygon fill="#4B5563" points="95.84,651.99,103,645.2273,97.7673,647.3764,95.6182,642.1436,95.84,651.99" style="stroke:#4B5563;stroke-width:1;stroke-linejoin:miter;stroke-miterlimit:10;"/></g><!--link SANITIZE to WORKSPACE--><g class="link" data-entity-1="ent0014" data-entity-2="ent0020" data-link-type="dependency" data-source-line="63" id="lnk43"><path d="M385.57,421.42 C406.59,429.45 432.33,438.57 456,444.96 C475.19,450.13 482.96,442.72 500,452.96 C581.99,502.17 638.8476,599.6562 663.2876,647.5562" fill="none" id="SANITIZE-to-WORKSPACE" style="stroke:#4B5563;stroke-width:1;"/><polygon fill="#4B5563" points="665.56,652.01,665.0326,642.1753,663.2876,647.5562,657.9066,645.8112,665.56,652.01" style="stroke:#4B5563;stroke-width:1;stroke-linejoin:miter;stroke-miterlimit:10;"/><text fill="#000000" font-family="sans-serif" font-size="13" lengthAdjust="spacing" textLength="93.2979" x="632.02" y="507.2684">Safe Filenames</text></g><?plantuml-src ZLHRJzim57xlhx3WXJq0OkEcFKmARM0HJHibGOnfKkGcJeZgs97jgdI8_VOTnsvk36alLSztldFETowEN9UinW9NQ8NJTI7uXcLJJhb0Ic0cmKMOciYM9PznnhSbAr2EgIGzJqPolA4g9Y_AeMN1AWX4AVmGqMCvGl2jAN1ulhgukFpISmOW0HVaXekC24kwFBywlrxzW_HVSWL95MO59UXrWj0WiQsEq2rdoc9dPsVNdwyqSvJzCB_ESPvEtYQArqXnjE9ASMYwr1LApYQraOKEt1Vec66Affp9JKM4F41OeXP-dNIY3XQOSKW5N46GKzUqJB5EruGuGT3dJkSUyAeAiyoa1A3lTmezSPzd6qeCmRbp5t44ebjnpDGxtQYIIfsjvWoY6lP3Wxrsv2GfMQcIvAJUDGGFhA7yOBC2nI3KW_vgBfJynOwI15EQ99-CXFdS_H4imxYlufdG6kQop_lTcFtI0LRFoCSCZ6glJsD-KOqa54GbMoxMiFkK93LmZapbEpT-3CRC32iy8is2lhJR4gXBaDEimOnHOyjQ3kiIMAuW2Ho0JUKkeeVGxLCaXe6LlqcIGmA6AsAPaRFmOk_daBjZQQ98LLEiYDmJdnRJlZYz8SXejzjQxmUYoef8XQlQ9eezturYnzUjletRbJi9XT4SxuXe-uqCECZyv_HaVp-mvXcC4isQ--TYP-hCdDX9PbxuGLIx9nt_k3TGoBaoyO_By3uAdEbWD1MfeC1fG_1TVna-3GQtBYcLnXlTU_DvrFVUm0kc94FnVh9Gs7v0K4WatuYKI3iZrm_cJkpgzm8l3nqVV-jThtvyGyGyhZ6u_zVWvWJVORCnPazd2BPNCeBrJJI9-w4Tq8smgJGYMQ3TayxM85ttBMIZMjlElhNjj5kxgsmYFmQxyhR78HLzHH7EINE7-jd8lm00?></g></svg>