<svg xmlns="http://www.w3.org/2000/svg" xmlns:xlink="http://www.w3.org/1999/xlink" contentStyleType="text/css" data-diagram-type="DESCRIPTION" height="886px" preserveAspectRatio="none" style="width:1403px;height:886px;background:#FFFFFF;" version="1.1" viewBox="0 0 1403 886" width="1403px" zoomAndPan="magnify"><?plantuml 1.2026.5?><defs/><rect data-xfeat-white-canvas="true" fill="#FFFFFF" height="100%" width="100%" x="0" y="0"/><g><!--cluster Skill_Creator_Component--><g class="cluster" data-qualified-name="Skill_Creator_Component" data-source-line="3" id="ent0001"><rect fill="#FFFFFF" height="97" rx="4" ry="4" style="stroke:#CBD5E1;stroke-width:1;" width="695" x="246" y="7"/><text fill="#0F172A" font-family="Helvetica" font-size="14" font-weight="700" lengthAdjust="spacing" textLength="164.1309" x="511.4346" y="19.7803">Skill Creator Component</text></g><!--cluster Skill_Creation_Workflow--><g class="cluster" data-qualified-name="Skill_Creation_Workflow" data-source-line="8" id="ent0005"><rect fill="#FFFFFF" height="722" rx="4" ry="4" style="stroke:#CBD5E1;stroke-width:1;" width="378" x="7" y="150"/><text fill="#0F172A" font-family="Helvetica" font-size="14" font-weight="700" lengthAdjust="spacing" textLength="156.3516" x="117.8242" y="162.7803">Skill Creation Workflow</text></g><!--cluster Generated_Skill_Structure--><g class="cluster" data-qualified-name="Generated_Skill_Structure" data-source-line="16" id="ent0012"><rect fill="#FFFFFF" height="97" rx="4" ry="4" style="stroke:#CBD5E1;stroke-width:1;" width="825" x="409" y="532"/><text fill="#0F172A" font-family="Helvetica" font-size="14" font-weight="700" lengthAdjust="spacing" textLength="168.0547" x="737.4727" y="544.7803">Generated Skill Structure</text></g><!--cluster Output--><g class="cluster" data-qualified-name="Output" data-source-line="22" id="ent0017"><rect fill="#FFFFFF" height="97" rx="4" ry="4" style="stroke:#CBD5E1;stroke-width:1;" width="208" x="409" y="775"/><text fill="#0F172A" font-family="Helvetica" font-size="14" font-weight="700" lengthAdjust="spacing" textLength="45.8691" x="490.0654" y="787.7803">Output</text></g><!--entity SKILL_MD--><g class="entity" data-qualified-name="Skill_Creator_Component.SKILL_MD" data-source-line="4" id="ent0002"><rect fill="#FFFFFF" height="48" rx="4" ry="4" style="stroke:#64748B;stroke-width:0.5;" width="262.7715" x="261.61" y="40"/><text fill="#0F172A" font-family="Helvetica" font-size="14" lengthAdjust="spacing" textLength="61.4756" x="362.2579" y="60.7803">SKILL.md</text><text fill="#0F172A" font-family="Helvetica" font-size="14" lengthAdjust="spacing" textLength="242.7715" x="271.61" y="74.7803">Design Specification &amp; Workflow Guide</text></g><!--entity INIT--><g class="entity" data-qualified-name="Skill_Creator_Component.INIT" data-source-line="5" id="ent0003"><rect fill="#FFFFFF" height="48" rx="4" ry="4" style="stroke:#64748B;stroke-width:0.5;" width="120.3926" x="566.8" y="40"/><text fill="#0F172A" font-family="Helvetica" font-size="14" lengthAdjust="spacing" textLength="67.6895" x="593.1516" y="60.7803">init_skill.py</text><text fill="#0F172A" font-family="Helvetica" font-size="14" lengthAdjust="spacing" textLength="100.3926" x="576.8" y="74.7803">Scaffolding Tool</text></g><!--entity PACKAGE--><g class="entity" data-qualified-name="Skill_Creator_Component.PACKAGE" data-source-line="6" id="ent0004"><rect fill="#FFFFFF" height="48" rx="4" ry="4" style="stroke:#64748B;stroke-width:0.5;" width="195.1094" x="729.45" y="40"/><text fill="#0F172A" font-family="Helvetica" font-size="14" lengthAdjust="spacing" textLength="102.7236" x="775.6429" y="60.7803">package_skill.py</text><text fill="#0F172A" font-family="Helvetica" font-size="14" lengthAdjust="spacing" textLength="175.1094" x="739.45" y="74.7803">Validation &amp; Packaging Tool</text></g><!--entity STEP1--><g class="entity" data-qualified-name="Skill_Creation_Workflow.STEP1" data-source-line="9" id="ent0006"><rect fill="#FFFFFF" height="48" rx="4" ry="4" style="stroke:#64748B;stroke-width:0.5;" width="284.1338" x="53.93" y="183"/><text fill="#0F172A" font-family="Helvetica" font-size="14" lengthAdjust="spacing" textLength="119.3555" x="136.3192" y="203.7803">/'1. UNDERSTAND</text><text fill="#0F172A" font-family="Helvetica" font-size="14" lengthAdjust="spacing" textLength="264.1338" x="63.93" y="217.7803">Gather examples &amp; validate requirements'/</text></g><!--entity STEP2--><g class="entity" data-qualified-name="Skill_Creation_Workflow.STEP2" data-source-line="10" id="ent0007"><rect fill="#FFFFFF" height="48" rx="4" ry="4" style="stroke:#64748B;stroke-width:0.5;" width="238.2031" x="130.9" y="309"/><text fill="#0F172A" font-family="Helvetica" font-size="14" lengthAdjust="spacing" textLength="58.7002" x="220.6515" y="329.7803">/'2. PLAN</text><text fill="#0F172A" font-family="Helvetica" font-size="14" lengthAdjust="spacing" textLength="218.2031" x="140.9" y="343.7803">Identify scripts, references, assets'/</text></g><!--entity STEP3--><g class="entity" data-qualified-name="Skill_Creation_Workflow.STEP3" data-source-line="11" id="ent0008"><rect fill="#FFFFFF" height="48" rx="4" ry="4" style="stroke:#64748B;stroke-width:0.5;" width="143.2861" x="225.36" y="435"/><text fill="#0F172A" font-family="Helvetica" font-size="14" lengthAdjust="spacing" textLength="91.3623" x="251.3219" y="455.7803">/'3. INITIALIZE</text><text fill="#0F172A" font-family="Helvetica" font-size="14" lengthAdjust="spacing" textLength="123.2861" x="235.36" y="469.7803">Generate structure'/</text></g><!--entity STEP4--><g class="entity" data-qualified-name="Skill_Creation_Workflow.STEP4" data-source-line="12" id="ent0009"><rect fill="#FFFFFF" height="48" rx="4" ry="4" style="stroke:#64748B;stroke-width:0.5;" width="269.3203" x="99.34" y="565"/><text fill="#0F172A" font-family="Helvetica" font-size="14" lengthAdjust="spacing" textLength="54.0176" x="206.9914" y="585.7803">/'4. EDIT</text><text fill="#0F172A" font-family="Helvetica" font-size="14" lengthAdjust="spacing" textLength="249.3203" x="109.34" y="599.7803">Implement resources &amp; write SKILL.md'/</text></g><!--entity STEP5--><g class="entity" data-qualified-name="Skill_Creation_Workflow.STEP5" data-source-line="13" id="ent0010"><rect fill="#FFFFFF" height="48" rx="4" ry="4" style="stroke:#64748B;stroke-width:0.5;" width="186.0791" x="182.96" y="678"/><text fill="#0F172A" font-family="Helvetica" font-size="14" lengthAdjust="spacing" textLength="89.8174" x="231.0909" y="698.7803">/'5. PACKAGE</text><text fill="#0F172A" font-family="Helvetica" font-size="14" lengthAdjust="spacing" textLength="166.0791" x="192.96" y="712.7803">Validate &amp; create .skill file'/</text></g><!--entity STEP6--><g class="entity" data-qualified-name="Skill_Creation_Workflow.STEP6" data-source-line="14" id="ent0011"><rect fill="#FFFFFF" height="48" rx="4" ry="4" style="stroke:#64748B;stroke-width:0.5;" width="221.8721" x="80.06" y="808"/><text fill="#0F172A" font-family="Helvetica" font-size="14" lengthAdjust="spacing" textLength="81.2451" x="150.3735" y="828.7803">/'6. ITERATE</text><text fill="#0F172A" font-family="Helvetica" font-size="14" lengthAdjust="spacing" textLength="201.8721" x="90.06" y="842.7803">Real-world testing &amp; refinement'/</text></g><!--entity NEW_SKILL_MD--><g class="entity" data-qualified-name="Generated_Skill_Structure.NEW_SKILL_MD" data-source-line="17" id="ent0013"><rect fill="#FFFFFF" height="48" rx="4" ry="4" style="stroke:#64748B;stroke-width:0.5;" width="244.4854" x="424.76" y="565"/><text fill="#0F172A" font-family="Helvetica" font-size="14" lengthAdjust="spacing" textLength="128.3789" x="482.8132" y="585.7803">skill-name/SKILL.md</text><text fill="#0F172A" font-family="Helvetica" font-size="14" lengthAdjust="spacing" textLength="224.4854" x="434.76" y="599.7803">YAML frontmatter + Markdown body</text></g><!--entity SCRIPTS--><g class="entity" data-qualified-name="Generated_Skill_Structure.SCRIPTS" data-source-line="18" id="ent0014"><rect fill="#FFFFFF" height="48" rx="4" ry="4" style="stroke:#64748B;stroke-width:0.5;" width="123.5166" x="711.24" y="565"/><text fill="#0F172A" font-family="Helvetica" font-size="14" lengthAdjust="spacing" textLength="44.3379" x="750.8294" y="585.7803">scripts/</text><text fill="#0F172A" font-family="Helvetica" font-size="14" lengthAdjust="spacing" textLength="103.5166" x="721.24" y="599.7803">Executable code</text></g><!--entity REFS--><g class="entity" data-qualified-name="Generated_Skill_Structure.REFS" data-source-line="19" id="ent0015"><rect fill="#FFFFFF" height="48" rx="4" ry="4" style="stroke:#64748B;stroke-width:0.5;" width="173.3438" x="876.33" y="565"/><text fill="#0F172A" font-family="Helvetica" font-size="14" lengthAdjust="spacing" textLength="70.0342" x="927.9848" y="585.7803">references/</text><text fill="#0F172A" font-family="Helvetica" font-size="14" lengthAdjust="spacing" textLength="153.3438" x="886.33" y="599.7803">Loadable documentation</text></g><!--entity ASSETS--><g class="entity" data-qualified-name="Generated_Skill_Structure.ASSETS" data-source-line="20" id="ent0016"><rect fill="#FFFFFF" height="48" rx="4" ry="4" style="stroke:#64748B;stroke-width:0.5;" width="126.6133" x="1091.69" y="565"/><text fill="#0F172A" font-family="Helvetica" font-size="14" lengthAdjust="spacing" textLength="44.3516" x="1132.8209" y="585.7803">assets/</text><text fill="#0F172A" font-family="Helvetica" font-size="14" lengthAdjust="spacing" textLength="106.6133" x="1101.69" y="599.7803">Output templates</text></g><!--entity SKILL_FILE--><g class="entity" data-qualified-name="Output.SKILL_FILE" data-source-line="23" id="ent0018"><rect fill="#FFFFFF" height="48" rx="4" ry="4" style="stroke:#64748B;stroke-width:0.5;" width="176.4199" x="424.79" y="808"/><text fill="#0F172A" font-family="Helvetica" font-size="14" lengthAdjust="spacing" textLength="90.2344" x="467.8828" y="828.7803">skill-name.skill</text><text fill="#0F172A" font-family="Helvetica" font-size="14" lengthAdjust="spacing" textLength="156.4199" x="434.79" y="842.7803">Distributable zip package</text></g><!--link STEP1 to STEP2--><g class="link" data-entity-1="ent0006" data-entity-2="ent0007" data-link-type="dependency" data-source-line="25" id="lnk19"><path d="M206.16,231.32 C215.81,253.49 228.2532,282.066 237.8932,304.196" fill="none" id="STEP1-to-STEP2" style="stroke:#64748B;stroke-width:1.1;"/><polygon fill="#64748B" points="239.89,308.78,239.9629,298.9314,237.8932,304.196,232.6286,302.1263,239.89,308.78" style="stroke:#64748B;stroke-width:1.1;stroke-linejoin:miter;stroke-miterlimit:10;"/></g><!--link STEP2 to STEP3--><g class="link" data-entity-1="ent0007" data-entity-2="ent0008" data-link-type="dependency" data-source-line="26" id="lnk20"><path d="M258.84,357.32 C267.24,379.49 278.0375,407.9747 286.4275,430.1047" fill="none" id="STEP2-to-STEP3" style="stroke:#64748B;stroke-width:1.1;"/><polygon fill="#64748B" points="288.2,434.78,288.7497,424.9465,286.4275,430.1047,281.2693,427.7825,288.2,434.78" style="stroke:#64748B;stroke-width:1.1;stroke-linejoin:miter;stroke-miterlimit:10;"/></g><!--link STEP3 to STEP4--><g class="link" data-entity-1="ent0008" data-entity-2="ent0009" data-link-type="dependency" data-source-line="27" id="lnk21"><path d="M285.44,483.48 C274.08,506.57 259.028,537.1439 247.688,560.1839" fill="none" id="STEP3-to-STEP4" style="stroke:#64748B;stroke-width:1.1;"/><polygon fill="#64748B" points="245.48,564.67,253.0432,558.3615,247.688,560.1839,245.8655,554.8287,245.48,564.67" style="stroke:#64748B;stroke-width:1.1;stroke-linejoin:miter;stroke-miterlimit:10;"/></g><!--link STEP4 to STEP5--><g class="link" data-entity-1="ent0009" data-entity-2="ent0010" data-link-type="dependency" data-source-line="28" id="lnk22"><path d="M242.8,613.27 C249.97,632.21 258.269,654.1542 265.439,673.0842" fill="none" id="STEP4-to-STEP5" style="stroke:#64748B;stroke-width:1.1;"/><polygon fill="#64748B" points="267.21,677.76,267.7628,667.9267,265.439,673.0842,260.2815,670.7603,267.21,677.76" style="stroke:#64748B;stroke-width:1.1;stroke-linejoin:miter;stroke-miterlimit:10;"/></g><!--link STEP5 to STEP6--><g class="link" data-entity-1="ent0010" data-entity-2="ent0011" data-link-type="dependency" data-source-line="29" id="lnk23"><path d="M260.41,726.48 C245.07,749.57 224.556,780.4647 209.256,803.5047" fill="none" id="STEP5-to-STEP6" style="stroke:#64748B;stroke-width:1.1;"/><polygon fill="#64748B" points="206.49,807.67,214.801,802.3853,209.256,803.5047,208.1366,797.9598,206.49,807.67" style="stroke:#64748B;stroke-width:1.1;stroke-linejoin:miter;stroke-miterlimit:10;"/></g><!--link STEP6 to STEP4--><g class="link" data-entity-1="ent0011" data-entity-2="ent0009" data-link-type="dependency" data-source-line="30" id="lnk24"><path d="M167.7,807.7 C136.76,776.76 86,726 86,726 C86,726 86,678 86,678 C86,678 146.5822,641.9752 190.4322,615.9052" fill="none" id="STEP6-to-STEP4" style="stroke:#64748B;stroke-width:1.1;stroke-dasharray:7,7;"/><polygon fill="#64748B" points="194.73,613.35,184.9498,614.511,190.4322,615.9052,189.0381,621.3875,194.73,613.35" style="stroke:#64748B;stroke-width:1.1;stroke-linejoin:miter;stroke-miterlimit:10;"/><text fill="#334155" font-family="Helvetica" font-size="12" lengthAdjust="spacing" textLength="74.7246" x="87" y="705.2402">feedback loop</text></g><!--link SKILL_MD to STEP1--><g class="link" data-entity-1="ent0002" data-entity-2="ent0006" data-link-type="dependency" data-source-line="31" id="lnk25"><path d="M355.85,88.48 C332.21,103.43 306,120 306,120 C306,120 262.5693,153.9607 229.9993,179.4207" fill="none" id="SKILL_MD-to-STEP1" style="stroke:#64748B;stroke-width:1.1;stroke-dasharray:7,7;"/><polygon fill="#64748B" points="226.06,182.5,235.6141,180.1086,229.9993,179.4207,230.6872,173.8058,226.06,182.5" style="stroke:#64748B;stroke-width:1.1;stroke-linejoin:miter;stroke-miterlimit:10;"/><text fill="#334155" font-family="Helvetica" font-size="12" lengthAdjust="spacing" textLength="82.7168" x="307" y="130.2402">guides all steps</text></g><!--link SKILL_MD to STEP2--><g class="link" data-entity-1="ent0002" data-entity-2="ent0007" data-link-type="dependency" data-source-line="32" id="lnk26"><path d="M394.27,88.32 C395.09,103.32 396,120 396,120 C396,120 396,134 396,134 C396,134 359,231 359,231 C359,231 311.1479,275.342 278.9479,305.172" fill="none" id="SKILL_MD-to-STEP2" style="stroke:#64748B;stroke-width:1.1;stroke-dasharray:7,7;"/><polygon fill="#64748B" points="275.28,308.57,284.6007,305.388,278.9479,305.172,279.1639,299.5193,275.28,308.57" style="stroke:#64748B;stroke-width:1.1;stroke-linejoin:miter;stroke-miterlimit:10;"/><text fill="#334155" font-family="Helvetica" font-size="12" lengthAdjust="spacing" textLength="110.0508" x="393.91" y="204.2402">Degrees of Freedom</text><text fill="#334155" font-family="Helvetica" font-size="12" lengthAdjust="spacing" textLength="60.0059" x="418.9325" y="216.2402">Framework</text></g><!--link INIT to STEP3--><g class="link" data-entity-1="ent0003" data-entity-2="ent0008" data-link-type="dependency" data-source-line="33" id="lnk27"><path d="M611.19,88.43 C580.32,134.19 515,231 515,231 C515,231 378.6733,372.9537 322.9733,430.9537" fill="none" id="INIT-to-STEP3" style="stroke:#64748B;stroke-width:1.1;"/><polygon fill="#64748B" points="319.51,434.56,328.629,430.8393,322.9733,430.9537,322.8589,425.298,319.51,434.56" style="stroke:#64748B;stroke-width:1.1;stroke-linejoin:miter;stroke-miterlimit:10;"/><text fill="#334155" font-family="Helvetica" font-size="12" lengthAdjust="spacing" textLength="80.7246" x="484.72" y="273.2402">auto-generates</text></g><!--link PACKAGE to STEP5--><g class="link" data-entity-1="ent0004" data-entity-2="ent0010" data-link-type="dependency" data-source-line="34" id="lnk28"><path d="M902.64,88.44 C1032.03,128.54 1282,206 1282,206 C1282,206 1282,206 1282,590 C1282,590 1236,637 1236,637 C1236,637 615.5889,678.3573 374.3489,694.4473" fill="none" id="PACKAGE-to-STEP5" style="stroke:#64748B;stroke-width:1.1;"/><polygon fill="#64748B" points="369.36,694.78,378.6062,698.1722,374.3489,694.4473,378.0739,690.1899,369.36,694.78" style="stroke:#64748B;stroke-width:1.1;stroke-linejoin:miter;stroke-miterlimit:10;"/><text fill="#334155" font-family="Helvetica" font-size="12" lengthAdjust="spacing" textLength="104.0684" x="1283" y="399.2402">validates &amp; bundles</text></g><!--link STEP3 to NEW_SKILL_MD--><g class="link" data-entity-1="ent0008" data-entity-2="ent0013" data-link-type="dependency" data-source-line="35" id="lnk29"><path d="M342.85,483.48 C387.96,506.57 451.9792,539.3517 496.9892,562.3917" fill="none" id="STEP3-to-NEW_SKILL_MD" style="stroke:#64748B;stroke-width:1.1;"/><polygon fill="#64748B" points="501.44,564.67,495.2512,557.0085,496.9892,562.3917,491.606,564.1297,501.44,564.67" style="stroke:#64748B;stroke-width:1.1;stroke-linejoin:miter;stroke-miterlimit:10;"/></g><!--link STEP3 to SCRIPTS--><g class="link" data-entity-1="ent0008" data-entity-2="ent0014" data-link-type="dependency" data-source-line="36" id="lnk30"><path d="M369.08,471.74 C482.54,490.21 690,524 690,524 C690,524 714.9199,543.2176 738.6099,561.4776" fill="none" id="STEP3-to-SCRIPTS" style="stroke:#64748B;stroke-width:1.1;"/><polygon fill="#64748B" points="742.57,564.53,737.8837,555.8675,738.6099,561.4776,732.9998,562.2037,742.57,564.53" style="stroke:#64748B;stroke-width:1.1;stroke-linejoin:miter;stroke-miterlimit:10;"/></g><!--link STEP3 to REFS--><g class="link" data-entity-1="ent0008" data-entity-2="ent0015" data-link-type="dependency" data-source-line="37" id="lnk31"><path d="M368.94,468.24 C519.91,485.52 856,524 856,524 C856,524 888.9389,543.7035 919.4689,561.9635" fill="none" id="STEP3-to-REFS" style="stroke:#64748B;stroke-width:1.1;"/><polygon fill="#64748B" points="923.76,564.53,918.0893,556.4775,919.4689,561.9635,913.9829,563.3432,923.76,564.53" style="stroke:#64748B;stroke-width:1.1;stroke-linejoin:miter;stroke-miterlimit:10;"/></g><!--link STEP3 to ASSETS--><g class="link" data-entity-1="ent0008" data-entity-2="ent0016" data-link-type="dependency" data-source-line="38" id="lnk32"><path d="M369.12,465.96 C561.27,481.85 1071,524 1071,524 C1071,524 1096.242,543.2409 1120.222,561.5009" fill="none" id="STEP3-to-ASSETS" style="stroke:#64748B;stroke-width:1.1;"/><polygon fill="#64748B" points="1124.2,564.53,1119.4629,555.8952,1120.222,561.5009,1114.6163,562.26,1124.2,564.53" style="stroke:#64748B;stroke-width:1.1;stroke-linejoin:miter;stroke-miterlimit:10;"/></g><!--link NEW_SKILL_MD to STEP5--><g class="link" data-entity-1="ent0013" data-entity-2="ent0010" data-link-type="dependency" data-source-line="39" id="lnk33"><path d="M489.86,613.4 C443.74,632.3 383.787,656.855 337.687,675.735" fill="none" id="NEW_SKILL_MD-to-STEP5" style="stroke:#64748B;stroke-width:1.1;"/><polygon fill="#64748B" points="333.06,677.63,342.9046,677.9207,337.687,675.735,339.8726,670.5175,333.06,677.63" style="stroke:#64748B;stroke-width:1.1;stroke-linejoin:miter;stroke-miterlimit:10;"/></g><!--link STEP5 to SKILL_FILE--><g class="link" data-entity-1="ent0010" data-entity-2="ent0018" data-link-type="dependency" data-source-line="40" id="lnk34"><path d="M319.47,726.48 C362.23,749.57 422.7404,782.2544 465.4104,805.2944" fill="none" id="STEP5-to-SKILL_FILE" style="stroke:#64748B;stroke-width:1.1;"/><polygon fill="#64748B" points="469.81,807.67,463.7912,799.8742,465.4104,805.2944,459.9902,806.9136,469.81,807.67" style="stroke:#64748B;stroke-width:1.1;stroke-linejoin:miter;stroke-miterlimit:10;"/></g><?plantuml-src TLHDRvj04BtxLqnpI0wjiH9_77geX6mSeJYkPTn6hInPQnZSbM6NxYvrqgh_lRDhmD2c5yGmyzvyl1dUS15dPO9GA9cYrbmAblNDDypHusMUzOmim4ZOIsDa3WbN61iAwXKiFh83mbLqv5a6KuNCI0LJcHTIe31Nm3GutwxoxHeV_EfP6YOEcILu21SBBq-sOeQQ7mH41SOyvJ6pYU0QdgGwffaymNt94pmJMypkSTRcuOARdROPlU9bAwAOfQdC4YuEi94oSxXm6MxQcAgB5kmpotXIPruvTuTXvKyV_FkWz_lL2LXONUxV4o3VhccbCu71pQq7dvQpO1rj_ELiA-uPAQ00drbUPAYfaX_diX0KVYz9X9p6g6y6vnoRO7NRvRlpOBNmbriH9XJ8qnVGiUA5qU-884M58aPwPrfZX-QkIpFqtCH2Vn5-3QWi5AXi4TgeCZQbmXPqs8MEF0XcuOOgi2tOSYcpbgMANJydnOcdbhv5C-hIZBrwueqqIF3O3XJ1Sxf1ohDs9UCknOIQs0HhVqCKQwJjFacL9M1G6wlijPq85wx45icahN3TU7BM4wAwVnVUU7TdjHjlLsLNQr-m70UNbV_YFouWLLAOd1b3ch-5HwQEYJm9khdanILO1a-xrpQ-qdIm5S4pngLXU_eQo_f6fkjmjOdQW8lsX5b8bZX48kFITkzMr47NmRo3E-y9OJwMfYWDpOv4fOwrY_QZAA0yhNcTmvopGlnd4cS1wV8vhHJVLotyv0LKNArhduSBUtPksw7V_r0jh7iszj3PmyOUENlKs6DdZnjxukm9U5uL3-yXHKpsb1uoAOjUFVWcv9P23lPFf87HBcY3XVutwewYPdXGI64oXJcz93BVYhcYjca3ZprxMPUwAPoLHlOFrJBfNhNtbz8ffFuDs1FQboAXdqEhuSwUjEPGBSBbYzFtObO2jk6l3wpHuGy0?></g></svg>