<svg xmlns="http://www.w3.org/2000/svg" xmlns:xlink="http://www.w3.org/1999/xlink" contentStyleType="text/css" data-diagram-type="DESCRIPTION" height="774px" preserveAspectRatio="none" style="width:1520px;height:774px;background:#FFFFFF;" version="1.1" viewBox="0 0 1520 774" width="1520px" zoomAndPan="magnify"><?plantuml 1.2026.5?><defs/><rect data-xfeat-white-canvas="true" fill="#FFFFFF" height="100%" width="100%" x="0" y="0"/><g><!--cluster External--><g class="cluster" data-qualified-name="External" data-source-line="3" id="ent0001"><rect fill="#FFFFFF" height="394" rx="4" ry="4" style="stroke:#CBD5E1;stroke-width:1;" width="498" x="7" y="199"/><text fill="#0F172A" font-family="Helvetica" font-size="14" font-weight="700" lengthAdjust="spacing" textLength="199.9512" x="156.0244" y="211.7803">External Messaging Platforms</text></g><!--cluster Channels--><g class="cluster" data-qualified-name="Channels" data-source-line="15" id="ent0012"><rect fill="#FFFFFF" height="753" rx="4" ry="4" style="stroke:#CBD5E1;stroke-width:1;" width="735" x="537" y="7"/><text fill="#0F172A" font-family="Helvetica" font-size="14" font-weight="700" lengthAdjust="spacing" textLength="201.4414" x="803.7793" y="19.7803">nanobot/channels Component</text></g><!--cluster Core--><g class="cluster" data-qualified-name="Channels.Core" data-source-line="16" id="ent0013"><rect fill="#FFFFFF" height="249" rx="4" ry="4" style="stroke:#CBD5E1;stroke-width:1;" width="288" x="910" y="48"/><text fill="#0F172A" font-family="Helvetica" font-size="14" font-weight="700" lengthAdjust="spacing" textLength="126.8066" x="990.5967" y="60.7803">Core Infrastructure</text></g><!--cluster Implementations--><g class="cluster" data-qualified-name="Channels.Implementations" data-source-line="21" id="ent0017"><rect fill="#FFFFFF" height="377" rx="4" ry="4" style="stroke:#CBD5E1;stroke-width:1;" width="671" x="569" y="351"/><text fill="#0F172A" font-family="Helvetica" font-size="14" font-weight="700" lengthAdjust="spacing" textLength="170.3584" x="819.3208" y="363.7803">Channel Implementations</text></g><!--cluster Internal--><g class="cluster" data-qualified-name="Internal" data-source-line="34" id="ent0028"><rect fill="#FFFFFF" height="232" rx="4" ry="4" style="stroke:#CBD5E1;stroke-width:1;" width="176" x="1329" y="495"/><text fill="#0F172A" font-family="Helvetica" font-size="14" font-weight="700" lengthAdjust="spacing" textLength="146.248" x="1343.876" y="507.7803">Nanobot Core System</text></g><!--entity TG--><g class="entity" data-qualified-name="External.TG" data-source-line="4" id="ent0002"><rect fill="#FFFFFF" height="34" rx="4" ry="4" style="stroke:#64748B;stroke-width:0.5;" width="79.1309" x="31.43" y="240"/><text fill="#0F172A" font-family="Helvetica" font-size="14" lengthAdjust="spacing" textLength="59.1309" x="41.43" y="260.7803">Telegram</text></g><!--entity DC--><g class="entity" data-qualified-name="External.DC" data-source-line="5" id="ent0003"><rect fill="#FFFFFF" height="34" rx="4" ry="4" style="stroke:#64748B;stroke-width:0.5;" width="67.4551" x="152.27" y="240"/><text fill="#0F172A" font-family="Helvetica" font-size="14" lengthAdjust="spacing" textLength="47.4551" x="162.27" y="260.7803">Discord</text></g><!--entity SL--><g class="entity" data-qualified-name="External.SL" data-source-line="6" id="ent0004"><rect fill="#FFFFFF" height="34" rx="4" ry="4" style="stroke:#64748B;stroke-width:0.5;" width="54.2344" x="261.88" y="240"/><text fill="#0F172A" font-family="Helvetica" font-size="14" lengthAdjust="spacing" textLength="34.2344" x="271.88" y="260.7803">Slack</text></g><!--entity FS--><g class="entity" data-qualified-name="External.FS" data-source-line="7" id="ent0005"><rect fill="#FFFFFF" height="34" rx="4" ry="4" style="stroke:#64748B;stroke-width:0.5;" width="93.1445" x="358.43" y="240"/><text fill="#0F172A" font-family="Helvetica" font-size="14" lengthAdjust="spacing" textLength="73.1445" x="368.43" y="260.7803">Feishu/Lark</text></g><!--entity DT--><g class="entity" data-qualified-name="External.DT" data-source-line="8" id="ent0006"><rect fill="#FFFFFF" height="34" rx="4" ry="4" style="stroke:#64748B;stroke-width:0.5;" width="75.2412" x="31.38" y="392"/><text fill="#0F172A" font-family="Helvetica" font-size="14" lengthAdjust="spacing" textLength="55.2412" x="41.38" y="412.7803">DingTalk</text></g><!--entity WA--><g class="entity" data-qualified-name="External.WA" data-source-line="9" id="ent0007"><rect fill="#FFFFFF" height="34" rx="4" ry="4" style="stroke:#64748B;stroke-width:0.5;" width="84.5859" x="148.71" y="392"/><text fill="#0F172A" font-family="Helvetica" font-size="14" lengthAdjust="spacing" textLength="64.5859" x="158.71" y="412.7803">WhatsApp</text></g><!--entity EM--><g class="entity" data-qualified-name="External.EM" data-source-line="10" id="ent0008"><rect fill="#FFFFFF" height="48" rx="4" ry="4" style="stroke:#64748B;stroke-width:0.5;" width="97.0068" x="275.5" y="385"/><text fill="#0F172A" font-family="Helvetica" font-size="14" lengthAdjust="spacing" textLength="35.0068" x="306.5" y="405.7803">Email</text><text fill="#0F172A" font-family="Helvetica" font-size="14" lengthAdjust="spacing" textLength="77.0068" x="285.5" y="419.7803">IMAP/SMTP</text></g><!--entity MX--><g class="entity" data-qualified-name="External.MX" data-source-line="11" id="ent0009"><rect fill="#FFFFFF" height="34" rx="4" ry="4" style="stroke:#64748B;stroke-width:0.5;" width="58.1104" x="414.94" y="392"/><text fill="#0F172A" font-family="Helvetica" font-size="14" lengthAdjust="spacing" textLength="38.1104" x="424.94" y="412.7803">Matrix</text></g><!--entity QQ--><g class="entity" data-qualified-name="External.QQ" data-source-line="12" id="ent0010"><rect fill="#FFFFFF" height="34" rx="4" ry="4" style="stroke:#64748B;stroke-width:0.5;" width="41.7793" x="48.11" y="535"/><text fill="#0F172A" font-family="Helvetica" font-size="14" lengthAdjust="spacing" textLength="21.7793" x="58.11" y="555.7803">QQ</text></g><!--entity MC--><g class="entity" data-qualified-name="External.MC" data-source-line="13" id="ent0011"><rect fill="#FFFFFF" height="34" rx="4" ry="4" style="stroke:#64748B;stroke-width:0.5;" width="65.9102" x="132.04" y="535"/><text fill="#0F172A" font-family="Helvetica" font-size="14" lengthAdjust="spacing" textLength="45.9102" x="142.04" y="555.7803">Mochat</text></g><!--entity INIT--><g class="entity" data-qualified-name="Channels.Core.INIT" data-source-line="17" id="ent0014"><rect fill="#FFFFFF" height="48" rx="4" ry="4" style="stroke:#64748B;stroke-width:0.5;" width="84.5859" x="925.71" y="81"/><text fill="#0F172A" font-family="Helvetica" font-size="14" lengthAdjust="spacing" text-decoration="underline" textLength="17.8965" x="949.7168" y="101.7803">init</text><text fill="#0F172A" font-family="Helvetica" font-size="14" lengthAdjust="spacing" textLength="18.6758" x="967.6133" y="101.7803">.py</text><text fill="#0F172A" font-family="Helvetica" font-size="14" lengthAdjust="spacing" textLength="64.5859" x="935.71" y="115.7803">Public API</text></g><!--entity BC--><g class="entity" data-qualified-name="Channels.Core.BC" data-source-line="18" id="ent0015"><rect fill="#FFFFFF" height="48" rx="4" ry="4" style="stroke:#64748B;stroke-width:0.5;" width="129.7168" x="1052.14" y="81"/><text fill="#0F172A" font-family="Helvetica" font-size="14" lengthAdjust="spacing" textLength="84.0615" x="1074.9676" y="101.7803">BaseChannel</text><text fill="#0F172A" font-family="Helvetica" font-size="14" lengthAdjust="spacing" textLength="109.7168" x="1062.14" y="115.7803">Abstract Interface</text></g><!--entity CM--><g class="entity" data-qualified-name="Channels.Core.CM" data-source-line="19" id="ent0016"><rect fill="#FFFFFF" height="48" rx="4" ry="4" style="stroke:#64748B;stroke-width:0.5;" width="139.8408" x="926.08" y="233"/><text fill="#0F172A" font-family="Helvetica" font-size="14" lengthAdjust="spacing" textLength="107.4063" x="942.2973" y="253.7803">ChannelManager</text><text fill="#0F172A" font-family="Helvetica" font-size="14" lengthAdjust="spacing" textLength="119.8408" x="936.08" y="267.7803">Lifecycle &amp; Routing</text></g><!--entity TG_C--><g class="entity" data-qualified-name="Channels.Implementations.TG_C" data-source-line="22" id="ent0018"><rect fill="#FFFFFF" height="34" rx="4" ry="4" style="stroke:#64748B;stroke-width:0.5;" width="131.2822" x="593.36" y="392"/><text fill="#0F172A" font-family="Helvetica" font-size="14" lengthAdjust="spacing" textLength="111.2822" x="603.36" y="412.7803">TelegramChannel</text></g><!--entity DC_C--><g class="entity" data-qualified-name="Channels.Implementations.DC_C" data-source-line="23" id="ent0019"><rect fill="#FFFFFF" height="34" rx="4" ry="4" style="stroke:#64748B;stroke-width:0.5;" width="119.6064" x="766.2" y="392"/><text fill="#0F172A" font-family="Helvetica" font-size="14" lengthAdjust="spacing" textLength="99.6064" x="776.2" y="412.7803">DiscordChannel</text></g><!--entity SL_C--><g class="entity" data-qualified-name="Channels.Implementations.SL_C" data-source-line="24" id="ent0020"><rect fill="#FFFFFF" height="34" rx="4" ry="4" style="stroke:#64748B;stroke-width:0.5;" width="106.3857" x="927.81" y="392"/><text fill="#0F172A" font-family="Helvetica" font-size="14" lengthAdjust="spacing" textLength="86.3857" x="937.81" y="412.7803">SlackChannel</text></g><!--entity FS_C--><g class="entity" data-qualified-name="Channels.Implementations.FS_C" data-source-line="25" id="ent0021"><rect fill="#FFFFFF" height="34" rx="4" ry="4" style="stroke:#64748B;stroke-width:0.5;" width="114.1719" x="1075.91" y="392"/><text fill="#0F172A" font-family="Helvetica" font-size="14" lengthAdjust="spacing" textLength="94.1719" x="1085.91" y="412.7803">FeishuChannel</text></g><!--entity DT_C--><g class="entity" data-qualified-name="Channels.Implementations.DT_C" data-source-line="26" id="ent0022"><rect fill="#FFFFFF" height="34" rx="4" ry="4" style="stroke:#64748B;stroke-width:0.5;" width="127.3926" x="593.3" y="535"/><text fill="#0F172A" font-family="Helvetica" font-size="14" lengthAdjust="spacing" textLength="107.3926" x="603.3" y="555.7803">DingTalkChannel</text></g><!--entity WA_C--><g class="entity" data-qualified-name="Channels.Implementations.WA_C" data-source-line="27" id="ent0023"><rect fill="#FFFFFF" height="34" rx="4" ry="4" style="stroke:#64748B;stroke-width:0.5;" width="136.7373" x="762.63" y="535"/><text fill="#0F172A" font-family="Helvetica" font-size="14" lengthAdjust="spacing" textLength="116.7373" x="772.63" y="555.7803">WhatsAppChannel</text></g><!--entity EM_C--><g class="entity" data-qualified-name="Channels.Implementations.EM_C" data-source-line="28" id="ent0024"><rect fill="#FFFFFF" height="34" rx="4" ry="4" style="stroke:#64748B;stroke-width:0.5;" width="107.1582" x="941.42" y="535"/><text fill="#0F172A" font-family="Helvetica" font-size="14" lengthAdjust="spacing" textLength="87.1582" x="951.42" y="555.7803">EmailChannel</text></g><!--entity MX_C--><g class="entity" data-qualified-name="Channels.Implementations.MX_C" data-source-line="29" id="ent0025"><rect fill="#FFFFFF" height="34" rx="4" ry="4" style="stroke:#64748B;stroke-width:0.5;" width="110.2617" x="1090.87" y="535"/><text fill="#0F172A" font-family="Helvetica" font-size="14" lengthAdjust="spacing" textLength="90.2617" x="1100.87" y="555.7803">MatrixChannel</text></g><!--entity QQ_C--><g class="entity" data-qualified-name="Channels.Implementations.QQ_C" data-source-line="30" id="ent0026"><rect fill="#FFFFFF" height="34" rx="4" ry="4" style="stroke:#64748B;stroke-width:0.5;" width="93.9307" x="610.03" y="670"/><text fill="#0F172A" font-family="Helvetica" font-size="14" lengthAdjust="spacing" textLength="73.9307" x="620.03" y="690.7803">QQChannel</text></g><!--entity MC_C--><g class="entity" data-qualified-name="Channels.Implementations.MC_C" data-source-line="31" id="ent0027"><rect fill="#FFFFFF" height="34" rx="4" ry="4" style="stroke:#64748B;stroke-width:0.5;" width="118.0615" x="745.97" y="670"/><text fill="#0F172A" font-family="Helvetica" font-size="14" lengthAdjust="spacing" textLength="98.0615" x="755.97" y="690.7803">MochatChannel</text></g><!--entity BUS--><g class="entity" data-qualified-name="Internal.BUS" data-source-line="35" id="ent0029"><rect fill="#FFFFFF" height="48" rx="4" ry="4" style="stroke:#64748B;stroke-width:0.5;" width="104.8203" x="1344.59" y="528"/><text fill="#0F172A" font-family="Helvetica" font-size="14" lengthAdjust="spacing" textLength="84.8203" x="1354.59" y="548.7803">Message Bus</text><text fill="#0F172A" font-family="Helvetica" font-size="14" lengthAdjust="spacing" textLength="81.7236" x="1356.1383" y="562.7803">Event Queue</text></g><!--entity CORE--><g class="entity" data-qualified-name="Internal.CORE" data-source-line="36" id="ent0030"><rect fill="#FFFFFF" height="48" rx="4" ry="4" style="stroke:#64748B;stroke-width:0.5;" width="126.6133" x="1344.69" y="663"/><text fill="#0F172A" font-family="Helvetica" font-size="14" lengthAdjust="spacing" textLength="55.248" x="1380.3726" y="683.7803">Bot Core</text><text fill="#0F172A" font-family="Helvetica" font-size="14" lengthAdjust="spacing" textLength="106.6133" x="1354.69" y="697.7803">Processing Logic</text></g><!--link External to Implementations--><g class="link" data-entity-1="ent0001" data-entity-2="ent0017" data-link-type="dependency" data-source-line="38" id="lnk31"><path d="M510.6717,260.2217 C513.0554,260.6096 514.1579,260.789 517.1673,261.2788 C529.2045,263.2377 546.0441,265.9781 566.0681,269.2369 C606.1162,275.7544 658.9025,284.345 711.485,292.9025 C816.65,310.0175 921,327 921,327 C921,327 1219,335 1219,335 C1219,335 1219.7875,339.4213 1220.9748,346.0877 C1221.1233,346.921 1221.2779,347.7893 1221.4381,348.6886 C1221.5182,349.1382 1221.5996,349.5955 1221.6823,350.06 C1221.7237,350.2922 1220.8887,345.6037 1220.9306,345.8395" fill="none" id="External-Implementations" style="stroke:#64748B;stroke-width:1.1;"/><polygon fill="#64748B" points="505.7366,259.4186,513.9773,264.8122,510.6717,260.2217,515.2622,256.9161,505.7366,259.4186" style="stroke:#64748B;stroke-width:1.1;stroke-linejoin:miter;stroke-miterlimit:10;"/><polygon fill="#64748B" points="1221.8074,350.762,1224.1673,341.2001,1220.9306,345.8395,1216.2912,342.6028,1221.8074,350.762" style="stroke:#64748B;stroke-width:1.1;stroke-linejoin:miter;stroke-miterlimit:10;"/><text fill="#334155" font-family="Helvetica" font-size="12" lengthAdjust="spacing" textLength="101.373" x="922" y="323.2402">platform messages</text></g><!--link Implementations to BC--><g class="link" data-entity-1="ent0017" data-entity-2="ent0015" data-link-type="dependency" data-source-line="39" id="lnk32"><path d="M1221.8074,350.762 C1221.7654,350.5262 1221.7237,350.2922 1221.6823,350.06 C1221.5996,349.5955 1221.5182,349.1382 1221.4381,348.6886 C1221.2779,347.7893 1221.1233,346.921 1220.9748,346.0877 C1219.7875,339.4213 1219,335 1219,335 C1219,335 1155.3043,192.0075 1129.3743,133.7875" fill="none" id="Implementations-to-BC" style="stroke:#64748B;stroke-width:1.1;stroke-dasharray:7,7;"/><polygon fill="#64748B" points="1127.34,129.22,1127.3477,139.0689,1129.3743,133.7875,1134.6556,135.814,1127.34,129.22" style="stroke:#64748B;stroke-width:1.1;stroke-linejoin:miter;stroke-miterlimit:10;"/><text fill="#334155" font-family="Helvetica" font-size="12" lengthAdjust="spacing" textLength="104.7129" x="1205.93" y="260.2402">implement interface</text></g><!--link CM to Implementations--><g class="link" data-entity-1="ent0016" data-entity-2="ent0017" data-link-type="dependency" data-source-line="40" id="lnk33"><path d="M1011.91,281.36 C1025.55,301.38 1043,327 1043,327 C1043,327 1219,335 1219,335 C1219,335 1219.7875,339.4213 1220.9748,346.0877 C1221.1233,346.921 1221.2779,347.7893 1221.4381,348.6886 C1221.5182,349.1382 1221.5996,349.5955 1221.6823,350.06 C1221.7237,350.2922 1220.8887,345.6037 1220.9306,345.8395" fill="none" id="CM-to-Implementations" style="stroke:#64748B;stroke-width:1.1;"/><polygon fill="#64748B" points="1221.8074,350.762,1224.1673,341.2001,1220.9306,345.8395,1216.2912,342.6028,1221.8074,350.762" style="stroke:#64748B;stroke-width:1.1;stroke-linejoin:miter;stroke-miterlimit:10;"/><text fill="#334155" font-family="Helvetica" font-size="12" lengthAdjust="spacing" textLength="94.043" x="1044" y="323.2402">lifecycle &amp; routing</text></g><!--link Implementations to BUS--><g class="link" data-entity-1="ent0017" data-entity-2="ent0029" data-link-type="dependency" data-source-line="41" id="lnk34"><path d="M1242.1388,433.3205 C1242.2432,433.5608 1240.5108,429.5764 1240.6163,429.8191 C1241.0384,430.7899 1241.4688,431.7798 1241.9058,432.7847 C1243.6535,436.8043 1245.5059,441.0647 1247.3513,445.3088 C1254.7325,462.285 1262,479 1262,479 C1262,479 1309.338,504.2474 1348.758,525.2674" fill="none" id="Implementations-BUS" style="stroke:#64748B;stroke-width:1.1;"/><polygon fill="#64748B" points="1240.145,428.7352,1240.0655,438.5838,1242.1388,433.3205,1247.402,435.3938,1240.145,428.7352" style="stroke:#64748B;stroke-width:1.1;stroke-linejoin:miter;stroke-miterlimit:10;"/><polygon fill="#64748B" points="1353.17,527.62,1347.1106,519.8558,1348.758,525.2674,1343.3464,526.9149,1353.17,527.62" style="stroke:#64748B;stroke-width:1.1;stroke-linejoin:miter;stroke-miterlimit:10;"/><text fill="#334155" font-family="Helvetica" font-size="12" lengthAdjust="spacing" textLength="134.7832" x="1263" y="475.2402">inbound/outbound events</text></g><!--link CM to BUS--><g class="link" data-entity-1="ent0016" data-entity-2="ent0029" data-link-type="dependency" data-source-line="42" id="lnk35"><path d="M1070.8227,281.9221 C1108.6827,294.0221 1143,305 1143,305 C1143,305 1250,335 1250,335 C1250,335 1404,465 1404,465 C1404,465 1404,479 1404,479 C1404,479 1401.7846,501.7935 1399.7346,522.8435" fill="none" id="CM-BUS" style="stroke:#64748B;stroke-width:1.1;"/><polygon fill="#64748B" points="1066.06,280.4,1073.4151,286.95,1070.8227,281.9221,1075.8505,279.3297,1066.06,280.4" style="stroke:#64748B;stroke-width:1.1;stroke-linejoin:miter;stroke-miterlimit:10;"/><polygon fill="#64748B" points="1399.25,527.82,1404.1035,519.2501,1399.7346,522.8435,1396.1412,518.4747,1399.25,527.82" style="stroke:#64748B;stroke-width:1.1;stroke-linejoin:miter;stroke-miterlimit:10;"/><text fill="#334155" font-family="Helvetica" font-size="12" lengthAdjust="spacing" textLength="66.041" x="1365.07" y="412.2402">route events</text></g><!--link BUS to CORE--><g class="link" data-entity-1="ent0029" data-entity-2="ent0030" data-link-type="dependency" data-source-line="43" id="lnk36"><path d="M1399.352,581.453 C1401.362,605.763 1403.6565,633.5571 1405.6665,657.7771" fill="none" id="BUS-CORE" style="stroke:#64748B;stroke-width:1.1;"/><polygon fill="#64748B" points="1398.94,576.47,1395.6952,585.769,1399.352,581.453,1403.668,585.1098,1398.94,576.47" style="stroke:#64748B;stroke-width:1.1;stroke-linejoin:miter;stroke-miterlimit:10;"/><polygon fill="#64748B" points="1406.08,662.76,1409.322,653.46,1405.6665,657.7771,1401.3494,654.1217,1406.08,662.76" style="stroke:#64748B;stroke-width:1.1;stroke-linejoin:miter;stroke-miterlimit:10;"/><text fill="#334155" font-family="Helvetica" font-size="12" lengthAdjust="spacing" textLength="100.043" x="1404.16" y="627.2402">process messages</text></g><!--link INIT to CM--><g class="link" data-entity-1="ent0014" data-entity-2="ent0016" data-link-type="dependency" data-source-line="44" id="lnk37"><path d="M972.38,129.44 C977.64,157.62 985.492,199.705 990.742,227.815" fill="none" id="INIT-to-CM" style="stroke:#64748B;stroke-width:1.1;"/><polygon fill="#64748B" points="991.66,232.73,993.9397,223.1486,990.742,227.815,986.0757,224.6173,991.66,232.73" style="stroke:#64748B;stroke-width:1.1;stroke-linejoin:miter;stroke-miterlimit:10;"/><text fill="#334155" font-family="Helvetica" font-size="12" lengthAdjust="spacing" textLength="62.0273" x="981.32" y="171.2402">exports API</text></g><?plantuml-src RPJ1Rk8m48RlUGfl3ti3xjMgKWXGHI9TqcJL7f0YOqomrh4Zsrc1ghxxZktGsi0jcl-R6S_uTtumGVYmfwXNya2rPb9WFZ57sj4f6pgU6DaZ8z5E6YCxj6UA4WDGqcFo5xSKFInFXYf8GWMauvQ95cquDWUfEls0i4PVm4TYax5eEQJLbDDMuSuXzNCeBPWcKksTiiX2fUBGrSMhTHXVKQQFmsoDbLTNLLnFj3NcNbhKeVHsn4QdVU-ajpIKbXrcV2lo8jtCggBU-5cA42cmKUpaXE8z5ChI1SioeYM1RfxEai_l3Gei9Ent1h8Gb6kKoQwNWWeFPvVmntTA9XL5kJWeh8qQY1aKzQoDHtjk6YQOQPffVzwApR3ZZA1qapiwVycZRSonfcEthKXtK1eJ0stW_WwO-0xpw496ki02ZgMsOiqEb9m9I3_HgnmCRDwVgmW77hDGtlKSZ2OCjfRoRhcAtJVDM63qJfFTSK-8BBBcraOXKArZmFif95RLTHVlgQXD7JCNSuNCMneppcKXi2nYm7ii98htc2ZBK2tBgtpdkYZVRkCpl8yNRq3ldkgi3VNFqjtypSlrxvoY-Q2tOlaFhWgL0nr6U_o9djvyh0hMKvBO_mly7jQoPSJRulVh4WxozOVuDPaytJZW4VNZ_mHrlhLEhfdfz0cS2IYx28XTR9ja1RfVbmTkLTwjDvNTaM0gMrliv23sCo3T1w9sU6th1vGjH2-I3JdDJcedyLi81e4dw4u7HHuHFVLI6MqVw7y0?></g></svg>