<svg xmlns="http://www.w3.org/2000/svg" xmlns:xlink="http://www.w3.org/1999/xlink" contentStyleType="text/css" data-diagram-type="DESCRIPTION" height="807px" preserveAspectRatio="none" style="width:1002px;height:807px;background:#FFFFFF;" version="1.1" viewBox="0 0 1002 807" width="1002px" zoomAndPan="magnify"><?plantuml 1.2026.5?><defs/><rect data-xfeat-white-canvas="true" fill="#FFFFFF" height="100%" width="100%" x="0" y="0"/><g><!--cluster External--><g class="cluster" data-qualified-name="External" data-source-line="3" id="ent0001"><rect fill="#FFFFFF" height="97" rx="4" ry="4" style="stroke:#CBD5E1;stroke-width:1;" width="596" x="392" y="688"/><text fill="#0F172A" font-family="Helvetica" font-size="14" font-weight="700" lengthAdjust="spacing" textLength="116.7305" x="631.6348" y="700.7803">External Systems</text></g><!--cluster Nanobot--><g class="cluster" data-qualified-name="Nanobot" data-source-line="8" id="ent0005"><rect fill="#FFFFFF" height="83" rx="4" ry="4" style="stroke:#CBD5E1;stroke-width:1;" width="136" x="327" y="7"/><text fill="#0F172A" font-family="Helvetica" font-size="14" font-weight="700" lengthAdjust="spacing" textLength="110.4619" x="339.769" y="19.7803">Nanobot System</text></g><!--cluster TmuxSkill--><g class="cluster" data-qualified-name="TmuxSkill" data-source-line="11" id="ent0007"><rect fill="#FFFFFF" height="347" rx="4" ry="4" style="stroke:#CBD5E1;stroke-width:1;" width="918" x="7" y="136"/><text fill="#0F172A" font-family="Helvetica" font-size="14" font-weight="700" lengthAdjust="spacing" textLength="131.4619" x="400.269" y="148.7803">nanobot/skills/tmux</text></g><!--cluster Config--><g class="cluster" data-qualified-name="TmuxSkill.Config" data-source-line="12" id="ent0008"><rect fill="#FFFFFF" height="111" rx="4" ry="4" style="stroke:#CBD5E1;stroke-width:1;" width="452" x="31" y="177"/><text fill="#0F172A" font-family="Helvetica" font-size="14" font-weight="700" lengthAdjust="spacing" textLength="133.0068" x="190.4966" y="189.7803">Configuration Layer</text></g><!--cluster Core--><g class="cluster" data-qualified-name="TmuxSkill.Core" data-source-line="16" id="ent0011"><rect fill="#FFFFFF" height="125" rx="4" ry="4" style="stroke:#CBD5E1;stroke-width:1;" width="808" x="31" y="334"/><text fill="#0F172A" font-family="Helvetica" font-size="14" font-weight="700" lengthAdjust="spacing" textLength="114.3652" x="377.8174" y="346.7803">Core Capabilities</text></g><!--cluster Orchestration--><g class="cluster" data-qualified-name="TmuxSkill.Orchestration" data-source-line="22" id="ent0016"><rect fill="#FFFFFF" height="111" rx="4" ry="4" style="stroke:#CBD5E1;stroke-width:1;" width="394" x="507" y="177"/><text fill="#0F172A" font-family="Helvetica" font-size="14" font-weight="700" lengthAdjust="spacing" textLength="133.0479" x="637.4761" y="189.7803">Orchestration Layer</text></g><!--cluster TmuxServer--><g class="cluster" data-qualified-name="TmuxServer" data-source-line="27" id="ent0019"><rect fill="#FFFFFF" height="256" rx="4" ry="4" style="stroke:#CBD5E1;stroke-width:1;" width="279" x="81" y="537"/><text fill="#0F172A" font-family="Helvetica" font-size="14" font-weight="700" lengthAdjust="spacing" textLength="98.041" x="171.4795" y="549.7803">tmux Server(s)</text></g><!--entity AGENT_CLIS--><g class="entity" data-qualified-name="External.AGENT_CLIS" data-source-line="4" id="ent0002"><rect fill="#FFFFFF" height="48" rx="4" ry="4" style="stroke:#64748B;stroke-width:0.5;" width="159.2959" x="583.35" y="721"/><text fill="#0F172A" font-family="Helvetica" font-size="14" lengthAdjust="spacing" textLength="91.8408" x="617.0775" y="741.7803">Coding Agents</text><text fill="#0F172A" font-family="Helvetica" font-size="14" lengthAdjust="spacing" textLength="139.2959" x="593.35" y="755.7803">(Claude Code, Codex)</text></g><!--entity SHELL--><g class="entity" data-qualified-name="External.SHELL" data-source-line="5" id="ent0003"><rect fill="#FFFFFF" height="48" rx="4" ry="4" style="stroke:#64748B;stroke-width:0.5;" width="133.6133" x="408.19" y="721"/><text fill="#0F172A" font-family="Helvetica" font-size="14" lengthAdjust="spacing" textLength="113.6133" x="418.19" y="741.7803">Shell Environment</text><text fill="#0F172A" font-family="Helvetica" font-size="14" lengthAdjust="spacing" textLength="91.0342" x="429.4796" y="755.7803">(bash/zsh/fish)</text></g><!--entity FS--><g class="entity" data-qualified-name="External.FS" data-source-line="6" id="ent0004"><rect fill="#FFFFFF" height="48" rx="4" ry="4" style="stroke:#64748B;stroke-width:0.5;" width="187.2412" x="784.38" y="721"/><text fill="#0F172A" font-family="Helvetica" font-size="14" lengthAdjust="spacing" textLength="73.124" x="841.4386" y="741.7803">File System</text><text fill="#0F172A" font-family="Helvetica" font-size="14" lengthAdjust="spacing" textLength="167.2412" x="794.38" y="755.7803">(Git Worktrees, Socket Dir)</text></g><!--entity SKILL_INTF--><g class="entity" data-qualified-name="Nanobot.SKILL_INTF" data-source-line="9" id="ent0006"><rect fill="#FFFFFF" height="34" rx="4" ry="4" style="stroke:#64748B;stroke-width:0.5;" width="104.0342" x="342.98" y="40"/><text fill="#0F172A" font-family="Helvetica" font-size="14" lengthAdjust="spacing" textLength="84.0342" x="352.98" y="60.7803">Skill Interface</text></g><!--entity ENV--><g class="entity" data-qualified-name="TmuxSkill.Config.ENV" data-source-line="13" id="ent0009"><rect fill="#FFFFFF" height="62" rx="4" ry="4" style="stroke:#64748B;stroke-width:0.5;" width="233.9238" x="47.04" y="210"/><text fill="#0F172A" font-family="Helvetica" font-size="14" lengthAdjust="spacing" textLength="140.8477" x="93.5781" y="230.7803">Environment Variables</text><text fill="#0F172A" font-family="Helvetica" font-size="14" lengthAdjust="spacing" textLength="213.9238" x="57.04" y="244.7803">NANOBOT_TMUX_SOCKET_DIR</text><text fill="#0F172A" font-family="Helvetica" font-size="14" lengthAdjust="spacing" textLength="152.4961" x="87.7539" y="258.7803">PYTHON_BASIC_REPL</text></g><!--entity SKILL_MD--><g class="entity" data-qualified-name="TmuxSkill.Config.SKILL_MD" data-source-line="14" id="ent0010"><rect fill="#FFFFFF" height="48" rx="4" ry="4" style="stroke:#64748B;stroke-width:0.5;" width="143.7305" x="323.13" y="217"/><text fill="#0F172A" font-family="Helvetica" font-size="14" lengthAdjust="spacing" textLength="61.4756" x="364.2574" y="237.7803">SKILL.md</text><text fill="#0F172A" font-family="Helvetica" font-size="14" lengthAdjust="spacing" textLength="123.7305" x="333.13" y="251.7803">Capability Definition</text></g><!--entity SESSION_MGR--><g class="entity" data-qualified-name="TmuxSkill.Core.SESSION_MGR" data-source-line="17" id="ent0012"><rect fill="#FFFFFF" height="76" rx="4" ry="4" style="stroke:#64748B;stroke-width:0.5;" width="169.6182" x="475.19" y="367"/><text fill="#0F172A" font-family="Helvetica" font-size="14" lengthAdjust="spacing" textLength="108.9512" x="505.5235" y="387.7803">Session Manager</text><text fill="#0F172A" font-family="Helvetica" font-size="14" lengthAdjust="spacing" textLength="134.0664" x="492.9659" y="401.7803">&#8226; Create/Kill Sessions</text><text fill="#0F172A" font-family="Helvetica" font-size="14" lengthAdjust="spacing" textLength="149.6182" x="485.19" y="415.7803">&#8226; List/Discover Sessions</text><text fill="#0F172A" font-family="Helvetica" font-size="14" lengthAdjust="spacing" textLength="107.625" x="506.1866" y="429.7803">&#8226; Socket Isolation</text></g><!--entity INPUT_CTRL--><g class="entity" data-qualified-name="TmuxSkill.Core.INPUT_CTRL" data-source-line="18" id="ent0013"><rect fill="#FFFFFF" height="76" rx="4" ry="4" style="stroke:#64748B;stroke-width:0.5;" width="182.0801" x="250.96" y="367"/><text fill="#0F172A" font-family="Helvetica" font-size="14" lengthAdjust="spacing" textLength="95.7168" x="294.1416" y="387.7803">Input Controller</text><text fill="#0F172A" font-family="Helvetica" font-size="14" lengthAdjust="spacing" textLength="162.0801" x="260.96" y="401.7803">&#8226; Send Keys (literal mode)</text><text fill="#0F172A" font-family="Helvetica" font-size="14" lengthAdjust="spacing" textLength="127.8662" x="278.0669" y="415.7803">&#8226; Control Sequences</text><text fill="#0F172A" font-family="Helvetica" font-size="14" lengthAdjust="spacing" textLength="131.7695" x="276.1153" y="429.7803">&#8226; Safe Input Handling</text></g><!--entity OUTPUT_MON--><g class="entity" data-qualified-name="TmuxSkill.Core.OUTPUT_MON" data-source-line="19" id="ent0014"><rect fill="#FFFFFF" height="76" rx="4" ry="4" style="stroke:#64748B;stroke-width:0.5;" width="136.9492" x="686.53" y="367"/><text fill="#0F172A" font-family="Helvetica" font-size="14" lengthAdjust="spacing" textLength="92.5996" x="708.7048" y="387.7803">Output Monitor</text><text fill="#0F172A" font-family="Helvetica" font-size="14" lengthAdjust="spacing" textLength="100.6318" x="704.6887" y="401.7803">&#8226; Pane Scraping</text><text fill="#0F172A" font-family="Helvetica" font-size="14" lengthAdjust="spacing" textLength="104.501" x="702.7541" y="415.7803">&#8226; Pattern Waiting</text><text fill="#0F172A" font-family="Helvetica" font-size="14" lengthAdjust="spacing" textLength="116.9492" x="696.53" y="429.7803">&#8226; Prompt Detection</text></g><!--entity TARGET--><g class="entity" data-qualified-name="TmuxSkill.Core.TARGET" data-source-line="20" id="ent0015"><rect fill="#FFFFFF" height="62" rx="4" ry="4" style="stroke:#64748B;stroke-width:0.5;" width="161.873" x="47.06" y="374"/><text fill="#0F172A" font-family="Helvetica" font-size="14" lengthAdjust="spacing" textLength="106.627" x="74.683" y="394.7803">Targeting Engine</text><text fill="#0F172A" font-family="Helvetica" font-size="14" lengthAdjust="spacing" textLength="141.873" x="57.06" y="408.7803">&#8226; session:window.pane</text><text fill="#0F172A" font-family="Helvetica" font-size="14" lengthAdjust="spacing" textLength="127.0801" x="64.4565" y="422.7803">&#8226; Multi-pane Support</text></g><!--entity PARALLEL--><g class="entity" data-qualified-name="TmuxSkill.Orchestration.PARALLEL" data-source-line="23" id="ent0017"><rect fill="#FFFFFF" height="62" rx="4" ry="4" style="stroke:#64748B;stroke-width:0.5;" width="190.6455" x="694.68" y="210"/><text fill="#0F172A" font-family="Helvetica" font-size="14" lengthAdjust="spacing" textLength="136.9717" x="721.5169" y="230.7803">Parallel Agent Runner</text><text fill="#0F172A" font-family="Helvetica" font-size="14" lengthAdjust="spacing" textLength="170.6455" x="704.68" y="244.7803">&#8226; Multi-session coordination</text><text fill="#0F172A" font-family="Helvetica" font-size="14" lengthAdjust="spacing" textLength="151.2178" x="714.3939" y="258.7803">&#8226; Independent worktrees</text></g><!--entity HELPERS--><g class="entity" data-qualified-name="TmuxSkill.Orchestration.HELPERS" data-source-line="24" id="ent0018"><rect fill="#FFFFFF" height="62" rx="4" ry="4" style="stroke:#64748B;stroke-width:0.5;" width="129.1699" x="523.42" y="210"/><text fill="#0F172A" font-family="Helvetica" font-size="14" lengthAdjust="spacing" textLength="87.917" x="544.0465" y="230.7803">Helper Scripts</text><text fill="#0F172A" font-family="Helvetica" font-size="14" lengthAdjust="spacing" textLength="109.1699" x="533.42" y="244.7803">&#8226; find-sessions.sh</text><text fill="#0F172A" font-family="Helvetica" font-size="14" lengthAdjust="spacing" textLength="100.5908" x="537.7096" y="258.7803">&#8226; wait-for-text.sh</text></g><!--entity SES1--><g class="entity" data-qualified-name="TmuxServer.SES1" data-source-line="28" id="ent0020"><rect fill="#FFFFFF" height="48" rx="4" ry="4" style="stroke:#64748B;stroke-width:0.5;" width="81.4824" x="105.26" y="578"/><text fill="#0F172A" font-family="Helvetica" font-size="14" lengthAdjust="spacing" textLength="61.4824" x="115.26" y="598.7803">Session 1</text><text fill="#0F172A" font-family="Helvetica" font-size="14" lengthAdjust="spacing" textLength="49.8135" x="121.0945" y="612.7803">Agent A</text></g><!--entity SES2--><g class="entity" data-qualified-name="TmuxServer.SES2" data-source-line="29" id="ent0021"><rect fill="#FFFFFF" height="48" rx="4" ry="4" style="stroke:#64748B;stroke-width:0.5;" width="81.4824" x="228.26" y="578"/><text fill="#0F172A" font-family="Helvetica" font-size="14" lengthAdjust="spacing" textLength="61.4824" x="238.26" y="598.7803">Session 2</text><text fill="#0F172A" font-family="Helvetica" font-size="14" lengthAdjust="spacing" textLength="49.8135" x="244.0945" y="612.7803">Agent B</text></g><!--entity SES3--><g class="entity" data-qualified-name="TmuxServer.SES3" data-source-line="30" id="ent0022"><rect fill="#FFFFFF" height="48" rx="4" ry="4" style="stroke:#64748B;stroke-width:0.5;" width="83.8066" x="105.1" y="721"/><text fill="#0F172A" font-family="Helvetica" font-size="14" lengthAdjust="spacing" textLength="63.8066" x="115.1" y="741.7803">Session N</text><text fill="#0F172A" font-family="Helvetica" font-size="14" lengthAdjust="spacing" textLength="50.5859" x="121.7104" y="755.7803">Agent N</text></g><!--link SKILL_INTF to SKILL_MD--><g class="link" data-entity-1="ent0006" data-entity-2="ent0010" data-link-type="dependency" data-source-line="32" id="lnk23"><path d="M395,74.47 C395,106.94 395,174.26 395,211.64" fill="none" id="SKILL_INTF-to-SKILL_MD" style="stroke:#64748B;stroke-width:1.1;"/><polygon fill="#64748B" points="395,216.64,399,207.64,395,211.64,391,207.64,395,216.64" style="stroke:#64748B;stroke-width:1.1;stroke-linejoin:miter;stroke-miterlimit:10;"/><text fill="#334155" font-family="Helvetica" font-size="12" lengthAdjust="spacing" textLength="66.6914" x="396" y="116.2402">Invokes Skill</text></g><!--link SKILL_MD to SESSION_MGR--><g class="link" data-entity-1="ent0010" data-entity-2="ent0012" data-link-type="dependency" data-source-line="33" id="lnk24"><path d="M418.64,265.21 C445.64,291.72 486.6221,331.9571 518.4921,363.2471" fill="none" id="SKILL_MD-to-SESSION_MGR" style="stroke:#64748B;stroke-width:1.1;"/><polygon fill="#64748B" points="522.06,366.75,518.4402,357.5905,518.4921,363.2471,512.8355,363.299,522.06,366.75" style="stroke:#64748B;stroke-width:1.1;stroke-linejoin:miter;stroke-miterlimit:10;"/></g><!--link SKILL_MD to INPUT_CTRL--><g class="link" data-entity-1="ent0010" data-entity-2="ent0013" data-link-type="dependency" data-source-line="34" id="lnk25"><path d="M387.41,265.21 C378.73,291.72 365.9738,330.7075 355.7438,361.9975" fill="none" id="SKILL_MD-to-INPUT_CTRL" style="stroke:#64748B;stroke-width:1.1;"/><polygon fill="#64748B" points="354.19,366.75,360.7888,359.4386,355.7438,361.9975,353.1848,356.9526,354.19,366.75" style="stroke:#64748B;stroke-width:1.1;stroke-linejoin:miter;stroke-miterlimit:10;"/></g><!--link SKILL_MD to OUTPUT_MON--><g class="link" data-entity-1="ent0010" data-entity-2="ent0014" data-link-type="dependency" data-source-line="35" id="lnk26"><path d="M442.61,265.37 C472.34,279.97 505,296 505,296 C505,296 666,326 666,326 C666,326 685.72,343.2842 708.56,363.3042" fill="none" id="SKILL_MD-to-OUTPUT_MON" style="stroke:#64748B;stroke-width:1.1;"/><polygon fill="#64748B" points="712.32,366.6,708.1886,357.6596,708.56,363.3042,702.9153,363.6756,712.32,366.6" style="stroke:#64748B;stroke-width:1.1;stroke-linejoin:miter;stroke-miterlimit:10;"/></g><!--link SESSION_MGR to TmuxServer--><g class="link" data-entity-1="ent0012" data-entity-2="ent0019" data-link-type="dependency" data-source-line="36" id="lnk27"><path d="M523.28,443.42 C493,474.28 455,513 455,513 C455,513 430.0475,534.3175 404.705,555.9688 C392.0338,566.7944 379.265,577.7034 369.4691,586.073 C367.0201,588.1654 364.7569,590.099 362.7275,591.833 C362.2201,592.2665 361.7274,592.6875 361.25,593.0954 C361.0113,593.2993 360.7765,593.5 360.5456,593.6973 C360.4301,593.7959 364.117,590.6457 364.0035,590.7427" fill="none" id="SESSION_MGR-to-TmuxServer" style="stroke:#64748B;stroke-width:1.1;"/><polygon fill="#64748B" points="360.2021,593.9907,369.643,591.1854,364.0035,590.7427,364.4462,585.1032,360.2021,593.9907" style="stroke:#64748B;stroke-width:1.1;stroke-linejoin:miter;stroke-miterlimit:10;"/><text fill="#334155" font-family="Helvetica" font-size="12" lengthAdjust="spacing" textLength="94.7168" x="469.01" y="509.2402">Creates/Manages</text></g><!--link INPUT_CTRL to TmuxServer--><g class="link" data-entity-1="ent0013" data-entity-2="ent0019" data-link-type="dependency" data-source-line="37" id="lnk28"><path d="M343.9,443.14 C344.615,457.0625 345.4688,473.6931 346.3497,490.8558 C346.7902,499.4371 347.2374,508.1514 347.6775,516.7268 C347.8976,521.0144 348.1159,525.2674 348.3306,529.4515 C348.438,531.5436 348.5445,533.6185 348.6499,535.672 C348.663,535.9286 348.4199,531.1916 348.4331,531.4476" fill="none" id="INPUT_CTRL-to-TmuxServer" style="stroke:#64748B;stroke-width:1.1;"/><polygon fill="#64748B" points="348.6893,536.441,352.2228,527.2478,348.4331,531.4476,344.2333,527.6578,348.6893,536.441" style="stroke:#64748B;stroke-width:1.1;stroke-linejoin:miter;stroke-miterlimit:10;"/><text fill="#334155" font-family="Helvetica" font-size="12" lengthAdjust="spacing" textLength="96.7148" x="348.3" y="509.2402">Sends Keystrokes</text></g><!--link OUTPUT_MON to TmuxServer--><g class="link" data-entity-1="ent0014" data-entity-2="ent0019" data-link-type="dependency" data-source-line="38" id="lnk29"><path d="M715.96,443.28 C692.05,466.12 666,491 666,491 C666,491 588.7225,518.0725 510.8412,545.3563 C471.9006,558.9981 432.8091,572.6928 403.1508,583.0827 C388.3216,588.2776 375.8508,592.6463 366.9363,595.7691 C364.7077,596.5498 362.7014,597.2526 360.936,597.871 C360.7154,597.9483 365.2173,596.3713 365.0042,596.4459" fill="none" id="OUTPUT_MON-to-TmuxServer" style="stroke:#64748B;stroke-width:1.1;"/><polygon fill="#64748B" points="360.2854,598.0989,370.1017,598.8986,365.0042,596.4459,367.4569,591.3485,360.2854,598.0989" style="stroke:#64748B;stroke-width:1.1;stroke-linejoin:miter;stroke-miterlimit:10;"/><text fill="#334155" font-family="Helvetica" font-size="12" lengthAdjust="spacing" textLength="83.3789" x="640.14" y="509.2402">Scrapes Output</text></g><!--link TARGET to TmuxServer--><g class="link" data-entity-1="ent0015" data-entity-2="ent0019" data-link-type="dependency" data-source-line="39" id="lnk30"><path d="M160.08,436.38 C193.49,468.01 241,513 241,513 C241,513 328,521 328,521 C328,521 329.4538,525.845 331.6456,533.1503 C331.9196,534.0635 332.2051,535.0151 332.5008,536.0005 C332.5747,536.2468 331.2123,531.7062 331.2875,531.9567" fill="none" id="TARGET-to-TmuxServer" style="stroke:#64748B;stroke-width:1.1;"/><polygon fill="#64748B" points="332.7244,536.7458,333.9693,526.9759,331.2875,531.9567,326.3067,529.2749,332.7244,536.7458" style="stroke:#64748B;stroke-width:1.1;stroke-linejoin:miter;stroke-miterlimit:10;"/><text fill="#334155" font-family="Helvetica" font-size="12" lengthAdjust="spacing" textLength="94.0547" x="242" y="509.2402">Addresses Panes</text></g><!--link PARALLEL to SESSION_MGR--><g class="link" data-entity-1="ent0017" data-entity-2="ent0012" data-link-type="dependency" data-source-line="40" id="lnk31"><path d="M745.23,272.33 C709.71,296.39 666,326 666,326 C666,326 642.0568,343.6161 614.8568,363.6361" fill="none" id="PARALLEL-to-SESSION_MGR" style="stroke:#64748B;stroke-width:1.1;"/><polygon fill="#64748B" points="610.83,366.6,620.4494,364.4865,614.8568,363.6361,615.7072,358.0436,610.83,366.6" style="stroke:#64748B;stroke-width:1.1;stroke-linejoin:miter;stroke-miterlimit:10;"/></g><!--link PARALLEL to INPUT_CTRL--><g class="link" data-entity-1="ent0017" data-entity-2="ent0013" data-link-type="dependency" data-source-line="41" id="lnk32"><path d="M724.54,272.47 C698.23,284.72 674,296 674,296 C674,296 454,326 454,326 C454,326 428.5532,343.7228 399.8032,363.7428" fill="none" id="PARALLEL-to-INPUT_CTRL" style="stroke:#64748B;stroke-width:1.1;"/><polygon fill="#64748B" points="395.7,366.6,405.3715,364.7395,399.8032,363.7428,400.7999,358.1744,395.7,366.6" style="stroke:#64748B;stroke-width:1.1;stroke-linejoin:miter;stroke-miterlimit:10;"/></g><!--link PARALLEL to OUTPUT_MON--><g class="link" data-entity-1="ent0017" data-entity-2="ent0014" data-link-type="dependency" data-source-line="42" id="lnk33"><path d="M783.42,272.47 C777.65,299.14 770.3155,333.0927 764.1455,361.6627" fill="none" id="PARALLEL-to-OUTPUT_MON" style="stroke:#64748B;stroke-width:1.1;"/><polygon fill="#64748B" points="763.09,366.55,768.8997,358.5972,764.1455,361.6627,761.08,356.9084,763.09,366.55" style="stroke:#64748B;stroke-width:1.1;stroke-linejoin:miter;stroke-miterlimit:10;"/></g><!--link HELPERS to OUTPUT_MON--><g class="link" data-entity-1="ent0018" data-entity-2="ent0014" data-link-type="dependency" data-source-line="43" id="lnk34"><path d="M624.62,272.27 C643.66,288.01 663,304 663,304 C663,304 691.2051,334.65 717.3551,363.08" fill="none" id="HELPERS-to-OUTPUT_MON" style="stroke:#64748B;stroke-width:1.1;"/><polygon fill="#64748B" points="720.74,366.76,717.5912,357.4281,717.3551,363.08,711.7032,362.8439,720.74,366.76" style="stroke:#64748B;stroke-width:1.1;stroke-linejoin:miter;stroke-miterlimit:10;"/></g><!--link HELPERS to SESSION_MGR--><g class="link" data-entity-1="ent0018" data-entity-2="ent0012" data-link-type="dependency" data-source-line="44" id="lnk35"><path d="M582.73,272.47 C578.12,299.14 572.2619,333.0531 567.3219,361.6231" fill="none" id="HELPERS-to-SESSION_MGR" style="stroke:#64748B;stroke-width:1.1;"/><polygon fill="#64748B" points="566.47,366.55,571.9449,358.3631,567.3219,361.6231,564.0619,357.0001,566.47,366.55" style="stroke:#64748B;stroke-width:1.1;stroke-linejoin:miter;stroke-miterlimit:10;"/></g><!--link ENV to SESSION_MGR--><g class="link" data-entity-1="ent0009" data-entity-2="ent0012" data-link-type="dependency" data-source-line="45" id="lnk36"><path d="M241.87,272.47 C273.17,284.72 302,296 302,296 C302,296 393,318 393,318 C393,318 454,326 454,326 C454,326 477.9432,343.6161 505.1432,363.6361" fill="none" id="ENV-to-SESSION_MGR" style="stroke:#64748B;stroke-width:1.1;stroke-dasharray:7,7;"/><polygon fill="#64748B" points="509.17,366.6,504.2928,358.0436,505.1432,363.6361,499.5506,364.4865,509.17,366.6" style="stroke:#64748B;stroke-width:1.1;stroke-linejoin:miter;stroke-miterlimit:10;"/><text fill="#334155" font-family="Helvetica" font-size="12" lengthAdjust="spacing" textLength="58.0313" x="394" y="314.2402">Configures</text></g><!--link ENV to INPUT_CTRL--><g class="link" data-entity-1="ent0009" data-entity-2="ent0013" data-link-type="dependency" data-source-line="46" id="lnk37"><path d="M173.62,272.47 C180.3,293.62 188,318 188,318 C188,318 230,326 230,326 C230,326 255.4468,343.7228 284.1968,363.7428" fill="none" id="ENV-to-INPUT_CTRL" style="stroke:#64748B;stroke-width:1.1;stroke-dasharray:7,7;"/><polygon fill="#64748B" points="288.3,366.6,283.2001,358.1744,284.1968,363.7428,278.6285,364.7395,288.3,366.6" style="stroke:#64748B;stroke-width:1.1;stroke-linejoin:miter;stroke-miterlimit:10;"/><text fill="#334155" font-family="Helvetica" font-size="12" lengthAdjust="spacing" textLength="58.0313" x="189" y="314.2402">Configures</text></g><!--link TmuxServer to AGENT_CLIS--><g class="link" data-entity-1="ent0019" data-entity-2="ent0002" data-link-type="dependency" data-source-line="47" id="lnk38"><path d="M360.3094,606.0369 C360.4801,606.0992 360.6531,606.1624 360.8285,606.2264 C361.5301,606.4824 362.2693,606.7521 363.0446,607.035 C369.2468,609.2981 377.7577,612.4037 387.7911,616.0648 C407.8578,623.3872 434.0144,632.9319 459.9713,642.4038 C511.885,661.3475 563,680 563,680 C563,680 593.5783,699.5753 622.1183,717.8353" fill="none" id="TmuxServer-to-AGENT_CLIS" style="stroke:#64748B;stroke-width:1.1;"/><polygon fill="#64748B" points="626.33,720.53,620.9046,712.3102,622.1183,717.8353,616.5931,719.049,626.33,720.53" style="stroke:#64748B;stroke-width:1.1;stroke-linejoin:miter;stroke-miterlimit:10;"/><text fill="#334155" font-family="Helvetica" font-size="12" lengthAdjust="spacing" textLength="30.6738" x="542.06" y="668.2402">Hosts</text></g><!--link TmuxServer to SHELL--><g class="link" data-entity-1="ent0019" data-entity-2="ent0003" data-link-type="dependency" data-source-line="48" id="lnk39"><path d="M360.1996,612.3961 C360.385,612.6086 360.5731,612.8243 360.7639,613.043 C361.1454,613.4804 361.5377,613.9301 361.9402,614.3915 C362.7454,615.3145 363.5918,616.2849 364.4766,617.2992 C371.555,625.4141 381.0913,636.3469 391.61,648.4063 C412.6475,672.525 434.3285,697.3819 451.4235,716.9819" fill="none" id="TmuxServer-to-SHELL" style="stroke:#64748B;stroke-width:1.1;"/><polygon fill="#64748B" points="454.71,720.75,451.8087,711.3382,451.4235,716.9819,445.7798,716.5966,454.71,720.75" style="stroke:#64748B;stroke-width:1.1;stroke-linejoin:miter;stroke-miterlimit:10;"/><text fill="#334155" font-family="Helvetica" font-size="12" lengthAdjust="spacing" textLength="40.6875" x="410.81" y="668.2402">Runs in</text></g><!--link SESSION_MGR to FS--><g class="link" data-entity-1="ent0012" data-entity-2="ent0004" data-link-type="dependency" data-source-line="49" id="lnk40"><path d="M595.25,443.46 C661.22,513.59 798.1737,659.1585 852.4837,716.8785" fill="none" id="SESSION_MGR-to-FS" style="stroke:#64748B;stroke-width:1.1;"/><polygon fill="#64748B" points="855.91,720.52,852.6558,711.2243,852.4837,716.8785,846.8294,716.7064,855.91,720.52" style="stroke:#64748B;stroke-width:1.1;stroke-linejoin:miter;stroke-miterlimit:10;"/><text fill="#334155" font-family="Helvetica" font-size="12" lengthAdjust="spacing" textLength="82.0488" x="767.06" y="605.2402">Socket Storage</text></g><!--link PARALLEL to FS--><g class="link" data-entity-1="ent0017" data-entity-2="ent0004" data-link-type="dependency" data-source-line="50" id="lnk41"><path d="M808.41,272.33 C823.02,296.39 841,326 841,326 C841,326 860,521 860,521 C860,521 871.0879,658.3162 875.7079,715.5762" fill="none" id="PARALLEL-to-FS" style="stroke:#64748B;stroke-width:1.1;"/><polygon fill="#64748B" points="876.11,720.56,879.3732,711.2675,875.7079,715.5762,871.3991,711.9108,876.11,720.56" style="stroke:#64748B;stroke-width:1.1;stroke-linejoin:miter;stroke-miterlimit:10;"/><text fill="#334155" font-family="Helvetica" font-size="12" lengthAdjust="spacing" textLength="85.3477" x="860.21" y="509.2402">Uses Worktrees</text></g><?plantuml-src VLNBRjiw4DthAzYk4g2sqNQNHG55Lc8XicnOIX-00OEHnZPXYLH9Aey61Vej_RJx9NSeIZPr7Tn5Z63cpFiSwXtZUTaKG6efjg0K4voM8xs72iQigKfFYvfeGHw4rg8Y1PEGQmHvDSqFT0VaVVYiGM8GIL-KXagz9rIHe_7LCm6Kxqg41g9WV4Vy7N2jrlmYAAafZMRuqFu-NxRH_csOP9iWZb8tEjr3MPAGFp8fU8KfCCC3LVl9B_pRChMtmUaiZ6CtxeRXhsqE8swP9j-4F6W9e3wGLEG7q6JAf8s-IRtVfzaIoWLEtaMtWDuq62mzC6mjuZZqbkPW-xYBudWJ9TcDcv7Ry8ao4MgYg-QvHMVuZytoUW87Wc_Phf7KR9p4z0La2xRsOGlENiXNAXbzA05tdFZ9udgHRRBv_VTDkWZkmcmpZLPhlloHpHR9vjfFes2p2fUnlLloTJ2NcM5S5MiUq9e-i9Bf5pA5BUFCjEJCEP-wKmP2ubdx40QgQnkjmxrPnf4vvHWdr_oVFtz9885gcDoPPNG0PJqnKteoPIeNZo3_u-iE6IbHqbDlOPf6EENyTkMMZNZTQBD5BKLPzdLJu0MvWnT5Bh1faCZU2ZbvsNLbqOZwsG3FeIzBjq1ilXdbHOdyRYj7oV8UAPoj1bHSDDeWvmBt9xgoIygHdhcaDSRs9ctaGxvHNDxHA4LL8rD1MmMsPHRtcQapNoHkcOpA7PX8LCkESR09bDtNrHFZXNWQrxHtp9jIir7Tzj7KjP3QKj9VtOQPUzQ5pFUWz1aVX_R1XPSKzrX2QKLFLWtd_RvjsQuhaWiXyNLeKrX_n0keyIOcxgbNR5jlwQ_yE0u7gvr1MHjIv9BLkZiEyhJe2wYnsblh4svrj1LofE5PexLDYO_6CbmPyJlp6dNYmIMoxK9TddJQMjvcyiSrjvFwFG4_lWNxrCEkUzYdjs193qjws6Vix_IoaD7eor60v0fNzYWEW43padX7Hujof31mE4mTs1rgER6jord2LITNDR4QLjuftpdMI4or6aCjOQFUgSWROAC97CQAnhDqF8VvHI5nNGWqIb9UJuwpgGSEP-g1tPcweyJ_cTtq-7IIyNXWCzlfdd1ih0Su2nhudQbCxjD7464peVGPeltIeHD5fGZZPsUwCP7TkvZYUuFd6GxR0kxDwevVn7y1?></g></svg>