<svg xmlns="http://www.w3.org/2000/svg" xmlns:xlink="http://www.w3.org/1999/xlink" contentStyleType="text/css" data-diagram-type="DESCRIPTION" height="1068px" preserveAspectRatio="none" style="width:799px;height:1068px;" version="1.1" viewBox="0 0 799 1068" width="799px" zoomAndPan="magnify"><?plantuml 1.2026.5?><defs><style><![CDATA[
@media (prefers-color-scheme: dark) {
  text { fill: #e5e7eb !important; }
  path, line, rect, circle, ellipse, polygon, polyline { stroke: #cbd5e1 !important; }
  .entity rect, .participant rect, .participant path, .sequenceLine rect, .class rect, .component rect, .component path, .note rect { fill: #111827 !important; }
  .cluster path { fill: none !important; }
  polygon { fill: #cbd5e1 !important; }
}
]]></style></defs><g><!--cluster External--><g class="cluster" data-qualified-name="External" data-source-line="13" id="ent0001"><path d="M374.5,966.39 L485.668,966.39 A3.75,3.75 0 0 1 488.168,968.89 L495.168,988.8783 L515.5,988.8783 A2.5,2.5 0 0 1 518,991.3783 L518,1051.38 A2.5,2.5 0 0 1 515.5,1053.88 L374.5,1053.88 A2.5,2.5 0 0 1 372,1051.38 L372,968.89 A2.5,2.5 0 0 1 374.5,966.39" fill="none" style="stroke:#64748B;stroke-width:1.5;"/><line style="stroke:#64748B;stroke-width:1.5;" x1="372" x2="495.168" y1="988.8783" y2="988.8783"/><text fill="#000000" font-family="sans-serif" font-size="14" font-weight="700" lengthAdjust="spacing" textLength="110.168" x="376" y="981.9252">External Actors</text></g><!--cluster CronSkill--><g class="cluster" data-qualified-name="CronSkill" data-source-line="16" id="ent0003"><path d="M8.5,6 L155.085,6 A3.75,3.75 0 0 1 157.585,8.5 L164.585,28.4883 L634.5,28.4883 A2.5,2.5 0 0 1 637,30.9883 L637,778.4 A2.5,2.5 0 0 1 634.5,780.9 L8.5,780.9 A2.5,2.5 0 0 1 6,778.4 L6,8.5 A2.5,2.5 0 0 1 8.5,6" fill="none" style="stroke:#64748B;stroke-width:1.5;"/><line style="stroke:#64748B;stroke-width:1.5;" x1="6" x2="164.585" y1="28.4883" y2="28.4883"/><text fill="#000000" font-family="sans-serif" font-size="14" font-weight="700" lengthAdjust="spacing" textLength="145.585" x="10" y="21.5352">nanobot/skills/cron</text></g><!--cluster Interface--><g class="cluster" data-qualified-name="CronSkill.Interface" data-source-line="17" id="ent0004"><path d="M209.5,57 L325.002,57 A3.75,3.75 0 0 1 327.502,59.5 L334.502,79.4883 L602.5,79.4883 A2.5,2.5 0 0 1 605,81.9883 L605,157.99 A2.5,2.5 0 0 1 602.5,160.49 L209.5,160.49 A2.5,2.5 0 0 1 207,157.99 L207,59.5 A2.5,2.5 0 0 1 209.5,57" fill="none" style="stroke:#64748B;stroke-width:1.5;"/><line style="stroke:#64748B;stroke-width:1.5;" x1="207" x2="334.502" y1="79.4883" y2="79.4883"/><text fill="#000000" font-family="sans-serif" font-size="14" font-weight="700" lengthAdjust="spacing" textLength="114.502" x="211" y="72.5352">Action Interface</text></g><!--cluster Parser--><g class="cluster" data-qualified-name="CronSkill.Parser" data-source-line="22" id="ent0008"><path d="M40.5,209.49 L211.4277,209.49 A3.75,3.75 0 0 1 213.9277,211.99 L220.9277,231.9783 L552.5,231.9783 A2.5,2.5 0 0 1 555,234.4783 L555,326.96 A2.5,2.5 0 0 1 552.5,329.46 L40.5,329.46 A2.5,2.5 0 0 1 38,326.96 L38,211.99 A2.5,2.5 0 0 1 40.5,209.49" fill="none" style="stroke:#64748B;stroke-width:1.5;"/><line style="stroke:#64748B;stroke-width:1.5;" x1="38" x2="220.9277" y1="231.9783" y2="231.9783"/><text fill="#000000" font-family="sans-serif" font-size="14" font-weight="700" lengthAdjust="spacing" textLength="169.9277" x="42" y="225.0252">Time Expression Parser</text></g><!--cluster Scheduler--><g class="cluster" data-qualified-name="CronSkill.Scheduler" data-source-line="27" id="ent0012"><path d="M375.5,370.46 L508.7549,370.46 A3.75,3.75 0 0 1 511.2549,372.96 L518.2549,392.9483 L546.5,392.9483 A2.5,2.5 0 0 1 549,395.4483 L549,569.43 A2.5,2.5 0 0 1 546.5,571.93 L375.5,571.93 A2.5,2.5 0 0 1 373,569.43 L373,372.96 A2.5,2.5 0 0 1 375.5,370.46" fill="none" style="stroke:#64748B;stroke-width:1.5;"/><line style="stroke:#64748B;stroke-width:1.5;" x1="373" x2="518.2549" y1="392.9483" y2="392.9483"/><text fill="#000000" font-family="sans-serif" font-size="14" font-weight="700" lengthAdjust="spacing" textLength="132.2549" x="377" y="385.9952">Scheduling Engine</text></g><!--cluster Execution--><g class="cluster" data-qualified-name="CronSkill.Execution" data-source-line="31" id="ent0015"><path d="M195.5,628.93 L318.0498,628.93 A3.75,3.75 0 0 1 320.5498,631.43 L327.5498,651.4183 L552.5,651.4183 A2.5,2.5 0 0 1 555,653.9183 L555,746.4 A2.5,2.5 0 0 1 552.5,748.9 L195.5,748.9 A2.5,2.5 0 0 1 193,746.4 L193,631.43 A2.5,2.5 0 0 1 195.5,628.93" fill="none" style="stroke:#64748B;stroke-width:1.5;"/><line style="stroke:#64748B;stroke-width:1.5;" x1="193" x2="327.5498" y1="651.4183" y2="651.4183"/><text fill="#000000" font-family="sans-serif" font-size="14" font-weight="700" lengthAdjust="spacing" textLength="121.5498" x="197" y="644.4652">Execution Modes</text></g><!--cluster Output--><g class="cluster" data-qualified-name="Output" data-source-line="36" id="ent0018"><path d="M210.5,829.9 L283.9814,829.9 A3.75,3.75 0 0 1 286.4814,832.4 L293.4814,852.3883 L511.5,852.3883 A2.5,2.5 0 0 1 514,854.8883 L514,914.89 A2.5,2.5 0 0 1 511.5,917.39 L210.5,917.39 A2.5,2.5 0 0 1 208,914.89 L208,832.4 A2.5,2.5 0 0 1 210.5,829.9" fill="none" style="stroke:#64748B;stroke-width:1.5;"/><line style="stroke:#64748B;stroke-width:1.5;" x1="208" x2="293.4814" y1="852.3883" y2="852.3883"/><text fill="#000000" font-family="sans-serif" font-size="14" font-weight="700" lengthAdjust="spacing" textLength="72.4814" x="212" y="845.4352">Outcomes</text></g><!--entity Agent--><g class="entity" data-qualified-name="External.Agent" data-source-line="14" id="ent0002"><rect fill="#F8FAFC" height="36.4883" rx="2.5" ry="2.5" style="stroke:#4B5563;stroke-width:0.5;" width="114.4795" x="387.76" y="1001.39"/><text fill="#111827" font-family="sans-serif" font-size="14" lengthAdjust="spacing" textLength="94.4795" x="397.76" y="1024.9252">AI Agent Core</text></g><!--entity Add--><g class="entity" data-qualified-name="CronSkill.Interface.Add" data-source-line="18" id="ent0005"><rect fill="#F8FAFC" height="36.4883" rx="2.5" ry="2.5" style="stroke:#4B5563;stroke-width:0.5;" width="76.8271" x="230.59" y="100"/><text fill="#111827" font-family="sans-serif" font-size="14" lengthAdjust="spacing" textLength="56.8271" x="240.59" y="123.5352">ADD Job</text></g><!--entity List--><g class="entity" data-qualified-name="CronSkill.Interface.List" data-source-line="19" id="ent0006"><rect fill="#F8FAFC" height="36.4883" rx="2.5" ry="2.5" style="stroke:#4B5563;stroke-width:0.5;" width="81.2227" x="342.39" y="100"/><text fill="#111827" font-family="sans-serif" font-size="14" lengthAdjust="spacing" textLength="61.2227" x="352.39" y="123.5352">LIST Jobs</text></g><!--entity Remove--><g class="entity" data-qualified-name="CronSkill.Interface.Remove" data-source-line="20" id="ent0007"><rect fill="#F8FAFC" height="36.4883" rx="2.5" ry="2.5" style="stroke:#4B5563;stroke-width:0.5;" width="102.3115" x="458.84" y="100"/><text fill="#111827" font-family="sans-serif" font-size="14" lengthAdjust="spacing" textLength="82.3115" x="468.84" y="123.5352">REMOVE Job</text></g><!--entity NLP--><g class="entity" data-qualified-name="CronSkill.Parser.NLP" data-source-line="23" id="ent0009"><rect fill="#F8FAFC" height="52.9766" rx="2.5" ry="2.5" style="stroke:#4B5563;stroke-width:0.5;" width="139.499" x="62.25" y="252.49"/><text fill="#111827" font-family="sans-serif" font-size="14" lengthAdjust="spacing" textLength="119.499" x="72.25" y="276.0252">Natural Language</text><text fill="#111827" font-family="sans-serif" font-size="14" lengthAdjust="spacing" textLength="104.7129" x="79.6431" y="292.5134">Time Converter</text></g><!--entity ISO--><g class="entity" data-qualified-name="CronSkill.Parser.ISO" data-source-line="24" id="ent0010"><rect fill="#F8FAFC" height="52.9766" rx="2.5" ry="2.5" style="stroke:#4B5563;stroke-width:0.5;" width="108.2861" x="236.86" y="252.49"/><text fill="#111827" font-family="sans-serif" font-size="14" lengthAdjust="spacing" textLength="88.2861" x="246.86" y="276.0252">ISO Datetime</text><text fill="#111827" font-family="sans-serif" font-size="14" lengthAdjust="spacing" textLength="65.6387" x="258.1837" y="292.5134">Processor</text></g><!--entity CronExpr--><g class="entity" data-qualified-name="CronSkill.Parser.CronExpr" data-source-line="25" id="ent0011"><rect fill="#F8FAFC" height="52.9766" rx="2.5" ry="2.5" style="stroke:#4B5563;stroke-width:0.5;" width="131.2549" x="380.37" y="252.49"/><text fill="#111827" font-family="sans-serif" font-size="14" lengthAdjust="spacing" textLength="111.2549" x="390.37" y="276.0252">Cron Expression</text><text fill="#111827" font-family="sans-serif" font-size="14" lengthAdjust="spacing" textLength="61.0859" x="415.4545" y="292.5134">Validator</text></g><!--entity TZ--><g class="entity" data-qualified-name="CronSkill.Scheduler.TZ" data-source-line="28" id="ent0013"><rect fill="#F8FAFC" height="52.9766" rx="2.5" ry="2.5" style="stroke:#4B5563;stroke-width:0.5;" width="144.4072" x="388.8" y="405.46"/><text fill="#111827" font-family="sans-serif" font-size="14" lengthAdjust="spacing" textLength="124.4072" x="398.8" y="428.9952">Timezone Handler</text><text fill="#111827" font-family="sans-serif" font-size="14" lengthAdjust="spacing" textLength="100.6455" x="410.6809" y="445.4834">(IANA Support)</text></g><!--entity JobQueue--><g class="entity" data-qualified-name="CronSkill.Scheduler.JobQueue" data-source-line="29" id="ent0014"><rect fill="#F8FAFC" height="36.4883" rx="2.5" ry="2.5" style="stroke:#4B5563;stroke-width:0.5;" width="101.04" x="431.48" y="519.44"/><text fill="#111827" font-family="sans-serif" font-size="14" lengthAdjust="spacing" textLength="81.04" x="441.48" y="542.9752">Job Registry</text></g><!--entity Reminder--><g class="entity" data-qualified-name="CronSkill.Execution.Reminder" data-source-line="32" id="ent0016"><rect fill="#F8FAFC" height="52.9766" rx="2.5" ry="2.5" style="stroke:#4B5563;stroke-width:0.5;" width="126.4971" x="216.75" y="671.93"/><text fill="#111827" font-family="sans-serif" font-size="14" lengthAdjust="spacing" textLength="106.4971" x="226.75" y="695.4652">Reminder Mode</text><text fill="#111827" font-family="sans-serif" font-size="14" lengthAdjust="spacing" textLength="84.5879" x="237.7046" y="711.9534">(Notify User)</text></g><!--entity Task--><g class="entity" data-qualified-name="CronSkill.Execution.Task" data-source-line="33" id="ent0017"><rect fill="#F8FAFC" height="52.9766" rx="2.5" ry="2.5" style="stroke:#4B5563;stroke-width:0.5;" width="133.6543" x="378.17" y="671.93"/><text fill="#111827" font-family="sans-serif" font-size="14" lengthAdjust="spacing" textLength="73.6025" x="408.1959" y="695.4652">Task Mode</text><text fill="#111827" font-family="sans-serif" font-size="14" lengthAdjust="spacing" textLength="113.6543" x="388.17" y="711.9534">(Agent Executes)</text></g><!--entity Notify--><g class="entity" data-qualified-name="Output.Notify" data-source-line="37" id="ent0019"><rect fill="#F8FAFC" height="36.4883" rx="2.5" ry="2.5" style="stroke:#4B5563;stroke-width:0.5;" width="133.6885" x="224.16" y="864.9"/><text fill="#111827" font-family="sans-serif" font-size="14" lengthAdjust="spacing" textLength="113.6885" x="234.16" y="888.4352">User Notification</text></g><!--entity ActionResult--><g class="entity" data-qualified-name="Output.ActionResult" data-source-line="38" id="ent0020"><rect fill="#F8FAFC" height="36.4883" rx="2.5" ry="2.5" style="stroke:#4B5563;stroke-width:0.5;" width="105.2305" x="392.38" y="864.9"/><text fill="#111827" font-family="sans-serif" font-size="14" lengthAdjust="spacing" textLength="85.2305" x="402.38" y="888.4352">Task Results</text></g><!--entity User--><g class="entity" data-qualified-name="User" data-source-line="40" id="ent0021"><rect fill="#F8FAFC" height="36.4883" rx="2.5" ry="2.5" style="stroke:#4B5563;stroke-width:0.5;" width="50.3652" x="103.82" y="864.9"/><text fill="#111827" font-family="sans-serif" font-size="14" lengthAdjust="spacing" textLength="30.3652" x="113.82" y="888.4352">User</text></g><!--link User to Agent--><g class="link" data-entity-1="ent0021" data-entity-2="ent0002" data-link-type="dependency" data-source-line="41" id="lnk22"><path d="M154.63,898.41 C169.92,906.7 189.84,917.11 208,925.39 C271.76,954.48 342.7253,981.5695 391.1053,999.2995" fill="none" id="User-to-Agent" style="stroke:#4B5563;stroke-width:1;"/><polygon fill="#4B5563" points="395.8,1001.02,388.726,994.1674,391.1053,999.2995,385.9732,1001.6789,395.8,1001.02" style="stroke:#4B5563;stroke-width:1;stroke-linejoin:miter;stroke-miterlimit:10;"/><text fill="#000000" font-family="sans-serif" font-size="13" lengthAdjust="spacing" textLength="107.8784" x="260.14" y="946.9584">Schedule request</text></g><!--link Agent to Interface--><g class="link" data-entity-1="ent0002" data-entity-2="ent0004" data-link-type="dependency" data-source-line="42" id="lnk23"><path d="M502.49,1010.37 C570.33,997 674,963.57 674,884.15 C674,277.97 674,277.97 674,277.97 C674,239.38 655.3475,200.325 636.4038,170.6113 C626.9319,155.7544 617.3872,143.2328 610.0648,134.2723 C608.2343,132.0322 609.7901,133.8165 608.2732,132.0406" fill="none" id="Agent-to-Interface" style="stroke:#4B5563;stroke-width:1;"/><polygon fill="#4B5563" points="605.0256,128.2389,607.8298,137.6801,608.2732,132.0406,613.9126,132.484,605.0256,128.2389" style="stroke:#4B5563;stroke-width:1;stroke-linejoin:miter;stroke-miterlimit:10;"/><text fill="#000000" font-family="sans-serif" font-size="13" lengthAdjust="spacing" textLength="108.0815" x="675" y="542.7484">Action Parameter</text></g><!--link Add to Parser--><g class="link" data-entity-1="ent0005" data-entity-2="ent0008" data-link-type="dependency" data-source-line="43" id="lnk24"><path d="M280.75,136.8 C290.79,150.2 306.51,167.78 325,176.49 C365.96,195.77 493.86,163.75 528,193.49 C531.5713,196.6 534.5513,200.2238 537.0314,204.1877 C537.6515,205.1787 538.2403,206.191 538.7993,207.2218 C539.0788,207.7372 539.3509,208.2573 539.6156,208.7816 C539.6818,208.9127 537.5257,227.0531 537.591,227.1847" fill="none" id="Add-to-Parser" style="stroke:#4B5563;stroke-width:1;"/><polygon fill="#4B5563" points="539.8129,231.6639,539.3969,221.8239,537.591,227.1847,532.2301,225.3788,539.8129,231.6639" style="stroke:#4B5563;stroke-width:1;stroke-linejoin:miter;stroke-miterlimit:10;"/></g><!--link List to JobQueue--><g class="link" data-entity-1="ent0006" data-entity-2="ent0014" data-link-type="dependency" data-source-line="44" id="lnk25"><path d="M395.35,136.73 C405.85,150.08 422.18,167.64 441,176.49 C465.77,188.13 545.79,172.2 563,193.49 C600.05,239.32 574.72,404.49 551,458.44 C540.36,482.64 523.1204,501.3384 507.0904,515.8184" fill="none" id="List-to-JobQueue" style="stroke:#4B5563;stroke-width:1;"/><polygon fill="#4B5563" points="503.38,519.17,512.7399,516.1054,507.0904,515.8184,507.3774,510.1688,503.38,519.17" style="stroke:#4B5563;stroke-width:1;stroke-linejoin:miter;stroke-miterlimit:10;"/></g><!--link Remove to JobQueue--><g class="link" data-entity-1="ent0007" data-entity-2="ent0014" data-link-type="dependency" data-source-line="45" id="lnk26"><path d="M522.85,136.87 C532.98,149.58 548.16,166.24 565,176.49 C575.69,182.99 584.51,174.46 592,184.49 C632.54,238.79 629.28,432.85 592,489.44 C578.74,509.57 559.6979,519.7193 537.5979,526.3693" fill="none" id="Remove-to-JobQueue" style="stroke:#4B5563;stroke-width:1;"/><polygon fill="#4B5563" points="532.81,527.81,542.5809,529.0471,537.5979,526.3693,540.2757,521.3864,532.81,527.81" style="stroke:#4B5563;stroke-width:1;stroke-linejoin:miter;stroke-miterlimit:10;"/></g><!--link NLP to TZ--><g class="link" data-entity-1="ent0009" data-entity-2="ent0013" data-link-type="dependency" data-source-line="46" id="lnk27"><path d="M161.46,305.73 C177.62,318.92 198.51,334.47 219,345.46 C273.09,374.48 334.2359,395.5999 383.6259,410.2299" fill="none" id="NLP-to-TZ" style="stroke:#4B5563;stroke-width:1;"/><polygon fill="#4B5563" points="388.42,411.65,380.9267,405.2586,383.6259,410.2299,378.6546,412.9291,388.42,411.65" style="stroke:#4B5563;stroke-width:1;stroke-linejoin:miter;stroke-miterlimit:10;"/></g><!--link ISO to TZ--><g class="link" data-entity-1="ent0010" data-entity-2="ent0013" data-link-type="dependency" data-source-line="47" id="lnk28"><path d="M319.26,305.93 C332.49,318.01 348.49,332.54 363,345.46 C385.76,365.74 407.9916,385.1253 427.4916,402.0253" fill="none" id="ISO-to-TZ" style="stroke:#4B5563;stroke-width:1;"/><polygon fill="#4B5563" points="431.27,405.3,427.0885,396.3829,427.4916,402.0253,421.8491,402.4284,431.27,405.3" style="stroke:#4B5563;stroke-width:1;stroke-linejoin:miter;stroke-miterlimit:10;"/></g><!--link CronExpr to TZ--><g class="link" data-entity-1="ent0011" data-entity-2="ent0013" data-link-type="dependency" data-source-line="48" id="lnk29"><path d="M448.58,305.93 C451.33,333.67 455.186,372.4045 457.936,400.1045" fill="none" id="CronExpr-to-TZ" style="stroke:#4B5563;stroke-width:1;"/><polygon fill="#4B5563" points="458.43,405.08,461.5213,395.7289,457.936,400.1045,453.5604,396.5192,458.43,405.08" style="stroke:#4B5563;stroke-width:1;stroke-linejoin:miter;stroke-miterlimit:10;"/></g><!--link TZ to JobQueue--><g class="link" data-entity-1="ent0013" data-entity-2="ent0014" data-link-type="dependency" data-source-line="49" id="lnk30"><path d="M466.25,458.86 C470.06,477.7 474.1263,497.7997 477.4763,514.3197" fill="none" id="TZ-to-JobQueue" style="stroke:#4B5563;stroke-width:1;"/><polygon fill="#4B5563" points="478.47,519.22,480.6016,509.6046,477.4763,514.3197,472.7611,511.1945,478.47,519.22" style="stroke:#4B5563;stroke-width:1;stroke-linejoin:miter;stroke-miterlimit:10;"/></g><!--link JobQueue to Execution--><g class="link" data-entity-1="ent0014" data-entity-2="ent0015" data-link-type="dependency" data-source-line="50" id="lnk31"><path d="M493.26,556.17 C506.08,576.18 525.56,606.96 528,612.93 C529.7625,617.2438 531.3767,621.7516 532.8527,626.3432 C533.0372,626.9171 533.2196,627.4924 533.3998,628.0688 C533.4448,628.2128 532.007,646.0702 532.0518,646.2144" fill="none" id="JobQueue-to-Execution" style="stroke:#4B5563;stroke-width:1;"/><polygon fill="#4B5563" points="533.5345,650.9895,534.6857,641.2081,532.0518,646.2144,527.0455,643.5805,533.5345,650.9895" style="stroke:#4B5563;stroke-width:1;stroke-linejoin:miter;stroke-miterlimit:10;"/><text fill="#000000" font-family="sans-serif" font-size="13" lengthAdjust="spacing" textLength="122.186" x="524.6" y="601.4984">Trigger at schedule</text></g><!--link Reminder to Notify--><g class="link" data-entity-1="ent0016" data-entity-2="ent0019" data-link-type="dependency" data-source-line="51" id="lnk32"><path d="M281.55,725.21 C283.82,762.89 287.6785,827.0191 289.6385,859.4691" fill="none" id="Reminder-to-Notify" style="stroke:#4B5563;stroke-width:1;"/><polygon fill="#4B5563" points="289.94,864.46,293.3901,855.2352,289.6385,859.4691,285.4047,855.7175,289.94,864.46" style="stroke:#4B5563;stroke-width:1;stroke-linejoin:miter;stroke-miterlimit:10;"/></g><!--link Task to ActionResult--><g class="link" data-entity-1="ent0017" data-entity-2="ent0020" data-link-type="dependency" data-source-line="52" id="lnk33"><path d="M445,725.21 C445,762.89 445,827.01 445,859.46" fill="none" id="Task-to-ActionResult" style="stroke:#4B5563;stroke-width:1;"/><polygon fill="#4B5563" points="445,864.46,449,855.46,445,859.46,441,855.46,445,864.46" style="stroke:#4B5563;stroke-width:1;stroke-linejoin:miter;stroke-miterlimit:10;"/><text fill="#000000" font-family="sans-serif" font-size="13" lengthAdjust="spacing" textLength="105.2632" x="446" y="810.4684">Execute &amp; return</text></g><!--link ActionResult to Agent--><g class="link" data-entity-1="ent0020" data-entity-2="ent0002" data-link-type="dependency" data-source-line="53" id="lnk34"><path d="M445,901.73 C445,927.5 445,970.27 445,996.05" fill="none" id="ActionResult-to-Agent" style="stroke:#4B5563;stroke-width:1;"/><polygon fill="#4B5563" points="445,1001.05,449,992.05,445,996.05,441,992.05,445,1001.05" style="stroke:#4B5563;stroke-width:1;stroke-linejoin:miter;stroke-miterlimit:10;"/></g><!--link Notify to User--><g class="link" data-entity-1="ent0019" data-entity-2="ent0021" data-link-type="dependency" data-source-line="54" id="lnk35"><path d="M223.88,883.15 C200.8,883.15 182.71,883.15 159.63,883.15" fill="none" id="Notify-to-User" style="stroke:#4B5563;stroke-width:1;"/><polygon fill="#4B5563" points="154.63,883.15,163.63,887.15,159.63,883.15,163.63,879.15,154.63,883.15" style="stroke:#4B5563;stroke-width:1;stroke-linejoin:miter;stroke-miterlimit:10;"/></g><?plantuml-src ZLHDRzim3BtxLn0jCAo7ekZMB_Gmm4ipB4EQPatMGv6BOjEkKKVq9BbDL-o_Z_gmAsSxx698v2FvI3vPFrQo4KfiO2sonr9HA_CHrQJ0A24rkr2QHFSe_I1oUgva2OMeDKQU70lHrcQ9MvFMLIat70WPVr15g5GfUlO5za_MfwTd7oFdd2c84Z-Job45qDd9-Sd5-X-W_wAhC3D2bZN2Qm8mI1og0tmXQOBj-FZuuiEvHUvatoyk2b5aoU_4K0E6O4t643TTsGeLoQJnj61llEMEfQWXpGmflGT2GszxJTuOxQKJI4ixfH4fT3XtvI9zCYaaSQaZxgYkzL6cI3hWY0yBQ-ECFJXrJ61YHrw8pAViRpkrhwxW6wrzrJoFNTF9OcbzdlgqqYRstewlR-x6VUmjRkW9OyhBQeFSSADGQqjdBfH6vS3-E2Go4wPLF9aftrjEi98kmOZa4oeJ0cVJUHmpMTp0bJ1e6BcISqKPro8FPLyCjOEAsApadQYhN9Y0jcxhZHjOP0-OjxNL-5YMbVHp3DPT-fRiBv88NuNCsRkIxoVfB8L5spIap86BNTx78Jmw7bl9SrKlpis6xossWocEjvYrRftNb6EdeiuseC0hg2JhsY6v_enCLRp03nxrGRSZ1nZm5lgn2_0YzDbH1yhiPpuHevlMPBG9LFZIj6R8mnO4LxpAXANfL-VO_5Nw5ZN_B7mohrjluOexAHt47X9NuF3mKtWrb_rE-9d_R95rwXqMyYRxov3VgaziqFwEMF0EvFMOM8cxUxy8h-gXZJNe3BnCgxzmx0JKtPVtmwZkuAnl2xo4fQhAaliH1dHe8-atQS5XS6vQhkbeIXmVrWNlk7b-GJ8P-Fif9K4Drc3dzmS0?></g></svg>