<svg xmlns="http://www.w3.org/2000/svg" xmlns:xlink="http://www.w3.org/1999/xlink" contentStyleType="text/css" data-diagram-type="DESCRIPTION" height="499px" preserveAspectRatio="none" style="width:487px;height:499px;background:#FFFFFF;" version="1.1" viewBox="0 0 487 499" width="487px" zoomAndPan="magnify"><?plantuml 1.2026.5?><defs/><rect data-xfeat-white-canvas="true" fill="#FFFFFF" height="100%" width="100%" x="0" y="0"/><g><!--cluster External--><g class="cluster" data-qualified-name="External" data-source-line="3" id="ent0001"><rect fill="#FFFFFF" height="83" rx="4" ry="4" style="stroke:#CBD5E1;stroke-width:1;" width="356" x="117" y="7"/><text fill="#0F172A" font-family="Helvetica" font-size="14" font-weight="700" lengthAdjust="spacing" textLength="103.4824" x="243.2588" y="19.7803">External Actors</text></g><!--cluster Nanobot--><g class="cluster" data-qualified-name="Nanobot" data-source-line="7" id="ent0004"><rect fill="#FFFFFF" height="349" rx="4" ry="4" style="stroke:#CBD5E1;stroke-width:1;" width="353" x="7" y="136"/><text fill="#0F172A" font-family="Helvetica" font-size="14" font-weight="700" lengthAdjust="spacing" textLength="222.8477" x="72.0762" y="148.7803">nanobot Package v0.1.4.post3 &#128008;</text></g><!--entity USER--><g class="entity" data-qualified-name="External.USER" data-source-line="4" id="ent0002"><rect fill="#FFFFFF" height="34" rx="4" ry="4" style="stroke:#64748B;stroke-width:0.5;" width="147.9307" x="133.03" y="40"/><text fill="#0F172A" font-family="Helvetica" font-size="14" lengthAdjust="spacing" textLength="127.9307" x="143.03" y="60.7803">&#128100; Developer / User</text></g><!--entity SCRIPT--><g class="entity" data-qualified-name="External.SCRIPT" data-source-line="5" id="ent0003"><rect fill="#FFFFFF" height="34" rx="4" ry="4" style="stroke:#64748B;stroke-width:0.5;" width="133.9238" x="323.04" y="40"/><text fill="#0F172A" font-family="Helvetica" font-size="14" lengthAdjust="spacing" textLength="113.9238" x="333.04" y="60.7803">&#128220; External Script</text></g><!--entity INIT--><g class="entity" data-qualified-name="Nanobot.INIT" data-source-line="8" id="ent0005"><rect fill="#FFFFFF" height="48" rx="4" ry="4" style="stroke:#64748B;stroke-width:0.5;" width="108.7168" x="235.64" y="295"/><text fill="#0F172A" font-family="Helvetica" font-size="14" lengthAdjust="spacing" text-decoration="underline" textLength="17.8965" x="271.7123" y="315.7803">init</text><text fill="#0F172A" font-family="Helvetica" font-size="14" lengthAdjust="spacing" textLength="18.6758" x="289.6088" y="315.7803">.py</text><text fill="#0F172A" font-family="Helvetica" font-size="14" lengthAdjust="spacing" textLength="88.7168" x="245.64" y="329.7803">Package Core</text></g><!--entity MAIN--><g class="entity" data-qualified-name="Nanobot.MAIN" data-source-line="9" id="ent0006"><rect fill="#FFFFFF" height="48" rx="4" ry="4" style="stroke:#64748B;stroke-width:0.5;" width="114.1514" x="22.92" y="169"/><text fill="#0F172A" font-family="Helvetica" font-size="14" lengthAdjust="spacing" text-decoration="underline" textLength="30.3447" x="55.4854" y="189.7803">main</text><text fill="#0F172A" font-family="Helvetica" font-size="14" lengthAdjust="spacing" textLength="18.6758" x="85.8302" y="189.7803">.py</text><text fill="#0F172A" font-family="Helvetica" font-size="14" lengthAdjust="spacing" textLength="94.1514" x="32.92" y="203.7803">CLI Entry Point</text></g><!--entity APP--><g class="entity" data-qualified-name="Nanobot.APP" data-source-line="10" id="ent0007"><rect fill="#FFFFFF" height="48" rx="4" ry="4" style="stroke:#64748B;stroke-width:0.5;" width="170.9785" x="22.51" y="295"/><text fill="#0F172A" font-family="Helvetica" font-size="14" lengthAdjust="spacing" textLength="23.3584" x="96.3201" y="315.7803">app</text><text fill="#0F172A" font-family="Helvetica" font-size="14" lengthAdjust="spacing" textLength="150.9785" x="32.51" y="329.7803">CLI Application Instance</text></g><!--entity PKG--><g class="entity" data-qualified-name="Nanobot.PKG" data-source-line="11" id="ent0008"><rect fill="#FFFFFF" height="48" rx="4" ry="4" style="stroke:#64748B;stroke-width:0.5;" width="172.5303" x="78.73" y="421"/><text fill="#0F172A" font-family="Helvetica" font-size="14" lengthAdjust="spacing" textLength="126.8271" x="101.5816" y="441.7803">Nanobot Framework</text><text fill="#0F172A" font-family="Helvetica" font-size="14" lengthAdjust="spacing" textLength="152.5303" x="88.73" y="455.7803">AI Agent Building Blocks</text></g><!--link INIT to PKG--><g class="link" data-entity-1="ent0005" data-entity-2="ent0008" data-link-type="dependency" data-source-line="12" id="lnk9"><path d="M266.49,343.32 C244.14,365.49 214.2698,395.1288 191.9598,417.2588" fill="none" id="INIT-to-PKG" style="stroke:#64748B;stroke-width:1.1;"/><polygon fill="#64748B" points="188.41,420.78,197.6166,417.2817,191.9598,417.2588,191.9827,411.602,188.41,420.78" style="stroke:#64748B;stroke-width:1.1;stroke-linejoin:miter;stroke-miterlimit:10;"/><text fill="#334155" font-family="Helvetica" font-size="12" lengthAdjust="spacing" textLength="98.0391" x="232.25" y="385.2402">defines framework</text></g><!--link MAIN to APP--><g class="link" data-entity-1="ent0006" data-entity-2="ent0007" data-link-type="dependency" data-source-line="13" id="lnk10"><path d="M84.4,217.36 C88.17,237.38 93,263 93,263 C93,263 96.2347,274.8561 100.3247,289.8561" fill="none" id="MAIN-to-APP" style="stroke:#64748B;stroke-width:1.1;"/><polygon fill="#64748B" points="101.64,294.68,103.1315,284.9447,100.3247,289.8561,95.4133,287.0492,101.64,294.68" style="stroke:#64748B;stroke-width:1.1;stroke-linejoin:miter;stroke-miterlimit:10;"/><text fill="#334155" font-family="Helvetica" font-size="12" lengthAdjust="spacing" textLength="94.6992" x="94" y="259.2402">imports &amp; invokes</text></g><!--link APP to PKG--><g class="link" data-entity-1="ent0007" data-entity-2="ent0008" data-link-type="dependency" data-source-line="14" id="lnk11"><path d="M117.48,343.36 C125.6,363.38 136,389 136,389 C136,389 142.4701,401.256 150.3701,416.256" fill="none" id="APP-to-PKG" style="stroke:#64748B;stroke-width:1.1;"/><polygon fill="#64748B" points="152.7,420.68,152.0453,410.8529,150.3701,416.256,144.9669,414.5808,152.7,420.68" style="stroke:#64748B;stroke-width:1.1;stroke-linejoin:miter;stroke-miterlimit:10;"/><text fill="#334155" font-family="Helvetica" font-size="12" lengthAdjust="spacing" textLength="42.0293" x="137" y="385.2402">extends</text></g><!--link USER to MAIN--><g class="link" data-entity-1="ent0002" data-entity-2="ent0006" data-link-type="dependency" data-source-line="16" id="lnk12"><path d="M166.04,74.38 C131.28,88.29 87,106 87,106 C87,106 84.3971,138.0566 82.3171,163.5166" fill="none" id="USER-to-MAIN" style="stroke:#64748B;stroke-width:1.1;"/><polygon fill="#64748B" points="81.91,168.5,86.6295,159.8556,82.3171,163.5166,78.6561,159.2042,81.91,168.5" style="stroke:#64748B;stroke-width:1.1;stroke-linejoin:miter;stroke-miterlimit:10;"/><text fill="#334155" font-family="Helvetica" font-size="12" lengthAdjust="spacing" textLength="100.0664" x="88" y="116.2402">python -m nanobot</text></g><!--link SCRIPT to INIT--><g class="link" data-entity-1="ent0003" data-entity-2="ent0005" data-link-type="dependency" data-source-line="17" id="lnk13"><path d="M383.74,74.26 C366.6,118.84 320.605,238.4333 300.685,290.2233" fill="none" id="SCRIPT-to-INIT" style="stroke:#64748B;stroke-width:1.1;"/><polygon fill="#64748B" points="298.89,294.89,305.8543,287.9259,300.685,290.2233,298.3876,285.054,298.89,294.89" style="stroke:#64748B;stroke-width:1.1;stroke-linejoin:miter;stroke-miterlimit:10;"/><text fill="#334155" font-family="Helvetica" font-size="12" lengthAdjust="spacing" textLength="80.0508" x="363.58" y="196.2402">import nanobot</text></g><!--link USER to APP--><g class="link" data-entity-1="ent0002" data-entity-2="ent0007" data-link-type="dependency" data-source-line="18" id="lnk14"><path d="M206.04,74.43 C203.19,123.08 195,263 195,263 C195,263 173.0159,276.8975 149.3759,291.8475" fill="none" id="USER-to-APP" style="stroke:#64748B;stroke-width:1.1;"/><polygon fill="#64748B" points="145.15,294.52,154.8945,293.0903,149.3759,291.8475,150.6186,286.3289,145.15,294.52" style="stroke:#64748B;stroke-width:1.1;stroke-linejoin:miter;stroke-miterlimit:10;"/><text fill="#334155" font-family="Helvetica" font-size="12" lengthAdjust="spacing" textLength="83.3613" x="203.78" y="196.2402">CLI Commands</text></g><?plantuml-src LP4_JyCm4CNtV8g3WQq115C7f50AYe0gedIh59dasbg9xopRBLI8dH74YjI53yX7m77wXuu-_zwxv-S3IKKzBn6quGbQAvb4tN4pL1ZBkQeZnneSmnCxnmfAQR1m7egqA2enHJZilpWqNWH9uTZOGn0MjhFNgE45JMjF_gu-V-0A5rYpHWF7CB9e0ZyQzX_soQ_ldScmC5Ax00vx3sds6BtjrfCWzk4WMmyM9_5fV1vhjkuCVbSVxq4tM5DxUV9SadHv7klbc3Rw7XiCadIGFkxJIaXQqxsx5Fhap18objHckq_ImN-1qBe54wrhMOYcDaZ9-lkYNP5asN_19kIr4GgVsLHZIhnwYkJWSYxhKj8KBcikghRbxFOcQb92ftFH7A0B9KuaeON9nY9gKWN0B_E0L9gDit04aXPSeOsQ-Su0VUbKMjzmyoVX8ZXqGI_Tp3-Wes1TUTH-Hc12Z8tx5jXQjBkRBdgibF0B_W00?></g></svg>