<svg xmlns="http://www.w3.org/2000/svg" xmlns:xlink="http://www.w3.org/1999/xlink" contentStyleType="text/css" data-diagram-type="DESCRIPTION" height="1460px" preserveAspectRatio="none" style="width:2232px;height:1460px;background:#FFFFFF;" version="1.1" viewBox="0 0 2232 1460" width="2232px" zoomAndPan="magnify"><?plantuml 1.2026.5?><defs/><rect data-xfeat-white-canvas="true" fill="#FFFFFF" height="100%" width="100%" x="0" y="0"/><g><!--cluster Users--><g class="cluster" data-qualified-name="Users" data-source-line="3" id="ent0001"><rect fill="#FFFFFF" height="99" rx="4" ry="4" style="stroke:#CBD5E1;stroke-width:1;" width="377" x="115" y="7"/><text fill="#0F172A" font-family="Helvetica" font-size="14" font-weight="700" lengthAdjust="spacing" textLength="38.917" x="284.0415" y="19.7803">Users</text></g><!--cluster ChatPlatforms--><g class="cluster" data-qualified-name="ChatPlatforms" data-source-line="7" id="ent0004"><rect fill="#FFFFFF" height="454" rx="4" ry="4" style="stroke:#CBD5E1;stroke-width:1;" width="485" x="7" y="155"/><text fill="#0F172A" font-family="Helvetica" font-size="14" font-weight="700" lengthAdjust="spacing" textLength="158.6895" x="170.1553" y="167.7803">Chat Platform Channels</text></g><!--cluster NanobotCore--><g class="cluster" data-qualified-name="NanobotCore" data-source-line="18" id="ent0014"><rect fill="#FFFFFF" height="622" rx="4" ry="4" style="stroke:#CBD5E1;stroke-width:1;" width="1327" x="532" y="462"/><text fill="#0F172A" font-family="Helvetica" font-size="14" font-weight="700" lengthAdjust="spacing" textLength="153.2412" x="1118.8794" y="474.7803">Nanobot AI Framework</text></g><!--cluster ChannelLayer--><g class="cluster" data-qualified-name="NanobotCore.ChannelLayer" data-source-line="19" id="ent0015"><rect fill="#FFFFFF" height="97" rx="4" ry="4" style="stroke:#CBD5E1;stroke-width:1;" width="168" x="1249" y="511"/><text fill="#0F172A" font-family="Helvetica" font-size="14" font-weight="700" lengthAdjust="spacing" textLength="119.7998" x="1273.1001" y="523.7803">Channel Adapters</text></g><!--cluster AgentCore--><g class="cluster" data-qualified-name="NanobotCore.AgentCore" data-source-line="22" id="ent0017"><rect fill="#FFFFFF" height="238" rx="4" ry="4" style="stroke:#CBD5E1;stroke-width:1;" width="660" x="970" y="806"/><text fill="#0F172A" font-family="Helvetica" font-size="14" font-weight="700" lengthAdjust="spacing" textLength="145.8516" x="1227.0742" y="818.7803">Core Agent (~4k LOC)</text></g><!--cluster ProviderLayer--><g class="cluster" data-qualified-name="NanobotCore.ProviderLayer" data-source-line="29" id="ent0023"><rect fill="#FFFFFF" height="97" rx="4" ry="4" style="stroke:#CBD5E1;stroke-width:1;" width="165" x="1662" y="946"/><text fill="#0F172A" font-family="Helvetica" font-size="14" font-weight="700" lengthAdjust="spacing" textLength="149.3652" x="1669.8174" y="958.7803">LLM Provider Registry</text></g><!--cluster Security--><g class="cluster" data-qualified-name="NanobotCore.Security" data-source-line="32" id="ent0025"><rect fill="#FFFFFF" height="247" rx="4" ry="4" style="stroke:#CBD5E1;stroke-width:1;" width="350" x="580" y="658"/><text fill="#0F172A" font-family="Helvetica" font-size="14" font-weight="700" lengthAdjust="spacing" textLength="96.4961" x="706.752" y="670.7803">Security Layer</text></g><!--cluster Config--><g class="cluster" data-qualified-name="NanobotCore.Config" data-source-line="37" id="ent0029"><rect fill="#FFFFFF" height="99" rx="4" ry="4" style="stroke:#CBD5E1;stroke-width:1;" width="334" x="1296" y="658"/><text fill="#0F172A" font-family="Helvetica" font-size="14" font-weight="700" lengthAdjust="spacing" textLength="91.7588" x="1417.1206" y="670.7803">Configuration</text></g><!--cluster LLMProviders--><g class="cluster" data-qualified-name="LLMProviders" data-source-line="42" id="ent0032"><rect fill="#FFFFFF" height="313" rx="4" ry="4" style="stroke:#CBD5E1;stroke-width:1;" width="418" x="1800" y="1133"/><text fill="#0F172A" font-family="Helvetica" font-size="14" font-weight="700" lengthAdjust="spacing" textLength="97.2412" x="1960.3794" y="1145.7803">LLM Providers</text></g><!--cluster ExternalTools--><g class="cluster" data-qualified-name="ExternalTools" data-source-line="51" id="ent0040"><rect fill="#FFFFFF" height="198" rx="4" ry="4" style="stroke:#CBD5E1;stroke-width:1;" width="324" x="735" y="1133"/><text fill="#0F172A" font-family="Helvetica" font-size="14" font-weight="700" lengthAdjust="spacing" textLength="140.793" x="826.6035" y="1145.7803">External Tools (MCP)</text></g><!--cluster Deployment--><g class="cluster" data-qualified-name="Deployment" data-source-line="56" id="ent0044"><rect fill="#FFFFFF" height="113" rx="4" ry="4" style="stroke:#CBD5E1;stroke-width:1;" width="599" x="532" y="300"/><text fill="#0F172A" font-family="Helvetica" font-size="14" font-weight="700" lengthAdjust="spacing" textLength="80.124" x="791.438" y="312.7803">Deployment</text></g><!--entity U1--><g class="entity" data-qualified-name="Users.U1" data-source-line="4" id="ent0002"><rect fill="#FFFFFF" height="34" rx="4" ry="4" style="stroke:#64748B;stroke-width:0.5;" width="119.9307" x="139.03" y="48"/><text fill="#0F172A" font-family="Helvetica" font-size="14" lengthAdjust="spacing" textLength="99.9307" x="149.03" y="68.7803">&#128241; Mobile Apps</text></g><!--entity U2--><g class="entity" data-qualified-name="Users.U2" data-source-line="5" id="ent0003"><rect fill="#FFFFFF" height="34" rx="4" ry="4" style="stroke:#64748B;stroke-width:0.5;" width="140.9307" x="300.53" y="48"/><text fill="#0F172A" font-family="Helvetica" font-size="14" lengthAdjust="spacing" textLength="120.9307" x="310.53" y="68.7803">&#128187; Desktop Clients</text></g><!--entity TG--><g class="entity" data-qualified-name="ChatPlatforms.TG" data-source-line="8" id="ent0005"><rect fill="#FFFFFF" height="34" rx="4" ry="4" style="stroke:#64748B;stroke-width:0.5;" width="79.1309" x="31.43" y="196"/><text fill="#0F172A" font-family="Helvetica" font-size="14" lengthAdjust="spacing" textLength="59.1309" x="41.43" y="216.7803">Telegram</text></g><!--entity DC--><g class="entity" data-qualified-name="ChatPlatforms.DC" data-source-line="9" id="ent0006"><rect fill="#FFFFFF" height="34" rx="4" ry="4" style="stroke:#64748B;stroke-width:0.5;" width="67.4551" x="152.27" y="196"/><text fill="#0F172A" font-family="Helvetica" font-size="14" lengthAdjust="spacing" textLength="47.4551" x="162.27" y="216.7803">Discord</text></g><!--entity WA--><g class="entity" data-qualified-name="ChatPlatforms.WA" data-source-line="10" id="ent0007"><rect fill="#FFFFFF" height="34" rx="4" ry="4" style="stroke:#64748B;stroke-width:0.5;" width="84.5859" x="261.71" y="196"/><text fill="#0F172A" font-family="Helvetica" font-size="14" lengthAdjust="spacing" textLength="64.5859" x="271.71" y="216.7803">WhatsApp</text></g><!--entity SL--><g class="entity" data-qualified-name="ChatPlatforms.SL" data-source-line="11" id="ent0008"><rect fill="#FFFFFF" height="34" rx="4" ry="4" style="stroke:#64748B;stroke-width:0.5;" width="54.2344" x="387.88" y="196"/><text fill="#0F172A" font-family="Helvetica" font-size="14" lengthAdjust="spacing" textLength="34.2344" x="397.88" y="216.7803">Slack</text></g><!--entity FS--><g class="entity" data-qualified-name="ChatPlatforms.FS" data-source-line="12" id="ent0009"><rect fill="#FFFFFF" height="34" rx="4" ry="4" style="stroke:#64748B;stroke-width:0.5;" width="93.1445" x="81.43" y="348"/><text fill="#0F172A" font-family="Helvetica" font-size="14" lengthAdjust="spacing" textLength="73.1445" x="91.43" y="368.7803">Feishu/Lark</text></g><!--entity DT--><g class="entity" data-qualified-name="ChatPlatforms.DT" data-source-line="13" id="ent0010"><rect fill="#FFFFFF" height="34" rx="4" ry="4" style="stroke:#64748B;stroke-width:0.5;" width="75.2412" x="216.38" y="348"/><text fill="#0F172A" font-family="Helvetica" font-size="14" lengthAdjust="spacing" textLength="55.2412" x="226.38" y="368.7803">DingTalk</text></g><!--entity MX--><g class="entity" data-qualified-name="ChatPlatforms.MX" data-source-line="14" id="ent0011"><rect fill="#FFFFFF" height="34" rx="4" ry="4" style="stroke:#64748B;stroke-width:0.5;" width="58.1104" x="333.94" y="348"/><text fill="#0F172A" font-family="Helvetica" font-size="14" lengthAdjust="spacing" textLength="38.1104" x="343.94" y="368.7803">Matrix</text></g><!--entity EM--><g class="entity" data-qualified-name="ChatPlatforms.EM" data-source-line="15" id="ent0012"><rect fill="#FFFFFF" height="34" rx="4" ry="4" style="stroke:#64748B;stroke-width:0.5;" width="55.0068" x="167.5" y="551"/><text fill="#0F172A" font-family="Helvetica" font-size="14" lengthAdjust="spacing" textLength="35.0068" x="177.5" y="571.7803">Email</text></g><!--entity MC--><g class="entity" data-qualified-name="ChatPlatforms.MC" data-source-line="16" id="ent0013"><rect fill="#FFFFFF" height="34" rx="4" ry="4" style="stroke:#64748B;stroke-width:0.5;" width="65.9102" x="264.04" y="551"/><text fill="#0F172A" font-family="Helvetica" font-size="14" lengthAdjust="spacing" textLength="45.9102" x="274.04" y="571.7803">Mochat</text></g><!--entity CA--><g class="entity" data-qualified-name="NanobotCore.ChannelLayer.CA" data-source-line="20" id="ent0016"><rect fill="#FFFFFF" height="48" rx="4" ry="4" style="stroke:#64748B;stroke-width:0.5;" width="136.7236" x="1264.64" y="544"/><text fill="#0F172A" font-family="Helvetica" font-size="14" lengthAdjust="spacing" textLength="103.4688" x="1281.2674" y="564.7803">Platform-specific</text><text fill="#0F172A" font-family="Helvetica" font-size="14" lengthAdjust="spacing" textLength="116.7236" x="1274.64" y="578.7803">Message Handlers</text></g><!--entity AG--><g class="entity" data-qualified-name="NanobotCore.AgentCore.AG" data-source-line="23" id="ent0018"><rect fill="#FFFFFF" height="34" rx="4" ry="4" style="stroke:#64748B;stroke-width:0.5;" width="93.9443" x="1251.03" y="847"/><text fill="#0F172A" font-family="Helvetica" font-size="14" lengthAdjust="spacing" textLength="73.9443" x="1261.03" y="867.7803">Agent Logic</text></g><!--entity TK--><g class="entity" data-qualified-name="NanobotCore.AgentCore.TK" data-source-line="24" id="ent0019"><rect fill="#FFFFFF" height="34" rx="4" ry="4" style="stroke:#64748B;stroke-width:0.5;" width="97.7998" x="1328.1" y="986"/><text fill="#0F172A" font-family="Helvetica" font-size="14" lengthAdjust="spacing" textLength="77.7998" x="1338.1" y="1006.7803">Tool System</text></g><!--entity MM--><g class="entity" data-qualified-name="NanobotCore.AgentCore.MM" data-source-line="25" id="ent0020"><rect fill="#FFFFFF" height="34" rx="4" ry="4" style="stroke:#64748B;stroke-width:0.5;" width="129.7031" x="1468.15" y="986"/><text fill="#0F172A" font-family="Helvetica" font-size="14" lengthAdjust="spacing" textLength="109.7031" x="1478.15" y="1006.7803">Memory Manager</text></g><!--entity CR--><g class="entity" data-qualified-name="NanobotCore.AgentCore.CR" data-source-line="26" id="ent0021"><rect fill="#FFFFFF" height="34" rx="4" ry="4" style="stroke:#64748B;stroke-width:0.5;" width="117.2754" x="994.36" y="986"/><text fill="#0F172A" font-family="Helvetica" font-size="14" lengthAdjust="spacing" textLength="97.2754" x="1004.36" y="1006.7803">Cron Scheduler</text></g><!--entity HB--><g class="entity" data-qualified-name="NanobotCore.AgentCore.HB" data-source-line="27" id="ent0022"><rect fill="#FFFFFF" height="34" rx="4" ry="4" style="stroke:#64748B;stroke-width:0.5;" width="132.0479" x="1153.98" y="986"/><text fill="#0F172A" font-family="Helvetica" font-size="14" lengthAdjust="spacing" textLength="112.0479" x="1163.98" y="1006.7803">Heartbeat System</text></g><!--entity PR--><g class="entity" data-qualified-name="NanobotCore.ProviderLayer.PR" data-source-line="30" id="ent0024"><rect fill="#FFFFFF" height="48" rx="4" ry="4" style="stroke:#64748B;stroke-width:0.5;" width="118.041" x="1685.98" y="979"/><text fill="#0F172A" font-family="Helvetica" font-size="14" lengthAdjust="spacing" textLength="98.041" x="1695.98" y="999.7803">Provider Router</text><text fill="#0F172A" font-family="Helvetica" font-size="14" lengthAdjust="spacing" textLength="59.1309" x="1715.4351" y="1013.7803">(LiteLLM)</text></g><!--entity AC--><g class="entity" data-qualified-name="NanobotCore.Security.AC" data-source-line="33" id="ent0026"><rect fill="#FFFFFF" height="34" rx="4" ry="4" style="stroke:#64748B;stroke-width:0.5;" width="114.1445" x="603.93" y="699"/><text fill="#0F172A" font-family="Helvetica" font-size="14" lengthAdjust="spacing" textLength="94.1445" x="613.93" y="719.7803">Access Control</text></g><!--entity SC--><g class="entity" data-qualified-name="NanobotCore.Security.SC" data-source-line="34" id="ent0027"><rect fill="#FFFFFF" height="34" rx="4" ry="4" style="stroke:#64748B;stroke-width:0.5;" width="119.5791" x="760.21" y="699"/><text fill="#0F172A" font-family="Helvetica" font-size="14" lengthAdjust="spacing" textLength="99.5791" x="770.21" y="719.7803">Command Filter</text></g><!--entity PS--><g class="entity" data-qualified-name="NanobotCore.Security.PS" data-source-line="35" id="ent0028"><rect fill="#FFFFFF" height="34" rx="4" ry="4" style="stroke:#64748B;stroke-width:0.5;" width="107.1582" x="607.42" y="847"/><text fill="#0F172A" font-family="Helvetica" font-size="14" lengthAdjust="spacing" textLength="87.1582" x="617.42" y="867.7803">Path Sanitizer</text></g><!--entity CF--><g class="entity" data-qualified-name="NanobotCore.Config.CF" data-source-line="38" id="ent0030"><rect fill="#FFFFFF" height="34" rx="4" ry="4" style="stroke:#64748B;stroke-width:0.5;" width="86.9307" x="1319.53" y="699"/><text fill="#0F172A" font-family="Helvetica" font-size="14" lengthAdjust="spacing" textLength="66.9307" x="1329.53" y="719.7803">config.json</text></g><!--entity ENV--><g class="entity" data-qualified-name="NanobotCore.Config.ENV" data-source-line="39" id="ent0031"><rect fill="#FFFFFF" height="34" rx="4" ry="4" style="stroke:#64748B;stroke-width:0.5;" width="131.2686" x="1448.37" y="699"/><text fill="#0F172A" font-family="Helvetica" font-size="14" lengthAdjust="spacing" textLength="111.2686" x="1458.37" y="719.7803">Environment Vars</text></g><!--entity OAI--><g class="entity" data-qualified-name="LLMProviders.OAI" data-source-line="43" id="ent0033"><rect fill="#FFFFFF" height="34" rx="4" ry="4" style="stroke:#64748B;stroke-width:0.5;" width="67.4756" x="1850.26" y="1174"/><text fill="#0F172A" font-family="Helvetica" font-size="14" lengthAdjust="spacing" textLength="47.4756" x="1860.26" y="1194.7803">OpenAI</text></g><!--entity ANT--><g class="entity" data-qualified-name="LLMProviders.ANT" data-source-line="44" id="ent0034"><rect fill="#FFFFFF" height="34" rx="4" ry="4" style="stroke:#64748B;stroke-width:0.5;" width="79.1445" x="1959.43" y="1174"/><text fill="#0F172A" font-family="Helvetica" font-size="14" lengthAdjust="spacing" textLength="59.1445" x="1969.43" y="1194.7803">Anthropic</text></g><!--entity GEM--><g class="entity" data-qualified-name="LLMProviders.GEM" data-source-line="45" id="ent0035"><rect fill="#FFFFFF" height="34" rx="4" ry="4" style="stroke:#64748B;stroke-width:0.5;" width="113.3789" x="2080.31" y="1174"/><text fill="#0F172A" font-family="Helvetica" font-size="14" lengthAdjust="spacing" textLength="93.3789" x="2090.31" y="1194.7803">Google Gemini</text></g><!--entity DSK--><g class="entity" data-qualified-name="LLMProviders.DSK" data-source-line="46" id="ent0036"><rect fill="#FFFFFF" height="34" rx="4" ry="4" style="stroke:#64748B;stroke-width:0.5;" width="85.3789" x="1852.31" y="1273"/><text fill="#0F172A" font-family="Helvetica" font-size="14" lengthAdjust="spacing" textLength="65.3789" x="1862.31" y="1293.7803">DeepSeek</text></g><!--entity GRQ--><g class="entity" data-qualified-name="LLMProviders.GRQ" data-source-line="47" id="ent0037"><rect fill="#FFFFFF" height="34" rx="4" ry="4" style="stroke:#64748B;stroke-width:0.5;" width="51.124" x="1979.44" y="1273"/><text fill="#0F172A" font-family="Helvetica" font-size="14" lengthAdjust="spacing" textLength="31.124" x="1989.44" y="1293.7803">Groq</text></g><!--entity VLL--><g class="entity" data-qualified-name="LLMProviders.VLL" data-source-line="48" id="ent0038"><rect fill="#FFFFFF" height="34" rx="4" ry="4" style="stroke:#64748B;stroke-width:0.5;" width="91.5928" x="2072.2" y="1273"/><text fill="#0F172A" font-family="Helvetica" font-size="14" lengthAdjust="spacing" textLength="71.5928" x="2082.2" y="1293.7803">vLLM/Local</text></g><!--entity OR--><g class="entity" data-qualified-name="LLMProviders.OR" data-source-line="49" id="ent0039"><rect fill="#FFFFFF" height="34" rx="4" ry="4" style="stroke:#64748B;stroke-width:0.5;" width="96.2686" x="1849.87" y="1388"/><text fill="#0F172A" font-family="Helvetica" font-size="14" lengthAdjust="spacing" textLength="76.2686" x="1859.87" y="1408.7803">OpenRouter</text></g><!--entity MCP1--><g class="entity" data-qualified-name="ExternalTools.MCP1" data-source-line="52" id="ent0041"><rect fill="#FFFFFF" height="34" rx="4" ry="4" style="stroke:#64748B;stroke-width:0.5;" width="104.0342" x="758.98" y="1174"/><text fill="#0F172A" font-family="Helvetica" font-size="14" lengthAdjust="spacing" textLength="84.0342" x="768.98" y="1194.7803">Tool Server 1</text></g><!--entity MCP2--><g class="entity" data-qualified-name="ExternalTools.MCP2" data-source-line="53" id="ent0042"><rect fill="#FFFFFF" height="34" rx="4" ry="4" style="stroke:#64748B;stroke-width:0.5;" width="104.0342" x="904.98" y="1174"/><text fill="#0F172A" font-family="Helvetica" font-size="14" lengthAdjust="spacing" textLength="84.0342" x="914.98" y="1194.7803">Tool Server 2</text></g><!--entity CH--><g class="entity" data-qualified-name="ExternalTools.CH" data-source-line="54" id="ent0043"><rect fill="#FFFFFF" height="34" rx="4" ry="4" style="stroke:#64748B;stroke-width:0.5;" width="113.3584" x="759.32" y="1273"/><text fill="#0F172A" font-family="Helvetica" font-size="14" lengthAdjust="spacing" textLength="93.3584" x="769.32" y="1293.7803">ClawHub Skills</text></g><!--entity DK--><g class="entity" data-qualified-name="Deployment.DK" data-source-line="57" id="ent0045"><rect fill="#FFFFFF" height="34" rx="4" ry="4" style="stroke:#64748B;stroke-width:0.5;" width="128.9375" x="555.53" y="348"/><text fill="#0F172A" font-family="Helvetica" font-size="14" lengthAdjust="spacing" textLength="108.9375" x="565.53" y="368.7803">Docker Container</text></g><!--entity DCY--><g class="entity" data-qualified-name="Deployment.DCY" data-source-line="58" id="ent0046"><rect fill="#FFFFFF" height="34" rx="4" ry="4" style="stroke:#64748B;stroke-width:0.5;" width="149.1514" x="726.42" y="348"/><text fill="#0F172A" font-family="Helvetica" font-size="14" lengthAdjust="spacing" textLength="129.1514" x="736.42" y="368.7803">docker-compose.yml</text></g><!--entity DF--><g class="entity" data-qualified-name="Deployment.DF" data-source-line="59" id="ent0047"><rect fill="#FFFFFF" height="48" rx="4" ry="4" style="stroke:#64748B;stroke-width:0.5;" width="163.6094" x="917.2" y="341"/><text fill="#0F172A" font-family="Helvetica" font-size="14" lengthAdjust="spacing" textLength="62.2412" x="967.8841" y="361.7803">Dockerfile</text><text fill="#0F172A" font-family="Helvetica" font-size="14" lengthAdjust="spacing" textLength="143.6094" x="927.2" y="375.7803">Python 3.12 + Node 20</text></g><!--link Users to ChatPlatforms--><g class="link" data-entity-1="ent0001" data-entity-2="ent0004" data-link-type="dependency" data-source-line="61" id="lnk48"><path d="M484,106.1306 C484,106.3803 484,106.6307 484,106.8817 C484,108.8898 484,110.9383 484,113.0193 C484,121.3433 484,130.1856 484,139.0275 C484,143.4484 484,147.8693 484,152.2251 C484,152.7696 484,153.313 484,153.8554 C484,154.1265 484,149.3974 484,149.668" fill="none" id="Users-to-ChatPlatforms" style="stroke:#64748B;stroke-width:1.1;"/><polygon fill="#64748B" points="484,154.668,488,145.668,484,149.668,480,145.668,484,154.668" style="stroke:#64748B;stroke-width:1.1;stroke-linejoin:miter;stroke-miterlimit:10;"/></g><!--link ChatPlatforms to CA--><g class="link" data-entity-1="ent0004" data-entity-2="ent0016" data-link-type="dependency" data-source-line="62" id="lnk49"><path d="M493.2166,214.3019 C493.72,214.3186 494.2434,214.3358 494.7866,214.3538 C496.9593,214.4255 499.4483,214.5077 502.2427,214.6 C513.4203,214.9692 529.4843,215.4998 549.7334,216.1687 C590.2317,217.5065 647.4706,219.3974 715.8406,221.6561 C852.5806,226.1734 1033.845,232.1619 1214.7575,238.1387 C1576.5825,250.0925 1937,262 1937,262 C1937,262 1937,276 1937,276 C1937,276 1529.7244,472.2197 1386.1644,541.3897" fill="none" id="ChatPlatforms-to-CA" style="stroke:#64748B;stroke-width:1.1;"/><polygon fill="#64748B" points="1381.66,543.56,1391.5042,543.257,1386.1644,541.3897,1388.0317,536.0499,1381.66,543.56" style="stroke:#64748B;stroke-width:1.1;stroke-linejoin:miter;stroke-miterlimit:10;"/></g><!--link CA to Security--><g class="link" data-entity-1="ent0016" data-entity-2="ent0025" data-link-type="dependency" data-source-line="63" id="lnk50"><path d="M1302.88,592.42 C1283.15,607.77 1261,625 1261,625 C1261,625 1177.57,647.15 1093.4875,669.4725 C1051.4463,680.6338 1009.2419,691.8381 977.2216,700.3384 C961.2114,704.5886 947.7473,708.1627 938.1225,710.7175 C935.7164,711.3561 933.5501,711.9311 931.6441,712.437 C931.1676,712.5635 935.54,711.403 935.0963,711.5208" fill="none" id="CA-to-Security" style="stroke:#64748B;stroke-width:1.1;"/><polygon fill="#64748B" points="930.2637,712.8034,939.9886,714.3608,935.0963,711.5208,937.9364,706.6285,930.2637,712.8034" style="stroke:#64748B;stroke-width:1.1;stroke-linejoin:miter;stroke-miterlimit:10;"/></g><!--link Security to AG--><g class="link" data-entity-1="ent0025" data-entity-2="ent0018" data-link-type="dependency" data-source-line="64" id="lnk51"><path d="M930.1205,720.1547 C930.4879,720.2973 930.8669,720.4445 931.2574,720.5961 C932.0384,720.8993 932.8653,721.2203 933.7367,721.5586 C940.7074,724.2648 950.5241,728.0763 962.4795,732.7181 C986.3903,742.0019 1018.8556,754.6075 1054.2163,768.3375 C1124.9375,795.7975 1202.579,825.9452 1251.189,844.8202" fill="none" id="Security-to-AG" style="stroke:#64748B;stroke-width:1.1;"/><polygon fill="#64748B" points="1255.85,846.63,1248.9081,839.6435,1251.189,844.8202,1246.0124,847.1011,1255.85,846.63" style="stroke:#64748B;stroke-width:1.1;stroke-linejoin:miter;stroke-miterlimit:10;"/></g><!--link AG to TK--><g class="link" data-entity-1="ent0018" data-entity-2="ent0019" data-link-type="dependency" data-source-line="65" id="lnk52"><path d="M1309.8682,885.5812 C1325.0782,911.9512 1349.9423,955.0785 1365.1423,981.4385" fill="none" id="AG-TK" style="stroke:#64748B;stroke-width:1.1;"/><polygon fill="#64748B" points="1307.37,881.25,1308.4018,891.0447,1309.8682,885.5812,1315.3317,887.0476,1307.37,881.25" style="stroke:#64748B;stroke-width:1.1;stroke-linejoin:miter;stroke-miterlimit:10;"/><polygon fill="#64748B" points="1367.64,985.77,1366.6094,975.9752,1365.1423,981.4385,1359.679,979.9715,1367.64,985.77" style="stroke:#64748B;stroke-width:1.1;stroke-linejoin:miter;stroke-miterlimit:10;"/></g><!--link AG to MM--><g class="link" data-entity-1="ent0018" data-entity-2="ent0020" data-link-type="dependency" data-source-line="66" id="lnk53"><path d="M1316.396,885.1973 C1331.436,901.7173 1349,921 1349,921 C1349,921 1447,938 1447,938 C1447,938 1481.3587,963.5751 1506.8387,982.5351" fill="none" id="AG-MM" style="stroke:#64748B;stroke-width:1.1;"/><polygon fill="#64748B" points="1313.03,881.5,1316.1311,890.8479,1316.396,885.1973,1322.0467,885.4623,1313.03,881.5" style="stroke:#64748B;stroke-width:1.1;stroke-linejoin:miter;stroke-miterlimit:10;"/><polygon fill="#64748B" points="1510.85,985.52,1506.0175,976.9382,1506.8387,982.5351,1501.2418,983.3563,1510.85,985.52" style="stroke:#64748B;stroke-width:1.1;stroke-linejoin:miter;stroke-miterlimit:10;"/></g><!--link AG to CR--><g class="link" data-entity-1="ent0018" data-entity-2="ent0021" data-link-type="dependency" data-source-line="67" id="lnk54"><path d="M1256.3977,883.4035 C1207.7477,904.9335 1133,938 1133,938 C1133,938 1101.215,963.4373 1077.505,982.3973" fill="none" id="AG-CR" style="stroke:#64748B;stroke-width:1.1;"/><polygon fill="#64748B" points="1260.97,881.38,1251.1212,881.3644,1256.3977,883.4035,1254.3587,888.68,1260.97,881.38" style="stroke:#64748B;stroke-width:1.1;stroke-linejoin:miter;stroke-miterlimit:10;"/><polygon fill="#64748B" points="1073.6,985.52,1083.1271,983.0232,1077.505,982.3973,1078.1308,976.7752,1073.6,985.52" style="stroke:#64748B;stroke-width:1.1;stroke-linejoin:miter;stroke-miterlimit:10;"/></g><!--link AG to HB--><g class="link" data-entity-1="ent0018" data-entity-2="ent0022" data-link-type="dependency" data-source-line="68" id="lnk55"><path d="M1286.2753,885.5947 C1271.2553,911.9647 1246.7241,955.065 1231.7141,981.425" fill="none" id="AG-HB" style="stroke:#64748B;stroke-width:1.1;"/><polygon fill="#64748B" points="1288.75,881.25,1280.8199,887.0907,1286.2753,885.5947,1287.7713,891.0501,1288.75,881.25" style="stroke:#64748B;stroke-width:1.1;stroke-linejoin:miter;stroke-miterlimit:10;"/><polygon fill="#64748B" points="1229.24,985.77,1237.1694,979.9284,1231.7141,981.425,1230.2175,975.9698,1229.24,985.77" style="stroke:#64748B;stroke-width:1.1;stroke-linejoin:miter;stroke-miterlimit:10;"/></g><!--link AG to PR--><g class="link" data-entity-1="ent0018" data-entity-2="ent0024" data-link-type="dependency" data-source-line="69" id="lnk56"><path d="M1313.03,881.5 C1328.07,898.02 1349,921 1349,921 C1349,921 1616,938 1616,938 C1616,938 1656.4006,958.0485 1693.2206,976.3085" fill="none" id="AG-to-PR" style="stroke:#64748B;stroke-width:1.1;"/><polygon fill="#64748B" points="1697.7,978.53,1691.4142,970.9478,1693.2206,976.3085,1687.8599,978.1149,1697.7,978.53" style="stroke:#64748B;stroke-width:1.1;stroke-linejoin:miter;stroke-miterlimit:10;"/></g><!--link PR to LLMProviders--><g class="link" data-entity-1="ent0024" data-entity-2="ent0032" data-link-type="dependency" data-source-line="70" id="lnk57"><path d="M1752.85,1027.18 C1761.165,1051.72 1774.655,1091.5475 1786.2112,1125.6688 C1789.1003,1134.1991 1791.8685,1142.3727 1794.4048,1149.8617 C1795.6729,1153.6062 1796.8831,1157.1796 1798.0214,1160.5407 C1798.5905,1162.2213 1799.1417,1163.8489 1799.6731,1165.4182 C1799.7396,1165.6144 1798.2019,1161.0739 1798.2677,1161.2682" fill="none" id="PR-to-LLMProviders" style="stroke:#64748B;stroke-width:1.1;"/><polygon fill="#64748B" points="1799.8715,1166.004,1800.7733,1156.1965,1798.2677,1161.2682,1793.196,1158.7626,1799.8715,1166.004" style="stroke:#64748B;stroke-width:1.1;stroke-linejoin:miter;stroke-miterlimit:10;"/></g><!--link TK to ExternalTools--><g class="link" data-entity-1="ent0019" data-entity-2="ent0040" data-link-type="dependency" data-source-line="71" id="lnk58"><path d="M1365.13,1020.29 C1345.15,1047.67 1307,1100 1307,1100 C1307,1100 1243.995,1122.15 1180.4988,1144.4725 C1148.7506,1155.6338 1116.8797,1166.8381 1092.7002,1175.3384 C1080.6104,1179.5886 1070.4435,1183.1627 1063.1762,1185.7175 C1062.2678,1186.0368 1061.4047,1186.3402 1060.5888,1186.627 C1060.1808,1186.7704 1064.5017,1185.2515 1064.1176,1185.3865" fill="none" id="TK-to-ExternalTools" style="stroke:#64748B;stroke-width:1.1;"/><polygon fill="#64748B" points="1059.4006,1187.0447,1069.2178,1187.8336,1064.1176,1185.3865,1066.5647,1180.2863,1059.4006,1187.0447" style="stroke:#64748B;stroke-width:1.1;stroke-linejoin:miter;stroke-miterlimit:10;"/></g><!--link Config to AgentCore--><g class="link" data-entity-1="ent0029" data-entity-2="ent0017" data-link-type="dependency" data-source-line="72" id="lnk59"><path d="M1622,757.1306 C1622,757.3803 1622,757.6307 1622,757.8817 C1622,759.8898 1622,761.9383 1622,764.0193 C1622,772.3433 1622,781.1856 1622,790.0275 C1622,794.4484 1622,798.8693 1622,803.2251 C1622,803.7696 1622,804.313 1622,804.8554 C1622,805.1265 1622,800.3974 1622,800.668" fill="none" id="Config-to-AgentCore" style="stroke:#64748B;stroke-width:1.1;"/><polygon fill="#64748B" points="1622,805.668,1626,796.668,1622,800.668,1618,796.668,1622,805.668" style="stroke:#64748B;stroke-width:1.1;stroke-linejoin:miter;stroke-miterlimit:10;"/></g><!--link Deployment to NanobotCore--><g class="link" data-entity-1="ent0044" data-entity-2="ent0014" data-link-type="dependency" data-source-line="73" id="lnk60"><path d="M1105.0164,413.2086 C1104.9758,413.3152 1104.9353,413.4214 1104.8949,413.5274 C1104.7335,413.9512 1104.574,414.3697 1104.4167,414.7825 C1103.7877,416.4336 1103.1936,417.993 1102.6456,419.4313 C1100.4538,425.1844 1099,429 1099,429 C1099,429 1064.6063,437.4906 1012.8812,450.2597 C999.95,453.452 985.9355,456.9116 971.1045,460.5729 C969.2506,461.0305 972.2382,460.293 970.3594,460.7568" fill="none" id="Deployment-to-NanobotCore" style="stroke:#64748B;stroke-width:1.1;"/><polygon fill="#64748B" points="965.5051,461.9552,975.2015,463.6816,970.3594,460.7568,973.2841,455.9147,965.5051,461.9552" style="stroke:#64748B;stroke-width:1.1;stroke-linejoin:miter;stroke-miterlimit:10;"/></g><!--link WA to DF--><g class="link" data-entity-1="ent0007" data-entity-2="ent0047" data-link-type="dependency" data-source-line="74" id="lnk61"><path d="M346.72,224.85 C357.96,227.7 367,230 367,230 C367,230 897,284 897,284 C897,284 935.1865,313.9433 965.2865,337.5633" fill="none" id="WA-to-DF" style="stroke:#64748B;stroke-width:1.1;stroke-dasharray:7,7;"/><polygon fill="#64748B" points="969.22,340.65,964.6091,331.9472,965.2865,337.5633,959.6704,338.2408,969.22,340.65" style="stroke:#64748B;stroke-width:1.1;stroke-linejoin:miter;stroke-miterlimit:10;"/><text fill="#334155" font-family="Helvetica" font-size="12" lengthAdjust="spacing" textLength="34.6875" x="809.15" y="272.2402">Bridge</text></g><?plantuml-src TLNDSjis4BxpAROvkTEHKgizPJAPOIXByfYo6L6ranbVO795eG815eHiAvxa8P87w3Fqt9Vg8tG9a2gGr2Skz_k0NNxxmn-uBCI-H6Yqsc3RSYMP69ajrZZc-rf4HZLW5DmfOrGD9TTO62953Ijsh49uyLkBkdq1h0LhmLFKKPYi187__FdrBrYgEqulSTFqlDEGykLlc6Axwo8bWgCqFMqIVVelJB9b1ZB1p4Rf6kXDIXIEs443yatyDGgiDAijRptteIbl2wLBYqmJ7xcX-rhAra8tiG_bWlAn_Zpr_JFaxNR_CcNQeRCy32MhDHCEcgvzQCcCveyMMBxtWREQSM7zPylWW2eeFNSWyGMwP59HbI0-XnbzCJweFfSUI9H64iSNj9CGuf8rPYXXxqpP0NMev23mg6smu1jUtCebzKjtrOB9KXnlY8EgTK7ZYceA9vz_tK5wbVneQTRNf-H5STHKLRnmjA1aQwK4v8VMO5_GYq0Ph9K-m9992gsTGe5qYLOIycABvLxqX6Jb4nR8jBb3QZGloEAj_q5fkeHCgtjUaa0hh7XhzC7o1k__QNSyeFOazQqyIRb1kiffaQty23aMUytD0Un5hjS6LwXLKL01857IQELQ9GxwE55rJQM16HTck2aWPCni8MUI6_wn9sHvM3wvuTLUisxadM3M4oPIMD_uztRWp896blUSXA-xmbwplalEBgyfpZEwEWfvZeumtbM3CZwtfAluF914cgrMpT0yby6epPNgddEikUIMC0z7QuhOv8ZzcEP1Sysr-iETMRtp_VUKvijK5SmLu3fDlytKrTnb6nJwx97yj6sXQ-iMJfP9vlfX09p_wVi9G7rFpNJQBu7iz3d6P61CWhOGx66nluDynyMmGHT-ObDiX3fq1NDA75_3NAQgs56GhlyOb_qdJWFLIaiP5QfkL8lZGotwTVlX-uisz8-ubTd1R6bAVncVJk0dk5JqPvhyx0xDA4VtYncDteHBFmf_0HQFeoIsrZ0zqN6CEYzjbdWEhpkJriXWqi8OJ5eDWqahWCpEeb7DLjRospDQNrXVKBYe7nKRRDXsaITc1tYxERg9OJn-Gzy9h-2jvcM5_m80?></g></svg>