<svg xmlns="http://www.w3.org/2000/svg" xmlns:xlink="http://www.w3.org/1999/xlink" contentStyleType="text/css" data-diagram-type="DESCRIPTION" height="657px" preserveAspectRatio="none" style="width:943px;height:657px;" version="1.1" viewBox="0 0 943 657" width="943px" zoomAndPan="magnify"><?plantuml 1.2026.5?><defs><style><![CDATA[
@media (prefers-color-scheme: dark) {
  text { fill: #e5e7eb !important; }
  path, line, rect, circle, ellipse, polygon, polyline { stroke: #cbd5e1 !important; }
  .entity rect, .participant rect, .participant path, .sequenceLine rect, .class rect, .component rect, .component path, .note rect { fill: #111827 !important; }
  .cluster path { fill: none !important; }
  polygon { fill: #cbd5e1 !important; }
}
]]></style></defs><g><g class="title" data-source-line="15"><text fill="#000000" font-family="sans-serif" font-size="14" font-weight="700" lengthAdjust="spacing" textLength="339.9238" x="298.3096" y="23.5352">Component Interaction: ClawHub Skill Manager</text></g><!--cluster nanobot--><g class="cluster" data-qualified-name="nanobot" data-source-line="17" id="ent0002"><path d="M8.5,213.9683 L126.6611,213.9683 A3.75,3.75 0 0 1 129.1611,216.4683 L136.1611,236.4566 L593.5,236.4566 A2.5,2.5 0 0 1 596,238.9566 L596,639.8583 A2.5,2.5 0 0 1 593.5,642.3583 L8.5,642.3583 A2.5,2.5 0 0 1 6,639.8583 L6,216.4683 A2.5,2.5 0 0 1 8.5,213.9683" fill="none" style="stroke:#000000;stroke-width:1.5;"/><line style="stroke:#000000;stroke-width:1.5;" x1="6" x2="136.1611" y1="236.4566" y2="236.4566"/><text fill="#000000" font-family="sans-serif" font-size="14" font-weight="700" lengthAdjust="spacing" textLength="117.1611" x="10" y="229.5034">Nanobot System</text></g><!--entity clawhub_skill--><g class="entity" data-qualified-name="nanobot.clawhub_skill" data-source-line="18" id="ent0003"><rect fill="#F8FAFC" height="69.4648" rx="2.5" ry="2.5" style="stroke:#4B5563;stroke-width:0.5;" width="373.2744" x="206.36" y="395.4283"/><text fill="#111827" font-family="sans-serif" font-size="14" lengthAdjust="spacing" textLength="92.333" x="216.36" y="418.9634">ClawHub Skill</text><text fill="#111827" font-family="sans-serif" font-size="14" lengthAdjust="spacing" textLength="82.2979" x="216.36" y="435.4517">Skill Module</text><text fill="#111827" font-family="sans-serif" font-size="14" lengthAdjust="spacing" textLength="353.2744" x="216.36" y="451.94">Interprets intent and orchestrates skill management</text></g><!--entity workspace--><g class="entity" data-qualified-name="nanobot.workspace" data-source-line="19" id="ent0004"><rect fill="#F8FAFC" height="69.4648" rx="2.5" ry="2.5" style="stroke:#4B5563;stroke-width:0.5;" width="216.6973" x="51.65" y="556.8983"/><text fill="#111827" font-family="sans-serif" font-size="14" lengthAdjust="spacing" textLength="135.5771" x="61.65" y="580.4334">Nanobot Workspace</text><text fill="#111827" font-family="sans-serif" font-size="14" lengthAdjust="spacing" textLength="75.9268" x="61.65" y="596.9217">File System</text><text fill="#111827" font-family="sans-serif" font-size="14" lengthAdjust="spacing" textLength="196.6973" x="61.65" y="613.41">/.nanobot/workspace/skills/</text></g><!--entity nanobot_core--><g class="entity" data-qualified-name="nanobot.nanobot_core" data-source-line="20" id="ent0005"><rect fill="#F8FAFC" height="69.4648" rx="2.5" ry="2.5" style="stroke:#4B5563;stroke-width:0.5;" width="268.9854" x="139.51" y="248.9683"/><text fill="#111827" font-family="sans-serif" font-size="14" lengthAdjust="spacing" textLength="94.2539" x="149.51" y="272.5034">Nanobot Core</text><text fill="#111827" font-family="sans-serif" font-size="14" lengthAdjust="spacing" textLength="100.9258" x="149.51" y="288.9917">Agent Runtime</text><text fill="#111827" font-family="sans-serif" font-size="14" lengthAdjust="spacing" textLength="248.9854" x="149.51" y="305.48">Executes skills and manages session</text></g><!--entity user--><g class="entity" data-qualified-name="user" data-source-line="16" id="ent0001"><ellipse cx="274.0022" cy="51.4883" fill="#F1F1F1" rx="8" ry="8" style="stroke:#181818;stroke-width:0.5;"/><path d="M274.0022,59.4883 L274.0022,86.4883 M261.0022,67.4883 L287.0022,67.4883 M274.0022,86.4883 L261.0022,101.4883 M274.0022,86.4883 L287.0022,101.4883" fill="none" style="stroke:#181818;stroke-width:0.5;"/><text fill="#000000" font-family="sans-serif" font-size="14" lengthAdjust="spacing" textLength="30.3652" x="151.28" y="116.5234">User</text><text fill="#000000" font-family="sans-serif" font-size="14" lengthAdjust="spacing" textLength="245.4443" x="151.28" y="133.0117">Interacts via natural language or CLI</text></g><!--entity clawhub_registry--><g class="entity" data-qualified-name="clawhub_registry" data-source-line="22" id="ent0006"><rect fill="#F8FAFC" height="52.9766" rx="2.5" ry="2.5" style="stroke:#4B5563;stroke-width:0.5;" width="317.083" x="612.46" y="565.1383"/><text fill="#111827" font-family="sans-serif" font-size="14" lengthAdjust="spacing" textLength="119.3145" x="622.46" y="588.6734">ClawHub Registry</text><text fill="#111827" font-family="sans-serif" font-size="14" lengthAdjust="spacing" textLength="297.083" x="622.46" y="605.1617">Public skill database &amp; vector search engine</text></g><!--link user to nanobot_core--><g class="link" data-entity-1="ent0001" data-entity-2="ent0005" data-link-type="dependency" data-source-line="23" id="lnk7"><path d="M274,136.0283 C274,170.5583 274,212.2483 274,243.5983" fill="none" id="user-to-nanobot_core" style="stroke:#181818;stroke-width:1;"/><polygon fill="#181818" points="274,248.5983,278,239.5983,274,243.5983,270,239.5983,274,248.5983" style="stroke:#181818;stroke-width:1;stroke-linejoin:miter;stroke-miterlimit:10;"/><text fill="#000000" font-family="sans-serif" font-size="13" lengthAdjust="spacing" textLength="176.7188" x="275" y="179.5366">Requests skill install/search</text><text fill="#000000" font-family="sans-serif" font-size="13" lengthAdjust="spacing" textLength="110.9634" x="307.8777" y="194.8472">Natural Language</text></g><!--link nanobot_core to clawhub_skill--><g class="link" data-entity-1="ent0005" data-entity-2="ent0003" data-link-type="dependency" data-source-line="24" id="lnk8"><path d="M301.9,318.5683 C320.86,341.5883 342.6703,368.0695 361.6803,391.1395" fill="none" id="nanobot_core-to-clawhub_skill" style="stroke:#181818;stroke-width:1;"/><polygon fill="#181818" points="364.86,394.9983,362.2236,385.5088,361.6803,391.1395,356.0496,390.5963,364.86,394.9983" style="stroke:#181818;stroke-width:1;stroke-linejoin:miter;stroke-miterlimit:10;"/><text fill="#000000" font-family="sans-serif" font-size="13" lengthAdjust="spacing" textLength="92.3774" x="338.07" y="361.9966">Delegates task</text></g><!--link clawhub_skill to clawhub_registry--><g class="link" data-entity-1="ent0003" data-entity-2="ent0006" data-link-type="dependency" data-source-line="25" id="lnk9"><path d="M421.88,465.1783 C441.35,485.9983 468.75,511.4983 498,526.8983 C511.94,534.2283 576.7544,549.3849 642.2244,563.6349" fill="none" id="clawhub_skill-to-clawhub_registry" style="stroke:#181818;stroke-width:1;"/><polygon fill="#181818" points="647.11,564.6983,639.1666,558.8757,642.2244,563.6349,637.4652,566.6927,647.11,564.6983" style="stroke:#181818;stroke-width:1;stroke-linejoin:miter;stroke-miterlimit:10;"/><text fill="#000000" font-family="sans-serif" font-size="13" lengthAdjust="spacing" textLength="192.8735" x="499" y="508.4666">1. Search skills (Vector Search)</text><text fill="#000000" font-family="sans-serif" font-size="13" lengthAdjust="spacing" textLength="71.2207" x="559.8264" y="523.7772">HTTPS/npx</text></g><!--link clawhub_skill to clawhub_registry--><g class="link" data-entity-1="ent0003" data-entity-2="ent0006" data-link-type="dependency" data-source-line="26" id="lnk10"><path d="M579.9,449.2583 C620.25,458.8183 661.2,473.2283 696,494.8983 C723.42,511.9683 742.35,538.5039 755.16,560.5739" fill="none" id="clawhub_skill-to-clawhub_registry-1" style="stroke:#181818;stroke-width:1;"/><polygon fill="#181818" points="757.67,564.8983,756.6115,555.1065,755.16,560.5739,749.6926,559.1224,757.67,564.8983" style="stroke:#181818;stroke-width:1;stroke-linejoin:miter;stroke-miterlimit:10;"/><text fill="#000000" font-family="sans-serif" font-size="13" lengthAdjust="spacing" textLength="136.1191" x="731.33" y="508.4666">2. Fetch skill package</text><text fill="#000000" font-family="sans-serif" font-size="13" lengthAdjust="spacing" textLength="71.2207" x="763.7792" y="523.7772">HTTPS/npx</text></g><!--link clawhub_skill to workspace--><g class="link" data-entity-1="ent0003" data-entity-2="ent0004" data-link-type="dependency" data-source-line="27" id="lnk11"><path d="M273.85,465.2583 C256.13,473.3183 238.86,483.0983 224,494.8983 C203.33,511.2983 189.3429,531.8426 178.3329,552.1526" fill="none" id="clawhub_skill-to-workspace" style="stroke:#181818;stroke-width:1;"/><polygon fill="#181818" points="175.95,556.5483,183.7557,550.5424,178.3329,552.1526,176.7227,546.7298,175.95,556.5483" style="stroke:#181818;stroke-width:1;stroke-linejoin:miter;stroke-miterlimit:10;"/><text fill="#000000" font-family="sans-serif" font-size="13" lengthAdjust="spacing" textLength="160.1133" x="225" y="508.4666">3. Write/Update skill files</text><text fill="#000000" font-family="sans-serif" font-size="13" lengthAdjust="spacing" textLength="46.5029" x="281.8052" y="523.7772">File I/O</text></g><!--link nanobot_core to workspace--><g class="link" data-entity-1="ent0005" data-entity-2="ent0004" data-link-type="dependency" data-source-line="28" id="lnk12"><path d="M167.05,318.8283 C131.36,335.8983 95.49,360.5783 75,395.4283 C43.43,449.1183 86.918,512.9703 122.598,552.8903" fill="none" id="nanobot_core-to-workspace" style="stroke:#181818;stroke-width:1;"/><polygon fill="#181818" points="125.93,556.6183,122.9148,547.2423,122.598,552.8903,116.95,552.5736,125.93,556.6183" style="stroke:#181818;stroke-width:1;stroke-linejoin:miter;stroke-miterlimit:10;"/><text fill="#000000" font-family="sans-serif" font-size="13" lengthAdjust="spacing" textLength="112.4043" x="76" y="427.7266">4. Load new skills</text><text fill="#000000" font-family="sans-serif" font-size="13" lengthAdjust="spacing" textLength="95.7354" x="84.3345" y="443.0372">Session Restart</text></g><?plantuml-src hL9DRzD04BtxLunI2S6XiT8Fg7f0Wa3KIA5KJKilaQgnFN5MMS-QtNNJg8BVpiHUkp5KY0CtU-RjcpVlZLihBj5Y0GccwzoQYhEnqSQ2jyXEMiG-SXtAhJ0p6yKvB54xskkafYWD2thkjvh0KkgHSqsHDoLu0udntXIGgLr76NxfAJn501-DpSWs8WvEajFJjyUxwc_o3fPdIrocqfaOzg4s6etEZjv5F_QuEnt_ZTihBspZJlEKFLciTpg7iSRDHPN0VAsqXY_8c9EDf2iKWrj7Ti4jti63Gc3qbKKDMaHM0WO1ZcVJ0Q23Il1HAU9szS4biX4JORvrdeeQmA7q53rREEX9M71GOh9AKnXUMfBfIZu5Zvp9p7H5JXBtvC3L3ufQUY68Ub8gfAigkQ-R-zDQLNV6hkLSKfanKU9FetB1F-DXK1blMaXSixYuPkwgBx6EZHN23_ckU5snLuNyVdwajEgKkdg3HgwKo3a9Oj-T-rH89BVdI-WikgPSoThR1LzLYLPfs3r3ZmawWbVmG7LqZb0i0k9SCVKCiO4YseK5XuVlUsFXN6PyhyJRrbV5pgFMSSEuuCkG_opa7_MUx_XwrWlX9zAKrqbvTEketzv_q4gJDwCXp9iLWcUllpMBDTKt2xwukRcQnrm-_XlXqH0cv5i-24VwTvekQNb_F8Gxgpp5jwMuJO5cAPVZmW5Duwz_Uh5FSJA4cS4Cc3PXApds9dunNLos_XS0?></g></svg>