<svg xmlns="http://www.w3.org/2000/svg" xmlns:xlink="http://www.w3.org/1999/xlink" contentStyleType="text/css" data-diagram-type="DESCRIPTION" height="479px" preserveAspectRatio="none" style="width:954px;height:479px;" version="1.1" viewBox="0 0 954 479" width="954px" zoomAndPan="magnify"><?plantuml 1.2026.5?><defs><style><![CDATA[
@media (prefers-color-scheme: dark) {
  text { fill: #e5e7eb !important; }
  path, line, rect, circle, ellipse, polygon, polyline { stroke: #cbd5e1 !important; }
  .entity rect, .participant rect, .participant path, .sequenceLine rect, .class rect, .component rect, .component path, .note rect { fill: #111827 !important; }
  .cluster path { fill: none !important; }
  polygon { fill: #cbd5e1 !important; }
}
]]></style></defs><g><!--cluster NB--><g class="cluster" data-qualified-name="NB" data-source-line="13" id="ent0001"><path d="M8.5,6 L126.6611,6 A3.75,3.75 0 0 1 129.1611,8.5 L136.1611,28.4883 L715.5,28.4883 A2.5,2.5 0 0 1 718,30.9883 L718,461.94 A2.5,2.5 0 0 1 715.5,464.44 L8.5,464.44 A2.5,2.5 0 0 1 6,461.94 L6,8.5 A2.5,2.5 0 0 1 8.5,6" fill="none" style="stroke:#64748B;stroke-width:1.5;"/><line style="stroke:#64748B;stroke-width:1.5;" x1="6" x2="136.1611" y1="28.4883" y2="28.4883"/><text fill="#000000" font-family="sans-serif" font-size="14" font-weight="700" lengthAdjust="spacing" textLength="117.1611" x="10" y="21.5352">Nanobot System</text></g><!--cluster Memory--><g class="cluster" data-qualified-name="NB.Memory" data-source-line="14" id="ent0002"><path d="M32.5,49 L179.0439,49 A3.75,3.75 0 0 1 181.5439,51.5 L188.5439,71.4883 L329.5,71.4883 A2.5,2.5 0 0 1 332,73.9883 L332,301.45 A2.5,2.5 0 0 1 329.5,303.95 L32.5,303.95 A2.5,2.5 0 0 1 30,301.45 L30,51.5 A2.5,2.5 0 0 1 32.5,49" fill="none" style="stroke:#64748B;stroke-width:1.5;"/><line style="stroke:#64748B;stroke-width:1.5;" x1="30" x2="188.5439" y1="71.4883" y2="71.4883"/><text fill="#000000" font-family="sans-serif" font-size="14" font-weight="700" lengthAdjust="spacing" textLength="145.5439" x="34" y="64.5352">Memory Component</text></g><!--cluster Core--><g class="cluster" data-qualified-name="NB.Core" data-source-line="18" id="ent0005"><path d="M358.5,208.22 L458.6143,208.22 A3.75,3.75 0 0 1 461.1143,210.72 L468.1143,230.7083 L691.5,230.7083 A2.5,2.5 0 0 1 694,233.2083 L694,437.94 A2.5,2.5 0 0 1 691.5,440.44 L358.5,440.44 A2.5,2.5 0 0 1 356,437.94 L356,210.72 A2.5,2.5 0 0 1 358.5,208.22" fill="none" style="stroke:#64748B;stroke-width:1.5;"/><line style="stroke:#64748B;stroke-width:1.5;" x1="356" x2="468.1143" y1="230.7083" y2="230.7083"/><text fill="#000000" font-family="sans-serif" font-size="14" font-weight="700" lengthAdjust="spacing" textLength="99.1143" x="360" y="223.7552">Nanobot Core</text></g><!--cluster Storage--><g class="cluster" data-qualified-name="Storage" data-source-line="23" id="ent0008"><path d="M744.5,199.98 L861.499,199.98 A3.75,3.75 0 0 1 863.999,202.48 L870.999,222.4683 L873.5,222.4683 A2.5,2.5 0 0 1 876,224.9683 L876,301.45 A2.5,2.5 0 0 1 873.5,303.95 L744.5,303.95 A2.5,2.5 0 0 1 742,301.45 L742,202.48 A2.5,2.5 0 0 1 744.5,199.98" fill="none" style="stroke:#64748B;stroke-width:1.5;"/><line style="stroke:#64748B;stroke-width:1.5;" x1="742" x2="870.999" y1="222.4683" y2="222.4683"/><text fill="#000000" font-family="sans-serif" font-size="14" font-weight="700" lengthAdjust="spacing" textLength="115.999" x="746" y="215.5152">Persistent Layer</text></g><!--cluster External--><g class="cluster" data-qualified-name="External" data-source-line="26" id="ent0010"><path d="M776.5,352.95 L927.0498,352.95 A3.75,3.75 0 0 1 929.5498,355.45 L936.5498,375.4383 L936.5,375.4383 A2.5,2.5 0 0 1 939,377.9383 L939,437.94 A2.5,2.5 0 0 1 936.5,440.44 L776.5,440.44 A2.5,2.5 0 0 1 774,437.94 L774,355.45 A2.5,2.5 0 0 1 776.5,352.95" fill="none" style="stroke:#64748B;stroke-width:1.5;"/><line style="stroke:#64748B;stroke-width:1.5;" x1="774" x2="936.5498" y1="375.4383" y2="375.4383"/><text fill="#000000" font-family="sans-serif" font-size="14" font-weight="700" lengthAdjust="spacing" textLength="149.5498" x="778" y="368.4852">External Interactions</text></g><!--entity MD--><g class="entity" data-qualified-name="NB.Memory.MD" data-source-line="15" id="ent0003"><rect fill="#F8FAFC" height="52.9766" rx="2.5" ry="2.5" style="stroke:#4B5563;stroke-width:0.5;" width="158.4072" x="142.8" y="84"/><text fill="#111827" font-family="sans-serif" font-size="14" lengthAdjust="spacing" textLength="86.4678" x="178.7697" y="107.5352">MEMORY.md</text><text fill="#111827" font-family="sans-serif" font-size="14" lengthAdjust="spacing" textLength="138.4072" x="152.8" y="124.0234">Structured Template</text></g><!--entity PY--><g class="entity" data-qualified-name="NB.Memory.PY" data-source-line="16" id="ent0004"><rect fill="#F8FAFC" height="52.9766" rx="2.5" ry="2.5" style="stroke:#4B5563;stroke-width:0.5;" width="133.7705" x="104.11" y="234.98"/><text fill="#111827" font-family="sans-serif" font-size="14" lengthAdjust="spacing" text-decoration="underline" textLength="22.0186" x="149.7081" y="258.5152">init</text><text fill="#111827" font-family="sans-serif" font-size="14" lengthAdjust="spacing" textLength="20.5557" x="171.7267" y="258.5152">.py</text><text fill="#111827" font-family="sans-serif" font-size="14" lengthAdjust="spacing" textLength="113.7705" x="114.11" y="275.0034">Module Interface</text></g><!--entity ENG--><g class="entity" data-qualified-name="NB.Core.ENG" data-source-line="19" id="ent0006"><rect fill="#F8FAFC" height="36.4883" rx="2.5" ry="2.5" style="stroke:#4B5563;stroke-width:0.5;" width="142.9307" x="503.53" y="243.22"/><text fill="#111827" font-family="sans-serif" font-size="14" lengthAdjust="spacing" textLength="122.9307" x="513.53" y="266.7552">Interaction Engine</text></g><!--entity PROC--><g class="entity" data-qualified-name="NB.Core.PROC" data-source-line="20" id="ent0007"><rect fill="#F8FAFC" height="36.4883" rx="2.5" ry="2.5" style="stroke:#4B5563;stroke-width:0.5;" width="143.9014" x="372.05" y="387.95"/><text fill="#111827" font-family="sans-serif" font-size="14" lengthAdjust="spacing" textLength="123.9014" x="382.05" y="411.4852">Context Processor</text></g><!--entity FS--><g class="entity" data-qualified-name="Storage.FS" data-source-line="24" id="ent0009"><rect fill="#F8FAFC" height="52.9766" rx="2.5" ry="2.5" style="stroke:#4B5563;stroke-width:0.5;" width="102.1064" x="757.95" y="234.98"/><text fill="#111827" font-family="sans-serif" font-size="14" lengthAdjust="spacing" textLength="75.9268" x="771.0398" y="258.5152">File System</text><text fill="#111827" font-family="sans-serif" font-size="14" lengthAdjust="spacing" textLength="82.1064" x="767.95" y="275.0034">.md Storage</text></g><!--entity USER--><g class="entity" data-qualified-name="External.USER" data-source-line="27" id="ent0011"><rect fill="#F8FAFC" height="36.4883" rx="2.5" ry="2.5" style="stroke:#4B5563;stroke-width:0.5;" width="112.8799" x="799.56" y="387.95"/><text fill="#111827" font-family="sans-serif" font-size="14" lengthAdjust="spacing" textLength="92.8799" x="809.56" y="411.4852">User Sessions</text></g><!--link USER to ENG--><g class="link" data-entity-1="ent0011" data-entity-2="ent0006" data-link-type="dependency" data-source-line="29" id="lnk12"><path d="M858.09,387.53 C859.31,367.89 857.81,336.72 839,319.95 C822.86,305.56 763.26,315.93 742,311.95 C701.87,304.43 662.3741,292.659 629.5041,281.719" fill="none" id="USER-to-ENG" style="stroke:#4B5563;stroke-width:1;"/><polygon fill="#4B5563" points="624.76,280.14,632.0363,286.7775,629.5041,281.719,634.5626,279.1868,624.76,280.14" style="stroke:#4B5563;stroke-width:1;stroke-linejoin:miter;stroke-miterlimit:10;"/><text fill="#000000" font-family="sans-serif" font-size="13" lengthAdjust="spacing" textLength="80.3804" x="851.92" y="333.5184">Session Data</text></g><!--link ENG to USER--><g class="link" data-entity-1="ent0006" data-entity-2="ent0011" data-link-type="dependency" data-source-line="38" id="lnk21"><path d="M606.04,280.17 C633.42,295.62 674.53,318.4 711,336.95 C746.46,354.99 783.0025,372.0914 812.3625,385.5114" fill="none" id="ENG-to-USER" style="stroke:#4B5563;stroke-width:1;"/><polygon fill="#4B5563" points="816.91,387.59,810.3874,380.2106,812.3625,385.5114,807.0617,387.4865,816.91,387.59" style="stroke:#4B5563;stroke-width:1;stroke-linejoin:miter;stroke-miterlimit:10;"/><text fill="#000000" font-family="sans-serif" font-size="13" lengthAdjust="spacing" textLength="118.3076" x="712" y="333.5184">Personalized Reply</text></g><!--link ENG to PROC--><g class="link" data-entity-1="ent0006" data-entity-2="ent0007" data-link-type="dependency" data-source-line="30" id="lnk13"><path d="M503.14,267.48 C467.17,274.06 426.58,288.54 404,319.95 C388.64,341.32 405.0074,365.8757 421.8074,383.8657" fill="none" id="ENG-to-PROC" style="stroke:#4B5563;stroke-width:1;"/><polygon fill="#4B5563" points="425.22,387.52,422.0008,378.2121,421.8074,383.8657,416.1538,383.6723,425.22,387.52" style="stroke:#4B5563;stroke-width:1;stroke-linejoin:miter;stroke-miterlimit:10;"/><text fill="#000000" font-family="sans-serif" font-size="13" lengthAdjust="spacing" textLength="94.688" x="405" y="333.5184">Significant Info</text></g><!--link PROC to ENG--><g class="link" data-entity-1="ent0007" data-entity-2="ent0006" data-link-type="dependency" data-source-line="37" id="lnk20"><path d="M460.19,387.55 C485.42,360.07 530.4083,311.0429 555.5583,283.6529" fill="none" id="PROC-to-ENG" style="stroke:#4B5563;stroke-width:1;"/><polygon fill="#4B5563" points="558.94,279.97,549.9066,283.8939,555.5583,283.6529,555.7992,289.3046,558.94,279.97" style="stroke:#4B5563;stroke-width:1;stroke-linejoin:miter;stroke-miterlimit:10;"/><text fill="#000000" font-family="sans-serif" font-size="13" lengthAdjust="spacing" textLength="133.3008" x="522.23" y="333.5184">Contextual Response</text></g><!--link PROC to PY--><g class="link" data-entity-1="ent0007" data-entity-2="ent0004" data-link-type="dependency" data-source-line="31" id="lnk14"><path d="M405.37,387.51 C376.61,374.13 336.53,355.04 302,336.95 C272.57,321.53 244.4226,305.5931 219.1726,290.9131" fill="none" id="PROC-to-PY" style="stroke:#4B5563;stroke-width:1;"/><polygon fill="#4B5563" points="214.85,288.4,220.6201,296.3816,219.1726,290.9131,224.6411,289.4655,214.85,288.4" style="stroke:#4B5563;stroke-width:1;stroke-linejoin:miter;stroke-miterlimit:10;"/><text fill="#000000" font-family="sans-serif" font-size="13" lengthAdjust="spacing" textLength="87.0898" x="303" y="333.5184">Write Memory</text></g><!--link PY to PROC--><g class="link" data-entity-1="ent0004" data-entity-2="ent0007" data-link-type="dependency" data-source-line="36" id="lnk19"><path d="M159.23,288.45 C154.09,304.06 151.37,323.44 162,336.95 C187.66,369.56 292.1285,387.8407 366.8785,397.1707" fill="none" id="PY-to-PROC" style="stroke:#4B5563;stroke-width:1;"/><polygon fill="#4B5563" points="371.84,397.79,363.4047,392.7061,366.8785,397.1707,362.4139,400.6445,371.84,397.79" style="stroke:#4B5563;stroke-width:1;stroke-linejoin:miter;stroke-miterlimit:10;"/><text fill="#000000" font-family="sans-serif" font-size="13" lengthAdjust="spacing" textLength="101.188" x="163" y="333.5184">Provide Memory</text></g><!--link PY to MD--><g class="link" data-entity-1="ent0004" data-entity-2="ent0003" data-link-type="dependency" data-source-line="32" id="lnk15"><path d="M179.87,234.56 C189.19,207.32 202.1594,169.4301 211.4994,142.1701" fill="none" id="PY-to-MD" style="stroke:#4B5563;stroke-width:1;"/><polygon fill="#4B5563" points="213.12,137.44,206.4188,144.6576,211.4994,142.1701,213.9869,147.2506,213.12,137.44" style="stroke:#4B5563;stroke-width:1;stroke-linejoin:miter;stroke-miterlimit:10;"/><text fill="#000000" font-family="sans-serif" font-size="13" lengthAdjust="spacing" textLength="107.2119" x="203.57" y="180.5484">Render Template</text></g><!--link MD to PY--><g class="link" data-entity-1="ent0003" data-entity-2="ent0004" data-link-type="dependency" data-source-line="35" id="lnk18"><path d="M142.4,133.82 C127.18,141.8 113.16,152.55 104,166.98 C89.02,190.58 106.5963,213.1463 129.1063,231.6363" fill="none" id="MD-to-PY" style="stroke:#4B5563;stroke-width:1;"/><polygon fill="#4B5563" points="132.97,234.81,128.5543,226.0065,129.1063,231.6363,123.4765,232.1883,132.97,234.81" style="stroke:#4B5563;stroke-width:1;stroke-linejoin:miter;stroke-miterlimit:10;"/><text fill="#000000" font-family="sans-serif" font-size="13" lengthAdjust="spacing" textLength="84.3794" x="105" y="180.5484">Load Context</text></g><!--link MD to FS--><g class="link" data-entity-1="ent0003" data-entity-2="ent0009" data-link-type="dependency" data-source-line="33" id="lnk16"><path d="M301.54,126.87 C383.63,142.45 515.47,166.66 630,183.98 C658.34,188.26 666.89,182.67 694,191.98 C722.79,201.86 748.0999,216.7418 769.9799,231.6718" fill="none" id="MD-to-FS" style="stroke:#4B5563;stroke-width:1;"/><polygon fill="#4B5563" points="774.11,234.49,768.9304,226.1131,769.9799,231.6718,764.4213,232.7213,774.11,234.49" style="stroke:#4B5563;stroke-width:1;stroke-linejoin:miter;stroke-miterlimit:10;"/><text fill="#000000" font-family="sans-serif" font-size="13" lengthAdjust="spacing" textLength="41.6216" x="631" y="180.5484">Persist</text></g><!--link FS to MD--><g class="link" data-entity-1="ent0009" data-entity-2="ent0003" data-link-type="dependency" data-source-line="34" id="lnk17"><path d="M781.55,234.76 C756.4,212.83 717.08,182.46 677,166.98 C610.29,141.19 417.9278,124.6085 306.2878,116.8085" fill="none" id="FS-to-MD" style="stroke:#4B5563;stroke-width:1;"/><polygon fill="#4B5563" points="301.3,116.46,309.9993,121.0776,306.2878,116.8085,310.5569,113.097,301.3,116.46" style="stroke:#4B5563;stroke-width:1;stroke-linejoin:miter;stroke-miterlimit:10;"/><text fill="#000000" font-family="sans-serif" font-size="13" lengthAdjust="spacing" textLength="75.5371" x="709.77" y="180.5484">Read on Init</text></g><?plantuml-src ZLDDQzj04BtlhnYSSm9kdSJqK4ZyKGonOwI4OZ2OjJHIbqWxOdVLn0tzxvdLIexSvD2B9CzxC-_DX-sJqfKqieIzJ9voGxLE9rIG0MUajWoXTi8UMVQNJEbPwHmoMLZi8IbciYxS0xwucqBbkkH4IFY1fiUwCOQUWy3PQ7zvUVMr1wxPWipnbaoAfYLTZQv7u_qdfF-oQp1nKkS5mgi0E2dSgWFCIRisDXmEnr-kFVEVwcVPE9DP8luAHnKuWZqvHzoqyWgAjAY2BHYif2P68JvOX-K0f8NLBSiV2KiioHnWGcL5ckqsb3RuAjuT3vQpvNsqkIZJhOwTgHDN6qpX0Skga0v3shIViDifhTnkTr4Tjdf9QSt1XLz09fF0Ns-uXGzM9sG2x3zEFJJficaHPZfNEX1dgnzzreH7o7k7jQ44hIKJnABx2Slr1DTehEAny6NSoGC6Mkp8UFH4Twxu6KQurJo2ZjLapED-qTaBMzIoW9vN6rnso4dfHui6OhPvv3t6iuWh-XUSdt_ttS6tZW9JwQJm8G_vdZp61wuobKZkPA4p4asy8MmO_ccKmtQdWYCUM4uPY53p1HvtA3ZeiNdCM3iSmJzwV9a2UrZmNZjoet173BHZxnHQRxo4tofzb--SXQxQd9gd4g7b2-G_STTSCu1WX7XiwW-VMuHLSNW3?></g></svg>