<svg xmlns="http://www.w3.org/2000/svg" xmlns:xlink="http://www.w3.org/1999/xlink" contentStyleType="text/css" data-diagram-type="DESCRIPTION" height="831px" preserveAspectRatio="none" style="width:1056px;height:831px;" version="1.1" viewBox="0 0 1056 831" width="1056px" zoomAndPan="magnify"><?plantuml 1.2026.5?><defs><style><![CDATA[
@media (prefers-color-scheme: dark) {
  text { fill: #e5e7eb !important; }
  path, line, rect, circle, ellipse, polygon, polyline { stroke: #cbd5e1 !important; }
  .entity rect, .participant rect, .participant path, .sequenceLine rect, .class rect, .component rect, .component path, .note rect { fill: #111827 !important; }
  .cluster path { fill: none !important; }
  polygon { fill: #cbd5e1 !important; }
}
]]></style></defs><g><!--cluster External--><g class="cluster" data-qualified-name="External" data-source-line="13" id="ent0001"><path d="M506.5,532.44 L622.542,532.44 A3.75,3.75 0 0 1 625.042,534.94 L632.042,554.9283 L1038.5,554.9283 A2.5,2.5 0 0 1 1041,557.4283 L1041,633.91 A2.5,2.5 0 0 1 1038.5,636.41 L506.5,636.41 A2.5,2.5 0 0 1 504,633.91 L504,534.94 A2.5,2.5 0 0 1 506.5,532.44" fill="none" style="stroke:#64748B;stroke-width:1.5;"/><line style="stroke:#64748B;stroke-width:1.5;" x1="504" x2="632.042" y1="554.9283" y2="554.9283"/><text fill="#000000" font-family="sans-serif" font-size="14" font-weight="700" lengthAdjust="spacing" textLength="115.042" x="508" y="547.9752">External System</text></g><!--cluster HeartbeatComponent--><g class="cluster" data-qualified-name="HeartbeatComponent" data-source-line="18" id="ent0005"><path d="M8.5,6 L145.918,6 A3.75,3.75 0 0 1 148.418,8.5 L155.418,28.4883 L477.5,28.4883 A2.5,2.5 0 0 1 480,30.9883 L480,813.89 A2.5,2.5 0 0 1 477.5,816.39 L8.5,816.39 A2.5,2.5 0 0 1 6,813.89 L6,8.5 A2.5,2.5 0 0 1 8.5,6" fill="none" style="stroke:#64748B;stroke-width:1.5;"/><line style="stroke:#64748B;stroke-width:1.5;" x1="6" x2="155.418" y1="28.4883" y2="28.4883"/><text fill="#000000" font-family="sans-serif" font-size="14" font-weight="700" lengthAdjust="spacing" textLength="136.418" x="10" y="21.5352">nanobot/heartbeat</text></g><!--cluster Interface--><g class="cluster" data-qualified-name="HeartbeatComponent.Interface" data-source-line="19" id="ent0006"><path d="M137.5,49 L259.7559,49 A3.75,3.75 0 0 1 262.2559,51.5 L269.2559,87.9766 L298.5,87.9766 A2.5,2.5 0 0 1 301,90.4766 L301,166.47 A2.5,2.5 0 0 1 298.5,168.97 L137.5,168.97 A2.5,2.5 0 0 1 135,166.47 L135,51.5 A2.5,2.5 0 0 1 137.5,49" fill="none" style="stroke:#64748B;stroke-width:1.5;"/><line style="stroke:#64748B;stroke-width:1.5;" x1="135" x2="269.2559" y1="87.9766" y2="87.9766"/><text fill="#000000" font-family="sans-serif" font-size="14" font-weight="700" lengthAdjust="spacing" text-decoration="underline" textLength="23.9736" x="177.1924" y="64.5352">init</text><text fill="#000000" font-family="sans-serif" font-size="14" font-weight="700" lengthAdjust="spacing" textLength="20.8975" x="201.166" y="64.5352">.py</text><text fill="#000000" font-family="sans-serif" font-size="14" font-weight="700" lengthAdjust="spacing" textLength="121.2559" x="139" y="81.0234">Module Interface</text></g><!--cluster Core--><g class="cluster" data-qualified-name="HeartbeatComponent.Core" data-source-line="22" id="ent0008"><path d="M32.5,201.97 L185.0869,201.97 A3.75,3.75 0 0 1 187.5869,204.47 L194.5869,240.9466 L453.5,240.9466 A2.5,2.5 0 0 1 456,243.4466 L456,789.89 A2.5,2.5 0 0 1 453.5,792.39 L32.5,792.39 A2.5,2.5 0 0 1 30,789.89 L30,204.47 A2.5,2.5 0 0 1 32.5,201.97" fill="none" style="stroke:#64748B;stroke-width:1.5;"/><line style="stroke:#64748B;stroke-width:1.5;" x1="30" x2="194.5869" y1="240.9466" y2="240.9466"/><text fill="#000000" font-family="sans-serif" font-size="14" font-weight="700" lengthAdjust="spacing" textLength="71.8936" x="73.8467" y="217.5052">service.py</text><text fill="#000000" font-family="sans-serif" font-size="14" font-weight="700" lengthAdjust="spacing" textLength="151.5869" x="34" y="233.9934">Core Implementation</text></g><!--cluster Lifecycle--><g class="cluster" data-qualified-name="HeartbeatComponent.Core.Lifecycle" data-source-line="23" id="ent0009"><path d="M79.5,260.97 L240.085,260.97 A3.75,3.75 0 0 1 242.585,263.47 L249.585,283.4583 L406.5,283.4583 A2.5,2.5 0 0 1 409,285.9583 L409,345.96 A2.5,2.5 0 0 1 406.5,348.46 L79.5,348.46 A2.5,2.5 0 0 1 77,345.96 L77,263.47 A2.5,2.5 0 0 1 79.5,260.97" fill="none" style="stroke:#64748B;stroke-width:1.5;"/><line style="stroke:#64748B;stroke-width:1.5;" x1="77" x2="249.585" y1="283.4583" y2="283.4583"/><text fill="#000000" font-family="sans-serif" font-size="14" font-weight="700" lengthAdjust="spacing" textLength="159.585" x="81" y="276.5052">Lifecycle Management</text></g><!--cluster Engine--><g class="cluster" data-qualified-name="HeartbeatComponent.Core.Engine" data-source-line="28" id="ent0013"><path d="M56.5,381.46 L181.6816,381.46 A3.75,3.75 0 0 1 184.1816,383.96 L191.1816,403.9483 L429.5,403.9483 A2.5,2.5 0 0 1 432,406.4483 L432,765.89 A2.5,2.5 0 0 1 429.5,768.39 L56.5,768.39 A2.5,2.5 0 0 1 54,765.89 L54,383.96 A2.5,2.5 0 0 1 56.5,381.46" fill="none" style="stroke:#64748B;stroke-width:1.5;"/><line style="stroke:#64748B;stroke-width:1.5;" x1="54" x2="191.1816" y1="403.9483" y2="403.9483"/><text fill="#000000" font-family="sans-serif" font-size="14" font-weight="700" lengthAdjust="spacing" textLength="124.1816" x="58" y="396.9952">Heartbeat Engine</text></g><!--entity WORKSPACE--><g class="entity" data-qualified-name="External.WORKSPACE" data-source-line="14" id="ent0002"><rect fill="#F8FAFC" height="52.9766" rx="2.5" ry="2.5" style="stroke:#4B5563;stroke-width:0.5;" width="125.7041" x="520.15" y="567.44"/><text fill="#111827" font-family="sans-serif" font-size="14" lengthAdjust="spacing" textLength="96.5674" x="534.7184" y="590.9752">&#128193; Workspace</text><text fill="#111827" font-family="sans-serif" font-size="14" lengthAdjust="spacing" textLength="105.7041" x="530.15" y="607.4634">HEARTBEAT.md</text></g><!--entity CALLBACKS--><g class="entity" data-qualified-name="External.CALLBACKS" data-source-line="15" id="ent0003"><rect fill="#F8FAFC" height="52.9766" rx="2.5" ry="2.5" style="stroke:#4B5563;stroke-width:0.5;" width="178.6553" x="846.67" y="567.44"/><text fill="#111827" font-family="sans-serif" font-size="14" lengthAdjust="spacing" textLength="87.9746" x="892.0103" y="590.9752">&#128268; Callbacks</text><text fill="#111827" font-family="sans-serif" font-size="14" lengthAdjust="spacing" textLength="158.6553" x="856.67" y="607.4634">(on_execute, on_notify)</text></g><!--entity LLM_PROVIDER--><g class="entity" data-qualified-name="External.LLM_PROVIDER" data-source-line="16" id="ent0004"><rect fill="#F8FAFC" height="36.4883" rx="2.5" ry="2.5" style="stroke:#4B5563;stroke-width:0.5;" width="130.5469" x="680.73" y="575.68"/><text fill="#111827" font-family="sans-serif" font-size="14" lengthAdjust="spacing" textLength="110.5469" x="690.73" y="599.2152">&#129302; LLM Provider</text></g><!--entity PUBLIC--><g class="entity" data-qualified-name="HeartbeatComponent.Interface.PUBLIC" data-source-line="20" id="ent0007"><rect fill="#F8FAFC" height="52.9766" rx="2.5" ry="2.5" style="stroke:#4B5563;stroke-width:0.5;" width="133.6953" x="151.15" y="100"/><text fill="#111827" font-family="sans-serif" font-size="14" lengthAdjust="spacing" textLength="113.6953" x="161.15" y="123.5352">HeartbeatService</text><text fill="#111827" font-family="sans-serif" font-size="14" lengthAdjust="spacing" textLength="75.4688" x="180.2633" y="140.0234">(Public API)</text></g><!--entity START--><g class="entity" data-qualified-name="HeartbeatComponent.Core.Lifecycle.START" data-source-line="24" id="ent0010"><rect fill="#F8FAFC" height="36.4883" rx="2.5" ry="2.5" style="stroke:#4B5563;stroke-width:0.5;" width="60.1748" x="92.91" y="295.97"/><text fill="#111827" font-family="sans-serif" font-size="14" lengthAdjust="spacing" textLength="40.1748" x="102.91" y="319.5052">start()</text></g><!--entity STOP--><g class="entity" data-qualified-name="HeartbeatComponent.Core.Lifecycle.STOP" data-source-line="25" id="ent0011"><rect fill="#F8FAFC" height="36.4883" rx="2.5" ry="2.5" style="stroke:#4B5563;stroke-width:0.5;" width="58.8896" x="188.56" y="295.97"/><text fill="#111827" font-family="sans-serif" font-size="14" lengthAdjust="spacing" textLength="38.8896" x="198.56" y="319.5052">stop()</text></g><!--entity TRIGGER--><g class="entity" data-qualified-name="HeartbeatComponent.Core.Lifecycle.TRIGGER" data-source-line="26" id="ent0012"><rect fill="#F8FAFC" height="36.4883" rx="2.5" ry="2.5" style="stroke:#4B5563;stroke-width:0.5;" width="110.1797" x="282.91" y="295.97"/><text fill="#111827" font-family="sans-serif" font-size="14" lengthAdjust="spacing" textLength="90.1797" x="292.91" y="319.5052">trigger_now()</text></g><!--entity LOOP--><g class="entity" data-qualified-name="HeartbeatComponent.Core.Engine.LOOP" data-source-line="29" id="ent0014"><rect fill="#F8FAFC" height="52.9766" rx="2.5" ry="2.5" style="stroke:#4B5563;stroke-width:0.5;" width="171.751" x="70.12" y="416.46"/><text fill="#111827" font-family="sans-serif" font-size="14" lengthAdjust="spacing" textLength="101.3047" x="105.3431" y="439.9952">&#9200; Async Loop</text><text fill="#111827" font-family="sans-serif" font-size="14" lengthAdjust="spacing" textLength="151.751" x="80.12" y="456.4834">(Configurable Interval)</text></g><!--entity READER--><g class="entity" data-qualified-name="HeartbeatComponent.Core.Engine.READER" data-source-line="30" id="ent0015"><rect fill="#F8FAFC" height="52.9766" rx="2.5" ry="2.5" style="stroke:#4B5563;stroke-width:0.5;" width="134.8096" x="263.6" y="567.44"/><text fill="#111827" font-family="sans-serif" font-size="14" lengthAdjust="spacing" textLength="97.9824" x="282.0136" y="590.9752">&#128196; File Reader</text><text fill="#111827" font-family="sans-serif" font-size="14" lengthAdjust="spacing" textLength="114.8096" x="273.6" y="607.4634">(HEARTBEAT.md)</text></g><!--entity DECIDER--><g class="entity" data-qualified-name="HeartbeatComponent.Core.Engine.DECIDER" data-source-line="31" id="ent0016"><rect fill="#F8FAFC" height="52.9766" rx="2.5" ry="2.5" style="stroke:#4B5563;stroke-width:0.5;" width="148.9668" x="261.52" y="699.41"/><text fill="#111827" font-family="sans-serif" font-size="14" lengthAdjust="spacing" textLength="112.8232" x="279.5918" y="722.9452">&#129504; LLM Decision</text><text fill="#111827" font-family="sans-serif" font-size="14" lengthAdjust="spacing" textLength="128.9668" x="271.52" y="739.4334">(Phase 1: skip/run)</text></g><!--entity EXECUTOR--><g class="entity" data-qualified-name="HeartbeatComponent.Core.Engine.EXECUTOR" data-source-line="32" id="ent0017"><rect fill="#F8FAFC" height="52.9766" rx="2.5" ry="2.5" style="stroke:#4B5563;stroke-width:0.5;" width="139.1602" x="276.42" y="416.46"/><text fill="#111827" font-family="sans-serif" font-size="14" lengthAdjust="spacing" textLength="119.1602" x="286.42" y="439.9952">&#9889; Task Executor</text><text fill="#111827" font-family="sans-serif" font-size="14" lengthAdjust="spacing" textLength="61.4824" x="315.2589" y="456.4834">(Phase 2)</text></g><!--link PUBLIC to START--><g class="link" data-entity-1="ent0007" data-entity-2="ent0010" data-link-type="dependency" data-source-line="36" id="lnk18"><path d="M197.54,153.42 C188.7,165.35 178.64,179.95 171,193.97 C152.2,228.46 138.1423,267.147 130.2123,290.917" fill="none" id="PUBLIC-to-START" style="stroke:#4B5563;stroke-width:1;"/><polygon fill="#4B5563" points="128.63,295.66,135.2726,288.3884,130.2123,290.917,127.6838,285.8567,128.63,295.66" style="stroke:#4B5563;stroke-width:1;stroke-linejoin:miter;stroke-miterlimit:10;"/></g><!--link PUBLIC to STOP--><g class="link" data-entity-1="ent0007" data-entity-2="ent0011" data-link-type="dependency" data-source-line="37" id="lnk19"><path d="M218,153.31 C218,191.68 218,257.76 218,290.66" fill="none" id="PUBLIC-to-STOP" style="stroke:#4B5563;stroke-width:1;"/><polygon fill="#4B5563" points="218,295.66,222,286.66,218,290.66,214,286.66,218,295.66" style="stroke:#4B5563;stroke-width:1;stroke-linejoin:miter;stroke-miterlimit:10;"/></g><!--link PUBLIC to TRIGGER--><g class="link" data-entity-1="ent0007" data-entity-2="ent0012" data-link-type="dependency" data-source-line="38" id="lnk20"><path d="M236.93,153.42 C245.67,165.6 256.06,180.39 265,193.97 C288.36,229.45 311.3622,267.8419 325.1822,291.3019" fill="none" id="PUBLIC-to-TRIGGER" style="stroke:#4B5563;stroke-width:1;"/><polygon fill="#4B5563" points="327.72,295.61,326.5984,285.8252,325.1822,291.3019,319.7055,289.8857,327.72,295.61" style="stroke:#4B5563;stroke-width:1;stroke-linejoin:miter;stroke-miterlimit:10;"/></g><!--link START to LOOP--><g class="link" data-entity-1="ent0010" data-entity-2="ent0014" data-link-type="dependency" data-source-line="39" id="lnk21"><path d="M127.59,332.84 C133.22,354.47 141.5606,386.4812 148.0206,411.3012" fill="none" id="START-to-LOOP" style="stroke:#4B5563;stroke-width:1;"/><polygon fill="#4B5563" points="149.28,416.14,150.8841,406.4227,148.0206,411.3012,143.142,408.4377,149.28,416.14" style="stroke:#4B5563;stroke-width:1;stroke-linejoin:miter;stroke-miterlimit:10;"/></g><!--link TRIGGER to LOOP--><g class="link" data-entity-1="ent0012" data-entity-2="ent0014" data-link-type="dependency" data-source-line="40" id="lnk22"><path d="M312.69,332.84 C281.63,354.47 232.8134,388.4631 197.1634,413.2831" fill="none" id="TRIGGER-to-LOOP" style="stroke:#4B5563;stroke-width:1;"/><polygon fill="#4B5563" points="193.06,416.14,202.7317,414.2804,197.1634,413.2831,198.1607,407.7149,193.06,416.14" style="stroke:#4B5563;stroke-width:1;stroke-linejoin:miter;stroke-miterlimit:10;"/></g><!--link LOOP to READER--><g class="link" data-entity-1="ent0014" data-entity-2="ent0015" data-link-type="dependency" data-source-line="41" id="lnk23"><path d="M186.48,469.9 C218.5,497.16 264.7627,536.539 296.7627,563.779" fill="none" id="LOOP-to-READER" style="stroke:#4B5563;stroke-width:1;"/><polygon fill="#4B5563" points="300.57,567.02,296.3096,558.1403,296.7627,563.779,291.124,564.2321,300.57,567.02" style="stroke:#4B5563;stroke-width:1;stroke-linejoin:miter;stroke-miterlimit:10;"/><text fill="#000000" font-family="sans-serif" font-size="13" lengthAdjust="spacing" textLength="77.251" x="239.25" y="513.0084">Interval Tick</text></g><!--link READER to WORKSPACE--><g class="link" data-entity-1="ent0015" data-entity-2="ent0002" data-link-type="dependency" data-source-line="42" id="lnk24"><path d="M398.86,593.93 C436.47,593.93 477.94,593.93 514.78,593.93" fill="none" id="READER-to-WORKSPACE" style="stroke:#4B5563;stroke-width:1;"/><polygon fill="#4B5563" points="519.78,593.93,510.78,589.93,514.78,593.93,510.78,597.93,519.78,593.93" style="stroke:#4B5563;stroke-width:1;stroke-linejoin:miter;stroke-miterlimit:10;"/><text fill="#000000" font-family="sans-serif" font-size="13" lengthAdjust="spacing" textLength="71.189" x="423.78" y="587.4984">Read Tasks</text></g><!--link READER to DECIDER--><g class="link" data-entity-1="ent0015" data-entity-2="ent0016" data-link-type="dependency" data-source-line="43" id="lnk25"><path d="M331.99,620.6 C332.86,643.39 333.9491,671.5136 334.8191,694.2836" fill="none" id="READER-to-DECIDER" style="stroke:#4B5563;stroke-width:1;"/><polygon fill="#4B5563" points="335.01,699.28,338.6635,690.1338,334.8191,694.2836,330.6693,690.4393,335.01,699.28" style="stroke:#4B5563;stroke-width:1;stroke-linejoin:miter;stroke-miterlimit:10;"/><text fill="#000000" font-family="sans-serif" font-size="13" lengthAdjust="spacing" textLength="83.8208" x="334.8" y="665.9784">Task Content</text></g><!--link DECIDER to LLM_PROVIDER--><g class="link" data-entity-1="ent0016" data-entity-2="ent0004" data-link-type="dependency" data-source-line="44" id="lnk26"><path d="M410.7,713.03 C478.29,700.78 579.71,678.6 663,644.41 C683.49,636 700.7361,625.8629 716.6861,615.3429" fill="none" id="DECIDER-to-LLM_PROVIDER" style="stroke:#4B5563;stroke-width:1;"/><polygon fill="#4B5563" points="720.86,612.59,711.1447,614.2062,716.6861,615.3429,715.5493,620.8844,720.86,612.59" style="stroke:#4B5563;stroke-width:1;stroke-linejoin:miter;stroke-miterlimit:10;"/><text fill="#000000" font-family="sans-serif" font-size="13" lengthAdjust="spacing" textLength="80.9517" x="638.59" y="665.9784">LLM Analysis</text></g><!--link LLM_PROVIDER to EXECUTOR--><g class="link" data-entity-1="ent0004" data-entity-2="ent0017" data-link-type="dependency" data-source-line="45" id="lnk27"><path d="M729.5,575.47 C713.81,559.88 688.83,537.53 663,524.44 C583.49,484.12 487.2207,463.7479 420.8207,453.4279" fill="none" id="LLM_PROVIDER-to-EXECUTOR" style="stroke:#4B5563;stroke-width:1;"/><polygon fill="#4B5563" points="415.88,452.66,424.1589,457.9947,420.8207,453.4279,425.3875,450.0897,415.88,452.66" style="stroke:#4B5563;stroke-width:1;stroke-linejoin:miter;stroke-miterlimit:10;"/><text fill="#000000" font-family="sans-serif" font-size="13" lengthAdjust="spacing" textLength="83.5161" x="640.09" y="513.0084">Decision: run</text></g><!--link LLM_PROVIDER to LOOP--><g class="link" data-entity-1="ent0004" data-entity-2="ent0014" data-link-type="dependency" data-source-line="46" id="lnk28"><path d="M730.92,575.2 C715.68,558.71 690.51,535.13 663,524.44 C630.85,511.94 542.25,520.53 508,516.44 C396.18,503.06 369.04,493.42 259,469.44 C253.51,468.24 252.7407,468.0999 247.0507,466.7799" fill="none" id="LLM_PROVIDER-to-LOOP" style="stroke:#4B5563;stroke-width:1;"/><polygon fill="#4B5563" points="242.18,465.65,250.0432,471.5804,247.0507,466.7799,251.8511,463.7873,242.18,465.65" style="stroke:#4B5563;stroke-width:1;stroke-linejoin:miter;stroke-miterlimit:10;"/><text fill="#000000" font-family="sans-serif" font-size="13" lengthAdjust="spacing" textLength="88.2261" x="509" y="513.0084">Decision: skip</text></g><!--link EXECUTOR to CALLBACKS--><g class="link" data-entity-1="ent0017" data-entity-2="ent0003" data-link-type="dependency" data-source-line="47" id="lnk29"><path d="M415.78,445.03 C512.46,448.83 690.86,464.26 829,524.44 C854.88,535.71 877.5447,549.9473 897.8247,564.2573" fill="none" id="EXECUTOR-to-CALLBACKS" style="stroke:#4B5563;stroke-width:1;"/><polygon fill="#4B5563" points="901.91,567.14,896.8625,558.6829,897.8247,564.2573,892.2502,565.2194,901.91,567.14" style="stroke:#4B5563;stroke-width:1;stroke-linejoin:miter;stroke-miterlimit:10;"/><text fill="#000000" font-family="sans-serif" font-size="13" lengthAdjust="spacing" textLength="49.0928" x="805.68" y="513.0084">Execute</text></g><!--link EXECUTOR to CALLBACKS--><g class="link" data-entity-1="ent0017" data-entity-2="ent0003" data-link-type="dependency" data-source-line="48" id="lnk30"><path d="M415.62,444.72 C538.7,447.17 788.84,457.33 864,499.44 C891.35,514.76 909.3287,540.7689 921.2987,562.7489" fill="none" id="EXECUTOR-to-CALLBACKS-1" style="stroke:#4B5563;stroke-width:1;"/><polygon fill="#4B5563" points="923.69,567.14,922.8985,557.323,921.2987,562.7489,915.8728,561.1491,923.69,567.14" style="stroke:#4B5563;stroke-width:1;stroke-linejoin:miter;stroke-miterlimit:10;"/><text fill="#000000" font-family="sans-serif" font-size="13" lengthAdjust="spacing" textLength="45.4048" x="885.44" y="513.0084">Results</text></g><?plantuml-src ZLJ1Qjmm4BtxAuRaaaAJa3HDGWu5h-CaInpMU9scXy2YzSgEMAza96sI9VHGwB7GGqiFlRI5Gg_zfdn1Fw4ZoUlOQGl5OAoPzpJptaXMKyOh8iaCnYIR5bBC-IGGfP2W9U4AKvHhJpKeTKKcueRn0d9IAjhAJ6XEvgLEwQtsIrRm6H8XmnULBPGlfRXn1LPtni-Vxpvh9MDiWHIq9-I4oXgqkxEtip_-2-Y_sfKqquGN9OKx3w2pSLqTu4XmNSUsjhRsj_SCyj7kg_b-JlBCU-rfKO4MC1PQ2nJDJ0Kck5Uvjc0bl4N5d9GmN2XDPoj053InE--XevLVNpwyWGiXfzXtHY_vIUWdQI_qqutPnD8k1idfCFQ3iClw-0u2KfPcOEgIhma-ehSqcslw5F2R2ytonHExGU17KSyFJeVT3Rv_WYWwWrYAQuQ6M2W6Hd4oUDa_31EKsSZXX0iKktb5YTHZIhH5donNWPXLWfjHtprmHYF6cHwDDgh59JyJapcMxPk3aADEoszMNKUQROTKNZFZoLey7vSi0p_kEqdnUI_g1-qEbSFQOe6GM6fMbTGSFs8cuummyLQ74SjfjiYmvXdX635ePqEJw3IcD3QsvZeOfZYcRb9KJMuGjrDQigAW4eToKoFIf7zytBMuKGqXBnXt3hdFRXVtxt-2hnOyWqY82iq91CzPCPTal7JucfIkJZJeTeA7xIqSCVnCAC6X8xjztXmf2Nqp_WxjnrTxM0vfnXJQQKPoHHI5hGF0UrPjoZbtvCCmw3zYtt_-1YbHKxm0ve0AsR2t7ITy5GRdwS3OOHutN5XVVr6xt0cWeDPwQQG5seYLN8SV0kPbLquS73H6GSgogLU73QAvRmWoBjdULHjHQyIybON-Q_F3MOPjqTP5GfpnpiUhlr1CUPsS0I_r8t1fy06WetyYhOmsofZlDNm3QMuxufpXzD-0X2hyMwlV?></g></svg>