<svg xmlns="http://www.w3.org/2000/svg" xmlns:xlink="http://www.w3.org/1999/xlink" contentStyleType="text/css" data-diagram-type="DESCRIPTION" height="653px" preserveAspectRatio="none" style="width:1285px;height:653px;" version="1.1" viewBox="0 0 1285 653" width="1285px" zoomAndPan="magnify"><?plantuml 1.2026.5?><defs><style><![CDATA[
@media (prefers-color-scheme: dark) {
  text { fill: #e5e7eb !important; }
  path, line, rect, circle, ellipse, polygon, polyline { stroke: #cbd5e1 !important; }
  .entity rect, .participant rect, .participant path, .sequenceLine rect, .class rect, .component rect, .component path, .note rect { fill: #111827 !important; }
  .cluster path { fill: none !important; }
  polygon { fill: #cbd5e1 !important; }
}
]]></style></defs><g><g class="title" data-source-line="15"><text fill="#000000" font-family="sans-serif" font-size="14" font-weight="700" lengthAdjust="spacing" textLength="288.4424" x="494.8092" y="23.5352">Bridge Component - Container Diagram</text></g><!--cluster bridge--><g class="cluster" data-qualified-name="bridge" data-source-line="18" id="ent0003"><path d="M272.25,43.4883 L437.3945,43.4883 A3.75,3.75 0 0 1 439.8945,45.9883 L446.8945,65.9766 L1002.25,65.9766 A2.5,2.5 0 0 1 1004.75,68.4766 L1004.75,500.6383 A2.5,2.5 0 0 1 1002.25,503.1383 L272.25,503.1383 A2.5,2.5 0 0 1 269.75,500.6383 L269.75,45.9883 A2.5,2.5 0 0 1 272.25,43.4883" fill="none" style="stroke:#000000;stroke-width:1.5;"/><line style="stroke:#000000;stroke-width:1.5;" x1="269.75" x2="446.8945" y1="65.9766" y2="65.9766"/><text fill="#000000" font-family="sans-serif" font-size="14" font-weight="700" lengthAdjust="spacing" textLength="164.1445" x="273.75" y="59.0234">bridge/src Component</text></g><!--entity index--><g class="entity" data-qualified-name="bridge.index" data-source-line="19" id="ent0004"><rect fill="#F8FAFC" height="69.4648" rx="2.5" ry="2.5" style="stroke:#4B5563;stroke-width:0.5;" width="338.8213" x="385.34" y="78.4883"/><text fill="#111827" font-family="sans-serif" font-size="14" lengthAdjust="spacing" textLength="54.7354" x="395.34" y="102.0234">index.ts</text><text fill="#111827" font-family="sans-serif" font-size="14" lengthAdjust="spacing" textLength="73.2949" x="395.34" y="118.5117">Entry Point</text><text fill="#111827" font-family="sans-serif" font-size="14" lengthAdjust="spacing" textLength="318.8213" x="395.34" y="135">Process lifecycle, config loading, crypto polyfill</text></g><!--entity server--><g class="entity" data-qualified-name="bridge.server" data-source-line="20" id="ent0005"><rect fill="#F8FAFC" height="69.4648" rx="2.5" ry="2.5" style="stroke:#4B5563;stroke-width:0.5;" width="404.6582" x="571.42" y="239.9483"/><text fill="#111827" font-family="sans-serif" font-size="14" lengthAdjust="spacing" textLength="58.2422" x="581.42" y="263.4834">server.ts</text><text fill="#111827" font-family="sans-serif" font-size="14" lengthAdjust="spacing" textLength="119.3896" x="581.42" y="279.9717">WebSocket Server</text><text fill="#111827" font-family="sans-serif" font-size="14" lengthAdjust="spacing" textLength="384.6582" x="581.42" y="296.46">Client connections, auth, message routing, broadcasting</text></g><!--entity whatsapp_client--><g class="entity" data-qualified-name="bridge.whatsapp_client" data-source-line="21" id="ent0006"><rect fill="#F8FAFC" height="69.4648" rx="2.5" ry="2.5" style="stroke:#4B5563;stroke-width:0.5;" width="349.3828" x="286.06" y="413.1683"/><text fill="#111827" font-family="sans-serif" font-size="14" lengthAdjust="spacing" textLength="81.7373" x="296.06" y="436.7034">whatsapp.ts</text><text fill="#111827" font-family="sans-serif" font-size="14" lengthAdjust="spacing" textLength="111.9863" x="296.06" y="453.1917">WhatsApp Client</text><text fill="#111827" font-family="sans-serif" font-size="14" lengthAdjust="spacing" textLength="329.3828" x="296.06" y="469.68">Baileys wrapper, QR auth, message send/receive</text></g><!--entity types--><g class="entity" data-qualified-name="bridge.types" data-source-line="22" id="ent0007"><path d="M670.66,418.6683 C670.66,408.6683 829.7484,408.6683 829.7484,408.6683 C829.7484,408.6683 988.8368,408.6683 988.8368,418.6683 L988.8368,477.1331 C988.8368,487.1331 829.7484,487.1331 829.7484,487.1331 C829.7484,487.1331 670.66,487.1331 670.66,477.1331 L670.66,418.6683" fill="#F1F1F1" style="stroke:#181818;stroke-width:0.5;"/><path d="M670.66,418.6683 C670.66,428.6683 829.7484,428.6683 829.7484,428.6683 C829.7484,428.6683 988.8368,428.6683 988.8368,418.6683" fill="none" style="stroke:#181818;stroke-width:0.5;"/><text fill="#000000" font-family="sans-serif" font-size="14" lengthAdjust="spacing" textLength="66.3428" x="680.66" y="446.2034">types.d.ts</text><text fill="#000000" font-family="sans-serif" font-size="14" lengthAdjust="spacing" textLength="111.1318" x="680.66" y="462.6917">Type Definitions</text><text fill="#000000" font-family="sans-serif" font-size="14" lengthAdjust="spacing" textLength="298.1768" x="680.66" y="479.18">TypeScript declarations for qrcode-terminal</text></g><!--entity user--><g class="entity" data-qualified-name="user" data-source-line="16" id="ent0001"><ellipse cx="128.7495" cy="409.9183" fill="#F1F1F1" rx="8" ry="8" style="stroke:#181818;stroke-width:0.5;"/><path d="M128.7495,417.9183 L128.7495,444.9183 M115.7495,425.9183 L141.7495,425.9183 M128.7495,444.9183 L115.7495,459.9183 M128.7495,444.9183 L141.7495,459.9183" fill="none" style="stroke:#181818;stroke-width:0.5;"/><text fill="#000000" font-family="sans-serif" font-size="14" lengthAdjust="spacing" textLength="59.8828" x="6" y="474.9534">End User</text><text fill="#000000" font-family="sans-serif" font-size="14" lengthAdjust="spacing" textLength="245.499" x="6" y="491.4417">Sends/receives WhatsApp messages</text></g><!--entity whatsapp--><g class="entity" data-qualified-name="whatsapp" data-source-line="17" id="ent0002"><rect fill="#F8FAFC" height="52.9766" rx="2.5" ry="2.5" style="stroke:#4B5563;stroke-width:0.5;" width="232.8369" x="47.33" y="586.3883"/><text fill="#111827" font-family="sans-serif" font-size="14" lengthAdjust="spacing" textLength="121.4609" x="57.33" y="609.9234">WhatsApp Servers</text><text fill="#111827" font-family="sans-serif" font-size="14" lengthAdjust="spacing" textLength="212.8369" x="57.33" y="626.4117">Meta's WhatsApp infrastructure</text></g><!--entity python_backend--><g class="entity" data-qualified-name="python_backend" data-source-line="24" id="ent0008"><rect fill="#F8FAFC" height="69.4648" rx="2.5" ry="2.5" style="stroke:#4B5563;stroke-width:0.5;" width="250.6309" x="1020.43" y="78.4883"/><text fill="#111827" font-family="sans-serif" font-size="14" lengthAdjust="spacing" textLength="107.1328" x="1030.43" y="102.0234">Python Backend</text><text fill="#111827" font-family="sans-serif" font-size="14" lengthAdjust="spacing" textLength="90.084" x="1030.43" y="118.5117">nanobot core</text><text fill="#111827" font-family="sans-serif" font-size="14" lengthAdjust="spacing" textLength="230.6309" x="1030.43" y="135">Connects via WebSocket to bridge</text></g><!--link user to whatsapp--><g class="link" data-entity-1="ent0001" data-entity-2="ent0002" data-link-type="dependency" data-source-line="25" id="lnk9"><path d="M138.59,494.7383 C144.94,524.2983 151.9096,556.7699 157.1696,581.2499" fill="none" id="user-to-whatsapp" style="stroke:#181818;stroke-width:1;"/><polygon fill="#181818" points="158.22,586.1383,160.2401,576.4988,157.1696,581.2499,152.4186,578.1794,158.22,586.1383" style="stroke:#181818;stroke-width:1;stroke-linejoin:miter;stroke-miterlimit:10;"/><text fill="#000000" font-family="sans-serif" font-size="13" lengthAdjust="spacing" textLength="29.5039" x="152.43" y="545.4566">Uses</text></g><!--link whatsapp_client to whatsapp--><g class="link" data-entity-1="ent0006" data-entity-2="ent0002" data-link-type="dependency" data-source-line="26" id="lnk10"><path d="M398.49,483.0683 C342.53,513.7783 265.9433,555.8028 215.2133,583.6428" fill="none" id="whatsapp_client-to-whatsapp" style="stroke:#181818;stroke-width:1;"/><polygon fill="#181818" points="210.83,586.0483,220.6444,585.225,215.2133,583.6428,216.7956,578.2117,210.83,586.0483" style="stroke:#181818;stroke-width:1;stroke-linejoin:miter;stroke-miterlimit:10;"/><text fill="#000000" font-family="sans-serif" font-size="13" lengthAdjust="spacing" textLength="67.8945" x="351.9522" y="537.9566">WebSocket</text><text fill="#000000" font-family="sans-serif" font-size="13" lengthAdjust="spacing" textLength="127.499" x="322.15" y="553.2672">(WhatsApp Protocol)</text></g><!--link index to server--><g class="link" data-entity-1="ent0004" data-entity-2="ent0005" data-link-type="dependency" data-source-line="27" id="lnk11"><path d="M601.73,148.4283 C638.68,175.3283 685.878,209.6951 722.808,236.5851" fill="none" id="index-to-server" style="stroke:#181818;stroke-width:1;"/><polygon fill="#181818" points="726.85,239.5283,721.9289,230.997,722.808,236.5851,717.2198,237.4643,726.85,239.5283" style="stroke:#181818;stroke-width:1;stroke-linejoin:miter;stroke-miterlimit:10;"/><text fill="#000000" font-family="sans-serif" font-size="13" lengthAdjust="spacing" textLength="60.2075" x="684.86" y="199.0166">Initializes</text></g><!--link index to whatsapp_client--><g class="link" data-entity-1="ent0004" data-entity-2="ent0006" data-link-type="dependency" data-source-line="28" id="lnk12"><path d="M534.02,148.1983 C519.94,172.8183 502.07,207.3583 491.75,239.9483 C473.05,299.0083 465.8634,366.2108 462.9134,407.8408" fill="none" id="index-to-whatsapp_client" style="stroke:#181818;stroke-width:1;"/><polygon fill="#181818" points="462.56,412.8283,467.1862,404.1335,462.9134,407.8408,459.2062,403.5681,462.56,412.8283" style="stroke:#181818;stroke-width:1;stroke-linejoin:miter;stroke-miterlimit:10;"/><text fill="#000000" font-family="sans-serif" font-size="13" lengthAdjust="spacing" textLength="60.2075" x="492.75" y="279.7466">Initializes</text></g><!--link server to whatsapp_client--><g class="link" data-entity-1="ent0005" data-entity-2="ent0006" data-link-type="dependency" data-source-line="29" id="lnk13"><path d="M711.54,309.7183 C656.89,339.6083 582.1865,380.4685 527.4965,410.3885" fill="none" id="server-to-whatsapp_client" style="stroke:#181818;stroke-width:1;"/><polygon fill="#181818" points="523.11,412.7883,532.9255,411.9779,527.4965,410.3885,529.0858,404.9595,523.11,412.7883" style="stroke:#181818;stroke-width:1;stroke-linejoin:miter;stroke-miterlimit:10;"/><text fill="#000000" font-family="sans-serif" font-size="13" lengthAdjust="spacing" textLength="73.0044" x="676.7039" y="352.9866">Calls send()</text><text fill="#000000" font-family="sans-serif" font-size="13" lengthAdjust="spacing" textLength="115.4321" x="655.49" y="368.2972">Receives callbacks</text></g><!--link server to types--><g class="link" data-entity-1="ent0005" data-entity-2="ent0007" data-link-type="dependency" data-source-line="30" id="lnk14"><path d="M784.81,309.5083 C794.12,337.9683 805.8767,373.9057 815.5867,403.6157" fill="none" id="server-to-types" style="stroke:#181818;stroke-width:1;"/><polygon fill="#181818" points="817.14,408.3683,818.1462,398.571,815.5867,403.6157,810.542,401.0562,817.14,408.3683" style="stroke:#181818;stroke-width:1;stroke-linejoin:miter;stroke-miterlimit:10;"/><text fill="#000000" font-family="sans-serif" font-size="13" lengthAdjust="spacing" textLength="67.3232" x="804.43" y="360.4866">Uses types</text></g><!--link python_backend to server--><g class="link" data-entity-1="ent0008" data-entity-2="ent0005" data-link-type="dependency" data-source-line="31" id="lnk15"><path d="M1065.95,148.4283 C1003.18,175.3283 920.7456,210.6683 858.0156,237.5583" fill="none" id="python_backend-to-server" style="stroke:#181818;stroke-width:1;"/><polygon fill="#181818" points="853.42,239.5283,863.268,239.6588,858.0156,237.5583,860.1161,232.3059,853.42,239.5283" style="stroke:#181818;stroke-width:1;stroke-linejoin:miter;stroke-miterlimit:10;"/><text fill="#000000" font-family="sans-serif" font-size="13" lengthAdjust="spacing" textLength="67.8945" x="1030.8737" y="191.5166">WebSocket</text><text fill="#000000" font-family="sans-serif" font-size="13" lengthAdjust="spacing" textLength="141.502" x="994.07" y="206.8272">(ws://127.0.0.1:3001)</text></g><?plantuml-src hLDDJzn03BtdLrZBeI3j1mkb80wLoaAb7YfHjXMNICYPEBiZPZtfZ1UQLltlTIRxBOvLBfEn_PxVioS-Mwunu08ADC-pu9TSJhpp0IGWHmqHInOtMN6EfN-rF8CANQITYF6BshDcJwLn186C8CySPU9h40-55_4BA6qRiPxVAeK_6S2D3oM5hecZzyN5nOVpzlQWlQFggiBAQEIpPrdTZSVZgxFBxEyEzgQF_uOjLXJj9jXoHZ3Pj3xGCmjQfW2t5cTAdg4HBUtTSGa_8eMSfyHb76bFP5yemkCS9NwgQrXGZ3YZs0ECiDJKRDjtRvCrfV128URybGJVxPHRhW962KiZoq09vBMDOLrdjOfJQEWLgUDH36RRTKhj0khFTWuzooNz6efotR641kwzPSdvFdYZhOAp5Pd6EEhhyBYoCt0UIrqB_GzDhUEklMigwrnYI6Yxy34fIVYFL4ozUIPPoSjvucoRfC3ShKhi0ovbtb_R13ehIMH5K5gZqlKlCNN0krHh8pgojMCTHyutQ1qrQbVG50fz-FPmm1LrPEk9xJdxP196Lg9WWL4TbgQcE2mJqtSzmorLbcsIqDrCJR2rG4d6wNQc05Iw8Z-3yIKDXCB2CdQc9JJTjnqjzutCFQTzrQvoPcIlxqgj2gI-TOP5UB48MrlRjvScd53h1F5KT11Pksim67pSg8BhTbLZTg3oC6S3d_FnnbJT3l76kvCi3JpLT0FHYY-j4UZiRmNVXWzfzlDMnMydJj2vcCPpV9Bpm_fD6RrkrUrL9ozNqbR6xXknt-kkkjTuFHgDpow7f_gDhyzFJySd_m00?></g></svg>