<svg xmlns="http://www.w3.org/2000/svg" xmlns:xlink="http://www.w3.org/1999/xlink" contentStyleType="text/css" data-diagram-type="DESCRIPTION" height="649px" preserveAspectRatio="none" style="width:900px;height:649px;background:#FFFFFF;" version="1.1" viewBox="0 0 900 649" width="900px" zoomAndPan="magnify"><?plantuml 1.2026.5?><defs/><rect data-xfeat-white-canvas="true" fill="#FFFFFF" height="100%" width="100%" x="0" y="0"/><g><g class="title" data-source-line="3"><text fill="#0F172A" font-family="Helvetica" font-size="14" font-weight="700" lengthAdjust="spacing" textLength="315.8066" x="289.0815" y="20.7803">Component Interaction: ClawHub Skill Manager</text></g><!--cluster nanobot--><g class="cluster" data-qualified-name="nanobot" data-source-line="5" id="ent0002"><rect fill="#FFFFFF" height="433" rx="4" ry="4" style="stroke:#CBD5E1;stroke-width:1;" width="570" x="7" y="202.5"/><text fill="#0F172A" font-family="Helvetica" font-size="14" font-weight="700" lengthAdjust="spacing" textLength="110.4619" x="236.769" y="215.2803">Nanobot System</text></g><!--entity clawhub_skill--><g class="entity" data-qualified-name="nanobot.clawhub_skill" data-source-line="6" id="ent0003"><rect fill="#FFFFFF" height="72" rx="4" ry="4" style="stroke:#64748B;stroke-width:0.5;" width="358.2744" x="202.86" y="385.5"/><rect fill="#FFFFFF" height="10" style="stroke:#64748B;stroke-width:0.5;" width="15" x="541.1344" y="390.5"/><rect fill="#FFFFFF" height="2" style="stroke:#64748B;stroke-width:0.5;" width="4" x="539.1344" y="392.5"/><rect fill="#FFFFFF" height="2" style="stroke:#64748B;stroke-width:0.5;" width="4" x="539.1344" y="396.5"/><text fill="#0F172A" font-family="Helvetica" font-size="14" lengthAdjust="spacing" textLength="86.3584" x="333.818" y="416.2803">ClawHub Skill</text><text fill="#0F172A" font-family="Helvetica" font-size="14" lengthAdjust="spacing" textLength="75.4756" x="339.2594" y="430.2803">Skill Module</text><text fill="#0F172A" font-family="Helvetica" font-size="14" lengthAdjust="spacing" textLength="318.2744" x="217.86" y="444.2803">Interprets intent and orchestrates skill management</text></g><!--entity workspace--><g class="entity" data-qualified-name="nanobot.workspace" data-source-line="7" id="ent0004"><rect fill="#FFFFFF" height="72" rx="4" ry="4" style="stroke:#64748B;stroke-width:0.5;" width="207.3027" x="60.35" y="547.5"/><rect fill="#FFFFFF" height="10" style="stroke:#64748B;stroke-width:0.5;" width="15" x="247.6527" y="552.5"/><rect fill="#FFFFFF" height="2" style="stroke:#64748B;stroke-width:0.5;" width="4" x="245.6527" y="554.5"/><rect fill="#FFFFFF" height="2" style="stroke:#64748B;stroke-width:0.5;" width="4" x="245.6527" y="558.5"/><text fill="#0F172A" font-family="Helvetica" font-size="14" lengthAdjust="spacing" textLength="126.8408" x="95.581" y="578.2803">Nanobot Workspace</text><text fill="#0F172A" font-family="Helvetica" font-size="14" lengthAdjust="spacing" textLength="73.124" x="122.4394" y="592.2803">File System</text><text fill="#0F172A" font-family="Helvetica" font-size="14" lengthAdjust="spacing" textLength="167.3027" x="75.35" y="606.2803">/.nanobot/workspace/skills/</text></g><!--entity nanobot_core--><g class="entity" data-qualified-name="nanobot.nanobot_core" data-source-line="8" id="ent0005"><rect fill="#FFFFFF" height="72" rx="4" ry="4" style="stroke:#64748B;stroke-width:0.5;" width="271.8955" x="134.05" y="235.5"/><rect fill="#FFFFFF" height="10" style="stroke:#64748B;stroke-width:0.5;" width="15" x="385.9455" y="240.5"/><rect fill="#FFFFFF" height="2" style="stroke:#64748B;stroke-width:0.5;" width="4" x="383.9455" y="242.5"/><rect fill="#FFFFFF" height="2" style="stroke:#64748B;stroke-width:0.5;" width="4" x="383.9455" y="246.5"/><text fill="#0F172A" font-family="Helvetica" font-size="14" lengthAdjust="spacing" textLength="87.165" x="221.4152" y="266.2803">Nanobot Core</text><text fill="#0F172A" font-family="Helvetica" font-size="14" lengthAdjust="spacing" textLength="92.6064" x="218.6945" y="280.2803">Agent Runtime</text><text fill="#0F172A" font-family="Helvetica" font-size="14" lengthAdjust="spacing" textLength="231.8955" x="149.05" y="294.2803">Executes skills and manages session</text></g><!--entity user--><g class="entity" data-qualified-name="user" data-source-line="4" id="ent0001"><ellipse cx="270.0042" cy="49" fill="#F1F1F1" rx="8" ry="8" style="stroke:#181818;stroke-width:0.5;"/><path d="M270.0042,57 L270.0042,84 M257.0042,65 L283.0042,65 M270.0042,84 L257.0042,99 M270.0042,84 L283.0042,99" fill="none" style="stroke:#181818;stroke-width:0.5;"/><text fill="#0F172A" font-family="Helvetica" font-size="14" lengthAdjust="spacing" textLength="29.5586" x="255.2249" y="111.2803">User</text><text fill="#0F172A" font-family="Helvetica" font-size="14" lengthAdjust="spacing" textLength="225.6885" x="157.16" y="125.2803">Interacts via natural language or CLI</text></g><!--entity clawhub_registry--><g class="entity" data-qualified-name="clawhub_registry" data-source-line="10" id="ent0006"><rect fill="#FFFFFF" height="48" rx="4" ry="4" style="stroke:#64748B;stroke-width:0.5;" width="293.9297" x="593.04" y="559.5"/><text fill="#0F172A" font-family="Helvetica" font-size="14" lengthAdjust="spacing" textLength="112.0342" x="683.9878" y="580.2803">ClawHub Registry</text><text fill="#0F172A" font-family="Helvetica" font-size="14" lengthAdjust="spacing" textLength="273.9297" x="603.04" y="594.2803">Public skill database &amp; vector search engine</text></g><!--link user to nanobot_core--><g class="link" data-entity-1="ent0001" data-entity-2="ent0005" data-link-type="dependency" data-source-line="11" id="lnk7"><path d="M270,128.87 C270,161.23 270,199.89 270,230.15" fill="none" id="user-to-nanobot_core" style="stroke:#64748B;stroke-width:1.1;"/><polygon fill="#64748B" points="270,235.15,274,226.15,270,230.15,266,226.15,270,235.15" style="stroke:#64748B;stroke-width:1.1;stroke-linejoin:miter;stroke-miterlimit:10;"/><text fill="#334155" font-family="Helvetica" font-size="12" lengthAdjust="spacing" textLength="147.3926" x="271" y="170.7402">Requests skill install/search</text><text fill="#334155" font-family="Helvetica" font-size="12" lengthAdjust="spacing" textLength="95.4082" x="296.9922" y="182.7402">Natural Language</text></g><!--link nanobot_core to clawhub_skill--><g class="link" data-entity-1="ent0005" data-entity-2="ent0003" data-link-type="dependency" data-source-line="12" id="lnk8"><path d="M296.83,307.95 C314.49,331.3 334.5231,357.7527 352.1831,381.0927" fill="none" id="nanobot_core-to-clawhub_skill" style="stroke:#64748B;stroke-width:1.1;"/><polygon fill="#64748B" points="355.2,385.08,352.9593,375.4894,352.1831,381.0927,346.5797,380.3165,355.2,385.08" style="stroke:#64748B;stroke-width:1.1;stroke-linejoin:miter;stroke-miterlimit:10;"/><text fill="#334155" font-family="Helvetica" font-size="12" lengthAdjust="spacing" textLength="79.377" x="330.36" y="349.7402">Delegates task</text></g><!--link clawhub_skill to clawhub_registry--><g class="link" data-entity-1="ent0003" data-entity-2="ent0006" data-link-type="dependency" data-source-line="13" id="lnk9"><path d="M420.09,457.92 C448.35,484.21 482,515.5 482,515.5 C482,515.5 570.5205,538.4933 644.9205,557.8133" fill="none" id="clawhub_skill-to-clawhub_registry" style="stroke:#64748B;stroke-width:1.1;"/><polygon fill="#64748B" points="649.76,559.07,642.0543,552.9363,644.9205,557.8133,640.0435,560.6795,649.76,559.07" style="stroke:#64748B;stroke-width:1.1;stroke-linejoin:miter;stroke-miterlimit:10;"/><text fill="#334155" font-family="Helvetica" font-size="12" lengthAdjust="spacing" textLength="168.0586" x="483" y="499.7402">1. Search skills (Vector Search)</text><text fill="#334155" font-family="Helvetica" font-size="12" lengthAdjust="spacing" textLength="62.0156" x="536.0215" y="511.7402">HTTPS/npx</text></g><!--link clawhub_skill to clawhub_registry--><g class="link" data-entity-1="ent0003" data-entity-2="ent0006" data-link-type="dependency" data-source-line="14" id="lnk10"><path d="M528.08,457.96 C594.29,474.03 658,489.5 658,489.5 C658,489.5 691.7133,527.7295 716.0033,555.2795" fill="none" id="clawhub_skill-to-clawhub_registry-1" style="stroke:#64748B;stroke-width:1.1;"/><polygon fill="#64748B" points="719.31,559.03,716.3584,549.6338,716.0033,555.2795,710.3576,554.9245,719.31,559.03" style="stroke:#64748B;stroke-width:1.1;stroke-linejoin:miter;stroke-miterlimit:10;"/><text fill="#334155" font-family="Helvetica" font-size="12" lengthAdjust="spacing" textLength="115.3887" x="680.99" y="499.7402">2. Fetch skill package</text><text fill="#334155" font-family="Helvetica" font-size="12" lengthAdjust="spacing" textLength="62.0156" x="707.6765" y="511.7402">HTTPS/npx</text></g><!--link clawhub_skill to workspace--><g class="link" data-entity-1="ent0003" data-entity-2="ent0004" data-link-type="dependency" data-source-line="15" id="lnk11"><path d="M302.61,457.96 C266.63,474.03 232,489.5 232,489.5 C232,489.5 212.0709,516.7536 192.8509,543.0436" fill="none" id="clawhub_skill-to-workspace" style="stroke:#64748B;stroke-width:1.1;"/><polygon fill="#64748B" points="189.9,547.08,198.4407,542.1753,192.8509,543.0436,191.9825,537.4538,189.9,547.08" style="stroke:#64748B;stroke-width:1.1;stroke-linejoin:miter;stroke-miterlimit:10;"/><text fill="#334155" font-family="Helvetica" font-size="12" lengthAdjust="spacing" textLength="131.373" x="233" y="499.7402">3. Write/Update skill files</text><text fill="#334155" font-family="Helvetica" font-size="12" lengthAdjust="spacing" textLength="38.6719" x="279.3506" y="511.7402">File I/O</text></g><!--link nanobot_core to workspace--><g class="link" data-entity-1="ent0005" data-entity-2="ent0004" data-link-type="dependency" data-source-line="16" id="lnk12"><path d="M212.29,307.94 C158.32,341.08 86,385.5 86,385.5 C86,385.5 86,457.5 86,457.5 C86,457.5 116.1528,505.8183 139.2128,542.7683" fill="none" id="nanobot_core-to-workspace" style="stroke:#64748B;stroke-width:1.1;"/><polygon fill="#64748B" points="141.86,547.01,140.4884,537.2571,139.2128,542.7683,133.7016,541.4926,141.86,547.01" style="stroke:#64748B;stroke-width:1.1;stroke-linejoin:miter;stroke-miterlimit:10;"/><text fill="#334155" font-family="Helvetica" font-size="12" lengthAdjust="spacing" textLength="94.7168" x="87" y="418.7402">4. Load new skills</text><text fill="#334155" font-family="Helvetica" font-size="12" lengthAdjust="spacing" textLength="84.7031" x="92.0068" y="430.7402">Session Restart</text></g><?plantuml-src ZL9DRzD04BtxLmmv83Z45X-d7f1Ge6gaKAgcfHTBrTYUEgkiPyr-DAqG_7OcwxKL2uIusJDlthnvRryehdLe27fh7iWvPHZrqk-eero5JcVUzE0DLCPxqq6ZBDLUG9bNNXEiJDSR9lQmPayMO-yCLXeF5w62xLvf3L-GiIMRITTOMDmwiYMFU0UF2e7H1uiQD78R10m2N6tM2q07GV1PZ_N-M5zS8XiH0zjdvwcB04wb7razoLdC99ISb9WcQ4hBUqkoNScdu94RsLdlo7cBdXouED15wPqWugPQI7UXke_DqssZgZjZzqwqoevp9VuCAal-LUH9PN4O8KLaSKLadgf_OrqPAuGVssFnEh1NdVn-Vg8wJ4fTl62GAwKXoLDtxciXoNvcn_p4PD4sMNHDhPApdqk-2fLMTRgzGOyLEeANy4WnEaSe5W5ngvXcXjX4aHt3WkNomsmjdCcExq6y7NrLx3ngNGoC9L-c_3Sf_smsVkIRMI-4dqXJ6vFowFRPl7qwC4gJcJSvR8SJacUllWs73TNN9L_St5nj2-wV_e_mRGxdv4S-I8_qtpHJqZB_BeSxgpmLjxsuJOdcGLwEImzeNNpzqujJYlSvR0msm7H8LybZ7-8NqyLbwty3?></g></svg>