<svg xmlns="http://www.w3.org/2000/svg" xmlns:xlink="http://www.w3.org/1999/xlink" contentStyleType="text/css" data-diagram-type="DESCRIPTION" height="1025px" preserveAspectRatio="none" style="width:810px;height:1025px;background:#FFFFFF;" version="1.1" viewBox="0 0 810 1025" width="810px" zoomAndPan="magnify"><?plantuml 1.2026.5?><defs/><rect data-xfeat-white-canvas="true" fill="#FFFFFF" height="100%" width="100%" x="0" y="0"/><g><!--cluster External--><g class="cluster" data-qualified-name="External" data-source-line="3" id="ent0001"><rect fill="#FFFFFF" height="83" rx="4" ry="4" style="stroke:#CBD5E1;stroke-width:1;" width="140" x="381" y="928"/><text fill="#0F172A" font-family="Helvetica" font-size="14" font-weight="700" lengthAdjust="spacing" textLength="103.4824" x="399.2588" y="940.7803">External Actors</text></g><!--cluster CronSkill--><g class="cluster" data-qualified-name="CronSkill" data-source-line="6" id="ent0003"><rect fill="#FFFFFF" height="746" rx="4" ry="4" style="stroke:#CBD5E1;stroke-width:1;" width="646" x="7" y="7"/><text fill="#0F172A" font-family="Helvetica" font-size="14" font-weight="700" lengthAdjust="spacing" textLength="128.3516" x="265.8242" y="19.7803">nanobot/skills/cron</text></g><!--cluster Interface--><g class="cluster" data-qualified-name="CronSkill.Interface" data-source-line="7" id="ent0004"><rect fill="#FFFFFF" height="99" rx="4" ry="4" style="stroke:#CBD5E1;stroke-width:1;" width="425" x="196" y="56"/><text fill="#0F172A" font-family="Helvetica" font-size="14" font-weight="700" lengthAdjust="spacing" textLength="105.7998" x="355.6001" y="68.7803">Action Interface</text></g><!--cluster Parser--><g class="cluster" data-qualified-name="CronSkill.Parser" data-source-line="12" id="ent0008"><rect fill="#FFFFFF" height="113" rx="4" ry="4" style="stroke:#CBD5E1;stroke-width:1;" width="518" x="39" y="204"/><text fill="#0F172A" font-family="Helvetica" font-size="14" font-weight="700" lengthAdjust="spacing" textLength="159.5234" x="218.2383" y="216.7803">Time Expression Parser</text></g><!--cluster Scheduler--><g class="cluster" data-qualified-name="CronSkill.Scheduler" data-source-line="17" id="ent0012"><rect fill="#FFFFFF" height="196" rx="4" ry="4" style="stroke:#CBD5E1;stroke-width:1;" width="166" x="381" y="358"/><text fill="#0F172A" font-family="Helvetica" font-size="14" font-weight="700" lengthAdjust="spacing" textLength="126.0068" x="400.9966" y="370.7803">Scheduling Engine</text></g><!--cluster Execution--><g class="cluster" data-qualified-name="CronSkill.Execution" data-source-line="21" id="ent0015"><rect fill="#FFFFFF" height="113" rx="4" ry="4" style="stroke:#CBD5E1;stroke-width:1;" width="363" x="202" y="608"/><text fill="#0F172A" font-family="Helvetica" font-size="14" font-weight="700" lengthAdjust="spacing" textLength="115.1309" x="325.9346" y="620.7803">Execution Modes</text></g><!--cluster Output--><g class="cluster" data-qualified-name="Output" data-source-line="26" id="ent0018"><rect fill="#FFFFFF" height="83" rx="4" ry="4" style="stroke:#CBD5E1;stroke-width:1;" width="297" x="220" y="799"/><text fill="#0F172A" font-family="Helvetica" font-size="14" font-weight="700" lengthAdjust="spacing" textLength="68.4619" x="334.269" y="811.7803">Outcomes</text></g><!--entity Agent--><g class="entity" data-qualified-name="External.Agent" data-source-line="4" id="ent0002"><rect fill="#FFFFFF" height="34" rx="4" ry="4" style="stroke:#64748B;stroke-width:0.5;" width="107.9375" x="397.03" y="961"/><text fill="#0F172A" font-family="Helvetica" font-size="14" lengthAdjust="spacing" textLength="87.9375" x="407.03" y="981.7803">AI Agent Core</text></g><!--entity Add--><g class="entity" data-qualified-name="CronSkill.Interface.Add" data-source-line="8" id="ent0005"><rect fill="#FFFFFF" height="34" rx="4" ry="4" style="stroke:#64748B;stroke-width:0.5;" width="76.0205" x="219.99" y="97"/><text fill="#0F172A" font-family="Helvetica" font-size="14" lengthAdjust="spacing" textLength="56.0205" x="229.99" y="117.7803">ADD Job</text></g><!--entity List--><g class="entity" data-qualified-name="CronSkill.Interface.List" data-source-line="9" id="ent0006"><rect fill="#FFFFFF" height="34" rx="4" ry="4" style="stroke:#64748B;stroke-width:0.5;" width="83.0273" x="338.49" y="97"/><text fill="#0F172A" font-family="Helvetica" font-size="14" lengthAdjust="spacing" textLength="63.0273" x="348.49" y="117.7803">LIST Jobs</text></g><!--entity Remove--><g class="entity" data-qualified-name="CronSkill.Interface.Remove" data-source-line="10" id="ent0007"><rect fill="#FFFFFF" height="34" rx="4" ry="4" style="stroke:#64748B;stroke-width:0.5;" width="107.1377" x="463.43" y="97"/><text fill="#0F172A" font-family="Helvetica" font-size="14" lengthAdjust="spacing" textLength="87.1377" x="473.43" y="117.7803">REMOVE Job</text></g><!--entity NLP--><g class="entity" data-qualified-name="CronSkill.Parser.NLP" data-source-line="13" id="ent0009"><rect fill="#FFFFFF" height="48" rx="4" ry="4" style="stroke:#64748B;stroke-width:0.5;" width="131.3096" x="63.35" y="245"/><text fill="#0F172A" font-family="Helvetica" font-size="14" lengthAdjust="spacing" textLength="111.3096" x="73.35" y="265.7803">Natural Language</text><text fill="#0F172A" font-family="Helvetica" font-size="14" lengthAdjust="spacing" textLength="96.4688" x="80.7704" y="279.7803">Time Converter</text></g><!--entity ISO--><g class="entity" data-qualified-name="CronSkill.Parser.ISO" data-source-line="14" id="ent0010"><rect fill="#FFFFFF" height="48" rx="4" ry="4" style="stroke:#64748B;stroke-width:0.5;" width="104.0273" x="236.99" y="245"/><text fill="#0F172A" font-family="Helvetica" font-size="14" lengthAdjust="spacing" textLength="84.0273" x="246.99" y="265.7803">ISO Datetime</text><text fill="#0F172A" font-family="Helvetica" font-size="14" lengthAdjust="spacing" textLength="63.0205" x="257.4934" y="279.7803">Processor</text></g><!--entity CronExpr--><g class="entity" data-qualified-name="CronSkill.Parser.CronExpr" data-source-line="15" id="ent0011"><rect fill="#FFFFFF" height="48" rx="4" ry="4" style="stroke:#64748B;stroke-width:0.5;" width="123.4893" x="383.26" y="245"/><text fill="#0F172A" font-family="Helvetica" font-size="14" lengthAdjust="spacing" textLength="103.4893" x="393.26" y="265.7803">Cron Expression</text><text fill="#0F172A" font-family="Helvetica" font-size="14" lengthAdjust="spacing" textLength="55.2549" x="417.3772" y="279.7803">Validator</text></g><!--entity TZ--><g class="entity" data-qualified-name="CronSkill.Scheduler.TZ" data-source-line="18" id="ent0013"><rect fill="#FFFFFF" height="48" rx="4" ry="4" style="stroke:#64748B;stroke-width:0.5;" width="134.3857" x="396.81" y="391"/><text fill="#0F172A" font-family="Helvetica" font-size="14" lengthAdjust="spacing" textLength="114.3857" x="406.81" y="411.7803">Timezone Handler</text><text fill="#0F172A" font-family="Helvetica" font-size="14" lengthAdjust="spacing" textLength="94.9238" x="416.541" y="425.7803">(IANA Support)</text></g><!--entity JobQueue--><g class="entity" data-qualified-name="CronSkill.Scheduler.JobQueue" data-source-line="19" id="ent0014"><rect fill="#FFFFFF" height="34" rx="4" ry="4" style="stroke:#64748B;stroke-width:0.5;" width="97.8066" x="433.1" y="504"/><text fill="#0F172A" font-family="Helvetica" font-size="14" lengthAdjust="spacing" textLength="77.8066" x="443.1" y="524.7803">Job Registry</text></g><!--entity Reminder--><g class="entity" data-qualified-name="CronSkill.Execution.Reminder" data-source-line="22" id="ent0016"><rect fill="#FFFFFF" height="48" rx="4" ry="4" style="stroke:#64748B;stroke-width:0.5;" width="119.5996" x="226.2" y="649"/><text fill="#0F172A" font-family="Helvetica" font-size="14" lengthAdjust="spacing" textLength="99.5996" x="236.2" y="669.7803">Reminder Mode</text><text fill="#0F172A" font-family="Helvetica" font-size="14" lengthAdjust="spacing" textLength="78.5586" x="246.7205" y="683.7803">(Notify User)</text></g><!--entity Task--><g class="entity" data-qualified-name="CronSkill.Execution.Task" data-source-line="23" id="ent0017"><rect fill="#FFFFFF" height="48" rx="4" ry="4" style="stroke:#64748B;stroke-width:0.5;" width="127.3857" x="387.31" y="649"/><text fill="#0F172A" font-family="Helvetica" font-size="14" lengthAdjust="spacing" textLength="69.248" x="416.3788" y="669.7803">Task Mode</text><text fill="#0F172A" font-family="Helvetica" font-size="14" lengthAdjust="spacing" textLength="107.3857" x="397.31" y="683.7803">(Agent Executes)</text></g><!--entity Notify--><g class="entity" data-qualified-name="Output.Notify" data-source-line="27" id="ent0019"><rect fill="#FFFFFF" height="34" rx="4" ry="4" style="stroke:#64748B;stroke-width:0.5;" width="122.7031" x="235.65" y="832"/><text fill="#0F172A" font-family="Helvetica" font-size="14" lengthAdjust="spacing" textLength="102.7031" x="245.65" y="852.7803">User Notification</text></g><!--entity ActionResult--><g class="entity" data-qualified-name="Output.ActionResult" data-source-line="28" id="ent0020"><rect fill="#FFFFFF" height="34" rx="4" ry="4" style="stroke:#64748B;stroke-width:0.5;" width="100.9102" x="400.54" y="832"/><text fill="#0F172A" font-family="Helvetica" font-size="14" lengthAdjust="spacing" textLength="80.9102" x="410.54" y="852.7803">Task Results</text></g><!--entity User--><g class="entity" data-qualified-name="User" data-source-line="30" id="ent0021"><rect fill="#FFFFFF" height="34" rx="4" ry="4" style="stroke:#64748B;stroke-width:0.5;" width="49.5586" x="102.22" y="832"/><text fill="#0F172A" font-family="Helvetica" font-size="14" lengthAdjust="spacing" textLength="29.5586" x="112.22" y="852.7803">User</text></g><!--link User to Agent--><g class="link" data-entity-1="ent0021" data-entity-2="ent0002" data-link-type="dependency" data-source-line="31" id="lnk22"><path d="M151.87,860.93 C178.81,872.77 218,890 218,890 C218,890 334.6658,933.5611 402.2158,958.7811" fill="none" id="User-to-Agent" style="stroke:#64748B;stroke-width:1.1;"/><polygon fill="#64748B" points="406.9,960.53,399.8676,953.6347,402.2158,958.7811,397.0694,961.1294,406.9,960.53" style="stroke:#64748B;stroke-width:1.1;stroke-linejoin:miter;stroke-miterlimit:10;"/><text fill="#334155" font-family="Helvetica" font-size="12" lengthAdjust="spacing" textLength="93.3984" x="275.31" y="908.2402">Schedule request</text></g><!--link Agent to Interface--><g class="link" data-entity-1="ent0002" data-entity-2="ent0004" data-link-type="dependency" data-source-line="32" id="lnk23"><path d="M483.43,960.53 C551.07,926.16 701,850 701,850 C701,268 701,268 701,268 C701,268 679.6825,230.935 658.0313,193.2913 C647.2056,174.4694 636.2966,155.5028 627.927,140.9523 C625.8346,137.3147 623.901,133.9531 622.167,130.9388 C621.9503,130.562 621.7367,130.1906 621.5262,129.8248 C621.421,129.6419 623.8098,133.7945 623.7062,133.6144" fill="none" id="Agent-to-Interface" style="stroke:#64748B;stroke-width:1.1;"/><polygon fill="#64748B" points="621.213,129.2803,622.2334,139.0762,623.7062,133.6144,629.1679,135.0871,621.213,129.2803" style="stroke:#64748B;stroke-width:1.1;stroke-linejoin:miter;stroke-miterlimit:10;"/><text fill="#334155" font-family="Helvetica" font-size="12" lengthAdjust="spacing" textLength="92.707" x="702" y="524.2402">Action Parameter</text></g><!--link Add to Parser--><g class="link" data-entity-1="ent0005" data-entity-2="ent0008" data-link-type="dependency" data-source-line="33" id="lnk24"><path d="M275.38,131.5 C292.79,148.02 317,171 317,171 C317,171 525,188 525,188 C525,188 526.4538,192.845 528.6456,200.1503 C528.9196,201.0635 529.2051,202.0151 529.5008,203.0005 C529.5747,203.2468 528.2123,198.7062 528.2875,198.9567" fill="none" id="Add-to-Parser" style="stroke:#64748B;stroke-width:1.1;"/><polygon fill="#64748B" points="529.7244,203.7458,530.9693,193.9759,528.2875,198.9567,523.3067,196.2749,529.7244,203.7458" style="stroke:#64748B;stroke-width:1.1;stroke-linejoin:miter;stroke-miterlimit:10;"/></g><!--link List to JobQueue--><g class="link" data-entity-1="ent0006" data-entity-2="ent0014" data-link-type="dependency" data-source-line="34" id="lnk25"><path d="M398.27,131.5 C416.56,148.02 442,171 442,171 C442,171 567,188 567,188 C567,188 567,333 567,333 C567,333 552,439 552,439 C552,439 519.8888,476.1565 499.4388,499.8265" fill="none" id="List-to-JobQueue" style="stroke:#64748B;stroke-width:1.1;"/><polygon fill="#64748B" points="496.17,503.61,505.0807,499.4147,499.4388,499.8265,499.027,494.1846,496.17,503.61" style="stroke:#64748B;stroke-width:1.1;stroke-linejoin:miter;stroke-miterlimit:10;"/></g><!--link Remove to JobQueue--><g class="link" data-entity-1="ent0007" data-entity-2="ent0014" data-link-type="dependency" data-source-line="35" id="lnk26"><path d="M534.09,131.5 C551.2,148.02 575,171 575,171 C575,171 603,179 603,179 C603,179 603,472 603,472 C603,472 563.0076,487.8661 527.9476,501.7761" fill="none" id="Remove-to-JobQueue" style="stroke:#64748B;stroke-width:1.1;"/><polygon fill="#64748B" points="523.3,503.62,533.1408,504.019,527.9476,501.7761,530.1905,496.5829,523.3,503.62" style="stroke:#64748B;stroke-width:1.1;stroke-linejoin:miter;stroke-miterlimit:10;"/></g><!--link NLP to TZ--><g class="link" data-entity-1="ent0009" data-entity-2="ent0013" data-link-type="dependency" data-source-line="36" id="lnk27"><path d="M161.4,293.46 C186.13,311.37 216,333 216,333 C216,333 318.367,366.438 391.807,390.418" fill="none" id="NLP-to-TZ" style="stroke:#64748B;stroke-width:1.1;"/><polygon fill="#64748B" points="396.56,391.97,389.2461,385.374,391.807,390.418,386.7629,392.9789,396.56,391.97" style="stroke:#64748B;stroke-width:1.1;stroke-linejoin:miter;stroke-miterlimit:10;"/></g><!--link ISO to TZ--><g class="link" data-entity-1="ent0010" data-entity-2="ent0013" data-link-type="dependency" data-source-line="37" id="lnk28"><path d="M316.18,293.46 C336.94,311.37 362,333 362,333 C362,333 400.454,363.5411 430.584,387.4611" fill="none" id="ISO-to-TZ" style="stroke:#64748B;stroke-width:1.1;"/><polygon fill="#64748B" points="434.5,390.57,429.9383,381.8412,430.584,387.4611,424.9641,388.1068,434.5,390.57" style="stroke:#64748B;stroke-width:1.1;stroke-linejoin:miter;stroke-miterlimit:10;"/></g><!--link CronExpr to TZ--><g class="link" data-entity-1="ent0011" data-entity-2="ent0013" data-link-type="dependency" data-source-line="38" id="lnk29"><path d="M448.09,293.46 C451.63,320.23 456.7145,358.8232 460.2545,385.5932" fill="none" id="CronExpr-to-TZ" style="stroke:#64748B;stroke-width:1.1;"/><polygon fill="#64748B" points="460.91,390.55,463.6956,381.1033,460.2545,385.5932,455.7647,382.1521,460.91,390.55" style="stroke:#64748B;stroke-width:1.1;stroke-linejoin:miter;stroke-miterlimit:10;"/></g><!--link TZ to JobQueue--><g class="link" data-entity-1="ent0013" data-entity-2="ent0014" data-link-type="dependency" data-source-line="39" id="lnk30"><path d="M468.04,439.34 C471.42,458.86 475.2957,481.3035 478.2957,498.6035" fill="none" id="TZ-to-JobQueue" style="stroke:#64748B;stroke-width:1.1;"/><polygon fill="#64748B" points="479.15,503.53,481.5534,493.9789,478.2957,498.6035,473.6711,495.3458,479.15,503.53" style="stroke:#64748B;stroke-width:1.1;stroke-linejoin:miter;stroke-miterlimit:10;"/></g><!--link JobQueue to Execution--><g class="link" data-entity-1="ent0014" data-entity-2="ent0015" data-link-type="dependency" data-source-line="40" id="lnk31"><path d="M493.83,538.24 C508.89,558.91 533,592 533,592 C533,592 534.4538,596.845 536.6456,604.1503 C536.9196,605.0635 537.2051,606.0151 537.5008,607.0005 C537.5747,607.2468 536.2123,602.7062 536.2875,602.9567" fill="none" id="JobQueue-to-Execution" style="stroke:#64748B;stroke-width:1.1;"/><polygon fill="#64748B" points="537.7244,607.7458,538.9693,597.9759,536.2875,602.9567,531.3067,600.2749,537.7244,607.7458" style="stroke:#64748B;stroke-width:1.1;stroke-linejoin:miter;stroke-miterlimit:10;"/><text fill="#334155" font-family="Helvetica" font-size="12" lengthAdjust="spacing" textLength="102.7207" x="527.68" y="580.2402">Trigger at schedule</text></g><!--link Reminder to Notify--><g class="link" data-entity-1="ent0016" data-entity-2="ent0019" data-link-type="dependency" data-source-line="41" id="lnk32"><path d="M287.48,697.47 C289.75,733.27 293.6944,795.66 295.6544,826.65" fill="none" id="Reminder-to-Notify" style="stroke:#64748B;stroke-width:1.1;"/><polygon fill="#64748B" points="295.97,831.64,299.3939,822.4055,295.6544,826.65,291.4099,822.9104,295.97,831.64" style="stroke:#64748B;stroke-width:1.1;stroke-linejoin:miter;stroke-miterlimit:10;"/></g><!--link Task to ActionResult--><g class="link" data-entity-1="ent0017" data-entity-2="ent0020" data-link-type="dependency" data-source-line="42" id="lnk33"><path d="M451,697.47 C451,733.27 451,795.65 451,826.64" fill="none" id="Task-to-ActionResult" style="stroke:#64748B;stroke-width:1.1;"/><polygon fill="#64748B" points="451,831.64,455,822.64,451,826.64,447,822.64,451,831.64" style="stroke:#64748B;stroke-width:1.1;stroke-linejoin:miter;stroke-miterlimit:10;"/><text fill="#334155" font-family="Helvetica" font-size="12" lengthAdjust="spacing" textLength="89.3789" x="452" y="779.2402">Execute &amp; return</text></g><!--link ActionResult to Agent--><g class="link" data-entity-1="ent0020" data-entity-2="ent0002" data-link-type="dependency" data-source-line="43" id="lnk34"><path d="M451,866.34 C451,890.73 451,931.37 451,955.72" fill="none" id="ActionResult-to-Agent" style="stroke:#64748B;stroke-width:1.1;"/><polygon fill="#64748B" points="451,960.72,455,951.72,451,955.72,447,951.72,451,960.72" style="stroke:#64748B;stroke-width:1.1;stroke-linejoin:miter;stroke-miterlimit:10;"/></g><!--link Notify to User--><g class="link" data-entity-1="ent0019" data-entity-2="ent0021" data-link-type="dependency" data-source-line="44" id="lnk35"><path d="M235.5,849 C221.8,849 183.67,849 183.67,849 C183.67,849 172.2,849 157.02,849" fill="none" id="Notify-to-User" style="stroke:#64748B;stroke-width:1.1;"/><polygon fill="#64748B" points="152.02,849,161.02,853,157.02,849,161.02,845,152.02,849" style="stroke:#64748B;stroke-width:1.1;stroke-linejoin:miter;stroke-miterlimit:10;"/></g><?plantuml-src PLDDRzim3BtxLt0z5EiXxJs70KOIO1dI98kz7efSL9bnXTYIfu-YtR3_Fkh3ZftU9FAHV7fy-Y8aRro5q6brGcE4agoPsLTiyLwujiciwi0gU57MgXOgeP5R0cKTusTM8zoitYrgAeASMwND3J03G-nlvl5CrWqXypNaDKeB2wKnuC8r-tTf9fbKDEh1d4NJc0UkbGp01HqA7wEE0pWFJ60jQTY9yTXok5tDNYxXXtg9KwjgdDgiYzBd8lMDC7QSFQmUTq-heVQ0hNh3CULIj4WFxdHK3_PC6zG178zJ8bjcdIPbDdHtrE0eGuE5ac-eRIhSRlRZcdMnWoMpQ0bvb7kjECrI4KgvCTGBDM9pb4-i4HMp2UtJFZj-GC5ViNADa3MiP2rar355h-bxid-KHFZEP4NPe_owphSv5AxhbBPteRPy7fUGT2HRJRhgZv2cm4-7RgBYwXsv2-jyL1NsBkfZ4mgq0Y4h8kQHD7-hh3Xzm2-I-gxVKG1CU3DpxWkY2MDtD8aovOdFYD7EMQxQH8KkdRDJ7duWXE62CqyphYwm-JJwWCOrDZQBleqHcdZLCa3y8Gi3PhDlwTVCXvs0njyEoQSnuI4NsyzJV-y-rYA5Cp9y04K_PjxYuJui8hfw6YCFXW0jq_il7Ni3zVVoULhL7qBqii0vb5hKDRs7MJ3f6TcmIGzEmWMrmgD7Ab5zMXVSqkFf1ybiaXzKof8RVC3hzny0?></g></svg>