<svg xmlns="http://www.w3.org/2000/svg" xmlns:xlink="http://www.w3.org/1999/xlink" contentStyleType="text/css" data-diagram-type="DESCRIPTION" height="521px" preserveAspectRatio="none" style="width:489px;height:521px;" version="1.1" viewBox="0 0 489 521" width="489px" zoomAndPan="magnify"><?plantuml 1.2026.5?><defs><style><![CDATA[
@media (prefers-color-scheme: dark) {
  text { fill: #e5e7eb !important; }
  path, line, rect, circle, ellipse, polygon, polyline { stroke: #cbd5e1 !important; }
  .entity rect, .participant rect, .participant path, .sequenceLine rect, .class rect, .component rect, .component path, .note rect { fill: #111827 !important; }
  .cluster path { fill: none !important; }
  polygon { fill: #cbd5e1 !important; }
}
]]></style></defs><g><!--cluster External--><g class="cluster" data-qualified-name="External" data-source-line="13" id="ent0001"><path d="M109.5,6 L220.668,6 A3.75,3.75 0 0 1 223.168,8.5 L230.168,28.4883 L471.5,28.4883 A2.5,2.5 0 0 1 474,30.9883 L474,90.99 A2.5,2.5 0 0 1 471.5,93.49 L109.5,93.49 A2.5,2.5 0 0 1 107,90.99 L107,8.5 A2.5,2.5 0 0 1 109.5,6" fill="none" style="stroke:#64748B;stroke-width:1.5;"/><line style="stroke:#64748B;stroke-width:1.5;" x1="107" x2="230.168" y1="28.4883" y2="28.4883"/><text fill="#000000" font-family="sans-serif" font-size="14" font-weight="700" lengthAdjust="spacing" textLength="110.168" x="111" y="21.5352">External Actors</text></g><!--cluster Nanobot--><g class="cluster" data-qualified-name="Nanobot" data-source-line="17" id="ent0004"><path d="M8.5,142.49 L248.0225,142.49 A3.75,3.75 0 0 1 250.5225,144.99 L257.5225,164.9783 L365.5,164.9783 A2.5,2.5 0 0 1 368,167.4783 L368,503.92 A2.5,2.5 0 0 1 365.5,506.42 L8.5,506.42 A2.5,2.5 0 0 1 6,503.92 L6,144.99 A2.5,2.5 0 0 1 8.5,142.49" fill="none" style="stroke:#64748B;stroke-width:1.5;"/><line style="stroke:#64748B;stroke-width:1.5;" x1="6" x2="257.5225" y1="164.9783" y2="164.9783"/><text fill="#000000" font-family="sans-serif" font-size="14" font-weight="700" lengthAdjust="spacing" textLength="238.5225" x="10" y="158.0252">nanobot Package v0.1.4.post3 &#128008;</text></g><!--entity USER--><g class="entity" data-qualified-name="External.USER" data-source-line="14" id="ent0002"><rect fill="#F8FAFC" height="36.4883" rx="2.5" ry="2.5" style="stroke:#4B5563;stroke-width:0.5;" width="158.3145" x="122.84" y="41"/><text fill="#111827" font-family="sans-serif" font-size="14" lengthAdjust="spacing" textLength="138.3145" x="132.84" y="64.5352">&#128100; Developer / User</text></g><!--entity SCRIPT--><g class="entity" data-qualified-name="External.SCRIPT" data-source-line="15" id="ent0003"><rect fill="#F8FAFC" height="36.4883" rx="2.5" ry="2.5" style="stroke:#4B5563;stroke-width:0.5;" width="141.7988" x="316.1" y="41"/><text fill="#111827" font-family="sans-serif" font-size="14" lengthAdjust="spacing" textLength="121.7988" x="326.1" y="64.5352">&#128220; External Script</text></g><!--entity INIT--><g class="entity" data-qualified-name="Nanobot.INIT" data-source-line="18" id="ent0005"><rect fill="#F8FAFC" height="52.9766" rx="2.5" ry="2.5" style="stroke:#4B5563;stroke-width:0.5;" width="111.3281" x="240.34" y="307.47"/><text fill="#111827" font-family="sans-serif" font-size="14" lengthAdjust="spacing" text-decoration="underline" textLength="22.0186" x="274.717" y="331.0052">init</text><text fill="#111827" font-family="sans-serif" font-size="14" lengthAdjust="spacing" textLength="20.5557" x="296.7355" y="331.0052">.py</text><text fill="#111827" font-family="sans-serif" font-size="14" lengthAdjust="spacing" textLength="91.3281" x="250.34" y="347.4934">Package Core</text></g><!--entity MAIN--><g class="entity" data-qualified-name="Nanobot.MAIN" data-source-line="19" id="ent0006"><rect fill="#F8FAFC" height="52.9766" rx="2.5" ry="2.5" style="stroke:#4B5563;stroke-width:0.5;" width="118.9092" x="21.55" y="177.49"/><text fill="#111827" font-family="sans-serif" font-size="14" lengthAdjust="spacing" text-decoration="underline" textLength="33.5371" x="53.9582" y="201.0252">main</text><text fill="#111827" font-family="sans-serif" font-size="14" lengthAdjust="spacing" textLength="20.5557" x="87.4953" y="201.0252">.py</text><text fill="#111827" font-family="sans-serif" font-size="14" lengthAdjust="spacing" textLength="98.9092" x="31.55" y="217.5134">CLI Entry Point</text></g><!--entity APP--><g class="entity" data-qualified-name="Nanobot.APP" data-source-line="20" id="ent0007"><rect fill="#F8FAFC" height="52.9766" rx="2.5" ry="2.5" style="stroke:#4B5563;stroke-width:0.5;" width="183.3789" x="22.31" y="307.47"/><text fill="#111827" font-family="sans-serif" font-size="14" lengthAdjust="spacing" textLength="25.3545" x="101.3222" y="331.0052">app</text><text fill="#111827" font-family="sans-serif" font-size="14" lengthAdjust="spacing" textLength="163.3789" x="32.31" y="347.4934">CLI Application Instance</text></g><!--entity PKG--><g class="entity" data-qualified-name="Nanobot.PKG" data-source-line="21" id="ent0008"><rect fill="#F8FAFC" height="52.9766" rx="2.5" ry="2.5" style="stroke:#4B5563;stroke-width:0.5;" width="185.3955" x="74.3" y="437.44"/><text fill="#111827" font-family="sans-serif" font-size="14" lengthAdjust="spacing" textLength="137.5732" x="98.2111" y="460.9752">Nanobot Framework</text><text fill="#111827" font-family="sans-serif" font-size="14" lengthAdjust="spacing" textLength="165.3955" x="84.3" y="477.4634">AI Agent Building Blocks</text></g><!--link INIT to PKG--><g class="link" data-entity-1="ent0005" data-entity-2="ent0008" data-link-type="dependency" data-source-line="22" id="lnk9"><path d="M269.89,360.85 C247.51,383.06 218.9898,411.3588 196.6198,433.5488" fill="none" id="INIT-to-PKG" style="stroke:#4B5563;stroke-width:1;"/><polygon fill="#4B5563" points="193.07,437.07,202.2766,433.5716,196.6198,433.5488,196.6426,427.892,193.07,437.07" style="stroke:#4B5563;stroke-width:1;stroke-linejoin:miter;stroke-miterlimit:10;"/><text fill="#000000" font-family="sans-serif" font-size="13" lengthAdjust="spacing" textLength="117.5903" x="240.22" y="404.0084">defines framework</text></g><!--link MAIN to APP--><g class="link" data-entity-1="ent0006" data-entity-2="ent0007" data-link-type="dependency" data-source-line="23" id="lnk10"><path d="M75.94,230.64 C74.14,244.73 73.53,262.37 78,277.47 C81.1,287.93 84.04,294.1343 90.06,302.9943" fill="none" id="MAIN-to-APP" style="stroke:#4B5563;stroke-width:1;"/><polygon fill="#4B5563" points="92.87,307.13,91.1205,297.4378,90.06,302.9943,84.5034,301.9338,92.87,307.13" style="stroke:#4B5563;stroke-width:1;stroke-linejoin:miter;stroke-miterlimit:10;"/><text fill="#000000" font-family="sans-serif" font-size="13" lengthAdjust="spacing" textLength="114.1689" x="79" y="274.0384">imports &amp; invokes</text></g><!--link APP to PKG--><g class="link" data-entity-1="ent0007" data-entity-2="ent0008" data-link-type="dependency" data-source-line="24" id="lnk11"><path d="M117.82,360.8 C120.46,374.95 124.66,392.58 131,407.44 C135.37,417.69 138.8048,423.9876 144.8548,433.0076" fill="none" id="APP-to-PKG" style="stroke:#4B5563;stroke-width:1;"/><polygon fill="#4B5563" points="147.64,437.16,145.9486,427.4575,144.8548,433.0076,139.3047,431.9137,147.64,437.16" style="stroke:#4B5563;stroke-width:1;stroke-linejoin:miter;stroke-miterlimit:10;"/><text fill="#000000" font-family="sans-serif" font-size="13" lengthAdjust="spacing" textLength="50.1973" x="132" y="404.0084">extends</text></g><!--link USER to MAIN--><g class="link" data-entity-1="ent0002" data-entity-2="ent0006" data-link-type="dependency" data-source-line="26" id="lnk12"><path d="M122.49,72.32 C101.34,79.55 80.84,91.1 68,109.49 C54.21,129.24 58.7285,152.4836 66.6185,172.6536" fill="none" id="USER-to-MAIN" style="stroke:#4B5563;stroke-width:1;"/><polygon fill="#4B5563" points="68.44,177.31,68.8865,167.4713,66.6185,172.6536,61.4362,170.3856,68.44,177.31" style="stroke:#4B5563;stroke-width:1;stroke-linejoin:miter;stroke-miterlimit:10;"/><text fill="#000000" font-family="sans-serif" font-size="13" lengthAdjust="spacing" textLength="124.1729" x="69" y="123.0584">python -m nanobot</text></g><!--link SCRIPT to INIT--><g class="link" data-entity-1="ent0003" data-entity-2="ent0005" data-link-type="dependency" data-source-line="27" id="lnk13"><path d="M381.17,77.72 C365.6,124.39 324.5532,247.3973 306.1832,302.4273" fill="none" id="SCRIPT-to-INIT" style="stroke:#4B5563;stroke-width:1;"/><polygon fill="#4B5563" points="304.6,307.17,311.244,299.8997,306.1832,302.4273,303.6556,297.3665,304.6,307.17" style="stroke:#4B5563;stroke-width:1;stroke-linejoin:miter;stroke-miterlimit:10;"/><text fill="#000000" font-family="sans-serif" font-size="13" lengthAdjust="spacing" textLength="98.687" x="363.05" y="209.0484">import nanobot</text></g><!--link USER to APP--><g class="link" data-entity-1="ent0002" data-entity-2="ent0007" data-link-type="dependency" data-source-line="28" id="lnk14"><path d="M206.87,77.98 C216.52,116.92 234.16,211.69 198,277.47 C191.43,289.41 185.1641,296.3598 173.9241,304.2398" fill="none" id="USER-to-APP" style="stroke:#4B5563;stroke-width:1;"/><polygon fill="#4B5563" points="169.83,307.11,179.4956,305.2188,173.9241,304.2398,174.9032,298.6683,169.83,307.11" style="stroke:#4B5563;stroke-width:1;stroke-linejoin:miter;stroke-miterlimit:10;"/><text fill="#000000" font-family="sans-serif" font-size="13" lengthAdjust="spacing" textLength="95.0942" x="220.77" y="209.0484">CLI Commands</text></g><?plantuml-src ZPBFQjj04CRlUeh1WTxiresJc1mAikeKqTQ8sBa5p5fQAOkacMLtRSU4tdDiwRMGInymZz1T_RDSUkX5e9tVVD-tiwDpWP8fLiA6nNccQ8j9G0KfC8gXjYMEnjCTfHzOGdk16QIiqBnNINZAjeLPyKVZ5oB3qZP2R3zSzIXVAThN1cUJpSN5vNcl6Da8BECpKWbN3NGvkPfCD_-0_Ykkuh5Xc1KSdZo04-767U26q3Hdu_5u-lxAaN-fdwNJbAMnzyqp9C4GRCWOifSMpa4GUhAE1OFvexqniWBys93I0s0QkhCdxvXeyFhoupTyv3jUaEGAtiATvghYxvRpsrFovw-Zo39MGfeAN0QtORIoiJfxP4WsN3icsBqRZKUJaIHjpk7rvVjprRTeg9CywxL0OTRhaJpSOziVaE9LIxW8LwTqoGGsTF0bX3aQTO281DRPllhXej_0fAn1Nyf2nCoD3KBKjXxN5duKzHlQa3Vs9VcUL7wFlktEt6BDjg98t1hE2ehpUihHvq-UImd3uGVt0zTkAGLo3MahuRbK5M3DB21AISfeU0C2TvHpxRdpeu3TPew9jXDsRr8LAeLha0VpO2ymBA4PkLS_HiLKCLhr3kWaQcytYu3Aabc3Fm00?></g></svg>