<svg xmlns="http://www.w3.org/2000/svg" xmlns:xlink="http://www.w3.org/1999/xlink" contentStyleType="text/css" data-diagram-type="DESCRIPTION" height="728px" preserveAspectRatio="none" style="width:1117px;height:728px;background:#FFFFFF;" version="1.1" viewBox="0 0 1117 728" width="1117px" zoomAndPan="magnify"><?plantuml 1.2026.5?><defs/><rect data-xfeat-white-canvas="true" fill="#FFFFFF" height="100%" width="100%" x="0" y="0"/><g><!--cluster CLI--><g class="cluster" data-qualified-name="CLI" data-source-line="3" id="ent0001"><rect fill="#FFFFFF" height="210" rx="4" ry="4" style="stroke:#CBD5E1;stroke-width:1;" width="174" x="405" y="7"/><text fill="#0F172A" font-family="Helvetica" font-size="14" font-weight="700" lengthAdjust="spacing" textLength="74.6621" x="454.6689" y="19.7803">nanobot/cli</text></g><!--cluster Interface--><g class="cluster" data-qualified-name="Interface" data-source-line="7" id="ent0004"><rect fill="#FFFFFF" height="97" rx="4" ry="4" style="stroke:#CBD5E1;stroke-width:1;" width="500" x="603" y="7"/><text fill="#0F172A" font-family="Helvetica" font-size="14" font-weight="700" lengthAdjust="spacing" textLength="134.627" x="785.6865" y="19.7803">User Interface Layer</text></g><!--cluster Features--><g class="cluster" data-qualified-name="Features" data-source-line="12" id="ent0008"><rect fill="#FFFFFF" height="125" rx="4" ry="4" style="stroke:#CBD5E1;stroke-width:1;" width="946" x="7" y="275"/><text fill="#0F172A" font-family="Helvetica" font-size="14" font-weight="700" lengthAdjust="spacing" textLength="147.0273" x="406.4863" y="287.7803">Core Feature Modules</text></g><!--cluster Channels--><g class="cluster" data-qualified-name="Channels" data-source-line="19" id="ent0014"><rect fill="#FFFFFF" height="281" rx="4" ry="4" style="stroke:#CBD5E1;stroke-width:1;" width="443" x="39" y="433"/><text fill="#0F172A" font-family="Helvetica" font-size="14" font-weight="700" lengthAdjust="spacing" textLength="148.5586" x="186.2207" y="445.7803">Multi-Channel Bridges</text></g><!--cluster Providers--><g class="cluster" data-qualified-name="Providers" data-source-line="29" id="ent0023"><rect fill="#FFFFFF" height="182" rx="4" ry="4" style="stroke:#CBD5E1;stroke-width:1;" width="407" x="506" y="433"/><text fill="#0F172A" font-family="Helvetica" font-size="14" font-weight="700" lengthAdjust="spacing" textLength="82.4756" x="668.2622" y="445.7803">AI Providers</text></g><!--entity INIT--><g class="entity" data-qualified-name="CLI.INIT" data-source-line="4" id="ent0002"><rect fill="#FFFFFF" height="48" rx="4" ry="4" style="stroke:#64748B;stroke-width:0.5;" width="133.6133" x="425.19" y="40"/><text fill="#0F172A" font-family="Helvetica" font-size="14" lengthAdjust="spacing" text-decoration="underline" textLength="17.8965" x="473.7105" y="60.7803">init</text><text fill="#0F172A" font-family="Helvetica" font-size="14" lengthAdjust="spacing" textLength="18.6758" x="491.607" y="60.7803">.py</text><text fill="#0F172A" font-family="Helvetica" font-size="14" lengthAdjust="spacing" textLength="113.6133" x="435.19" y="74.7803">Package Initializer</text></g><!--entity CMD--><g class="entity" data-qualified-name="CLI.CMD" data-source-line="5" id="ent0003"><rect fill="#FFFFFF" height="48" rx="4" ry="4" style="stroke:#64748B;stroke-width:0.5;" width="141.3926" x="421.3" y="153"/><text fill="#0F172A" font-family="Helvetica" font-size="14" lengthAdjust="spacing" textLength="87.1445" x="448.424" y="173.7803">commands.py</text><text fill="#0F172A" font-family="Helvetica" font-size="14" lengthAdjust="spacing" textLength="121.3926" x="431.3" y="187.7803">CLI Implementation</text></g><!--entity ARGS--><g class="entity" data-qualified-name="Interface.ARGS" data-source-line="8" id="ent0005"><rect fill="#FFFFFF" height="34" rx="4" ry="4" style="stroke:#64748B;stroke-width:0.5;" width="147.6133" x="939.19" y="47"/><text fill="#0F172A" font-family="Helvetica" font-size="14" lengthAdjust="spacing" textLength="127.6133" x="949.19" y="67.7803">Command Line Args</text></g><!--entity STDIN--><g class="entity" data-qualified-name="Interface.STDIN" data-source-line="9" id="ent0006"><rect fill="#FFFFFF" height="34" rx="4" ry="4" style="stroke:#64748B;stroke-width:0.5;" width="119.6133" x="619.19" y="47"/><text fill="#0F172A" font-family="Helvetica" font-size="14" lengthAdjust="spacing" textLength="99.6133" x="629.19" y="67.7803">Interactive Input</text></g><!--entity SIGNALS--><g class="entity" data-qualified-name="Interface.SIGNALS" data-source-line="10" id="ent0007"><rect fill="#FFFFFF" height="48" rx="4" ry="4" style="stroke:#64748B;stroke-width:0.5;" width="116.4824" x="780.76" y="40"/><text fill="#0F172A" font-family="Helvetica" font-size="14" lengthAdjust="spacing" textLength="96.4824" x="790.76" y="60.7803">System Signals</text><text fill="#0F172A" font-family="Helvetica" font-size="14" lengthAdjust="spacing" textLength="92.5518" x="792.7253" y="74.7803">(SIGINT, EOF)</text></g><!--entity CHAT--><g class="entity" data-qualified-name="Features.CHAT" data-source-line="13" id="ent0009"><rect fill="#FFFFFF" height="76" rx="4" ry="4" style="stroke:#64748B;stroke-width:0.5;" width="163.9648" x="247.02" y="308"/><text fill="#0F172A" font-family="Helvetica" font-size="14" lengthAdjust="spacing" textLength="77.0547" x="290.4751" y="328.7803">Chat Engine</text><text fill="#0F172A" font-family="Helvetica" font-size="14" lengthAdjust="spacing" textLength="143.9648" x="257.02" y="342.7803">- Session Management</text><text fill="#0F172A" font-family="Helvetica" font-size="14" lengthAdjust="spacing" textLength="141.6201" x="258.1924" y="356.7803">- Markdown Rendering</text><text fill="#0F172A" font-family="Helvetica" font-size="14" lengthAdjust="spacing" textLength="129.1445" x="264.4302" y="370.7803">- History Persistence</text></g><!--entity GATEWAY--><g class="entity" data-qualified-name="Features.GATEWAY" data-source-line="14" id="ent0010"><rect fill="#FFFFFF" height="76" rx="4" ry="4" style="stroke:#64748B;stroke-width:0.5;" width="129.71" x="453.15" y="308"/><text fill="#0F172A" font-family="Helvetica" font-size="14" lengthAdjust="spacing" textLength="100.3721" x="467.8189" y="328.7803">Gateway Server</text><text fill="#0F172A" font-family="Helvetica" font-size="14" lengthAdjust="spacing" textLength="77.0479" x="479.4811" y="342.7803">- Port 18790</text><text fill="#0F172A" font-family="Helvetica" font-size="14" lengthAdjust="spacing" textLength="109.71" x="463.15" y="356.7803">- MCP Integration</text><text fill="#0F172A" font-family="Helvetica" font-size="14" lengthAdjust="spacing" textLength="93.3721" x="471.3189" y="370.7803">- Message Bus</text></g><!--entity SCHEDULER--><g class="entity" data-qualified-name="Features.SCHEDULER" data-source-line="15" id="ent0011"><rect fill="#FFFFFF" height="62" rx="4" ry="4" style="stroke:#64748B;stroke-width:0.5;" width="181.8203" x="23.09" y="315"/><text fill="#0F172A" font-family="Helvetica" font-size="14" lengthAdjust="spacing" textLength="97.2754" x="65.3625" y="335.7803">Cron Scheduler</text><text fill="#0F172A" font-family="Helvetica" font-size="14" lengthAdjust="spacing" textLength="161.8203" x="33.09" y="349.7803">- Interval/Cron/Timestamp</text><text fill="#0F172A" font-family="Helvetica" font-size="14" lengthAdjust="spacing" textLength="142.3994" x="42.8004" y="363.7803">- Enable/Disable/Force</text></g><!--entity PROVIDER--><g class="entity" data-qualified-name="Features.PROVIDER" data-source-line="16" id="ent0012"><rect fill="#FFFFFF" height="76" rx="4" ry="4" style="stroke:#64748B;stroke-width:0.5;" width="131.2754" x="624.36" y="308"/><text fill="#0F172A" font-family="Helvetica" font-size="14" lengthAdjust="spacing" textLength="111.2754" x="634.36" y="328.7803">Provider Manager</text><text fill="#0F172A" font-family="Helvetica" font-size="14" lengthAdjust="spacing" textLength="88.6895" x="645.653" y="342.7803">- OAuth Flows</text><text fill="#0F172A" font-family="Helvetica" font-size="14" lengthAdjust="spacing" textLength="66.1309" x="656.9323" y="356.7803">- API Keys</text><text fill="#0F172A" font-family="Helvetica" font-size="14" lengthAdjust="spacing" textLength="98.0342" x="640.9806" y="370.7803">- LiteLLM Proxy</text></g><!--entity ONBOARD--><g class="entity" data-qualified-name="Features.ONBOARD" data-source-line="17" id="ent0013"><rect fill="#FFFFFF" height="76" rx="4" ry="4" style="stroke:#64748B;stroke-width:0.5;" width="139.0479" x="797.48" y="308"/><text fill="#0F172A" font-family="Helvetica" font-size="14" lengthAdjust="spacing" textLength="73.165" x="830.4214" y="328.7803">Onboarding</text><text fill="#0F172A" font-family="Helvetica" font-size="14" lengthAdjust="spacing" textLength="119.0479" x="807.48" y="342.7803">- Workspace Setup</text><text fill="#0F172A" font-family="Helvetica" font-size="14" lengthAdjust="spacing" textLength="71.5859" x="831.211" y="356.7803">- Config Init</text><text fill="#0F172A" font-family="Helvetica" font-size="14" lengthAdjust="spacing" textLength="101.9238" x="816.042" y="370.7803">- Template Sync</text></g><!--entity WA--><g class="entity" data-qualified-name="Channels.WA" data-source-line="20" id="ent0015"><rect fill="#FFFFFF" height="34" rx="4" ry="4" style="stroke:#64748B;stroke-width:0.5;" width="84.5859" x="381.71" y="466"/><text fill="#0F172A" font-family="Helvetica" font-size="14" lengthAdjust="spacing" textLength="64.5859" x="391.71" y="486.7803">WhatsApp</text></g><!--entity DC--><g class="entity" data-qualified-name="Channels.DC" data-source-line="21" id="ent0016"><rect fill="#FFFFFF" height="34" rx="4" ry="4" style="stroke:#64748B;stroke-width:0.5;" width="67.4551" x="55.27" y="466"/><text fill="#0F172A" font-family="Helvetica" font-size="14" lengthAdjust="spacing" textLength="47.4551" x="65.27" y="486.7803">Discord</text></g><!--entity TG--><g class="entity" data-qualified-name="Channels.TG" data-source-line="22" id="ent0017"><rect fill="#FFFFFF" height="34" rx="4" ry="4" style="stroke:#64748B;stroke-width:0.5;" width="79.1309" x="164.43" y="466"/><text fill="#0F172A" font-family="Helvetica" font-size="14" lengthAdjust="spacing" textLength="59.1309" x="174.43" y="486.7803">Telegram</text></g><!--entity SL--><g class="entity" data-qualified-name="Channels.SL" data-source-line="23" id="ent0018"><rect fill="#FFFFFF" height="34" rx="4" ry="4" style="stroke:#64748B;stroke-width:0.5;" width="54.2344" x="285.88" y="466"/><text fill="#0F172A" font-family="Helvetica" font-size="14" lengthAdjust="spacing" textLength="34.2344" x="295.88" y="486.7803">Slack</text></g><!--entity FS--><g class="entity" data-qualified-name="Channels.FS" data-source-line="24" id="ent0019"><rect fill="#FFFFFF" height="34" rx="4" ry="4" style="stroke:#64748B;stroke-width:0.5;" width="62.0205" x="57.99" y="565"/><text fill="#0F172A" font-family="Helvetica" font-size="14" lengthAdjust="spacing" textLength="42.0205" x="67.99" y="585.7803">Feishu</text></g><!--entity DT--><g class="entity" data-qualified-name="Channels.DT" data-source-line="25" id="ent0020"><rect fill="#FFFFFF" height="34" rx="4" ry="4" style="stroke:#64748B;stroke-width:0.5;" width="75.2412" x="162.38" y="565"/><text fill="#0F172A" font-family="Helvetica" font-size="14" lengthAdjust="spacing" textLength="55.2412" x="172.38" y="585.7803">DingTalk</text></g><!--entity EM--><g class="entity" data-qualified-name="Channels.EM" data-source-line="26" id="ent0021"><rect fill="#FFFFFF" height="34" rx="4" ry="4" style="stroke:#64748B;stroke-width:0.5;" width="55.0068" x="279.5" y="565"/><text fill="#0F172A" font-family="Helvetica" font-size="14" lengthAdjust="spacing" textLength="35.0068" x="289.5" y="585.7803">Email</text></g><!--entity MC--><g class="entity" data-qualified-name="Channels.MC" data-source-line="27" id="ent0022"><rect fill="#FFFFFF" height="34" rx="4" ry="4" style="stroke:#64748B;stroke-width:0.5;" width="65.9102" x="56.04" y="664"/><text fill="#0F172A" font-family="Helvetica" font-size="14" lengthAdjust="spacing" textLength="45.9102" x="66.04" y="684.7803">Mochat</text></g><!--entity OAI--><g class="entity" data-qualified-name="Providers.OAI" data-source-line="30" id="ent0024"><rect fill="#FFFFFF" height="34" rx="4" ry="4" style="stroke:#64748B;stroke-width:0.5;" width="67.4756" x="829.26" y="466"/><text fill="#0F172A" font-family="Helvetica" font-size="14" lengthAdjust="spacing" textLength="47.4756" x="839.26" y="486.7803">OpenAI</text></g><!--entity COPILOT--><g class="entity" data-qualified-name="Providers.COPILOT" data-source-line="31" id="ent0025"><rect fill="#FFFFFF" height="34" rx="4" ry="4" style="stroke:#64748B;stroke-width:0.5;" width="111.041" x="522.48" y="466"/><text fill="#0F172A" font-family="Helvetica" font-size="14" lengthAdjust="spacing" textLength="91.041" x="532.48" y="486.7803">GitHub Copilot</text></g><!--entity CODEX--><g class="entity" data-qualified-name="Providers.CODEX" data-source-line="32" id="ent0026"><rect fill="#FFFFFF" height="34" rx="4" ry="4" style="stroke:#64748B;stroke-width:0.5;" width="111.834" x="675.08" y="466"/><text fill="#0F172A" font-family="Helvetica" font-size="14" lengthAdjust="spacing" textLength="91.834" x="685.08" y="486.7803">OpenAI Codex</text></g><!--entity LOCAL--><g class="entity" data-qualified-name="Providers.LOCAL" data-source-line="33" id="ent0027"><rect fill="#FFFFFF" height="34" rx="4" ry="4" style="stroke:#64748B;stroke-width:0.5;" width="102.4893" x="526.76" y="565"/><text fill="#0F172A" font-family="Helvetica" font-size="14" lengthAdjust="spacing" textLength="82.4893" x="536.76" y="585.7803">Local Models</text></g><!--entity CUSTOM--><g class="entity" data-qualified-name="Providers.CUSTOM" data-source-line="34" id="ent0028"><rect fill="#FFFFFF" height="34" rx="4" ry="4" style="stroke:#64748B;stroke-width:0.5;" width="134.3926" x="670.8" y="565"/><text fill="#0F172A" font-family="Helvetica" font-size="14" lengthAdjust="spacing" textLength="114.3926" x="680.8" y="585.7803">Custom Endpoints</text></g><!--link ARGS to CMD--><g class="link" data-entity-1="ent0005" data-entity-2="ent0003" data-link-type="dependency" data-source-line="36" id="lnk29"><path d="M979.77,81.44 C952.38,94.99 918,112 918,112 C918,112 688.9045,146.4171 567.7645,164.6171" fill="none" id="ARGS-to-CMD" style="stroke:#64748B;stroke-width:1.1;"/><polygon fill="#64748B" points="562.82,165.36,572.3144,167.9785,567.7645,164.6171,571.1258,160.0672,562.82,165.36" style="stroke:#64748B;stroke-width:1.1;stroke-linejoin:miter;stroke-miterlimit:10;"/></g><!--link STDIN to CMD--><g class="link" data-entity-1="ent0006" data-entity-2="ent0003" data-link-type="dependency" data-source-line="37" id="lnk30"><path d="M651.41,81.38 C619.71,100.19 571.7492,128.6572 535.7592,150.0272" fill="none" id="STDIN-to-CMD" style="stroke:#64748B;stroke-width:1.1;"/><polygon fill="#64748B" points="531.46,152.58,541.2408,151.4244,535.7592,150.0272,537.1564,144.5456,531.46,152.58" style="stroke:#64748B;stroke-width:1.1;stroke-linejoin:miter;stroke-miterlimit:10;"/></g><!--link SIGNALS to CMD--><g class="link" data-entity-1="ent0007" data-entity-2="ent0003" data-link-type="dependency" data-source-line="38" id="lnk31"><path d="M799.5,88.5 C779.75,100.25 760,112 760,112 C760,112 647.3732,138.8986 567.9832,157.8586" fill="none" id="SIGNALS-to-CMD" style="stroke:#64748B;stroke-width:1.1;"/><polygon fill="#64748B" points="563.12,159.02,572.803,160.82,567.9832,157.8586,570.9447,153.0388,563.12,159.02" style="stroke:#64748B;stroke-width:1.1;stroke-linejoin:miter;stroke-miterlimit:10;"/></g><!--link INIT to CMD--><g class="link" data-entity-1="ent0002" data-entity-2="ent0003" data-link-type="dependency" data-source-line="39" id="lnk32"><path d="M492,88.27 C492,107.21 492,128.83 492,147.76" fill="none" id="INIT-to-CMD" style="stroke:#64748B;stroke-width:1.1;stroke-dasharray:7,7;"/><polygon fill="#64748B" points="492,152.76,496,143.76,492,147.76,488,143.76,492,152.76" style="stroke:#64748B;stroke-width:1.1;stroke-linejoin:miter;stroke-miterlimit:10;"/></g><!--link CMD to CHAT--><g class="link" data-entity-1="ent0003" data-entity-2="ent0009" data-link-type="dependency" data-source-line="40" id="lnk33"><path d="M470.31,201.43 C448.16,225.35 417,259 417,259 C417,259 394.636,280.8554 370.916,304.0354" fill="none" id="CMD-to-CHAT" style="stroke:#64748B;stroke-width:1.1;"/><polygon fill="#64748B" points="367.34,307.53,376.5725,304.1005,370.916,304.0354,370.9811,298.3789,367.34,307.53" style="stroke:#64748B;stroke-width:1.1;stroke-linejoin:miter;stroke-miterlimit:10;"/></g><!--link CHAT to CMD--><g class="link" data-entity-1="ent0009" data-entity-2="ent0003" data-link-type="dependency" data-source-line="47" id="lnk40"><path d="M325.08,307.53 C322.65,284.35 320,259 320,259 C320,259 320,233 320,233 C320,233 368.9075,217.3628 416.2875,202.2128" fill="none" id="CHAT-to-CMD" style="stroke:#64748B;stroke-width:1.1;"/><polygon fill="#64748B" points="421.05,200.69,411.2593,199.6211,416.2875,202.2128,413.6958,207.241,421.05,200.69" style="stroke:#64748B;stroke-width:1.1;stroke-linejoin:miter;stroke-miterlimit:10;"/><text fill="#334155" font-family="Helvetica" font-size="12" lengthAdjust="spacing" textLength="85.3828" x="321" y="243.2402">Single Message</text><text fill="#334155" font-family="Helvetica" font-size="12" lengthAdjust="spacing" textLength="44.666" x="341.3584" y="255.2402">(-m flag)</text></g><!--link CMD to GATEWAY--><g class="link" data-entity-1="ent0003" data-entity-2="ent0010" data-link-type="dependency" data-source-line="41" id="lnk34"><path d="M495.62,201.22 C499.9,228.73 506.3199,270.0097 511.3999,302.5997" fill="none" id="CMD-to-GATEWAY" style="stroke:#64748B;stroke-width:1.1;"/><polygon fill="#64748B" points="512.17,307.54,514.7361,298.0313,511.3999,302.5997,506.8316,299.2634,512.17,307.54" style="stroke:#64748B;stroke-width:1.1;stroke-linejoin:miter;stroke-miterlimit:10;"/></g><!--link GATEWAY to CMD--><g class="link" data-entity-1="ent0010" data-entity-2="ent0003" data-link-type="dependency" data-source-line="48" id="lnk41"><path d="M517,307.71 C516.13,275.12 515,233 515,233 C515,233 509.9483,220.9332 503.6783,205.9332" fill="none" id="GATEWAY-to-CMD" style="stroke:#64748B;stroke-width:1.1;"/><polygon fill="#64748B" points="501.75,201.32,501.5304,211.1664,503.6783,205.9332,508.9115,208.0811,501.75,201.32" style="stroke:#64748B;stroke-width:1.1;stroke-linejoin:miter;stroke-miterlimit:10;"/><text fill="#334155" font-family="Helvetica" font-size="12" lengthAdjust="spacing" textLength="78.709" x="516.65" y="243.2402">Daemon Mode</text><text fill="#334155" font-family="Helvetica" font-size="12" lengthAdjust="spacing" textLength="60.6797" x="525.6646" y="255.2402">(--gateway)</text></g><!--link CMD to SCHEDULER--><g class="link" data-entity-1="ent0003" data-entity-2="ent0011" data-link-type="dependency" data-source-line="42" id="lnk35"><path d="M420.85,199.5 C369.81,214.93 310,233 310,233 C310,233 226,267 226,267 C226,267 193.1732,289.8628 161.7232,311.7628" fill="none" id="CMD-to-SCHEDULER" style="stroke:#64748B;stroke-width:1.1;"/><polygon fill="#64748B" points="157.62,314.62,167.2915,312.7595,161.7232,311.7628,162.72,306.1944,157.62,314.62" style="stroke:#64748B;stroke-width:1.1;stroke-linejoin:miter;stroke-miterlimit:10;"/></g><!--link CMD to PROVIDER--><g class="link" data-entity-1="ent0003" data-entity-2="ent0012" data-link-type="dependency" data-source-line="43" id="lnk36"><path d="M540.68,201.48 C571.66,216.43 606,233 606,233 C606,233 634.5902,271.1199 659.0302,303.7099" fill="none" id="CMD-to-PROVIDER" style="stroke:#64748B;stroke-width:1.1;"/><polygon fill="#64748B" points="662.03,307.71,659.8305,298.1099,659.0302,303.7099,653.4302,302.9096,662.03,307.71" style="stroke:#64748B;stroke-width:1.1;stroke-linejoin:miter;stroke-miterlimit:10;"/></g><!--link CMD to ONBOARD--><g class="link" data-entity-1="ent0003" data-entity-2="ent0013" data-link-type="dependency" data-source-line="44" id="lnk37"><path d="M563.18,200.23 C647.6,226.59 777,267 777,267 C777,267 796.9716,284.3053 820.0716,304.3253" fill="none" id="CMD-to-ONBOARD" style="stroke:#64748B;stroke-width:1.1;"/><polygon fill="#64748B" points="823.85,307.6,819.6685,298.6829,820.0716,304.3253,814.4291,304.7284,823.85,307.6" style="stroke:#64748B;stroke-width:1.1;stroke-linejoin:miter;stroke-miterlimit:10;"/></g><!--link GATEWAY to WA--><g class="link" data-entity-1="ent0010" data-entity-2="ent0015" data-link-type="dependency" data-source-line="45" id="lnk38"><path d="M492.07,384.25 C473.48,410.94 452.2074,441.4869 438.2374,461.5469" fill="none" id="GATEWAY-to-WA" style="stroke:#64748B;stroke-width:1.1;"/><polygon fill="#64748B" points="435.38,465.65,443.8058,460.5504,438.2374,461.5469,437.2409,455.9785,435.38,465.65" style="stroke:#64748B;stroke-width:1.1;stroke-linejoin:miter;stroke-miterlimit:10;"/></g><!--link PROVIDER to OAI--><g class="link" data-entity-1="ent0012" data-entity-2="ent0024" data-link-type="dependency" data-source-line="46" id="lnk39"><path d="M742.5,384.24 C760.41,396.94 776,408 776,408 C776,408 808,425 808,425 C808,425 827.3781,445.082 843.6181,461.912" fill="none" id="PROVIDER-to-OAI" style="stroke:#64748B;stroke-width:1.1;"/><polygon fill="#64748B" points="847.09,465.51,843.719,456.256,843.6181,461.912,837.9621,461.8111,847.09,465.51" style="stroke:#64748B;stroke-width:1.1;stroke-linejoin:miter;stroke-miterlimit:10;"/></g><?plantuml-src PLHDRzim3BttLsWzhS3IRgTz70QujfCQi-CWTjSDA10eDki8bIL3ajjcm_xxACbExUqGE28VgST7Yc-Og7XV0-cKV02jcHIKBym1MhXaVSlFZEo8aMGlZP4jgPc2oY3ehAFL8ss0d0ig97glAixE2TKaJ1Fo-yp2g6Wu0dOx9fZPxIwxuxtO3649cXZbx1Se5vMiat8QLCcsfQBMBiYcJDgE8obXgBtUtvH5PtzUYTngK9ZNW7gW5P2K7iVS9zkCL-Yl82aJG0BLQ0SEjgjYYdB156j-igIxtZXKKKR9UWehZjf0ImhMe7xwNhmjabMoBj-HE5zU-91ajGxIOieub0h84gZfyPl9kkVWIGms_G_X0pKa5WtolHSBKlXsaOmAp6QbiTQCgiTQFWko1L63OgAnrXkcZLH7iW6byI-82ho4Dy5CzXKry4oFc5izWRAH6waC-V3fu-VtBdkuSN8sohN1cP26hUQwzznNGHdV1Jzdn1NIBAe3s0fTLgVg4-LNrdLLiXQqeMrdNR6WUmvN4TFkkvHgu5g4Dt5qcyRRQUgDaayCwnnKSCdpe3S7ikJoMTjZi4d8DpYw_oapaAOPmR2NeykwsURVasYUD1TxILKzQ7SdrQFkxFWKO7h7CPJYWJLkYEsn11nEL8uKHr6vhFdwEW-si_7CUcxO0die171ohLZT3DqURFzq-mwxhOEkSv2xOEf2RIgfQkU9mgcd16vxqpfNkPfDA4ScNiXqQby2quVUZrqnlqKq9UK-9fgDITnInfqzpgRsJ5R8sZcoS5fya92nKxxcqsbUTDw1218lOP3C9fEPctwFodUCItz5c6-ID2__ZqTK3Iy39ef_J16fh2YtZmq5TuWq3uEP866lxQgBHTr99ipGezkYp3CioUu7ibXyTTl7hO7Nat_XfxFTQUJoqX_mvntsnOs7yQsCvzSH7osdyHmDusGDeSw6qp7YF0Qbi_UCJCWNN4okkE6nudvQjEI1q-PYbiXZ8mgjtIkeaGKk6hyKBlu2?></g></svg>