<svg xmlns="http://www.w3.org/2000/svg" xmlns:xlink="http://www.w3.org/1999/xlink" contentStyleType="text/css" data-diagram-type="SEQUENCE" height="773px" preserveAspectRatio="none" style="width:821px;height:773px;background:#FFFFFF;" version="1.1" viewBox="0 0 821 773" width="821px" zoomAndPan="magnify"><?plantuml 1.2026.5?><defs/><rect data-xfeat-white-canvas="true" fill="#FFFFFF" height="100%" width="100%" x="0" y="0"/><g><rect fill="#F8FAFC" height="553" rx="4" ry="4" style="stroke:#CBD5E1;stroke-width:1.5;" width="795.6455" x="10" y="168"/><path d="M10,210 L805.6455,210 L805.6455,717 A4,4 0 0 1 801.6455,721 L14,721 A4,4 0 0 1 10,717 L10,210" fill="#F8FAFC" style="stroke:none;stroke-width:1;"/><rect fill="#F8FAFC" height="429" rx="4" ry="4" style="stroke:#CBD5E1;stroke-width:1.5;" width="775.6455" x="20" y="285"/><path d="M20,379 L795.6455,379 L795.6455,710 A4,4 0 0 1 791.6455,714 L24,714 A4,4 0 0 1 20,710 L20,379" fill="#F8FAFC" style="stroke:none;stroke-width:1;"/><rect fill="#F8FAFC" height="227" rx="4" ry="4" style="stroke:#CBD5E1;stroke-width:1.5;" width="755.6455" x="30" y="480"/><path d="M30,574 L785.6455,574 L785.6455,703 A4,4 0 0 1 781.6455,707 L34,707 A4,4 0 0 1 30,703 L30,574" fill="#F8FAFC" style="stroke:none;stroke-width:1;"/><g class="participant-lifeline" data-entity-uid="part1" data-qualified-name="Agent" data-source-line="2" id="part1-lifeline"><g><title>Nanobot Agent</title><rect fill="#000000" fill-opacity="0.00000" height="704" width="8" x="89.7031" y="34"/><line style="stroke:#94A3B8;stroke-width:0.5;stroke-dasharray:5,5;" x1="93" x2="93" y1="34" y2="738"/></g></g><g class="participant-lifeline" data-entity-uid="part2" data-qualified-name="Registry" data-source-line="3" id="part2-lifeline"><g><title>ToolRegistry</title><rect fill="#000000" fill-opacity="0.00000" height="704" width="8" x="271.0273" y="34"/><line style="stroke:#94A3B8;stroke-width:0.5;stroke-dasharray:5,5;" x1="274.7378" x2="274.7378" y1="34" y2="738"/></g></g><g class="participant-lifeline" data-entity-uid="part3" data-qualified-name="Tool" data-source-line="4" id="part3-lifeline"><g><title>Tool Instance</title><rect fill="#000000" fill-opacity="0.00000" height="704" width="8" x="431.082" y="34"/><line style="stroke:#94A3B8;stroke-width:0.5;stroke-dasharray:5,5;" x1="435.0581" x2="435.0581" y1="34" y2="738"/></g></g><g class="participant-lifeline" data-entity-uid="part4" data-qualified-name="Validator" data-source-line="5" id="part4-lifeline"><g><title>JSON Validator</title><rect fill="#000000" fill-opacity="0.00000" height="704" width="8" x="590.4805" y="34"/><line style="stroke:#94A3B8;stroke-width:0.5;stroke-dasharray:5,5;" x1="594.2393" x2="594.2393" y1="34" y2="738"/></g></g><g class="participant-lifeline" data-entity-uid="part5" data-qualified-name="External" data-source-line="6" id="part5-lifeline"><g><title>External System</title><rect fill="#000000" fill-opacity="0.00000" height="704" width="8" x="713.6836" y="34"/><line style="stroke:#94A3B8;stroke-width:0.5;stroke-dasharray:5,5;" x1="716.7217" x2="716.7217" y1="34" y2="738"/></g></g><g class="participant participant-head" data-entity-uid="part1" data-qualified-name="Agent" data-source-line="2" id="part1-head"><rect fill="#F8FAFC" height="28" rx="4" ry="4" style="stroke:#475569;stroke-width:0.5;" width="107.4063" x="40" y="5"/><text fill="#0F172A" font-family="Helvetica" font-size="14" lengthAdjust="spacing" textLength="93.4063" x="47" y="22.7803">Nanobot Agent</text></g><g class="participant participant-tail" data-entity-uid="part1" data-qualified-name="Agent" data-source-line="2" id="part1-tail"><rect fill="#F8FAFC" height="28" rx="4" ry="4" style="stroke:#475569;stroke-width:0.5;" width="107.4063" x="40" y="737"/><text fill="#0F172A" font-family="Helvetica" font-size="14" lengthAdjust="spacing" textLength="93.4063" x="47" y="754.7803">Nanobot Agent</text></g><g class="participant participant-head" data-entity-uid="part2" data-qualified-name="Registry" data-source-line="3" id="part2-head"><rect fill="#F8FAFC" height="28" rx="4" ry="4" style="stroke:#475569;stroke-width:0.5;" width="92.5791" x="228.7378" y="5"/><text fill="#0F172A" font-family="Helvetica" font-size="14" lengthAdjust="spacing" textLength="78.5791" x="235.7378" y="22.7803">ToolRegistry</text></g><g class="participant participant-tail" data-entity-uid="part2" data-qualified-name="Registry" data-source-line="3" id="part2-tail"><rect fill="#F8FAFC" height="28" rx="4" ry="4" style="stroke:#475569;stroke-width:0.5;" width="92.5791" x="228.7378" y="737"/><text fill="#0F172A" font-family="Helvetica" font-size="14" lengthAdjust="spacing" textLength="78.5791" x="235.7378" y="754.7803">ToolRegistry</text></g><g class="participant participant-head" data-entity-uid="part3" data-qualified-name="Tool" data-source-line="4" id="part3-head"><rect fill="#F8FAFC" height="28" rx="4" ry="4" style="stroke:#475569;stroke-width:0.5;" width="98.0479" x="386.0581" y="5"/><text fill="#0F172A" font-family="Helvetica" font-size="14" lengthAdjust="spacing" textLength="84.0479" x="393.0581" y="22.7803">Tool Instance</text></g><g class="participant participant-tail" data-entity-uid="part3" data-qualified-name="Tool" data-source-line="4" id="part3-tail"><rect fill="#F8FAFC" height="28" rx="4" ry="4" style="stroke:#475569;stroke-width:0.5;" width="98.0479" x="386.0581" y="737"/><text fill="#0F172A" font-family="Helvetica" font-size="14" lengthAdjust="spacing" textLength="84.0479" x="393.0581" y="754.7803">Tool Instance</text></g><g class="participant participant-head" data-entity-uid="part4" data-qualified-name="Validator" data-source-line="5" id="part4-head"><rect fill="#F8FAFC" height="28" rx="4" ry="4" style="stroke:#475569;stroke-width:0.5;" width="110.4824" x="539.2393" y="5"/><text fill="#0F172A" font-family="Helvetica" font-size="14" lengthAdjust="spacing" textLength="96.4824" x="546.2393" y="22.7803">JSON Validator</text></g><g class="participant participant-tail" data-entity-uid="part4" data-qualified-name="Validator" data-source-line="5" id="part4-tail"><rect fill="#F8FAFC" height="28" rx="4" ry="4" style="stroke:#475569;stroke-width:0.5;" width="110.4824" x="539.2393" y="737"/><text fill="#0F172A" font-family="Helvetica" font-size="14" lengthAdjust="spacing" textLength="96.4824" x="546.2393" y="754.7803">JSON Validator</text></g><g class="participant participant-head" data-entity-uid="part5" data-qualified-name="External" data-source-line="6" id="part5-head"><rect fill="#F8FAFC" height="28" rx="4" ry="4" style="stroke:#475569;stroke-width:0.5;" width="115.9238" x="659.7217" y="5"/><text fill="#0F172A" font-family="Helvetica" font-size="14" lengthAdjust="spacing" textLength="101.9238" x="666.7217" y="22.7803">External System</text></g><g class="participant participant-tail" data-entity-uid="part5" data-qualified-name="External" data-source-line="6" id="part5-tail"><rect fill="#F8FAFC" height="28" rx="4" ry="4" style="stroke:#475569;stroke-width:0.5;" width="115.9238" x="659.7217" y="737"/><text fill="#0F172A" font-family="Helvetica" font-size="14" lengthAdjust="spacing" textLength="101.9238" x="666.7217" y="754.7803">External System</text></g><g class="message" data-entity-1="part1" data-entity-2="part2" data-source-line="7" id="msg1"><line style="stroke:#64748B;stroke-width:1.1;" x1="273.0273" x2="263.0273" y1="62" y2="58"/><line style="stroke:#64748B;stroke-width:1.1;" x1="273.0273" x2="263.0273" y1="62" y2="66"/><line style="stroke:#64748B;stroke-width:1.1;" x1="93.7031" x2="274.0273" y1="62" y2="62"/><text fill="#334155" font-family="Helvetica" font-size="12" lengthAdjust="spacing" textLength="85.3828" x="141.6738" y="57.2402">get_definitions()</text></g><g class="message" data-entity-1="part2" data-entity-2="part1" data-source-line="8" id="msg2"><line style="stroke:#64748B;stroke-width:1.1;" x1="94.7031" x2="104.7031" y1="88" y2="84"/><line style="stroke:#64748B;stroke-width:1.1;" x1="94.7031" x2="104.7031" y1="88" y2="92"/><line style="stroke:#64748B;stroke-width:1.1;stroke-dasharray:2,2;" x1="93.7031" x2="274.0273" y1="88" y2="88"/><text fill="#334155" font-family="Helvetica" font-size="12" lengthAdjust="spacing" textLength="143.4082" x="112.6611" y="83.2402">OpenAI Function Schemas</text></g><g class="message" data-entity-1="part1" data-entity-2="part2" data-source-line="9" id="msg3"><line style="stroke:#64748B;stroke-width:1.1;" x1="273.0273" x2="263.0273" y1="114" y2="110"/><line style="stroke:#64748B;stroke-width:1.1;" x1="273.0273" x2="263.0273" y1="114" y2="118"/><line style="stroke:#64748B;stroke-width:1.1;" x1="93.7031" x2="274.0273" y1="114" y2="114"/><text fill="#334155" font-family="Helvetica" font-size="12" lengthAdjust="spacing" textLength="157.3242" x="105.7031" y="109.2402">execute('tool_name', params)</text></g><g class="message" data-entity-1="part2" data-entity-2="part2" data-source-line="10" id="msg4"><line style="stroke:#64748B;stroke-width:1.1;" x1="275.0273" x2="317.0273" y1="140" y2="140"/><line style="stroke:#64748B;stroke-width:1.1;" x1="317.0273" x2="317.0273" y1="140" y2="153"/><line style="stroke:#64748B;stroke-width:1.1;" x1="275.0273" x2="317.0273" y1="153" y2="153"/><line style="stroke:#64748B;stroke-width:1.1;" x1="276.0273" x2="286.0273" y1="153" y2="149"/><line style="stroke:#64748B;stroke-width:1.1;" x1="276.0273" x2="286.0273" y1="153" y2="157"/><text fill="#334155" font-family="Helvetica" font-size="12" lengthAdjust="spacing" textLength="85.2949" x="282.0273" y="135.2402">get('tool_name')</text></g><path d="M14,168 L71.3379,168 L71.3379,174 L61.3379,184 L10,184 L10,172 A4,4 0 0 1 14,168" fill="#F8FAFC" style="stroke:#CBD5E1;stroke-width:1.5;"/><rect fill="none" height="553" rx="4" ry="4" style="stroke:#CBD5E1;stroke-width:1.5;" width="795.6455" x="10" y="168"/><text fill="#0F172A" font-family="Helvetica" font-size="14" font-weight="700" lengthAdjust="spacing" textLength="16.3379" x="25" y="179.7803">alt</text><text fill="#334155" font-family="Helvetica" font-size="14" font-weight="700" lengthAdjust="spacing" textLength="112.7314" x="86.3379" y="180.7803">[Tool Not Found]</text><g class="message" data-entity-1="part2" data-entity-2="part1" data-source-line="12" id="msg5"><line style="stroke:#64748B;stroke-width:1.1;" x1="94.7031" x2="104.7031" y1="202" y2="198"/><line style="stroke:#64748B;stroke-width:1.1;" x1="94.7031" x2="104.7031" y1="202" y2="206"/><line style="stroke:#64748B;stroke-width:1.1;stroke-dasharray:2,2;" x1="93.7031" x2="274.0273" y1="202" y2="202"/><text fill="#334155" font-family="Helvetica" font-size="12" lengthAdjust="spacing" textLength="121.7168" x="123.5068" y="197.2402">Error + Available Tools</text></g><line style="stroke:#CBD5E1;stroke-width:1;stroke-dasharray:2,2;" x1="10" x2="805.6455" y1="211" y2="211"/><text fill="#334155" font-family="Helvetica" font-size="14" font-weight="700" lengthAdjust="spacing" textLength="85.5176" x="15" y="221.7803">[Tool Found]</text><g class="message" data-entity-1="part2" data-entity-2="part3" data-source-line="14" id="msg6"><line style="stroke:#64748B;stroke-width:1.1;" x1="433.082" x2="423.082" y1="244" y2="240"/><line style="stroke:#64748B;stroke-width:1.1;" x1="433.082" x2="423.082" y1="244" y2="248"/><line style="stroke:#64748B;stroke-width:1.1;" x1="275.0273" x2="434.082" y1="244" y2="244"/><text fill="#334155" font-family="Helvetica" font-size="12" lengthAdjust="spacing" textLength="136.0547" x="287.0273" y="239.2402">validate_params(params)</text></g><g class="message" data-entity-1="part3" data-entity-2="part4" data-source-line="15" id="msg7"><line style="stroke:#64748B;stroke-width:1.1;" x1="592.4805" x2="582.4805" y1="270" y2="266"/><line style="stroke:#64748B;stroke-width:1.1;" x1="592.4805" x2="582.4805" y1="270" y2="274"/><line style="stroke:#64748B;stroke-width:1.1;" x1="435.082" x2="593.4805" y1="270" y2="270"/><text fill="#334155" font-family="Helvetica" font-size="12" lengthAdjust="spacing" textLength="135.3984" x="447.082" y="265.2402">JSON Schema Validation</text></g><path d="M24,285 L81.3379,285 L81.3379,291 L71.3379,301 L20,301 L20,289 A4,4 0 0 1 24,285" fill="#F8FAFC" style="stroke:#CBD5E1;stroke-width:1.5;"/><rect fill="none" height="429" rx="4" ry="4" style="stroke:#CBD5E1;stroke-width:1.5;" width="775.6455" x="20" y="285"/><text fill="#0F172A" font-family="Helvetica" font-size="14" font-weight="700" lengthAdjust="spacing" textLength="16.3379" x="35" y="296.7803">alt</text><text fill="#334155" font-family="Helvetica" font-size="14" font-weight="700" lengthAdjust="spacing" textLength="120.5654" x="96.3379" y="297.7803">[Validation Failed]</text><g class="message" data-entity-1="part4" data-entity-2="part3" data-source-line="17" id="msg8"><line style="stroke:#64748B;stroke-width:1.1;" x1="436.082" x2="446.082" y1="319" y2="315"/><line style="stroke:#64748B;stroke-width:1.1;" x1="436.082" x2="446.082" y1="319" y2="323"/><line style="stroke:#64748B;stroke-width:1.1;stroke-dasharray:2,2;" x1="435.082" x2="593.4805" y1="319" y2="319"/><text fill="#334155" font-family="Helvetica" font-size="12" lengthAdjust="spacing" textLength="48.6738" x="490.4443" y="314.2402">Error List</text></g><g class="message" data-entity-1="part3" data-entity-2="part2" data-source-line="18" id="msg9"><line style="stroke:#64748B;stroke-width:1.1;" x1="276.0273" x2="286.0273" y1="345" y2="341"/><line style="stroke:#64748B;stroke-width:1.1;" x1="276.0273" x2="286.0273" y1="345" y2="349"/><line style="stroke:#64748B;stroke-width:1.1;stroke-dasharray:2,2;" x1="275.0273" x2="434.082" y1="345" y2="345"/><text fill="#334155" font-family="Helvetica" font-size="12" lengthAdjust="spacing" textLength="88.7051" x="310.7021" y="340.2402">Validation Errors</text></g><g class="message" data-entity-1="part2" data-entity-2="part1" data-source-line="19" id="msg10"><line style="stroke:#64748B;stroke-width:1.1;" x1="94.7031" x2="104.7031" y1="371" y2="367"/><line style="stroke:#64748B;stroke-width:1.1;" x1="94.7031" x2="104.7031" y1="371" y2="375"/><line style="stroke:#64748B;stroke-width:1.1;stroke-dasharray:2,2;" x1="93.7031" x2="274.0273" y1="371" y2="371"/><text fill="#334155" font-family="Helvetica" font-size="12" lengthAdjust="spacing" textLength="86.0215" x="141.3545" y="366.2402">Parameter Error</text></g><line style="stroke:#CBD5E1;stroke-width:1;stroke-dasharray:2,2;" x1="20" x2="795.6455" y1="380" y2="380"/><text fill="#334155" font-family="Helvetica" font-size="14" font-weight="700" lengthAdjust="spacing" textLength="129.1445" x="25" y="390.7803">[Validation Passed]</text><g class="message" data-entity-1="part4" data-entity-2="part3" data-source-line="21" id="msg11"><line style="stroke:#64748B;stroke-width:1.1;" x1="436.082" x2="446.082" y1="413" y2="409"/><line style="stroke:#64748B;stroke-width:1.1;" x1="436.082" x2="446.082" y1="413" y2="417"/><line style="stroke:#64748B;stroke-width:1.1;stroke-dasharray:2,2;" x1="435.082" x2="593.4805" y1="413" y2="413"/><text fill="#334155" font-family="Helvetica" font-size="12" lengthAdjust="spacing" textLength="26.6836" x="501.4395" y="408.2402">Valid</text></g><g class="message" data-entity-1="part2" data-entity-2="part3" data-source-line="22" id="msg12"><line style="stroke:#64748B;stroke-width:1.1;" x1="433.082" x2="423.082" y1="439" y2="435"/><line style="stroke:#64748B;stroke-width:1.1;" x1="433.082" x2="423.082" y1="439" y2="443"/><line style="stroke:#64748B;stroke-width:1.1;" x1="275.0273" x2="434.082" y1="439" y2="439"/><text fill="#334155" font-family="Helvetica" font-size="12" lengthAdjust="spacing" textLength="124.7168" x="292.6963" y="434.2402">execute(params) async</text></g><g class="message" data-entity-1="part3" data-entity-2="part5" data-source-line="23" id="msg13"><line style="stroke:#64748B;stroke-width:1.1;" x1="715.6836" x2="705.6836" y1="465" y2="461"/><line style="stroke:#64748B;stroke-width:1.1;" x1="715.6836" x2="705.6836" y1="465" y2="469"/><line style="stroke:#64748B;stroke-width:1.1;" x1="435.082" x2="716.6836" y1="465" y2="465"/><text fill="#334155" font-family="Helvetica" font-size="12" lengthAdjust="spacing" textLength="98.707" x="527.0293" y="460.2402">Perform Operation</text></g><path d="M34,480 L91.3379,480 L91.3379,486 L81.3379,496 L30,496 L30,484 A4,4 0 0 1 34,480" fill="#F8FAFC" style="stroke:#CBD5E1;stroke-width:1.5;"/><rect fill="none" height="227" rx="4" ry="4" style="stroke:#CBD5E1;stroke-width:1.5;" width="755.6455" x="30" y="480"/><text fill="#0F172A" font-family="Helvetica" font-size="14" font-weight="700" lengthAdjust="spacing" textLength="16.3379" x="45" y="491.7803">alt</text><text fill="#334155" font-family="Helvetica" font-size="14" font-weight="700" lengthAdjust="spacing" textLength="136.9375" x="106.3379" y="492.7803">[Execution Success]</text><g class="message" data-entity-1="part5" data-entity-2="part3" data-source-line="25" id="msg14"><line style="stroke:#64748B;stroke-width:1.1;" x1="436.082" x2="446.082" y1="514" y2="510"/><line style="stroke:#64748B;stroke-width:1.1;" x1="436.082" x2="446.082" y1="514" y2="518"/><line style="stroke:#64748B;stroke-width:1.1;stroke-dasharray:2,2;" x1="435.082" x2="716.6836" y1="514" y2="514"/><text fill="#334155" font-family="Helvetica" font-size="12" lengthAdjust="spacing" textLength="34.0137" x="559.376" y="509.2402">Result</text></g><g class="message" data-entity-1="part3" data-entity-2="part2" data-source-line="26" id="msg15"><line style="stroke:#64748B;stroke-width:1.1;" x1="276.0273" x2="286.0273" y1="540" y2="536"/><line style="stroke:#64748B;stroke-width:1.1;" x1="276.0273" x2="286.0273" y1="540" y2="544"/><line style="stroke:#64748B;stroke-width:1.1;stroke-dasharray:2,2;" x1="275.0273" x2="434.082" y1="540" y2="540"/><text fill="#334155" font-family="Helvetica" font-size="12" lengthAdjust="spacing" textLength="82.6992" x="313.7051" y="535.2402">Success Result</text></g><g class="message" data-entity-1="part2" data-entity-2="part1" data-source-line="27" id="msg16"><line style="stroke:#64748B;stroke-width:1.1;" x1="94.7031" x2="104.7031" y1="566" y2="562"/><line style="stroke:#64748B;stroke-width:1.1;" x1="94.7031" x2="104.7031" y1="566" y2="570"/><line style="stroke:#64748B;stroke-width:1.1;stroke-dasharray:2,2;" x1="93.7031" x2="274.0273" y1="566" y2="566"/><text fill="#334155" font-family="Helvetica" font-size="12" lengthAdjust="spacing" textLength="62.7012" x="153.0146" y="561.2402">Tool Output</text></g><line style="stroke:#CBD5E1;stroke-width:1;stroke-dasharray:2,2;" x1="30" x2="785.6455" y1="575" y2="575"/><text fill="#334155" font-family="Helvetica" font-size="14" font-weight="700" lengthAdjust="spacing" textLength="114.3516" x="35" y="585.7803">[Execution Error]</text><g class="message" data-entity-1="part5" data-entity-2="part3" data-source-line="29" id="msg17"><line style="stroke:#64748B;stroke-width:1.1;" x1="436.082" x2="446.082" y1="608" y2="604"/><line style="stroke:#64748B;stroke-width:1.1;" x1="436.082" x2="446.082" y1="608" y2="612"/><line style="stroke:#64748B;stroke-width:1.1;stroke-dasharray:2,2;" x1="435.082" x2="716.6836" y1="608" y2="608"/><text fill="#334155" font-family="Helvetica" font-size="12" lengthAdjust="spacing" textLength="52.6992" x="550.0332" y="603.2402">Exception</text></g><g class="message" data-entity-1="part3" data-entity-2="part2" data-source-line="30" id="msg18"><line style="stroke:#64748B;stroke-width:1.1;" x1="276.0273" x2="286.0273" y1="634" y2="630"/><line style="stroke:#64748B;stroke-width:1.1;" x1="276.0273" x2="286.0273" y1="634" y2="638"/><line style="stroke:#64748B;stroke-width:1.1;stroke-dasharray:2,2;" x1="275.0273" x2="434.082" y1="634" y2="634"/><text fill="#334155" font-family="Helvetica" font-size="12" lengthAdjust="spacing" textLength="64.0137" x="323.0479" y="629.2402">Error Result</text></g><g class="message" data-entity-1="part2" data-entity-2="part2" data-source-line="31" id="msg19"><line style="stroke:#64748B;stroke-width:1.1;" x1="275.0273" x2="317.0273" y1="660" y2="660"/><line style="stroke:#64748B;stroke-width:1.1;" x1="317.0273" x2="317.0273" y1="660" y2="673"/><line style="stroke:#64748B;stroke-width:1.1;" x1="275.0273" x2="317.0273" y1="673" y2="673"/><line style="stroke:#64748B;stroke-width:1.1;" x1="276.0273" x2="286.0273" y1="673" y2="669"/><line style="stroke:#64748B;stroke-width:1.1;" x1="276.0273" x2="286.0273" y1="673" y2="677"/><text fill="#334155" font-family="Helvetica" font-size="12" lengthAdjust="spacing" textLength="132.7207" x="282.0273" y="655.2402">Enhance Error with Hints</text></g><g class="message" data-entity-1="part2" data-entity-2="part1" data-source-line="32" id="msg20"><line style="stroke:#64748B;stroke-width:1.1;" x1="94.7031" x2="104.7031" y1="699" y2="695"/><line style="stroke:#64748B;stroke-width:1.1;" x1="94.7031" x2="104.7031" y1="699" y2="703"/><line style="stroke:#64748B;stroke-width:1.1;stroke-dasharray:2,2;" x1="93.7031" x2="274.0273" y1="699" y2="699"/><text fill="#334155" font-family="Helvetica" font-size="12" lengthAdjust="spacing" textLength="99.6855" x="134.5225" y="694.2402">Error + Retry Hints</text></g><?plantuml-src ZPJ1Rk8m48RlVOffBwNQiW_08H87q7PLGGMhNf5h1h3as94zwSBRhpt68MaITNqXcNmp_kVtc7jbfAxt29Mp1_HUMIFqb4vOuazLb_eEmgg48oLL9Gp1mqeO-s49vaSqz032fwS--CTQlS6ZykGkpEMNOHHUZ2TX938R8ttkztQzWdUXrLwGTGmsRtrwSIPqeHtONZnXoNYECSt2fqMHXStWYBJRuq4PHS49FtbYBd-V1fPpPh2kqCnVO5aR6KdOoc2Py2DbyOoo9fmyKcXhPqI9ZyzHgoZzbns-Y6bd959eOdDW5SvWQMkpv_28p8Lpri4Fc7yAfSM7HivDCb7xz3fMfYZYrnby9ejnbnHFsiBZYbI0cvEO0PzJiYGVK32fIOWztCAm3DhmjdzSJQrfeoAryXgaTKZUl6DRgpBd-0u_OD9Rx0V3N2I-mTcWLhKtuVttEZaql6L6yZXSZGnpUJ6otrLHv6aD6j4Th2lZtBckcTdG1HVbMQob35UvGyILgzsqRj3NcdfWtzDhoR640LDviDOrLNKNPrDlMhkEZojTd2LMlRw7nQP9-Kvg9yESuZ_FDVEleXFyKeRy_pIQhzW6GtmW3LjNAp-7tty0?></g></svg>