<svg xmlns="http://www.w3.org/2000/svg" xmlns:xlink="http://www.w3.org/1999/xlink" contentStyleType="text/css" data-diagram-type="DESCRIPTION" height="665px" preserveAspectRatio="none" style="width:1343px;height:665px;" version="1.1" viewBox="0 0 1343 665" width="1343px" zoomAndPan="magnify"><?plantuml 1.2026.5?><defs><style><![CDATA[
@media (prefers-color-scheme: dark) {
  text { fill: #e5e7eb !important; }
  path, line, rect, circle, ellipse, polygon, polyline { stroke: #cbd5e1 !important; }
  .entity rect, .participant rect, .participant path, .sequenceLine rect, .class rect, .component rect, .component path, .note rect { fill: #111827 !important; }
  .cluster path { fill: none !important; }
  polygon { fill: #cbd5e1 !important; }
}
]]></style></defs><g><!--cluster External--><g class="cluster" data-qualified-name="External" data-source-line="13" id="ent0001"><path d="M253.5,217.98 L425.3438,217.98 A3.75,3.75 0 0 1 427.8438,220.48 L434.8438,240.4683 L683.5,240.4683 A2.5,2.5 0 0 1 686,242.9683 L686,302.97 A2.5,2.5 0 0 1 683.5,305.47 L253.5,305.47 A2.5,2.5 0 0 1 251,302.97 L251,220.48 A2.5,2.5 0 0 1 253.5,217.98" fill="none" style="stroke:#64748B;stroke-width:1.5;"/><line style="stroke:#64748B;stroke-width:1.5;" x1="251" x2="434.8438" y1="240.4683" y2="240.4683"/><text fill="#000000" font-family="sans-serif" font-size="14" font-weight="700" lengthAdjust="spacing" textLength="170.8438" x="255" y="233.5152">External Chat Platforms</text></g><!--cluster BusComponent--><g class="cluster" data-qualified-name="BusComponent" data-source-line="19" id="ent0006"><path d="M712.5,158.98 L894.8438,158.98 A3.75,3.75 0 0 1 897.3438,161.48 L904.3438,181.4683 L1325.5,181.4683 A2.5,2.5 0 0 1 1328,183.9683 L1328,648.43 A2.5,2.5 0 0 1 1325.5,650.93 L712.5,650.93 A2.5,2.5 0 0 1 710,648.43 L710,161.48 A2.5,2.5 0 0 1 712.5,158.98" fill="none" style="stroke:#64748B;stroke-width:1.5;"/><line style="stroke:#64748B;stroke-width:1.5;" x1="710" x2="904.3438" y1="181.4683" y2="181.4683"/><text fill="#000000" font-family="sans-serif" font-size="14" font-weight="700" lengthAdjust="spacing" textLength="181.3438" x="714" y="174.5152">nanobot/bus Component</text></g><!--cluster Events--><g class="cluster" data-qualified-name="BusComponent.Events" data-source-line="20" id="ent0007"><path d="M736.5,354.47 L849.3838,354.47 A3.75,3.75 0 0 1 851.8838,356.97 L858.8838,393.4466 L1079.5,393.4466 A2.5,2.5 0 0 1 1082,395.9466 L1082,455.45 A2.5,2.5 0 0 1 1079.5,457.95 L736.5,457.95 A2.5,2.5 0 0 1 734,455.45 L734,356.97 A2.5,2.5 0 0 1 736.5,354.47" fill="none" style="stroke:#64748B;stroke-width:1.5;"/><line style="stroke:#64748B;stroke-width:1.5;" x1="734" x2="858.8838" y1="393.4466" y2="393.4466"/><text fill="#000000" font-family="sans-serif" font-size="14" font-weight="700" lengthAdjust="spacing" textLength="68.3936" x="759.7451" y="370.0052">events.py</text><text fill="#000000" font-family="sans-serif" font-size="14" font-weight="700" lengthAdjust="spacing" textLength="111.8838" x="738" y="386.4934">Data Structures</text></g><!--cluster Queue--><g class="cluster" data-qualified-name="BusComponent.Queue" data-source-line="24" id="ent0010"><path d="M745.5,506.95 L839.4551,506.95 A3.75,3.75 0 0 1 841.9551,509.45 L848.9551,545.9266 L1068.5,545.9266 A2.5,2.5 0 0 1 1071,548.4266 L1071,624.43 A2.5,2.5 0 0 1 1068.5,626.93 L745.5,626.93 A2.5,2.5 0 0 1 743,624.43 L743,509.45 A2.5,2.5 0 0 1 745.5,506.95" fill="none" style="stroke:#64748B;stroke-width:1.5;"/><line style="stroke:#64748B;stroke-width:1.5;" x1="743" x2="848.9551" y1="545.9266" y2="545.9266"/><text fill="#000000" font-family="sans-serif" font-size="14" font-weight="700" lengthAdjust="spacing" textLength="64.9688" x="760.9932" y="522.4852">queue.py</text><text fill="#000000" font-family="sans-serif" font-size="14" font-weight="700" lengthAdjust="spacing" textLength="92.9551" x="747" y="538.9734">Message Bus</text></g><!--cluster Init--><g class="cluster" data-qualified-name="BusComponent.Init" data-source-line="28" id="ent0013"><path d="M1016.5,201.98 L1089.2637,201.98 A3.75,3.75 0 0 1 1091.7637,204.48 L1098.7637,240.9566 L1185.5,240.9566 A2.5,2.5 0 0 1 1188,243.4566 L1188,302.97 A2.5,2.5 0 0 1 1185.5,305.47 L1016.5,305.47 A2.5,2.5 0 0 1 1014,302.97 L1014,204.48 A2.5,2.5 0 0 1 1016.5,201.98" fill="none" style="stroke:#64748B;stroke-width:1.5;"/><line style="stroke:#64748B;stroke-width:1.5;" x1="1014" x2="1098.7637" y1="240.9566" y2="240.9566"/><text fill="#000000" font-family="sans-serif" font-size="14" font-weight="700" lengthAdjust="spacing" text-decoration="underline" textLength="23.9736" x="1031.4463" y="217.5152">init</text><text fill="#000000" font-family="sans-serif" font-size="14" font-weight="700" lengthAdjust="spacing" textLength="20.8975" x="1055.4199" y="217.5152">.py</text><text fill="#000000" font-family="sans-serif" font-size="14" font-weight="700" lengthAdjust="spacing" textLength="71.7637" x="1018" y="234.0034">Public API</text></g><!--cluster Consumers--><g class="cluster" data-qualified-name="Consumers" data-source-line="32" id="ent0015"><path d="M8.5,6 L129.6143,6 A3.75,3.75 0 0 1 132.1143,8.5 L139.1143,28.4883 L392.5,28.4883 A2.5,2.5 0 0 1 395,30.9883 L395,107.48 A2.5,2.5 0 0 1 392.5,109.98 L8.5,109.98 A2.5,2.5 0 0 1 6,107.48 L6,8.5 A2.5,2.5 0 0 1 8.5,6" fill="none" style="stroke:#64748B;stroke-width:1.5;"/><line style="stroke:#64748B;stroke-width:1.5;" x1="6" x2="139.1143" y1="28.4883" y2="28.4883"/><text fill="#000000" font-family="sans-serif" font-size="14" font-weight="700" lengthAdjust="spacing" textLength="120.1143" x="10" y="21.5352">Internal Systems</text></g><!--entity TG--><g class="entity" data-qualified-name="External.TG" data-source-line="14" id="ent0002"><rect fill="#F8FAFC" height="36.4883" rx="2.5" ry="2.5" style="stroke:#4B5563;stroke-width:0.5;" width="83.7588" x="479.12" y="252.98"/><text fill="#111827" font-family="sans-serif" font-size="14" lengthAdjust="spacing" textLength="63.7588" x="489.12" y="276.5152">Telegram</text></g><!--entity DC--><g class="entity" data-qualified-name="External.DC" data-source-line="15" id="ent0003"><rect fill="#F8FAFC" height="36.4883" rx="2.5" ry="2.5" style="stroke:#4B5563;stroke-width:0.5;" width="71.9805" x="598.01" y="252.98"/><text fill="#111827" font-family="sans-serif" font-size="14" lengthAdjust="spacing" textLength="51.9805" x="608.01" y="276.5152">Discord</text></g><!--entity SL--><g class="entity" data-qualified-name="External.SL" data-source-line="16" id="ent0004"><rect fill="#F8FAFC" height="36.4883" rx="2.5" ry="2.5" style="stroke:#4B5563;stroke-width:0.5;" width="54.6719" x="266.66" y="252.98"/><text fill="#111827" font-family="sans-serif" font-size="14" lengthAdjust="spacing" textLength="34.6719" x="276.66" y="276.5152">Slack</text></g><!--entity WA--><g class="entity" data-qualified-name="External.WA" data-source-line="17" id="ent0005"><rect fill="#F8FAFC" height="36.4883" rx="2.5" ry="2.5" style="stroke:#4B5563;stroke-width:0.5;" width="88.0518" x="355.97" y="252.98"/><text fill="#111827" font-family="sans-serif" font-size="14" lengthAdjust="spacing" textLength="68.0518" x="365.97" y="276.5152">WhatsApp</text></g><!--entity IM--><g class="entity" data-qualified-name="BusComponent.Events.IM" data-source-line="21" id="ent0008"><rect fill="#F8FAFC" height="36.4883" rx="2.5" ry="2.5" style="stroke:#4B5563;stroke-width:0.5;" width="134.7139" x="931.64" y="405.47"/><text fill="#111827" font-family="sans-serif" font-size="14" lengthAdjust="spacing" textLength="114.7139" x="941.64" y="429.0052">InboundMessage</text></g><!--entity OM--><g class="entity" data-qualified-name="BusComponent.Events.OM" data-source-line="22" id="ent0009"><rect fill="#F8FAFC" height="36.4883" rx="2.5" ry="2.5" style="stroke:#4B5563;stroke-width:0.5;" width="146.793" x="749.6" y="405.47"/><text fill="#111827" font-family="sans-serif" font-size="14" lengthAdjust="spacing" textLength="126.793" x="759.6" y="429.0052">OutboundMessage</text></g><!--entity IQ--><g class="entity" data-qualified-name="BusComponent.Queue.IQ" data-source-line="25" id="ent0011"><rect fill="#F8FAFC" height="52.9766" rx="2.5" ry="2.5" style="stroke:#4B5563;stroke-width:0.5;" width="124.6035" x="930.7" y="557.95"/><text fill="#111827" font-family="sans-serif" font-size="14" lengthAdjust="spacing" textLength="104.6035" x="940.7" y="581.4852">Inbound Queue</text><text fill="#111827" font-family="sans-serif" font-size="14" lengthAdjust="spacing" textLength="98.9707" x="943.5164" y="597.9734">asyncio.Queue</text></g><!--entity OQ--><g class="entity" data-qualified-name="BusComponent.Queue.OQ" data-source-line="26" id="ent0012"><rect fill="#F8FAFC" height="52.9766" rx="2.5" ry="2.5" style="stroke:#4B5563;stroke-width:0.5;" width="136.6826" x="758.66" y="557.95"/><text fill="#111827" font-family="sans-serif" font-size="14" lengthAdjust="spacing" textLength="116.6826" x="768.66" y="581.4852">Outbound Queue</text><text fill="#111827" font-family="sans-serif" font-size="14" lengthAdjust="spacing" textLength="98.9707" x="777.516" y="597.9734">asyncio.Queue</text></g><!--entity API--><g class="entity" data-qualified-name="BusComponent.Init.API" data-source-line="29" id="ent0014"><rect fill="#F8FAFC" height="36.4883" rx="2.5" ry="2.5" style="stroke:#4B5563;stroke-width:0.5;" width="142.4385" x="1029.78" y="252.98"/><text fill="#111827" font-family="sans-serif" font-size="14" lengthAdjust="spacing" textLength="122.4385" x="1039.78" y="276.5152">MessageBus Class</text></g><!--entity AGENT--><g class="entity" data-qualified-name="Consumers.AGENT" data-source-line="33" id="ent0016"><rect fill="#F8FAFC" height="52.9766" rx="2.5" ry="2.5" style="stroke:#4B5563;stroke-width:0.5;" width="152.2207" x="21.89" y="41"/><text fill="#111827" font-family="sans-serif" font-size="14" lengthAdjust="spacing" textLength="76.3574" x="59.8216" y="64.5352">Agent Core</text><text fill="#111827" font-family="sans-serif" font-size="14" lengthAdjust="spacing" textLength="132.2207" x="31.89" y="81.0234">Message Consumer</text></g><!--entity HANDLERS--><g class="entity" data-qualified-name="Consumers.HANDLERS" data-source-line="34" id="ent0017"><rect fill="#F8FAFC" height="52.9766" rx="2.5" ry="2.5" style="stroke:#4B5563;stroke-width:0.5;" width="169.2285" x="209.39" y="41"/><text fill="#111827" font-family="sans-serif" font-size="14" lengthAdjust="spacing" textLength="119.9912" x="234.0087" y="64.5352">Channel Handlers</text><text fill="#111827" font-family="sans-serif" font-size="14" lengthAdjust="spacing" textLength="149.2285" x="219.39" y="81.0234">Response Dispatchers</text></g><!--link TG to IM--><g class="link" data-entity-1="ent0002" data-entity-2="ent0008" data-link-type="dependency" data-source-line="36" id="lnk18"><path d="M542.66,289.9 C553.6,298.07 567.41,307.32 581,313.47 C601.67,322.82 657.53,335.28 680,338.47 C705.76,342.12 889.87,336.75 914,346.47 C944.34,358.68 967.7229,382.9428 982.7629,401.4128" fill="none" id="TG-to-IM" style="stroke:#4B5563;stroke-width:1;"/><polygon fill="#4B5563" points="985.92,405.29,983.3389,395.7854,982.7629,401.4128,977.1354,400.8368,985.92,405.29" style="stroke:#4B5563;stroke-width:1;stroke-linejoin:miter;stroke-miterlimit:10;"/><text fill="#000000" font-family="sans-serif" font-size="13" lengthAdjust="spacing" textLength="83.751" x="681" y="335.0384">Raw Message</text></g><!--link DC to IM--><g class="link" data-entity-1="ent0003" data-entity-2="ent0008" data-link-type="dependency" data-source-line="37" id="lnk19"><path d="M670.38,286.88 C710.15,302.27 776.06,325.93 835,338.47 C869.52,345.81 881.72,332.2 914,346.47 C943.56,359.52 966.71,383.0348 981.98,401.1748" fill="none" id="DC-to-IM" style="stroke:#4B5563;stroke-width:1;"/><polygon fill="#4B5563" points="985.2,405,982.4642,395.5387,981.98,401.1748,976.3439,400.6907,985.2,405" style="stroke:#4B5563;stroke-width:1;stroke-linejoin:miter;stroke-miterlimit:10;"/><text fill="#000000" font-family="sans-serif" font-size="13" lengthAdjust="spacing" textLength="83.751" x="836" y="335.0384">Raw Message</text></g><!--link SL to IM--><g class="link" data-entity-1="ent0004" data-entity-2="ent0008" data-link-type="dependency" data-source-line="38" id="lnk20"><path d="M308.76,289.68 C324.23,306.36 350.24,330.16 379,338.47 C407.56,346.72 886.32,335.63 914,346.47 C944.46,358.39 967.8294,382.7194 982.8194,401.2894" fill="none" id="SL-to-IM" style="stroke:#4B5563;stroke-width:1;"/><polygon fill="#4B5563" points="985.96,405.18,983.4195,395.6644,982.8194,401.2894,977.1945,400.6893,985.96,405.18" style="stroke:#4B5563;stroke-width:1;stroke-linejoin:miter;stroke-miterlimit:10;"/><text fill="#000000" font-family="sans-serif" font-size="13" lengthAdjust="spacing" textLength="83.751" x="380" y="335.0384">Raw Message</text></g><!--link WA to IM--><g class="link" data-entity-1="ent0005" data-entity-2="ent0008" data-link-type="dependency" data-source-line="39" id="lnk21"><path d="M421.03,289.84 C442.37,306.39 477.13,329.87 512,338.47 C555.38,349.16 872.44,330.08 914,346.47 C944.43,358.46 967.7928,382.7848 982.8028,401.3148" fill="none" id="WA-to-IM" style="stroke:#4B5563;stroke-width:1;"/><polygon fill="#4B5563" points="985.95,405.2,983.3932,395.6888,982.8028,401.3148,977.1768,400.7243,985.95,405.2" style="stroke:#4B5563;stroke-width:1;stroke-linejoin:miter;stroke-miterlimit:10;"/><text fill="#000000" font-family="sans-serif" font-size="13" lengthAdjust="spacing" textLength="83.751" x="513" y="335.0384">Raw Message</text></g><!--link IM to IQ--><g class="link" data-entity-1="ent0008" data-entity-2="ent0011" data-link-type="dependency" data-source-line="40" id="lnk22"><path d="M998.33,442.3 C997.28,470.31 995.3878,520.1835 994.1678,552.6435" fill="none" id="IM-to-IQ" style="stroke:#4B5563;stroke-width:1;"/><polygon fill="#4B5563" points="993.98,557.64,998.3152,548.7966,994.1678,552.6435,990.3208,548.4961,993.98,557.64" style="stroke:#4B5563;stroke-width:1;stroke-linejoin:miter;stroke-miterlimit:10;"/><text fill="#000000" font-family="sans-serif" font-size="13" lengthAdjust="spacing" textLength="110.6777" x="998.06" y="487.5184">Normalized Event</text></g><!--link IQ to AGENT--><g class="link" data-entity-1="ent0011" data-entity-2="ent0016" data-link-type="dependency" data-source-line="41" id="lnk23"><path d="M976.4,557.52 C962.18,537.75 939.77,511.8 913,498.95 C893.5,489.59 837.41,494 816,490.95 C479.24,443 281.23,601.86 66,338.47 C7.46,266.83 55.0584,151.0893 81.6384,98.6793" fill="none" id="IQ-to-AGENT" style="stroke:#4B5563;stroke-width:1;"/><polygon fill="#4B5563" points="83.9,94.22,76.2618,100.4375,81.6384,98.6793,83.3966,104.056,83.9,94.22" style="stroke:#4B5563;stroke-width:1;stroke-linejoin:miter;stroke-miterlimit:10;"/><text fill="#000000" font-family="sans-serif" font-size="13" lengthAdjust="spacing" textLength="59.1221" x="67" y="335.0384">Consume</text></g><!--link AGENT to OM--><g class="link" data-entity-1="ent0016" data-entity-2="ent0009" data-link-type="dependency" data-source-line="42" id="lnk24"><path d="M94.35,94.23 C88.99,141.78 84.02,244.79 129,313.47 C140.9,331.64 150.47,331.37 171,338.47 C372.19,407.99 621.2806,420.8424 744.4106,422.7524" fill="none" id="AGENT-to-OM" style="stroke:#4B5563;stroke-width:1;"/><polygon fill="#4B5563" points="749.41,422.83,740.4731,418.6909,744.4106,422.7524,740.349,426.6899,749.41,422.83" style="stroke:#4B5563;stroke-width:1;stroke-linejoin:miter;stroke-miterlimit:10;"/><text fill="#000000" font-family="sans-serif" font-size="13" lengthAdjust="spacing" textLength="120.8594" x="130" y="276.2884">Generate Response</text></g><!--link OM to OQ--><g class="link" data-entity-1="ent0009" data-entity-2="ent0012" data-link-type="dependency" data-source-line="43" id="lnk25"><path d="M823.44,442.3 C824.15,470.31 825.4037,520.1816 826.2237,552.6416" fill="none" id="OM-to-OQ" style="stroke:#4B5563;stroke-width:1;"/><polygon fill="#4B5563" points="826.35,557.64,830.1214,548.5419,826.2237,552.6416,822.124,548.7439,826.35,557.64" style="stroke:#4B5563;stroke-width:1;stroke-linejoin:miter;stroke-miterlimit:10;"/><text fill="#000000" font-family="sans-serif" font-size="13" lengthAdjust="spacing" textLength="105.0283" x="825.64" y="487.5184">Queue Response</text></g><!--link OQ to HANDLERS--><g class="link" data-entity-1="ent0012" data-entity-2="ent0017" data-link-type="dependency" data-source-line="44" id="lnk26"><path d="M758.23,577.94 C625.75,562.99 340.37,508.49 251,313.47 C220.92,247.81 233.82,221.12 251,150.98 C255.96,130.74 264.2303,114.2149 273.8003,98.5749" fill="none" id="OQ-to-HANDLERS" style="stroke:#4B5563;stroke-width:1;"/><polygon fill="#4B5563" points="276.41,94.31,268.3006,99.8991,273.8003,98.5749,275.1245,104.0746,276.41,94.31" style="stroke:#4B5563;stroke-width:1;stroke-linejoin:miter;stroke-miterlimit:10;"/><text fill="#000000" font-family="sans-serif" font-size="13" lengthAdjust="spacing" textLength="55.0723" x="263.82" y="335.0384">Dispatch</text></g><!--link HANDLERS to TG--><g class="link" data-entity-1="ent0017" data-entity-2="ent0002" data-link-type="dependency" data-source-line="45" id="lnk27"><path d="M372.18,94.3 C403.05,107.48 437.03,126.09 462,150.98 C491.44,180.33 507.2096,222.572 514.8296,247.902" fill="none" id="HANDLERS-to-TG" style="stroke:#4B5563;stroke-width:1;"/><polygon fill="#4B5563" points="516.27,252.69,517.5077,242.9192,514.8296,247.902,509.8469,245.2238,516.27,252.69" style="stroke:#4B5563;stroke-width:1;stroke-linejoin:miter;stroke-miterlimit:10;"/><text fill="#000000" font-family="sans-serif" font-size="13" lengthAdjust="spacing" textLength="43.7861" x="451.89" y="139.5484">Deliver</text></g><!--link HANDLERS to DC--><g class="link" data-entity-1="ent0017" data-entity-2="ent0003" data-link-type="dependency" data-source-line="46" id="lnk28"><path d="M378.86,73.53 C441.35,81.44 524.73,101.34 580,150.98 C610.61,178.46 623.8445,221.8092 629.6045,247.7092" fill="none" id="HANDLERS-to-DC" style="stroke:#4B5563;stroke-width:1;"/><polygon fill="#4B5563" points="630.69,252.59,632.6408,242.9363,629.6045,247.7092,624.8316,244.673,630.69,252.59" style="stroke:#4B5563;stroke-width:1;stroke-linejoin:miter;stroke-miterlimit:10;"/><text fill="#000000" font-family="sans-serif" font-size="13" lengthAdjust="spacing" textLength="43.7861" x="568.78" y="139.5484">Deliver</text></g><!--link HANDLERS to SL--><g class="link" data-entity-1="ent0017" data-entity-2="ent0004" data-link-type="dependency" data-source-line="47" id="lnk29"><path d="M294,94.45 C294,136.16 294,212.04 294,247.65" fill="none" id="HANDLERS-to-SL" style="stroke:#4B5563;stroke-width:1;"/><polygon fill="#4B5563" points="294,252.65,298,243.65,294,247.65,290,243.65,294,252.65" style="stroke:#4B5563;stroke-width:1;stroke-linejoin:miter;stroke-miterlimit:10;"/><text fill="#000000" font-family="sans-serif" font-size="13" lengthAdjust="spacing" textLength="43.7861" x="295" y="139.5484">Deliver</text></g><!--link HANDLERS to WA--><g class="link" data-entity-1="ent0017" data-entity-2="ent0005" data-link-type="dependency" data-source-line="48" id="lnk30"><path d="M321.99,94.47 C330.86,103.77 340.13,114.74 347,125.98 C372.73,168.09 387.7398,219.8187 394.7598,247.9587" fill="none" id="HANDLERS-to-WA" style="stroke:#4B5563;stroke-width:1;"/><polygon fill="#4B5563" points="395.97,252.81,397.6726,243.1094,394.7598,247.9587,389.9105,245.0458,395.97,252.81" style="stroke:#4B5563;stroke-width:1;stroke-linejoin:miter;stroke-miterlimit:10;"/><text fill="#000000" font-family="sans-serif" font-size="13" lengthAdjust="spacing" textLength="43.7861" x="356.2" y="139.5484">Deliver</text></g><!--link API to IQ--><g class="link" data-entity-1="ent0014" data-entity-2="ent0011" data-link-type="dependency" data-source-line="49" id="lnk31"><path d="M1137.64,289.75 C1159.22,302.25 1184.65,321.31 1197,346.47 C1220.4,394.14 1223.58,419.98 1197,465.95 C1166.83,518.14 1108.416,547.5388 1060.326,564.4788" fill="none" id="API-to-IQ" style="stroke:#4B5563;stroke-width:1;stroke-dasharray:7,7;"/><polygon fill="#4B5563" points="1055.61,566.14,1065.4277,566.9226,1060.326,564.4788,1062.7698,559.377,1055.61,566.14" style="stroke:#4B5563;stroke-width:1;stroke-linejoin:miter;stroke-miterlimit:10;"/><text fill="#000000" font-family="sans-serif" font-size="13" lengthAdjust="spacing" textLength="51.6826" x="1216.76" y="428.7784">Exposes</text></g><!--link API to OQ--><g class="link" data-entity-1="ent0014" data-entity-2="ent0012" data-link-type="dependency" data-source-line="50" id="lnk32"><path d="M1110.59,289.9 C1115.01,299.03 1119.77,310.54 1122,321.47 C1124.87,335.51 1141.03,466.76 1117,490.95 C1101.01,507.04 933.82,489.96 913,498.95 C884.56,511.24 863.3135,533.6007 847.8735,553.6207" fill="none" id="API-to-OQ" style="stroke:#4B5563;stroke-width:1;stroke-dasharray:7,7;"/><polygon fill="#4B5563" points="844.82,557.58,853.4838,552.8961,847.8735,553.6207,847.1489,548.0105,844.82,557.58" style="stroke:#4B5563;stroke-width:1;stroke-linejoin:miter;stroke-miterlimit:10;"/><text fill="#000000" font-family="sans-serif" font-size="13" lengthAdjust="spacing" textLength="51.6826" x="1130.98" y="428.7784">Exposes</text></g><!--link API to IM--><g class="link" data-entity-1="ent0014" data-entity-2="ent0008" data-link-type="dependency" data-source-line="51" id="lnk33"><path d="M1089.1,289.78 C1069.45,318.78 1033.2361,372.2017 1013.6261,401.1217" fill="none" id="API-to-IM" style="stroke:#4B5563;stroke-width:1;stroke-dasharray:7,7;"/><polygon fill="#4B5563" points="1010.82,405.26,1019.1817,400.0559,1013.6261,401.1217,1012.5603,395.5661,1010.82,405.26" style="stroke:#4B5563;stroke-width:1;stroke-linejoin:miter;stroke-miterlimit:10;"/><text fill="#000000" font-family="sans-serif" font-size="13" lengthAdjust="spacing" textLength="47.9946" x="1066.1" y="335.0384">Exports</text></g><!--link API to OM--><g class="link" data-entity-1="ent0014" data-entity-2="ent0009" data-link-type="dependency" data-source-line="52" id="lnk34"><path d="M1043.15,289.83 C1005.03,302.7 954.8,322.14 914,346.47 C886.03,363.14 861.519,384.8091 844.099,401.6091" fill="none" id="API-to-OM" style="stroke:#4B5563;stroke-width:1;stroke-dasharray:7,7;"/><polygon fill="#4B5563" points="840.5,405.08,849.7549,401.7116,844.099,401.6091,844.2015,395.9532,840.5,405.08" style="stroke:#4B5563;stroke-width:1;stroke-linejoin:miter;stroke-miterlimit:10;"/><text fill="#000000" font-family="sans-serif" font-size="13" lengthAdjust="spacing" textLength="47.9946" x="958.88" y="335.0384">Exports</text></g><?plantuml-src ZLJBRjim4BphAnR9EIxIveKU2YYownX88Zisa4i0WvBNYX1wgP9K7WtwxrrIiaod2j2B0SyCPsUMjCrJIPNGOWEPo9yAhMfQ9Keg3LOBCamXsSXqAlCeLkgbf0BMGXeCc1MkHItj0bzjBCk2DdmGSlv07QXYhTLBC-3m93izFViMa5EE80gyL7g5kXMTdPoVN6Gzel-Agp6tWWg9y1u1x1ctqm5-Ah8jTdnyVF7rt2a_k1-kBzPYdKT_8gigi0eoPQtYqgMRK2gAgYOM78nUkJ492ScZi32LmgwLtfW340OwxZtQ9JjOeCI2qth9OXnImzBa7DepmoHavf87Udn-7UBtFDN4LUMf-vWJTyb8aEBSNxBQGA8sbI9UbjTTrgO3E5jt0fyPC8FgxO66mWgOMrtdjjROrl7qVfa9PMvjDsWCMtZPv2OKfBNzHv7UX3b_rLYZ7zfgN3wlcpccTrv3FP0mRvINQk2_DjDdVTC_rwUpCCjoML9fbqiVPrfdiimXdauQPsRsmxHvBzs2fJ1DQ9QpO-0veVOLpD-CnVPf98fClK7zOPrnuQuaKHftszXA6_Vnw7OHdk1dHuGIhWIj9Fizq1qQlbg3mA-f4ZP_PDIVlOflXzUZkpc7MupXwEW7NnLyXpln0ksiQ9Zqu_FhVlm-xiSPyFYCyLl-FGXP_iPLyu8YHXtfgp3VzekQxuv9dTqO2RMm2Di-KTgOfiwqUHexgh7SDcJ1jdpKOKx0lPb2MJxptzGUmyq_ORZx9mottp5yxp0Oj9r7hvKoQ3emxGFzrXoeRQ0CmBy0?></g></svg>