<svg xmlns="http://www.w3.org/2000/svg" xmlns:xlink="http://www.w3.org/1999/xlink" contentStyleType="text/css" data-diagram-type="DESCRIPTION" height="673px" preserveAspectRatio="none" style="width:861px;height:673px;" version="1.1" viewBox="0 0 861 673" width="861px" zoomAndPan="magnify"><?plantuml 1.2026.5?><defs><style><![CDATA[
@media (prefers-color-scheme: dark) {
  text { fill: #e5e7eb !important; }
  path, line, rect, circle, ellipse, polygon, polyline { stroke: #cbd5e1 !important; }
  .entity rect, .participant rect, .participant path, .sequenceLine rect, .class rect, .component rect, .component path, .note rect { fill: #111827 !important; }
  .cluster path { fill: none !important; }
  polygon { fill: #cbd5e1 !important; }
}
]]></style></defs><g><!--cluster External--><g class="cluster" data-qualified-name="External" data-source-line="13" id="ent0001"><path d="M461.5,539.15 L585.458,539.15 A3.75,3.75 0 0 1 587.958,541.65 L594.958,561.6383 L843.5,561.6383 A2.5,2.5 0 0 1 846,564.1383 L846,624.14 A2.5,2.5 0 0 1 843.5,626.64 L461.5,626.64 A2.5,2.5 0 0 1 459,624.14 L459,541.65 A2.5,2.5 0 0 1 461.5,539.15" fill="none" style="stroke:#64748B;stroke-width:1.5;"/><line style="stroke:#64748B;stroke-width:1.5;" x1="459" x2="594.958" y1="561.6383" y2="561.6383"/><text fill="#000000" font-family="sans-serif" font-size="14" font-weight="700" lengthAdjust="spacing" textLength="122.958" x="463" y="554.6852">External Systems</text></g><!--cluster AgentCore--><g class="cluster" data-qualified-name="AgentCore" data-source-line="18" id="ent0005"><path d="M8.5,6 L117.4053,6 A3.75,3.75 0 0 1 119.9053,8.5 L126.9053,28.4883 L432.5,28.4883 A2.5,2.5 0 0 1 435,30.9883 L435,656.38 A2.5,2.5 0 0 1 432.5,658.88 L8.5,658.88 A2.5,2.5 0 0 1 6,656.38 L6,8.5 A2.5,2.5 0 0 1 8.5,6" fill="none" style="stroke:#64748B;stroke-width:1.5;"/><line style="stroke:#64748B;stroke-width:1.5;" x1="6" x2="126.9053" y1="28.4883" y2="28.4883"/><text fill="#000000" font-family="sans-serif" font-size="14" font-weight="700" lengthAdjust="spacing" textLength="107.9053" x="10" y="21.5352">nanobot/agent</text></g><!--cluster Orchestrator--><g class="cluster" data-qualified-name="AgentCore.Orchestrator" data-source-line="19" id="ent0006"><path d="M140.5,49 L284.501,49 A3.75,3.75 0 0 1 287.001,51.5 L294.001,71.4883 L294.5,71.4883 A2.5,2.5 0 0 1 297,73.9883 L297,263.45 A2.5,2.5 0 0 1 294.5,265.95 L140.5,265.95 A2.5,2.5 0 0 1 138,263.45 L138,51.5 A2.5,2.5 0 0 1 140.5,49" fill="none" style="stroke:#64748B;stroke-width:1.5;"/><line style="stroke:#64748B;stroke-width:1.5;" x1="138" x2="294.001" y1="71.4883" y2="71.4883"/><text fill="#000000" font-family="sans-serif" font-size="14" font-weight="700" lengthAdjust="spacing" textLength="143.001" x="142" y="64.5352">Orchestration Layer</text></g><!--cluster ContextLayer--><g class="cluster" data-qualified-name="AgentCore.ContextLayer" data-source-line="23" id="ent0009"><path d="M45.5,289.95 L146.1475,289.95 A3.75,3.75 0 0 1 148.6475,292.45 L155.6475,312.4383 L194.5,312.4383 A2.5,2.5 0 0 1 197,314.9383 L197,391.43 A2.5,2.5 0 0 1 194.5,393.93 L45.5,393.93 A2.5,2.5 0 0 1 43,391.43 L43,292.45 A2.5,2.5 0 0 1 45.5,289.95" fill="none" style="stroke:#64748B;stroke-width:1.5;"/><line style="stroke:#64748B;stroke-width:1.5;" x1="43" x2="155.6475" y1="312.4383" y2="312.4383"/><text fill="#000000" font-family="sans-serif" font-size="14" font-weight="700" lengthAdjust="spacing" textLength="99.6475" x="47" y="305.4852">Context Layer</text></g><!--cluster PersistenceLayer--><g class="cluster" data-qualified-name="AgentCore.PersistenceLayer" data-source-line="26" id="ent0011"><path d="M41.5,417.93 L168.4795,417.93 A3.75,3.75 0 0 1 170.9795,420.43 L177.9795,440.4183 L178.5,440.4183 A2.5,2.5 0 0 1 181,442.9183 L181,632.38 A2.5,2.5 0 0 1 178.5,634.88 L41.5,634.88 A2.5,2.5 0 0 1 39,632.38 L39,420.43 A2.5,2.5 0 0 1 41.5,417.93" fill="none" style="stroke:#64748B;stroke-width:1.5;"/><line style="stroke:#64748B;stroke-width:1.5;" x1="39" x2="177.9795" y1="440.4183" y2="440.4183"/><text fill="#000000" font-family="sans-serif" font-size="14" font-weight="700" lengthAdjust="spacing" textLength="125.9795" x="43" y="433.4652">Persistence Layer</text></g><!--cluster CapabilityLayer--><g class="cluster" data-qualified-name="AgentCore.CapabilityLayer" data-source-line="30" id="ent0014"><path d="M207.5,417.93 L324.6973,417.93 A3.75,3.75 0 0 1 327.1973,420.43 L334.1973,440.4183 L350.5,440.4183 A2.5,2.5 0 0 1 353,442.9183 L353,624.14 A2.5,2.5 0 0 1 350.5,626.64 L207.5,626.64 A2.5,2.5 0 0 1 205,624.14 L205,420.43 A2.5,2.5 0 0 1 207.5,417.93" fill="none" style="stroke:#64748B;stroke-width:1.5;"/><line style="stroke:#64748B;stroke-width:1.5;" x1="205" x2="334.1973" y1="440.4183" y2="440.4183"/><text fill="#000000" font-family="sans-serif" font-size="14" font-weight="700" lengthAdjust="spacing" textLength="116.1973" x="209" y="433.4652">Capability Layer</text></g><!--cluster ExecutionLayer--><g class="cluster" data-qualified-name="AgentCore.ExecutionLayer" data-source-line="34" id="ent0017"><path d="M239.5,289.95 L354.1064,289.95 A3.75,3.75 0 0 1 356.6064,292.45 L363.6064,312.4383 L408.5,312.4383 A2.5,2.5 0 0 1 411,314.9383 L411,391.43 A2.5,2.5 0 0 1 408.5,393.93 L239.5,393.93 A2.5,2.5 0 0 1 237,391.43 L237,292.45 A2.5,2.5 0 0 1 239.5,289.95" fill="none" style="stroke:#64748B;stroke-width:1.5;"/><line style="stroke:#64748B;stroke-width:1.5;" x1="237" x2="363.6064" y1="312.4383" y2="312.4383"/><text fill="#000000" font-family="sans-serif" font-size="14" font-weight="700" lengthAdjust="spacing" textLength="113.6064" x="241" y="305.4852">Execution Layer</text></g><!--entity LLM--><g class="entity" data-qualified-name="External.LLM" data-source-line="14" id="ent0002"><rect fill="#F8FAFC" height="36.4883" rx="2.5" ry="2.5" style="stroke:#4B5563;stroke-width:0.5;" width="107.1172" x="722.44" y="574.15"/><text fill="#111827" font-family="sans-serif" font-size="14" lengthAdjust="spacing" textLength="87.1172" x="732.44" y="597.6852">LLM Provider</text></g><!--entity FS--><g class="entity" data-qualified-name="External.FS" data-source-line="15" id="ent0003"><rect fill="#F8FAFC" height="36.4883" rx="2.5" ry="2.5" style="stroke:#4B5563;stroke-width:0.5;" width="95.9268" x="475.04" y="574.15"/><text fill="#111827" font-family="sans-serif" font-size="14" lengthAdjust="spacing" textLength="75.9268" x="485.04" y="597.6852">File System</text></g><!--entity WEB--><g class="entity" data-qualified-name="External.WEB" data-source-line="16" id="ent0004"><rect fill="#F8FAFC" height="36.4883" rx="2.5" ry="2.5" style="stroke:#4B5563;stroke-width:0.5;" width="81.585" x="606.21" y="574.15"/><text fill="#111827" font-family="sans-serif" font-size="14" lengthAdjust="spacing" textLength="61.585" x="616.21" y="597.6852">Web APIs</text></g><!--entity INIT--><g class="entity" data-qualified-name="AgentCore.Orchestrator.INIT" data-source-line="20" id="ent0007"><rect fill="#F8FAFC" height="52.9766" rx="2.5" ry="2.5" style="stroke:#4B5563;stroke-width:0.5;" width="102.2227" x="165.89" y="84"/><text fill="#111827" font-family="sans-serif" font-size="14" lengthAdjust="spacing" text-decoration="underline" textLength="22.0186" x="195.7142" y="107.5352">init</text><text fill="#111827" font-family="sans-serif" font-size="14" lengthAdjust="spacing" textLength="20.5557" x="217.7328" y="107.5352">.py</text><text fill="#111827" font-family="sans-serif" font-size="14" lengthAdjust="spacing" textLength="82.2227" x="175.89" y="124.0234">Module Hub</text></g><!--entity LOOP--><g class="entity" data-qualified-name="AgentCore.Orchestrator.LOOP" data-source-line="21" id="ent0008"><rect fill="#F8FAFC" height="52.9766" rx="2.5" ry="2.5" style="stroke:#4B5563;stroke-width:0.5;" width="98.0186" x="167.99" y="196.97"/><text fill="#111827" font-family="sans-serif" font-size="14" lengthAdjust="spacing" textLength="50.6133" x="191.6926" y="220.5052">loop.py</text><text fill="#111827" font-family="sans-serif" font-size="14" lengthAdjust="spacing" textLength="78.0186" x="177.99" y="236.9934">Agent Loop</text></g><!--entity CTX--><g class="entity" data-qualified-name="AgentCore.ContextLayer.CTX" data-source-line="24" id="ent0010"><rect fill="#F8FAFC" height="52.9766" rx="2.5" ry="2.5" style="stroke:#4B5563;stroke-width:0.5;" width="121.0078" x="59.5" y="324.95"/><text fill="#111827" font-family="sans-serif" font-size="14" lengthAdjust="spacing" textLength="71.873" x="84.0674" y="348.4852">context.py</text><text fill="#111827" font-family="sans-serif" font-size="14" lengthAdjust="spacing" textLength="101.0078" x="69.5" y="364.9734">ContextBuilder</text></g><!--entity MEM--><g class="entity" data-qualified-name="AgentCore.PersistenceLayer.MEM" data-source-line="27" id="ent0012"><rect fill="#F8FAFC" height="52.9766" rx="2.5" ry="2.5" style="stroke:#4B5563;stroke-width:0.5;" width="109.4756" x="55.26" y="452.93"/><text fill="#111827" font-family="sans-serif" font-size="14" lengthAdjust="spacing" textLength="76.1387" x="71.9285" y="476.4652">memory.py</text><text fill="#111827" font-family="sans-serif" font-size="14" lengthAdjust="spacing" textLength="89.4756" x="65.26" y="492.9534">MemoryStore</text></g><!--entity MEM_FILES--><g class="entity" data-qualified-name="AgentCore.PersistenceLayer.MEM_FILES" data-source-line="28" id="ent0013"><rect fill="#F8FAFC" height="52.9766" rx="2.5" ry="2.5" style="stroke:#4B5563;stroke-width:0.5;" width="106.4678" x="56.77" y="565.9"/><text fill="#111827" font-family="sans-serif" font-size="14" lengthAdjust="spacing" textLength="86.4678" x="66.77" y="589.4352">MEMORY.md</text><text fill="#111827" font-family="sans-serif" font-size="14" lengthAdjust="spacing" textLength="85.4766" x="67.2656" y="605.9234">HISTORY.md</text></g><!--entity SKILLS--><g class="entity" data-qualified-name="AgentCore.CapabilityLayer.SKILLS" data-source-line="31" id="ent0015"><rect fill="#F8FAFC" height="52.9766" rx="2.5" ry="2.5" style="stroke:#4B5563;stroke-width:0.5;" width="101.1357" x="224.43" y="452.93"/><text fill="#111827" font-family="sans-serif" font-size="14" lengthAdjust="spacing" textLength="55.1523" x="247.4217" y="476.4652">skills.py</text><text fill="#111827" font-family="sans-serif" font-size="14" lengthAdjust="spacing" textLength="81.1357" x="234.43" y="492.9534">SkillsLoader</text></g><!--entity SKILL_FILES--><g class="entity" data-qualified-name="AgentCore.CapabilityLayer.SKILL_FILES" data-source-line="32" id="ent0016"><rect fill="#F8FAFC" height="36.4883" rx="2.5" ry="2.5" style="stroke:#4B5563;stroke-width:0.5;" width="116.9199" x="220.54" y="574.15"/><text fill="#111827" font-family="sans-serif" font-size="14" lengthAdjust="spacing" textLength="96.9199" x="230.54" y="597.6852">SKILL.md Files</text></g><!--entity SUB--><g class="entity" data-qualified-name="AgentCore.ExecutionLayer.SUB" data-source-line="35" id="ent0018"><rect fill="#F8FAFC" height="52.9766" rx="2.5" ry="2.5" style="stroke:#4B5563;stroke-width:0.5;" width="141.6934" x="253.15" y="324.95"/><text fill="#111827" font-family="sans-serif" font-size="14" lengthAdjust="spacing" textLength="83.3779" x="282.3077" y="348.4852">subagent.py</text><text fill="#111827" font-family="sans-serif" font-size="14" lengthAdjust="spacing" textLength="121.6934" x="263.15" y="364.9734">SubagentManager</text></g><!--link INIT to LOOP--><g class="link" data-entity-1="ent0007" data-entity-2="ent0008" data-link-type="dependency" data-source-line="38" id="lnk19"><path d="M217,137.22 C217,155.03 217,173.62 217,191.48" fill="none" id="INIT-to-LOOP" style="stroke:#4B5563;stroke-width:1;"/><polygon fill="#4B5563" points="217,196.48,221,187.48,217,191.48,213,187.48,217,196.48" style="stroke:#4B5563;stroke-width:1;stroke-linejoin:miter;stroke-miterlimit:10;"/></g><!--link LOOP to CTX--><g class="link" data-entity-1="ent0008" data-entity-2="ent0010" data-link-type="dependency" data-source-line="39" id="lnk20"><path d="M194.0895,254.2216 C177.3495,275.9616 159.6202,298.9882 142.8902,320.7182" fill="none" id="LOOP-CTX" style="stroke:#4B5563;stroke-width:1;"/><polygon fill="#4B5563" points="197.14,250.26,188.4798,254.9505,194.0895,254.2216,194.8184,259.8313,197.14,250.26" style="stroke:#4B5563;stroke-width:1;stroke-linejoin:miter;stroke-miterlimit:10;"/><polygon fill="#4B5563" points="139.84,324.68,148.4999,319.9889,142.8902,320.7182,142.1609,315.1085,139.84,324.68" style="stroke:#4B5563;stroke-width:1;stroke-linejoin:miter;stroke-miterlimit:10;"/></g><!--link LOOP to MEM--><g class="link" data-entity-1="ent0008" data-entity-2="ent0012" data-link-type="dependency" data-source-line="40" id="lnk21"><path d="M162.8247,226.3462 C122.0147,230.4162 71.23,242.89 43,281.95 C11.76,325.17 24.23,352.02 43,401.93 C50.33,421.42 61.562,435.7074 75.392,449.2074" fill="none" id="LOOP-MEM" style="stroke:#4B5563;stroke-width:1;"/><polygon fill="#4B5563" points="167.8,225.85,158.4475,222.7629,162.8247,226.3462,159.2414,230.7234,167.8,225.85" style="stroke:#4B5563;stroke-width:1;stroke-linejoin:miter;stroke-miterlimit:10;"/><polygon fill="#4B5563" points="78.97,452.7,75.3237,443.551,75.392,449.2074,69.7356,449.2757,78.97,452.7" style="stroke:#4B5563;stroke-width:1;stroke-linejoin:miter;stroke-miterlimit:10;"/></g><!--link LOOP to SKILLS--><g class="link" data-entity-1="ent0008" data-entity-2="ent0015" data-link-type="dependency" data-source-line="41" id="lnk22"><path d="M217.2313,255.2888 C218.0113,290.3288 221.57,349.58 237,401.93 C242.2,419.56 248.8551,433.6874 256.8351,448.0774" fill="none" id="LOOP-SKILLS" style="stroke:#4B5563;stroke-width:1;"/><polygon fill="#4B5563" points="217.12,250.29,213.3213,259.3768,217.2313,255.2888,221.3193,259.1988,217.12,250.29" style="stroke:#4B5563;stroke-width:1;stroke-linejoin:miter;stroke-miterlimit:10;"/><polygon fill="#4B5563" points="259.26,452.45,258.3934,442.6393,256.8351,448.0774,251.3971,446.5191,259.26,452.45" style="stroke:#4B5563;stroke-width:1;stroke-linejoin:miter;stroke-miterlimit:10;"/></g><!--link LOOP to SUB--><g class="link" data-entity-1="ent0008" data-entity-2="ent0018" data-link-type="dependency" data-source-line="42" id="lnk23"><path d="M238.91,250.26 C257.38,272 280.4228,299.1394 298.8828,320.8694" fill="none" id="LOOP-to-SUB" style="stroke:#4B5563;stroke-width:1;"/><polygon fill="#4B5563" points="302.12,324.68,299.3416,315.2312,298.8828,320.8694,293.2446,320.4106,302.12,324.68" style="stroke:#4B5563;stroke-width:1;stroke-linejoin:miter;stroke-miterlimit:10;"/></g><!--link CTX to MEM--><g class="link" data-entity-1="ent0010" data-entity-2="ent0012" data-link-type="dependency" data-source-line="43" id="lnk24"><path d="M117.95,378.24 C116.23,399.98 114.1645,425.9356 112.4445,447.6656" fill="none" id="CTX-to-MEM" style="stroke:#4B5563;stroke-width:1;"/><polygon fill="#4B5563" points="112.05,452.65,116.7477,443.9937,112.4445,447.6656,108.7726,443.3624,112.05,452.65" style="stroke:#4B5563;stroke-width:1;stroke-linejoin:miter;stroke-miterlimit:10;"/></g><!--link CTX to SKILLS--><g class="link" data-entity-1="ent0010" data-entity-2="ent0015" data-link-type="dependency" data-source-line="44" id="lnk25"><path d="M151.74,378.24 C178.4,399.9 212.4296,427.5669 239.1596,449.2869" fill="none" id="CTX-to-SKILLS" style="stroke:#4B5563;stroke-width:1;"/><polygon fill="#4B5563" points="243.04,452.44,238.5777,443.66,239.1596,449.2869,233.5327,449.8687,243.04,452.44" style="stroke:#4B5563;stroke-width:1;stroke-linejoin:miter;stroke-miterlimit:10;"/></g><!--link MEM to MEM_FILES--><g class="link" data-entity-1="ent0012" data-entity-2="ent0013" data-link-type="dependency" data-source-line="45" id="lnk26"><path d="M110,511.15 C110,528.95 110,542.55 110,560.41" fill="none" id="MEM-MEM_FILES" style="stroke:#4B5563;stroke-width:1;"/><polygon fill="#4B5563" points="110,506.15,106,515.15,110,511.15,114,515.15,110,506.15" style="stroke:#4B5563;stroke-width:1;stroke-linejoin:miter;stroke-miterlimit:10;"/><polygon fill="#4B5563" points="110,565.41,114,556.41,110,560.41,106,556.41,110,565.41" style="stroke:#4B5563;stroke-width:1;stroke-linejoin:miter;stroke-miterlimit:10;"/></g><!--link SKILLS to SKILL_FILES--><g class="link" data-entity-1="ent0015" data-entity-2="ent0016" data-link-type="dependency" data-source-line="46" id="lnk27"><path d="M276.1106,511.1467 C276.8606,531.8967 277.5318,550.5232 278.1818,568.7532" fill="none" id="SKILLS-SKILL_FILES" style="stroke:#4B5563;stroke-width:1;"/><polygon fill="#4B5563" points="275.93,506.15,272.2577,515.2886,276.1106,511.1467,280.2525,514.9996,275.93,506.15" style="stroke:#4B5563;stroke-width:1;stroke-linejoin:miter;stroke-miterlimit:10;"/><polygon fill="#4B5563" points="278.36,573.75,282.0368,564.6132,278.1818,568.7532,274.0418,564.8982,278.36,573.75" style="stroke:#4B5563;stroke-width:1;stroke-linejoin:miter;stroke-miterlimit:10;"/></g><!--link LOOP to LLM--><g class="link" data-entity-1="ent0008" data-entity-2="ent0002" data-link-type="dependency" data-source-line="47" id="lnk28"><path d="M271.3186,236.6006 C311.2786,246.3106 363.6,261.03 411,281.95 C511.69,326.39 539.3,338.46 623,409.93 C683.8,461.84 737.4683,535.166 761.2783,569.636" fill="none" id="LOOP-LLM" style="stroke:#4B5563;stroke-width:1;"/><polygon fill="#4B5563" points="266.46,235.42,274.261,241.432,271.3186,236.6006,276.15,233.6582,266.46,235.42" style="stroke:#4B5563;stroke-width:1;stroke-linejoin:miter;stroke-miterlimit:10;"/><polygon fill="#4B5563" points="764.12,573.75,762.2961,564.0715,761.2783,569.636,755.7138,568.6182,764.12,573.75" style="stroke:#4B5563;stroke-width:1;stroke-linejoin:miter;stroke-miterlimit:10;"/></g><!--link MEM to FS--><g class="link" data-entity-1="ent0012" data-entity-2="ent0003" data-link-type="dependency" data-source-line="48" id="lnk29"><path d="M169.8828,497.4023 C182.9228,500.8623 191.99,503.05 205,505.9 C270.18,520.17 288.43,514.33 353,531.15 C396.94,542.59 440.9835,558.5788 474.9635,571.8688" fill="none" id="MEM-FS" style="stroke:#4B5563;stroke-width:1;"/><polygon fill="#4B5563" points="165.05,496.12,172.7231,502.2944,169.8828,497.4023,174.7748,494.562,165.05,496.12" style="stroke:#4B5563;stroke-width:1;stroke-linejoin:miter;stroke-miterlimit:10;"/><polygon fill="#4B5563" points="479.62,573.69,472.6952,566.6866,474.9635,571.8688,469.7813,574.137,479.62,573.69" style="stroke:#4B5563;stroke-width:1;stroke-linejoin:miter;stroke-miterlimit:10;"/></g><!--link SKILLS to FS--><g class="link" data-entity-1="ent0015" data-entity-2="ent0003" data-link-type="dependency" data-source-line="49" id="lnk30"><path d="M330.3439,505.1824 C377.1139,526.1124 436.3962,552.6374 479.1162,571.7574" fill="none" id="SKILLS-FS" style="stroke:#4B5563;stroke-width:1;"/><polygon fill="#4B5563" points="325.78,503.14,332.361,510.4673,330.3439,505.1824,335.6288,503.1652,325.78,503.14" style="stroke:#4B5563;stroke-width:1;stroke-linejoin:miter;stroke-miterlimit:10;"/><polygon fill="#4B5563" points="483.68,573.8,477.0993,566.4724,479.1162,571.7574,473.8312,573.7744,483.68,573.8" style="stroke:#4B5563;stroke-width:1;stroke-linejoin:miter;stroke-miterlimit:10;"/></g><!--link SUB to LLM--><g class="link" data-entity-1="ent0018" data-entity-2="ent0002" data-link-type="dependency" data-source-line="50" id="lnk31"><path d="M399.8161,368.5209 C438.6761,378.0509 482.22,391.01 523,409.93 C611.16,450.83 627.37,472.67 705,531.15 C723.08,544.76 738.8743,558.198 752.8643,570.568" fill="none" id="SUB-LLM" style="stroke:#4B5563;stroke-width:1;"/><polygon fill="#4B5563" points="394.96,367.33,402.7483,373.3585,399.8161,368.5209,404.6537,365.5888,394.96,367.33" style="stroke:#4B5563;stroke-width:1;stroke-linejoin:miter;stroke-miterlimit:10;"/><polygon fill="#4B5563" points="756.61,573.88,752.5173,564.9218,752.8643,570.568,747.218,570.915,756.61,573.88" style="stroke:#4B5563;stroke-width:1;stroke-linejoin:miter;stroke-miterlimit:10;"/></g><!--link SUB to FS--><g class="link" data-entity-1="ent0018" data-entity-2="ent0003" data-link-type="dependency" data-source-line="51" id="lnk32"><path d="M348.4994,381.8524 C389.0994,430.6124 470.2607,528.0575 505.0807,569.8775" fill="none" id="SUB-FS" style="stroke:#4B5563;stroke-width:1;"/><polygon fill="#4B5563" points="345.3,378.01,347.985,387.4858,348.4994,381.8524,354.1328,382.3668,345.3,378.01" style="stroke:#4B5563;stroke-width:1;stroke-linejoin:miter;stroke-miterlimit:10;"/><polygon fill="#4B5563" points="508.28,573.72,505.5952,564.2441,505.0807,569.8775,499.4473,569.363,508.28,573.72" style="stroke:#4B5563;stroke-width:1;stroke-linejoin:miter;stroke-miterlimit:10;"/></g><!--link SUB to WEB--><g class="link" data-entity-1="ent0018" data-entity-2="ent0004" data-link-type="dependency" data-source-line="52" id="lnk33"><path d="M384.3758,380.6387 C402.6858,389.8587 418.38,398.54 436,409.93 C508.57,456.83 523.87,473.23 588,531.15 C603.1,544.79 615.7787,557.7238 627.3387,570.0438" fill="none" id="SUB-WEB" style="stroke:#4B5563;stroke-width:1;"/><polygon fill="#4B5563" points="379.91,378.39,386.1494,386.0104,384.3758,380.6387,389.7474,378.8651,379.91,378.39" style="stroke:#4B5563;stroke-width:1;stroke-linejoin:miter;stroke-miterlimit:10;"/><polygon fill="#4B5563" points="630.76,573.69,627.5187,564.3898,627.3387,570.0438,621.6847,569.8638,630.76,573.69" style="stroke:#4B5563;stroke-width:1;stroke-linejoin:miter;stroke-miterlimit:10;"/></g><!--link CTX to LLM--><g class="link" data-entity-1="ent0010" data-entity-2="ent0002" data-link-type="dependency" data-source-line="53" id="lnk34"><path d="M171.17,378.42 C191.2,387.43 214.69,396.6 237,401.93 C287.26,413.93 303.66,394.56 353,409.93 C432.9,434.81 435.92,478.51 515,505.9 C595.49,533.79 627.14,496.58 705,531.15 C727.01,540.92 744.0144,556.0973 757.2644,570.1073" fill="none" id="CTX-to-LLM" style="stroke:#4B5563;stroke-width:1;"/><polygon fill="#4B5563" points="760.7,573.74,757.422,564.4527,757.2644,570.1073,751.6097,569.9497,760.7,573.74" style="stroke:#4B5563;stroke-width:1;stroke-linejoin:miter;stroke-miterlimit:10;"/></g><?plantuml-src ZLDDRzim3BtxLn3jkHsofMqEmu0aI51ZpXBCARe11GBPLbAXjcH8yfgWw7yVzM5RxdBOHHOV7yb7YbOlZDT4aWeoahySf6XuCHUbaA0buGfTbEj8TIprJ0hnolW1zgHKDF0KT4-QKc_fKKzBTk0L1aAE1vK1QogbU7K5BiVPpStjby2vGGdaG6T25bHwqktuRZp9pf3-IwwakIRyK59uYm06YNrrWANWscEZqMZo-SumFsI_t4_sP9z7xv4MDMW1cT1QODFCL622HxMJ1HUB8tRCIGdfIMbQgGiW2ZhmBUebNIJ92ZPI_66eoj8G2FrBXgTBOztBDFG-qWocczWLU5pCK5mdWXCkKE8dDBYsXAcvpOKqa-XeQva_KuMZCor0GavUHuzZxmF9kntZJEzsr_NfYQz4qI1utsGsAluHRqDkAKHjUROs96YwBjVhJIXsZW-0MnFKzuW5XlLpvx5fFMlMiB8Tu7pxAyoyeL8n71_FQP0zGCzKg6WbvCdrPwyf3e7QmDLYy3nehd_-lgwA9tuVfrjtRucxPPmiqa6Rf2OPAva-XPrsu1afkCTbgQoKr5uJGTfEq-znaWpsmIAe0CpQg9xqhvB5aURDXoVli7CwcimkabFYZHNX-FLY7ipslKTc0-3gwfjxOdF0LsEQP-ajCyRUyerOmDgO2_dGCjkxvo7KPV6TEK-GpUDz3VDVTO7BOOGn7sOzhpD2X_czMY58-Wi0?></g></svg>