<svg xmlns="http://www.w3.org/2000/svg" xmlns:xlink="http://www.w3.org/1999/xlink" contentStyleType="text/css" data-diagram-type="SEQUENCE" height="1085px" preserveAspectRatio="none" style="width:1058px;height:1085px;" version="1.1" viewBox="0 0 1058 1085" width="1058px" zoomAndPan="magnify"><?plantuml 1.2026.5?><defs><style><![CDATA[
@media (prefers-color-scheme: dark) {
  text { fill: #e5e7eb !important; }
  path, line, rect, circle, ellipse, polygon, polyline { stroke: #cbd5e1 !important; }
  .entity rect, .participant rect, .participant path, .sequenceLine rect, .class rect, .component rect, .component path, .note rect { fill: #111827 !important; }
  .cluster path { fill: none !important; }
  polygon { fill: #cbd5e1 !important; }
}
]]></style></defs><g><rect fill="none" height="313.1055" style="stroke:#000000;stroke-width:1.5;" width="646.7212" x="86" y="82.7988"/><rect fill="none" height="111.2422" style="stroke:#000000;stroke-width:1.5;" width="706.2749" x="86.2173" y="409.9043"/><rect fill="none" height="227.1738" style="stroke:#000000;stroke-width:1.5;" width="966.7832" x="76" y="535.1465"/><rect fill="none" height="160.5527" style="stroke:#000000;stroke-width:1.5;" width="946.5659" x="86.2173" y="594.7676"/><rect fill="none" height="225.1738" style="stroke:#000000;stroke-width:1.5;" width="699.7095" x="84" y="776.3203"/><g class="participant-lifeline" data-entity-uid="part1" data-qualified-name="User" data-source-line="11" id="part1-lifeline"><g><title>User</title><rect fill="#000000" fill-opacity="0.00000" height="1011.3164" width="8" x="23.1826" y="36.4883"/><line style="stroke:#94A3B8;stroke-width:0.5;stroke-dasharray:5,5;" x1="27" x2="27" y1="36.4883" y2="1047.8047"/></g></g><g class="participant-lifeline" data-entity-uid="part2" data-qualified-name="Loop" data-source-line="12" id="part2-lifeline"><g><title>AgentLoop</title><rect fill="#000000" fill-opacity="0.00000" height="1011.3164" width="8" x="136.0117" y="36.4883"/><line style="stroke:#94A3B8;stroke-width:0.5;stroke-dasharray:5,5;" x1="139.2173" x2="139.2173" y1="36.4883" y2="1047.8047"/></g></g><g class="participant-lifeline" data-entity-uid="part3" data-qualified-name="Context" data-source-line="13" id="part3-lifeline"><g><title>ContextBuilder</title><rect fill="#000000" fill-opacity="0.00000" height="1011.3164" width="8" x="302.8086" y="36.4883"/><line style="stroke:#94A3B8;stroke-width:0.5;stroke-dasharray:5,5;" x1="306.3047" x2="306.3047" y1="36.4883" y2="1047.8047"/></g></g><g class="participant-lifeline" data-entity-uid="part4" data-qualified-name="Memory" data-source-line="14" id="part4-lifeline"><g><title>MemoryStore</title><rect fill="#000000" fill-opacity="0.00000" height="1011.3164" width="8" x="504.854" y="36.4883"/><line style="stroke:#94A3B8;stroke-width:0.5;stroke-dasharray:5,5;" x1="508.1162" x2="508.1162" y1="36.4883" y2="1047.8047"/></g></g><g class="participant-lifeline" data-entity-uid="part5" data-qualified-name="Skills" data-source-line="15" id="part5-lifeline"><g><title>SkillsLoader</title><rect fill="#000000" fill-opacity="0.00000" height="1011.3164" width="8" x="671.1533" y="36.4883"/><line style="stroke:#94A3B8;stroke-width:0.5;stroke-dasharray:5,5;" x1="674.5854" x2="674.5854" y1="36.4883" y2="1047.8047"/></g></g><g class="participant-lifeline" data-entity-uid="part6" data-qualified-name="LLM" data-source-line="16" id="part6-lifeline"><g><title>LLM</title><rect fill="#000000" fill-opacity="0.00000" height="1011.3164" width="8" x="749.2153" y="36.4883"/><line style="stroke:#94A3B8;stroke-width:0.5;stroke-dasharray:5,5;" x1="752.7212" x2="752.7212" y1="36.4883" y2="1047.8047"/></g></g><g class="participant-lifeline" data-entity-uid="part7" data-qualified-name="Subagent" data-source-line="17" id="part7-lifeline"><g><title>SubagentManager</title><rect fill="#000000" fill-opacity="0.00000" height="1011.3164" width="8" x="847.5562" y="36.4883"/><line style="stroke:#94A3B8;stroke-width:0.5;stroke-dasharray:5,5;" x1="850.7095" x2="850.7095" y1="36.4883" y2="1047.8047"/></g></g><g class="participant participant-head" data-entity-uid="part1" data-qualified-name="User" data-source-line="11" id="part1-head"><rect fill="#F8FAFC" height="30.4883" rx="2.5" ry="2.5" style="stroke:#4B5563;stroke-width:0.5;" width="44.3652" x="5" y="5"/><text fill="#111827" font-family="sans-serif" font-size="14" lengthAdjust="spacing" textLength="30.3652" x="12" y="25.5352">User</text></g><g class="participant participant-tail" data-entity-uid="part1" data-qualified-name="User" data-source-line="11" id="part1-tail"><rect fill="#F8FAFC" height="30.4883" rx="2.5" ry="2.5" style="stroke:#4B5563;stroke-width:0.5;" width="44.3652" x="5" y="1046.8047"/><text fill="#111827" font-family="sans-serif" font-size="14" lengthAdjust="spacing" textLength="30.3652" x="12" y="1067.3398">User</text></g><g class="participant participant-head" data-entity-uid="part2" data-qualified-name="Loop" data-source-line="12" id="part2-head"><rect fill="#F8FAFC" height="30.4883" rx="2.5" ry="2.5" style="stroke:#4B5563;stroke-width:0.5;" width="87.5889" x="96.2173" y="5"/><text fill="#111827" font-family="sans-serif" font-size="14" lengthAdjust="spacing" textLength="73.5889" x="103.2173" y="25.5352">AgentLoop</text></g><g class="participant participant-tail" data-entity-uid="part2" data-qualified-name="Loop" data-source-line="12" id="part2-tail"><rect fill="#F8FAFC" height="30.4883" rx="2.5" ry="2.5" style="stroke:#4B5563;stroke-width:0.5;" width="87.5889" x="96.2173" y="1046.8047"/><text fill="#111827" font-family="sans-serif" font-size="14" lengthAdjust="spacing" textLength="73.5889" x="103.2173" y="1067.3398">AgentLoop</text></g><g class="participant participant-head" data-entity-uid="part3" data-qualified-name="Context" data-source-line="13" id="part3-head"><rect fill="#F8FAFC" height="30.4883" rx="2.5" ry="2.5" style="stroke:#4B5563;stroke-width:0.5;" width="115.0078" x="249.3047" y="5"/><text fill="#111827" font-family="sans-serif" font-size="14" lengthAdjust="spacing" textLength="101.0078" x="256.3047" y="25.5352">ContextBuilder</text></g><g class="participant participant-tail" data-entity-uid="part3" data-qualified-name="Context" data-source-line="13" id="part3-tail"><rect fill="#F8FAFC" height="30.4883" rx="2.5" ry="2.5" style="stroke:#4B5563;stroke-width:0.5;" width="115.0078" x="249.3047" y="1046.8047"/><text fill="#111827" font-family="sans-serif" font-size="14" lengthAdjust="spacing" textLength="101.0078" x="256.3047" y="1067.3398">ContextBuilder</text></g><g class="participant participant-head" data-entity-uid="part4" data-qualified-name="Memory" data-source-line="14" id="part4-head"><rect fill="#F8FAFC" height="30.4883" rx="2.5" ry="2.5" style="stroke:#4B5563;stroke-width:0.5;" width="103.4756" x="457.1162" y="5"/><text fill="#111827" font-family="sans-serif" font-size="14" lengthAdjust="spacing" textLength="89.4756" x="464.1162" y="25.5352">MemoryStore</text></g><g class="participant participant-tail" data-entity-uid="part4" data-qualified-name="Memory" data-source-line="14" id="part4-tail"><rect fill="#F8FAFC" height="30.4883" rx="2.5" ry="2.5" style="stroke:#4B5563;stroke-width:0.5;" width="103.4756" x="457.1162" y="1046.8047"/><text fill="#111827" font-family="sans-serif" font-size="14" lengthAdjust="spacing" textLength="89.4756" x="464.1162" y="1067.3398">MemoryStore</text></g><g class="participant participant-head" data-entity-uid="part5" data-qualified-name="Skills" data-source-line="15" id="part5-head"><rect fill="#F8FAFC" height="30.4883" rx="2.5" ry="2.5" style="stroke:#4B5563;stroke-width:0.5;" width="95.1357" x="627.5854" y="5"/><text fill="#111827" font-family="sans-serif" font-size="14" lengthAdjust="spacing" textLength="81.1357" x="634.5854" y="25.5352">SkillsLoader</text></g><g class="participant participant-tail" data-entity-uid="part5" data-qualified-name="Skills" data-source-line="15" id="part5-tail"><rect fill="#F8FAFC" height="30.4883" rx="2.5" ry="2.5" style="stroke:#4B5563;stroke-width:0.5;" width="95.1357" x="627.5854" y="1046.8047"/><text fill="#111827" font-family="sans-serif" font-size="14" lengthAdjust="spacing" textLength="81.1357" x="634.5854" y="1067.3398">SkillsLoader</text></g><g class="participant participant-head" data-entity-uid="part6" data-qualified-name="LLM" data-source-line="16" id="part6-head"><rect fill="#F8FAFC" height="30.4883" rx="2.5" ry="2.5" style="stroke:#4B5563;stroke-width:0.5;" width="40.9883" x="732.7212" y="5"/><text fill="#111827" font-family="sans-serif" font-size="14" lengthAdjust="spacing" textLength="26.9883" x="739.7212" y="25.5352">LLM</text></g><g class="participant participant-tail" data-entity-uid="part6" data-qualified-name="LLM" data-source-line="16" id="part6-tail"><rect fill="#F8FAFC" height="30.4883" rx="2.5" ry="2.5" style="stroke:#4B5563;stroke-width:0.5;" width="40.9883" x="732.7212" y="1046.8047"/><text fill="#111827" font-family="sans-serif" font-size="14" lengthAdjust="spacing" textLength="26.9883" x="739.7212" y="1067.3398">LLM</text></g><g class="participant participant-head" data-entity-uid="part7" data-qualified-name="Subagent" data-source-line="17" id="part7-head"><rect fill="#F8FAFC" height="30.4883" rx="2.5" ry="2.5" style="stroke:#4B5563;stroke-width:0.5;" width="135.6934" x="783.7095" y="5"/><text fill="#111827" font-family="sans-serif" font-size="14" lengthAdjust="spacing" textLength="121.6934" x="790.7095" y="25.5352">SubagentManager</text></g><g class="participant participant-tail" data-entity-uid="part7" data-qualified-name="Subagent" data-source-line="17" id="part7-tail"><rect fill="#F8FAFC" height="30.4883" rx="2.5" ry="2.5" style="stroke:#4B5563;stroke-width:0.5;" width="135.6934" x="783.7095" y="1046.8047"/><text fill="#111827" font-family="sans-serif" font-size="14" lengthAdjust="spacing" textLength="121.6934" x="790.7095" y="1067.3398">SubagentManager</text></g><g class="message" data-entity-1="part1" data-entity-2="part2" data-source-line="18" id="msg1"><line style="stroke:#4B5563;stroke-width:1;" x1="138.0117" x2="128.0117" y1="67.7988" y2="63.7988"/><line style="stroke:#4B5563;stroke-width:1;" x1="138.0117" x2="128.0117" y1="67.7988" y2="71.7988"/><line style="stroke:#4B5563;stroke-width:1;" x1="27.1826" x2="139.0117" y1="67.7988" y2="67.7988"/><text fill="#000000" font-family="sans-serif" font-size="13" lengthAdjust="spacing" textLength="88.8291" x="34.1826" y="63.0566">Send Message</text></g><path d="M86,82.7988 L299.3145,82.7988 L299.3145,90.1094 L289.3145,100.1094 L86,100.1094 L86,82.7988" fill="#EEEEEE" style="stroke:#000000;stroke-width:1.5;"/><rect fill="none" height="313.1055" style="stroke:#000000;stroke-width:1.5;" width="646.7212" x="86" y="82.7988"/><text fill="#000000" font-family="sans-serif" font-size="13" font-weight="700" lengthAdjust="spacing" textLength="168.3145" x="101" y="96.3672">Phase rgb(240, 249, 255)</text><path d="M96,105.1094 L96,130.1094 L717,130.1094 L717,115.1094 L707,105.1094 L96,105.1094" fill="#FEFFDD" style="stroke:#181818;stroke-width:0.5;"/><path d="M707,105.1094 L707,115.1094 L717,115.1094 L707,105.1094" fill="#FEFFDD" style="stroke:#181818;stroke-width:0.5;"/><text fill="#000000" font-family="sans-serif" font-size="13" lengthAdjust="spacing" textLength="154.8511" x="324.8264" y="122.6777">Context Assembly Phase</text><g class="message" data-entity-1="part2" data-entity-2="part3" data-source-line="21" id="msg2"><line style="stroke:#4B5563;stroke-width:1;" x1="304.8086" x2="294.8086" y1="156.7305" y2="152.7305"/><line style="stroke:#4B5563;stroke-width:1;" x1="304.8086" x2="294.8086" y1="156.7305" y2="160.7305"/><line style="stroke:#4B5563;stroke-width:1;" x1="140.0117" x2="305.8086" y1="156.7305" y2="156.7305"/><text fill="#000000" font-family="sans-serif" font-size="13" lengthAdjust="spacing" textLength="83.0083" x="147.0117" y="151.9883">Build context</text></g><g class="message" data-entity-1="part3" data-entity-2="part4" data-source-line="22" id="msg3"><line style="stroke:#4B5563;stroke-width:1;" x1="506.854" x2="496.854" y1="186.041" y2="182.041"/><line style="stroke:#4B5563;stroke-width:1;" x1="506.854" x2="496.854" y1="186.041" y2="190.041"/><line style="stroke:#4B5563;stroke-width:1;" x1="306.8086" x2="507.854" y1="186.041" y2="186.041"/><text fill="#000000" font-family="sans-serif" font-size="13" lengthAdjust="spacing" textLength="146.3389" x="313.8086" y="181.2988">Get long-term memory</text></g><g class="message" data-entity-1="part4" data-entity-2="part3" data-source-line="23" id="msg4"><line style="stroke:#4B5563;stroke-width:1;" x1="307.8086" x2="317.8086" y1="215.3516" y2="211.3516"/><line style="stroke:#4B5563;stroke-width:1;" x1="307.8086" x2="317.8086" y1="215.3516" y2="219.3516"/><line style="stroke:#4B5563;stroke-width:1;stroke-dasharray:2,2;" x1="306.8086" x2="507.854" y1="215.3516" y2="215.3516"/><text fill="#000000" font-family="sans-serif" font-size="13" lengthAdjust="spacing" textLength="178.0454" x="323.8086" y="210.6094">Return MEMORY.md content</text></g><g class="message" data-entity-1="part3" data-entity-2="part5" data-source-line="24" id="msg5"><line style="stroke:#4B5563;stroke-width:1;" x1="673.1533" x2="663.1533" y1="244.6621" y2="240.6621"/><line style="stroke:#4B5563;stroke-width:1;" x1="673.1533" x2="663.1533" y1="244.6621" y2="248.6621"/><line style="stroke:#4B5563;stroke-width:1;" x1="306.8086" x2="674.1533" y1="244.6621" y2="244.6621"/><text fill="#000000" font-family="sans-serif" font-size="13" lengthAdjust="spacing" textLength="147.3545" x="313.8086" y="239.9199">Get always-active skills</text></g><g class="message" data-entity-1="part5" data-entity-2="part3" data-source-line="25" id="msg6"><line style="stroke:#4B5563;stroke-width:1;" x1="307.8086" x2="317.8086" y1="273.9727" y2="269.9727"/><line style="stroke:#4B5563;stroke-width:1;" x1="307.8086" x2="317.8086" y1="273.9727" y2="277.9727"/><line style="stroke:#4B5563;stroke-width:1;stroke-dasharray:2,2;" x1="306.8086" x2="674.1533" y1="273.9727" y2="273.9727"/><text fill="#000000" font-family="sans-serif" font-size="13" lengthAdjust="spacing" textLength="139.2041" x="323.8086" y="269.2305">Return validated skills</text></g><g class="message" data-entity-1="part3" data-entity-2="part3" data-source-line="26" id="msg7"><line style="stroke:#4B5563;stroke-width:1;" x1="306.8086" x2="348.8086" y1="303.2832" y2="303.2832"/><line style="stroke:#4B5563;stroke-width:1;" x1="348.8086" x2="348.8086" y1="303.2832" y2="316.2832"/><line style="stroke:#4B5563;stroke-width:1;" x1="306.8086" x2="348.8086" y1="316.2832" y2="316.2832"/><line style="stroke:#4B5563;stroke-width:1;" x1="307.8086" x2="317.8086" y1="316.2832" y2="312.2832"/><line style="stroke:#4B5563;stroke-width:1;" x1="307.8086" x2="317.8086" y1="316.2832" y2="320.2832"/><text fill="#000000" font-family="sans-serif" font-size="13" lengthAdjust="spacing" textLength="125.855" x="313.8086" y="298.541">Load bootstrap files</text></g><g class="message" data-entity-1="part3" data-entity-2="part3" data-source-line="27" id="msg8"><line style="stroke:#4B5563;stroke-width:1;" x1="306.8086" x2="348.8086" y1="345.5938" y2="345.5938"/><line style="stroke:#4B5563;stroke-width:1;" x1="348.8086" x2="348.8086" y1="345.5938" y2="358.5938"/><line style="stroke:#4B5563;stroke-width:1;" x1="306.8086" x2="348.8086" y1="358.5938" y2="358.5938"/><line style="stroke:#4B5563;stroke-width:1;" x1="307.8086" x2="317.8086" y1="358.5938" y2="354.5938"/><line style="stroke:#4B5563;stroke-width:1;" x1="307.8086" x2="317.8086" y1="358.5938" y2="362.5938"/><text fill="#000000" font-family="sans-serif" font-size="13" lengthAdjust="spacing" textLength="151.0361" x="313.8086" y="340.8516">Inject runtime metadata</text></g><g class="message" data-entity-1="part3" data-entity-2="part2" data-source-line="28" id="msg9"><line style="stroke:#4B5563;stroke-width:1;" x1="141.0117" x2="151.0117" y1="387.9043" y2="383.9043"/><line style="stroke:#4B5563;stroke-width:1;" x1="141.0117" x2="151.0117" y1="387.9043" y2="391.9043"/><line style="stroke:#4B5563;stroke-width:1;stroke-dasharray:2,2;" x1="140.0117" x2="305.8086" y1="387.9043" y2="387.9043"/><text fill="#000000" font-family="sans-serif" font-size="13" lengthAdjust="spacing" textLength="142.7969" x="157.0117" y="383.1621">Complete message list</text></g><path d="M86.2173,409.9043 L299.5317,409.9043 L299.5317,417.2148 L289.5317,427.2148 L86.2173,427.2148 L86.2173,409.9043" fill="#EEEEEE" style="stroke:#000000;stroke-width:1.5;"/><rect fill="none" height="111.2422" style="stroke:#000000;stroke-width:1.5;" width="706.2749" x="86.2173" y="409.9043"/><text fill="#000000" font-family="sans-serif" font-size="13" font-weight="700" lengthAdjust="spacing" textLength="168.3145" x="101.2173" y="423.4727">Phase rgb(240, 255, 240)</text><path d="M110,432.2148 L110,457.2148 L782,457.2148 L782,442.2148 L772,432.2148 L110,432.2148" fill="#FEFFDD" style="stroke:#181818;stroke-width:0.5;"/><path d="M772,432.2148 L772,442.2148 L782,442.2148 L772,432.2148" fill="#FEFFDD" style="stroke:#181818;stroke-width:0.5;"/><text fill="#000000" font-family="sans-serif" font-size="13" lengthAdjust="spacing" textLength="105.6694" x="388.9114" y="449.7832">Reasoning Phase</text><g class="message" data-entity-1="part2" data-entity-2="part6" data-source-line="32" id="msg10"><line style="stroke:#4B5563;stroke-width:1;" x1="751.2153" x2="741.2153" y1="483.8359" y2="479.8359"/><line style="stroke:#4B5563;stroke-width:1;" x1="751.2153" x2="741.2153" y1="483.8359" y2="487.8359"/><line style="stroke:#4B5563;stroke-width:1;" x1="140.0117" x2="752.2153" y1="483.8359" y2="483.8359"/><text fill="#000000" font-family="sans-serif" font-size="13" lengthAdjust="spacing" textLength="162.6079" x="147.0117" y="479.0938">Send context + messages</text></g><g class="message" data-entity-1="part6" data-entity-2="part2" data-source-line="33" id="msg11"><line style="stroke:#4B5563;stroke-width:1;" x1="141.0117" x2="151.0117" y1="513.1465" y2="509.1465"/><line style="stroke:#4B5563;stroke-width:1;" x1="141.0117" x2="151.0117" y1="513.1465" y2="517.1465"/><line style="stroke:#4B5563;stroke-width:1;stroke-dasharray:2,2;" x1="140.0117" x2="752.2153" y1="513.1465" y2="513.1465"/><text fill="#000000" font-family="sans-serif" font-size="13" lengthAdjust="spacing" textLength="151.8105" x="157.0117" y="508.4043">Response with tool calls</text></g><path d="M76,535.1465 L289.3145,535.1465 L289.3145,542.457 L279.3145,552.457 L76,552.457 L76,535.1465" fill="#EEEEEE" style="stroke:#000000;stroke-width:1.5;"/><rect fill="none" height="227.1738" style="stroke:#000000;stroke-width:1.5;" width="966.7832" x="76" y="535.1465"/><text fill="#000000" font-family="sans-serif" font-size="13" font-weight="700" lengthAdjust="spacing" textLength="168.3145" x="91" y="548.7148">Phase rgb(255, 250, 240)</text><path d="M86,557.457 L86,582.457 L904,582.457 L904,567.457 L894,557.457 L86,557.457" fill="#FEFFDD" style="stroke:#181818;stroke-width:0.5;"/><path d="M894,557.457 L894,567.457 L904,567.457 L894,557.457" fill="#FEFFDD" style="stroke:#181818;stroke-width:0.5;"/><text fill="#000000" font-family="sans-serif" font-size="13" lengthAdjust="spacing" textLength="174.8145" x="403.1855" y="575.0254">Delegation Phase (Optional)</text><path d="M86.2173,594.7676 L148.356,594.7676 L148.356,602.0781 L138.356,612.0781 L86.2173,612.0781 L86.2173,594.7676" fill="#EEEEEE" style="stroke:#000000;stroke-width:1.5;"/><rect fill="none" height="160.5527" style="stroke:#000000;stroke-width:1.5;" width="946.5659" x="86.2173" y="594.7676"/><text fill="#000000" font-family="sans-serif" font-size="13" font-weight="700" lengthAdjust="spacing" textLength="17.1387" x="101.2173" y="608.3359">alt</text><text fill="#000000" font-family="sans-serif" font-size="11" font-weight="700" lengthAdjust="spacing" textLength="142.0977" x="163.356" y="607.4023">[Complex Task Detected]</text><g class="message" data-entity-1="part2" data-entity-2="part7" data-source-line="38" id="msg12"><line style="stroke:#4B5563;stroke-width:1;" x1="849.5562" x2="839.5562" y1="633.3887" y2="629.3887"/><line style="stroke:#4B5563;stroke-width:1;" x1="849.5562" x2="839.5562" y1="633.3887" y2="637.3887"/><line style="stroke:#4B5563;stroke-width:1;" x1="140.0117" x2="850.5562" y1="633.3887" y2="633.3887"/><text fill="#000000" font-family="sans-serif" font-size="13" lengthAdjust="spacing" textLength="150.2871" x="147.0117" y="628.6465">Spawn background task</text></g><g class="message" data-entity-1="part7" data-entity-2="part7" data-source-line="39" id="msg13"><line style="stroke:#4B5563;stroke-width:1;" x1="851.5562" x2="893.5562" y1="662.6992" y2="662.6992"/><line style="stroke:#4B5563;stroke-width:1;" x1="893.5562" x2="893.5562" y1="662.6992" y2="675.6992"/><line style="stroke:#4B5563;stroke-width:1;" x1="851.5562" x2="893.5562" y1="675.6992" y2="675.6992"/><line style="stroke:#4B5563;stroke-width:1;" x1="852.5562" x2="862.5562" y1="675.6992" y2="671.6992"/><line style="stroke:#4B5563;stroke-width:1;" x1="852.5562" x2="862.5562" y1="675.6992" y2="679.6992"/><text fill="#000000" font-family="sans-serif" font-size="13" lengthAdjust="spacing" textLength="162.2271" x="858.5562" y="657.957">Execute 15-iteration loop</text></g><g class="message" data-entity-1="part7" data-entity-2="part7" data-source-line="40" id="msg14"><line style="stroke:#4B5563;stroke-width:1;" x1="851.5562" x2="893.5562" y1="705.0098" y2="705.0098"/><line style="stroke:#4B5563;stroke-width:1;" x1="893.5562" x2="893.5562" y1="705.0098" y2="718.0098"/><line style="stroke:#4B5563;stroke-width:1;" x1="851.5562" x2="893.5562" y1="718.0098" y2="718.0098"/><line style="stroke:#4B5563;stroke-width:1;" x1="852.5562" x2="862.5562" y1="718.0098" y2="714.0098"/><line style="stroke:#4B5563;stroke-width:1;" x1="852.5562" x2="862.5562" y1="718.0098" y2="722.0098"/><text fill="#000000" font-family="sans-serif" font-size="13" lengthAdjust="spacing" textLength="153.5308" x="858.5562" y="700.2676">Use tools (fs, shell, web)</text></g><g class="message" data-entity-1="part7" data-entity-2="part2" data-source-line="41" id="msg15"><line style="stroke:#4B5563;stroke-width:1;" x1="141.0117" x2="151.0117" y1="747.3203" y2="743.3203"/><line style="stroke:#4B5563;stroke-width:1;" x1="141.0117" x2="151.0117" y1="747.3203" y2="751.3203"/><line style="stroke:#4B5563;stroke-width:1;stroke-dasharray:2,2;" x1="140.0117" x2="850.5562" y1="747.3203" y2="747.3203"/><text fill="#000000" font-family="sans-serif" font-size="13" lengthAdjust="spacing" textLength="189.8457" x="157.0117" y="742.5781">Report result via message bus</text></g><path d="M84,776.3203 L297.3145,776.3203 L297.3145,783.6309 L287.3145,793.6309 L84,793.6309 L84,776.3203" fill="#EEEEEE" style="stroke:#000000;stroke-width:1.5;"/><rect fill="none" height="225.1738" style="stroke:#000000;stroke-width:1.5;" width="699.7095" x="84" y="776.3203"/><text fill="#000000" font-family="sans-serif" font-size="13" font-weight="700" lengthAdjust="spacing" textLength="168.3145" x="99" y="789.8887">Phase rgb(255, 240, 245)</text><path d="M94,798.6309 L94,823.6309 L553,823.6309 L553,808.6309 L543,798.6309 L94,798.6309" fill="#FEFFDD" style="stroke:#181818;stroke-width:0.5;"/><path d="M543,798.6309 L543,808.6309 L553,808.6309 L543,798.6309" fill="#FEFFDD" style="stroke:#181818;stroke-width:0.5;"/><text fill="#000000" font-family="sans-serif" font-size="13" lengthAdjust="spacing" textLength="127.626" x="255.3743" y="816.1992">Consolidation Phase</text><g class="message" data-entity-1="part2" data-entity-2="part4" data-source-line="46" id="msg16"><line style="stroke:#4B5563;stroke-width:1;" x1="506.854" x2="496.854" y1="850.252" y2="846.252"/><line style="stroke:#4B5563;stroke-width:1;" x1="506.854" x2="496.854" y1="850.252" y2="854.252"/><line style="stroke:#4B5563;stroke-width:1;" x1="140.0117" x2="507.854" y1="850.252" y2="850.252"/><text fill="#000000" font-family="sans-serif" font-size="13" lengthAdjust="spacing" textLength="135.0591" x="147.0117" y="845.5098">Trigger consolidation</text></g><g class="message" data-entity-1="part4" data-entity-2="part6" data-source-line="47" id="msg17"><line style="stroke:#4B5563;stroke-width:1;" x1="751.2153" x2="741.2153" y1="879.5625" y2="875.5625"/><line style="stroke:#4B5563;stroke-width:1;" x1="751.2153" x2="741.2153" y1="879.5625" y2="883.5625"/><line style="stroke:#4B5563;stroke-width:1;" x1="508.854" x2="752.2153" y1="879.5625" y2="879.5625"/><text fill="#000000" font-family="sans-serif" font-size="13" lengthAdjust="spacing" textLength="147.6592" x="515.854" y="874.8203">Extract key information</text></g><g class="message" data-entity-1="part6" data-entity-2="part4" data-source-line="48" id="msg18"><line style="stroke:#4B5563;stroke-width:1;" x1="509.854" x2="519.854" y1="908.873" y2="904.873"/><line style="stroke:#4B5563;stroke-width:1;" x1="509.854" x2="519.854" y1="908.873" y2="912.873"/><line style="stroke:#4B5563;stroke-width:1;stroke-dasharray:2,2;" x1="508.854" x2="752.2153" y1="908.873" y2="908.873"/><text fill="#000000" font-family="sans-serif" font-size="13" lengthAdjust="spacing" textLength="120.0405" x="525.854" y="904.1309">Structured updates</text></g><g class="message" data-entity-1="part4" data-entity-2="part4" data-source-line="49" id="msg19"><line style="stroke:#4B5563;stroke-width:1;" x1="508.854" x2="550.854" y1="938.1836" y2="938.1836"/><line style="stroke:#4B5563;stroke-width:1;" x1="550.854" x2="550.854" y1="938.1836" y2="951.1836"/><line style="stroke:#4B5563;stroke-width:1;" x1="508.854" x2="550.854" y1="951.1836" y2="951.1836"/><line style="stroke:#4B5563;stroke-width:1;" x1="509.854" x2="519.854" y1="951.1836" y2="947.1836"/><line style="stroke:#4B5563;stroke-width:1;" x1="509.854" x2="519.854" y1="951.1836" y2="955.1836"/><text fill="#000000" font-family="sans-serif" font-size="13" lengthAdjust="spacing" textLength="149.2715" x="515.854" y="933.4414">Append to HISTORY.md</text></g><g class="message" data-entity-1="part4" data-entity-2="part4" data-source-line="50" id="msg20"><line style="stroke:#4B5563;stroke-width:1;" x1="508.854" x2="550.854" y1="980.4941" y2="980.4941"/><line style="stroke:#4B5563;stroke-width:1;" x1="550.854" x2="550.854" y1="980.4941" y2="993.4941"/><line style="stroke:#4B5563;stroke-width:1;" x1="508.854" x2="550.854" y1="993.4941" y2="993.4941"/><line style="stroke:#4B5563;stroke-width:1;" x1="509.854" x2="519.854" y1="993.4941" y2="989.4941"/><line style="stroke:#4B5563;stroke-width:1;" x1="509.854" x2="519.854" y1="993.4941" y2="997.4941"/><text fill="#000000" font-family="sans-serif" font-size="13" lengthAdjust="spacing" textLength="152.2993" x="515.854" y="975.752">Merge into MEMORY.md</text></g><g class="message" data-entity-1="part2" data-entity-2="part1" data-source-line="52" id="msg21"><line style="stroke:#4B5563;stroke-width:1;" x1="28.1826" x2="38.1826" y1="1029.8047" y2="1025.8047"/><line style="stroke:#4B5563;stroke-width:1;" x1="28.1826" x2="38.1826" y1="1029.8047" y2="1033.8047"/><line style="stroke:#4B5563;stroke-width:1;stroke-dasharray:2,2;" x1="27.1826" x2="139.0117" y1="1029.8047" y2="1029.8047"/><text fill="#000000" font-family="sans-serif" font-size="13" lengthAdjust="spacing" textLength="60.1948" x="44.1826" y="1025.0625">Response</text></g><?plantuml-src VLJ9Rjim4BtdAmR99K7j8awiDl4XW9EcRG2v2UBqq2CbZHJM5AcIb1SK_VSEHItUUT32UREzMSoCou9fbaF4ubccLIcJ1oMK1gkPD2H2QKzCYpBlB54BBZD8cJ2uBi4_9SeOuUy9m5XhjV1spePH47owTfUnLVfUwGJrjYZaAOPSueRqTiYkenkIlZ1jUSmB9kr-zNN0LXfdwKtAqdWJz5L9Mui7Wy7DrUUJVmG0A3e8dFuqg4-16N0Vk-9nHio4IXKLndtiOXx83oxjVSb5KXkhhtQn4yoLNas98go0_dyNDvrn8KoeM6FHN-m2mt3YGmidUwoK4NC9J9YaTsselglGBkd-tPtBQmHJb0a5P0p9AwbZk82NTsOGT1QTNmqlUt0rlAL745nK47T-A8kWvgWhVde-KXWr9C3O6CmZiVAMMZK79jyrQWGLVn2lCUTEBIQWfse4tz22K3BhMzGvv1s1xdXGVztkAzfIIvWyJfvVVttCQnTodmiVkdV1n8AjJ9_5biyHJ4U_EnwupysS2PumYycsIkUbLN7bXKWfQsWC2qYvmAFu9_aROmkwb9RdIAbRHgxOZafRqGUL5mAjWrPL1S6DpvjAVQJ4GU3gV7cmnDHiu39cHact9VOMba1rJzKrXGzD75sM1Eh2VKLJA4cHBBXz1wkKW9Wr71wCk0esk3mUSTFr5FON59WnovMihPm_5-wFYKwR2LkJjuGtPcQaP8bwJ5h4MgADRSgsO0kvjcF1akw6IeFTK7jSObnIk8EWpwcfVMoYsJL7LMc0Aw8CdAUcHuiRXUZ10gEB_RfhN1TAKo-XAIdNEMTjZqHbLvw6zEFa-xLmU2FueVGRmQXgFbhsjxkccV8tpJDQMQvtEfNjCQ-Rx759yqE3CSCLS9agdM-YwoPhJ4-jBcCQLfhHid2pQdRjDjXnKRWEjWg-FqtV_08vZ9wW9WAv97YxRZRugv8a1RTtktx_3m00?></g></svg>