<svg xmlns="http://www.w3.org/2000/svg" xmlns:xlink="http://www.w3.org/1999/xlink" contentStyleType="text/css" data-diagram-type="SEQUENCE" height="999px" preserveAspectRatio="none" style="width:953px;height:999px;background:#FFFFFF;" version="1.1" viewBox="0 0 953 999" width="953px" zoomAndPan="magnify"><?plantuml 1.2026.5?><defs/><rect data-xfeat-white-canvas="true" fill="#FFFFFF" height="100%" width="100%" x="0" y="0"/><g><rect fill="#F8FAFC" height="284" rx="4" ry="4" style="stroke:#CBD5E1;stroke-width:1.5;" width="579.4648" x="79.9648" y="77"/><rect fill="#F8FAFC" height="102" rx="4" ry="4" style="stroke:#CBD5E1;stroke-width:1.5;" width="637.7344" x="79.9648" y="375"/><rect fill="#F8FAFC" height="210" rx="4" ry="4" style="stroke:#CBD5E1;stroke-width:1.5;" width="867.0137" x="70" y="491"/><rect fill="#F8FAFC" height="146" rx="4" ry="4" style="stroke:#CBD5E1;stroke-width:1.5;" width="847.0488" x="79.9648" y="548"/><rect fill="#F8FAFC" height="206" rx="4" ry="4" style="stroke:#CBD5E1;stroke-width:1.5;" width="632.6641" x="78" y="715"/><g class="participant-lifeline" data-entity-uid="part1" data-qualified-name="User" data-source-line="2" id="part1-lifeline"><g><title>User</title><rect fill="#000000" fill-opacity="0.00000" height="930" width="8" x="22.7793" y="34"/><line style="stroke:#94A3B8;stroke-width:0.5;stroke-dasharray:5,5;" x1="26" x2="26" y1="34" y2="964"/></g></g><g class="participant-lifeline" data-entity-uid="part2" data-qualified-name="Loop" data-source-line="3" id="part2-lifeline"><g><title>AgentLoop</title><rect fill="#000000" fill-opacity="0.00000" height="930" width="8" x="126.8301" y="34"/><line style="stroke:#94A3B8;stroke-width:0.5;stroke-dasharray:5,5;" x1="129.9648" x2="129.9648" y1="34" y2="964"/></g></g><g class="participant-lifeline" data-entity-uid="part3" data-qualified-name="Context" data-source-line="4" id="part3-lifeline"><g><title>ContextBuilder</title><rect fill="#000000" fill-opacity="0.00000" height="930" width="8" x="272.2129" y="34"/><line style="stroke:#94A3B8;stroke-width:0.5;stroke-dasharray:5,5;" x1="275.2993" x2="275.2993" y1="34" y2="964"/></g></g><g class="participant-lifeline" data-entity-uid="part4" data-qualified-name="Memory" data-source-line="5" id="part4-lifeline"><g><title>MemoryStore</title><rect fill="#000000" fill-opacity="0.00000" height="930" width="8" x="452.2656" y="34"/><line style="stroke:#94A3B8;stroke-width:0.5;stroke-dasharray:5,5;" x1="456.2554" x2="456.2554" y1="34" y2="964"/></g></g><g class="participant-lifeline" data-entity-uid="part5" data-qualified-name="Skills" data-source-line="6" id="part5-lifeline"><g><title>SkillsLoader</title><rect fill="#000000" fill-opacity="0.00000" height="930" width="8" x="600.2988" y="34"/><line style="stroke:#94A3B8;stroke-width:0.5;stroke-dasharray:5,5;" x1="604.168" x2="604.168" y1="34" y2="964"/></g></g><g class="participant-lifeline" data-entity-uid="part6" data-qualified-name="LLM" data-source-line="7" id="part6-lifeline"><g><title>LLM</title><rect fill="#000000" fill-opacity="0.00000" height="930" width="8" x="676.0469" y="34"/><line style="stroke:#94A3B8;stroke-width:0.5;stroke-dasharray:5,5;" x1="679.4297" x2="679.4297" y1="34" y2="964"/></g></g><g class="participant-lifeline" data-entity-uid="part7" data-qualified-name="Subagent" data-source-line="8" id="part7-lifeline"><g><title>SubagentManager</title><rect fill="#000000" fill-opacity="0.00000" height="930" width="8" x="771.2637" y="34"/><line style="stroke:#94A3B8;stroke-width:0.5;stroke-dasharray:5,5;" x1="774.6641" x2="774.6641" y1="34" y2="964"/></g></g><g class="participant participant-head" data-entity-uid="part1" data-qualified-name="User" data-source-line="2" id="part1-head"><rect fill="#F8FAFC" height="28" rx="4" ry="4" style="stroke:#475569;stroke-width:0.5;" width="43.5586" x="5" y="5"/><text fill="#0F172A" font-family="Helvetica" font-size="14" lengthAdjust="spacing" textLength="29.5586" x="12" y="22.7803">User</text></g><g class="participant participant-tail" data-entity-uid="part1" data-qualified-name="User" data-source-line="2" id="part1-tail"><rect fill="#F8FAFC" height="28" rx="4" ry="4" style="stroke:#475569;stroke-width:0.5;" width="43.5586" x="5" y="963"/><text fill="#0F172A" font-family="Helvetica" font-size="14" lengthAdjust="spacing" textLength="29.5586" x="12" y="980.7803">User</text></g><g class="participant participant-head" data-entity-uid="part2" data-qualified-name="Loop" data-source-line="3" id="part2-head"><rect fill="#F8FAFC" height="28" rx="4" ry="4" style="stroke:#475569;stroke-width:0.5;" width="81.7305" x="89.9648" y="5"/><text fill="#0F172A" font-family="Helvetica" font-size="14" lengthAdjust="spacing" textLength="67.7305" x="96.9648" y="22.7803">AgentLoop</text></g><g class="participant participant-tail" data-entity-uid="part2" data-qualified-name="Loop" data-source-line="3" id="part2-tail"><rect fill="#F8FAFC" height="28" rx="4" ry="4" style="stroke:#475569;stroke-width:0.5;" width="81.7305" x="89.9648" y="963"/><text fill="#0F172A" font-family="Helvetica" font-size="14" lengthAdjust="spacing" textLength="67.7305" x="96.9648" y="980.7803">AgentLoop</text></g><g class="participant participant-head" data-entity-uid="part3" data-qualified-name="Context" data-source-line="4" id="part3-head"><rect fill="#F8FAFC" height="28" rx="4" ry="4" style="stroke:#475569;stroke-width:0.5;" width="105.8271" x="223.2993" y="5"/><text fill="#0F172A" font-family="Helvetica" font-size="14" lengthAdjust="spacing" textLength="91.8271" x="230.2993" y="22.7803">ContextBuilder</text></g><g class="participant participant-tail" data-entity-uid="part3" data-qualified-name="Context" data-source-line="4" id="part3-tail"><rect fill="#F8FAFC" height="28" rx="4" ry="4" style="stroke:#475569;stroke-width:0.5;" width="105.8271" x="223.2993" y="963"/><text fill="#0F172A" font-family="Helvetica" font-size="14" lengthAdjust="spacing" textLength="91.8271" x="230.2993" y="980.7803">ContextBuilder</text></g><g class="participant participant-head" data-entity-uid="part4" data-qualified-name="Memory" data-source-line="5" id="part4-head"><rect fill="#F8FAFC" height="28" rx="4" ry="4" style="stroke:#475569;stroke-width:0.5;" width="98.0205" x="407.2554" y="5"/><text fill="#0F172A" font-family="Helvetica" font-size="14" lengthAdjust="spacing" textLength="84.0205" x="414.2554" y="22.7803">MemoryStore</text></g><g class="participant participant-tail" data-entity-uid="part4" data-qualified-name="Memory" data-source-line="5" id="part4-tail"><rect fill="#F8FAFC" height="28" rx="4" ry="4" style="stroke:#475569;stroke-width:0.5;" width="98.0205" x="407.2554" y="963"/><text fill="#0F172A" font-family="Helvetica" font-size="14" lengthAdjust="spacing" textLength="84.0205" x="414.2554" y="980.7803">MemoryStore</text></g><g class="participant participant-head" data-entity-uid="part5" data-qualified-name="Skills" data-source-line="6" id="part5-head"><rect fill="#F8FAFC" height="28" rx="4" ry="4" style="stroke:#475569;stroke-width:0.5;" width="90.2617" x="559.168" y="5"/><text fill="#0F172A" font-family="Helvetica" font-size="14" lengthAdjust="spacing" textLength="76.2617" x="566.168" y="22.7803">SkillsLoader</text></g><g class="participant participant-tail" data-entity-uid="part5" data-qualified-name="Skills" data-source-line="6" id="part5-tail"><rect fill="#F8FAFC" height="28" rx="4" ry="4" style="stroke:#475569;stroke-width:0.5;" width="90.2617" x="559.168" y="963"/><text fill="#0F172A" font-family="Helvetica" font-size="14" lengthAdjust="spacing" textLength="76.2617" x="566.168" y="980.7803">SkillsLoader</text></g><g class="participant participant-head" data-entity-uid="part6" data-qualified-name="LLM" data-source-line="7" id="part6-head"><rect fill="#F8FAFC" height="28" rx="4" ry="4" style="stroke:#475569;stroke-width:0.5;" width="41.2344" x="659.4297" y="5"/><text fill="#0F172A" font-family="Helvetica" font-size="14" lengthAdjust="spacing" textLength="27.2344" x="666.4297" y="22.7803">LLM</text></g><g class="participant participant-tail" data-entity-uid="part6" data-qualified-name="LLM" data-source-line="7" id="part6-tail"><rect fill="#F8FAFC" height="28" rx="4" ry="4" style="stroke:#475569;stroke-width:0.5;" width="41.2344" x="659.4297" y="963"/><text fill="#0F172A" font-family="Helvetica" font-size="14" lengthAdjust="spacing" textLength="27.2344" x="666.4297" y="980.7803">LLM</text></g><g class="participant participant-head" data-entity-uid="part7" data-qualified-name="Subagent" data-source-line="8" id="part7-head"><rect fill="#F8FAFC" height="28" rx="4" ry="4" style="stroke:#475569;stroke-width:0.5;" width="129.1992" x="710.6641" y="5"/><text fill="#0F172A" font-family="Helvetica" font-size="14" lengthAdjust="spacing" textLength="115.1992" x="717.6641" y="22.7803">SubagentManager</text></g><g class="participant participant-tail" data-entity-uid="part7" data-qualified-name="Subagent" data-source-line="8" id="part7-tail"><rect fill="#F8FAFC" height="28" rx="4" ry="4" style="stroke:#475569;stroke-width:0.5;" width="129.1992" x="710.6641" y="963"/><text fill="#0F172A" font-family="Helvetica" font-size="14" lengthAdjust="spacing" textLength="115.1992" x="717.6641" y="980.7803">SubagentManager</text></g><g class="message" data-entity-1="part1" data-entity-2="part2" data-source-line="9" id="msg1"><line style="stroke:#64748B;stroke-width:1.1;" x1="128.8301" x2="118.8301" y1="62" y2="58"/><line style="stroke:#64748B;stroke-width:1.1;" x1="128.8301" x2="118.8301" y1="62" y2="66"/><line style="stroke:#64748B;stroke-width:1.1;" x1="26.7793" x2="129.8301" y1="62" y2="62"/><text fill="#334155" font-family="Helvetica" font-size="12" lengthAdjust="spacing" textLength="80.0508" x="38.7793" y="57.2402">Send Message</text></g><path d="M83.9648,77 L287.6123,77 L287.6123,83 L277.6123,93 L79.9648,93 L79.9648,81 A4,4 0 0 1 83.9648,77" fill="#F8FAFC" style="stroke:#CBD5E1;stroke-width:1.5;"/><rect fill="none" height="284" rx="4" ry="4" style="stroke:#CBD5E1;stroke-width:1.5;" width="579.4648" x="79.9648" y="77"/><text fill="#0F172A" font-family="Helvetica" font-size="14" font-weight="700" lengthAdjust="spacing" textLength="162.6475" x="94.9648" y="88.7803">Phase rgb(240, 249, 255)</text><path d="M90,102 L90,118 A4,4 0 0 0 94,122 L640,122 A4,4 0 0 0 644,118 L644,108 L634,98 L94,98 A4,4 0 0 0 90,102" fill="#FFF7ED" style="stroke:#FDBA74;stroke-width:0.5;"/><path d="M634,98 L634,106 A2,2 0 0 0 636,108 L644,108 L634,98" fill="#FFF7ED" style="stroke:#FDBA74;stroke-width:0.5;"/><text fill="#7C2D12" font-family="Helvetica" font-size="14" lengthAdjust="spacing" textLength="156.4063" x="289.0293" y="113.7803">Context Assembly Phase</text><g class="message" data-entity-1="part2" data-entity-2="part3" data-source-line="12" id="msg2"><line style="stroke:#64748B;stroke-width:1.1;" x1="274.2129" x2="264.2129" y1="145" y2="141"/><line style="stroke:#64748B;stroke-width:1.1;" x1="274.2129" x2="264.2129" y1="145" y2="149"/><line style="stroke:#64748B;stroke-width:1.1;" x1="130.8301" x2="275.2129" y1="145" y2="145"/><text fill="#334155" font-family="Helvetica" font-size="12" lengthAdjust="spacing" textLength="68.707" x="169.168" y="140.2402">Build context</text></g><g class="message" data-entity-1="part3" data-entity-2="part4" data-source-line="13" id="msg3"><line style="stroke:#64748B;stroke-width:1.1;" x1="454.2656" x2="444.2656" y1="171" y2="167"/><line style="stroke:#64748B;stroke-width:1.1;" x1="454.2656" x2="444.2656" y1="171" y2="175"/><line style="stroke:#64748B;stroke-width:1.1;" x1="276.2129" x2="455.2656" y1="171" y2="171"/><text fill="#334155" font-family="Helvetica" font-size="12" lengthAdjust="spacing" textLength="120.0293" x="306.2246" y="166.2402">Get long-term memory</text></g><g class="message" data-entity-1="part4" data-entity-2="part3" data-source-line="14" id="msg4"><line style="stroke:#64748B;stroke-width:1.1;" x1="277.2129" x2="287.2129" y1="197" y2="193"/><line style="stroke:#64748B;stroke-width:1.1;" x1="277.2129" x2="287.2129" y1="197" y2="201"/><line style="stroke:#64748B;stroke-width:1.1;stroke-dasharray:2,2;" x1="276.2129" x2="455.2656" y1="197" y2="197"/><text fill="#334155" font-family="Helvetica" font-size="12" lengthAdjust="spacing" textLength="156.0527" x="288.2129" y="192.2402">Return MEMORY.md content</text></g><g class="message" data-entity-1="part3" data-entity-2="part5" data-source-line="15" id="msg5"><line style="stroke:#64748B;stroke-width:1.1;" x1="602.2988" x2="592.2988" y1="223" y2="219"/><line style="stroke:#64748B;stroke-width:1.1;" x1="602.2988" x2="592.2988" y1="223" y2="227"/><line style="stroke:#64748B;stroke-width:1.1;" x1="276.2129" x2="603.2988" y1="223" y2="223"/><text fill="#334155" font-family="Helvetica" font-size="12" lengthAdjust="spacing" textLength="124.0313" x="378.2402" y="218.2402">Get always-active skills</text></g><g class="message" data-entity-1="part5" data-entity-2="part3" data-source-line="16" id="msg6"><line style="stroke:#64748B;stroke-width:1.1;" x1="277.2129" x2="287.2129" y1="249" y2="245"/><line style="stroke:#64748B;stroke-width:1.1;" x1="277.2129" x2="287.2129" y1="249" y2="253"/><line style="stroke:#64748B;stroke-width:1.1;stroke-dasharray:2,2;" x1="276.2129" x2="603.2988" y1="249" y2="249"/><text fill="#334155" font-family="Helvetica" font-size="12" lengthAdjust="spacing" textLength="116.7188" x="381.8965" y="244.2402">Return validated skills</text></g><g class="message" data-entity-1="part3" data-entity-2="part3" data-source-line="17" id="msg7"><line style="stroke:#64748B;stroke-width:1.1;" x1="276.2129" x2="318.2129" y1="275" y2="275"/><line style="stroke:#64748B;stroke-width:1.1;" x1="318.2129" x2="318.2129" y1="275" y2="288"/><line style="stroke:#64748B;stroke-width:1.1;" x1="276.2129" x2="318.2129" y1="288" y2="288"/><line style="stroke:#64748B;stroke-width:1.1;" x1="277.2129" x2="287.2129" y1="288" y2="284"/><line style="stroke:#64748B;stroke-width:1.1;" x1="277.2129" x2="287.2129" y1="288" y2="292"/><text fill="#334155" font-family="Helvetica" font-size="12" lengthAdjust="spacing" textLength="104.7363" x="283.2129" y="270.2402">Load bootstrap files</text></g><g class="message" data-entity-1="part3" data-entity-2="part3" data-source-line="18" id="msg8"><line style="stroke:#64748B;stroke-width:1.1;" x1="276.2129" x2="318.2129" y1="314" y2="314"/><line style="stroke:#64748B;stroke-width:1.1;" x1="318.2129" x2="318.2129" y1="314" y2="327"/><line style="stroke:#64748B;stroke-width:1.1;" x1="276.2129" x2="318.2129" y1="327" y2="327"/><line style="stroke:#64748B;stroke-width:1.1;" x1="277.2129" x2="287.2129" y1="327" y2="323"/><line style="stroke:#64748B;stroke-width:1.1;" x1="277.2129" x2="287.2129" y1="327" y2="331"/><text fill="#334155" font-family="Helvetica" font-size="12" lengthAdjust="spacing" textLength="125.3965" x="283.2129" y="309.2402">Inject runtime metadata</text></g><g class="message" data-entity-1="part3" data-entity-2="part2" data-source-line="19" id="msg9"><line style="stroke:#64748B;stroke-width:1.1;" x1="131.8301" x2="141.8301" y1="353" y2="349"/><line style="stroke:#64748B;stroke-width:1.1;" x1="131.8301" x2="141.8301" y1="353" y2="357"/><line style="stroke:#64748B;stroke-width:1.1;stroke-dasharray:2,2;" x1="130.8301" x2="275.2129" y1="353" y2="353"/><text fill="#334155" font-family="Helvetica" font-size="12" lengthAdjust="spacing" textLength="121.3828" x="142.8301" y="348.2402">Complete message list</text></g><path d="M83.9648,375 L287.6123,375 L287.6123,381 L277.6123,391 L79.9648,391 L79.9648,379 A4,4 0 0 1 83.9648,375" fill="#F8FAFC" style="stroke:#CBD5E1;stroke-width:1.5;"/><rect fill="none" height="102" rx="4" ry="4" style="stroke:#CBD5E1;stroke-width:1.5;" width="637.7344" x="79.9648" y="375"/><text fill="#0F172A" font-family="Helvetica" font-size="14" font-weight="700" lengthAdjust="spacing" textLength="162.6475" x="94.9648" y="386.7803">Phase rgb(240, 255, 240)</text><path d="M102,400 L102,416 A4,4 0 0 0 106,420 L703,420 A4,4 0 0 0 707,416 L707,406 L697,396 L106,396 A4,4 0 0 0 102,400" fill="#FFF7ED" style="stroke:#FDBA74;stroke-width:0.5;"/><path d="M697,396 L697,404 A2,2 0 0 0 699,406 L707,406 L697,396" fill="#FFF7ED" style="stroke:#FDBA74;stroke-width:0.5;"/><text fill="#7C2D12" font-family="Helvetica" font-size="14" lengthAdjust="spacing" textLength="110.5234" x="349.5879" y="411.7803">Reasoning Phase</text><g class="message" data-entity-1="part2" data-entity-2="part6" data-source-line="23" id="msg10"><line style="stroke:#64748B;stroke-width:1.1;" x1="678.0469" x2="668.0469" y1="443" y2="439"/><line style="stroke:#64748B;stroke-width:1.1;" x1="678.0469" x2="668.0469" y1="443" y2="447"/><line style="stroke:#64748B;stroke-width:1.1;" x1="130.8301" x2="679.0469" y1="443" y2="443"/><text fill="#334155" font-family="Helvetica" font-size="12" lengthAdjust="spacing" textLength="138.416" x="336.2305" y="438.2402">Send context + messages</text></g><g class="message" data-entity-1="part6" data-entity-2="part2" data-source-line="24" id="msg11"><line style="stroke:#64748B;stroke-width:1.1;" x1="131.8301" x2="141.8301" y1="469" y2="465"/><line style="stroke:#64748B;stroke-width:1.1;" x1="131.8301" x2="141.8301" y1="469" y2="473"/><line style="stroke:#64748B;stroke-width:1.1;stroke-dasharray:2,2;" x1="130.8301" x2="679.0469" y1="469" y2="469"/><text fill="#334155" font-family="Helvetica" font-size="12" lengthAdjust="spacing" textLength="128.7305" x="341.0732" y="464.2402">Response with tool calls</text></g><path d="M74,491 L277.6475,491 L277.6475,497 L267.6475,507 L70,507 L70,495 A4,4 0 0 1 74,491" fill="#F8FAFC" style="stroke:#CBD5E1;stroke-width:1.5;"/><rect fill="none" height="210" rx="4" ry="4" style="stroke:#CBD5E1;stroke-width:1.5;" width="867.0137" x="70" y="491"/><text fill="#0F172A" font-family="Helvetica" font-size="14" font-weight="700" lengthAdjust="spacing" textLength="162.6475" x="85" y="502.7803">Phase rgb(255, 250, 240)</text><path d="M80,516 L80,532 A4,4 0 0 0 84,536 L820,536 A4,4 0 0 0 824,532 L824,522 L814,512 L84,512 A4,4 0 0 0 80,516" fill="#FFF7ED" style="stroke:#FDBA74;stroke-width:0.5;"/><path d="M814,512 L814,520 A2,2 0 0 0 816,522 L824,522 L814,512" fill="#FFF7ED" style="stroke:#FDBA74;stroke-width:0.5;"/><text fill="#7C2D12" font-family="Helvetica" font-size="14" lengthAdjust="spacing" textLength="175.8818" x="364.5083" y="527.7803">Delegation Phase (Optional)</text><path d="M83.9648,548 L141.3027,548 L141.3027,554 L131.3027,564 L79.9648,564 L79.9648,552 A4,4 0 0 1 83.9648,548" fill="#F8FAFC" style="stroke:#CBD5E1;stroke-width:1.5;"/><rect fill="none" height="146" rx="4" ry="4" style="stroke:#CBD5E1;stroke-width:1.5;" width="847.0488" x="79.9648" y="548"/><text fill="#0F172A" font-family="Helvetica" font-size="14" font-weight="700" lengthAdjust="spacing" textLength="16.3379" x="94.9648" y="559.7803">alt</text><text fill="#334155" font-family="Helvetica" font-size="14" font-weight="700" lengthAdjust="spacing" textLength="167.2686" x="156.3027" y="560.7803">[Complex Task Detected]</text><g class="message" data-entity-1="part2" data-entity-2="part7" data-source-line="29" id="msg12"><line style="stroke:#64748B;stroke-width:1.1;" x1="773.2637" x2="763.2637" y1="582" y2="578"/><line style="stroke:#64748B;stroke-width:1.1;" x1="773.2637" x2="763.2637" y1="582" y2="586"/><line style="stroke:#64748B;stroke-width:1.1;" x1="130.8301" x2="774.2637" y1="582" y2="582"/><text fill="#334155" font-family="Helvetica" font-size="12" lengthAdjust="spacing" textLength="128.0801" x="389.0068" y="577.2402">Spawn background task</text></g><g class="message" data-entity-1="part7" data-entity-2="part7" data-source-line="30" id="msg13"><line style="stroke:#64748B;stroke-width:1.1;" x1="775.2637" x2="817.2637" y1="608" y2="608"/><line style="stroke:#64748B;stroke-width:1.1;" x1="817.2637" x2="817.2637" y1="608" y2="621"/><line style="stroke:#64748B;stroke-width:1.1;" x1="775.2637" x2="817.2637" y1="621" y2="621"/><line style="stroke:#64748B;stroke-width:1.1;" x1="776.2637" x2="786.2637" y1="621" y2="617"/><line style="stroke:#64748B;stroke-width:1.1;" x1="776.2637" x2="786.2637" y1="621" y2="625"/><text fill="#334155" font-family="Helvetica" font-size="12" lengthAdjust="spacing" textLength="132.75" x="782.2637" y="603.2402">Execute 15-iteration loop</text></g><g class="message" data-entity-1="part7" data-entity-2="part7" data-source-line="31" id="msg14"><line style="stroke:#64748B;stroke-width:1.1;" x1="775.2637" x2="817.2637" y1="647" y2="647"/><line style="stroke:#64748B;stroke-width:1.1;" x1="817.2637" x2="817.2637" y1="647" y2="660"/><line style="stroke:#64748B;stroke-width:1.1;" x1="775.2637" x2="817.2637" y1="660" y2="660"/><line style="stroke:#64748B;stroke-width:1.1;" x1="776.2637" x2="786.2637" y1="660" y2="656"/><line style="stroke:#64748B;stroke-width:1.1;" x1="776.2637" x2="786.2637" y1="660" y2="664"/><text fill="#334155" font-family="Helvetica" font-size="12" lengthAdjust="spacing" textLength="130.7109" x="782.2637" y="642.2402">Use tools (fs, shell, web)</text></g><g class="message" data-entity-1="part7" data-entity-2="part2" data-source-line="32" id="msg15"><line style="stroke:#64748B;stroke-width:1.1;" x1="131.8301" x2="141.8301" y1="686" y2="682"/><line style="stroke:#64748B;stroke-width:1.1;" x1="131.8301" x2="141.8301" y1="686" y2="690"/><line style="stroke:#64748B;stroke-width:1.1;stroke-dasharray:2,2;" x1="130.8301" x2="774.2637" y1="686" y2="686"/><text fill="#334155" font-family="Helvetica" font-size="12" lengthAdjust="spacing" textLength="162.0762" x="372.0088" y="681.2402">Report result via message bus</text></g><path d="M82,715 L285.6475,715 L285.6475,721 L275.6475,731 L78,731 L78,719 A4,4 0 0 1 82,715" fill="#F8FAFC" style="stroke:#CBD5E1;stroke-width:1.5;"/><rect fill="none" height="206" rx="4" ry="4" style="stroke:#CBD5E1;stroke-width:1.5;" width="632.6641" x="78" y="715"/><text fill="#0F172A" font-family="Helvetica" font-size="14" font-weight="700" lengthAdjust="spacing" textLength="162.6475" x="93" y="726.7803">Phase rgb(255, 240, 245)</text><path d="M88,740 L88,756 A4,4 0 0 0 92,760 L494,760 A4,4 0 0 0 498,756 L498,746 L488,736 L92,736 A4,4 0 0 0 88,740" fill="#FFF7ED" style="stroke:#FDBA74;stroke-width:0.5;"/><path d="M488,736 L488,744 A2,2 0 0 0 490,746 L498,746 L488,736" fill="#FFF7ED" style="stroke:#FDBA74;stroke-width:0.5;"/><text fill="#7C2D12" font-family="Helvetica" font-size="14" lengthAdjust="spacing" textLength="128.4199" x="228.9456" y="751.7803">Consolidation Phase</text><g class="message" data-entity-1="part2" data-entity-2="part4" data-source-line="37" id="msg16"><line style="stroke:#64748B;stroke-width:1.1;" x1="454.2656" x2="444.2656" y1="783" y2="779"/><line style="stroke:#64748B;stroke-width:1.1;" x1="454.2656" x2="444.2656" y1="783" y2="787"/><line style="stroke:#64748B;stroke-width:1.1;" x1="130.8301" x2="455.2656" y1="783" y2="783"/><text fill="#334155" font-family="Helvetica" font-size="12" lengthAdjust="spacing" textLength="111.3926" x="237.8516" y="778.2402">Trigger consolidation</text></g><g class="message" data-entity-1="part4" data-entity-2="part6" data-source-line="38" id="msg17"><line style="stroke:#64748B;stroke-width:1.1;" x1="678.0469" x2="668.0469" y1="809" y2="805"/><line style="stroke:#64748B;stroke-width:1.1;" x1="678.0469" x2="668.0469" y1="809" y2="813"/><line style="stroke:#64748B;stroke-width:1.1;" x1="456.2656" x2="679.0469" y1="809" y2="809"/><text fill="#334155" font-family="Helvetica" font-size="12" lengthAdjust="spacing" textLength="122.0449" x="507.1338" y="804.2402">Extract key information</text></g><g class="message" data-entity-1="part6" data-entity-2="part4" data-source-line="39" id="msg18"><line style="stroke:#64748B;stroke-width:1.1;" x1="457.2656" x2="467.2656" y1="835" y2="831"/><line style="stroke:#64748B;stroke-width:1.1;" x1="457.2656" x2="467.2656" y1="835" y2="839"/><line style="stroke:#64748B;stroke-width:1.1;stroke-dasharray:2,2;" x1="456.2656" x2="679.0469" y1="835" y2="835"/><text fill="#334155" font-family="Helvetica" font-size="12" lengthAdjust="spacing" textLength="101.3965" x="517.458" y="830.2402">Structured updates</text></g><g class="message" data-entity-1="part4" data-entity-2="part4" data-source-line="40" id="msg19"><line style="stroke:#64748B;stroke-width:1.1;" x1="456.2656" x2="498.2656" y1="861" y2="861"/><line style="stroke:#64748B;stroke-width:1.1;" x1="498.2656" x2="498.2656" y1="861" y2="874"/><line style="stroke:#64748B;stroke-width:1.1;" x1="456.2656" x2="498.2656" y1="874" y2="874"/><line style="stroke:#64748B;stroke-width:1.1;" x1="457.2656" x2="467.2656" y1="874" y2="870"/><line style="stroke:#64748B;stroke-width:1.1;" x1="457.2656" x2="467.2656" y1="874" y2="878"/><text fill="#334155" font-family="Helvetica" font-size="12" lengthAdjust="spacing" textLength="131.3906" x="463.2656" y="856.2402">Append to HISTORY.md</text></g><g class="message" data-entity-1="part4" data-entity-2="part4" data-source-line="41" id="msg20"><line style="stroke:#64748B;stroke-width:1.1;" x1="456.2656" x2="498.2656" y1="900" y2="900"/><line style="stroke:#64748B;stroke-width:1.1;" x1="498.2656" x2="498.2656" y1="900" y2="913"/><line style="stroke:#64748B;stroke-width:1.1;" x1="456.2656" x2="498.2656" y1="913" y2="913"/><line style="stroke:#64748B;stroke-width:1.1;" x1="457.2656" x2="467.2656" y1="913" y2="909"/><line style="stroke:#64748B;stroke-width:1.1;" x1="457.2656" x2="467.2656" y1="913" y2="917"/><text fill="#334155" font-family="Helvetica" font-size="12" lengthAdjust="spacing" textLength="134.0332" x="463.2656" y="895.2402">Merge into MEMORY.md</text></g><g class="message" data-entity-1="part2" data-entity-2="part1" data-source-line="43" id="msg21"><line style="stroke:#64748B;stroke-width:1.1;" x1="27.7793" x2="37.7793" y1="946" y2="942"/><line style="stroke:#64748B;stroke-width:1.1;" x1="27.7793" x2="37.7793" y1="946" y2="950"/><line style="stroke:#64748B;stroke-width:1.1;stroke-dasharray:2,2;" x1="26.7793" x2="129.8301" y1="946" y2="946"/><text fill="#334155" font-family="Helvetica" font-size="12" lengthAdjust="spacing" textLength="54.0352" x="51.7871" y="941.2402">Response</text></g><?plantuml-src VLHBSzem4BxtLsnp8bF8f9bm28VCf2dJPWOtdP0UUfJDObHaIIEjUVpxhYm_80Pq0DlwTlVRRn-VfSvKkK2mpYpHUscqK2DQOO4tiYpK9-1ZXIEPIIiqmTKVZ-uAX8VmqBz-ob7Jp1XROS937_DiDE6ElfLIBMfdzQS-Di72kFsSZCCA6D_xkFbQAkLdHZGUuuS-S3PB8hLPSi9BcOgGG28q_zUEwcyLEYGzUdmCUKrWZdh1XBpd--esTwQqy7ibF8BBqy7T_UqGxkuV-6SylguWuVmoX60sw2fzXf4fJ1eHuCbxB5ArZvvQim3cs3Lg0fL-a1qe5qvzpS0erGH-884oEXyHkWAAJi1m8cXqwFSDgNGQacdo-lRtfgX3w5CX8lKOGgYjsFkHo4Xk47mdVpWHU2hCHYYv48IBZoPTbDOab1TIOyYJ4nQMKk55_8l-Xnc1ApN90Zbr4XnAz4pQYZwRmYga0Asg2ahwc3UN-aA9n-DGvzkp9UPcWv2ny4PBdPykB8Fgdgfh2byQ7bsM3Ehelg6tHZEJhQGLa34ACj5eU9PnHNPyUvbnq_LC-pigp0NnQgYz35ujLOkYinQAQl5sy2xyces8fST5YpX8jF7DsLgnrP2AR1rOSkR4jaSc3VR8RBh3h6IwNySZoKqTkQbcrrmqvG6kXF8mMFeX-1KgDOGjfjUdRG-qjiPnBw4lETUD56sFf6LNdaRqo-B7jN1-8yIXZ1l1cse-MlK_TaqpvUzEvhooGkzq9X_7l6wowOxdXmTZZNkGUcbSSOokcwnnFITNPZoiFAEb3RFg-tuRx9EreOF9mC-N-NjS8EVH2JeMK6g6j-lcIBygIJO8UxVhz_y0?></g></svg>