<svg xmlns="http://www.w3.org/2000/svg" xmlns:xlink="http://www.w3.org/1999/xlink" contentStyleType="text/css" data-diagram-type="DESCRIPTION" height="623px" preserveAspectRatio="none" style="width:680px;height:623px;background:#FFFFFF;" version="1.1" viewBox="0 0 680 623" width="680px" zoomAndPan="magnify"><?plantuml 1.2026.5?><defs/><rect data-xfeat-white-canvas="true" fill="#FFFFFF" height="100%" width="100%" x="0" y="0"/><g><!--cluster Session--><g class="cluster" data-qualified-name="Session" data-source-line="3" id="ent0001"><rect fill="#FFFFFF" height="195" rx="4" ry="4" style="stroke:#CBD5E1;stroke-width:1;" width="178" x="258" y="7"/><text fill="#0F172A" font-family="Helvetica" font-size="14" font-weight="700" lengthAdjust="spacing" textLength="122.4893" x="285.7554" y="19.7803">&#128260; Active Session</text></g><!--cluster MemorySystem--><g class="cluster" data-qualified-name="MemorySystem" data-source-line="7" id="ent0004"><rect fill="#FFFFFF" height="361" rx="4" ry="4" style="stroke:#CBD5E1;stroke-width:1;" width="659" x="7" y="248"/><text fill="#0F172A" font-family="Helvetica" font-size="14" font-weight="700" lengthAdjust="spacing" textLength="299.0547" x="186.9727" y="260.7803">&#128193; Memory Component (Always-Active Skill)</text></g><!--cluster SemanticLayer--><g class="cluster" data-qualified-name="MemorySystem.SemanticLayer" data-source-line="8" id="ent0005"><rect fill="#FFFFFF" height="153" rx="4" ry="4" style="stroke:#CBD5E1;stroke-width:1;" width="206" x="56" y="432"/><text fill="#0F172A" font-family="Helvetica" font-size="14" font-weight="700" lengthAdjust="spacing" textLength="183.958" x="67.021" y="444.7803">&#129504; Semantic Memory Layer</text></g><!--cluster EpisodicLayer--><g class="cluster" data-qualified-name="MemorySystem.EpisodicLayer" data-source-line="11" id="ent0007"><rect fill="#FFFFFF" height="139" rx="4" ry="4" style="stroke:#CBD5E1;stroke-width:1;" width="218" x="311" y="439"/><text fill="#0F172A" font-family="Helvetica" font-size="14" font-weight="700" lengthAdjust="spacing" textLength="180.0547" x="329.9727" y="451.7803">&#128220; Episodic Memory Layer</text></g><!--cluster Operations--><g class="cluster" data-qualified-name="MemorySystem.Operations" data-source-line="14" id="ent0009"><rect fill="#FFFFFF" height="97" rx="4" ry="4" style="stroke:#CBD5E1;stroke-width:1;" width="611" x="31" y="289"/><text fill="#0F172A" font-family="Helvetica" font-size="14" font-weight="700" lengthAdjust="spacing" textLength="143.7939" x="264.603" y="301.7803">&#9881;&#65039; Memory Operations</text></g><!--entity User--><g class="entity" data-qualified-name="Session.User" data-source-line="4" id="ent0002"><rect fill="#FFFFFF" height="34" rx="4" ry="4" style="stroke:#64748B;stroke-width:0.5;" width="118.8203" x="287.59" y="40"/><text fill="#0F172A" font-family="Helvetica" font-size="14" lengthAdjust="spacing" textLength="98.8203" x="297.59" y="60.7803">User Interaction</text></g><!--entity AI--><g class="entity" data-qualified-name="Session.AI" data-source-line="5" id="ent0003"><rect fill="#FFFFFF" height="34" rx="4" ry="4" style="stroke:#64748B;stroke-width:0.5;" width="146.0547" x="273.97" y="152"/><text fill="#0F172A" font-family="Helvetica" font-size="14" lengthAdjust="spacing" textLength="126.0547" x="283.97" y="172.7803">AI Assistant Context</text></g><!--entity MEMFile--><g class="entity" data-qualified-name="MemorySystem.SemanticLayer.MEMFile" data-source-line="9" id="ent0006"><rect fill="#FFFFFF" height="104" rx="4" ry="4" style="stroke:#64748B;stroke-width:0.5;" width="174" x="72" y="465"/><text fill="#0F172A" font-family="Helvetica" font-size="14" lengthAdjust="spacing" textLength="86.3379" x="115.8311" y="485.7803">MEMORY.md</text><text fill="#0F172A" font-family="Helvetica" font-size="14" lengthAdjust="spacing" textLength="154" x="82" y="499.7803">&#9473;&#9473;&#9473;&#9473;&#9473;&#9473;&#9473;&#9473;&#9473;&#9473;&#9473;</text><text fill="#0F172A" font-family="Helvetica" font-size="14" lengthAdjust="spacing" textLength="117.7217" x="100.1392" y="513.7803">&#8226; User Preferences</text><text fill="#0F172A" font-family="Helvetica" font-size="14" lengthAdjust="spacing" textLength="104.501" x="106.7495" y="527.7803">&#8226; Project Context</text><text fill="#0F172A" font-family="Helvetica" font-size="14" lengthAdjust="spacing" textLength="92.8389" x="112.5806" y="541.7803">&#8226; Relationships</text><text fill="#0F172A" font-family="Helvetica" font-size="14" lengthAdjust="spacing" textLength="110.7148" x="103.6426" y="555.7803">&#8226; Long-term Facts</text></g><!--entity HISTFile--><g class="entity" data-qualified-name="MemorySystem.EpisodicLayer.HISTFile" data-source-line="12" id="ent0008"><rect fill="#FFFFFF" height="90" rx="4" ry="4" style="stroke:#64748B;stroke-width:0.5;" width="185.9629" x="327.02" y="472"/><text fill="#0F172A" font-family="Helvetica" font-size="14" lengthAdjust="spacing" textLength="85.5654" x="377.2187" y="492.7803">HISTORY.md</text><text fill="#0F172A" font-family="Helvetica" font-size="14" lengthAdjust="spacing" textLength="154" x="343.0014" y="506.7803">&#9473;&#9473;&#9473;&#9473;&#9473;&#9473;&#9473;&#9473;&#9473;&#9473;&#9473;</text><text fill="#0F172A" font-family="Helvetica" font-size="14" lengthAdjust="spacing" textLength="140.2871" x="349.8579" y="520.7803">&#8226; Timestamped Events</text><text fill="#0F172A" font-family="Helvetica" font-size="14" lengthAdjust="spacing" textLength="165.9629" x="337.02" y="534.7803">&#8226; Conversation Summaries</text><text fill="#0F172A" font-family="Helvetica" font-size="14" lengthAdjust="spacing" textLength="158.1152" x="340.9438" y="548.7803">&#8226; [YYYY-MM-DD HH:MM]</text></g><!--entity AutoLoad--><g class="entity" data-qualified-name="MemorySystem.Operations.AutoLoad" data-source-line="15" id="ent0010"><rect fill="#FFFFFF" height="48" rx="4" ry="4" style="stroke:#64748B;stroke-width:0.5;" width="112.5859" x="202.71" y="322"/><text fill="#0F172A" font-family="Helvetica" font-size="14" lengthAdjust="spacing" textLength="64.6064" x="226.6997" y="342.7803">Auto-Load</text><text fill="#0F172A" font-family="Helvetica" font-size="14" lengthAdjust="spacing" textLength="92.5859" x="212.71" y="356.7803">(Session Start)</text></g><!--entity FactExtract--><g class="entity" data-qualified-name="MemorySystem.Operations.FactExtract" data-source-line="16" id="ent0011"><rect fill="#FFFFFF" height="48" rx="4" ry="4" style="stroke:#64748B;stroke-width:0.5;" width="113.3652" x="47.32" y="322"/><text fill="#0F172A" font-family="Helvetica" font-size="14" lengthAdjust="spacing" textLength="93.3652" x="57.32" y="342.7803">Fact Extraction</text><text fill="#0F172A" font-family="Helvetica" font-size="14" lengthAdjust="spacing" textLength="71.5723" x="68.2165" y="356.7803">(Automatic)</text></g><!--entity Consolidate--><g class="entity" data-qualified-name="MemorySystem.Operations.Consolidate" data-source-line="17" id="ent0012"><rect fill="#FFFFFF" height="48" rx="4" ry="4" style="stroke:#64748B;stroke-width:0.5;" width="121.1377" x="357.43" y="322"/><text fill="#0F172A" font-family="Helvetica" font-size="14" lengthAdjust="spacing" textLength="84.834" x="375.5819" y="342.7803">Consolidation</text><text fill="#0F172A" font-family="Helvetica" font-size="14" lengthAdjust="spacing" textLength="101.1377" x="367.43" y="356.7803">(Size-Triggered)</text></g><!--entity Search--><g class="entity" data-qualified-name="MemorySystem.Operations.Search" data-source-line="18" id="ent0013"><rect fill="#FFFFFF" height="48" rx="4" ry="4" style="stroke:#64748B;stroke-width:0.5;" width="105.5791" x="520.21" y="322"/><text fill="#0F172A" font-family="Helvetica" font-size="14" lengthAdjust="spacing" textLength="79.3721" x="533.3135" y="342.7803">Grep Search</text><text fill="#0F172A" font-family="Helvetica" font-size="14" lengthAdjust="spacing" textLength="85.5791" x="530.21" y="356.7803">(On-Demand)</text></g><!--link User to AI--><g class="link" data-entity-1="ent0002" data-entity-2="ent0003" data-link-type="dependency" data-source-line="21" id="lnk14"><path d="M347,74.23 C347,95.03 347,125.87 347,146.7" fill="none" id="User-to-AI" style="stroke:#64748B;stroke-width:1.1;"/><polygon fill="#64748B" points="347,151.7,351,142.7,347,146.7,343,142.7,347,151.7" style="stroke:#64748B;stroke-width:1.1;stroke-linejoin:miter;stroke-miterlimit:10;"/><text fill="#334155" font-family="Helvetica" font-size="12" lengthAdjust="spacing" textLength="70.7051" x="348" y="116.2402">Conversation</text></g><!--link AutoLoad to AI--><g class="link" data-entity-1="ent0010" data-entity-2="ent0003" data-link-type="dependency" data-source-line="22" id="lnk15"><path d="M264.69,321.71 C273.64,285.04 290,218 290,218 C290,218 307.3466,203.402 323.8766,189.472" fill="none" id="AutoLoad-to-AI" style="stroke:#64748B;stroke-width:1.1;"/><polygon fill="#64748B" points="327.7,186.25,318.2402,188.9909,323.8766,189.472,323.3955,195.1084,327.7,186.25" style="stroke:#64748B;stroke-width:1.1;stroke-linejoin:miter;stroke-miterlimit:10;"/><text fill="#334155" font-family="Helvetica" font-size="12" lengthAdjust="spacing" textLength="84.7266" x="291" y="228.2402">1. Load Context</text></g><!--link AI to FactExtract--><g class="link" data-entity-1="ent0003" data-entity-2="ent0011" data-link-type="dependency" data-source-line="23" id="lnk16"><path d="M288.29,186.38 C238.46,200.29 175,218 175,218 C175,218 139.9598,280.6757 119.4598,317.3457" fill="none" id="AI-to-FactExtract" style="stroke:#64748B;stroke-width:1.1;"/><polygon fill="#64748B" points="117.02,321.71,124.9031,315.8061,119.4598,317.3457,117.9202,311.9024,117.02,321.71" style="stroke:#64748B;stroke-width:1.1;stroke-linejoin:miter;stroke-miterlimit:10;"/><text fill="#334155" font-family="Helvetica" font-size="12" lengthAdjust="spacing" textLength="100.7109" x="176" y="228.2402">2. New Information</text></g><!--link AI to Search--><g class="link" data-entity-1="ent0003" data-entity-2="ent0013" data-link-type="dependency" data-source-line="24" id="lnk17"><path d="M370.65,186.29 C397.31,204.66 437,232 437,232 C437,232 500,240 500,240 C500,240 532.4359,286.6546 553.9459,317.5946" fill="none" id="AI-to-Search" style="stroke:#64748B;stroke-width:1.1;"/><polygon fill="#64748B" points="556.8,321.7,554.9469,312.0271,553.9459,317.5946,548.3783,316.5936,556.8,321.7" style="stroke:#64748B;stroke-width:1.1;stroke-linejoin:miter;stroke-miterlimit:10;"/><text fill="#334155" font-family="Helvetica" font-size="12" lengthAdjust="spacing" textLength="74.0332" x="438" y="228.2402">Search Query</text></g><!--link Search to AI--><g class="link" data-entity-1="ent0013" data-entity-2="ent0003" data-link-type="dependency" data-source-line="30" id="lnk23"><path d="M563.1,321.71 C547.51,285.04 519,218 519,218 C519,218 460.3559,201.6343 410.5259,187.7243" fill="none" id="Search-to-AI" style="stroke:#64748B;stroke-width:1.1;"/><polygon fill="#64748B" points="405.71,186.38,413.3031,192.6525,410.5259,187.7243,415.4541,184.9471,405.71,186.38" style="stroke:#64748B;stroke-width:1.1;stroke-linejoin:miter;stroke-miterlimit:10;"/><text fill="#334155" font-family="Helvetica" font-size="12" lengthAdjust="spacing" textLength="40.0137" x="525.62" y="228.2402">Results</text></g><!--link FactExtract to MEMFile--><g class="link" data-entity-1="ent0011" data-entity-2="ent0006" data-link-type="dependency" data-source-line="25" id="lnk18"><path d="M88.73,370.32 C78.92,385.32 68,402 68,402 C68,402 68,416 68,416 C68,416 86.5051,436.3317 108.8051,460.8417" fill="none" id="FactExtract-to-MEMFile" style="stroke:#64748B;stroke-width:1.1;"/><polygon fill="#64748B" points="112.17,464.54,109.0719,455.1911,108.8051,460.8417,103.1546,460.5749,112.17,464.54" style="stroke:#64748B;stroke-width:1.1;stroke-linejoin:miter;stroke-miterlimit:10;"/><text fill="#334155" font-family="Helvetica" font-size="12" lengthAdjust="spacing" textLength="70.0137" x="69" y="412.2402">Extract Facts</text></g><!--link FactExtract to HISTFile--><g class="link" data-entity-1="ent0011" data-entity-2="ent0008" data-link-type="dependency" data-source-line="26" id="lnk19"><path d="M143,370.5 C162.5,382.25 182,394 182,394 C182,394 264,424 264,424 C264,424 300.5434,445.5497 340.4334,469.0797" fill="none" id="FactExtract-to-HISTFile" style="stroke:#64748B;stroke-width:1.1;"/><polygon fill="#64748B" points="344.74,471.62,339.0204,463.6021,340.4334,469.0797,334.9559,470.4927,344.74,471.62" style="stroke:#64748B;stroke-width:1.1;stroke-linejoin:miter;stroke-miterlimit:10;"/><text fill="#334155" font-family="Helvetica" font-size="12" lengthAdjust="spacing" textLength="60.041" x="243.01" y="412.2402">Log Events</text></g><!--link Consolidate to HISTFile--><g class="link" data-entity-1="ent0012" data-entity-2="ent0008" data-link-type="dependency" data-source-line="27" id="lnk20"><path d="M416.73,370.32 C415.91,385.32 415,402 415,402 C415,402 415,416 415,416 C415,416 416.1895,439.8563 417.5295,466.5663" fill="none" id="Consolidate-to-HISTFile" style="stroke:#64748B;stroke-width:1.1;"/><polygon fill="#64748B" points="417.78,471.56,421.324,462.3709,417.5295,466.5663,413.3341,462.7717,417.78,471.56" style="stroke:#64748B;stroke-width:1.1;stroke-linejoin:miter;stroke-miterlimit:10;"/><text fill="#334155" font-family="Helvetica" font-size="12" lengthAdjust="spacing" textLength="104.6953" x="416" y="412.2402">Summarize &amp; Move</text></g><!--link Consolidate to MEMFile--><g class="link" data-entity-1="ent0012" data-entity-2="ent0006" data-link-type="dependency" data-source-line="28" id="lnk21"><path d="M381.95,370.32 C358.79,385.32 333,402 333,402 C333,402 287.8923,431.5499 241.7823,461.7599" fill="none" id="Consolidate-to-MEMFile" style="stroke:#64748B;stroke-width:1.1;"/><polygon fill="#64748B" points="237.6,464.5,247.3203,462.9136,241.7823,461.7599,242.936,456.2219,237.6,464.5" style="stroke:#64748B;stroke-width:1.1;stroke-linejoin:miter;stroke-miterlimit:10;"/><text fill="#334155" font-family="Helvetica" font-size="12" lengthAdjust="spacing" textLength="70.0137" x="334" y="412.2402">Extract Facts</text></g><!--link Search to HISTFile--><g class="link" data-entity-1="ent0013" data-entity-2="ent0008" data-link-type="dependency" data-source-line="29" id="lnk22"><path d="M557.43,370.36 C544.08,390.38 527,416 527,416 C527,416 499.783,441.436 471.203,468.146" fill="none" id="Search-to-HISTFile" style="stroke:#64748B;stroke-width:1.1;"/><polygon fill="#64748B" points="467.55,471.56,476.8566,468.3372,471.203,468.146,471.3942,462.4924,467.55,471.56" style="stroke:#64748B;stroke-width:1.1;stroke-linejoin:miter;stroke-miterlimit:10;"/><text fill="#334155" font-family="Helvetica" font-size="12" lengthAdjust="spacing" textLength="74.7012" x="536.8" y="412.2402">Pattern Match</text></g><?plantuml-src bLDDRzD04BtxLmmze79m93ZsW6IHb4IAIOZBeG8EYprnbdgzrkucROegKQbt3lG2GW9nuI_mU_e7u2Sm-s75IGiIKGxsp7kpyzu-t-DrNYqBX4R9EMhDPSsgs2nGO8ylHHKPsO2Hy4OQ8mKKN65k21GrB3zX9SBUxw_NLv1GSOMG-Gbxm7Jx3EyYIs5rMH7uXKO5ezgWOcwCGzfY5vIC826kfdS3JoIXpum39gFeedlmnqj8KKYr9fHeP8s4tq-gKxRMSRlH2Q-g1uxjeTbQ6nIqLMVEZs-qhQ3JUDuE7BCrgg33TrnbMqqwI2UpuvueNjKtrvV__XFa_NSd5QOAvwYmpb7xwbJ9jpIrrUgBCwoOjKWlU1DmOrcNCNadu93iqrxL83ta5UuOymK63TUok4jGsxb3q72K7VsdeYCka6vAD5Z0O4Kt47ObBIjKsac0R2a4KxpL-_AOVd6Qnlq-38S7QVhQBMPFtzLoy_dJhvyVMX6JXeBZJ764pUksZ6HfP3oMZ5Jijp7C35F61y6sRRTBiOR2uCo4N1BHeWHDppt90aA_ooEPMbQyO86LyNECZnGlIxhXmbCt6EnIdofiA5rCvGiYJkguRvCMEBvEJbn4BZDn_9ZY3mTRlaQjaatxOGzS8KGfegBjTROdqACUFCDJ-WxdKeamoUFyiGG93y-NgDPHbsrH8NC4QwikZxTmxOKIS2pB48-eOySkAkJa7E4-f7A5jx1_EpcikpDkoWnzBJMap92N7OopQePwMHdz1m00?></g></svg>