<svg xmlns="http://www.w3.org/2000/svg" xmlns:xlink="http://www.w3.org/1999/xlink" contentStyleType="text/css" data-diagram-type="DESCRIPTION" height="626px" preserveAspectRatio="none" style="width:1357px;height:626px;background:#FFFFFF;" version="1.1" viewBox="0 0 1357 626" width="1357px" zoomAndPan="magnify"><?plantuml 1.2026.5?><defs/><rect data-xfeat-white-canvas="true" fill="#FFFFFF" height="100%" width="100%" x="0" y="0"/><g><!--cluster External--><g class="cluster" data-qualified-name="External" data-source-line="3" id="ent0001"><rect fill="#FFFFFF" height="83" rx="4" ry="4" style="stroke:#CBD5E1;stroke-width:1;" width="443" x="248" y="205"/><text fill="#0F172A" font-family="Helvetica" font-size="14" font-weight="700" lengthAdjust="spacing" textLength="158.71" x="390.145" y="217.7803">External Chat Platforms</text></g><!--cluster BusComponent--><g class="cluster" data-qualified-name="BusComponent" data-source-line="9" id="ent0006"><rect fill="#FFFFFF" height="462" rx="4" ry="4" style="stroke:#CBD5E1;stroke-width:1;" width="628" x="715" y="150"/><text fill="#0F172A" font-family="Helvetica" font-size="14" font-weight="700" lengthAdjust="spacing" textLength="165.6416" x="946.1792" y="162.7803">nanobot/bus Component</text></g><!--cluster Events--><g class="cluster" data-qualified-name="BusComponent.Events" data-source-line="10" id="ent0007"><rect fill="#FFFFFF" height="97" rx="4" ry="4" style="stroke:#CBD5E1;stroke-width:1;" width="340" x="739" y="334"/><text fill="#0F172A" font-family="Helvetica" font-size="14" font-weight="700" lengthAdjust="spacing" textLength="64.5859" x="876.707" y="346.7803">events.py</text><text fill="#0F172A" font-family="Helvetica" font-size="14" font-weight="700" lengthAdjust="spacing" textLength="104.2549" x="856.8726" y="360.7803">Data Structures</text></g><!--cluster Queue--><g class="cluster" data-qualified-name="BusComponent.Queue" data-source-line="14" id="ent0010"><rect fill="#FFFFFF" height="111" rx="4" ry="4" style="stroke:#CBD5E1;stroke-width:1;" width="318" x="749" y="477"/><text fill="#0F172A" font-family="Helvetica" font-size="14" font-weight="700" lengthAdjust="spacing" textLength="61.4551" x="877.2725" y="489.7803">queue.py</text><text fill="#0F172A" font-family="Helvetica" font-size="14" font-weight="700" lengthAdjust="spacing" textLength="89.4824" x="863.2588" y="503.7803">Message Bus</text></g><!--cluster Init--><g class="cluster" data-qualified-name="BusComponent.Init" data-source-line="18" id="ent0013"><rect fill="#FFFFFF" height="97" rx="4" ry="4" style="stroke:#CBD5E1;stroke-width:1;" width="172" x="1024" y="191"/><text fill="#0F172A" font-family="Helvetica" font-size="14" font-weight="700" lengthAdjust="spacing" text-decoration="underline" textLength="20.9932" x="1089.3896" y="203.7803">init</text><text fill="#0F172A" font-family="Helvetica" font-size="14" font-weight="700" lengthAdjust="spacing" textLength="20.2275" x="1110.3828" y="203.7803">.py</text><text fill="#0F172A" font-family="Helvetica" font-size="14" font-weight="700" lengthAdjust="spacing" textLength="69.2344" x="1075.3828" y="217.7803">Public API</text></g><!--cluster Consumers--><g class="cluster" data-qualified-name="Consumers" data-source-line="22" id="ent0015"><rect fill="#FFFFFF" height="97" rx="4" ry="4" style="stroke:#CBD5E1;stroke-width:1;" width="380" x="7" y="7"/><text fill="#0F172A" font-family="Helvetica" font-size="14" font-weight="700" lengthAdjust="spacing" textLength="112.0479" x="140.9761" y="19.7803">Internal Systems</text></g><!--entity TG--><g class="entity" data-qualified-name="External.TG" data-source-line="4" id="ent0002"><rect fill="#FFFFFF" height="34" rx="4" ry="4" style="stroke:#64748B;stroke-width:0.5;" width="79.1309" x="486.43" y="238"/><text fill="#0F172A" font-family="Helvetica" font-size="14" lengthAdjust="spacing" textLength="59.1309" x="496.43" y="258.7803">Telegram</text></g><!--entity DC--><g class="entity" data-qualified-name="External.DC" data-source-line="5" id="ent0003"><rect fill="#FFFFFF" height="34" rx="4" ry="4" style="stroke:#64748B;stroke-width:0.5;" width="67.4551" x="607.27" y="238"/><text fill="#0F172A" font-family="Helvetica" font-size="14" lengthAdjust="spacing" textLength="47.4551" x="617.27" y="258.7803">Discord</text></g><!--entity SL--><g class="entity" data-qualified-name="External.SL" data-source-line="6" id="ent0004"><rect fill="#FFFFFF" height="34" rx="4" ry="4" style="stroke:#64748B;stroke-width:0.5;" width="54.2344" x="263.88" y="238"/><text fill="#0F172A" font-family="Helvetica" font-size="14" lengthAdjust="spacing" textLength="34.2344" x="273.88" y="258.7803">Slack</text></g><!--entity WA--><g class="entity" data-qualified-name="External.WA" data-source-line="7" id="ent0005"><rect fill="#FFFFFF" height="34" rx="4" ry="4" style="stroke:#64748B;stroke-width:0.5;" width="84.5859" x="359.71" y="238"/><text fill="#0F172A" font-family="Helvetica" font-size="14" lengthAdjust="spacing" textLength="64.5859" x="369.71" y="258.7803">WhatsApp</text></g><!--entity IM--><g class="entity" data-qualified-name="BusComponent.Events.IM" data-source-line="11" id="ent0008"><rect fill="#FFFFFF" height="34" rx="4" ry="4" style="stroke:#64748B;stroke-width:0.5;" width="127.4131" x="935.29" y="381"/><text fill="#0F172A" font-family="Helvetica" font-size="14" lengthAdjust="spacing" textLength="107.4131" x="945.29" y="401.7803">InboundMessage</text></g><!--entity OM--><g class="entity" data-qualified-name="BusComponent.Events.OM" data-source-line="12" id="ent0009"><rect fill="#FFFFFF" height="34" rx="4" ry="4" style="stroke:#64748B;stroke-width:0.5;" width="138.3027" x="754.85" y="381"/><text fill="#0F172A" font-family="Helvetica" font-size="14" lengthAdjust="spacing" textLength="118.3027" x="764.85" y="401.7803">OutboundMessage</text></g><!--entity IQ--><g class="entity" data-qualified-name="BusComponent.Queue.IQ" data-source-line="15" id="ent0011"><rect fill="#FFFFFF" height="48" rx="4" ry="4" style="stroke:#64748B;stroke-width:0.5;" width="116.5303" x="934.73" y="524"/><text fill="#0F172A" font-family="Helvetica" font-size="14" lengthAdjust="spacing" textLength="96.5303" x="944.73" y="544.7803">Inbound Queue</text><text fill="#0F172A" font-family="Helvetica" font-size="14" lengthAdjust="spacing" textLength="93.3926" x="946.2988" y="558.7803">asyncio.Queue</text></g><!--entity OQ--><g class="entity" data-qualified-name="BusComponent.Queue.OQ" data-source-line="16" id="ent0012"><rect fill="#FFFFFF" height="48" rx="4" ry="4" style="stroke:#64748B;stroke-width:0.5;" width="127.4199" x="765.29" y="524"/><text fill="#0F172A" font-family="Helvetica" font-size="14" lengthAdjust="spacing" textLength="107.4199" x="775.29" y="544.7803">Outbound Queue</text><text fill="#0F172A" font-family="Helvetica" font-size="14" lengthAdjust="spacing" textLength="93.3926" x="782.3037" y="558.7803">asyncio.Queue</text></g><!--entity API--><g class="entity" data-qualified-name="BusComponent.Init.API" data-source-line="19" id="ent0014"><rect fill="#FFFFFF" height="34" rx="4" ry="4" style="stroke:#64748B;stroke-width:0.5;" width="139.8271" x="1040.09" y="238"/><text fill="#0F172A" font-family="Helvetica" font-size="14" lengthAdjust="spacing" textLength="119.8271" x="1050.09" y="258.7803">MessageBus Class</text></g><!--entity AGENT--><g class="entity" data-qualified-name="Consumers.AGENT" data-source-line="23" id="ent0016"><rect fill="#FFFFFF" height="48" rx="4" ry="4" style="stroke:#64748B;stroke-width:0.5;" width="145.2754" x="23.36" y="40"/><text fill="#0F172A" font-family="Helvetica" font-size="14" lengthAdjust="spacing" textLength="70.8203" x="60.5875" y="60.7803">Agent Core</text><text fill="#0F172A" font-family="Helvetica" font-size="14" lengthAdjust="spacing" textLength="125.2754" x="33.36" y="74.7803">Message Consumer</text></g><!--entity HANDLERS--><g class="entity" data-qualified-name="Consumers.HANDLERS" data-source-line="24" id="ent0017"><rect fill="#FFFFFF" height="48" rx="4" ry="4" style="stroke:#64748B;stroke-width:0.5;" width="160.8477" x="210.58" y="40"/><text fill="#0F172A" font-family="Helvetica" font-size="14" lengthAdjust="spacing" textLength="112.0684" x="234.9696" y="60.7803">Channel Handlers</text><text fill="#0F172A" font-family="Helvetica" font-size="14" lengthAdjust="spacing" textLength="140.8477" x="220.58" y="74.7803">Response Dispatchers</text></g><!--link TG to IM--><g class="link" data-entity-1="ent0002" data-entity-2="ent0008" data-link-type="dependency" data-source-line="26" id="lnk18"><path d="M550.4,272.27 C567.02,283.34 586,296 586,296 C586,296 717,318 717,318 C717,318 914,326 914,326 C914,326 950.3423,356.355 975.4523,377.325" fill="none" id="TG-to-IM" style="stroke:#64748B;stroke-width:1.1;"/><polygon fill="#64748B" points="979.29,380.53,974.9461,371.6909,975.4523,377.325,969.8181,377.8312,979.29,380.53" style="stroke:#64748B;stroke-width:1.1;stroke-linejoin:miter;stroke-miterlimit:10;"/><text fill="#334155" font-family="Helvetica" font-size="12" lengthAdjust="spacing" textLength="76.0313" x="718" y="314.2402">Raw Message</text></g><!--link DC to IM--><g class="link" data-entity-1="ent0003" data-entity-2="ent0008" data-link-type="dependency" data-source-line="27" id="lnk19"><path d="M675.04,266.1 C734.27,283.67 850,318 850,318 C850,318 914,326 914,326 C914,326 950.3423,356.355 975.4523,377.325" fill="none" id="DC-to-IM" style="stroke:#64748B;stroke-width:1.1;"/><polygon fill="#64748B" points="979.29,380.53,974.9461,371.6909,975.4523,377.325,969.8181,377.8312,979.29,380.53" style="stroke:#64748B;stroke-width:1.1;stroke-linejoin:miter;stroke-miterlimit:10;"/><text fill="#334155" font-family="Helvetica" font-size="12" lengthAdjust="spacing" textLength="76.0313" x="851" y="314.2402">Raw Message</text></g><!--link SL to IM--><g class="link" data-entity-1="ent0004" data-entity-2="ent0008" data-link-type="dependency" data-source-line="28" id="lnk20"><path d="M310.52,272.27 C323.81,283.34 339,296 339,296 C339,296 409,318 409,318 C409,318 914,326 914,326 C914,326 950.3423,356.355 975.4523,377.325" fill="none" id="SL-to-IM" style="stroke:#64748B;stroke-width:1.1;"/><polygon fill="#64748B" points="979.29,380.53,974.9461,371.6909,975.4523,377.325,969.8181,377.8312,979.29,380.53" style="stroke:#64748B;stroke-width:1.1;stroke-linejoin:miter;stroke-miterlimit:10;"/><text fill="#334155" font-family="Helvetica" font-size="12" lengthAdjust="spacing" textLength="76.0313" x="410" y="314.2402">Raw Message</text></g><!--link WA to IM--><g class="link" data-entity-1="ent0005" data-entity-2="ent0008" data-link-type="dependency" data-source-line="29" id="lnk21"><path d="M427.62,272.27 C445.07,283.34 465,296 465,296 C465,296 548,318 548,318 C548,318 914,326 914,326 C914,326 950.3423,356.355 975.4523,377.325" fill="none" id="WA-to-IM" style="stroke:#64748B;stroke-width:1.1;"/><polygon fill="#64748B" points="979.29,380.53,974.9461,371.6909,975.4523,377.325,969.8181,377.8312,979.29,380.53" style="stroke:#64748B;stroke-width:1.1;stroke-linejoin:miter;stroke-miterlimit:10;"/><text fill="#334155" font-family="Helvetica" font-size="12" lengthAdjust="spacing" textLength="76.0313" x="549" y="314.2402">Raw Message</text></g><!--link IM to IQ--><g class="link" data-entity-1="ent0008" data-entity-2="ent0011" data-link-type="dependency" data-source-line="30" id="lnk22"><path d="M998.33,415.4 C997.27,441.75 995.3738,488.5742 994.1438,518.7242" fill="none" id="IM-to-IQ" style="stroke:#64748B;stroke-width:1.1;"/><polygon fill="#64748B" points="993.94,523.72,998.3035,514.8905,994.1438,518.7242,990.3102,514.5644,993.94,523.72" style="stroke:#64748B;stroke-width:1.1;stroke-linejoin:miter;stroke-miterlimit:10;"/><text fill="#334155" font-family="Helvetica" font-size="12" lengthAdjust="spacing" textLength="94.7051" x="997.89" y="457.2402">Normalized Event</text></g><!--link IQ to AGENT--><g class="link" data-entity-1="ent0011" data-entity-2="ent0016" data-link-type="dependency" data-source-line="31" id="lnk23"><path d="M969.3,523.6 C946.03,500.62 914,469 914,469 C914,469 816,461 816,461 C816,461 78,318 78,318 C78,318 78,304 78,304 C78,304 89.3344,153.4759 93.8644,93.3359" fill="none" id="IQ-to-AGENT" style="stroke:#64748B;stroke-width:1.1;"/><polygon fill="#64748B" points="94.24,88.35,89.5753,97.0241,93.8644,93.3359,97.5527,97.625,94.24,88.35" style="stroke:#64748B;stroke-width:1.1;stroke-linejoin:miter;stroke-miterlimit:10;"/><text fill="#334155" font-family="Helvetica" font-size="12" lengthAdjust="spacing" textLength="51.3574" x="79" y="314.2402">Consume</text></g><!--link AGENT to OM--><g class="link" data-entity-1="ent0016" data-entity-2="ent0009" data-link-type="dependency" data-source-line="32" id="lnk24"><path d="M100.16,88.42 C110.58,147.15 137,296 137,296 C137,296 148,318 148,318 C148,318 577.0438,368.1396 749.5538,388.2996" fill="none" id="AGENT-to-OM" style="stroke:#64748B;stroke-width:1.1;"/><polygon fill="#64748B" points="754.52,388.88,746.0451,383.8624,749.5538,388.2996,745.1165,391.8083,754.52,388.88" style="stroke:#64748B;stroke-width:1.1;stroke-linejoin:miter;stroke-miterlimit:10;"/><text fill="#334155" font-family="Helvetica" font-size="12" lengthAdjust="spacing" textLength="107.4023" x="138" y="258.2402">Generate Response</text></g><!--link OM to OQ--><g class="link" data-entity-1="ent0009" data-entity-2="ent0012" data-link-type="dependency" data-source-line="33" id="lnk25"><path d="M824.55,415.4 C825.44,441.75 827.0209,488.5729 828.0409,518.7229" fill="none" id="OM-to-OQ" style="stroke:#64748B;stroke-width:1.1;"/><polygon fill="#64748B" points="828.21,523.72,831.9034,514.5899,828.0409,518.7229,823.908,514.8604,828.21,523.72" style="stroke:#64748B;stroke-width:1.1;stroke-linejoin:miter;stroke-miterlimit:10;"/><text fill="#334155" font-family="Helvetica" font-size="12" lengthAdjust="spacing" textLength="93.3984" x="827.05" y="457.2402">Queue Response</text></g><!--link OQ to HANDLERS--><g class="link" data-entity-1="ent0012" data-entity-2="ent0017" data-link-type="dependency" data-source-line="34" id="lnk26"><path d="M774.68,523.61 C629.95,461.3 246,296 246,296 C246,296 246,142 246,142 C246,142 261.7164,115.0964 274.9764,92.4164" fill="none" id="OQ-to-HANDLERS" style="stroke:#64748B;stroke-width:1.1;"/><polygon fill="#64748B" points="277.5,88.1,269.5044,93.8506,274.9764,92.4164,276.4106,97.8884,277.5,88.1" style="stroke:#64748B;stroke-width:1.1;stroke-linejoin:miter;stroke-miterlimit:10;"/><text fill="#334155" font-family="Helvetica" font-size="12" lengthAdjust="spacing" textLength="46.6875" x="295.29" y="314.2402">Dispatch</text></g><!--link HANDLERS to TG--><g class="link" data-entity-1="ent0017" data-entity-2="ent0002" data-link-type="dependency" data-source-line="35" id="lnk27"><path d="M343.68,88.31 C394.89,110.97 465,142 465,142 C465,142 497.9982,202.5892 514.8682,233.5592" fill="none" id="HANDLERS-to-TG" style="stroke:#64748B;stroke-width:1.1;"/><polygon fill="#64748B" points="517.26,237.95,516.4675,228.1331,514.8682,233.5592,509.4421,231.9599,517.26,237.95" style="stroke:#64748B;stroke-width:1.1;stroke-linejoin:miter;stroke-miterlimit:10;"/><text fill="#334155" font-family="Helvetica" font-size="12" lengthAdjust="spacing" textLength="37.3418" x="447.9" y="130.2402">Deliver</text></g><!--link HANDLERS to DC--><g class="link" data-entity-1="ent0017" data-entity-2="ent0003" data-link-type="dependency" data-source-line="36" id="lnk28"><path d="M371.88,86.04 C459.52,108.84 587,142 587,142 C587,142 616.1587,202.476 631.0887,233.446" fill="none" id="HANDLERS-to-DC" style="stroke:#64748B;stroke-width:1.1;"/><polygon fill="#64748B" points="633.26,237.95,632.9549,228.1059,631.0887,233.446,625.7486,231.5799,633.26,237.95" style="stroke:#64748B;stroke-width:1.1;stroke-linejoin:miter;stroke-miterlimit:10;"/><text fill="#334155" font-family="Helvetica" font-size="12" lengthAdjust="spacing" textLength="37.3418" x="557.22" y="130.2402">Deliver</text></g><!--link HANDLERS to SL--><g class="link" data-entity-1="ent0017" data-entity-2="ent0004" data-link-type="dependency" data-source-line="37" id="lnk29"><path d="M291,88.18 C291,126.91 291,198.88 291,232.57" fill="none" id="HANDLERS-to-SL" style="stroke:#64748B;stroke-width:1.1;"/><polygon fill="#64748B" points="291,237.57,295,228.57,291,232.57,287,228.57,291,237.57" style="stroke:#64748B;stroke-width:1.1;stroke-linejoin:miter;stroke-miterlimit:10;"/><text fill="#334155" font-family="Helvetica" font-size="12" lengthAdjust="spacing" textLength="37.3418" x="292" y="130.2402">Deliver</text></g><!--link HANDLERS to WA--><g class="link" data-entity-1="ent0017" data-entity-2="ent0005" data-link-type="dependency" data-source-line="38" id="lnk30"><path d="M311.78,88.32 C325.14,103.32 340,120 340,120 C340,120 375.7399,197.2524 392.2999,233.0324" fill="none" id="HANDLERS-to-WA" style="stroke:#64748B;stroke-width:1.1;"/><polygon fill="#64748B" points="394.4,237.57,394.2498,227.7223,392.2999,233.0324,386.9897,231.0825,394.4,237.57" style="stroke:#64748B;stroke-width:1.1;stroke-linejoin:miter;stroke-miterlimit:10;"/><text fill="#334155" font-family="Helvetica" font-size="12" lengthAdjust="spacing" textLength="37.3418" x="347.45" y="130.2402">Deliver</text></g><!--link API to IQ--><g class="link" data-entity-1="ent0014" data-entity-2="ent0011" data-link-type="dependency" data-source-line="39" id="lnk31"><path d="M1132.03,272.24 C1160.1,292.91 1205,326 1205,326 C1205,326 1205,439 1205,439 C1205,439 1105.805,489.53 1043.455,521.3" fill="none" id="API-to-IQ" style="stroke:#64748B;stroke-width:1.1;stroke-dasharray:7,7;"/><polygon fill="#64748B" points="1039,523.57,1048.835,523.048,1043.455,521.3,1045.203,515.92,1039,523.57" style="stroke:#64748B;stroke-width:1.1;stroke-linejoin:miter;stroke-miterlimit:10;"/><text fill="#334155" font-family="Helvetica" font-size="12" lengthAdjust="spacing" textLength="46.0254" x="1206" y="401.2402">Exposes</text></g><!--link API to OQ--><g class="link" data-entity-1="ent0014" data-entity-2="ent0012" data-link-type="dependency" data-source-line="40" id="lnk32"><path d="M1114.4,272.25 C1118.17,286.18 1123,304 1123,304 C1123,304 1123,318 1123,318 C1123,318 1103,461 1103,461 C1103,461 914,469 914,469 C914,469 883.2238,497.2392 858.1838,520.2192" fill="none" id="API-to-OQ" style="stroke:#64748B;stroke-width:1.1;stroke-dasharray:7,7;"/><polygon fill="#64748B" points="854.5,523.6,863.8355,520.4617,858.1838,520.2192,858.4263,514.5676,854.5,523.6" style="stroke:#64748B;stroke-width:1.1;stroke-linejoin:miter;stroke-miterlimit:10;"/><text fill="#334155" font-family="Helvetica" font-size="12" lengthAdjust="spacing" textLength="46.0254" x="1122.87" y="401.2402">Exposes</text></g><!--link API to IM--><g class="link" data-entity-1="ent0014" data-entity-2="ent0008" data-link-type="dependency" data-source-line="41" id="lnk33"><path d="M1097.05,272.45 C1075.66,299.62 1036.2924,349.621 1014.9624,376.721" fill="none" id="API-to-IM" style="stroke:#64748B;stroke-width:1.1;stroke-dasharray:7,7;"/><polygon fill="#64748B" points="1011.87,380.65,1020.5796,376.0518,1014.9624,376.721,1014.2932,371.1039,1011.87,380.65" style="stroke:#64748B;stroke-width:1.1;stroke-linejoin:miter;stroke-miterlimit:10;"/><text fill="#334155" font-family="Helvetica" font-size="12" lengthAdjust="spacing" textLength="40.6816" x="1071.93" y="314.2402">Exports</text></g><!--link API to OM--><g class="link" data-entity-1="ent0014" data-entity-2="ent0009" data-link-type="dependency" data-source-line="42" id="lnk34"><path d="M1064.05,272.41 C1006.12,293.1 914,326 914,326 C914,326 875.386,356.4638 848.796,377.4338" fill="none" id="API-to-OM" style="stroke:#64748B;stroke-width:1.1;stroke-dasharray:7,7;"/><polygon fill="#64748B" points="844.87,380.53,854.4138,378.0976,848.796,377.4338,849.4598,371.816,844.87,380.53" style="stroke:#64748B;stroke-width:1.1;stroke-linejoin:miter;stroke-miterlimit:10;"/><text fill="#334155" font-family="Helvetica" font-size="12" lengthAdjust="spacing" textLength="40.6816" x="972.92" y="314.2402">Exports</text></g><?plantuml-src TLDDZzem4BtdLxXxXzvxg9HD48i410WI5oHaabcmwjXPV-mkhVhVExP3CDjmp7jlPjuRJxunKN5R0scLV0MjcHIKZymP6XWps_34o9OOIOxI6DcGcYce38gIbbQ_w0d8q-JJWC8Yafsf8IjEpQjKZNuYL9EU-vEuEYfE72ksmE6aQECbssbCvKnNKjMUoREOAJaEz7WvZ_4TJjLfstfgboP_Ryu45H9zVpzQJJBPj5A0C5xtR7KFeBU-0juHqEFsiXSvDPIKHjdAM0LT74_VXvc9exIYNk3ki8MNpHQneB3cFqMnY7s-MR3WXtOQvy_hreuPd1UelQ3w8Yecn_upJ5yFJN-iBzQnbyE12MOE1szdPO-SLIHTpK9dPExDT7wVtO8vrS4qoh5Zr7CckYieBzf0TngP5DeseBwiCpsv9ycaWjishjBGVJfPRkCAF3iXW9CNAcgE_VPY0ngVLWF1QsgfgSw8-jgNT9dF9viIpMsdP3JwYKz5Vf0D_I3Th2JFXl5oFeplqc4S0O-l4L_Y_q0v-mrrkA04KKVwACXt-PBmxPZ2jPk204KDa6kUf0XD2zSqdCQD2Ysl2L5m3P_qc1DWRgI0itTGzmmcVy1WzWSCfhyn-EvaFEuoJpvRgK7tO344-gqvK9b86O7_0000?></g></svg>