<svg xmlns="http://www.w3.org/2000/svg" xmlns:xlink="http://www.w3.org/1999/xlink" contentStyleType="text/css" data-diagram-type="SEQUENCE" height="931px" preserveAspectRatio="none" style="width:869px;height:931px;background:#FFFFFF;" version="1.1" viewBox="0 0 869 931" width="869px" zoomAndPan="magnify"><?plantuml 1.2026.5?><defs/><rect data-xfeat-white-canvas="true" fill="#FFFFFF" height="100%" width="100%" x="0" y="0"/><g><rect fill="#F8FAFC" height="120" rx="4" ry="4" style="stroke:#CBD5E1;stroke-width:1.5;" width="843.834" x="10" y="759"/><g class="participant-lifeline" data-entity-uid="part1" data-qualified-name="Python" data-source-line="2" id="part1-lifeline"><g><title>Python Backend</title><rect fill="#000000" fill-opacity="0.00000" height="862" width="8" x="73.979" y="34"/><line style="stroke:#94A3B8;stroke-width:0.5;stroke-dasharray:5,5;" x1="77" x2="77" y1="34" y2="896"/></g></g><g class="participant-lifeline" data-entity-uid="part2" data-qualified-name="Server" data-source-line="3" id="part2-lifeline"><g><title>server.ts</title><rect fill="#000000" fill-opacity="0.00000" height="862" width="8" x="291.3501" y="34"/><line style="stroke:#94A3B8;stroke-width:0.5;stroke-dasharray:5,5;" x1="294.5122" x2="294.5122" y1="34" y2="896"/></g></g><g class="participant-lifeline" data-entity-uid="part3" data-qualified-name="WA" data-source-line="4" id="part3-lifeline"><g><title>whatsapp.ts</title><rect fill="#000000" fill-opacity="0.00000" height="862" width="8" x="434.0728" y="34"/><line style="stroke:#94A3B8;stroke-width:0.5;stroke-dasharray:5,5;" x1="437.7178" x2="437.7178" y1="34" y2="896"/></g></g><g class="participant-lifeline" data-entity-uid="part4" data-qualified-name="WhatsApp" data-source-line="5" id="part4-lifeline"><g><title>WhatsApp Servers</title><rect fill="#000000" fill-opacity="0.00000" height="862" width="8" x="553.7827" y="34"/><line style="stroke:#94A3B8;stroke-width:0.5;stroke-dasharray:5,5;" x1="557.4277" x2="557.4277" y1="34" y2="896"/></g></g><g class="participant-lifeline" data-entity-uid="part5" data-qualified-name="User" data-source-line="6" id="part5-lifeline"><g><title>End User</title><rect fill="#000000" fill-opacity="0.00000" height="862" width="8" x="665.3169" y="34"/><line style="stroke:#94A3B8;stroke-width:0.5;stroke-dasharray:5,5;" x1="669.1377" x2="669.1377" y1="34" y2="896"/></g></g><g class="participant-lifeline" data-entity-uid="part6" data-qualified-name="Process" data-source-line="33" id="part6-lifeline"><g><title>SIGINT.SIGTERM</title><rect fill="#000000" fill-opacity="0.00000" height="862" width="8" x="775.665" y="34"/><line style="stroke:#94A3B8;stroke-width:0.5;stroke-dasharray:5,5;" x1="779.4961" x2="779.4961" y1="34" y2="896"/></g></g><g class="participant participant-head" data-entity-uid="part1" data-qualified-name="Python" data-source-line="2" id="part1-head"><rect fill="#F8FAFC" height="28" rx="4" ry="4" style="stroke:#475569;stroke-width:0.5;" width="115.958" x="20" y="5"/><text fill="#0F172A" font-family="Helvetica" font-size="14" lengthAdjust="spacing" textLength="101.958" x="27" y="22.7803">Python Backend</text></g><g class="participant participant-tail" data-entity-uid="part1" data-qualified-name="Python" data-source-line="2" id="part1-tail"><rect fill="#F8FAFC" height="28" rx="4" ry="4" style="stroke:#475569;stroke-width:0.5;" width="115.958" x="20" y="895"/><text fill="#0F172A" font-family="Helvetica" font-size="14" lengthAdjust="spacing" textLength="101.958" x="27" y="912.7803">Python Backend</text></g><g class="participant participant-head" data-entity-uid="part2" data-qualified-name="Server" data-source-line="3" id="part2-head"><rect fill="#F8FAFC" height="28" rx="4" ry="4" style="stroke:#475569;stroke-width:0.5;" width="67.6758" x="261.5122" y="5"/><text fill="#0F172A" font-family="Helvetica" font-size="14" lengthAdjust="spacing" textLength="53.6758" x="268.5122" y="22.7803">server.ts</text></g><g class="participant participant-tail" data-entity-uid="part2" data-qualified-name="Server" data-source-line="3" id="part2-tail"><rect fill="#F8FAFC" height="28" rx="4" ry="4" style="stroke:#475569;stroke-width:0.5;" width="67.6758" x="261.5122" y="895"/><text fill="#0F172A" font-family="Helvetica" font-size="14" lengthAdjust="spacing" textLength="53.6758" x="268.5122" y="912.7803">server.ts</text></g><g class="participant participant-head" data-entity-uid="part3" data-qualified-name="WA" data-source-line="4" id="part3-head"><rect fill="#F8FAFC" height="28" rx="4" ry="4" style="stroke:#475569;stroke-width:0.5;" width="88.71" x="393.7178" y="5"/><text fill="#0F172A" font-family="Helvetica" font-size="14" lengthAdjust="spacing" textLength="74.71" x="400.7178" y="22.7803">whatsapp.ts</text></g><g class="participant participant-tail" data-entity-uid="part3" data-qualified-name="WA" data-source-line="4" id="part3-tail"><rect fill="#F8FAFC" height="28" rx="4" ry="4" style="stroke:#475569;stroke-width:0.5;" width="88.71" x="393.7178" y="895"/><text fill="#0F172A" font-family="Helvetica" font-size="14" lengthAdjust="spacing" textLength="74.71" x="400.7178" y="912.7803">whatsapp.ts</text></g><g class="participant participant-head" data-entity-uid="part4" data-qualified-name="WhatsApp" data-source-line="5" id="part4-head"><rect fill="#F8FAFC" height="28" rx="4" ry="4" style="stroke:#475569;stroke-width:0.5;" width="130.71" x="492.4277" y="5"/><text fill="#0F172A" font-family="Helvetica" font-size="14" lengthAdjust="spacing" textLength="116.71" x="499.4277" y="22.7803">WhatsApp Servers</text></g><g class="participant participant-tail" data-entity-uid="part4" data-qualified-name="WhatsApp" data-source-line="5" id="part4-tail"><rect fill="#F8FAFC" height="28" rx="4" ry="4" style="stroke:#475569;stroke-width:0.5;" width="130.71" x="492.4277" y="895"/><text fill="#0F172A" font-family="Helvetica" font-size="14" lengthAdjust="spacing" textLength="116.71" x="499.4277" y="912.7803">WhatsApp Servers</text></g><g class="participant participant-head" data-entity-uid="part5" data-qualified-name="User" data-source-line="6" id="part5-head"><rect fill="#F8FAFC" height="28" rx="4" ry="4" style="stroke:#475569;stroke-width:0.5;" width="72.3584" x="633.1377" y="5"/><text fill="#0F172A" font-family="Helvetica" font-size="14" lengthAdjust="spacing" textLength="58.3584" x="640.1377" y="22.7803">End User</text></g><g class="participant participant-tail" data-entity-uid="part5" data-qualified-name="User" data-source-line="6" id="part5-tail"><rect fill="#F8FAFC" height="28" rx="4" ry="4" style="stroke:#475569;stroke-width:0.5;" width="72.3584" x="633.1377" y="895"/><text fill="#0F172A" font-family="Helvetica" font-size="14" lengthAdjust="spacing" textLength="58.3584" x="640.1377" y="912.7803">End User</text></g><g class="participant participant-head" data-entity-uid="part6" data-qualified-name="Process" data-source-line="33" id="part6-head"><rect fill="#F8FAFC" height="28" rx="4" ry="4" style="stroke:#475569;stroke-width:0.5;" width="128.3379" x="715.4961" y="5"/><text fill="#0F172A" font-family="Helvetica" font-size="14" lengthAdjust="spacing" textLength="114.3379" x="722.4961" y="22.7803">SIGINT/SIGTERM</text></g><g class="participant participant-tail" data-entity-uid="part6" data-qualified-name="Process" data-source-line="33" id="part6-tail"><rect fill="#F8FAFC" height="28" rx="4" ry="4" style="stroke:#475569;stroke-width:0.5;" width="128.3379" x="715.4961" y="895"/><text fill="#0F172A" font-family="Helvetica" font-size="14" lengthAdjust="spacing" textLength="114.3379" x="722.4961" y="912.7803">SIGINT/SIGTERM</text></g><path d="M33,53 L33,69 A4,4 0 0 0 37,73 L709,73 A4,4 0 0 0 713,69 L713,59 L703,49 L37,49 A4,4 0 0 0 33,53" fill="#FFF7ED" style="stroke:#FDBA74;stroke-width:0.5;"/><path d="M703,49 L703,57 A2,2 0 0 0 705,59 L713,59 L703,49" fill="#FFF7ED" style="stroke:#FDBA74;stroke-width:0.5;"/><text fill="#7C2D12" font-family="Helvetica" font-size="14" lengthAdjust="spacing" textLength="122.1787" x="312.1587" y="64.7803">Authentication Flow</text><g class="message" data-entity-1="part3" data-entity-2="part4" data-source-line="8" id="msg1"><line style="stroke:#64748B;stroke-width:1.1;" x1="555.7827" x2="545.7827" y1="96" y2="92"/><line style="stroke:#64748B;stroke-width:1.1;" x1="555.7827" x2="545.7827" y1="96" y2="100"/><line style="stroke:#64748B;stroke-width:1.1;" x1="438.0728" x2="556.7827" y1="96" y2="96"/><text fill="#334155" font-family="Helvetica" font-size="12" lengthAdjust="spacing" textLength="44.6953" x="475.5801" y="91.2402">Connect</text></g><g class="message" data-entity-1="part4" data-entity-2="part3" data-source-line="9" id="msg2"><line style="stroke:#64748B;stroke-width:1.1;" x1="439.0728" x2="449.0728" y1="122" y2="118"/><line style="stroke:#64748B;stroke-width:1.1;" x1="439.0728" x2="449.0728" y1="122" y2="126"/><line style="stroke:#64748B;stroke-width:1.1;stroke-dasharray:2,2;" x1="438.0728" x2="556.7827" y1="122" y2="122"/><text fill="#334155" font-family="Helvetica" font-size="12" lengthAdjust="spacing" textLength="66.0293" x="464.9131" y="117.2402">Request QR</text></g><g class="message" data-entity-1="part3" data-entity-2="part2" data-source-line="10" id="msg3"><line style="stroke:#64748B;stroke-width:1.1;" x1="296.3501" x2="306.3501" y1="148" y2="144"/><line style="stroke:#64748B;stroke-width:1.1;" x1="296.3501" x2="306.3501" y1="148" y2="152"/><line style="stroke:#64748B;stroke-width:1.1;" x1="295.3501" x2="437.0728" y1="148" y2="148"/><text fill="#334155" font-family="Helvetica" font-size="12" lengthAdjust="spacing" textLength="64.6875" x="334.3677" y="143.2402">QR callback</text></g><g class="message" data-entity-1="part2" data-entity-2="part1" data-source-line="11" id="msg4"><line style="stroke:#64748B;stroke-width:1.1;" x1="78.979" x2="88.979" y1="174" y2="170"/><line style="stroke:#64748B;stroke-width:1.1;" x1="78.979" x2="88.979" y1="174" y2="178"/><line style="stroke:#64748B;stroke-width:1.1;" x1="77.979" x2="294.3501" y1="174" y2="174"/><text fill="#334155" font-family="Helvetica" font-size="12" lengthAdjust="spacing" textLength="140.0039" x="116.6626" y="169.2402">Broadcast {type: 'qr', data}</text></g><g class="message" data-entity-1="part1" data-entity-2="part5" data-source-line="12" id="msg5"><line style="stroke:#64748B;stroke-width:1.1;" x1="667.3169" x2="657.3169" y1="200" y2="196"/><line style="stroke:#64748B;stroke-width:1.1;" x1="667.3169" x2="657.3169" y1="200" y2="204"/><line style="stroke:#64748B;stroke-width:1.1;" x1="77.979" x2="668.3169" y1="200" y2="200"/><text fill="#334155" font-family="Helvetica" font-size="12" lengthAdjust="spacing" textLength="90.0352" x="328.6304" y="195.2402">Display QR code</text></g><g class="message" data-entity-1="part5" data-entity-2="part4" data-source-line="13" id="msg6"><line style="stroke:#64748B;stroke-width:1.1;" x1="558.7827" x2="568.7827" y1="226" y2="222"/><line style="stroke:#64748B;stroke-width:1.1;" x1="558.7827" x2="568.7827" y1="226" y2="230"/><line style="stroke:#64748B;stroke-width:1.1;" x1="557.7827" x2="668.3169" y1="226" y2="226"/><text fill="#334155" font-family="Helvetica" font-size="12" lengthAdjust="spacing" textLength="48.6855" x="589.207" y="221.2402">Scan QR</text></g><g class="message" data-entity-1="part4" data-entity-2="part3" data-source-line="14" id="msg7"><line style="stroke:#64748B;stroke-width:1.1;" x1="439.0728" x2="449.0728" y1="252" y2="248"/><line style="stroke:#64748B;stroke-width:1.1;" x1="439.0728" x2="449.0728" y1="252" y2="256"/><line style="stroke:#64748B;stroke-width:1.1;stroke-dasharray:2,2;" x1="438.0728" x2="556.7827" y1="252" y2="252"/><text fill="#334155" font-family="Helvetica" font-size="12" lengthAdjust="spacing" textLength="73.3887" x="461.2334" y="247.2402">Authenticated</text></g><g class="message" data-entity-1="part3" data-entity-2="part2" data-source-line="15" id="msg8"><line style="stroke:#64748B;stroke-width:1.1;" x1="296.3501" x2="306.3501" y1="278" y2="274"/><line style="stroke:#64748B;stroke-width:1.1;" x1="296.3501" x2="306.3501" y1="278" y2="282"/><line style="stroke:#64748B;stroke-width:1.1;" x1="295.3501" x2="437.0728" y1="278" y2="278"/><text fill="#334155" font-family="Helvetica" font-size="12" lengthAdjust="spacing" textLength="80.707" x="326.3579" y="273.2402">Status callback</text></g><g class="message" data-entity-1="part2" data-entity-2="part1" data-source-line="16" id="msg9"><line style="stroke:#64748B;stroke-width:1.1;" x1="78.979" x2="88.979" y1="304" y2="300"/><line style="stroke:#64748B;stroke-width:1.1;" x1="78.979" x2="88.979" y1="304" y2="308"/><line style="stroke:#64748B;stroke-width:1.1;" x1="77.979" x2="294.3501" y1="304" y2="304"/><text fill="#334155" font-family="Helvetica" font-size="12" lengthAdjust="spacing" textLength="193.3711" x="89.979" y="299.2402">Broadcast {type: 'status', connected}</text></g><path d="M33,321 L33,337 A4,4 0 0 0 37,341 L709,341 A4,4 0 0 0 713,337 L713,327 L703,317 L37,317 A4,4 0 0 0 33,321" fill="#FFF7ED" style="stroke:#FDBA74;stroke-width:0.5;"/><path d="M703,317 L703,325 A2,2 0 0 0 705,327 L713,327 L703,317" fill="#FFF7ED" style="stroke:#FDBA74;stroke-width:0.5;"/><text fill="#7C2D12" font-family="Helvetica" font-size="14" lengthAdjust="spacing" textLength="144.751" x="300.8726" y="332.7803">Inbound Message Flow</text><g class="message" data-entity-1="part5" data-entity-2="part4" data-source-line="18" id="msg10"><line style="stroke:#64748B;stroke-width:1.1;" x1="558.7827" x2="568.7827" y1="364" y2="360"/><line style="stroke:#64748B;stroke-width:1.1;" x1="558.7827" x2="568.7827" y1="364" y2="368"/><line style="stroke:#64748B;stroke-width:1.1;" x1="557.7827" x2="668.3169" y1="364" y2="364"/><text fill="#334155" font-family="Helvetica" font-size="12" lengthAdjust="spacing" textLength="80.0508" x="573.5244" y="359.2402">Send message</text></g><g class="message" data-entity-1="part4" data-entity-2="part3" data-source-line="19" id="msg11"><line style="stroke:#64748B;stroke-width:1.1;" x1="439.0728" x2="449.0728" y1="390" y2="386"/><line style="stroke:#64748B;stroke-width:1.1;" x1="439.0728" x2="449.0728" y1="390" y2="394"/><line style="stroke:#64748B;stroke-width:1.1;stroke-dasharray:2,2;" x1="438.0728" x2="556.7827" y1="390" y2="390"/><text fill="#334155" font-family="Helvetica" font-size="12" lengthAdjust="spacing" textLength="81.3809" x="457.2373" y="385.2402">Message event</text></g><g class="message" data-entity-1="part3" data-entity-2="part3" data-source-line="20" id="msg12"><line style="stroke:#64748B;stroke-width:1.1;" x1="438.0728" x2="480.0728" y1="416" y2="416"/><line style="stroke:#64748B;stroke-width:1.1;" x1="480.0728" x2="480.0728" y1="416" y2="429"/><line style="stroke:#64748B;stroke-width:1.1;" x1="438.0728" x2="480.0728" y1="429" y2="429"/><line style="stroke:#64748B;stroke-width:1.1;" x1="439.0728" x2="449.0728" y1="429" y2="425"/><line style="stroke:#64748B;stroke-width:1.1;" x1="439.0728" x2="449.0728" y1="429" y2="433"/><text fill="#334155" font-family="Helvetica" font-size="12" lengthAdjust="spacing" textLength="80.0391" x="445.0728" y="411.2402">Extract content</text></g><g class="message" data-entity-1="part3" data-entity-2="part2" data-source-line="21" id="msg13"><line style="stroke:#64748B;stroke-width:1.1;" x1="296.3501" x2="306.3501" y1="455" y2="451"/><line style="stroke:#64748B;stroke-width:1.1;" x1="296.3501" x2="306.3501" y1="455" y2="459"/><line style="stroke:#64748B;stroke-width:1.1;" x1="295.3501" x2="437.0728" y1="455" y2="455"/><text fill="#334155" font-family="Helvetica" font-size="12" lengthAdjust="spacing" textLength="108.7266" x="312.3481" y="450.2402">onMessage callback</text></g><g class="message" data-entity-1="part2" data-entity-2="part1" data-source-line="22" id="msg14"><line style="stroke:#64748B;stroke-width:1.1;" x1="78.979" x2="88.979" y1="481" y2="477"/><line style="stroke:#64748B;stroke-width:1.1;" x1="78.979" x2="88.979" y1="481" y2="485"/><line style="stroke:#64748B;stroke-width:1.1;" x1="77.979" x2="294.3501" y1="481" y2="481"/><text fill="#334155" font-family="Helvetica" font-size="12" lengthAdjust="spacing" textLength="164.6719" x="104.3286" y="476.2402">Broadcast {type: 'message', ...}</text></g><path d="M33,498 L33,514 A4,4 0 0 0 37,518 L709,518 A4,4 0 0 0 713,514 L713,504 L703,494 L37,494 A4,4 0 0 0 33,498" fill="#FFF7ED" style="stroke:#FDBA74;stroke-width:0.5;"/><path d="M703,494 L703,502 A2,2 0 0 0 705,504 L713,504 L703,494" fill="#FFF7ED" style="stroke:#FDBA74;stroke-width:0.5;"/><text fill="#7C2D12" font-family="Helvetica" font-size="14" lengthAdjust="spacing" textLength="155.6406" x="295.4277" y="509.7803">Outbound Message Flow</text><g class="message" data-entity-1="part1" data-entity-2="part2" data-source-line="24" id="msg15"><line style="stroke:#64748B;stroke-width:1.1;" x1="293.3501" x2="283.3501" y1="541" y2="537"/><line style="stroke:#64748B;stroke-width:1.1;" x1="293.3501" x2="283.3501" y1="541" y2="545"/><line style="stroke:#64748B;stroke-width:1.1;" x1="77.979" x2="294.3501" y1="541" y2="541"/><text fill="#334155" font-family="Helvetica" font-size="12" lengthAdjust="spacing" textLength="110.6543" x="131.3374" y="536.2402">{type: 'send', to, text}</text></g><g class="message" data-entity-1="part2" data-entity-2="part2" data-source-line="25" id="msg16"><line style="stroke:#64748B;stroke-width:1.1;" x1="295.3501" x2="337.3501" y1="567" y2="567"/><line style="stroke:#64748B;stroke-width:1.1;" x1="337.3501" x2="337.3501" y1="567" y2="580"/><line style="stroke:#64748B;stroke-width:1.1;" x1="295.3501" x2="337.3501" y1="580" y2="580"/><line style="stroke:#64748B;stroke-width:1.1;" x1="296.3501" x2="306.3501" y1="580" y2="576"/><line style="stroke:#64748B;stroke-width:1.1;" x1="296.3501" x2="306.3501" y1="580" y2="584"/><text fill="#334155" font-family="Helvetica" font-size="12" lengthAdjust="spacing" textLength="85.3887" x="302.3501" y="562.2402">Validate &amp; route</text></g><g class="message" data-entity-1="part2" data-entity-2="part3" data-source-line="26" id="msg17"><line style="stroke:#64748B;stroke-width:1.1;" x1="436.0728" x2="426.0728" y1="606" y2="602"/><line style="stroke:#64748B;stroke-width:1.1;" x1="436.0728" x2="426.0728" y1="606" y2="610"/><line style="stroke:#64748B;stroke-width:1.1;" x1="295.3501" x2="437.0728" y1="606" y2="606"/><text fill="#334155" font-family="Helvetica" font-size="12" lengthAdjust="spacing" textLength="118.7227" x="307.3501" y="601.2402">sendMessage(to, text)</text></g><g class="message" data-entity-1="part3" data-entity-2="part4" data-source-line="27" id="msg18"><line style="stroke:#64748B;stroke-width:1.1;" x1="555.7827" x2="545.7827" y1="632" y2="628"/><line style="stroke:#64748B;stroke-width:1.1;" x1="555.7827" x2="545.7827" y1="632" y2="636"/><line style="stroke:#64748B;stroke-width:1.1;" x1="438.0728" x2="556.7827" y1="632" y2="632"/><text fill="#334155" font-family="Helvetica" font-size="12" lengthAdjust="spacing" textLength="84.7148" x="455.5703" y="627.2402">Send via socket</text></g><g class="message" data-entity-1="part4" data-entity-2="part3" data-source-line="28" id="msg19"><line style="stroke:#64748B;stroke-width:1.1;" x1="439.0728" x2="449.0728" y1="658" y2="654"/><line style="stroke:#64748B;stroke-width:1.1;" x1="439.0728" x2="449.0728" y1="658" y2="662"/><line style="stroke:#64748B;stroke-width:1.1;stroke-dasharray:2,2;" x1="438.0728" x2="556.7827" y1="658" y2="658"/><text fill="#334155" font-family="Helvetica" font-size="12" lengthAdjust="spacing" textLength="86.0156" x="454.9199" y="653.2402">Delivery confirm</text></g><g class="message" data-entity-1="part3" data-entity-2="part2" data-source-line="29" id="msg20"><line style="stroke:#64748B;stroke-width:1.1;" x1="296.3501" x2="306.3501" y1="684" y2="680"/><line style="stroke:#64748B;stroke-width:1.1;" x1="296.3501" x2="306.3501" y1="684" y2="688"/><line style="stroke:#64748B;stroke-width:1.1;stroke-dasharray:2,2;" x1="295.3501" x2="437.0728" y1="684" y2="684"/><text fill="#334155" font-family="Helvetica" font-size="12" lengthAdjust="spacing" textLength="45.3516" x="344.0356" y="679.2402">Success</text></g><g class="message" data-entity-1="part2" data-entity-2="part1" data-source-line="30" id="msg21"><line style="stroke:#64748B;stroke-width:1.1;" x1="78.979" x2="88.979" y1="710" y2="706"/><line style="stroke:#64748B;stroke-width:1.1;" x1="78.979" x2="88.979" y1="710" y2="714"/><line style="stroke:#64748B;stroke-width:1.1;" x1="77.979" x2="294.3501" y1="710" y2="710"/><text fill="#334155" font-family="Helvetica" font-size="12" lengthAdjust="spacing" textLength="80.6367" x="146.3462" y="705.2402">{type: 'sent', id}</text></g><path d="M33,727 L33,743 A4,4 0 0 0 37,747 L709,747 A4,4 0 0 0 713,743 L713,733 L703,723 L37,723 A4,4 0 0 0 33,727" fill="#FFF7ED" style="stroke:#FDBA74;stroke-width:0.5;"/><path d="M703,723 L703,731 A2,2 0 0 0 705,733 L713,733 L703,723" fill="#FFF7ED" style="stroke:#FDBA74;stroke-width:0.5;"/><text fill="#7C2D12" font-family="Helvetica" font-size="14" lengthAdjust="spacing" textLength="119.0684" x="313.7139" y="738.7803">Graceful Shutdown</text><path d="M14,759 L194.2891,759 L194.2891,765 L184.2891,775 L10,775 L10,763 A4,4 0 0 1 14,759" fill="#F8FAFC" style="stroke:#CBD5E1;stroke-width:1.5;"/><rect fill="none" height="120" rx="4" ry="4" style="stroke:#CBD5E1;stroke-width:1.5;" width="843.834" x="10" y="759"/><text fill="#0F172A" font-family="Helvetica" font-size="14" font-weight="700" lengthAdjust="spacing" textLength="139.2891" x="25" y="770.7803">Phase rgb(60, 60, 60)</text><g class="message" data-entity-1="part6" data-entity-2="part2" data-source-line="34" id="msg22"><line style="stroke:#64748B;stroke-width:1.1;" x1="296.3501" x2="306.3501" y1="793" y2="789"/><line style="stroke:#64748B;stroke-width:1.1;" x1="296.3501" x2="306.3501" y1="793" y2="797"/><line style="stroke:#64748B;stroke-width:1.1;" x1="295.3501" x2="778.665" y1="793" y2="793"/><text fill="#334155" font-family="Helvetica" font-size="12" lengthAdjust="spacing" textLength="82.0488" x="496.4832" y="788.2402">Signal received</text></g><g class="message" data-entity-1="part2" data-entity-2="part1" data-source-line="35" id="msg23"><line style="stroke:#64748B;stroke-width:1.1;" x1="78.979" x2="88.979" y1="819" y2="815"/><line style="stroke:#64748B;stroke-width:1.1;" x1="78.979" x2="88.979" y1="819" y2="823"/><line style="stroke:#64748B;stroke-width:1.1;" x1="77.979" x2="294.3501" y1="819" y2="819"/><text fill="#334155" font-family="Helvetica" font-size="12" lengthAdjust="spacing" textLength="98.0566" x="137.6362" y="814.2402">Close connections</text></g><g class="message" data-entity-1="part2" data-entity-2="part3" data-source-line="36" id="msg24"><line style="stroke:#64748B;stroke-width:1.1;" x1="436.0728" x2="426.0728" y1="845" y2="841"/><line style="stroke:#64748B;stroke-width:1.1;" x1="436.0728" x2="426.0728" y1="845" y2="849"/><line style="stroke:#64748B;stroke-width:1.1;" x1="295.3501" x2="437.0728" y1="845" y2="845"/><text fill="#334155" font-family="Helvetica" font-size="12" lengthAdjust="spacing" textLength="65.3613" x="334.0308" y="840.2402">disconnect()</text></g><g class="message" data-entity-1="part3" data-entity-2="part4" data-source-line="37" id="msg25"><line style="stroke:#64748B;stroke-width:1.1;" x1="555.7827" x2="545.7827" y1="871" y2="867"/><line style="stroke:#64748B;stroke-width:1.1;" x1="555.7827" x2="545.7827" y1="871" y2="875"/><line style="stroke:#64748B;stroke-width:1.1;" x1="438.0728" x2="556.7827" y1="871" y2="871"/><text fill="#334155" font-family="Helvetica" font-size="12" lengthAdjust="spacing" textLength="68.6953" x="463.5801" y="866.2402">Close socket</text></g><?plantuml-src bLJ1RXen4BttAwOvD5G2sbCFUuX44XfnI9f2Kix67i2giJVsB0HL_7jdxLrOiYHHa5QmdZVZzzuCyrbRQGg5a7itnn2qiyBqQ8ahxEjYPJu1VtBXIKkT2qjmTh-bfRDmAUHVjEeCH81qr8O6z6lqVGeHDOblRTHcAIY8FAznqq4RCoqnWpolYbJ0wh0D7re5ZtnxX9K_8kJE4OBZz8fmjun01eE2zLhE5iJouQTncuYV3deN5_Kb6LmvQr5I2bMdlH8no62CJmK6Wj_ZGsQYcl4PI67CZ0sBmNJEWCGYWqllX9A2q__HDiSCpf_yUHUK8B6B6Gd86INX3Avro8tOni9EOOIKaIEs4odidiuBjWt1gDg49oIe21yc7M8Q4vV9A5IxDsqVsPahk56tF7PYWGVVsrfuq62LO2S5rILmpR8QlUFGy9cya5IIegDWhTRPElkZWYj6hBZVxx-jzLT1huZTzxRcixUJHNDfSlpWC-sEMTNeFy9e7XI4B-1TGNYCAWqewrItTkfYNq_DTtHvhGK4nt_jqtD-ZKPpwMrfvrpxLLsdEJs5b7pTQHCRueZ5wNT6v8PRX_F2m6HPa7ARj6CMh3I7-wK827unw_puteNq95sjTJ0PtOpk7hxnryDmV9jMbdTxbh4DwRsfGozu5O97YInPxP4jJLV6CP5gw7c1X3Qqj4xfK64w1velLqmirV2VM_8V?></g></svg>