<svg xmlns="http://www.w3.org/2000/svg" xmlns:xlink="http://www.w3.org/1999/xlink" contentStyleType="text/css" data-diagram-type="DESCRIPTION" height="791px" preserveAspectRatio="none" style="width:2303px;height:791px;background:#FFFFFF;" version="1.1" viewBox="0 0 2303 791" width="2303px" zoomAndPan="magnify"><?plantuml 1.2026.5?><defs/><rect data-xfeat-white-canvas="true" fill="#FFFFFF" height="100%" width="100%" x="0" y="0"/><g><!--cluster NB--><g class="cluster" data-qualified-name="NB" data-source-line="3" id="ent0001"><rect fill="#FFFFFF" height="83" rx="4" ry="4" style="stroke:#CBD5E1;stroke-width:1;" width="170" x="77" y="7"/><text fill="#0F172A" font-family="Helvetica" font-size="14" font-weight="700" lengthAdjust="spacing" textLength="90.9932" x="116.5034" y="19.7803">nanobot Core</text></g><!--cluster SS--><g class="cluster" data-qualified-name="SS" data-source-line="6" id="ent0003"><rect fill="#FFFFFF" height="641" rx="4" ry="4" style="stroke:#CBD5E1;stroke-width:1;" width="1425" x="7" y="136"/><text fill="#0F172A" font-family="Helvetica" font-size="14" font-weight="700" lengthAdjust="spacing" textLength="175.7793" x="631.6104" y="148.7803">nanobot/skills Component</text></g><!--cluster Core--><g class="cluster" data-qualified-name="SS.Core" data-source-line="7" id="ent0004"><rect fill="#FFFFFF" height="394" rx="4" ry="4" style="stroke:#CBD5E1;stroke-width:1;" width="204" x="31" y="177"/><text fill="#0F172A" font-family="Helvetica" font-size="14" font-weight="700" lengthAdjust="spacing" textLength="118.2754" x="73.8623" y="189.7803">Skill System Core</text></g><!--cluster BuiltIn--><g class="cluster" data-qualified-name="SS.BuiltIn" data-source-line="12" id="ent0008"><rect fill="#FFFFFF" height="113" rx="4" ry="4" style="stroke:#CBD5E1;stroke-width:1;" width="1133" x="267" y="314"/><text fill="#0F172A" font-family="Helvetica" font-size="14" font-weight="700" lengthAdjust="spacing" textLength="88.6758" x="789.1621" y="326.7803">Built-in Skills</text></g><!--cluster Schema--><g class="cluster" data-qualified-name="SS.Schema" data-source-line="20" id="ent0015"><rect fill="#FFFFFF" height="113" rx="4" ry="4" style="stroke:#CBD5E1;stroke-width:1;" width="466" x="39" y="632"/><text fill="#0F172A" font-family="Helvetica" font-size="14" font-weight="700" lengthAdjust="spacing" textLength="86.3789" x="228.8105" y="644.7803">Skill Schema</text></g><!--cluster External--><g class="cluster" data-qualified-name="External" data-source-line="25" id="ent0018"><rect fill="#FFFFFF" height="97" rx="4" ry="4" style="stroke:#CBD5E1;stroke-width:1;" width="833" x="1456" y="481"/><text fill="#0F172A" font-family="Helvetica" font-size="14" font-weight="700" lengthAdjust="spacing" textLength="116.7305" x="1814.1348" y="493.7803">External Systems</text></g><!--entity Agent--><g class="entity" data-qualified-name="NB.Agent" data-source-line="4" id="ent0002"><rect fill="#FFFFFF" height="34" rx="4" ry="4" style="stroke:#64748B;stroke-width:0.5;" width="138.2754" x="92.86" y="40"/><text fill="#0F172A" font-family="Helvetica" font-size="14" lengthAdjust="spacing" textLength="118.2754" x="102.86" y="60.7803">Agent Orchestrator</text></g><!--entity SD--><g class="entity" data-qualified-name="SS.Core.SD" data-source-line="8" id="ent0005"><rect fill="#FFFFFF" height="34" rx="4" ry="4" style="stroke:#64748B;stroke-width:0.5;" width="112.5654" x="106.72" y="521"/><text fill="#0F172A" font-family="Helvetica" font-size="14" lengthAdjust="spacing" textLength="92.5654" x="116.72" y="541.7803">Skills Directory</text></g><!--entity Parser--><g class="entity" data-qualified-name="SS.Core.Parser" data-source-line="9" id="ent0006"><rect fill="#FFFFFF" height="34" rx="4" ry="4" style="stroke:#64748B;stroke-width:0.5;" width="171.7168" x="47.14" y="362"/><text fill="#0F172A" font-family="Helvetica" font-size="14" lengthAdjust="spacing" textLength="151.7168" x="57.14" y="382.7803">YAML/Markdown Parser</text></g><!--entity Loader--><g class="entity" data-qualified-name="SS.Core.Loader" data-source-line="10" id="ent0007"><rect fill="#FFFFFF" height="34" rx="4" ry="4" style="stroke:#64748B;stroke-width:0.5;" width="93.1514" x="115.42" y="210"/><text fill="#0F172A" font-family="Helvetica" font-size="14" lengthAdjust="spacing" textLength="73.1514" x="125.42" y="230.7803">Skill Loader</text></g><!--entity GH--><g class="entity" data-qualified-name="SS.BuiltIn.GH" data-source-line="13" id="ent0009"><rect fill="#FFFFFF" height="48" rx="4" ry="4" style="stroke:#64748B;stroke-width:0.5;" width="104.8408" x="477.58" y="355"/><text fill="#0F172A" font-family="Helvetica" font-size="14" lengthAdjust="spacing" textLength="69.248" x="495.3764" y="375.7803">GitHub CLI</text><text fill="#0F172A" font-family="Helvetica" font-size="14" lengthAdjust="spacing" textLength="84.8408" x="487.58" y="389.7803">gh integration</text></g><!--entity WX--><g class="entity" data-qualified-name="SS.BuiltIn.WX" data-source-line="14" id="ent0010"><rect fill="#FFFFFF" height="48" rx="4" ry="4" style="stroke:#64748B;stroke-width:0.5;" width="146.8271" x="624.59" y="355"/><text fill="#0F172A" font-family="Helvetica" font-size="14" lengthAdjust="spacing" textLength="52.9102" x="671.5485" y="375.7803">Weather</text><text fill="#0F172A" font-family="Helvetica" font-size="14" lengthAdjust="spacing" textLength="126.8271" x="634.59" y="389.7803">wttr.in / Open-Meteo</text></g><!--entity SUM--><g class="entity" data-qualified-name="SS.BuiltIn.SUM" data-source-line="15" id="ent0011"><rect fill="#FFFFFF" height="48" rx="4" ry="4" style="stroke:#64748B;stroke-width:0.5;" width="164.7236" x="813.64" y="355"/><text fill="#0F172A" font-family="Helvetica" font-size="14" lengthAdjust="spacing" textLength="75.4551" x="858.2743" y="375.7803">Summarizer</text><text fill="#0F172A" font-family="Helvetica" font-size="14" lengthAdjust="spacing" textLength="144.7236" x="823.64" y="389.7803">URLs / Files / YouTube</text></g><!--entity TMX--><g class="entity" data-qualified-name="SS.BuiltIn.TMX" data-source-line="16" id="ent0012"><rect fill="#FFFFFF" height="48" rx="4" ry="4" style="stroke:#64748B;stroke-width:0.5;" width="155.4131" x="1020.29" y="355"/><text fill="#0F172A" font-family="Helvetica" font-size="14" lengthAdjust="spacing" textLength="99.5791" x="1048.207" y="375.7803">Tmux Controller</text><text fill="#0F172A" font-family="Helvetica" font-size="14" lengthAdjust="spacing" textLength="135.4131" x="1030.29" y="389.7803">Session Management</text></g><!--entity REG--><g class="entity" data-qualified-name="SS.BuiltIn.REG" data-source-line="17" id="ent0013"><rect fill="#FFFFFF" height="48" rx="4" ry="4" style="stroke:#64748B;stroke-width:0.5;" width="132.0342" x="1217.98" y="355"/><text fill="#0F172A" font-family="Helvetica" font-size="14" lengthAdjust="spacing" textLength="112.0342" x="1227.98" y="375.7803">ClawHub Registry</text><text fill="#0F172A" font-family="Helvetica" font-size="14" lengthAdjust="spacing" textLength="92.5996" x="1237.6973" y="389.7803">Search / Install</text></g><!--entity CRT--><g class="entity" data-qualified-name="SS.BuiltIn.CRT" data-source-line="18" id="ent0014"><rect fill="#FFFFFF" height="48" rx="4" ry="4" style="stroke:#64748B;stroke-width:0.5;" width="144.4893" x="290.76" y="355"/><text fill="#0F172A" font-family="Helvetica" font-size="14" lengthAdjust="spacing" textLength="76.2412" x="324.884" y="375.7803">Skill Creator</text><text fill="#0F172A" font-family="Helvetica" font-size="14" lengthAdjust="spacing" textLength="124.4893" x="300.76" y="389.7803">New Skill Generator</text></g><!--entity YAML--><g class="entity" data-qualified-name="SS.Schema.YAML" data-source-line="21" id="ent0016"><rect fill="#FFFFFF" height="48" rx="4" ry="4" style="stroke:#64748B;stroke-width:0.5;" width="184.9648" x="62.52" y="673"/><text fill="#0F172A" font-family="Helvetica" font-size="14" lengthAdjust="spacing" textLength="114.3652" x="97.8198" y="693.7803">YAML Frontmatter</text><text fill="#0F172A" font-family="Helvetica" font-size="14" lengthAdjust="spacing" textLength="164.9648" x="72.52" y="707.7803">(name, description, config)</text></g><!--entity MD--><g class="entity" data-qualified-name="SS.Schema.MD" data-source-line="22" id="ent0017"><rect fill="#FFFFFF" height="48" rx="4" ry="4" style="stroke:#64748B;stroke-width:0.5;" width="165.5303" x="289.23" y="673"/><text fill="#0F172A" font-family="Helvetica" font-size="14" lengthAdjust="spacing" textLength="140.0547" x="301.9678" y="693.7803">Markdown Instructions</text><text fill="#0F172A" font-family="Helvetica" font-size="14" lengthAdjust="spacing" textLength="145.5303" x="299.23" y="707.7803">(agent execution steps)</text></g><!--entity GitHub--><g class="entity" data-qualified-name="External.GitHub" data-source-line="26" id="ent0019"><rect fill="#FFFFFF" height="34" rx="4" ry="4" style="stroke:#64748B;stroke-width:0.5;" width="90.0273" x="1471.99" y="521"/><text fill="#0F172A" font-family="Helvetica" font-size="14" lengthAdjust="spacing" textLength="70.0273" x="1481.99" y="541.7803">GitHub API</text></g><!--entity WeatherAPI--><g class="entity" data-qualified-name="External.WeatherAPI" data-source-line="27" id="ent0020"><rect fill="#FFFFFF" height="34" rx="4" ry="4" style="stroke:#64748B;stroke-width:0.5;" width="130.4824" x="1603.76" y="521"/><text fill="#0F172A" font-family="Helvetica" font-size="14" lengthAdjust="spacing" textLength="110.4824" x="1613.76" y="541.7803">Weather Services</text></g><!--entity ClawHub--><g class="entity" data-qualified-name="External.ClawHub" data-source-line="28" id="ent0021"><rect fill="#FFFFFF" height="34" rx="4" ry="4" style="stroke:#64748B;stroke-width:0.5;" width="132.0342" x="2140.98" y="521"/><text fill="#0F172A" font-family="Helvetica" font-size="14" lengthAdjust="spacing" textLength="112.0342" x="2150.98" y="541.7803">ClawHub Registry</text></g><!--entity TmuxSrv--><g class="entity" data-qualified-name="External.TmuxSrv" data-source-line="29" id="ent0022"><rect fill="#FFFFFF" height="34" rx="4" ry="4" style="stroke:#64748B;stroke-width:0.5;" width="115.6963" x="1983.15" y="521"/><text fill="#0F172A" font-family="Helvetica" font-size="14" lengthAdjust="spacing" textLength="95.6963" x="1993.15" y="541.7803">Tmux Sessions</text></g><!--entity ContentSrc--><g class="entity" data-qualified-name="External.ContentSrc" data-source-line="30" id="ent0023"><rect fill="#FFFFFF" height="48" rx="4" ry="4" style="stroke:#64748B;stroke-width:0.5;" width="164.7236" x="1776.64" y="514"/><text fill="#0F172A" font-family="Helvetica" font-size="14" lengthAdjust="spacing" textLength="104.2822" x="1806.8607" y="534.7803">Content Sources</text><text fill="#0F172A" font-family="Helvetica" font-size="14" lengthAdjust="spacing" textLength="144.7236" x="1786.64" y="548.7803">URLs / Files / YouTube</text></g><!--link Agent to Loader--><g class="link" data-entity-1="ent0002" data-entity-2="ent0007" data-link-type="dependency" data-source-line="32" id="lnk24"><path d="M162,74.41 C162,106.61 162,172.71 162,204.77" fill="none" id="Agent-to-Loader" style="stroke:#64748B;stroke-width:1.1;"/><polygon fill="#64748B" points="162,209.77,166,200.77,162,204.77,158,200.77,162,209.77" style="stroke:#64748B;stroke-width:1.1;stroke-linejoin:miter;stroke-miterlimit:10;"/><text fill="#334155" font-family="Helvetica" font-size="12" lengthAdjust="spacing" textLength="104.707" x="163" y="116.2402">Discover &amp; Execute</text></g><!--link Loader to Parser--><g class="link" data-entity-1="ent0007" data-entity-2="ent0006" data-link-type="dependency" data-source-line="33" id="lnk25"><path d="M158.84,244.34 C153.26,273.19 142.6798,327.931 137.0998,356.771" fill="none" id="Loader-to-Parser" style="stroke:#64748B;stroke-width:1.1;"/><polygon fill="#64748B" points="136.15,361.68,141.7868,353.6037,137.0998,356.771,133.9325,352.084,136.15,361.68" style="stroke:#64748B;stroke-width:1.1;stroke-linejoin:miter;stroke-miterlimit:10;"/><text fill="#334155" font-family="Helvetica" font-size="12" lengthAdjust="spacing" textLength="31.3477" x="153.62" y="286.2402">Parse</text></g><!--link Parser to SD--><g class="link" data-entity-1="ent0006" data-entity-2="ent0005" data-link-type="dependency" data-source-line="34" id="lnk26"><path d="M136.1,396.21 C141.85,426.3 153.1614,485.5389 158.9314,515.7289" fill="none" id="Parser-to-SD" style="stroke:#64748B;stroke-width:1.1;"/><polygon fill="#64748B" points="159.87,520.64,162.1094,511.0491,158.9314,515.7289,154.2516,512.5509,159.87,520.64" style="stroke:#64748B;stroke-width:1.1;stroke-linejoin:miter;stroke-miterlimit:10;"/><text fill="#334155" font-family="Helvetica" font-size="12" lengthAdjust="spacing" textLength="28.6875" x="149.9" y="461.2402">Read</text></g><!--link SD to Schema--><g class="link" data-entity-1="ent0005" data-entity-2="ent0015" data-link-type="dependency" data-source-line="35" id="lnk27"><path d="M219.5,553.03 C308.91,575.24 473,616 473,616 C473,616 474.4538,620.845 476.6456,628.1503 C476.9196,629.0635 477.2051,630.0151 477.5008,631.0005 C477.5747,631.2468 476.2123,626.7062 476.2875,626.9567" fill="none" id="SD-to-Schema" style="stroke:#64748B;stroke-width:1.1;"/><polygon fill="#64748B" points="477.7244,631.7458,478.9693,621.9759,476.2875,626.9567,471.3067,624.2749,477.7244,631.7458" style="stroke:#64748B;stroke-width:1.1;stroke-linejoin:miter;stroke-miterlimit:10;"/><text fill="#334155" font-family="Helvetica" font-size="12" lengthAdjust="spacing" textLength="47.3613" x="441.76" y="604.2402">Contains</text></g><!--link Loader to BuiltIn--><g class="link" data-entity-1="ent0007" data-entity-2="ent0008" data-link-type="dependency" data-source-line="36" id="lnk28"><path d="M208.91,230.72 C431.21,243.63 1368,298 1368,298 C1368,298 1369.4538,302.845 1371.6456,310.1503 C1371.9196,311.0635 1372.2051,312.0151 1372.5008,313.0005 C1372.5747,313.2468 1371.2123,308.7062 1371.2875,308.9567" fill="none" id="Loader-to-BuiltIn" style="stroke:#64748B;stroke-width:1.1;"/><polygon fill="#64748B" points="1372.7244,313.7458,1373.9693,303.9759,1371.2875,308.9567,1366.3067,306.2749,1372.7244,313.7458" style="stroke:#64748B;stroke-width:1.1;stroke-linejoin:miter;stroke-miterlimit:10;"/><text fill="#334155" font-family="Helvetica" font-size="12" lengthAdjust="spacing" textLength="45.3633" x="1219.57" y="286.2402">Route to</text></g><!--link GH to GitHub--><g class="link" data-entity-1="ent0009" data-entity-2="ent0019" data-link-type="dependency" data-source-line="37" id="lnk29"><path d="M561.3574,406.701 C582.3974,424.611 604,443 604,443 C604,443 1282.5263,512.8578 1466.7463,531.8278" fill="none" id="GH-GitHub" style="stroke:#64748B;stroke-width:1.1;"/><polygon fill="#64748B" points="557.55,403.46,561.8105,412.3396,561.3574,406.701,566.9961,406.2479,557.55,403.46" style="stroke:#64748B;stroke-width:1.1;stroke-linejoin:miter;stroke-miterlimit:10;"/><polygon fill="#64748B" points="1471.72,532.34,1463.1771,527.4391,1466.7463,531.8278,1462.3576,535.3971,1471.72,532.34" style="stroke:#64748B;stroke-width:1.1;stroke-linejoin:miter;stroke-miterlimit:10;"/><text fill="#334155" font-family="Helvetica" font-size="12" lengthAdjust="spacing" textLength="35.3555" x="802.21" y="461.2402">gh CLI</text></g><!--link WX to WeatherAPI--><g class="link" data-entity-1="ent0010" data-entity-2="ent0020" data-link-type="dependency" data-source-line="38" id="lnk30"><path d="M737.5371,406.2232 C764.5471,424.1332 793,443 793,443 C793,443 1046,465 1046,465 C1046,465 1583,473 1583,473 C1583,473 1617.3587,498.5751 1642.8387,517.5351" fill="none" id="WX-WeatherAPI" style="stroke:#64748B;stroke-width:1.1;"/><polygon fill="#64748B" points="733.37,403.46,738.6603,411.7674,737.5371,406.2232,743.0814,405.1,733.37,403.46" style="stroke:#64748B;stroke-width:1.1;stroke-linejoin:miter;stroke-miterlimit:10;"/><polygon fill="#64748B" points="1646.85,520.52,1642.0175,511.9382,1642.8387,517.5351,1637.2418,518.3563,1646.85,520.52" style="stroke:#64748B;stroke-width:1.1;stroke-linejoin:miter;stroke-miterlimit:10;"/><text fill="#334155" font-family="Helvetica" font-size="12" lengthAdjust="spacing" textLength="31.3301" x="1047" y="461.2402">HTTP</text></g><!--link REG to ClawHub--><g class="link" data-entity-1="ent0013" data-entity-2="ent0021" data-link-type="dependency" data-source-line="39" id="lnk31"><path d="M1313.7865,406.8048 C1333.6865,424.7148 1354,443 1354,443 C1354,443 2120,473 2120,473 C2120,473 2154.7921,498.5976 2180.5721,517.5576" fill="none" id="REG-ClawHub" style="stroke:#64748B;stroke-width:1.1;"/><polygon fill="#64748B" points="1310.07,403.46,1314.0838,412.4539,1313.7865,406.8048,1319.4355,406.5075,1310.07,403.46" style="stroke:#64748B;stroke-width:1.1;stroke-linejoin:miter;stroke-miterlimit:10;"/><polygon fill="#64748B" points="2184.6,520.52,2179.7196,511.9654,2180.5721,517.5576,2174.9798,518.4101,2184.6,520.52" style="stroke:#64748B;stroke-width:1.1;stroke-linejoin:miter;stroke-miterlimit:10;"/><text fill="#334155" font-family="Helvetica" font-size="12" lengthAdjust="spacing" textLength="72.7031" x="1915.56" y="461.2402">Search/Install</text></g><!--link TMX to TmuxSrv--><g class="link" data-entity-1="ent0012" data-entity-2="ent0022" data-link-type="dependency" data-source-line="40" id="lnk32"><path d="M1139.0786,406.144 C1167.2286,424.054 1197,443 1197,443 C1197,443 1509,465 1509,465 C1509,465 1962,473 1962,473 C1962,473 1993.3645,498.4131 2016.7745,517.3731" fill="none" id="TMX-TmuxSrv" style="stroke:#64748B;stroke-width:1.1;"/><polygon fill="#64748B" points="1134.86,403.46,1140.3062,411.666,1139.0786,406.144,1144.6006,404.9163,1134.86,403.46" style="stroke:#64748B;stroke-width:1.1;stroke-linejoin:miter;stroke-miterlimit:10;"/><polygon fill="#64748B" points="2020.66,520.52,2016.1836,511.7472,2016.7745,517.3731,2011.1486,517.964,2020.66,520.52" style="stroke:#64748B;stroke-width:1.1;stroke-linejoin:miter;stroke-miterlimit:10;"/><text fill="#334155" font-family="Helvetica" font-size="12" lengthAdjust="spacing" textLength="38.6836" x="1510" y="461.2402">Control</text></g><!--link SUM to ContentSrc--><g class="link" data-entity-1="ent0011" data-entity-2="ent0023" data-link-type="dependency" data-source-line="41" id="lnk33"><path d="M938.6157,406.0684 C967.9057,423.9784 999,443 999,443 C999,443 1234,465 1234,465 C1234,465 1755,473 1755,473 C1755,473 1786.9214,492.65 1816.6014,510.91" fill="none" id="SUM-ContentSrc" style="stroke:#64748B;stroke-width:1.1;"/><polygon fill="#64748B" points="934.35,403.46,939.9416,411.5676,938.6157,406.0684,944.115,404.7425,934.35,403.46" style="stroke:#64748B;stroke-width:1.1;stroke-linejoin:miter;stroke-miterlimit:10;"/><polygon fill="#64748B" points="1820.86,513.53,1815.2905,505.4071,1816.6014,510.91,1811.0985,512.2209,1820.86,513.53" style="stroke:#64748B;stroke-width:1.1;stroke-linejoin:miter;stroke-miterlimit:10;"/><text fill="#334155" font-family="Helvetica" font-size="12" lengthAdjust="spacing" textLength="70.6875" x="1235" y="461.2402">Fetch/Extract</text></g><!--link CRT to SD--><g class="link" data-entity-1="ent0014" data-entity-2="ent0005" data-link-type="dependency" data-source-line="42" id="lnk34"><path d="M333.49,403.17 C292.52,435.32 223.3833,489.6031 187.6933,517.6131" fill="none" id="CRT-to-SD" style="stroke:#64748B;stroke-width:1.1;"/><polygon fill="#64748B" points="183.76,520.7,193.3095,518.2902,187.6933,517.6131,188.3704,511.9969,183.76,520.7" style="stroke:#64748B;stroke-width:1.1;stroke-linejoin:miter;stroke-miterlimit:10;"/><text fill="#334155" font-family="Helvetica" font-size="12" lengthAdjust="spacing" textLength="50.0332" x="270" y="461.2402">Generate</text></g><?plantuml-src VLHDRnen4BtxLqnpg5efX3kgAX487nARH2nH4YaNiqmM2w-zihqGMlM_T_m1B2BA2U_upHlFcpTy4wgGpGgXDleThHLQSTbnQwpmHZILP4xNu3GijNEwWfKmM3W2iPeN6ruYN2ckDDt2G1ky0cxX_XR-CW_ZgfG4w9Ue73oOOetM6Uwq2R0GPlykYBfs8wIqn5VLMX4ceFESI8_Gt4CWtrk7rQcmFvoNpYFLCBnQctsa6hOXh_ririsusQpqJi4ZDnRZ--BnWWrccgyI91xRFTmsGhgEK10h1rI8JTNvoyR2JPeb36RJDrMkGIY79Mb3oeQSyQGDVaPE4p5lQkUSkI7sBZpKg3ePEjG1__nozj2cghWHVtpAqtnc2JyI4ltlgsuMpJBgbJzbxQn5rNoGXiePBQLFpQCV8EEAcgiEerXaPyK6akzyAtCi1Srtx_Cu3PkAJPLrNCgGDRyRNsevCEZzyARkSHSbWp4gF9baC5-qvKrp9oTLFBOGZkVI-ed2o50Z5NVED_93yGglOOMsCABs8bz3eTMxA7y65f_HPZZQmJTWcc1uIpGyE1a_i6Xy2CX-jOqKsP3UsNhftGTLfbLA9erEE0O_iqB_SHf77pu_6J_aQBQYmCYLWfJrrJ2YY35uCUiqtyZd8xdPdf6HXBxXN3U6odxffOJDJK4gn8tlT7wd3O4UhQ0jz9QEtqa5hn-oTETXSTS85WuiVVgRV4ZHEV8LerC8n8dtGaKkb6tp75QDKZILe3ykDfx0Bt-LLEu1RHjj7Nj-YV6JZdGtMImU6JarNXt4x45qT3VvcT46H4GIBRs6zeRHJgNaeo1qEq97wJH-mml7oDIdtfBVyJy0?></g></svg>