<svg xmlns="http://www.w3.org/2000/svg" xmlns:xlink="http://www.w3.org/1999/xlink" contentStyleType="text/css" data-diagram-type="DESCRIPTION" height="708px" preserveAspectRatio="none" style="width:1614px;height:708px;" version="1.1" viewBox="0 0 1614 708" width="1614px" zoomAndPan="magnify"><?plantuml 1.2026.5?><defs><style><![CDATA[
@media (prefers-color-scheme: dark) {
  text { fill: #e5e7eb !important; }
  path, line, rect, circle, ellipse, polygon, polyline { stroke: #cbd5e1 !important; }
  .entity rect, .participant rect, .participant path, .sequenceLine rect, .class rect, .component rect, .component path, .note rect { fill: #111827 !important; }
  .cluster path { fill: none !important; }
  polygon { fill: #cbd5e1 !important; }
}
]]></style></defs><g><!--cluster Clients--><g class="cluster" data-qualified-name="Clients" data-source-line="13" id="ent0001"><path d="M553.5,14.24 L660.71,14.24 A3.75,3.75 0 0 1 663.21,16.74 L670.21,36.7283 L851.5,36.7283 A2.5,2.5 0 0 1 854,39.2283 L854,99.23 A2.5,2.5 0 0 1 851.5,101.73 L553.5,101.73 A2.5,2.5 0 0 1 551,99.23 L551,16.74 A2.5,2.5 0 0 1 553.5,14.24" fill="none" style="stroke:#64748B;stroke-width:1.5;"/><line style="stroke:#64748B;stroke-width:1.5;" x1="551" x2="670.21" y1="36.7283" y2="36.7283"/><text fill="#000000" font-family="sans-serif" font-size="14" font-weight="700" lengthAdjust="spacing" textLength="106.21" x="555" y="29.7752">System Clients</text></g><!--cluster Registry--><g class="cluster" data-qualified-name="Registry" data-source-line="17" id="ent0004"><path d="M1153.5,291.95 L1279.4746,291.95 A3.75,3.75 0 0 1 1281.9746,294.45 L1288.9746,314.4383 L1596.5,314.4383 A2.5,2.5 0 0 1 1599,316.9383 L1599,674.38 A2.5,2.5 0 0 1 1596.5,676.88 L1153.5,676.88 A2.5,2.5 0 0 1 1151,674.38 L1151,294.45 A2.5,2.5 0 0 1 1153.5,291.95" fill="none" style="stroke:#64748B;stroke-width:1.5;"/><line style="stroke:#64748B;stroke-width:1.5;" x1="1151" x2="1288.9746" y1="314.4383" y2="314.4383"/><text fill="#000000" font-family="sans-serif" font-size="14" font-weight="700" lengthAdjust="spacing" textLength="124.9746" x="1155" y="307.4852">Provider Registry</text></g><!--cluster Abstraction--><g class="cluster" data-qualified-name="Abstraction" data-source-line="28" id="ent0014"><path d="M8.5,156.98 L136.7988,156.98 A3.75,3.75 0 0 1 139.2988,159.48 L146.2988,179.4683 L449.5,179.4683 A2.5,2.5 0 0 1 452,181.9683 L452,536.16 A2.5,2.5 0 0 1 449.5,538.66 L8.5,538.66 A2.5,2.5 0 0 1 6,536.16 L6,159.48 A2.5,2.5 0 0 1 8.5,156.98" fill="none" style="stroke:#64748B;stroke-width:1.5;"/><line style="stroke:#64748B;stroke-width:1.5;" x1="6" x2="146.2988" y1="179.4683" y2="179.4683"/><text fill="#000000" font-family="sans-serif" font-size="14" font-weight="700" lengthAdjust="spacing" textLength="127.2988" x="10" y="172.5152">Abstraction Layer</text></g><!--cluster Providers--><g class="cluster" data-qualified-name="Providers" data-source-line="37" id="ent0022"><path d="M478.5,442.93 L666.1143,442.93 A3.75,3.75 0 0 1 668.6143,445.43 L675.6143,465.4183 L1124.5,465.4183 A2.5,2.5 0 0 1 1127,467.9183 L1127,690.87 A2.5,2.5 0 0 1 1124.5,693.37 L478.5,693.37 A2.5,2.5 0 0 1 476,690.87 L476,445.43 A2.5,2.5 0 0 1 478.5,442.93" fill="none" style="stroke:#64748B;stroke-width:1.5;"/><line style="stroke:#64748B;stroke-width:1.5;" x1="476" x2="675.6143" y1="465.4183" y2="465.4183"/><text fill="#000000" font-family="sans-serif" font-size="14" font-weight="700" lengthAdjust="spacing" textLength="186.6143" x="480" y="458.4652">Provider Implementations</text></g><!--cluster Voice--><g class="cluster" data-qualified-name="Voice" data-source-line="48" id="ent0032"><path d="M1391.5,6 L1495.0391,6 A3.75,3.75 0 0 1 1497.5391,8.5 L1504.5391,28.4883 L1546.5,28.4883 A2.5,2.5 0 0 1 1549,30.9883 L1549,250.21 A2.5,2.5 0 0 1 1546.5,252.71 L1391.5,252.71 A2.5,2.5 0 0 1 1389,250.21 L1389,8.5 A2.5,2.5 0 0 1 1391.5,6" fill="none" style="stroke:#64748B;stroke-width:1.5;"/><line style="stroke:#64748B;stroke-width:1.5;" x1="1389" x2="1504.5391" y1="28.4883" y2="28.4883"/><text fill="#000000" font-family="sans-serif" font-size="14" font-weight="700" lengthAdjust="spacing" textLength="102.5391" x="1393" y="21.5352">Voice Services</text></g><!--entity NC--><g class="entity" data-qualified-name="Clients.NC" data-source-line="14" id="ent0002"><rect fill="#F8FAFC" height="36.4883" rx="2.5" ry="2.5" style="stroke:#4B5563;stroke-width:0.5;" width="114.2539" x="566.87" y="49.24"/><text fill="#111827" font-family="sans-serif" font-size="14" lengthAdjust="spacing" textLength="94.2539" x="576.87" y="72.7752">Nanobot Core</text></g><!--entity CLI--><g class="entity" data-qualified-name="Clients.CLI" data-source-line="15" id="ent0003"><rect fill="#F8FAFC" height="36.4883" rx="2.5" ry="2.5" style="stroke:#4B5563;stroke-width:0.5;" width="122.4092" x="715.8" y="49.24"/><text fill="#111827" font-family="sans-serif" font-size="14" lengthAdjust="spacing" textLength="102.4092" x="725.8" y="72.7752">CLI Commands</text></g><!--entity PR--><g class="entity" data-qualified-name="Registry.PR" data-source-line="18" id="ent0005"><rect fill="#F8FAFC" height="52.9766" rx="2.5" ry="2.5" style="stroke:#4B5563;stroke-width:0.5;" width="142.4658" x="1166.77" y="326.95"/><text fill="#111827" font-family="sans-serif" font-size="14" lengthAdjust="spacing" textLength="72.2764" x="1201.8647" y="350.4852">registry.py</text><text fill="#111827" font-family="sans-serif" font-size="14" lengthAdjust="spacing" textLength="122.4658" x="1176.77" y="366.9734">Provider Metadata</text></g><!--entity DET--><g class="entity" data-qualified-name="Registry.DET" data-source-line="19" id="ent0006"><rect fill="#F8FAFC" height="36.4883" rx="2.5" ry="2.5" style="stroke:#4B5563;stroke-width:0.5;" width="125.5059" x="1250.25" y="486.17"/><text fill="#111827" font-family="sans-serif" font-size="14" lengthAdjust="spacing" textLength="105.5059" x="1260.25" y="509.7052">Detection Logic</text></g><!--entity STD--><g class="entity" data-qualified-name="Registry.STD" data-source-line="21" id="ent0008"><rect fill="#F8FAFC" height="36.4883" rx="2.5" ry="2.5" style="stroke:#4B5563;stroke-width:0.5;" width="147.5449" x="1167.23" y="624.39"/><text fill="#111827" font-family="sans-serif" font-size="14" lengthAdjust="spacing" textLength="127.5449" x="1177.23" y="647.9252">Standard Providers</text></g><!--entity GW--><g class="entity" data-qualified-name="Registry.GW" data-source-line="23" id="ent0010"><rect fill="#F8FAFC" height="36.4883" rx="2.5" ry="2.5" style="stroke:#4B5563;stroke-width:0.5;" width="83.8545" x="1350.07" y="624.39"/><text fill="#111827" font-family="sans-serif" font-size="14" lengthAdjust="spacing" textLength="63.8545" x="1360.07" y="647.9252">Gateways</text></g><!--entity LOC--><g class="entity" data-qualified-name="Registry.LOC" data-source-line="25" id="ent0012"><rect fill="#F8FAFC" height="36.4883" rx="2.5" ry="2.5" style="stroke:#4B5563;stroke-width:0.5;" width="114.7734" x="1468.61" y="624.39"/><text fill="#111827" font-family="sans-serif" font-size="14" lengthAdjust="spacing" textLength="94.7734" x="1478.61" y="647.9252">Local/Custom</text></g><!--entity INIT--><g class="entity" data-qualified-name="Abstraction.INIT" data-source-line="29" id="ent0015"><rect fill="#F8FAFC" height="52.9766" rx="2.5" ry="2.5" style="stroke:#4B5563;stroke-width:0.5;" width="126.1211" x="308.94" y="191.98"/><text fill="#111827" font-family="sans-serif" font-size="14" lengthAdjust="spacing" text-decoration="underline" textLength="22.0186" x="350.7134" y="215.5152">init</text><text fill="#111827" font-family="sans-serif" font-size="14" lengthAdjust="spacing" textLength="20.5557" x="372.732" y="215.5152">.py</text><text fill="#111827" font-family="sans-serif" font-size="14" lengthAdjust="spacing" textLength="106.1211" x="318.94" y="232.0034">Module Exports</text></g><!--entity BASE--><g class="entity" data-qualified-name="Abstraction.BASE" data-source-line="30" id="ent0016"><rect fill="#F8FAFC" height="52.9766" rx="2.5" ry="2.5" style="stroke:#4B5563;stroke-width:0.5;" width="134.5156" x="301.74" y="326.95"/><text fill="#111827" font-family="sans-serif" font-size="14" lengthAdjust="spacing" textLength="52.0352" x="342.9802" y="350.4852">base.py</text><text fill="#111827" font-family="sans-serif" font-size="14" lengthAdjust="spacing" textLength="114.5156" x="311.74" y="366.9734">LLMProvider ABC</text></g><!--entity RESP--><g class="entity" data-qualified-name="Abstraction.RESP" data-source-line="31" id="ent0017"><rect fill="#F8FAFC" height="36.4883" rx="2.5" ry="2.5" style="stroke:#4B5563;stroke-width:0.5;" width="180.6514" x="21.67" y="486.17"/><text fill="#111827" font-family="sans-serif" font-size="14" lengthAdjust="spacing" textLength="160.6514" x="31.67" y="509.7052">LLMResponse Dataclass</text></g><!--entity TC--><g class="entity" data-qualified-name="Abstraction.TC" data-source-line="32" id="ent0018"><rect fill="#F8FAFC" height="36.4883" rx="2.5" ry="2.5" style="stroke:#4B5563;stroke-width:0.5;" width="198.7734" x="237.61" y="486.17"/><text fill="#111827" font-family="sans-serif" font-size="14" lengthAdjust="spacing" textLength="178.7734" x="247.61" y="509.7052">ToolCallRequest Dataclass</text></g><!--entity LP--><g class="entity" data-qualified-name="Providers.LP" data-source-line="38" id="ent0023"><rect fill="#F8FAFC" height="52.9766" rx="2.5" ry="2.5" style="stroke:#4B5563;stroke-width:0.5;" width="146.6221" x="491.69" y="477.93"/><text fill="#111827" font-family="sans-serif" font-size="14" lengthAdjust="spacing" textLength="126.6221" x="501.69" y="501.4652">litellm_provider.py</text><text fill="#111827" font-family="sans-serif" font-size="14" lengthAdjust="spacing" textLength="112.5537" x="508.7242" y="517.9534">LiteLLM Wrapper</text></g><!--entity CP--><g class="entity" data-qualified-name="Providers.CP" data-source-line="39" id="ent0024"><rect fill="#F8FAFC" height="52.9766" rx="2.5" ry="2.5" style="stroke:#4B5563;stroke-width:0.5;" width="200.708" x="673.65" y="477.93"/><text fill="#111827" font-family="sans-serif" font-size="14" lengthAdjust="spacing" textLength="134.2305" x="706.8888" y="501.4652">custom_provider.py</text><text fill="#111827" font-family="sans-serif" font-size="14" lengthAdjust="spacing" textLength="180.708" x="683.65" y="517.9534">Direct OpenAI-Compatible</text></g><!--entity OCP--><g class="entity" data-qualified-name="Providers.OCP" data-source-line="40" id="ent0025"><rect fill="#F8FAFC" height="52.9766" rx="2.5" ry="2.5" style="stroke:#4B5563;stroke-width:0.5;" width="202.0547" x="908.97" y="477.93"/><text fill="#111827" font-family="sans-serif" font-size="14" lengthAdjust="spacing" textLength="177.9736" x="921.0105" y="501.4652">openai_codex_provider.py</text><text fill="#111827" font-family="sans-serif" font-size="14" lengthAdjust="spacing" textLength="182.0547" x="918.97" y="517.9534">ChatGPT Backend + OAuth</text></g><!--entity PROVS--><g class="entity" data-qualified-name="Providers.PROVS" data-source-line="41" id="ent0026"><rect fill="#F8FAFC" height="69.4648" rx="2.5" ry="2.5" style="stroke:#4B5563;stroke-width:0.5;" width="149.7871" x="492.11" y="607.91"/><text fill="#111827" font-family="sans-serif" font-size="14" lengthAdjust="spacing" textLength="129.7871" x="502.11" y="631.4452">Anthropic, OpenAI,</text><text fill="#111827" font-family="sans-serif" font-size="14" lengthAdjust="spacing" textLength="127.2783" x="503.3644" y="647.9334">Gemini, DeepSeek,</text><text fill="#111827" font-family="sans-serif" font-size="14" lengthAdjust="spacing" textLength="114.5771" x="509.715" y="664.4217">OpenRouter, etc.</text></g><!--entity LOCAL--><g class="entity" data-qualified-name="Providers.LOCAL" data-source-line="43" id="ent0028"><rect fill="#F8FAFC" height="52.9766" rx="2.5" ry="2.5" style="stroke:#4B5563;stroke-width:0.5;" width="100.5068" x="723.75" y="616.15"/><text fill="#111827" font-family="sans-serif" font-size="14" lengthAdjust="spacing" textLength="78.1074" x="734.9497" y="639.6852">Local vLLM,</text><text fill="#111827" font-family="sans-serif" font-size="14" lengthAdjust="spacing" textLength="80.5068" x="733.75" y="656.1734">Self-Hosted</text></g><!--entity CODEX--><g class="entity" data-qualified-name="Providers.CODEX" data-source-line="45" id="ent0030"><rect fill="#F8FAFC" height="36.4883" rx="2.5" ry="2.5" style="stroke:#4B5563;stroke-width:0.5;" width="126.0117" x="946.99" y="624.39"/><text fill="#111827" font-family="sans-serif" font-size="14" lengthAdjust="spacing" textLength="106.0117" x="956.99" y="647.9252">GPT-5.1-codex</text></g><!--entity TR--><g class="entity" data-qualified-name="Voice.TR" data-source-line="49" id="ent0033"><rect fill="#F8FAFC" height="52.9766" rx="2.5" ry="2.5" style="stroke:#4B5563;stroke-width:0.5;" width="127.4063" x="1405.3" y="41"/><text fill="#111827" font-family="sans-serif" font-size="14" lengthAdjust="spacing" textLength="107.4063" x="1415.3" y="64.5352">transcription.py</text><text fill="#111827" font-family="sans-serif" font-size="14" lengthAdjust="spacing" textLength="91.875" x="1423.0656" y="81.0234">Groq Whisper</text></g><!--entity GROQ--><g class="entity" data-qualified-name="Voice.GROQ" data-source-line="50" id="ent0034"><rect fill="#F8FAFC" height="36.4883" rx="2.5" ry="2.5" style="stroke:#4B5563;stroke-width:0.5;" width="79.1172" x="1405.44" y="200.22"/><text fill="#111827" font-family="sans-serif" font-size="14" lengthAdjust="spacing" textLength="59.1172" x="1415.44" y="223.7552">Groq API</text></g><!--link PR to DET--><g class="link" data-entity-1="ent0005" data-entity-2="ent0006" data-link-type="dependency" data-source-line="20" id="lnk7"><path d="M1251.06,380.39 C1266.26,410.57 1288.6823,455.1037 1301.8323,481.2337" fill="none" id="PR-to-DET" style="stroke:#4B5563;stroke-width:1;"/><polygon fill="#4B5563" points="1304.08,485.7,1303.6072,475.8625,1301.8323,481.2337,1296.4611,479.4588,1304.08,485.7" style="stroke:#4B5563;stroke-width:1;stroke-linejoin:miter;stroke-miterlimit:10;"/><text fill="#000000" font-family="sans-serif" font-size="13" lengthAdjust="spacing" textLength="102.5845" x="1274.25" y="423.4984">Provider Lookup</text></g><!--link DET to STD--><g class="link" data-entity-1="ent0006" data-entity-2="ent0008" data-link-type="dependency" data-source-line="22" id="lnk9"><path d="M1282.81,522.94 C1269.45,532.38 1254.98,545.31 1247,560.91 C1236.88,580.67 1236.5186,601.8104 1238.0686,618.9104" fill="none" id="DET-to-STD" style="stroke:#4B5563;stroke-width:1;"/><polygon fill="#4B5563" points="1238.52,623.89,1241.6912,614.5657,1238.0686,618.9104,1233.7239,615.2878,1238.52,623.89" style="stroke:#4B5563;stroke-width:1;stroke-linejoin:miter;stroke-miterlimit:10;"/><text fill="#000000" font-family="sans-serif" font-size="13" lengthAdjust="spacing" textLength="96.5034" x="1248" y="574.4784">Model Keyword</text></g><!--link DET to GW--><g class="link" data-entity-1="ent0006" data-entity-2="ent0010" data-link-type="dependency" data-source-line="24" id="lnk11"><path d="M1324.74,522.67 C1331.97,533.5 1341.31,547.85 1349,560.91 C1361.58,582.25 1372.5216,603.1042 1380.9316,619.6242" fill="none" id="DET-to-GW" style="stroke:#4B5563;stroke-width:1;"/><polygon fill="#4B5563" points="1383.2,624.08,1382.6816,614.2448,1380.9316,619.6242,1375.5523,617.8742,1383.2,624.08" style="stroke:#4B5563;stroke-width:1;stroke-linejoin:miter;stroke-miterlimit:10;"/><text fill="#000000" font-family="sans-serif" font-size="13" lengthAdjust="spacing" textLength="86.9058" x="1358.7" y="574.4784">API Key Prefix</text></g><!--link DET to LOC--><g class="link" data-entity-1="ent0006" data-entity-2="ent0012" data-link-type="dependency" data-source-line="26" id="lnk13"><path d="M1375.81,523.07 C1401.42,532.02 1430.48,544.51 1454,560.91 C1478.96,578.3 1498.2414,601.9502 1511.1814,619.9502" fill="none" id="DET-to-LOC" style="stroke:#4B5563;stroke-width:1;"/><polygon fill="#4B5563" points="1514.1,624.01,1512.0945,614.3675,1511.1814,619.9502,1505.5988,619.0372,1514.1,624.01" style="stroke:#4B5563;stroke-width:1;stroke-linejoin:miter;stroke-miterlimit:10;"/><text fill="#000000" font-family="sans-serif" font-size="13" lengthAdjust="spacing" textLength="56.7988" x="1475.48" y="574.4784">Base URL</text></g><!--link BASE to RESP--><g class="link" data-entity-1="ent0016" data-entity-2="ent0017" data-link-type="dependency" data-source-line="33" id="lnk19"><path d="M318.85,380.41 C289.72,395.77 252.47,415.9 220,434.93 C191.84,451.43 164.5959,468.8354 142.9359,482.9854" fill="none" id="BASE-to-RESP" style="stroke:#4B5563;stroke-width:1;"/><polygon fill="#4B5563" points="138.75,485.72,148.4724,484.1465,142.9359,482.9854,144.097,477.449,138.75,485.72" style="stroke:#4B5563;stroke-width:1;stroke-linejoin:miter;stroke-miterlimit:10;"/></g><!--link BASE to TC--><g class="link" data-entity-1="ent0016" data-entity-2="ent0018" data-link-type="dependency" data-source-line="34" id="lnk20"><path d="M363.43,380.39 C356.94,410.57 347.4696,454.6814 341.8596,480.8114" fill="none" id="BASE-to-TC" style="stroke:#4B5563;stroke-width:1;"/><polygon fill="#4B5563" points="340.81,485.7,346.6101,477.7402,341.8596,480.8114,338.7883,476.0609,340.81,485.7" style="stroke:#4B5563;stroke-width:1;stroke-linejoin:miter;stroke-miterlimit:10;"/></g><!--link INIT to BASE--><g class="link" data-entity-1="ent0015" data-entity-2="ent0016" data-link-type="dependency" data-source-line="35" id="lnk21"><path d="M371.41,245.42 C370.89,268.85 370.2232,298.1413 369.6932,321.5513" fill="none" id="INIT-to-BASE" style="stroke:#4B5563;stroke-width:1;"/><polygon fill="#4B5563" points="369.58,326.55,373.7827,317.6428,369.6932,321.5513,365.7847,317.4618,369.58,326.55" style="stroke:#4B5563;stroke-width:1;stroke-linejoin:miter;stroke-miterlimit:10;"/></g><!--link LP to PROVS--><g class="link" data-entity-1="ent0023" data-entity-2="ent0026" data-link-type="dependency" data-source-line="42" id="lnk27"><path d="M565.38,531.36 C565.7,552.97 566.0759,578.9305 566.4259,602.5405" fill="none" id="LP-to-PROVS" style="stroke:#4B5563;stroke-width:1;"/><polygon fill="#4B5563" points="566.5,607.54,570.3662,598.4817,566.4259,602.5405,562.367,598.6003,566.5,607.54" style="stroke:#4B5563;stroke-width:1;stroke-linejoin:miter;stroke-miterlimit:10;"/><text fill="#000000" font-family="sans-serif" font-size="13" lengthAdjust="spacing" textLength="90.8857" x="567.06" y="574.4784">Multi-Provider</text></g><!--link CP to LOCAL--><g class="link" data-entity-1="ent0024" data-entity-2="ent0028" data-link-type="dependency" data-source-line="44" id="lnk29"><path d="M774,531.36 C774,555.6 774,586.58 774,610.79" fill="none" id="CP-to-LOCAL" style="stroke:#4B5563;stroke-width:1;"/><polygon fill="#4B5563" points="774,615.79,778,606.79,774,610.79,770,606.79,774,615.79" style="stroke:#4B5563;stroke-width:1;stroke-linejoin:miter;stroke-miterlimit:10;"/><text fill="#000000" font-family="sans-serif" font-size="13" lengthAdjust="spacing" textLength="61.5913" x="775" y="574.4784">Direct API</text></g><!--link OCP to CODEX--><g class="link" data-entity-1="ent0025" data-entity-2="ent0030" data-link-type="dependency" data-source-line="46" id="lnk31"><path d="M1010,531.36 C1010,558.53 1010,595.47 1010,619.02" fill="none" id="OCP-to-CODEX" style="stroke:#4B5563;stroke-width:1;"/><polygon fill="#4B5563" points="1010,624.02,1014,615.02,1010,619.02,1006,615.02,1010,624.02" style="stroke:#4B5563;stroke-width:1;stroke-linejoin:miter;stroke-miterlimit:10;"/><text fill="#000000" font-family="sans-serif" font-size="13" lengthAdjust="spacing" textLength="79.6758" x="1011" y="574.4784">OAuth + SSE</text></g><!--link TR to GROQ--><g class="link" data-entity-1="ent0033" data-entity-2="ent0034" data-link-type="dependency" data-source-line="51" id="lnk35"><path d="M1464.82,94.44 C1459.96,124.61 1452.8556,168.6837 1448.6456,194.8037" fill="none" id="TR-to-GROQ" style="stroke:#4B5563;stroke-width:1;"/><polygon fill="#4B5563" points="1447.85,199.74,1453.2312,191.4912,1448.6456,194.8037,1445.3331,190.2182,1447.85,199.74" style="stroke:#4B5563;stroke-width:1;stroke-linejoin:miter;stroke-miterlimit:10;"/><text fill="#000000" font-family="sans-serif" font-size="13" lengthAdjust="spacing" textLength="86.4868" x="1460.86" y="137.5484">Audio &#8594; Text</text></g><!--link NC to INIT--><g class="link" data-entity-1="ent0002" data-entity-2="ent0015" data-link-type="dependency" data-source-line="53" id="lnk36"><path d="M594.1,86.16 C549.91,112.29 471.1742,158.8356 420.1042,189.0256" fill="none" id="NC-to-INIT" style="stroke:#4B5563;stroke-width:1;"/><polygon fill="#4B5563" points="415.8,191.57,425.5831,190.4334,420.1042,189.0256,421.512,183.5467,415.8,191.57" style="stroke:#4B5563;stroke-width:1;stroke-linejoin:miter;stroke-miterlimit:10;"/><text fill="#000000" font-family="sans-serif" font-size="13" lengthAdjust="spacing" textLength="83.6621" x="528.98" y="137.5484">Chat Request</text></g><!--link CLI to PR--><g class="link" data-entity-1="ent0003" data-entity-2="ent0005" data-link-type="dependency" data-source-line="54" id="lnk37"><path d="M805.49,86.04 C883.91,134.34 1099.0227,266.8379 1191.6327,323.8779" fill="none" id="CLI-to-PR" style="stroke:#4B5563;stroke-width:1;"/><polygon fill="#4B5563" points="1195.89,326.5,1190.3246,318.3743,1191.6327,323.8779,1186.1292,325.186,1195.89,326.5" style="stroke:#4B5563;stroke-width:1;stroke-linejoin:miter;stroke-miterlimit:10;"/><text fill="#000000" font-family="sans-serif" font-size="13" lengthAdjust="spacing" textLength="87.1089" x="1089.52" y="223.5284">Status/Config</text></g><!--link BASE to LP--><g class="link" data-entity-1="ent0016" data-entity-2="ent0023" data-link-type="dependency" data-source-line="55" id="lnk38"><path d="M382.88,380.35 C392.49,395.96 406.66,415.07 424,426.93 C434.68,434.24 440.14,429.75 452,434.93 C478.6,446.54 502.3218,460.6536 523.7418,474.7336" fill="none" id="BASE-to-LP" style="stroke:#4B5563;stroke-width:1;stroke-dasharray:7,7;"/><polygon fill="#4B5563" points="527.92,477.48,522.5964,469.1939,523.7418,474.7336,518.2021,475.879,527.92,477.48" style="stroke:#4B5563;stroke-width:1;stroke-linejoin:miter;stroke-miterlimit:10;"/><text fill="#000000" font-family="sans-serif" font-size="13" lengthAdjust="spacing" textLength="74.0137" x="425" y="423.4984">implements</text></g><!--link BASE to CP--><g class="link" data-entity-1="ent0016" data-entity-2="ent0024" data-link-type="dependency" data-source-line="56" id="lnk39"><path d="M433.83,380.36 C475.97,396.19 532.46,415.52 584,426.93 C615.44,433.89 625.42,424.85 656,434.93 C685.58,444.68 711.7506,459.7052 734.2506,474.7152" fill="none" id="BASE-to-CP" style="stroke:#4B5563;stroke-width:1;stroke-dasharray:7,7;"/><polygon fill="#4B5563" points="738.41,477.49,733.1429,469.1679,734.2506,474.7152,728.7033,475.8229,738.41,477.49" style="stroke:#4B5563;stroke-width:1;stroke-linejoin:miter;stroke-miterlimit:10;"/><text fill="#000000" font-family="sans-serif" font-size="13" lengthAdjust="spacing" textLength="74.0137" x="585" y="423.4984">implements</text></g><!--link BASE to OCP--><g class="link" data-entity-1="ent0016" data-entity-2="ent0025" data-link-type="dependency" data-source-line="57" id="lnk40"><path d="M436.5,355.86 C525.93,359.28 687.79,370.87 820,409.93 C836.58,414.83 838.65,421.28 855,426.93 C870.9,432.42 876.31,428.85 892,434.93 C920.38,445.92 945.792,460.4295 968.262,474.8495" fill="none" id="BASE-to-OCP" style="stroke:#4B5563;stroke-width:1;stroke-dasharray:7,7;"/><polygon fill="#4B5563" points="972.47,477.55,967.0559,469.3227,968.262,474.8495,962.7352,476.0556,972.47,477.55" style="stroke:#4B5563;stroke-width:1;stroke-linejoin:miter;stroke-miterlimit:10;"/><text fill="#000000" font-family="sans-serif" font-size="13" lengthAdjust="spacing" textLength="74.0137" x="856" y="423.4984">implements</text></g><!--link PR to LP--><g class="link" data-entity-1="ent0005" data-entity-2="ent0023" data-link-type="dependency" data-source-line="58" id="lnk41"><path d="M1166.76,358.24 C1041.26,365.53 786.04,383.15 701,409.93 C679.18,416.8 675.19,422.46 656,434.93 C635.77,448.07 618.1025,461.1649 601.0125,474.4949" fill="none" id="PR-to-LP" style="stroke:#4B5563;stroke-width:1;"/><polygon fill="#4B5563" points="597.07,477.57,606.6267,475.1888,601.0125,474.4949,601.7065,468.8807,597.07,477.57" style="stroke:#4B5563;stroke-width:1;stroke-linejoin:miter;stroke-miterlimit:10;"/><text fill="#000000" font-family="sans-serif" font-size="13" lengthAdjust="spacing" textLength="109.1733" x="702" y="423.4984">Route to Provider</text></g><!--link PR to CP--><g class="link" data-entity-1="ent0005" data-entity-2="ent0024" data-link-type="dependency" data-source-line="59" id="lnk42"><path d="M1166.43,373.34 C1106.07,388.91 1017.24,410.95 939,426.93 C917.81,431.26 911.34,427.57 891,434.93 C862.23,445.34 836.6832,460.086 814.3932,474.796" fill="none" id="PR-to-CP" style="stroke:#4B5563;stroke-width:1;"/><polygon fill="#4B5563" points="810.22,477.55,819.9349,475.9313,814.3932,474.796,815.5285,469.2542,810.22,477.55" style="stroke:#4B5563;stroke-width:1;stroke-linejoin:miter;stroke-miterlimit:10;"/><text fill="#000000" font-family="sans-serif" font-size="13" lengthAdjust="spacing" textLength="94.853" x="1014.22" y="423.4984">Bypass LiteLLM</text></g><!--link PR to OCP--><g class="link" data-entity-1="ent0005" data-entity-2="ent0025" data-link-type="dependency" data-source-line="60" id="lnk43"><path d="M1198.29,380.39 C1156.57,407.65 1095.5153,447.5344 1053.8253,474.7844" fill="none" id="PR-to-OCP" style="stroke:#4B5563;stroke-width:1;"/><polygon fill="#4B5563" points="1049.64,477.52,1059.362,475.9441,1053.8253,474.7844,1054.985,469.2477,1049.64,477.52" style="stroke:#4B5563;stroke-width:1;stroke-linejoin:miter;stroke-miterlimit:10;"/><text fill="#000000" font-family="sans-serif" font-size="13" lengthAdjust="spacing" textLength="95.9004" x="1152.13" y="423.4984">OAuth Provider</text></g><?plantuml-src ZLNDRkCs4BxhAGRPOsClqYQxmHuAoBBh6bKYLL8tFInWqDBO9aAJMefAOYnwxGFq4Via7PAILagtG2y9nM--RtuvRXwvh9bc9zYnyl6WLIkhI0cbmMWc6u9Gcg0Ph9eZgzGpbmVOCz7W2AbmprfX2dmneU07UI8YbFG7zSWgr5ezUmTlhdStD-z-684fXS0Ek52wGjqPlRj-Vtsx-uRH_mfNOscOF0Y4Bm70HBZp3l2JagQxkxgwklt-lRLyfVvcVxjd-pBu8p2g1gDWfunHb3It7hYIGUt3Welyt1WyGIGuXT9S06lwCyNmDPwBUoOLgK2aD3gh-sWCH_66eDE9oQeJYJVaVd2JQlN4AHl8yC0Rey_EgF-OkjBTxRm-Vv83yGuDgvXXZfXcOy8IZKyBOdNWfRDOheeWpM0s-z4UuGCCGh5IZsqzvkTqg9Yk1XkVGbui0ykr6dGcZJjLeO1VyFnChHahh9d1PtRslFN3G5i_42jCDvP3whZdBsDQh4ectaPjGyrnr3Y91YwTYRnW3S9lMJmkPhYZyh0kOtP6xRZZsqazjrikkTbkNJqfXPOkLo-rqbs_D_UROco_8vVEDexlXgg5YyWPBy9yDKaXlikmgPMaC9VKdbAmnijcgpmTMnPAYOW9aU7d5Xlpohg80YljCdVCuOiG6w4xE-_V6glDgHPetp2p-Nl9ePlJSWXkK8ZJjkvWdofTKYhme5bTTmMD9-6NhajJrjAz9qXgbE5cHlDVa_kTy0yacj0LsJ2-BMc2NgOYqP6PTLguHuooWkyW2LjpT1h9L2IKvgXLpSlBpkVb9xd64xNt4fQ8TOxuI5SMorHBg-mIq9Jpxiaa7_CWJbqTtOSTQ5g1VDONwb-Z2KzK4nBCKUndFolQ55K_fc4SH6a_fs5CMbqnQDedBoCjPZVpgvbBtDSbMQv-3vAExRw8xNActFDfWpygNYBag9_els-hlvgqr6tJKlFQDjyLTQtLPtWuygPlPZ7P60wcIFrxpP9VWyBl2dksJxQjk8A___mBx0y41NGVETWDuWUmBODkZWEx-dnD2Q5LOjhcRQJadX_y3C_dLAEKCDxFQFCLYFuBI5uZtJ9pIgwvTgyFdUjGHrgSQtfLq8rq3tb1N-QUzWy0?></g></svg>