<svg xmlns="http://www.w3.org/2000/svg" xmlns:xlink="http://www.w3.org/1999/xlink" contentStyleType="text/css" data-diagram-type="DESCRIPTION" height="579px" preserveAspectRatio="none" style="width:2764px;height:579px;" version="1.1" viewBox="0 0 2764 579" width="2764px" zoomAndPan="magnify"><?plantuml 1.2026.5?><defs><style><![CDATA[
@media (prefers-color-scheme: dark) {
  text { fill: #e5e7eb !important; }
  path, line, rect, circle, ellipse, polygon, polyline { stroke: #cbd5e1 !important; }
  .entity rect, .participant rect, .participant path, .sequenceLine rect, .class rect, .component rect, .component path, .note rect { fill: #111827 !important; }
  .cluster path { fill: none !important; }
  polygon { fill: #cbd5e1 !important; }
}
]]></style></defs><g><!--cluster External--><g class="cluster" data-qualified-name="External" data-source-line="13" id="ent0001"><path d="M1671.14,49 L1887.1029,49 A3.75,3.75 0 0 1 1889.6029,51.5 L1896.6029,71.4883 L2687.14,71.4883 A2.5,2.5 0 0 1 2689.64,73.9883 L2689.64,150.48 A2.5,2.5 0 0 1 2687.14,152.98 L1671.14,152.98 A2.5,2.5 0 0 1 1668.64,150.48 L1668.64,51.5 A2.5,2.5 0 0 1 1671.14,49" fill="none" style="stroke:#64748B;stroke-width:1.5;"/><line style="stroke:#64748B;stroke-width:1.5;" x1="1668.64" x2="1896.6029" y1="71.4883" y2="71.4883"/><text fill="#000000" font-family="sans-serif" font-size="14" font-weight="700" lengthAdjust="spacing" textLength="214.9629" x="1672.64" y="64.5352">External Messaging Platforms</text></g><!--cluster Channels--><g class="cluster" data-qualified-name="Channels" data-source-line="24" id="ent0011"><path d="M22.14,6 L242.0336,6 A3.75,3.75 0 0 1 244.5336,8.5 L251.5336,28.4883 L1642.14,28.4883 A2.5,2.5 0 0 1 1644.64,30.9883 L1644.64,310.97 A2.5,2.5 0 0 1 1642.14,313.47 L22.14,313.47 A2.5,2.5 0 0 1 19.64,310.97 L19.64,8.5 A2.5,2.5 0 0 1 22.14,6" fill="none" style="stroke:#64748B;stroke-width:1.5;"/><line style="stroke:#64748B;stroke-width:1.5;" x1="19.64" x2="251.5336" y1="28.4883" y2="28.4883"/><text fill="#000000" font-family="sans-serif" font-size="14" font-weight="700" lengthAdjust="spacing" textLength="218.8936" x="23.64" y="21.5352">nanobot/channels Component</text></g><!--cluster Core--><g class="cluster" data-qualified-name="Channels.Core" data-source-line="25" id="ent0012"><path d="M601.14,49 L740.5062,49 A3.75,3.75 0 0 1 743.0062,51.5 L750.0062,71.4883 L1074.14,71.4883 A2.5,2.5 0 0 1 1076.64,73.9883 L1076.64,150.48 A2.5,2.5 0 0 1 1074.14,152.98 L601.14,152.98 A2.5,2.5 0 0 1 598.64,150.48 L598.64,51.5 A2.5,2.5 0 0 1 601.14,49" fill="none" style="stroke:#64748B;stroke-width:1.5;"/><line style="stroke:#64748B;stroke-width:1.5;" x1="598.64" x2="750.0062" y1="71.4883" y2="71.4883"/><text fill="#000000" font-family="sans-serif" font-size="14" font-weight="700" lengthAdjust="spacing" textLength="138.3662" x="602.64" y="64.5352">Core Infrastructure</text></g><!--cluster Implementations--><g class="cluster" data-qualified-name="Channels.Implementations" data-source-line="30" id="ent0016"><path d="M46.14,201.98 L231.7035,201.98 A3.75,3.75 0 0 1 234.2035,204.48 L241.2035,224.4683 L1618.14,224.4683 A2.5,2.5 0 0 1 1620.64,226.9683 L1620.64,286.97 A2.5,2.5 0 0 1 1618.14,289.47 L46.14,289.47 A2.5,2.5 0 0 1 43.64,286.97 L43.64,204.48 A2.5,2.5 0 0 1 46.14,201.98" fill="none" style="stroke:#64748B;stroke-width:1.5;"/><line style="stroke:#64748B;stroke-width:1.5;" x1="43.64" x2="241.2035" y1="224.4683" y2="224.4683"/><text fill="#000000" font-family="sans-serif" font-size="14" font-weight="700" lengthAdjust="spacing" textLength="184.5635" x="47.64" y="217.5152">Channel Implementations</text></g><!--cluster Internal--><g class="cluster" data-qualified-name="Internal" data-source-line="43" id="ent0027"><path d="M683.14,346.47 L839.3978,346.47 A3.75,3.75 0 0 1 841.8978,348.97 L848.8978,368.9583 L849.14,368.9583 A2.5,2.5 0 0 1 851.64,371.4583 L851.64,561.92 A2.5,2.5 0 0 1 849.14,564.42 L683.14,564.42 A2.5,2.5 0 0 1 680.64,561.92 L680.64,348.97 A2.5,2.5 0 0 1 683.14,346.47" fill="none" style="stroke:#64748B;stroke-width:1.5;"/><line style="stroke:#64748B;stroke-width:1.5;" x1="680.64" x2="848.8978" y1="368.9583" y2="368.9583"/><text fill="#000000" font-family="sans-serif" font-size="14" font-weight="700" lengthAdjust="spacing" textLength="155.2578" x="684.64" y="362.0052">Nanobot Core System</text></g><!--entity TG--><g class="entity" data-qualified-name="External.TG" data-source-line="14" id="ent0002"><rect fill="#F8FAFC" height="36.4883" rx="2.5" ry="2.5" style="stroke:#4B5563;stroke-width:0.5;" width="83.7588" x="2589.76" y="92.25"/><text fill="#111827" font-family="sans-serif" font-size="14" lengthAdjust="spacing" textLength="63.7588" x="2599.76" y="115.7852">Telegram</text></g><!--entity DC--><g class="entity" data-qualified-name="External.DC" data-source-line="15" id="ent0003"><rect fill="#F8FAFC" height="36.4883" rx="2.5" ry="2.5" style="stroke:#4B5563;stroke-width:0.5;" width="71.9805" x="1684.65" y="92.25"/><text fill="#111827" font-family="sans-serif" font-size="14" lengthAdjust="spacing" textLength="51.9805" x="1694.65" y="115.7852">Discord</text></g><!--entity SL--><g class="entity" data-qualified-name="External.SL" data-source-line="16" id="ent0004"><rect fill="#F8FAFC" height="36.4883" rx="2.5" ry="2.5" style="stroke:#4B5563;stroke-width:0.5;" width="54.6719" x="1791.3" y="92.25"/><text fill="#111827" font-family="sans-serif" font-size="14" lengthAdjust="spacing" textLength="34.6719" x="1801.3" y="115.7852">Slack</text></g><!--entity FS--><g class="entity" data-qualified-name="External.FS" data-source-line="17" id="ent0005"><rect fill="#F8FAFC" height="36.4883" rx="2.5" ry="2.5" style="stroke:#4B5563;stroke-width:0.5;" width="100.3154" x="1880.48" y="92.25"/><text fill="#111827" font-family="sans-serif" font-size="14" lengthAdjust="spacing" textLength="80.3154" x="1890.48" y="115.7852">Feishu/Lark</text></g><!--entity DT--><g class="entity" data-qualified-name="External.DT" data-source-line="18" id="ent0006"><rect fill="#F8FAFC" height="36.4883" rx="2.5" ry="2.5" style="stroke:#4B5563;stroke-width:0.5;" width="80.7646" x="2016.26" y="92.25"/><text fill="#111827" font-family="sans-serif" font-size="14" lengthAdjust="spacing" textLength="60.7646" x="2026.26" y="115.7852">DingTalk</text></g><!--entity WA--><g class="entity" data-qualified-name="External.WA" data-source-line="19" id="ent0007"><rect fill="#F8FAFC" height="36.4883" rx="2.5" ry="2.5" style="stroke:#4B5563;stroke-width:0.5;" width="88.0518" x="2131.61" y="92.25"/><text fill="#111827" font-family="sans-serif" font-size="14" lengthAdjust="spacing" textLength="68.0518" x="2141.61" y="115.7852">WhatsApp</text></g><!--entity EM--><g class="entity" data-qualified-name="External.EM" data-source-line="20" id="ent0008"><rect fill="#F8FAFC" height="52.9766" rx="2.5" ry="2.5" style="stroke:#4B5563;stroke-width:0.5;" width="97.0205" x="2255.13" y="84"/><text fill="#111827" font-family="sans-serif" font-size="14" lengthAdjust="spacing" textLength="36.4834" x="2285.3986" y="107.5352">Email</text><text fill="#111827" font-family="sans-serif" font-size="14" lengthAdjust="spacing" textLength="77.0205" x="2265.13" y="124.0234">IMAP/SMTP</text></g><!--entity MX--><g class="entity" data-qualified-name="External.MX" data-source-line="21" id="ent0009"><rect fill="#F8FAFC" height="36.4883" rx="2.5" ry="2.5" style="stroke:#4B5563;stroke-width:0.5;" width="63.3877" x="2386.95" y="92.25"/><text fill="#111827" font-family="sans-serif" font-size="14" lengthAdjust="spacing" textLength="43.3877" x="2396.95" y="115.7852">Matrix</text></g><!--entity MC--><g class="entity" data-qualified-name="External.MC" data-source-line="22" id="ent0010"><rect fill="#F8FAFC" height="36.4883" rx="2.5" ry="2.5" style="stroke:#4B5563;stroke-width:0.5;" width="69.4854" x="2484.9" y="92.25"/><text fill="#111827" font-family="sans-serif" font-size="14" lengthAdjust="spacing" textLength="49.4854" x="2494.9" y="115.7852">Mochat</text></g><!--entity BC--><g class="entity" data-qualified-name="Channels.Core.BC" data-source-line="26" id="ent0013"><rect fill="#F8FAFC" height="52.9766" rx="2.5" ry="2.5" style="stroke:#4B5563;stroke-width:0.5;" width="140.4766" x="799.4" y="84"/><text fill="#111827" font-family="sans-serif" font-size="14" lengthAdjust="spacing" textLength="86.0508" x="826.6129" y="107.5352">BaseChannel</text><text fill="#111827" font-family="sans-serif" font-size="14" lengthAdjust="spacing" textLength="120.4766" x="809.4" y="124.0234">Abstract Interface</text></g><!--entity CM--><g class="entity" data-qualified-name="Channels.Core.CM" data-source-line="27" id="ent0014"><rect fill="#F8FAFC" height="52.9766" rx="2.5" ry="2.5" style="stroke:#4B5563;stroke-width:0.5;" width="149.4248" x="614.93" y="84"/><text fill="#111827" font-family="sans-serif" font-size="14" lengthAdjust="spacing" textLength="113.7979" x="632.7435" y="107.5352">ChannelManager</text><text fill="#111827" font-family="sans-serif" font-size="14" lengthAdjust="spacing" textLength="129.4248" x="624.93" y="124.0234">Lifecycle &amp; Routing</text></g><!--entity INIT--><g class="entity" data-qualified-name="Channels.Core.INIT" data-source-line="28" id="ent0015"><rect fill="#F8FAFC" height="52.9766" rx="2.5" ry="2.5" style="stroke:#4B5563;stroke-width:0.5;" width="86.3633" x="974.46" y="84"/><text fill="#111827" font-family="sans-serif" font-size="14" lengthAdjust="spacing" text-decoration="underline" textLength="22.0186" x="996.3545" y="107.5352">init</text><text fill="#111827" font-family="sans-serif" font-size="14" lengthAdjust="spacing" textLength="20.5557" x="1018.3731" y="107.5352">.py</text><text fill="#111827" font-family="sans-serif" font-size="14" lengthAdjust="spacing" textLength="66.3633" x="984.46" y="124.0234">Public API</text></g><!--entity TG_C--><g class="entity" data-qualified-name="Channels.Implementations.TG_C" data-source-line="31" id="ent0017"><rect fill="#F8FAFC" height="36.4883" rx="2.5" ry="2.5" style="stroke:#4B5563;stroke-width:0.5;" width="139.0889" x="1465.1" y="236.98"/><text fill="#111827" font-family="sans-serif" font-size="14" lengthAdjust="spacing" textLength="119.0889" x="1475.1" y="260.5152">TelegramChannel</text></g><!--entity DC_C--><g class="entity" data-qualified-name="Channels.Implementations.DC_C" data-source-line="32" id="ent0018"><rect fill="#F8FAFC" height="36.4883" rx="2.5" ry="2.5" style="stroke:#4B5563;stroke-width:0.5;" width="127.3105" x="59.98" y="236.98"/><text fill="#111827" font-family="sans-serif" font-size="14" lengthAdjust="spacing" textLength="107.3105" x="69.98" y="260.5152">DiscordChannel</text></g><!--entity SL_C--><g class="entity" data-qualified-name="Channels.Implementations.SL_C" data-source-line="33" id="ent0019"><rect fill="#F8FAFC" height="36.4883" rx="2.5" ry="2.5" style="stroke:#4B5563;stroke-width:0.5;" width="110.002" x="222.64" y="236.98"/><text fill="#111827" font-family="sans-serif" font-size="14" lengthAdjust="spacing" textLength="90.002" x="232.64" y="260.5152">SlackChannel</text></g><!--entity FS_C--><g class="entity" data-qualified-name="Channels.Implementations.FS_C" data-source-line="34" id="ent0020"><rect fill="#F8FAFC" height="36.4883" rx="2.5" ry="2.5" style="stroke:#4B5563;stroke-width:0.5;" width="119.1963" x="368.04" y="236.98"/><text fill="#111827" font-family="sans-serif" font-size="14" lengthAdjust="spacing" textLength="99.1963" x="378.04" y="260.5152">FeishuChannel</text></g><!--entity DT_C--><g class="entity" data-qualified-name="Channels.Implementations.DT_C" data-source-line="35" id="ent0021"><rect fill="#F8FAFC" height="36.4883" rx="2.5" ry="2.5" style="stroke:#4B5563;stroke-width:0.5;" width="136.0947" x="522.59" y="236.98"/><text fill="#111827" font-family="sans-serif" font-size="14" lengthAdjust="spacing" textLength="116.0947" x="532.59" y="260.5152">DingTalkChannel</text></g><!--entity WA_C--><g class="entity" data-qualified-name="Channels.Implementations.WA_C" data-source-line="36" id="ent0022"><rect fill="#F8FAFC" height="36.4883" rx="2.5" ry="2.5" style="stroke:#4B5563;stroke-width:0.5;" width="143.3818" x="693.95" y="236.98"/><text fill="#111827" font-family="sans-serif" font-size="14" lengthAdjust="spacing" textLength="123.3818" x="703.95" y="260.5152">WhatsAppChannel</text></g><!--entity EM_C--><g class="entity" data-qualified-name="Channels.Implementations.EM_C" data-source-line="37" id="ent0023"><rect fill="#F8FAFC" height="36.4883" rx="2.5" ry="2.5" style="stroke:#4B5563;stroke-width:0.5;" width="111.8135" x="872.73" y="236.98"/><text fill="#111827" font-family="sans-serif" font-size="14" lengthAdjust="spacing" textLength="91.8135" x="882.73" y="260.5152">EmailChannel</text></g><!--entity MX_C--><g class="entity" data-qualified-name="Channels.Implementations.MX_C" data-source-line="38" id="ent0024"><rect fill="#F8FAFC" height="36.4883" rx="2.5" ry="2.5" style="stroke:#4B5563;stroke-width:0.5;" width="118.7178" x="1019.28" y="236.98"/><text fill="#111827" font-family="sans-serif" font-size="14" lengthAdjust="spacing" textLength="98.7178" x="1029.28" y="260.5152">MatrixChannel</text></g><!--entity QQ_C--><g class="entity" data-qualified-name="Channels.Implementations.QQ_C" data-source-line="39" id="ent0025"><rect fill="#F8FAFC" height="36.4883" rx="2.5" ry="2.5" style="stroke:#4B5563;stroke-width:0.5;" width="97.082" x="1173.1" y="236.98"/><text fill="#111827" font-family="sans-serif" font-size="14" lengthAdjust="spacing" textLength="77.082" x="1183.1" y="260.5152">QQChannel</text></g><!--entity MC_C--><g class="entity" data-qualified-name="Channels.Implementations.MC_C" data-source-line="40" id="ent0026"><rect fill="#F8FAFC" height="36.4883" rx="2.5" ry="2.5" style="stroke:#4B5563;stroke-width:0.5;" width="124.8154" x="1305.23" y="236.98"/><text fill="#111827" font-family="sans-serif" font-size="14" lengthAdjust="spacing" textLength="104.8154" x="1315.23" y="260.5152">MochatChannel</text></g><!--entity BUS--><g class="entity" data-qualified-name="Internal.BUS" data-source-line="44" id="ent0028"><rect fill="#F8FAFC" height="52.9766" rx="2.5" ry="2.5" style="stroke:#4B5563;stroke-width:0.5;" width="106.7002" x="712.29" y="381.47"/><text fill="#111827" font-family="sans-serif" font-size="14" lengthAdjust="spacing" textLength="86.7002" x="722.29" y="405.0052">Message Bus</text><text fill="#111827" font-family="sans-serif" font-size="14" lengthAdjust="spacing" textLength="84.8408" x="723.2197" y="421.4934">Event Queue</text></g><!--entity CORE--><g class="entity" data-qualified-name="Internal.CORE" data-source-line="45" id="ent0029"><rect fill="#F8FAFC" height="52.9766" rx="2.5" ry="2.5" style="stroke:#4B5563;stroke-width:0.5;" width="133.2168" x="699.03" y="495.44"/><text fill="#111827" font-family="sans-serif" font-size="14" lengthAdjust="spacing" textLength="58.1328" x="736.572" y="518.9752">Bot Core</text><text fill="#111827" font-family="sans-serif" font-size="14" lengthAdjust="spacing" textLength="113.2168" x="709.03" y="535.4634">Processing Logic</text></g><!--entity QQ--><g class="entity" data-qualified-name="QQ" data-source-line="55" id="ent0038"><rect fill="#F8FAFC" height="36.4883" rx="2.5" ry="2.5" style="stroke:#4B5563;stroke-width:0.5;" width="41.752" x="2708.76" y="92.25"/><text fill="#111827" font-family="sans-serif" font-size="14" lengthAdjust="spacing" textLength="21.752" x="2718.76" y="115.7852">QQ</text></g><!--link TG to TG_C--><g class="link" data-entity-1="ent0002" data-entity-2="ent0017" data-link-type="dependency" data-source-line="47" id="lnk30"><path d="M2610.8328,132.5408 C2599.5528,143.1808 2587.62,152.79 2571.64,160.98 C2532.78,180.89 2519.71,178.81 2476.64,185.98 C2153.75,239.68 1766.6294,251.0523 1609.5894,253.4923" fill="none" id="TG-TG_C" style="stroke:#4B5563;stroke-width:1;"/><polygon fill="#4B5563" points="2614.47,129.11,2605.1783,132.3758,2610.8328,132.5408,2610.6677,138.1953,2614.47,129.11" style="stroke:#4B5563;stroke-width:1;stroke-linejoin:miter;stroke-miterlimit:10;"/><polygon fill="#4B5563" points="1604.59,253.57,1613.6511,257.4297,1609.5894,253.4923,1613.5268,249.4307,1604.59,253.57" style="stroke:#4B5563;stroke-width:1;stroke-linejoin:miter;stroke-miterlimit:10;"/></g><!--link DC to DC_C--><g class="link" data-entity-1="ent0003" data-entity-2="ent0018" data-link-type="dependency" data-source-line="48" id="lnk31"><path d="M1679.5521,128.7682 C1634.2221,147.0282 1558.64,174.56 1486.64,185.98 C1451.47,191.55 238.41,182.68 204.64,193.98 C179.38,202.43 159.1672,218.6176 143.9772,233.1976" fill="none" id="DC-DC_C" style="stroke:#4B5563;stroke-width:1;"/><polygon fill="#4B5563" points="1684.19,126.9,1674.3473,126.5525,1679.5521,128.7682,1677.3365,133.9731,1684.19,126.9" style="stroke:#4B5563;stroke-width:1;stroke-linejoin:miter;stroke-miterlimit:10;"/><polygon fill="#4B5563" points="140.37,236.66,149.6329,233.3135,143.9772,233.1976,144.0931,227.542,140.37,236.66" style="stroke:#4B5563;stroke-width:1;stroke-linejoin:miter;stroke-miterlimit:10;"/></g><!--link SL to SL_C--><g class="link" data-entity-1="ent0004" data-entity-2="ent0019" data-link-type="dependency" data-source-line="49" id="lnk32"><path d="M1803.8824,133.1618 C1795.7924,143.9618 1787.09,153.15 1773.64,160.98 C1729.94,186.42 1712.88,180.24 1662.64,185.98 C1626.43,190.12 384.9,181.55 350.64,193.98 C327.16,202.5 309.2254,218.4697 295.7654,233.0197" fill="none" id="SL-SL_C" style="stroke:#4B5563;stroke-width:1;"/><polygon fill="#4B5563" points="1806.88,129.16,1798.2828,133.9651,1803.8824,133.1618,1804.6857,138.7613,1806.88,129.16" style="stroke:#4B5563;stroke-width:1;stroke-linejoin:miter;stroke-miterlimit:10;"/><polygon fill="#4B5563" points="292.37,236.69,301.418,232.7997,295.7654,233.0197,295.5454,227.3671,292.37,236.69" style="stroke:#4B5563;stroke-width:1;stroke-linejoin:miter;stroke-miterlimit:10;"/></g><!--link FS to FS_C--><g class="link" data-entity-1="ent0005" data-entity-2="ent0020" data-link-type="dependency" data-source-line="50" id="lnk33"><path d="M1906.927,132.3566 C1894.207,142.8766 1880.79,152.59 1863.64,160.98 C1826.73,179.03 1815.32,180.24 1774.64,185.98 C1739.71,190.9 537.96,182.38 504.64,193.98 C480.28,202.46 461.206,218.5452 446.886,233.1052" fill="none" id="FS-FS_C" style="stroke:#4B5563;stroke-width:1;"/><polygon fill="#4B5563" points="1910.78,129.17,1901.2953,131.8235,1906.927,132.3566,1906.3939,137.9883,1910.78,129.17" style="stroke:#4B5563;stroke-width:1;stroke-linejoin:miter;stroke-miterlimit:10;"/><polygon fill="#4B5563" points="443.38,236.67,452.5427,233.0582,446.886,233.1052,446.839,227.4485,443.38,236.67" style="stroke:#4B5563;stroke-width:1;stroke-linejoin:miter;stroke-miterlimit:10;"/></g><!--link DT to DT_C--><g class="link" data-entity-1="ent0006" data-entity-2="ent0021" data-link-type="dependency" data-source-line="51" id="lnk34"><path d="M2036.9447,132.6257 C2026.1147,143.3957 2014.51,153.06 1998.64,160.98 C1953.01,183.76 1937.32,180.22 1886.64,185.98 C1853.24,189.77 708.66,183.76 676.64,193.98 C650.24,202.4 628.5916,218.7209 612.3416,233.3009" fill="none" id="DT-DT_C" style="stroke:#4B5563;stroke-width:1;"/><polygon fill="#4B5563" points="2040.49,129.1,2031.2878,132.61,2036.9447,132.6257,2036.9289,138.2825,2040.49,129.1" style="stroke:#4B5563;stroke-width:1;stroke-linejoin:miter;stroke-miterlimit:10;"/><polygon fill="#4B5563" points="608.62,236.64,617.9902,233.6068,612.3416,233.3009,612.6476,227.6523,608.62,236.64" style="stroke:#4B5563;stroke-width:1;stroke-linejoin:miter;stroke-miterlimit:10;"/></g><!--link WA to WA_C--><g class="link" data-entity-1="ent0007" data-entity-2="ent0022" data-link-type="dependency" data-source-line="52" id="lnk35"><path d="M2154.8233,132.4608 C2143.3633,143.2108 2131.07,152.97 2114.64,160.98 C2069.96,182.75 2055.01,180.22 2005.64,185.98 C1973.91,189.68 886.17,184.59 855.64,193.98 C828.32,202.38 805.5246,218.7958 788.4146,233.3858" fill="none" id="WA-WA_C" style="stroke:#4B5563;stroke-width:1;"/><polygon fill="#4B5563" points="2158.47,129.04,2149.1693,132.28,2154.8233,132.4608,2154.6426,138.1147,2158.47,129.04" style="stroke:#4B5563;stroke-width:1;stroke-linejoin:miter;stroke-miterlimit:10;"/><polygon fill="#4B5563" points="784.61,236.63,794.0537,233.834,788.4146,233.3858,788.8629,227.7467,784.61,236.63" style="stroke:#4B5563;stroke-width:1;stroke-linejoin:miter;stroke-miterlimit:10;"/></g><!--link EM to EM_C--><g class="link" data-entity-1="ent0008" data-entity-2="ent0023" data-link-type="dependency" data-source-line="53" id="lnk36"><path d="M2270.8824,140.4042 C2259.9024,149.0542 2250.78,154.94 2237.64,160.98 C2190.9,182.45 2175.75,180.21 2124.64,185.98 C2093.64,189.48 1030.96,183.32 1001.64,193.98 C978.17,202.51 960.2254,218.4797 946.7654,233.0297" fill="none" id="EM-EM_C" style="stroke:#4B5563;stroke-width:1;"/><polygon fill="#4B5563" points="2274.81,137.31,2265.265,139.7374,2270.8824,140.4042,2270.2156,146.0216,2274.81,137.31" style="stroke:#4B5563;stroke-width:1;stroke-linejoin:miter;stroke-miterlimit:10;"/><polygon fill="#4B5563" points="943.37,236.7,952.418,232.8097,946.7654,233.0297,946.5454,227.3771,943.37,236.7" style="stroke:#4B5563;stroke-width:1;stroke-linejoin:miter;stroke-miterlimit:10;"/></g><!--link MX to MX_C--><g class="link" data-entity-1="ent0009" data-entity-2="ent0024" data-link-type="dependency" data-source-line="54" id="lnk37"><path d="M2402.8009,132.6274 C2393.8609,143.5374 2384.1,153.15 2369.64,160.98 C2320.97,187.33 2302.69,180.19 2247.64,185.98 C2217.47,189.15 1184.28,183.99 1155.64,193.98 C1131.28,202.48 1112.206,218.5552 1097.886,233.1152" fill="none" id="MX-MX_C" style="stroke:#4B5563;stroke-width:1;"/><polygon fill="#4B5563" points="2405.97,128.76,2397.1717,133.1861,2402.8009,132.6274,2403.3596,138.2566,2405.97,128.76" style="stroke:#4B5563;stroke-width:1;stroke-linejoin:miter;stroke-miterlimit:10;"/><polygon fill="#4B5563" points="1094.38,236.68,1103.5427,233.0682,1097.886,233.1152,1097.839,227.4585,1094.38,236.68" style="stroke:#4B5563;stroke-width:1;stroke-linejoin:miter;stroke-miterlimit:10;"/></g><!--link QQ to QQ_C--><g class="link" data-entity-1="ent0038" data-entity-2="ent0025" data-link-type="dependency" data-source-line="56" id="lnk39"><path d="M2717.9958,133.1183 C2711.1258,144.3783 2703.16,153.94 2689.64,160.98 C2617.92,198.31 2407.44,182.89 2326.64,185.98 C2297.8,187.08 1314.51,183.44 1287.64,193.98 C1265.69,202.59 1249.7144,218.347 1237.7744,232.877" fill="none" id="QQ-QQ_C" style="stroke:#4B5563;stroke-width:1;"/><polygon fill="#4B5563" points="2720.6,128.85,2712.4978,134.4496,2717.9958,133.1183,2719.3271,138.6163,2720.6,128.85" style="stroke:#4B5563;stroke-width:1;stroke-linejoin:miter;stroke-miterlimit:10;"/><polygon fill="#4B5563" points="1234.6,236.74,1243.4044,232.3261,1237.7744,232.877,1237.2236,227.247,1234.6,236.74" style="stroke:#4B5563;stroke-width:1;stroke-linejoin:miter;stroke-miterlimit:10;"/></g><!--link MC to MC_C--><g class="link" data-entity-1="ent0010" data-entity-2="ent0026" data-link-type="dependency" data-source-line="57" id="lnk40"><path d="M2502.1096,132.7494 C2492.5096,143.4994 2482.28,152.95 2467.64,160.98 C2427.09,183.22 2412.52,180.18 2366.64,185.98 C2341.31,189.18 1471.82,185.78 1447.64,193.98 C1422.61,202.47 1402.6843,218.6339 1387.7143,233.1939" fill="none" id="MC-MC_C" style="stroke:#4B5563;stroke-width:1;"/><polygon fill="#4B5563" points="2505.44,129.02,2496.4617,133.0685,2502.1096,132.7494,2502.4287,138.3972,2505.44,129.02" style="stroke:#4B5563;stroke-width:1;stroke-linejoin:miter;stroke-miterlimit:10;"/><polygon fill="#4B5563" points="1384.13,236.68,1393.3706,233.2724,1387.7143,233.1939,1387.7928,227.5376,1384.13,236.68" style="stroke:#4B5563;stroke-width:1;stroke-linejoin:miter;stroke-miterlimit:10;"/></g><!--link TG_C to BC--><g class="link" data-entity-1="ent0017" data-entity-2="ent0013" data-link-type="dependency" data-source-line="58" id="lnk41"><path d="M1514.24,236.58 C1497.44,222.95 1472.44,204.67 1447.64,193.98 C1398.42,172.75 1382.89,175.14 1329.64,168.98 C1288.46,164.22 996.6,172.01 956.64,160.98 C938.72,156.03 924.8296,149.2045 909.7796,139.8745" fill="none" id="TG_C-to-BC" style="stroke:#4B5563;stroke-width:1;stroke-dasharray:7,7;"/><polygon fill="#4B5563" points="905.53,137.24,911.0718,145.3818,909.7796,139.8745,915.2869,138.5824,905.53,137.24" style="stroke:#4B5563;stroke-width:1;stroke-linejoin:miter;stroke-miterlimit:10;"/><text fill="#000000" font-family="sans-serif" font-size="13" lengthAdjust="spacing" textLength="50.1973" x="1427.31" y="182.5484">extends</text></g><!--link DC_C to BC--><g class="link" data-entity-1="ent0018" data-entity-2="ent0013" data-link-type="dependency" data-source-line="59" id="lnk42"><path d="M141.96,236.49 C157.4,222.62 180.74,204.06 204.64,193.98 C208.68,192.27 356.27,169.37 360.64,168.98 C407.24,164.82 736.49,173.26 781.64,160.98 C799.74,156.05 813.8172,149.2131 829.0372,139.8831" fill="none" id="DC_C-to-BC" style="stroke:#4B5563;stroke-width:1;stroke-dasharray:7,7;"/><polygon fill="#4B5563" points="833.3,137.27,823.5364,138.5634,829.0372,139.8831,827.7175,145.3839,833.3,137.27" style="stroke:#4B5563;stroke-width:1;stroke-linejoin:miter;stroke-miterlimit:10;"/><text fill="#000000" font-family="sans-serif" font-size="13" lengthAdjust="spacing" textLength="50.1973" x="361.64" y="182.5484">extends</text></g><!--link SL_C to BC--><g class="link" data-entity-1="ent0019" data-entity-2="ent0013" data-link-type="dependency" data-source-line="60" id="lnk43"><path d="M293.15,236.75 C306.79,222.65 327.96,203.62 350.64,193.98 C379.46,181.73 389.73,191.02 420.64,185.98 C456.52,180.13 464.55,173.29 500.64,168.98 C562.67,161.57 721.44,177.66 781.64,160.98 C799.54,156.02 813.4421,149.2847 828.5821,140.0447" fill="none" id="SL_C-to-BC" style="stroke:#4B5563;stroke-width:1;stroke-dasharray:7,7;"/><polygon fill="#4B5563" points="832.85,137.44,823.0839,138.7142,828.5821,140.0447,827.2515,145.5429,832.85,137.44" style="stroke:#4B5563;stroke-width:1;stroke-linejoin:miter;stroke-miterlimit:10;"/><text fill="#000000" font-family="sans-serif" font-size="13" lengthAdjust="spacing" textLength="50.1973" x="501.64" y="182.5484">extends</text></g><!--link FS_C to BC--><g class="link" data-entity-1="ent0020" data-entity-2="ent0013" data-link-type="dependency" data-source-line="61" id="lnk44"><path d="M444.56,236.64 C459.11,222.68 481.37,203.89 504.64,193.98 C527.77,184.12 535.88,190.34 560.64,185.98 C596.87,179.6 605.18,173.82 641.64,168.98 C672.53,164.88 751.73,169.73 781.64,160.98 C799.3,155.81 813.0031,149.15 828.0631,140.03" fill="none" id="FS_C-to-BC" style="stroke:#4B5563;stroke-width:1;stroke-dasharray:7,7;"/><polygon fill="#4B5563" points="832.34,137.44,822.5696,138.6805,828.0631,140.03,826.7136,145.5235,832.34,137.44" style="stroke:#4B5563;stroke-width:1;stroke-linejoin:miter;stroke-miterlimit:10;"/><text fill="#000000" font-family="sans-serif" font-size="13" lengthAdjust="spacing" textLength="50.1973" x="642.64" y="182.5484">extends</text></g><!--link DT_C to BC--><g class="link" data-entity-1="ent0021" data-entity-2="ent0013" data-link-type="dependency" data-source-line="62" id="lnk45"><path d="M611.75,236.66 C628.49,223.44 652.93,205.66 676.64,193.98 C687.61,188.57 770.42,165.84 781.64,160.98 C797.24,154.23 809.3251,147.9817 823.6951,139.7217" fill="none" id="DT_C-to-BC" style="stroke:#4B5563;stroke-width:1;stroke-dasharray:7,7;"/><polygon fill="#4B5563" points="828.03,137.23,818.2338,138.2472,823.6951,139.7217,822.2206,145.183,828.03,137.23" style="stroke:#4B5563;stroke-width:1;stroke-linejoin:miter;stroke-miterlimit:10;"/><text fill="#000000" font-family="sans-serif" font-size="13" lengthAdjust="spacing" textLength="50.1973" x="757.08" y="182.5484">extends</text></g><!--link WA_C to BC--><g class="link" data-entity-1="ent0022" data-entity-2="ent0013" data-link-type="dependency" data-source-line="63" id="lnk46"><path d="M778.43,236.67 C796.56,211.78 826.9051,170.1408 847.8651,141.3808" fill="none" id="WA_C-to-BC" style="stroke:#4B5563;stroke-width:1;stroke-dasharray:7,7;"/><polygon fill="#4B5563" points="850.81,137.34,842.2766,142.2575,847.8651,141.3808,848.7418,146.9693,850.81,137.34" style="stroke:#4B5563;stroke-width:1;stroke-linejoin:miter;stroke-miterlimit:10;"/><text fill="#000000" font-family="sans-serif" font-size="13" lengthAdjust="spacing" textLength="50.1973" x="827.96" y="182.5484">extends</text></g><!--link EM_C to BC--><g class="link" data-entity-1="ent0023" data-entity-2="ent0013" data-link-type="dependency" data-source-line="64" id="lnk47"><path d="M921.38,236.67 C911.1,211.78 894.1203,170.7207 882.2303,141.9607" fill="none" id="EM_C-to-BC" style="stroke:#4B5563;stroke-width:1;stroke-dasharray:7,7;"/><polygon fill="#4B5563" points="880.32,137.34,880.062,147.1855,882.2303,141.9607,887.4551,144.129,880.32,137.34" style="stroke:#4B5563;stroke-width:1;stroke-linejoin:miter;stroke-miterlimit:10;"/><text fill="#000000" font-family="sans-serif" font-size="13" lengthAdjust="spacing" textLength="50.1973" x="900.14" y="182.5484">extends</text></g><!--link MX_C to BC--><g class="link" data-entity-1="ent0024" data-entity-2="ent0013" data-link-type="dependency" data-source-line="65" id="lnk48"><path d="M1057.53,236.72 C1042.3,224.35 1021.1,207.62 1001.64,193.98 C972.98,173.9 943.8209,155.6033 917.7709,139.8833" fill="none" id="MX_C-to-BC" style="stroke:#4B5563;stroke-width:1;stroke-dasharray:7,7;"/><polygon fill="#4B5563" points="913.49,137.3,919.129,145.3748,917.7709,139.8833,923.2623,138.5253,913.49,137.3" style="stroke:#4B5563;stroke-width:1;stroke-linejoin:miter;stroke-miterlimit:10;"/><text fill="#000000" font-family="sans-serif" font-size="13" lengthAdjust="spacing" textLength="50.1973" x="988.73" y="182.5484">extends</text></g><!--link QQ_C to BC--><g class="link" data-entity-1="ent0025" data-entity-2="ent0013" data-link-type="dependency" data-source-line="66" id="lnk49"><path d="M1206.91,236.53 C1194.59,222.87 1175.83,204.58 1155.64,193.98 C1112.02,171.07 1096.3,176.71 1047.64,168.98 C1007.54,162.61 995.4,173.07 956.64,160.98 C939.39,155.6 926.0729,149.0166 911.2629,140.0166" fill="none" id="QQ_C-to-BC" style="stroke:#4B5563;stroke-width:1;stroke-dasharray:7,7;"/><polygon fill="#4B5563" points="906.99,137.42,912.6039,145.5122,911.2629,140.0166,916.7585,138.6756,906.99,137.42" style="stroke:#4B5563;stroke-width:1;stroke-linejoin:miter;stroke-miterlimit:10;"/><text fill="#000000" font-family="sans-serif" font-size="13" lengthAdjust="spacing" textLength="50.1973" x="1139.79" y="182.5484">extends</text></g><!--link MC_C to BC--><g class="link" data-entity-1="ent0026" data-entity-2="ent0013" data-link-type="dependency" data-source-line="67" id="lnk50"><path d="M1348.62,236.65 C1333.21,223.25 1310.39,205.24 1287.64,193.98 C1250.82,175.75 1239.24,175.26 1198.64,168.98 C1145.47,160.75 1008.42,175.6 956.64,160.98 C938.91,155.97 925.2053,149.2554 910.2453,140.0254" fill="none" id="MC_C-to-BC" style="stroke:#4B5563;stroke-width:1;stroke-dasharray:7,7;"/><polygon fill="#4B5563" points="905.99,137.4,911.5491,145.5299,910.2453,140.0254,915.7498,138.7215,905.99,137.4" style="stroke:#4B5563;stroke-width:1;stroke-linejoin:miter;stroke-miterlimit:10;"/><text fill="#000000" font-family="sans-serif" font-size="13" lengthAdjust="spacing" textLength="50.1973" x="1270.89" y="182.5484">extends</text></g><!--link CM to TG_C--><g class="link" data-entity-1="ent0014" data-entity-2="ent0017" data-link-type="dependency" data-source-line="68" id="lnk51"><path d="M727.78,137.27 C743.72,146.61 762.87,156.06 781.64,160.98 C826.47,172.73 1152.65,163.25 1198.64,168.98 C1231.7,173.1 1238.64,181.43 1271.64,185.98 C1310.42,191.33 1410.54,181.46 1447.64,193.98 C1473.92,202.85 1495.6988,218.937 1512.2288,233.327" fill="none" id="CM-to-TG_C" style="stroke:#4B5563;stroke-width:1;"/><polygon fill="#4B5563" points="1516,236.61,1511.8382,227.6837,1512.2288,233.327,1506.5854,233.7176,1516,236.61" style="stroke:#4B5563;stroke-width:1;stroke-linejoin:miter;stroke-miterlimit:10;"/></g><!--link CM to DC_C--><g class="link" data-entity-1="ent0014" data-entity-2="ent0018" data-link-type="dependency" data-source-line="69" id="lnk52"><path d="M614.57,111.25 C515.67,113.76 338.6,128.16 204.64,193.98 C181.67,205.26 162.3571,220.017 146.7271,233.407" fill="none" id="CM-to-DC_C" style="stroke:#4B5563;stroke-width:1;"/><polygon fill="#4B5563" points="142.93,236.66,152.3672,233.8424,146.7271,233.407,147.1625,227.767,142.93,236.66" style="stroke:#4B5563;stroke-width:1;stroke-linejoin:miter;stroke-miterlimit:10;"/></g><!--link CM to SL_C--><g class="link" data-entity-1="ent0014" data-entity-2="ent0019" data-link-type="dependency" data-source-line="70" id="lnk53"><path d="M614.82,114.85 C519.99,120.47 363.35,134.76 317.64,168.98 C295.66,185.44 286.4155,212.136 281.8955,231.886" fill="none" id="CM-to-SL_C" style="stroke:#4B5563;stroke-width:1;"/><polygon fill="#4B5563" points="280.78,236.76,286.687,228.8792,281.8955,231.886,278.8886,227.0945,280.78,236.76" style="stroke:#4B5563;stroke-width:1;stroke-linejoin:miter;stroke-miterlimit:10;"/></g><!--link CM to FS_C--><g class="link" data-entity-1="ent0014" data-entity-2="ent0020" data-link-type="dependency" data-source-line="71" id="lnk54"><path d="M614.51,122.23 C555.86,132.02 480.6,148.12 457.64,168.98 C438.37,186.49 432.0996,212.1798 429.6396,231.5598" fill="none" id="CM-to-FS_C" style="stroke:#4B5563;stroke-width:1;"/><polygon fill="#4B5563" points="429.01,236.52,434.1115,228.0953,429.6396,231.5598,426.1752,227.0879,429.01,236.52" style="stroke:#4B5563;stroke-width:1;stroke-linejoin:miter;stroke-miterlimit:10;"/></g><!--link CM to DT_C--><g class="link" data-entity-1="ent0014" data-entity-2="ent0021" data-link-type="dependency" data-source-line="72" id="lnk55"><path d="M628.12,137.35 C615.34,145.58 603.41,156.02 595.64,168.98 C583.29,189.57 583.8655,213.2899 586.4655,231.5599" fill="none" id="CM-to-DT_C" style="stroke:#4B5563;stroke-width:1;"/><polygon fill="#4B5563" points="587.17,236.51,589.8621,227.0362,586.4655,231.5599,581.9419,228.1633,587.17,236.51" style="stroke:#4B5563;stroke-width:1;stroke-linejoin:miter;stroke-miterlimit:10;"/></g><!--link CM to WA_C--><g class="link" data-entity-1="ent0014" data-entity-2="ent0022" data-link-type="dependency" data-source-line="73" id="lnk56"><path d="M686.88,137.46 C686.38,152.32 687.63,170.94 694.64,185.98 C704.32,206.74 719.3498,221.4306 735.2598,233.6106" fill="none" id="CM-to-WA_C" style="stroke:#4B5563;stroke-width:1;"/><polygon fill="#4B5563" points="739.23,236.65,734.5152,228.003,735.2598,233.6106,729.6522,234.3552,739.23,236.65" style="stroke:#4B5563;stroke-width:1;stroke-linejoin:miter;stroke-miterlimit:10;"/></g><!--link CM to EM_C--><g class="link" data-entity-1="ent0014" data-entity-2="ent0023" data-link-type="dependency" data-source-line="74" id="lnk57"><path d="M732.39,137.26 C748.52,147.08 766.99,158.45 783.64,168.98 C795.31,176.36 796.81,180.89 809.64,185.98 C828.52,193.47 836.17,185.52 854.64,193.98 C876.93,204.19 894.628,219.211 908.588,233.041" fill="none" id="CM-to-EM_C" style="stroke:#4B5563;stroke-width:1;"/><polygon fill="#4B5563" points="912.14,236.56,908.5615,227.3843,908.588,233.041,902.9312,233.0675,912.14,236.56" style="stroke:#4B5563;stroke-width:1;stroke-linejoin:miter;stroke-miterlimit:10;"/></g><!--link CM to MX_C--><g class="link" data-entity-1="ent0014" data-entity-2="ent0024" data-link-type="dependency" data-source-line="75" id="lnk58"><path d="M728.84,137.22 C744.61,146.31 763.37,155.6 781.64,160.98 C803.24,167.34 863.55,157.04 882.64,168.98 C890.07,173.63 885.2,181.35 892.64,185.98 C913.27,198.8 978.98,185.23 1001.64,193.98 C1025.39,203.15 1044.1811,218.748 1058.6211,232.998" fill="none" id="CM-to-MX_C" style="stroke:#4B5563;stroke-width:1;"/><polygon fill="#4B5563" points="1062.18,236.51,1058.5837,227.3412,1058.6211,232.998,1052.9644,233.0354,1062.18,236.51" style="stroke:#4B5563;stroke-width:1;stroke-linejoin:miter;stroke-miterlimit:10;"/></g><!--link CM to QQ_C--><g class="link" data-entity-1="ent0014" data-entity-2="ent0025" data-link-type="dependency" data-source-line="76" id="lnk59"><path d="M728.3,137.28 C744.15,146.5 763.11,155.87 781.64,160.98 C819.81,171.51 920.86,160.99 959.64,168.98 C980.58,173.29 983.72,181.58 1004.64,185.98 C1037.52,192.89 1124.64,181.01 1155.64,193.98 C1177.25,203.02 1193.1196,218.5268 1205.1296,232.8668" fill="none" id="CM-to-QQ_C" style="stroke:#4B5563;stroke-width:1;"/><polygon fill="#4B5563" points="1208.34,236.7,1205.6279,227.2319,1205.1296,232.8668,1199.4948,232.3685,1208.34,236.7" style="stroke:#4B5563;stroke-width:1;stroke-linejoin:miter;stroke-miterlimit:10;"/></g><!--link CM to MC_C--><g class="link" data-entity-1="ent0014" data-entity-2="ent0026" data-link-type="dependency" data-source-line="77" id="lnk60"><path d="M728.26,137.43 C744.11,146.66 763.07,156 781.64,160.98 C838.76,176.28 988.87,162.4 1047.64,168.98 C1086.79,173.36 1095.54,181.16 1134.64,185.98 C1168.43,190.14 1255.64,182.34 1287.64,193.98 C1312.31,202.95 1332.0925,218.8484 1347.1425,233.2084" fill="none" id="CM-to-MC_C" style="stroke:#4B5563;stroke-width:1;"/><polygon fill="#4B5563" points="1350.76,236.66,1347.0098,227.5531,1347.1425,233.2084,1341.4872,233.341,1350.76,236.66" style="stroke:#4B5563;stroke-width:1;stroke-linejoin:miter;stroke-miterlimit:10;"/></g><!--link TG_C to BUS--><g class="link" data-entity-1="ent0017" data-entity-2="ent0028" data-link-type="dependency" data-source-line="78" id="lnk61"><path d="M1513.391,277.2576 C1496.941,292.5776 1474.6,310.57 1447.64,321.47 C1333.41,367.63 964.7001,394.6255 824.4501,403.4655" fill="none" id="TG_C-BUS" style="stroke:#4B5563;stroke-width:1;"/><polygon fill="#4B5563" points="1517.05,273.85,1507.7377,277.0566,1513.391,277.2576,1513.19,282.9109,1517.05,273.85" style="stroke:#4B5563;stroke-width:1;stroke-linejoin:miter;stroke-miterlimit:10;"/><polygon fill="#4B5563" points="819.46,403.78,828.6938,407.2059,824.4501,403.4655,828.1906,399.2218,819.46,403.78" style="stroke:#4B5563;stroke-width:1;stroke-linejoin:miter;stroke-miterlimit:10;"/></g><!--link DC_C to BUS--><g class="link" data-entity-1="ent0018" data-entity-2="ent0028" data-link-type="dependency" data-source-line="79" id="lnk62"><path d="M143.3832,277.2479 C158.5832,292.4679 179.19,310.26 204.64,321.47 C378.67,398.07 604.15,407.7537 707.06,407.8837" fill="none" id="DC_C-BUS" style="stroke:#4B5563;stroke-width:1;"/><polygon fill="#4B5563" points="139.85,273.71,143.3795,282.9047,143.3832,277.2479,149.0401,277.2516,139.85,273.71" style="stroke:#4B5563;stroke-width:1;stroke-linejoin:miter;stroke-miterlimit:10;"/><polygon fill="#4B5563" points="712.06,407.89,703.0651,403.8786,707.06,407.8837,703.055,411.8786,712.06,407.89" style="stroke:#4B5563;stroke-width:1;stroke-linejoin:miter;stroke-miterlimit:10;"/></g><!--link SL_C to BUS--><g class="link" data-entity-1="ent0019" data-entity-2="ent0028" data-link-type="dependency" data-source-line="80" id="lnk63"><path d="M295.6519,277.4401 C309.2219,292.4601 327.41,309.78 350.64,321.47 C470.4,381.74 624.9802,399.2011 706.9802,404.4411" fill="none" id="SL_C-BUS" style="stroke:#4B5563;stroke-width:1;"/><polygon fill="#4B5563" points="292.3,273.73,295.3654,283.0897,295.6519,277.4401,301.3015,277.7266,292.3,273.73" style="stroke:#4B5563;stroke-width:1;stroke-linejoin:miter;stroke-miterlimit:10;"/><polygon fill="#4B5563" points="711.97,404.76,703.2434,400.1942,706.9802,404.4411,702.7332,408.1779,711.97,404.76" style="stroke:#4B5563;stroke-width:1;stroke-linejoin:miter;stroke-miterlimit:10;"/></g><!--link FS_C to BUS--><g class="link" data-entity-1="ent0020" data-entity-2="ent0028" data-link-type="dependency" data-source-line="81" id="lnk64"><path d="M448.066,277.4349 C462.766,291.9649 481.7,308.64 504.64,321.47 C571.54,358.87 652.4717,381.8701 707.0517,394.6501" fill="none" id="FS_C-BUS" style="stroke:#4B5563;stroke-width:1;"/><polygon fill="#4B5563" points="444.51,273.92,448.0989,283.0917,448.066,277.4349,453.7228,277.402,444.51,273.92" style="stroke:#4B5563;stroke-width:1;stroke-linejoin:miter;stroke-miterlimit:10;"/><polygon fill="#4B5563" points="711.92,395.79,704.069,389.8435,707.0517,394.6501,702.2451,397.6328,711.92,395.79" style="stroke:#4B5563;stroke-width:1;stroke-linejoin:miter;stroke-miterlimit:10;"/></g><!--link DT_C to BUS--><g class="link" data-entity-1="ent0021" data-entity-2="ent0028" data-link-type="dependency" data-source-line="82" id="lnk65"><path d="M614.8483,277.0733 C645.5883,303.5533 696.3711,347.2975 731.9311,377.9175" fill="none" id="DT_C-BUS" style="stroke:#4B5563;stroke-width:1;"/><polygon fill="#4B5563" points="611.06,273.81,615.2683,282.7145,614.8483,277.0733,620.4895,276.6533,611.06,273.81" style="stroke:#4B5563;stroke-width:1;stroke-linejoin:miter;stroke-miterlimit:10;"/><polygon fill="#4B5563" points="735.72,381.18,731.51,372.2763,731.9311,377.9175,726.2899,378.3385,735.72,381.18" style="stroke:#4B5563;stroke-width:1;stroke-linejoin:miter;stroke-miterlimit:10;"/></g><!--link WA_C to BUS--><g class="link" data-entity-1="ent0022" data-entity-2="ent0028" data-link-type="dependency" data-source-line="83" id="lnk66"><path d="M765.64,278.81 C765.64,305.29 765.64,345.56 765.64,376.18" fill="none" id="WA_C-BUS" style="stroke:#4B5563;stroke-width:1;"/><polygon fill="#4B5563" points="765.64,273.81,761.64,282.81,765.64,278.81,769.64,282.81,765.64,273.81" style="stroke:#4B5563;stroke-width:1;stroke-linejoin:miter;stroke-miterlimit:10;"/><polygon fill="#4B5563" points="765.64,381.18,769.64,372.18,765.64,376.18,761.64,372.18,765.64,381.18" style="stroke:#4B5563;stroke-width:1;stroke-linejoin:miter;stroke-miterlimit:10;"/></g><!--link EM_C to BUS--><g class="link" data-entity-1="ent0023" data-entity-2="ent0028" data-link-type="dependency" data-source-line="84" id="lnk67"><path d="M905.9493,277.205 C877.3193,303.685 830.3014,347.1657 797.1814,377.7857" fill="none" id="EM_C-BUS" style="stroke:#4B5563;stroke-width:1;"/><polygon fill="#4B5563" points="909.62,273.81,900.2968,276.9845,905.9493,277.205,905.7288,282.8576,909.62,273.81" style="stroke:#4B5563;stroke-width:1;stroke-linejoin:miter;stroke-miterlimit:10;"/><polygon fill="#4B5563" points="793.51,381.18,802.8339,378.0074,797.1814,377.7857,797.4031,372.1332,793.51,381.18" style="stroke:#4B5563;stroke-width:1;stroke-linejoin:miter;stroke-miterlimit:10;"/></g><!--link MX_C to BUS--><g class="link" data-entity-1="ent0024" data-entity-2="ent0028" data-link-type="dependency" data-source-line="85" id="lnk68"><path d="M1058.0835,277.2341 C1043.3335,291.6441 1024.38,308.29 1001.64,321.47 C943.01,355.44 873.3462,378.3467 823.9062,392.1367" fill="none" id="MX_C-BUS" style="stroke:#4B5563;stroke-width:1;"/><polygon fill="#4B5563" points="1061.66,273.74,1052.427,277.1681,1058.0835,277.2341,1058.0175,282.8905,1061.66,273.74" style="stroke:#4B5563;stroke-width:1;stroke-linejoin:miter;stroke-miterlimit:10;"/><polygon fill="#4B5563" points="819.09,393.48,828.8338,394.9149,823.9062,392.1367,826.6844,387.2091,819.09,393.48" style="stroke:#4B5563;stroke-width:1;stroke-linejoin:miter;stroke-miterlimit:10;"/></g><!--link QQ_C to BUS--><g class="link" data-entity-1="ent0025" data-entity-2="ent0028" data-link-type="dependency" data-source-line="86" id="lnk69"><path d="M1205.567,277.5867 C1193.507,292.5867 1177.3,309.7 1155.64,321.47 C1046.01,381.03 902.7279,398.7519 824.3479,404.2219" fill="none" id="QQ_C-BUS" style="stroke:#4B5563;stroke-width:1;"/><polygon fill="#4B5563" points="1208.7,273.69,1199.9433,278.1977,1205.567,277.5867,1206.178,283.2105,1208.7,273.69" style="stroke:#4B5563;stroke-width:1;stroke-linejoin:miter;stroke-miterlimit:10;"/><polygon fill="#4B5563" points="819.36,404.57,828.6166,407.9337,824.3479,404.2219,828.0597,399.9531,819.36,404.57" style="stroke:#4B5563;stroke-width:1;stroke-linejoin:miter;stroke-miterlimit:10;"/></g><!--link MC_C to BUS--><g class="link" data-entity-1="ent0026" data-entity-2="ent0028" data-link-type="dependency" data-source-line="87" id="lnk70"><path d="M1347.8309,277.4919 C1332.8109,292.6519 1312.64,310.2 1287.64,321.47 C1128.14,393.32 921.9594,405.4896 824.3394,407.0596" fill="none" id="MC_C-BUS" style="stroke:#4B5563;stroke-width:1;"/><polygon fill="#4B5563" points="1351.35,273.94,1342.1741,277.5181,1347.8309,277.4919,1347.8571,283.1487,1351.35,273.94" style="stroke:#4B5563;stroke-width:1;stroke-linejoin:miter;stroke-miterlimit:10;"/><polygon fill="#4B5563" points="819.34,407.14,828.4032,410.9948,824.3394,407.0596,828.2745,402.9958,819.34,407.14" style="stroke:#4B5563;stroke-width:1;stroke-linejoin:miter;stroke-miterlimit:10;"/></g><!--link CM to BUS--><g class="link" data-entity-1="ent0014" data-entity-2="ent0028" data-link-type="dependency" data-source-line="88" id="lnk71"><path d="M609.5386,115.8435 C447.2886,125.3835 80.62,151.41 43.64,193.98 C6.48,236.75 6,279.11 43.64,321.47 C87.97,371.36 546.8654,396.9267 706.7954,404.3967" fill="none" id="CM-BUS" style="stroke:#4B5563;stroke-width:1;"/><polygon fill="#4B5563" points="614.53,115.55,605.3107,112.0852,609.5386,115.8435,605.7803,120.0714,614.53,115.55" style="stroke:#4B5563;stroke-width:1;stroke-linejoin:miter;stroke-miterlimit:10;"/><polygon fill="#4B5563" points="711.79,404.63,702.9864,400.2144,706.7954,404.3967,702.6132,408.2057,711.79,404.63" style="stroke:#4B5563;stroke-width:1;stroke-linejoin:miter;stroke-miterlimit:10;"/></g><!--link BUS to CORE--><g class="link" data-entity-1="ent0028" data-entity-2="ent0029" data-link-type="dependency" data-source-line="89" id="lnk72"><path d="M765.64,439.93 C765.64,458.02 765.64,472.04 765.64,490.1" fill="none" id="BUS-CORE" style="stroke:#4B5563;stroke-width:1;"/><polygon fill="#4B5563" points="765.64,434.93,761.64,443.93,765.64,439.93,769.64,443.93,765.64,434.93" style="stroke:#4B5563;stroke-width:1;stroke-linejoin:miter;stroke-miterlimit:10;"/><polygon fill="#4B5563" points="765.64,495.1,769.64,486.1,765.64,490.1,761.64,486.1,765.64,495.1" style="stroke:#4B5563;stroke-width:1;stroke-linejoin:miter;stroke-miterlimit:10;"/></g><?plantuml-src ZLHDQ-Cm4BtxLuWMzjQMxlQBPIauJb82SJUklQI7G50SsJLr92F9svRI_xxII76as8Sz96ZcFSsCdfuiNYlQO8vtQ8FprvApbcuZLZEE9CTKA8XG6OYE9LxmbhrLj4G5hWLna2qfS5lBZBpBiAvAkbCRKQx-27TO8UVipJGulTfSNz_ySC256W6NPCJubd1BkhcwlRhR393-QrnESebfMHFq6I3a5RRT4PeoActkylBoxlkjPXvLFotk2bpamLSWMOCaGnic9LE7hdI7Yj6WCMEXaycxEZ75DOg94BZKKYrgB0l6T-84OO4wmcTm6Eya8pKfrSX0oHvSQ5o9N4qEo3XoaRHMNI6Vpjtyb5JYfRsOOsxGQUhNesM6QmEDCnTQlc0fmgO1Q1cwq6I7gtf5Pt6uk4ZZR67E4hkK64jUlGCGFti0orLX0qHAn4uiYYbJKbuec59I2nInNSEekaGWH_lqvs5Bn3X1CrfmB2HlSzboOhWwxqawmeBO2YiQRXGTvr9jLV8NE3UxHfwUbXrZgbhn5PrN1Sa_SWLzGq-ibKeuqyixzdfTqKgkr-VDnueksarTvIXSp80vUvnbxe5j1pJRDJNHJmHhznXZ7EM6_M4BM9kiem6Zk9HnjEuxnYMaSvzWhECofkbn5sCVhqtcS_O-SZdBqEU0eLp29FO9nauk8txs6KdYeaboj1zSv-tNQdovz_5e36ZSatu8ISmB19Vq7gbvqWIDMh6Yax_w2vUqfBLM-kEzif6jgYp1MQuswY_1d9LLRYpq-scY1iaUqA-pitjpbUF8171fwTm4S47Jr0Hm5-FCqhJeoz04eEuaDW4e6J-Re2-QLIj84iC0uMBR73JIuw3pytlrFj1Ff3xfX6v5eEVgP_M0_QoUTA12DfJLi_Up-X3zh3vDFwjFCC0Td3UAKQUuNOFWTWrwspN8lUTaXpM8RTUWjLs3r7ODekxpdQOWiNOAQDb5e64NWNO7PkP6e5KNWKPT1Dfq4MXomBn-KNnOgvy9j2N_0G00?></g></svg>