<svg xmlns="http://www.w3.org/2000/svg" xmlns:xlink="http://www.w3.org/1999/xlink" contentStyleType="text/css" data-diagram-type="SEQUENCE" height="665px" preserveAspectRatio="none" style="width:742px;height:665px;background:#FFFFFF;" version="1.1" viewBox="0 0 742 665" width="742px" zoomAndPan="magnify"><?plantuml 1.2026.5?><defs/><rect data-xfeat-white-canvas="true" fill="#FFFFFF" height="100%" width="100%" x="0" y="0"/><g><rect fill="#F8FAFC" height="562" rx="4" ry="4" style="stroke:#CBD5E1;stroke-width:1.5;" width="716.9063" x="10" y="51"/><path d="M10,197 L726.9063,197 L726.9063,313 A4,4 0 0 1 722.9063,317 L14,317 A4,4 0 0 1 10,313 L10,197" fill="#F8FAFC" style="stroke:none;stroke-width:1;"/><path d="M10,317 L726.9063,317 L726.9063,515 A4,4 0 0 1 722.9063,519 L14,519 A4,4 0 0 1 10,515 L10,317" fill="#F8FAFC" style="stroke:none;stroke-width:1;"/><rect fill="#F8FAFC" height="120" rx="4" ry="4" style="stroke:#CBD5E1;stroke-width:1.5;" width="538.25" x="178.6563" y="392"/><path d="M10,519 L726.9063,519 L726.9063,609 A4,4 0 0 1 722.9063,613 L14,613 A4,4 0 0 1 10,609 L10,519" fill="#F8FAFC" style="stroke:none;stroke-width:1;"/><g class="participant-lifeline" data-entity-uid="part1" data-qualified-name="User" data-source-line="2" id="part1-lifeline"><g><title>User</title><rect fill="#000000" fill-opacity="0.00000" height="596" width="8" x="37.7793" y="34"/><line style="stroke:#94A3B8;stroke-width:0.5;stroke-dasharray:5,5;" x1="41" x2="41" y1="34" y2="630"/></g></g><g class="participant-lifeline" data-entity-uid="part2" data-qualified-name="CLI" data-source-line="3" id="part2-lifeline"><g><title>commands.py</title><rect fill="#000000" fill-opacity="0.00000" height="596" width="8" x="235.2285" y="34"/><line style="stroke:#94A3B8;stroke-width:0.5;stroke-dasharray:5,5;" x1="238.6563" x2="238.6563" y1="34" y2="630"/></g></g><g class="participant-lifeline" data-entity-uid="part3" data-qualified-name="Config" data-source-line="4" id="part3-lifeline"><g><title>Configuration</title><rect fill="#000000" fill-opacity="0.00000" height="596" width="8" x="422.6348" y="34"/><line style="stroke:#94A3B8;stroke-width:0.5;stroke-dasharray:5,5;" x1="425.9971" x2="425.9971" y1="34" y2="630"/></g></g><g class="participant-lifeline" data-entity-uid="part4" data-qualified-name="AI" data-source-line="5" id="part4-lifeline"><g><title>AI Provider</title><rect fill="#000000" fill-opacity="0.00000" height="596" width="8" x="522.8965" y="34"/><line style="stroke:#94A3B8;stroke-width:0.5;stroke-dasharray:5,5;" x1="526.2725" x2="526.2725" y1="34" y2="630"/></g></g><g class="participant-lifeline" data-entity-uid="part5" data-qualified-name="Channels" data-source-line="6" id="part5-lifeline"><g><title>Multi-Channel Bus</title><rect fill="#000000" fill-opacity="0.00000" height="596" width="8" x="638.7134" y="34"/><line style="stroke:#94A3B8;stroke-width:0.5;stroke-dasharray:5,5;" x1="642.5205" x2="642.5205" y1="34" y2="630"/></g></g><g class="participant participant-head" data-entity-uid="part1" data-qualified-name="User" data-source-line="2" id="part1-head"><rect fill="#F8FAFC" height="28" rx="4" ry="4" style="stroke:#475569;stroke-width:0.5;" width="43.5586" x="20" y="5"/><text fill="#0F172A" font-family="Helvetica" font-size="14" lengthAdjust="spacing" textLength="29.5586" x="27" y="22.7803">User</text></g><g class="participant participant-tail" data-entity-uid="part1" data-qualified-name="User" data-source-line="2" id="part1-tail"><rect fill="#F8FAFC" height="28" rx="4" ry="4" style="stroke:#475569;stroke-width:0.5;" width="43.5586" x="20" y="629"/><text fill="#0F172A" font-family="Helvetica" font-size="14" lengthAdjust="spacing" textLength="29.5586" x="27" y="646.7803">User</text></g><g class="participant participant-head" data-entity-uid="part2" data-qualified-name="CLI" data-source-line="3" id="part2-head"><rect fill="#F8FAFC" height="28" rx="4" ry="4" style="stroke:#475569;stroke-width:0.5;" width="101.1445" x="188.6563" y="5"/><text fill="#0F172A" font-family="Helvetica" font-size="14" lengthAdjust="spacing" textLength="87.1445" x="195.6563" y="22.7803">commands.py</text></g><g class="participant participant-tail" data-entity-uid="part2" data-qualified-name="CLI" data-source-line="3" id="part2-tail"><rect fill="#F8FAFC" height="28" rx="4" ry="4" style="stroke:#475569;stroke-width:0.5;" width="101.1445" x="188.6563" y="629"/><text fill="#0F172A" font-family="Helvetica" font-size="14" lengthAdjust="spacing" textLength="87.1445" x="195.6563" y="646.7803">commands.py</text></g><g class="participant participant-head" data-entity-uid="part3" data-qualified-name="Config" data-source-line="4" id="part3-head"><rect fill="#F8FAFC" height="28" rx="4" ry="4" style="stroke:#475569;stroke-width:0.5;" width="97.2754" x="377.9971" y="5"/><text fill="#0F172A" font-family="Helvetica" font-size="14" lengthAdjust="spacing" textLength="83.2754" x="384.9971" y="22.7803">Configuration</text></g><g class="participant participant-tail" data-entity-uid="part3" data-qualified-name="Config" data-source-line="4" id="part3-tail"><rect fill="#F8FAFC" height="28" rx="4" ry="4" style="stroke:#475569;stroke-width:0.5;" width="97.2754" x="377.9971" y="629"/><text fill="#0F172A" font-family="Helvetica" font-size="14" lengthAdjust="spacing" textLength="83.2754" x="384.9971" y="646.7803">Configuration</text></g><g class="participant participant-head" data-entity-uid="part4" data-qualified-name="AI" data-source-line="5" id="part4-head"><rect fill="#F8FAFC" height="28" rx="4" ry="4" style="stroke:#475569;stroke-width:0.5;" width="83.248" x="485.2725" y="5"/><text fill="#0F172A" font-family="Helvetica" font-size="14" lengthAdjust="spacing" textLength="69.248" x="492.2725" y="22.7803">AI Provider</text></g><g class="participant participant-tail" data-entity-uid="part4" data-qualified-name="AI" data-source-line="5" id="part4-tail"><rect fill="#F8FAFC" height="28" rx="4" ry="4" style="stroke:#475569;stroke-width:0.5;" width="83.248" x="485.2725" y="629"/><text fill="#0F172A" font-family="Helvetica" font-size="14" lengthAdjust="spacing" textLength="69.248" x="492.2725" y="646.7803">AI Provider</text></g><g class="participant participant-head" data-entity-uid="part5" data-qualified-name="Channels" data-source-line="6" id="part5-head"><rect fill="#F8FAFC" height="28" rx="4" ry="4" style="stroke:#475569;stroke-width:0.5;" width="128.3857" x="578.5205" y="5"/><text fill="#0F172A" font-family="Helvetica" font-size="14" lengthAdjust="spacing" textLength="114.3857" x="585.5205" y="22.7803">Multi-Channel Bus</text></g><g class="participant participant-tail" data-entity-uid="part5" data-qualified-name="Channels" data-source-line="6" id="part5-tail"><rect fill="#F8FAFC" height="28" rx="4" ry="4" style="stroke:#475569;stroke-width:0.5;" width="128.3857" x="578.5205" y="629"/><text fill="#0F172A" font-family="Helvetica" font-size="14" lengthAdjust="spacing" textLength="114.3857" x="585.5205" y="646.7803">Multi-Channel Bus</text></g><path d="M14,51 L71.3379,51 L71.3379,57 L61.3379,67 L10,67 L10,55 A4,4 0 0 1 14,51" fill="#F8FAFC" style="stroke:#CBD5E1;stroke-width:1.5;"/><rect fill="none" height="562" rx="4" ry="4" style="stroke:#CBD5E1;stroke-width:1.5;" width="716.9063" x="10" y="51"/><text fill="#0F172A" font-family="Helvetica" font-size="14" font-weight="700" lengthAdjust="spacing" textLength="16.3379" x="25" y="62.7803">alt</text><text fill="#334155" font-family="Helvetica" font-size="14" font-weight="700" lengthAdjust="spacing" textLength="161.7588" x="86.3379" y="63.7803">[First Run / Onboarding]</text><g class="message" data-entity-1="part1" data-entity-2="part2" data-source-line="8" id="msg1"><line style="stroke:#64748B;stroke-width:1.1;" x1="237.2285" x2="227.2285" y1="85" y2="81"/><line style="stroke:#64748B;stroke-width:1.1;" x1="237.2285" x2="227.2285" y1="85" y2="89"/><line style="stroke:#64748B;stroke-width:1.1;" x1="41.7793" x2="238.2285" y1="85" y2="85"/><text fill="#334155" font-family="Helvetica" font-size="12" lengthAdjust="spacing" textLength="43.377" x="118.8154" y="80.2402">nanobot</text></g><g class="message" data-entity-1="part2" data-entity-2="part3" data-source-line="9" id="msg2"><line style="stroke:#64748B;stroke-width:1.1;" x1="424.6348" x2="414.6348" y1="111" y2="107"/><line style="stroke:#64748B;stroke-width:1.1;" x1="424.6348" x2="414.6348" y1="111" y2="115"/><line style="stroke:#64748B;stroke-width:1.1;" x1="239.2285" x2="425.6348" y1="111" y2="111"/><text fill="#334155" font-family="Helvetica" font-size="12" lengthAdjust="spacing" textLength="96.041" x="284.9111" y="106.2402">Check if initialized</text></g><g class="message" data-entity-1="part3" data-entity-2="part2" data-source-line="10" id="msg3"><line style="stroke:#64748B;stroke-width:1.1;" x1="240.2285" x2="250.2285" y1="137" y2="133"/><line style="stroke:#64748B;stroke-width:1.1;" x1="240.2285" x2="250.2285" y1="137" y2="141"/><line style="stroke:#64748B;stroke-width:1.1;stroke-dasharray:2,2;" x1="239.2285" x2="425.6348" y1="137" y2="137"/><text fill="#334155" font-family="Helvetica" font-size="12" lengthAdjust="spacing" textLength="71.3672" x="297.248" y="132.2402">Not initialized</text></g><g class="message" data-entity-1="part2" data-entity-2="part3" data-source-line="11" id="msg4"><line style="stroke:#64748B;stroke-width:1.1;" x1="424.6348" x2="414.6348" y1="163" y2="159"/><line style="stroke:#64748B;stroke-width:1.1;" x1="424.6348" x2="414.6348" y1="163" y2="167"/><line style="stroke:#64748B;stroke-width:1.1;" x1="239.2285" x2="425.6348" y1="163" y2="163"/><text fill="#334155" font-family="Helvetica" font-size="12" lengthAdjust="spacing" textLength="163.4063" x="251.2285" y="158.2402">Create workspace &amp; templates</text></g><g class="message" data-entity-1="part2" data-entity-2="part1" data-source-line="12" id="msg5"><line style="stroke:#64748B;stroke-width:1.1;" x1="42.7793" x2="52.7793" y1="189" y2="185"/><line style="stroke:#64748B;stroke-width:1.1;" x1="42.7793" x2="52.7793" y1="189" y2="193"/><line style="stroke:#64748B;stroke-width:1.1;stroke-dasharray:2,2;" x1="41.7793" x2="238.2285" y1="189" y2="189"/><text fill="#334155" font-family="Helvetica" font-size="12" lengthAdjust="spacing" textLength="136.0605" x="72.4736" y="184.2402">Display setup instructions</text></g><line style="stroke:#CBD5E1;stroke-width:1;stroke-dasharray:2,2;" x1="10" x2="726.9063" y1="198" y2="198"/><text fill="#334155" font-family="Helvetica" font-size="14" font-weight="700" lengthAdjust="spacing" textLength="114.3584" x="15" y="208.7803">[Interactive Chat]</text><g class="message" data-entity-1="part1" data-entity-2="part2" data-source-line="14" id="msg6"><line style="stroke:#64748B;stroke-width:1.1;" x1="237.2285" x2="227.2285" y1="231" y2="227"/><line style="stroke:#64748B;stroke-width:1.1;" x1="237.2285" x2="227.2285" y1="231" y2="235"/><line style="stroke:#64748B;stroke-width:1.1;" x1="41.7793" x2="238.2285" y1="231" y2="231"/><text fill="#334155" font-family="Helvetica" font-size="12" lengthAdjust="spacing" textLength="119.6895" x="80.6592" y="226.2402">nanobot chat -m 'Hello</text></g><g class="message" data-entity-1="part2" data-entity-2="part4" data-source-line="15" id="msg7"><line style="stroke:#64748B;stroke-width:1.1;" x1="524.8965" x2="514.8965" y1="257" y2="253"/><line style="stroke:#64748B;stroke-width:1.1;" x1="524.8965" x2="514.8965" y1="257" y2="261"/><line style="stroke:#64748B;stroke-width:1.1;" x1="239.2285" x2="525.8965" y1="257" y2="257"/><text fill="#334155" font-family="Helvetica" font-size="12" lengthAdjust="spacing" textLength="190.7695" x="287.6777" y="252.2402">Send message with session context</text></g><g class="message" data-entity-1="part4" data-entity-2="part2" data-source-line="16" id="msg8"><line style="stroke:#64748B;stroke-width:1.1;" x1="240.2285" x2="250.2285" y1="283" y2="279"/><line style="stroke:#64748B;stroke-width:1.1;" x1="240.2285" x2="250.2285" y1="283" y2="287"/><line style="stroke:#64748B;stroke-width:1.1;stroke-dasharray:2,2;" x1="239.2285" x2="525.8965" y1="283" y2="283"/><text fill="#334155" font-family="Helvetica" font-size="12" lengthAdjust="spacing" textLength="91.377" x="337.374" y="278.2402">Stream response</text></g><g class="message" data-entity-1="part2" data-entity-2="part1" data-source-line="17" id="msg9"><line style="stroke:#64748B;stroke-width:1.1;" x1="42.7793" x2="52.7793" y1="309" y2="305"/><line style="stroke:#64748B;stroke-width:1.1;" x1="42.7793" x2="52.7793" y1="309" y2="313"/><line style="stroke:#64748B;stroke-width:1.1;stroke-dasharray:2,2;" x1="41.7793" x2="238.2285" y1="309" y2="309"/><text fill="#334155" font-family="Helvetica" font-size="12" lengthAdjust="spacing" textLength="150.7441" x="65.1318" y="304.2402">Render markdown response</text></g><line style="stroke:#CBD5E1;stroke-width:1;stroke-dasharray:2,2;" x1="10" x2="726.9063" y1="318" y2="318"/><text fill="#334155" font-family="Helvetica" font-size="14" font-weight="700" lengthAdjust="spacing" textLength="107.3516" x="15" y="328.7803">[Gateway Mode]</text><g class="message" data-entity-1="part1" data-entity-2="part2" data-source-line="19" id="msg10"><line style="stroke:#64748B;stroke-width:1.1;" x1="237.2285" x2="227.2285" y1="351" y2="347"/><line style="stroke:#64748B;stroke-width:1.1;" x1="237.2285" x2="227.2285" y1="351" y2="355"/><line style="stroke:#64748B;stroke-width:1.1;" x1="41.7793" x2="238.2285" y1="351" y2="351"/><text fill="#334155" font-family="Helvetica" font-size="12" lengthAdjust="spacing" textLength="43.377" x="64.4434" y="346.2402">nanobot</text><text fill="#334155" font-family="Helvetica" font-size="12" lengthAdjust="spacing" text-decoration="line-through" textLength="44.6953" x="111.1543" y="346.2402">gateway</text><text fill="#334155" font-family="Helvetica" font-size="12" lengthAdjust="spacing" textLength="57.3809" x="159.1836" y="346.2402">port 18790</text></g><g class="message" data-entity-1="part2" data-entity-2="part5" data-source-line="20" id="msg11"><line style="stroke:#64748B;stroke-width:1.1;" x1="640.7134" x2="630.7134" y1="377" y2="373"/><line style="stroke:#64748B;stroke-width:1.1;" x1="640.7134" x2="630.7134" y1="377" y2="381"/><line style="stroke:#64748B;stroke-width:1.1;" x1="239.2285" x2="641.7134" y1="377" y2="377"/><text fill="#334155" font-family="Helvetica" font-size="12" lengthAdjust="spacing" textLength="140.7656" x="370.5881" y="372.2402">Initialize enabled channels</text></g><path d="M182.6563,392 L253.2012,392 L253.2012,398 L243.2012,408 L178.6563,408 L178.6563,396 A4,4 0 0 1 182.6563,392" fill="#F8FAFC" style="stroke:#CBD5E1;stroke-width:1.5;"/><rect fill="none" height="120" rx="4" ry="4" style="stroke:#CBD5E1;stroke-width:1.5;" width="538.25" x="178.6563" y="392"/><text fill="#0F172A" font-family="Helvetica" font-size="14" font-weight="700" lengthAdjust="spacing" textLength="29.5449" x="193.6563" y="403.7803">loop</text><text fill="#334155" font-family="Helvetica" font-size="14" font-weight="700" lengthAdjust="spacing" textLength="147.834" x="268.2012" y="404.7803">[Message Processing]</text><g class="message" data-entity-1="part5" data-entity-2="part2" data-source-line="22" id="msg12"><line style="stroke:#64748B;stroke-width:1.1;" x1="240.2285" x2="250.2285" y1="426" y2="422"/><line style="stroke:#64748B;stroke-width:1.1;" x1="240.2285" x2="250.2285" y1="426" y2="430"/><line style="stroke:#64748B;stroke-width:1.1;" x1="239.2285" x2="641.7134" y1="426" y2="426"/><text fill="#334155" font-family="Helvetica" font-size="12" lengthAdjust="spacing" textLength="100.7168" x="390.6125" y="421.2402">Incoming message</text></g><g class="message" data-entity-1="part2" data-entity-2="part4" data-source-line="23" id="msg13"><line style="stroke:#64748B;stroke-width:1.1;" x1="524.8965" x2="514.8965" y1="452" y2="448"/><line style="stroke:#64748B;stroke-width:1.1;" x1="524.8965" x2="514.8965" y1="452" y2="456"/><line style="stroke:#64748B;stroke-width:1.1;" x1="239.2285" x2="525.8965" y1="452" y2="452"/><text fill="#334155" font-family="Helvetica" font-size="12" lengthAdjust="spacing" textLength="110.0449" x="328.04" y="447.2402">Process with context</text></g><g class="message" data-entity-1="part4" data-entity-2="part2" data-source-line="24" id="msg14"><line style="stroke:#64748B;stroke-width:1.1;" x1="240.2285" x2="250.2285" y1="478" y2="474"/><line style="stroke:#64748B;stroke-width:1.1;" x1="240.2285" x2="250.2285" y1="478" y2="482"/><line style="stroke:#64748B;stroke-width:1.1;stroke-dasharray:2,2;" x1="239.2285" x2="525.8965" y1="478" y2="478"/><text fill="#334155" font-family="Helvetica" font-size="12" lengthAdjust="spacing" textLength="54.0352" x="356.0449" y="473.2402">Response</text></g><g class="message" data-entity-1="part2" data-entity-2="part5" data-source-line="25" id="msg15"><line style="stroke:#64748B;stroke-width:1.1;" x1="640.7134" x2="630.7134" y1="504" y2="500"/><line style="stroke:#64748B;stroke-width:1.1;" x1="640.7134" x2="630.7134" y1="504" y2="508"/><line style="stroke:#64748B;stroke-width:1.1;" x1="239.2285" x2="641.7134" y1="504" y2="504"/><text fill="#334155" font-family="Helvetica" font-size="12" lengthAdjust="spacing" textLength="96.0527" x="392.9446" y="499.2402">Deliver to channel</text></g><line style="stroke:#CBD5E1;stroke-width:1;stroke-dasharray:2,2;" x1="10" x2="726.9063" y1="520" y2="520"/><text fill="#334155" font-family="Helvetica" font-size="14" font-weight="700" lengthAdjust="spacing" textLength="131.4482" x="15" y="530.7803">[Cron Management]</text><g class="message" data-entity-1="part1" data-entity-2="part2" data-source-line="28" id="msg16"><line style="stroke:#64748B;stroke-width:1.1;" x1="237.2285" x2="227.2285" y1="553" y2="549"/><line style="stroke:#64748B;stroke-width:1.1;" x1="237.2285" x2="227.2285" y1="553" y2="557"/><line style="stroke:#64748B;stroke-width:1.1;" x1="41.7793" x2="238.2285" y1="553" y2="553"/><text fill="#334155" font-family="Helvetica" font-size="12" lengthAdjust="spacing" textLength="173.4492" x="53.7793" y="548.2402">nanobot cron add --interval 3600</text></g><g class="message" data-entity-1="part2" data-entity-2="part3" data-source-line="29" id="msg17"><line style="stroke:#64748B;stroke-width:1.1;" x1="424.6348" x2="414.6348" y1="579" y2="575"/><line style="stroke:#64748B;stroke-width:1.1;" x1="424.6348" x2="414.6348" y1="579" y2="583"/><line style="stroke:#64748B;stroke-width:1.1;" x1="239.2285" x2="425.6348" y1="579" y2="579"/><text fill="#334155" font-family="Helvetica" font-size="12" lengthAdjust="spacing" textLength="106.0723" x="279.8955" y="574.2402">Store scheduled job</text></g><g class="message" data-entity-1="part2" data-entity-2="part1" data-source-line="30" id="msg18"><line style="stroke:#64748B;stroke-width:1.1;" x1="42.7793" x2="52.7793" y1="605" y2="601"/><line style="stroke:#64748B;stroke-width:1.1;" x1="42.7793" x2="52.7793" y1="605" y2="609"/><line style="stroke:#64748B;stroke-width:1.1;stroke-dasharray:2,2;" x1="41.7793" x2="238.2285" y1="605" y2="605"/><text fill="#334155" font-family="Helvetica" font-size="12" lengthAdjust="spacing" textLength="107.3789" x="86.8145" y="600.2402">Confirm job creation</text></g><?plantuml-src XLJRaX8n57pVhpZkWpxDYcML5nws2jbIfqhKWl83GdA0I6wLd07Nh_SaCmCoZ6kU8EdqwUuqFDDEcaOXXEWtc9BsJfYATcZnJZVMt02l829fgODm1BS_4iPR40doX-jZwQqLJgMxy5XGyo_rDMZktKPlcoY8vxMmidEDdDNmFVg3LjtGsGZReZ6ag_bEE8S6FZIfPMo_fu8NXk2ZZebWsJXu2T_Ssekej6j7vfNjLFVth7SAJZY_zdGwuyryL3HEcHdb7lG6jDEaXT6_KPsX1LJrJ5yzZSCk6ICAGZZwk4z1I8JdG6Y3uSrqSONlP9rJUD29ZnyX8JM19oIAZSnfjdZsZL0xmYXuzu0v3NhAAaW6G6NXnMSqnWzqpXYuGgV0SaN4bfLgsl7iqXUGdWVzEjFFwfFz5R4p2n5JO6auxcN9p1Z1YhXN_kWkqSN99mxYo6uNNk6JBgfgsq6hAlX8yEhTs_UJOUfTCwQSKFyoW4wi3QgSmxasUHdl0omwtzn5cLt_rPl2srtgvTIEVmOCwlEw19yYxTZQD8Sf3f9S3YCSy_E0XXyx0ldUnmdE6P_pd4T-jeLmBCsY-qynCbOenOdgNAY3CF3wpMJoZoglo4U497UecfpdJxyUV_Lo8TeCu1bO_WfkEgL_0000?></g></svg>