<svg xmlns="http://www.w3.org/2000/svg" xmlns:xlink="http://www.w3.org/1999/xlink" contentStyleType="text/css" data-diagram-type="CLASS" height="604px" preserveAspectRatio="none" style="width:1171px;height:604px;background:#FFFFFF;" version="1.1" viewBox="0 0 1171 604" width="1171px" zoomAndPan="magnify"><?plantuml 1.2026.5?><defs/><rect data-xfeat-white-canvas="true" fill="#FFFFFF" height="100%" width="100%" x="0" y="0"/><g><!--class CronService--><g class="entity" data-qualified-name="CronService" data-source-line="3" id="ent0001"><rect fill="#FFFFFF" height="178" rx="4" ry="4" style="stroke:#64748B;stroke-width:0.5;" width="276.4844" x="596.31" y="7"/><ellipse cx="697.5405" cy="22" fill="#ADD1B2" rx="10" ry="10" style="stroke:#181818;stroke-width:1;"/><path d="M699.4301,26.9561 Q698.9516,27.2021 698.4252,27.3252 Q697.8989,27.4482 697.3178,27.4482 Q695.2534,27.4482 694.1664,26.0879 Q693.0795,24.7275 693.0795,22.1572 Q693.0795,19.5801 694.1664,18.2197 Q695.2534,16.8594 697.3178,16.8594 Q697.8989,16.8594 698.4321,16.9824 Q698.9653,17.1055 699.4301,17.3516 L699.4301,19.5938 Q698.9106,19.1152 698.4218,18.8931 Q697.933,18.6709 697.4135,18.6709 Q696.3061,18.6709 695.7421,19.5493 Q695.1782,20.4277 695.1782,22.1572 Q695.1782,23.8799 695.7421,24.7583 Q696.3061,25.6367 697.4135,25.6367 Q697.933,25.6367 698.4218,25.4146 Q698.9106,25.1924 699.4301,24.7139 Z " fill="#0F172A"/><text fill="#334155" font-family="Helvetica" font-size="12" lengthAdjust="spacing" textLength="66.0234" x="716.5405" y="25.2402">CronService</text><line style="stroke:#64748B;stroke-width:0.5;" x1="597.31" x2="871.7944" y1="37" y2="37"/><line style="stroke:#64748B;stroke-width:0.5;" x1="597.31" x2="871.7944" y1="45" y2="45"/><g data-visibility-modifier="PUBLIC_METHOD"><ellipse cx="607.31" cy="56.5" fill="#84BE84" rx="3" ry="3" style="stroke:#038048;stroke-width:1;"/></g><text fill="#334155" font-family="Helvetica" font-size="12" lengthAdjust="spacing" textLength="56.6777" x="615.31" y="58.2402">start() void</text><g data-visibility-modifier="PUBLIC_METHOD"><ellipse cx="607.31" cy="68.5" fill="#84BE84" rx="3" ry="3" style="stroke:#038048;stroke-width:1;"/></g><text fill="#334155" font-family="Helvetica" font-size="12" lengthAdjust="spacing" textLength="56.0215" x="615.31" y="70.2402">stop() void</text><g data-visibility-modifier="PUBLIC_METHOD"><ellipse cx="607.31" cy="80.5" fill="#84BE84" rx="3" ry="3" style="stroke:#038048;stroke-width:1;"/></g><text fill="#334155" font-family="Helvetica" font-size="12" lengthAdjust="spacing" textLength="140.7305" x="615.31" y="82.2402">schedule(job: CronJob) str</text><g data-visibility-modifier="PUBLIC_METHOD"><ellipse cx="607.31" cy="92.5" fill="#84BE84" rx="3" ry="3" style="stroke:#038048;stroke-width:1;"/></g><text fill="#334155" font-family="Helvetica" font-size="12" lengthAdjust="spacing" textLength="146.748" x="615.31" y="94.2402">unschedule(job_id: str) void</text><g data-visibility-modifier="PUBLIC_METHOD"><ellipse cx="607.31" cy="104.5" fill="#84BE84" rx="3" ry="3" style="stroke:#038048;stroke-width:1;"/></g><text fill="#334155" font-family="Helvetica" font-size="12" lengthAdjust="spacing" textLength="188.0977" x="615.31" y="106.2402">run_job(job_id: str, force: bool) void</text><g data-visibility-modifier="PUBLIC_METHOD"><ellipse cx="607.31" cy="116.5" fill="#84BE84" rx="3" ry="3" style="stroke:#038048;stroke-width:1;"/></g><text fill="#334155" font-family="Helvetica" font-size="12" lengthAdjust="spacing" textLength="251.4844" x="615.31" y="118.2402">list_jobs(include_disabled: bool) List&lt;CronJob&gt;</text><g data-visibility-modifier="PUBLIC_METHOD"><ellipse cx="607.31" cy="128.5" fill="#84BE84" rx="3" ry="3" style="stroke:#038048;stroke-width:1;"/></g><text fill="#334155" font-family="Helvetica" font-size="12" lengthAdjust="spacing" textLength="140.7305" x="615.31" y="130.2402">get_status() ServiceStatus</text><g data-visibility-modifier="PRIVATE_METHOD"><rect fill="#F24D5C" height="6" style="stroke:#C82930;stroke-width:1;" width="6" x="604.31" y="137.5"/></g><text fill="#334155" font-family="Helvetica" font-size="12" lengthAdjust="spacing" textLength="91.3887" x="615.31" y="142.2402">_load_jobs() void</text><g data-visibility-modifier="PRIVATE_METHOD"><rect fill="#F24D5C" height="6" style="stroke:#C82930;stroke-width:1;" width="6" x="604.31" y="149.5"/></g><text fill="#334155" font-family="Helvetica" font-size="12" lengthAdjust="spacing" textLength="94.0488" x="615.31" y="154.2402">_save_jobs() void</text><g data-visibility-modifier="PRIVATE_METHOD"><rect fill="#F24D5C" height="6" style="stroke:#C82930;stroke-width:1;" width="6" x="604.31" y="161.5"/></g><text fill="#334155" font-family="Helvetica" font-size="12" lengthAdjust="spacing" textLength="104.6895" x="615.31" y="166.2402">_rearm_timer() void</text><g data-visibility-modifier="PRIVATE_METHOD"><rect fill="#F24D5C" height="6" style="stroke:#C82930;stroke-width:1;" width="6" x="604.31" y="173.5"/></g><text fill="#334155" font-family="Helvetica" font-size="12" lengthAdjust="spacing" textLength="172.7695" x="615.31" y="178.2402">_execute_job(job: CronJob) void</text></g><!--class CronJob--><g class="entity" data-qualified-name="CronJob" data-source-line="17" id="ent0002"><rect fill="#FFFFFF" height="142" rx="4" ry="4" style="stroke:#64748B;stroke-width:0.5;" width="155.752" x="563.68" y="263"/><ellipse cx="614.8773" cy="278" fill="#ADD1B2" rx="10" ry="10" style="stroke:#181818;stroke-width:1;"/><path d="M616.7669,282.9561 Q616.2884,283.2021 615.762,283.3252 Q615.2357,283.4482 614.6546,283.4482 Q612.5902,283.4482 611.5032,282.0879 Q610.4163,280.7275 610.4163,278.1572 Q610.4163,275.5801 611.5032,274.2197 Q612.5902,272.8594 614.6546,272.8594 Q615.2357,272.8594 615.7689,272.9824 Q616.3021,273.1055 616.7669,273.3516 L616.7669,275.5938 Q616.2474,275.1152 615.7586,274.8931 Q615.2698,274.6709 614.7503,274.6709 Q613.6429,274.6709 613.0789,275.5493 Q612.515,276.4277 612.515,278.1572 Q612.515,279.8799 613.0789,280.7583 Q613.6429,281.6367 614.7503,281.6367 Q615.2698,281.6367 615.7586,281.4146 Q616.2474,281.1924 616.7669,280.7139 Z " fill="#0F172A"/><text fill="#334155" font-family="Helvetica" font-size="12" lengthAdjust="spacing" textLength="45.3574" x="633.8773" y="281.2402">CronJob</text><line style="stroke:#64748B;stroke-width:0.5;" x1="564.68" x2="718.432" y1="293" y2="293"/><g data-visibility-modifier="PUBLIC_FIELD"><ellipse cx="574.68" cy="304.5" fill="none" rx="3" ry="3" style="stroke:#038048;stroke-width:1;"/></g><text fill="#334155" font-family="Helvetica" font-size="12" lengthAdjust="spacing" textLength="29.3379" x="582.68" y="306.2402">id: str</text><g data-visibility-modifier="PUBLIC_FIELD"><ellipse cx="574.68" cy="316.5" fill="none" rx="3" ry="3" style="stroke:#038048;stroke-width:1;"/></g><text fill="#334155" font-family="Helvetica" font-size="12" lengthAdjust="spacing" textLength="50.0156" x="582.68" y="318.2402">name: str</text><g data-visibility-modifier="PUBLIC_FIELD"><ellipse cx="574.68" cy="328.5" fill="none" rx="3" ry="3" style="stroke:#038048;stroke-width:1;"/></g><text fill="#334155" font-family="Helvetica" font-size="12" lengthAdjust="spacing" textLength="72.0645" x="582.68" y="330.2402">enabled: bool</text><g data-visibility-modifier="PUBLIC_FIELD"><ellipse cx="574.68" cy="340.5" fill="none" rx="3" ry="3" style="stroke:#038048;stroke-width:1;"/></g><text fill="#334155" font-family="Helvetica" font-size="12" lengthAdjust="spacing" textLength="130.752" x="582.68" y="342.2402">schedule: CronSchedule</text><g data-visibility-modifier="PUBLIC_FIELD"><ellipse cx="574.68" cy="352.5" fill="none" rx="3" ry="3" style="stroke:#038048;stroke-width:1;"/></g><text fill="#334155" font-family="Helvetica" font-size="12" lengthAdjust="spacing" textLength="111.416" x="582.68" y="354.2402">payload: JobPayload</text><g data-visibility-modifier="PUBLIC_FIELD"><ellipse cx="574.68" cy="364.5" fill="none" rx="3" ry="3" style="stroke:#038048;stroke-width:1;"/></g><text fill="#334155" font-family="Helvetica" font-size="12" lengthAdjust="spacing" textLength="80.0508" x="582.68" y="366.2402">state: JobState</text><g data-visibility-modifier="PUBLIC_FIELD"><ellipse cx="574.68" cy="376.5" fill="none" rx="3" ry="3" style="stroke:#038048;stroke-width:1;"/></g><text fill="#334155" font-family="Helvetica" font-size="12" lengthAdjust="spacing" textLength="109.4004" x="582.68" y="378.2402">created_at: datetime</text><g data-visibility-modifier="PUBLIC_FIELD"><ellipse cx="574.68" cy="388.5" fill="none" rx="3" ry="3" style="stroke:#038048;stroke-width:1;"/></g><text fill="#334155" font-family="Helvetica" font-size="12" lengthAdjust="spacing" textLength="112.752" x="582.68" y="390.2402">updated_at: datetime</text><line style="stroke:#64748B;stroke-width:0.5;" x1="564.68" x2="718.432" y1="397" y2="397"/></g><!--class CronSchedule--><g class="entity" data-qualified-name="CronSchedule" data-source-line="28" id="ent0003"><rect fill="#FFFFFF" height="106" rx="4" ry="4" style="stroke:#64748B;stroke-width:0.5;" width="193.1055" x="7" y="483"/><ellipse cx="61.5283" cy="498" fill="#ADD1B2" rx="10" ry="10" style="stroke:#181818;stroke-width:1;"/><path d="M63.418,502.9561 Q62.9395,503.2021 62.4131,503.3252 Q61.8867,503.4482 61.3057,503.4482 Q59.2412,503.4482 58.1543,502.0879 Q57.0674,500.7275 57.0674,498.1572 Q57.0674,495.5801 58.1543,494.2197 Q59.2412,492.8594 61.3057,492.8594 Q61.8867,492.8594 62.4199,492.9824 Q62.9531,493.1055 63.418,493.3516 L63.418,495.5938 Q62.8984,495.1152 62.4097,494.8931 Q61.9209,494.6709 61.4014,494.6709 Q60.2939,494.6709 59.73,495.5493 Q59.166,496.4277 59.166,498.1572 Q59.166,499.8799 59.73,500.7583 Q60.2939,501.6367 61.4014,501.6367 Q61.9209,501.6367 62.4097,501.4146 Q62.8984,501.1924 63.418,500.7139 Z " fill="#0F172A"/><text fill="#334155" font-family="Helvetica" font-size="12" lengthAdjust="spacing" textLength="76.0488" x="80.5283" y="501.2402">CronSchedule</text><line style="stroke:#64748B;stroke-width:0.5;" x1="8" x2="199.1055" y1="513" y2="513"/><g data-visibility-modifier="PUBLIC_FIELD"><ellipse cx="18" cy="524.5" fill="none" rx="3" ry="3" style="stroke:#038048;stroke-width:1;"/></g><text fill="#334155" font-family="Helvetica" font-size="12" lengthAdjust="spacing" textLength="136.5059" x="26" y="526.2402">kind: "at" | "every" | "cron"</text><g data-visibility-modifier="PUBLIC_FIELD"><ellipse cx="18" cy="536.5" fill="none" rx="3" ry="3" style="stroke:#038048;stroke-width:1;"/></g><text fill="#334155" font-family="Helvetica" font-size="12" lengthAdjust="spacing" textLength="121.4121" x="26" y="538.2402">at: Optional&lt;datetime&gt;</text><g data-visibility-modifier="PUBLIC_FIELD"><ellipse cx="18" cy="548.5" fill="none" rx="3" ry="3" style="stroke:#038048;stroke-width:1;"/></g><text fill="#334155" font-family="Helvetica" font-size="12" lengthAdjust="spacing" textLength="168.1055" x="26" y="550.2402">interval_seconds: Optional&lt;int&gt;</text><g data-visibility-modifier="PUBLIC_FIELD"><ellipse cx="18" cy="560.5" fill="none" rx="3" ry="3" style="stroke:#038048;stroke-width:1;"/></g><text fill="#334155" font-family="Helvetica" font-size="12" lengthAdjust="spacing" textLength="166.7578" x="26" y="562.2402">cron_expression: Optional&lt;str&gt;</text><g data-visibility-modifier="PUBLIC_FIELD"><ellipse cx="18" cy="572.5" fill="none" rx="3" ry="3" style="stroke:#038048;stroke-width:1;"/></g><text fill="#334155" font-family="Helvetica" font-size="12" lengthAdjust="spacing" textLength="127.4004" x="26" y="574.2402">timezone: Optional&lt;str&gt;</text><line style="stroke:#64748B;stroke-width:0.5;" x1="8" x2="199.1055" y1="581" y2="581"/></g><!--class JobPayload--><g class="entity" data-qualified-name="JobPayload" data-source-line="36" id="ent0004"><rect fill="#FFFFFF" height="94" rx="4" ry="4" style="stroke:#64748B;stroke-width:0.5;" width="278.916" x="502.09" y="489"/><ellipse cx="606.1916" cy="504" fill="#ADD1B2" rx="10" ry="10" style="stroke:#181818;stroke-width:1;"/><path d="M608.0812,508.9561 Q607.6027,509.2021 607.0763,509.3252 Q606.55,509.4482 605.9689,509.4482 Q603.9045,509.4482 602.8175,508.0879 Q601.7306,506.7275 601.7306,504.1572 Q601.7306,501.5801 602.8175,500.2197 Q603.9045,498.8594 605.9689,498.8594 Q606.55,498.8594 607.0832,498.9824 Q607.6164,499.1055 608.0812,499.3516 L608.0812,501.5938 Q607.5617,501.1152 607.0729,500.8931 Q606.5841,500.6709 606.0646,500.6709 Q604.9572,500.6709 604.3932,501.5493 Q603.8293,502.4277 603.8293,504.1572 Q603.8293,505.8799 604.3932,506.7583 Q604.9572,507.6367 606.0646,507.6367 Q606.5841,507.6367 607.0729,507.4146 Q607.5617,507.1924 608.0812,506.7139 Z " fill="#0F172A"/><text fill="#334155" font-family="Helvetica" font-size="12" lengthAdjust="spacing" textLength="62.7129" x="625.1916" y="507.2402">JobPayload</text><line style="stroke:#64748B;stroke-width:0.5;" x1="503.09" x2="780.006" y1="519" y2="519"/><g data-visibility-modifier="PUBLIC_FIELD"><ellipse cx="513.09" cy="530.5" fill="none" rx="3" ry="3" style="stroke:#038048;stroke-width:1;"/></g><text fill="#334155" font-family="Helvetica" font-size="12" lengthAdjust="spacing" textLength="253.916" x="521.09" y="532.2402">kind: "agent_turn" | "message" | "system_event"</text><g data-visibility-modifier="PUBLIC_FIELD"><ellipse cx="513.09" cy="542.5" fill="none" rx="3" ry="3" style="stroke:#038048;stroke-width:1;"/></g><text fill="#334155" font-family="Helvetica" font-size="12" lengthAdjust="spacing" textLength="127.4004" x="521.09" y="544.2402">message: Optional&lt;str&gt;</text><g data-visibility-modifier="PUBLIC_FIELD"><ellipse cx="513.09" cy="554.5" fill="none" rx="3" ry="3" style="stroke:#038048;stroke-width:1;"/></g><text fill="#334155" font-family="Helvetica" font-size="12" lengthAdjust="spacing" textLength="120.7441" x="521.09" y="556.2402">channel: Optional&lt;str&gt;</text><g data-visibility-modifier="PUBLIC_FIELD"><ellipse cx="513.09" cy="566.5" fill="none" rx="3" ry="3" style="stroke:#038048;stroke-width:1;"/></g><text fill="#334155" font-family="Helvetica" font-size="12" lengthAdjust="spacing" textLength="124.0664" x="521.09" y="568.2402">recipient: Optional&lt;str&gt;</text><line style="stroke:#64748B;stroke-width:0.5;" x1="503.09" x2="780.006" y1="575" y2="575"/></g><!--class JobState--><g class="entity" data-qualified-name="JobState" data-source-line="43" id="ent0005"><rect fill="#FFFFFF" height="94" rx="4" ry="4" style="stroke:#64748B;stroke-width:0.5;" width="218.8574" x="823.12" y="489"/><ellipse cx="904.8651" cy="504" fill="#ADD1B2" rx="10" ry="10" style="stroke:#181818;stroke-width:1;"/><path d="M906.7548,508.9561 Q906.2763,509.2021 905.7499,509.3252 Q905.2235,509.4482 904.6425,509.4482 Q902.578,509.4482 901.4911,508.0879 Q900.4042,506.7275 900.4042,504.1572 Q900.4042,501.5801 901.4911,500.2197 Q902.578,498.8594 904.6425,498.8594 Q905.2235,498.8594 905.7567,498.9824 Q906.2899,499.1055 906.7548,499.3516 L906.7548,501.5938 Q906.2352,501.1152 905.7465,500.8931 Q905.2577,500.6709 904.7382,500.6709 Q903.6307,500.6709 903.0668,501.5493 Q902.5028,502.4277 902.5028,504.1572 Q902.5028,505.8799 903.0668,506.7583 Q903.6307,507.6367 904.7382,507.6367 Q905.2577,507.6367 905.7465,507.4146 Q906.2352,507.1924 906.7548,506.7139 Z " fill="#0F172A"/><text fill="#334155" font-family="Helvetica" font-size="12" lengthAdjust="spacing" textLength="47.3672" x="923.8651" y="507.2402">JobState</text><line style="stroke:#64748B;stroke-width:0.5;" x1="824.12" x2="1040.9774" y1="519" y2="519"/><g data-visibility-modifier="PUBLIC_FIELD"><ellipse cx="834.12" cy="530.5" fill="none" rx="3" ry="3" style="stroke:#038048;stroke-width:1;"/></g><text fill="#334155" font-family="Helvetica" font-size="12" lengthAdjust="spacing" textLength="158.1035" x="842.12" y="532.2402">next_run: Optional&lt;datetime&gt;</text><g data-visibility-modifier="PUBLIC_FIELD"><ellipse cx="834.12" cy="542.5" fill="none" rx="3" ry="3" style="stroke:#038048;stroke-width:1;"/></g><text fill="#334155" font-family="Helvetica" font-size="12" lengthAdjust="spacing" textLength="154.0957" x="842.12" y="544.2402">last_run: Optional&lt;datetime&gt;</text><g data-visibility-modifier="PUBLIC_FIELD"><ellipse cx="834.12" cy="554.5" fill="none" rx="3" ry="3" style="stroke:#038048;stroke-width:1;"/></g><text fill="#334155" font-family="Helvetica" font-size="12" lengthAdjust="spacing" textLength="193.8574" x="842.12" y="556.2402">status: "success" | "error" | "skipped"</text><g data-visibility-modifier="PUBLIC_FIELD"><ellipse cx="834.12" cy="566.5" fill="none" rx="3" ry="3" style="stroke:#038048;stroke-width:1;"/></g><text fill="#334155" font-family="Helvetica" font-size="12" lengthAdjust="spacing" textLength="159.4102" x="842.12" y="568.2402">error_message: Optional&lt;str&gt;</text><line style="stroke:#64748B;stroke-width:0.5;" x1="824.12" x2="1040.9774" y1="575" y2="575"/></g><!--class JobStore--><g class="entity" data-qualified-name="JobStore" data-source-line="50" id="ent0006"><rect fill="#FFFFFF" height="70" rx="4" ry="4" style="stroke:#64748B;stroke-width:0.5;" width="131.7285" x="761.69" y="299"/><ellipse cx="799.8546" cy="314" fill="#ADD1B2" rx="10" ry="10" style="stroke:#181818;stroke-width:1;"/><path d="M801.7443,318.9561 Q801.2658,319.2021 800.7394,319.3252 Q800.213,319.4482 799.632,319.4482 Q797.5675,319.4482 796.4806,318.0879 Q795.3937,316.7275 795.3937,314.1572 Q795.3937,311.5801 796.4806,310.2197 Q797.5675,308.8594 799.632,308.8594 Q800.213,308.8594 800.7463,308.9824 Q801.2795,309.1055 801.7443,309.3516 L801.7443,311.5938 Q801.2248,311.1152 800.736,310.8931 Q800.2472,310.6709 799.7277,310.6709 Q798.6203,310.6709 798.0563,311.5493 Q797.4923,312.4277 797.4923,314.1572 Q797.4923,315.8799 798.0563,316.7583 Q798.6203,317.6367 799.7277,317.6367 Q800.2472,317.6367 800.736,317.4146 Q801.2248,317.1924 801.7443,316.7139 Z " fill="#0F172A"/><text fill="#334155" font-family="Helvetica" font-size="12" lengthAdjust="spacing" textLength="48.0293" x="818.2246" y="317.2402">JobStore</text><line style="stroke:#64748B;stroke-width:0.5;" x1="762.69" x2="892.4185" y1="329" y2="329"/><g data-visibility-modifier="PUBLIC_FIELD"><ellipse cx="772.69" cy="340.5" fill="none" rx="3" ry="3" style="stroke:#038048;stroke-width:1;"/></g><text fill="#334155" font-family="Helvetica" font-size="12" lengthAdjust="spacing" textLength="58.6816" x="780.69" y="342.2402">version: str</text><g data-visibility-modifier="PUBLIC_FIELD"><ellipse cx="772.69" cy="352.5" fill="none" rx="3" ry="3" style="stroke:#038048;stroke-width:1;"/></g><text fill="#334155" font-family="Helvetica" font-size="12" lengthAdjust="spacing" textLength="106.7285" x="780.69" y="354.2402">jobs: List&lt;CronJob&gt;</text><line style="stroke:#64748B;stroke-width:0.5;" x1="762.69" x2="892.4185" y1="361" y2="361"/></g><g class="entity" data-qualified-name="GMN12" data-source-line="62" id="ent0013"><path d="M914.94,74 L914.94,92 L873.1,96 L914.94,100 L914.94,118 A4,4 0 0 0 918.94,122 L1152.1597,122 A4,4 0 0 0 1156.1597,118 L1156.1597,80 L1146.1597,70 L918.94,70 A4,4 0 0 0 914.94,74" fill="#FFF7ED" style="stroke:#FDBA74;stroke-width:0.5;"/><path d="M1146.1597,70 L1146.1597,78 A2,2 0 0 0 1148.1597,80 L1156.1597,80 L1146.1597,70" fill="#FFF7ED" style="stroke:#FDBA74;stroke-width:0.5;"/><text fill="#7C2D12" font-family="Helvetica" font-size="14" lengthAdjust="spacing" textLength="220.2197" x="920.94" y="85.7803">Event-driven timer-based execution</text><text fill="#7C2D12" font-family="Helvetica" font-size="14" lengthAdjust="spacing" textLength="187.5303" x="937.2847" y="99.7803">Auto-saves after modifications</text><text fill="#7C2D12" font-family="Helvetica" font-size="14" lengthAdjust="spacing" textLength="143.1855" x="959.4571" y="113.7803">Graceful error handling</text></g><g class="entity" data-qualified-name="GMN15" data-source-line="67" id="ent0016"><path d="M242.6,507 L242.6,532 L200.24,536 L242.6,540 L242.6,565 A4,4 0 0 0 246.6,569 L456.5023,569 A4,4 0 0 0 460.5023,565 L460.5023,513 L450.5023,503 L246.6,503 A4,4 0 0 0 242.6,507" fill="#FFF7ED" style="stroke:#FDBA74;stroke-width:0.5;"/><path d="M450.5023,503 L450.5023,511 A2,2 0 0 0 452.5023,513 L460.5023,513 L450.5023,503" fill="#FFF7ED" style="stroke:#FDBA74;stroke-width:0.5;"/><text fill="#7C2D12" font-family="Helvetica" font-size="14" lengthAdjust="spacing" textLength="196.9023" x="248.6" y="518.7803">Supports 3 scheduling patterns:</text><text fill="#7C2D12" font-family="Helvetica" font-size="14" lengthAdjust="spacing" textLength="91.0137" x="301.5443" y="532.7803">- One-time (at)</text><text fill="#7C2D12" font-family="Helvetica" font-size="14" lengthAdjust="spacing" textLength="101.9102" x="296.0961" y="546.7803">- Interval (every)</text><text fill="#7C2D12" font-family="Helvetica" font-size="14" lengthAdjust="spacing" textLength="110.4893" x="291.8065" y="560.7803">- Cron expression</text></g><!--link CronService to CronJob--><g class="link" data-entity-1="ent0001" data-entity-2="ent0002" data-link-type="dependency" data-source-line="55" id="lnk7"><path codeLine="55" d="M699.79,185.21 C689.73,210.74 680.7245,233.6087 671.1445,257.8987" fill="none" id="CronService-to-CronJob" style="stroke:#64748B;stroke-width:1.1;"/><polygon fill="#64748B" points="669.31,262.55,676.3331,255.6452,671.1445,257.8987,668.891,252.7101,669.31,262.55" style="stroke:#64748B;stroke-width:1.1;stroke-linejoin:miter;stroke-miterlimit:10;"/><text fill="#334155" font-family="Helvetica" font-size="12" lengthAdjust="spacing" textLength="49.3652" x="686.26" y="227.2402">manages</text><text fill="#334155" font-family="Helvetica" font-size="12" lengthAdjust="spacing" textLength="6.6738" x="690.6907" y="202.3348">1</text><text fill="#334155" font-family="Helvetica" font-size="12" lengthAdjust="spacing" textLength="4.6699" x="667.8781" y="252.1663">*</text></g><!--reverse link CronJob to CronSchedule--><g class="link" data-entity-1="ent0002" data-entity-2="ent0003" data-link-type="composition" data-source-line="56" id="lnk8"><path codeLine="56" d="M552.2221,366.4782 C430.7621,409.2782 221.55,483 221.55,483 C221.55,483 212.98,486.78 200.46,492.3" fill="none" id="CronJob-backto-CronSchedule" style="stroke:#64748B;stroke-width:1.1;"/><polygon fill="#64748B" points="563.54,362.49,556.5517,360.7115,552.2221,366.4782,559.2105,368.2567,563.54,362.49" style="stroke:#64748B;stroke-width:1.1;stroke-linejoin:miter;stroke-miterlimit:10;"/><text fill="#334155" font-family="Helvetica" font-size="12" lengthAdjust="spacing" textLength="19.3477" x="346.66" y="447.2402">has</text><text fill="#334155" font-family="Helvetica" font-size="12" lengthAdjust="spacing" textLength="6.6738" x="549.22" y="362.0495">1</text><text fill="#334155" font-family="Helvetica" font-size="12" lengthAdjust="spacing" textLength="6.6738" x="208.1349" y="485.7351">1</text></g><!--reverse link CronJob to JobPayload--><g class="link" data-entity-1="ent0002" data-entity-2="ent0004" data-link-type="composition" data-source-line="57" id="lnk9"><path codeLine="57" d="M641.55,417.23 C641.55,444.92 641.55,463.96 641.55,488.74" fill="none" id="CronJob-backto-JobPayload" style="stroke:#64748B;stroke-width:1.1;"/><polygon fill="#64748B" points="641.55,405.23,637.55,411.23,641.55,417.23,645.55,411.23,641.55,405.23" style="stroke:#64748B;stroke-width:1.1;stroke-linejoin:miter;stroke-miterlimit:10;"/><text fill="#334155" font-family="Helvetica" font-size="12" lengthAdjust="spacing" textLength="19.3477" x="642.55" y="447.2402">has</text><text fill="#334155" font-family="Helvetica" font-size="12" lengthAdjust="spacing" textLength="6.6738" x="635.2748" y="422.4346">1</text><text fill="#334155" font-family="Helvetica" font-size="12" lengthAdjust="spacing" textLength="6.6738" x="635.1592" y="478.1577">1</text></g><!--reverse link CronJob to JobState--><g class="link" data-entity-1="ent0002" data-entity-2="ent0005" data-link-type="composition" data-source-line="58" id="lnk10"><path codeLine="58" d="M729.3565,397.0802 C741.6265,405.7602 740.55,405 740.55,405 C740.55,405 808.91,451.28 864.05,488.62" fill="none" id="CronJob-backto-JobState" style="stroke:#64748B;stroke-width:1.1;"/><polygon fill="#64748B" points="719.56,390.15,722.1482,396.8806,729.3565,397.0802,726.7683,390.3496,719.56,390.15" style="stroke:#64748B;stroke-width:1.1;stroke-linejoin:miter;stroke-miterlimit:10;"/><text fill="#334155" font-family="Helvetica" font-size="12" lengthAdjust="spacing" textLength="32.0039" x="809.14" y="447.2402">tracks</text><text fill="#334155" font-family="Helvetica" font-size="12" lengthAdjust="spacing" textLength="6.6738" x="727.3128" y="392.1702">1</text><text fill="#334155" font-family="Helvetica" font-size="12" lengthAdjust="spacing" textLength="6.6738" x="848.0429" y="478.3537">1</text></g><!--link CronService to JobStore--><g class="link" data-entity-1="ent0001" data-entity-2="ent0006" data-link-type="dependency" data-source-line="59" id="lnk11"><path codeLine="59" d="M769.31,185.21 C784.9,224.75 800.5274,264.408 812.2274,294.108" fill="none" id="CronService-to-JobStore" style="stroke:#64748B;stroke-width:1.1;stroke-dasharray:7,7;"/><polygon fill="#64748B" points="814.06,298.76,814.4829,288.9202,812.2274,294.108,807.0396,291.8524,814.06,298.76" style="stroke:#64748B;stroke-width:1.1;stroke-linejoin:miter;stroke-miterlimit:10;"/><text fill="#334155" font-family="Helvetica" font-size="12" lengthAdjust="spacing" textLength="90.0234" x="787.62" y="227.2402">persists to JSON</text></g><?plantuml-src ZLNRRjim37tlLt1-IhkvmB0temWm3CEmObW6v0CCHM8IhROaI7JGxFBlesGdbdFfwXVBv15r3YdIRxIHJQSGdBTh345R8vgIjjZYlUxQveQi0xAmiaIs1QKzIcBG3V0Z6n42VFBMBD7lj4JudUpnUHj8U9hTmivgbLkjEpVABQgkmTbFkwfIl4UxkeL0ViHq9aVLMbNHVnh9TwPcTmvv1slh9LOimJQd-4O7YXl2RCX3hNGGgmRL0V-D4Gy3fVcuSODKiqBg0giPr2_Jzn5JreqLgez-ScvP1x73AowFmhSrwHRzkHEVKNQ41v5Pjex0lpSdnM5tNfWXBwF1Y1PFJ6Yo99mNgZzsENoDVYVsKNC5VEIFVZsv48J95HELxPAic53LWYfGl8hIiy8xTTbxflF09nVxf0tJAGGLy0SAtA7VfvLaV372Ol25etJx7mwdPENMXhZ6ega3IcjKoD3ickTQhE4YET_tKeRZ_6Qu6F-NDNW9C14sPlAIh0qQggdp9ebg-L0sfNNO1yAsPiM6Cg43v2elkHN6O7FLp-sldUQOho6UwfpJDlXCDVVeoydcxQz0zTt7IGYTbAogBx3trlVwdxHpg3BfoLU_a81p-jPFwFFjwOiwwPNOnTM5EJ64oyTZyRw0ifn3SLSSExE2LXXc58xeQ8t8kx9CxydThc0hhaEps_9VO5-T2iWB-HJEkDxVpySaLE2Yza0X_WmUbulllJXZEOJNcos1NUVRX_HyZjUlL5xp6z98ArSYe89-ZXr-900VEx9b78e1n9fx3Lghz5fB4J67cVg5cUAwQo2LalKPrMYpILuqAh6vHciwgvQTSzQpcWymp3IE0quG7sr2DQ1AM1Wi8ssO2RezMhyEqm1cQQ2CZdWIZDq_8VOF?></g></svg>