<svg xmlns="http://www.w3.org/2000/svg" xmlns:xlink="http://www.w3.org/1999/xlink" contentStyleType="text/css" data-diagram-type="SEQUENCE" height="623px" preserveAspectRatio="none" style="width:668px;height:623px;background:#FFFFFF;" version="1.1" viewBox="0 0 668 623" width="668px" zoomAndPan="magnify"><?plantuml 1.2026.5?><defs/><rect data-xfeat-white-canvas="true" fill="#FFFFFF" height="100%" width="100%" x="0" y="0"/><g><rect fill="#F8FAFC" height="107" rx="4" ry="4" style="stroke:#CBD5E1;stroke-width:1.5;" width="303.9956" x="348.2256" y="366"/><rect fill="#F8FAFC" height="84" rx="4" ry="4" style="stroke:#CBD5E1;stroke-width:1.5;" width="576.7383" x="10" y="487"/><path d="M10,529 L586.7383,529 L586.7383,567 A4,4 0 0 1 582.7383,571 L14,571 A4,4 0 0 1 10,567 L10,529" fill="#F8FAFC" style="stroke:none;stroke-width:1;"/><g class="participant-lifeline" data-entity-uid="part1" data-qualified-name="Bot" data-source-line="2" id="part1-lifeline"><g><title>nanobot</title><rect fill="#000000" fill-opacity="0.00000" height="554" width="8" x="48.3032" y="34"/><line style="stroke:#94A3B8;stroke-width:0.5;stroke-dasharray:5,5;" x1="52" x2="52" y1="34" y2="588"/></g></g><g class="participant-lifeline" data-entity-uid="part2" data-qualified-name="FS" data-source-line="3" id="part2-lifeline"><g><title>find-sessions.sh</title><rect fill="#000000" fill-opacity="0.00000" height="554" width="8" x="242.3599" y="34"/><line style="stroke:#94A3B8;stroke-width:0.5;stroke-dasharray:5,5;" x1="246.1704" x2="246.1704" y1="34" y2="588"/></g></g><g class="participant-lifeline" data-entity-uid="part3" data-qualified-name="TMUX" data-source-line="4" id="part3-lifeline"><g><title>tmux server</title><rect fill="#000000" fill-opacity="0.00000" height="554" width="8" x="397.7876" y="34"/><line style="stroke:#94A3B8;stroke-width:0.5;stroke-dasharray:5,5;" x1="401.2256" x2="401.2256" y1="34" y2="588"/></g></g><g class="participant-lifeline" data-entity-uid="part4" data-qualified-name="WFT" data-source-line="5" id="part4-lifeline"><g><title>wait-for-text.sh</title><rect fill="#000000" fill-opacity="0.00000" height="554" width="8" x="519.8384" y="34"/><line style="stroke:#94A3B8;stroke-width:0.5;stroke-dasharray:5,5;" x1="522.9385" x2="522.9385" y1="34" y2="588"/></g></g><g class="participant participant-head" data-entity-uid="part1" data-qualified-name="Bot" data-source-line="2" id="part1-head"><rect fill="#F8FAFC" height="28" rx="4" ry="4" style="stroke:#475569;stroke-width:0.5;" width="64.6064" x="20" y="5"/><text fill="#0F172A" font-family="Helvetica" font-size="14" lengthAdjust="spacing" textLength="50.6064" x="27" y="22.7803">nanobot</text></g><g class="participant participant-tail" data-entity-uid="part1" data-qualified-name="Bot" data-source-line="2" id="part1-tail"><rect fill="#F8FAFC" height="28" rx="4" ry="4" style="stroke:#475569;stroke-width:0.5;" width="64.6064" x="20" y="587"/><text fill="#0F172A" font-family="Helvetica" font-size="14" lengthAdjust="spacing" textLength="50.6064" x="27" y="604.7803">nanobot</text></g><g class="participant participant-head" data-entity-uid="part2" data-qualified-name="FS" data-source-line="3" id="part2-head"><rect fill="#F8FAFC" height="28" rx="4" ry="4" style="stroke:#475569;stroke-width:0.5;" width="114.3789" x="189.1704" y="5"/><text fill="#0F172A" font-family="Helvetica" font-size="14" lengthAdjust="spacing" textLength="100.3789" x="196.1704" y="22.7803">find-sessions.sh</text></g><g class="participant participant-tail" data-entity-uid="part2" data-qualified-name="FS" data-source-line="3" id="part2-tail"><rect fill="#F8FAFC" height="28" rx="4" ry="4" style="stroke:#475569;stroke-width:0.5;" width="114.3789" x="189.1704" y="587"/><text fill="#0F172A" font-family="Helvetica" font-size="14" lengthAdjust="spacing" textLength="100.3789" x="196.1704" y="604.7803">find-sessions.sh</text></g><g class="participant participant-head" data-entity-uid="part3" data-qualified-name="TMUX" data-source-line="4" id="part3-head"><rect fill="#F8FAFC" height="28" rx="4" ry="4" style="stroke:#475569;stroke-width:0.5;" width="87.124" x="358.2256" y="5"/><text fill="#0F172A" font-family="Helvetica" font-size="14" lengthAdjust="spacing" textLength="73.124" x="365.2256" y="22.7803">tmux server</text></g><g class="participant participant-tail" data-entity-uid="part3" data-qualified-name="TMUX" data-source-line="4" id="part3-tail"><rect fill="#F8FAFC" height="28" rx="4" ry="4" style="stroke:#475569;stroke-width:0.5;" width="87.124" x="358.2256" y="587"/><text fill="#0F172A" font-family="Helvetica" font-size="14" lengthAdjust="spacing" textLength="73.124" x="365.2256" y="604.7803">tmux server</text></g><g class="participant participant-head" data-entity-uid="part4" data-qualified-name="WFT" data-source-line="5" id="part4-head"><rect fill="#F8FAFC" height="28" rx="4" ry="4" style="stroke:#475569;stroke-width:0.5;" width="105.7998" x="470.9385" y="5"/><text fill="#0F172A" font-family="Helvetica" font-size="14" lengthAdjust="spacing" textLength="91.7998" x="477.9385" y="22.7803">wait-for-text.sh</text></g><g class="participant participant-tail" data-entity-uid="part4" data-qualified-name="WFT" data-source-line="5" id="part4-tail"><rect fill="#F8FAFC" height="28" rx="4" ry="4" style="stroke:#475569;stroke-width:0.5;" width="105.7998" x="470.9385" y="587"/><text fill="#0F172A" font-family="Helvetica" font-size="14" lengthAdjust="spacing" textLength="91.7998" x="477.9385" y="604.7803">wait-for-text.sh</text></g><path d="M12,53 L12,69 A4,4 0 0 0 16,73 L559,73 A4,4 0 0 0 563,69 L563,59 L553,49 L16,49 A4,4 0 0 0 12,53" fill="#FFF7ED" style="stroke:#FDBA74;stroke-width:0.5;"/><path d="M553,49 L553,57 A2,2 0 0 0 555,59 L563,59 L553,49" fill="#FFF7ED" style="stroke:#FDBA74;stroke-width:0.5;"/><text fill="#7C2D12" font-family="Helvetica" font-size="14" lengthAdjust="spacing" textLength="105.041" x="235.3486" y="64.7803">Discovery Phase</text><g class="message" data-entity-1="part1" data-entity-2="part2" data-source-line="7" id="msg1"><line style="stroke:#64748B;stroke-width:1.1;" x1="244.3599" x2="234.3599" y1="96" y2="92"/><line style="stroke:#64748B;stroke-width:1.1;" x1="244.3599" x2="234.3599" y1="96" y2="100"/><line style="stroke:#64748B;stroke-width:1.1;" x1="52.3032" x2="245.3599" y1="96" y2="96"/><text fill="#334155" font-family="Helvetica" font-size="12" lengthAdjust="spacing" textLength="122.7188" x="87.9722" y="91.2402">Execute with socket dir</text></g><g class="message" data-entity-1="part2" data-entity-2="part2" data-source-line="8" id="msg2"><line style="stroke:#64748B;stroke-width:1.1;" x1="246.3599" x2="288.3599" y1="122" y2="122"/><line style="stroke:#64748B;stroke-width:1.1;" x1="288.3599" x2="288.3599" y1="122" y2="135"/><line style="stroke:#64748B;stroke-width:1.1;" x1="246.3599" x2="288.3599" y1="135" y2="135"/><line style="stroke:#64748B;stroke-width:1.1;" x1="247.3599" x2="257.3599" y1="135" y2="131"/><line style="stroke:#64748B;stroke-width:1.1;" x1="247.3599" x2="257.3599" y1="135" y2="139"/><text fill="#334155" font-family="Helvetica" font-size="12" lengthAdjust="spacing" textLength="141.4277" x="253.3599" y="117.2402">Validate tmux dependency</text></g><g class="message" data-entity-1="part2" data-entity-2="part3" data-source-line="9" id="msg3"><line style="stroke:#64748B;stroke-width:1.1;" x1="399.7876" x2="389.7876" y1="161" y2="157"/><line style="stroke:#64748B;stroke-width:1.1;" x1="399.7876" x2="389.7876" y1="161" y2="165"/><line style="stroke:#64748B;stroke-width:1.1;" x1="246.3599" x2="400.7876" y1="161" y2="161"/><text fill="#334155" font-family="Helvetica" font-size="12" lengthAdjust="spacing" textLength="121.3594" x="263.394" y="156.2402">List sessions (-L/-S/-A)</text></g><g class="message" data-entity-1="part3" data-entity-2="part2" data-source-line="10" id="msg4"><line style="stroke:#64748B;stroke-width:1.1;" x1="247.3599" x2="257.3599" y1="187" y2="183"/><line style="stroke:#64748B;stroke-width:1.1;" x1="247.3599" x2="257.3599" y1="187" y2="191"/><line style="stroke:#64748B;stroke-width:1.1;stroke-dasharray:2,2;" x1="246.3599" x2="400.7876" y1="187" y2="187"/><text fill="#334155" font-family="Helvetica" font-size="12" lengthAdjust="spacing" textLength="96.0586" x="276.0444" y="182.2402">Session metadata</text></g><g class="message" data-entity-1="part2" data-entity-2="part2" data-source-line="11" id="msg5"><line style="stroke:#64748B;stroke-width:1.1;" x1="246.3599" x2="288.3599" y1="213" y2="213"/><line style="stroke:#64748B;stroke-width:1.1;" x1="288.3599" x2="288.3599" y1="213" y2="226"/><line style="stroke:#64748B;stroke-width:1.1;" x1="246.3599" x2="288.3599" y1="226" y2="226"/><line style="stroke:#64748B;stroke-width:1.1;" x1="247.3599" x2="257.3599" y1="226" y2="222"/><line style="stroke:#64748B;stroke-width:1.1;" x1="247.3599" x2="257.3599" y1="226" y2="230"/><text fill="#334155" font-family="Helvetica" font-size="12" lengthAdjust="spacing" textLength="129.3867" x="253.3599" y="208.2402">Filter by query (optional)</text></g><g class="message" data-entity-1="part2" data-entity-2="part1" data-source-line="12" id="msg6"><line style="stroke:#64748B;stroke-width:1.1;" x1="53.3032" x2="63.3032" y1="252" y2="248"/><line style="stroke:#64748B;stroke-width:1.1;" x1="53.3032" x2="63.3032" y1="252" y2="256"/><line style="stroke:#64748B;stroke-width:1.1;stroke-dasharray:2,2;" x1="52.3032" x2="245.3599" y1="252" y2="252"/><text fill="#334155" font-family="Helvetica" font-size="12" lengthAdjust="spacing" textLength="170.0566" x="64.3032" y="247.2402">Session list (name, status, time)</text></g><path d="M12,269 L12,285 A4,4 0 0 0 16,289 L559,289 A4,4 0 0 0 563,285 L563,275 L553,265 L16,265 A4,4 0 0 0 12,269" fill="#FFF7ED" style="stroke:#FDBA74;stroke-width:0.5;"/><path d="M553,265 L553,273 A2,2 0 0 0 555,275 L563,275 L553,265" fill="#FFF7ED" style="stroke:#FDBA74;stroke-width:0.5;"/><text fill="#7C2D12" font-family="Helvetica" font-size="14" lengthAdjust="spacing" textLength="143.1992" x="216.2695" y="280.7803">Synchronization Phase</text><g class="message" data-entity-1="part1" data-entity-2="part4" data-source-line="14" id="msg7"><line style="stroke:#64748B;stroke-width:1.1;" x1="521.8384" x2="511.8384" y1="312" y2="308"/><line style="stroke:#64748B;stroke-width:1.1;" x1="521.8384" x2="511.8384" y1="312" y2="316"/><line style="stroke:#64748B;stroke-width:1.1;" x1="52.3032" x2="522.8384" y1="312" y2="312"/><text fill="#334155" font-family="Helvetica" font-size="12" lengthAdjust="spacing" textLength="154.084" x="211.0288" y="307.2402">Execute with target &amp; pattern</text></g><g class="message" data-entity-1="part4" data-entity-2="part4" data-source-line="15" id="msg8"><line style="stroke:#64748B;stroke-width:1.1;" x1="523.8384" x2="565.8384" y1="338" y2="338"/><line style="stroke:#64748B;stroke-width:1.1;" x1="565.8384" x2="565.8384" y1="338" y2="351"/><line style="stroke:#64748B;stroke-width:1.1;" x1="523.8384" x2="565.8384" y1="351" y2="351"/><line style="stroke:#64748B;stroke-width:1.1;" x1="524.8384" x2="534.8384" y1="351" y2="347"/><line style="stroke:#64748B;stroke-width:1.1;" x1="524.8384" x2="534.8384" y1="351" y2="355"/><text fill="#334155" font-family="Helvetica" font-size="12" lengthAdjust="spacing" textLength="107.3906" x="530.8384" y="333.2402">Validate parameters</text></g><path d="M352.2256,366 L422.7705,366 L422.7705,372 L412.7705,382 L348.2256,382 L348.2256,370 A4,4 0 0 1 352.2256,366" fill="#F8FAFC" style="stroke:#CBD5E1;stroke-width:1.5;"/><rect fill="none" height="107" rx="4" ry="4" style="stroke:#CBD5E1;stroke-width:1.5;" width="303.9956" x="348.2256" y="366"/><text fill="#0F172A" font-family="Helvetica" font-size="14" font-weight="700" lengthAdjust="spacing" textLength="29.5449" x="363.2256" y="377.7803">loop</text><text fill="#334155" font-family="Helvetica" font-size="14" font-weight="700" lengthAdjust="spacing" textLength="157.8828" x="437.7705" y="378.7803">[Until timeout or match]</text><g class="message" data-entity-1="part4" data-entity-2="part3" data-source-line="17" id="msg9"><line style="stroke:#64748B;stroke-width:1.1;" x1="402.7876" x2="412.7876" y1="400" y2="396"/><line style="stroke:#64748B;stroke-width:1.1;" x1="402.7876" x2="412.7876" y1="400" y2="404"/><line style="stroke:#64748B;stroke-width:1.1;" x1="401.7876" x2="522.8384" y1="400" y2="400"/><text fill="#334155" font-family="Helvetica" font-size="12" lengthAdjust="spacing" textLength="98.0508" x="413.7876" y="395.2402">capture-pane -J -p</text></g><g class="message" data-entity-1="part3" data-entity-2="part4" data-source-line="18" id="msg10"><line style="stroke:#64748B;stroke-width:1.1;" x1="521.8384" x2="511.8384" y1="426" y2="422"/><line style="stroke:#64748B;stroke-width:1.1;" x1="521.8384" x2="511.8384" y1="426" y2="430"/><line style="stroke:#64748B;stroke-width:1.1;stroke-dasharray:2,2;" x1="401.7876" x2="522.8384" y1="426" y2="426"/><text fill="#334155" font-family="Helvetica" font-size="12" lengthAdjust="spacing" textLength="70.7227" x="427.4517" y="421.2402">Pane content</text></g><g class="message" data-entity-1="part4" data-entity-2="part4" data-source-line="19" id="msg11"><line style="stroke:#64748B;stroke-width:1.1;" x1="523.8384" x2="565.8384" y1="452" y2="452"/><line style="stroke:#64748B;stroke-width:1.1;" x1="565.8384" x2="565.8384" y1="452" y2="465"/><line style="stroke:#64748B;stroke-width:1.1;" x1="523.8384" x2="565.8384" y1="465" y2="465"/><line style="stroke:#64748B;stroke-width:1.1;" x1="524.8384" x2="534.8384" y1="465" y2="461"/><line style="stroke:#64748B;stroke-width:1.1;" x1="524.8384" x2="534.8384" y1="465" y2="469"/><text fill="#334155" font-family="Helvetica" font-size="12" lengthAdjust="spacing" textLength="109.3828" x="530.8384" y="447.2402">Pattern match check</text></g><path d="M14,487 L71.3379,487 L71.3379,493 L61.3379,503 L10,503 L10,491 A4,4 0 0 1 14,487" fill="#F8FAFC" style="stroke:#CBD5E1;stroke-width:1.5;"/><rect fill="none" height="84" rx="4" ry="4" style="stroke:#CBD5E1;stroke-width:1.5;" width="576.7383" x="10" y="487"/><text fill="#0F172A" font-family="Helvetica" font-size="14" font-weight="700" lengthAdjust="spacing" textLength="16.3379" x="25" y="498.7803">alt</text><text fill="#334155" font-family="Helvetica" font-size="14" font-weight="700" lengthAdjust="spacing" textLength="104.207" x="86.3379" y="499.7803">[Pattern Found]</text><g class="message" data-entity-1="part4" data-entity-2="part1" data-source-line="22" id="msg12"><line style="stroke:#64748B;stroke-width:1.1;" x1="53.3032" x2="63.3032" y1="521" y2="517"/><line style="stroke:#64748B;stroke-width:1.1;" x1="53.3032" x2="63.3032" y1="521" y2="525"/><line style="stroke:#64748B;stroke-width:1.1;stroke-dasharray:2,2;" x1="52.3032" x2="522.8384" y1="521" y2="521"/><text fill="#334155" font-family="Helvetica" font-size="12" lengthAdjust="spacing" textLength="84.6855" x="245.728" y="516.2402">Exit 0 (success)</text></g><line style="stroke:#CBD5E1;stroke-width:1;stroke-dasharray:2,2;" x1="10" x2="586.7383" y1="530" y2="530"/><text fill="#334155" font-family="Helvetica" font-size="14" font-weight="700" lengthAdjust="spacing" textLength="63.7656" x="15" y="540.7803">[Timeout]</text><g class="message" data-entity-1="part4" data-entity-2="part1" data-source-line="24" id="msg13"><line style="stroke:#64748B;stroke-width:1.1;" x1="53.3032" x2="63.3032" y1="563" y2="559"/><line style="stroke:#64748B;stroke-width:1.1;" x1="53.3032" x2="63.3032" y1="563" y2="567"/><line style="stroke:#64748B;stroke-width:1.1;stroke-dasharray:2,2;" x1="52.3032" x2="522.8384" y1="563" y2="563"/><text fill="#334155" font-family="Helvetica" font-size="12" lengthAdjust="spacing" textLength="103.7227" x="236.2095" y="558.2402">Exit 1 + diagnostics</text></g><?plantuml-src TP91Jnin48Nl_HLJ3bKYOg3N792eoXugG4WRsbu7xuIry7eMUmm9lxwptcoY4h6NbJoVtxnvuwykM9yRWZxocb9o7D0RQQcZCvSx_mNqwp6Aiwx7870ICF0ZombWWXyiny3QXSQaKIkTfRQGLNqCIfSta2Y-KYpCwlRXxp7rXaxCcgCHsiWazwTQ5VAEXO1LOB2oq5DOma-Nx72qXViM4nLEg-RoiggNSBqXc_NIcvCM4jjd4cXSB5HLxw3Vw5s3IXMB3VKK6WfsUw06hqkuSKbW6XLcvkRSrEVcQbwu0J4xmNfae2D15SR_srNEYuxmk8MNFFYUSIzb4VE9Kr17EEZueV4iO4SBI8AIqmB4TJJ_D9Lw6smRERXt7BIFib7gGpY2yKd3-QRh4BKN2gpO1Ez3qdMf4KLIGJnp3mz1d2-ME0jmX0x5jgL-a1b3jDXBZcHqtGJc5vX-ZqqHbdxtGzro40hoGMXNBpR7Jc1Riiy5qzsLFthPCnNdtUaaCYLylN425p1BsLeDUmoKV29OZSDyVkixdEfJmgV0IPzlcfh_0m00?></g></svg>