<svg xmlns="http://www.w3.org/2000/svg" xmlns:xlink="http://www.w3.org/1999/xlink" contentStyleType="text/css" data-diagram-type="DESCRIPTION" height="1080px" preserveAspectRatio="none" style="width:1060px;height:1080px;" version="1.1" viewBox="0 0 1060 1080" width="1060px" zoomAndPan="magnify"><?plantuml 1.2026.5?><defs><style><![CDATA[
@media (prefers-color-scheme: dark) {
  text { fill: #e5e7eb !important; }
  path, line, rect, circle, ellipse, polygon, polyline { stroke: #cbd5e1 !important; }
  .entity rect, .participant rect, .participant path, .sequenceLine rect, .class rect, .component rect, .component path, .note rect { fill: #111827 !important; }
  .cluster path { fill: none !important; }
  polygon { fill: #cbd5e1 !important; }
}
]]></style></defs><g><!--cluster NB--><g class="cluster" data-qualified-name="NB" data-source-line="13" id="ent0001"><path d="M264.5,6 L444.3721,6 A3.75,3.75 0 0 1 446.8721,8.5 L453.8721,28.4883 L461.5,28.4883 A2.5,2.5 0 0 1 464,30.9883 L464,220.97 A2.5,2.5 0 0 1 461.5,223.47 L264.5,223.47 A2.5,2.5 0 0 1 262,220.97 L262,8.5 A2.5,2.5 0 0 1 264.5,6" fill="none" style="stroke:#64748B;stroke-width:1.5;"/><line style="stroke:#64748B;stroke-width:1.5;" x1="262" x2="453.8721" y1="28.4883" y2="28.4883"/><text fill="#000000" font-family="sans-serif" font-size="14" font-weight="700" lengthAdjust="spacing" textLength="178.8721" x="266" y="21.5352">&#129302; Nanobot Core System</text></g><!--cluster GH_COMP--><g class="cluster" data-qualified-name="GH_COMP" data-source-line="17" id="ent0004"><path d="M8.5,256.47 L193.875,256.47 A3.75,3.75 0 0 1 196.375,258.97 L203.375,278.9583 L594.5,278.9583 A2.5,2.5 0 0 1 597,281.4583 L597,696.9 A2.5,2.5 0 0 1 594.5,699.4 L8.5,699.4 A2.5,2.5 0 0 1 6,696.9 L6,258.97 A2.5,2.5 0 0 1 8.5,256.47" fill="none" style="stroke:#64748B;stroke-width:1.5;"/><line style="stroke:#64748B;stroke-width:1.5;" x1="6" x2="203.375" y1="278.9583" y2="278.9583"/><text fill="#000000" font-family="sans-serif" font-size="14" font-weight="700" lengthAdjust="spacing" textLength="184.375" x="10" y="272.0052">&#128230; nanobot/skills/github</text></g><!--cluster FEATURES--><g class="cluster" data-qualified-name="GH_COMP.FEATURES" data-source-line="18" id="ent0005"><path d="M32.5,299.47 L149.6973,299.47 A3.75,3.75 0 0 1 152.1973,301.97 L159.1973,321.9583 L570.5,321.9583 A2.5,2.5 0 0 1 573,324.4583 L573,400.94 A2.5,2.5 0 0 1 570.5,403.44 L32.5,403.44 A2.5,2.5 0 0 1 30,400.94 L30,301.97 A2.5,2.5 0 0 1 32.5,299.47" fill="none" style="stroke:#64748B;stroke-width:1.5;"/><line style="stroke:#64748B;stroke-width:1.5;" x1="30" x2="159.1973" y1="321.9583" y2="321.9583"/><text fill="#000000" font-family="sans-serif" font-size="14" font-weight="700" lengthAdjust="spacing" textLength="116.1973" x="34" y="315.0052">Capability Layer</text></g><!--cluster UTILS--><g class="cluster" data-qualified-name="GH_COMP.UTILS" data-source-line="24" id="ent0010"><path d="M305.5,436.44 L393.6924,436.44 A3.75,3.75 0 0 1 396.1924,438.94 L403.1924,458.9283 L424.5,458.9283 A2.5,2.5 0 0 1 427,461.4283 L427,672.9 A2.5,2.5 0 0 1 424.5,675.4 L305.5,675.4 A2.5,2.5 0 0 1 303,672.9 L303,438.94 A2.5,2.5 0 0 1 305.5,436.44" fill="none" style="stroke:#64748B;stroke-width:1.5;"/><line style="stroke:#64748B;stroke-width:1.5;" x1="303" x2="403.1924" y1="458.9283" y2="458.9283"/><text fill="#000000" font-family="sans-serif" font-size="14" font-weight="700" lengthAdjust="spacing" textLength="87.1924" x="307" y="451.9752">Utility Layer</text></g><!--cluster EXT--><g class="cluster" data-qualified-name="EXT" data-source-line="29" id="ent0013"><path d="M623.5,571.42 L809.7949,571.42 A3.75,3.75 0 0 1 812.2949,573.92 L819.2949,593.9083 L883.5,593.9083 A2.5,2.5 0 0 1 886,596.4083 L886,828.87 A2.5,2.5 0 0 1 883.5,831.37 L623.5,831.37 A2.5,2.5 0 0 1 621,828.87 L621,573.92 A2.5,2.5 0 0 1 623.5,571.42" fill="none" style="stroke:#64748B;stroke-width:1.5;"/><line style="stroke:#64748B;stroke-width:1.5;" x1="621" x2="819.2949" y1="593.9083" y2="593.9083"/><text fill="#000000" font-family="sans-serif" font-size="14" font-weight="700" lengthAdjust="spacing" textLength="185.2949" x="625" y="586.9552">&#127760; External Dependencies</text></g><!--cluster GH_API--><g class="cluster" data-qualified-name="GH_API" data-source-line="34" id="ent0017"><path d="M455.5,880.37 L591.5166,880.37 A3.75,3.75 0 0 1 594.0166,882.87 L601.0166,902.8583 L846.5,902.8583 A2.5,2.5 0 0 1 849,905.3583 L849,1062.85 A2.5,2.5 0 0 1 846.5,1065.35 L455.5,1065.35 A2.5,2.5 0 0 1 453,1062.85 L453,882.87 A2.5,2.5 0 0 1 455.5,880.37" fill="none" style="stroke:#64748B;stroke-width:1.5;"/><line style="stroke:#64748B;stroke-width:1.5;" x1="453" x2="601.0166" y1="902.8583" y2="902.8583"/><text fill="#000000" font-family="sans-serif" font-size="14" font-weight="700" lengthAdjust="spacing" textLength="135.0166" x="457" y="895.9052">&#9729;&#65039; GitHub Platform</text></g><!--entity ORCH--><g class="entity" data-qualified-name="NB.ORCH" data-source-line="14" id="ent0002"><rect fill="#F8FAFC" height="36.4883" rx="2.5" ry="2.5" style="stroke:#4B5563;stroke-width:0.5;" width="137.9541" x="294.02" y="41"/><text fill="#111827" font-family="sans-serif" font-size="14" lengthAdjust="spacing" textLength="117.9541" x="304.02" y="64.5352">Skill Orchestrator</text></g><!--entity SKILL--><g class="entity" data-qualified-name="NB.SKILL" data-source-line="15" id="ent0003"><rect fill="#F8FAFC" height="52.9766" rx="2.5" ry="2.5" style="stroke:#4B5563;stroke-width:0.5;" width="170.6982" x="277.65" y="154.49"/><text fill="#111827" font-family="sans-serif" font-size="14" lengthAdjust="spacing" textLength="61.9541" x="332.0221" y="178.0252">SKILL.md</text><text fill="#111827" font-family="sans-serif" font-size="14" lengthAdjust="spacing" textLength="150.6982" x="287.65" y="194.5134">GitHub Skill Definition</text></g><!--entity PR--><g class="entity" data-qualified-name="GH_COMP.FEATURES.PR" data-source-line="19" id="ent0006"><rect fill="#F8FAFC" height="52.9766" rx="2.5" ry="2.5" style="stroke:#4B5563;stroke-width:0.5;" width="126.7051" x="299.65" y="334.47"/><text fill="#111827" font-family="sans-serif" font-size="14" lengthAdjust="spacing" textLength="106.7051" x="309.65" y="358.0052">&#128256; Pull Request</text><text fill="#111827" font-family="sans-serif" font-size="14" lengthAdjust="spacing" textLength="87.5342" x="319.2354" y="374.4934">Management</text></g><!--entity WF--><g class="entity" data-qualified-name="GH_COMP.FEATURES.WF" data-source-line="20" id="ent0007"><rect fill="#F8FAFC" height="52.9766" rx="2.5" ry="2.5" style="stroke:#4B5563;stroke-width:0.5;" width="95.9268" x="461.04" y="334.47"/><text fill="#111827" font-family="sans-serif" font-size="14" lengthAdjust="spacing" textLength="75.9268" x="471.04" y="358.0052">&#9881;&#65039; Workflow</text><text fill="#111827" font-family="sans-serif" font-size="14" lengthAdjust="spacing" textLength="74.4229" x="471.792" y="374.4934">Monitoring</text></g><!--entity API--><g class="entity" data-qualified-name="GH_COMP.FEATURES.API" data-source-line="21" id="ent0008"><rect fill="#F8FAFC" height="52.9766" rx="2.5" ry="2.5" style="stroke:#4B5563;stroke-width:0.5;" width="76.7178" x="45.64" y="334.47"/><text fill="#111827" font-family="sans-serif" font-size="14" lengthAdjust="spacing" textLength="44.8604" x="61.5687" y="358.0052">&#128268; API</text><text fill="#111827" font-family="sans-serif" font-size="14" lengthAdjust="spacing" textLength="56.7178" x="55.64" y="374.4934">Gateway</text></g><!--entity ISS--><g class="entity" data-qualified-name="GH_COMP.FEATURES.ISS" data-source-line="22" id="ent0009"><rect fill="#F8FAFC" height="52.9766" rx="2.5" ry="2.5" style="stroke:#4B5563;stroke-width:0.5;" width="107.5342" x="157.23" y="334.47"/><text fill="#111827" font-family="sans-serif" font-size="14" lengthAdjust="spacing" textLength="58.2246" x="181.8848" y="358.0052">&#128203; Issue</text><text fill="#111827" font-family="sans-serif" font-size="14" lengthAdjust="spacing" textLength="87.5342" x="167.23" y="374.4934">Management</text></g><!--entity FMT--><g class="entity" data-qualified-name="GH_COMP.UTILS.FMT" data-source-line="25" id="ent0011"><rect fill="#F8FAFC" height="52.9766" rx="2.5" ry="2.5" style="stroke:#4B5563;stroke-width:0.5;" width="86.6367" x="319.68" y="471.44"/><text fill="#111827" font-family="sans-serif" font-size="14" lengthAdjust="spacing" textLength="53.5254" x="336.2357" y="494.9752">JSON/jq</text><text fill="#111827" font-family="sans-serif" font-size="14" lengthAdjust="spacing" textLength="66.6367" x="329.68" y="511.4634">Formatter</text></g><!--entity REPO--><g class="entity" data-qualified-name="GH_COMP.UTILS.REPO" data-source-line="26" id="ent0012"><rect fill="#F8FAFC" height="52.9766" rx="2.5" ry="2.5" style="stroke:#4B5563;stroke-width:0.5;" width="92.126" x="318.94" y="606.42"/><text fill="#111827" font-family="sans-serif" font-size="14" lengthAdjust="spacing" textLength="72.126" x="328.94" y="629.9552">Repository</text><text fill="#111827" font-family="sans-serif" font-size="14" lengthAdjust="spacing" textLength="57.21" x="336.398" y="646.4434">Resolver</text></g><!--entity GH_CLI--><g class="entity" data-qualified-name="EXT.GH_CLI" data-source-line="30" id="ent0014"><rect fill="#F8FAFC" height="52.9766" rx="2.5" ry="2.5" style="stroke:#4B5563;stroke-width:0.5;" width="93.2744" x="688.36" y="762.4"/><text fill="#111827" font-family="sans-serif" font-size="14" lengthAdjust="spacing" textLength="72.8027" x="698.5958" y="785.9352">GitHub CLI</text><text fill="#111827" font-family="sans-serif" font-size="14" lengthAdjust="spacing" textLength="73.2744" x="698.36" y="802.4234">(gh binary)</text></g><!--entity BREW--><g class="entity" data-qualified-name="EXT.BREW" data-source-line="31" id="ent0015"><rect fill="#F8FAFC" height="36.4883" rx="2.5" ry="2.5" style="stroke:#4B5563;stroke-width:0.5;" width="92.8848" x="636.56" y="614.66"/><text fill="#111827" font-family="sans-serif" font-size="14" lengthAdjust="spacing" textLength="72.8848" x="646.56" y="638.1952">Homebrew</text></g><!--entity APT--><g class="entity" data-qualified-name="EXT.APT" data-source-line="32" id="ent0016"><rect fill="#F8FAFC" height="52.9766" rx="2.5" ry="2.5" style="stroke:#4B5563;stroke-width:0.5;" width="105.7637" x="764.12" y="606.42"/><text fill="#111827" font-family="sans-serif" font-size="14" lengthAdjust="spacing" textLength="85.7637" x="774.12" y="629.9552">APT Package</text><text fill="#111827" font-family="sans-serif" font-size="14" lengthAdjust="spacing" textLength="58.4678" x="787.7679" y="646.4434">Manager</text></g><!--entity REST--><g class="entity" data-qualified-name="GH_API.REST" data-source-line="35" id="ent0018"><rect fill="#F8FAFC" height="36.4883" rx="2.5" ry="2.5" style="stroke:#4B5563;stroke-width:0.5;" width="78.6934" x="613.65" y="915.37"/><text fill="#111827" font-family="sans-serif" font-size="14" lengthAdjust="spacing" textLength="58.6934" x="623.65" y="938.9052">REST API</text></g><!--entity GQL--><g class="entity" data-qualified-name="GH_API.GQL" data-source-line="36" id="ent0019"><rect fill="#F8FAFC" height="36.4883" rx="2.5" ry="2.5" style="stroke:#4B5563;stroke-width:0.5;" width="105.2783" x="727.36" y="915.37"/><text fill="#111827" font-family="sans-serif" font-size="14" lengthAdjust="spacing" textLength="85.2783" x="737.36" y="938.9052">GraphQL API</text></g><!--entity ACTIONS--><g class="entity" data-qualified-name="GH_API.ACTIONS" data-source-line="37" id="ent0020"><rect fill="#F8FAFC" height="36.4883" rx="2.5" ry="2.5" style="stroke:#4B5563;stroke-width:0.5;" width="122.1563" x="468.92" y="1012.86"/><text fill="#111827" font-family="sans-serif" font-size="14" lengthAdjust="spacing" textLength="102.1563" x="478.92" y="1036.3952">GitHub Actions</text></g><!--entity PRS--><g class="entity" data-qualified-name="GH_API.PRS" data-source-line="38" id="ent0021"><rect fill="#F8FAFC" height="36.4883" rx="2.5" ry="2.5" style="stroke:#4B5563;stroke-width:0.5;" width="110.4121" x="625.79" y="1012.86"/><text fill="#111827" font-family="sans-serif" font-size="14" lengthAdjust="spacing" textLength="90.4121" x="635.79" y="1036.3952">Pull Requests</text></g><!--entity ISSUES--><g class="entity" data-qualified-name="GH_API.ISSUES" data-source-line="39" id="ent0022"><rect fill="#F8FAFC" height="36.4883" rx="2.5" ry="2.5" style="stroke:#4B5563;stroke-width:0.5;" width="61.9316" x="771.03" y="1012.86"/><text fill="#111827" font-family="sans-serif" font-size="14" lengthAdjust="spacing" textLength="41.9316" x="781.03" y="1036.3952">Issues</text></g><!--link ORCH to SKILL--><g class="link" data-entity-1="ent0002" data-entity-2="ent0003" data-link-type="dependency" data-source-line="41" id="lnk23"><path d="M363,77.91 C363,98.08 363,126.24 363,149.27" fill="none" id="ORCH-to-SKILL" style="stroke:#4B5563;stroke-width:1;"/><polygon fill="#4B5563" points="363,154.27,367,145.27,363,149.27,359,145.27,363,154.27" style="stroke:#4B5563;stroke-width:1;stroke-linejoin:miter;stroke-miterlimit:10;"/><text fill="#000000" font-family="sans-serif" font-size="13" lengthAdjust="spacing" textLength="77.981" x="364" y="121.0584">Invokes Skill</text></g><!--link SKILL to PR--><g class="link" data-entity-1="ent0003" data-entity-2="ent0006" data-link-type="dependency" data-source-line="42" id="lnk24"><path d="M363,207.86 C363,241.6 363,295.29 363,329.04" fill="none" id="SKILL-to-PR" style="stroke:#4B5563;stroke-width:1;"/><polygon fill="#4B5563" points="363,334.04,367,325.04,363,329.04,359,325.04,363,334.04" style="stroke:#4B5563;stroke-width:1;stroke-linejoin:miter;stroke-miterlimit:10;"/></g><!--link SKILL to WF--><g class="link" data-entity-1="ent0003" data-entity-2="ent0007" data-link-type="dependency" data-source-line="43" id="lnk25"><path d="M400.14,207.95 C414.85,219.34 431.26,233.51 444,248.47 C466.67,275.07 483.6671,306.1517 495.1871,329.8917" fill="none" id="SKILL-to-WF" style="stroke:#4B5563;stroke-width:1;"/><polygon fill="#4B5563" points="497.37,334.39,497.0395,324.5467,495.1871,329.8917,489.8422,328.0393,497.37,334.39" style="stroke:#4B5563;stroke-width:1;stroke-linejoin:miter;stroke-miterlimit:10;"/></g><!--link SKILL to API--><g class="link" data-entity-1="ent0003" data-entity-2="ent0008" data-link-type="dependency" data-source-line="44" id="lnk26"><path d="M277.17,191.06 C232.13,199.62 178.47,216.22 140,248.47 C113.44,270.73 99.6509,303.9251 91.9609,329.2851" fill="none" id="SKILL-to-API" style="stroke:#4B5563;stroke-width:1;"/><polygon fill="#4B5563" points="90.51,334.07,96.9496,326.618,91.9609,329.2851,89.2938,324.2965,90.51,334.07" style="stroke:#4B5563;stroke-width:1;stroke-linejoin:miter;stroke-miterlimit:10;"/></g><!--link SKILL to ISS--><g class="link" data-entity-1="ent0003" data-entity-2="ent0009" data-link-type="dependency" data-source-line="45" id="lnk27"><path d="M326.56,207.89 C311.79,219.37 295.15,233.63 282,248.47 C258.41,275.08 239.7462,305.9516 226.8162,329.6316" fill="none" id="SKILL-to-ISS" style="stroke:#4B5563;stroke-width:1;"/><polygon fill="#4B5563" points="224.42,334.02,232.2439,328.0378,226.8162,329.6316,225.2224,324.2039,224.42,334.02" style="stroke:#4B5563;stroke-width:1;stroke-linejoin:miter;stroke-miterlimit:10;"/></g><!--link PR to FMT--><g class="link" data-entity-1="ent0006" data-entity-2="ent0011" data-link-type="dependency" data-source-line="46" id="lnk28"><path d="M363,387.66 C363,411.68 363,442.34 363,466.32" fill="none" id="PR-to-FMT" style="stroke:#4B5563;stroke-width:1;"/><polygon fill="#4B5563" points="363,471.32,367,462.32,363,466.32,359,462.32,363,471.32" style="stroke:#4B5563;stroke-width:1;stroke-linejoin:miter;stroke-miterlimit:10;"/></g><!--link WF to FMT--><g class="link" data-entity-1="ent0007" data-entity-2="ent0011" data-link-type="dependency" data-source-line="47" id="lnk29"><path d="M481.19,387.66 C455.22,411.68 420.3222,443.9466 394.3722,467.9266" fill="none" id="WF-to-FMT" style="stroke:#4B5563;stroke-width:1;"/><polygon fill="#4B5563" points="390.7,471.32,400.0246,468.1496,394.3722,467.9266,394.5952,462.2741,390.7,471.32" style="stroke:#4B5563;stroke-width:1;stroke-linejoin:miter;stroke-miterlimit:10;"/></g><!--link API to FMT--><g class="link" data-entity-1="ent0008" data-entity-2="ent0011" data-link-type="dependency" data-source-line="48" id="lnk30"><path d="M109.24,387.71 C118.37,396.06 129.13,404.85 140,411.44 C197.97,446.58 268.0599,470.3104 314.5999,483.8804" fill="none" id="API-to-FMT" style="stroke:#4B5563;stroke-width:1;"/><polygon fill="#4B5563" points="319.4,485.28,311.8795,478.9206,314.5999,483.8804,309.6401,486.6008,319.4,485.28" style="stroke:#4B5563;stroke-width:1;stroke-linejoin:miter;stroke-miterlimit:10;"/></g><!--link ISS to FMT--><g class="link" data-entity-1="ent0009" data-entity-2="ent0011" data-link-type="dependency" data-source-line="49" id="lnk31"><path d="M239.95,387.66 C266.91,411.6 303.151,443.7904 330.161,467.7704" fill="none" id="ISS-to-FMT" style="stroke:#4B5563;stroke-width:1;"/><polygon fill="#4B5563" points="333.9,471.09,329.8254,462.1235,330.161,467.7704,324.5141,468.106,333.9,471.09" style="stroke:#4B5563;stroke-width:1;stroke-linejoin:miter;stroke-miterlimit:10;"/></g><!--link FMT to REPO--><g class="link" data-entity-1="ent0011" data-entity-2="ent0012" data-link-type="dependency" data-source-line="50" id="lnk32"><path d="M363.39,524.89 C363.74,548.32 364.1853,577.6106 364.5353,601.0206" fill="none" id="FMT-to-REPO" style="stroke:#4B5563;stroke-width:1;"/><polygon fill="#4B5563" points="364.61,606.02,368.475,596.9612,364.5353,601.0206,360.4759,597.0808,364.61,606.02" style="stroke:#4B5563;stroke-width:1;stroke-linejoin:miter;stroke-miterlimit:10;"/></g><!--link SKILL to GH_CLI--><g class="link" data-entity-1="ent0003" data-entity-2="ent0014" data-link-type="dependency" data-source-line="51" id="lnk33"><path d="M448.66,191.2 C605.53,210.48 923,261.64 923,359.96 C923,359.96 923,359.96 923,633.91 C923,706.68 842.3086,749.5099 786.6286,770.8599" fill="none" id="SKILL-to-GH_CLI" style="stroke:#4B5563;stroke-width:1;stroke-dasharray:7,7;"/><polygon fill="#4B5563" points="781.96,772.65,791.7955,773.1626,786.6286,770.8599,788.9313,765.6929,781.96,772.65" style="stroke:#4B5563;stroke-width:1;stroke-linejoin:miter;stroke-miterlimit:10;"/><text fill="#000000" font-family="sans-serif" font-size="13" lengthAdjust="spacing" textLength="120.0913" x="924" y="502.9984">Dependency Check</text></g><!--link BREW to GH_CLI--><g class="link" data-entity-1="ent0015" data-entity-2="ent0014" data-link-type="dependency" data-source-line="52" id="lnk34"><path d="M686.29,651.31 C690.32,671.25 697.88,704.73 708,732.4 C711.64,742.36 714.2778,748.4359 718.8678,757.6359" fill="none" id="BREW-to-GH_CLI" style="stroke:#4B5563;stroke-width:1;stroke-dasharray:7,7;"/><polygon fill="#4B5563" points="721.1,762.11,720.6613,752.2709,718.8678,757.6359,713.5028,755.8424,721.1,762.11" style="stroke:#4B5563;stroke-width:1;stroke-linejoin:miter;stroke-miterlimit:10;"/><text fill="#000000" font-family="sans-serif" font-size="13" lengthAdjust="spacing" textLength="37.9971" x="709" y="728.9684">Install</text></g><!--link APT to GH_CLI--><g class="link" data-entity-1="ent0016" data-entity-2="ent0014" data-link-type="dependency" data-source-line="53" id="lnk35"><path d="M803.28,659.68 C788.14,688.1 766.2695,729.1564 751.1195,757.6164" fill="none" id="APT-to-GH_CLI" style="stroke:#4B5563;stroke-width:1;stroke-dasharray:7,7;"/><polygon fill="#4B5563" points="748.77,762.03,756.53,755.9651,751.1195,757.6164,749.4682,752.2059,748.77,762.03" style="stroke:#4B5563;stroke-width:1;stroke-linejoin:miter;stroke-miterlimit:10;"/><text fill="#000000" font-family="sans-serif" font-size="13" lengthAdjust="spacing" textLength="37.9971" x="774.54" y="728.9684">Install</text></g><!--link REPO to GH_CLI--><g class="link" data-entity-1="ent0012" data-entity-2="ent0014" data-link-type="dependency" data-source-line="54" id="lnk36"><path d="M411.43,659.66 C450.77,680.86 509.06,710.82 562,732.4 C603.77,749.42 648.058,763.3468 683.248,773.5568" fill="none" id="REPO-to-GH_CLI" style="stroke:#4B5563;stroke-width:1;"/><polygon fill="#4B5563" points="688.05,774.95,680.5211,768.6006,683.248,773.5568,678.2919,776.2837,688.05,774.95" style="stroke:#4B5563;stroke-width:1;stroke-linejoin:miter;stroke-miterlimit:10;"/><text fill="#000000" font-family="sans-serif" font-size="13" lengthAdjust="spacing" textLength="131.1426" x="563" y="728.9684">Executes Commands</text></g><!--link GH_CLI to REST--><g class="link" data-entity-1="ent0014" data-entity-2="ent0018" data-link-type="dependency" data-source-line="55" id="lnk37"><path d="M711.86,815.68 C703.99,825.22 695.54,836.39 689,847.37 C675.85,869.46 666.7276,892.5127 660.4976,910.2427" fill="none" id="GH_CLI-to-REST" style="stroke:#4B5563;stroke-width:1;"/><polygon fill="#4B5563" points="658.84,914.96,665.5974,907.795,660.4976,910.2427,658.0498,905.1429,658.84,914.96" style="stroke:#4B5563;stroke-width:1;stroke-linejoin:miter;stroke-miterlimit:10;"/><text fill="#000000" font-family="sans-serif" font-size="13" lengthAdjust="spacing" textLength="54.3296" x="690" y="860.9384">API Calls</text></g><!--link GH_CLI to GQL--><g class="link" data-entity-1="ent0014" data-entity-2="ent0019" data-link-type="dependency" data-source-line="56" id="lnk38"><path d="M743.15,815.73 C752.22,844.49 765.1173,885.4112 772.9573,910.2912" fill="none" id="GH_CLI-to-GQL" style="stroke:#4B5563;stroke-width:1;"/><polygon fill="#4B5563" points="774.46,915.06,775.5702,905.2739,772.9573,910.2912,767.94,907.6783,774.46,915.06" style="stroke:#4B5563;stroke-width:1;stroke-linejoin:miter;stroke-miterlimit:10;"/><text fill="#000000" font-family="sans-serif" font-size="13" lengthAdjust="spacing" textLength="54.3296" x="758.5" y="860.9384">API Calls</text></g><!--link REST to ACTIONS--><g class="link" data-entity-1="ent0018" data-entity-2="ent0020" data-link-type="dependency" data-source-line="57" id="lnk39"><path d="M630.15,952.35 C608.06,969.51 578.73,992.2745 556.67,1009.3945" fill="none" id="REST-to-ACTIONS" style="stroke:#4B5563;stroke-width:1;"/><polygon fill="#4B5563" points="552.72,1012.46,562.2825,1010.1022,556.67,1009.3945,557.3777,1003.7821,552.72,1012.46" style="stroke:#4B5563;stroke-width:1;stroke-linejoin:miter;stroke-miterlimit:10;"/></g><!--link REST to PRS--><g class="link" data-entity-1="ent0018" data-entity-2="ent0021" data-link-type="dependency" data-source-line="58" id="lnk40"><path d="M658.14,952.13 C663.16,969.25 669.3532,990.392 674.3932,1007.582" fill="none" id="REST-to-PRS" style="stroke:#4B5563;stroke-width:1;"/><polygon fill="#4B5563" points="675.8,1012.38,677.1063,1002.6182,674.3932,1007.582,669.4294,1004.869,675.8,1012.38" style="stroke:#4B5563;stroke-width:1;stroke-linejoin:miter;stroke-miterlimit:10;"/></g><!--link REST to ISSUES--><g class="link" data-entity-1="ent0018" data-entity-2="ent0022" data-link-type="dependency" data-source-line="59" id="lnk41"><path d="M680.68,952.35 C707.44,969.51 743.5505,992.6419 770.2605,1009.7619" fill="none" id="REST-to-ISSUES" style="stroke:#4B5563;stroke-width:1;"/><polygon fill="#4B5563" points="774.47,1012.46,769.0514,1004.2357,770.2605,1009.7619,764.7344,1010.971,774.47,1012.46" style="stroke:#4B5563;stroke-width:1;stroke-linejoin:miter;stroke-miterlimit:10;"/></g><!--link GQL to PRS--><g class="link" data-entity-1="ent0019" data-entity-2="ent0021" data-link-type="dependency" data-source-line="60" id="lnk42"><path d="M761.84,952.13 C744.09,969.25 720.7986,991.7186 702.9786,1008.9086" fill="none" id="GQL-to-PRS" style="stroke:#4B5563;stroke-width:1;"/><polygon fill="#4B5563" points="699.38,1012.38,708.6345,1009.0104,702.9786,1008.9086,703.0804,1003.2527,699.38,1012.38" style="stroke:#4B5563;stroke-width:1;stroke-linejoin:miter;stroke-miterlimit:10;"/></g><!--link GQL to ISSUES--><g class="link" data-entity-1="ent0019" data-entity-2="ent0022" data-link-type="dependency" data-source-line="61" id="lnk43"><path d="M784.04,952.13 C787.98,969.25 792.8249,990.3182 796.7949,1007.5082" fill="none" id="GQL-to-ISSUES" style="stroke:#4B5563;stroke-width:1;"/><polygon fill="#4B5563" points="797.92,1012.38,799.7922,1002.7107,796.7949,1007.5082,791.9974,1004.5109,797.92,1012.38" style="stroke:#4B5563;stroke-width:1;stroke-linejoin:miter;stroke-miterlimit:10;"/></g><?plantuml-src ZLFDRjD04BxxALRj1GwqAlHFFLHAZPCQqiIr7OL39BHsrec9lPlkhfj620dEL0Af206NNX3FmFFq1UWZCBl-YHrwu91erzytCz_CDojcCPrZZbCKu70suIoZOvCbZ2F9CHK04IeDKR7458_P8gOJ5E54a1eo9X7E4kcJAzbAuWbD8H25y4TuZTNYd2to0fkxmTxU_hCQw804F24dZ8y9BqZxkmUxXy43fF-IoqaeCPqa1Bqr46eaBgeZr6PK5jzsTdOEdnuevbhspUWmmb5el3CacoF9KC2aPD1qh2h4Z1hpN1RQkB_z-HNrC6L0GIRZ17bB8KcwWR10lHCGiXAruStY945z7aw9W0uauvhMTytJ1ksbtUrkfUCHxSJoD0jG7lUSH36DLNaTfLaWiIRbvXUYkPHjeKB4zYIMqopG_CxfQxD_ve2YAiB4Snp4IIoNg8kN95VJjbh-mBMyflJxso_laPE139TSP21_HCymXIpAU1tdk7N-tO_lVtv_GaF6Pr725i1ce9rns2ND7hRNib-ZbcD3nrYI1Lvg3dneacu-8bk8ZFnJs_Qy-YG6ShsfWMztrpfwuVLxssykHhJDU8gbBDi_y-iibyoPKCAN8-eImPBBWkTQJXzgDkP__HbPLv28OkNMdD0neM5CX0wmNlbD0OMvPXVQVZIPeY2cc2yVLsPr6zsVifG4d2mqVE9QmphOSlpofPIpuSK8_Rh4ksyVb2j5PIV1CeBcouemxwP2s09VkL0qx3Kcq-5uFZtlLdZdlFj0TotzNl89j4pVxlUyEgk-KQ9OemP1-orAamUMybcz5_JaoN7-1D0Hikabcn6HlnCZ_wfmMCdL1JPkTL6hjRgfzN5SVLJs3zlLKOsaF0EhEiDFd_KMv8csjeuBsq1HvVuIcLCIpWpbM9DYKo4no5NUFGYetBf8XLXN9CmaD6goDCLqB8m2ogM0MKUgCsH2U0C3RngGvkev59PK7zJugqinSHLTOkKvX_u2?></g></svg>