<svg xmlns="http://www.w3.org/2000/svg" xmlns:xlink="http://www.w3.org/1999/xlink" contentStyleType="text/css" data-diagram-type="DESCRIPTION" height="906px" preserveAspectRatio="none" style="width:1558px;height:906px;" version="1.1" viewBox="0 0 1558 906" width="1558px" zoomAndPan="magnify"><?plantuml 1.2026.5?><defs><style><![CDATA[
@media (prefers-color-scheme: dark) {
  text { fill: #e5e7eb !important; }
  path, line, rect, circle, ellipse, polygon, polyline { stroke: #cbd5e1 !important; }
  .entity rect, .participant rect, .participant path, .sequenceLine rect, .class rect, .component rect, .component path, .note rect { fill: #111827 !important; }
  .cluster path { fill: none !important; }
  polygon { fill: #cbd5e1 !important; }
}
]]></style></defs><g><!--cluster NB--><g class="cluster" data-qualified-name="NB" data-source-line="13" id="ent0001"><path d="M1239.5,788.39 L1381.2754,788.39 A3.75,3.75 0 0 1 1383.7754,790.89 L1390.7754,810.8783 L1435.5,810.8783 A2.5,2.5 0 0 1 1438,813.3783 L1438,889.38 A2.5,2.5 0 0 1 1435.5,891.88 L1239.5,891.88 A2.5,2.5 0 0 1 1237,889.38 L1237,790.89 A2.5,2.5 0 0 1 1239.5,788.39" fill="none" style="stroke:#64748B;stroke-width:1.5;"/><line style="stroke:#64748B;stroke-width:1.5;" x1="1237" x2="1390.7754" y1="810.8783" y2="810.8783"/><text fill="#000000" font-family="sans-serif" font-size="14" font-weight="700" lengthAdjust="spacing" textLength="140.7754" x="1241" y="803.9252">&#129302; Nanobot System</text></g><!--cluster WS--><g class="cluster" data-qualified-name="WS" data-source-line="16" id="ent0003"><path d="M8.5,6 L181.082,6 A3.75,3.75 0 0 1 183.582,8.5 L190.582,28.4883 L742.5,28.4883 A2.5,2.5 0 0 1 745,30.9883 L745,744.89 A2.5,2.5 0 0 1 742.5,747.39 L8.5,747.39 A2.5,2.5 0 0 1 6,744.89 L6,8.5 A2.5,2.5 0 0 1 8.5,6" fill="none" style="stroke:#64748B;stroke-width:1.5;"/><line style="stroke:#64748B;stroke-width:1.5;" x1="6" x2="190.582" y1="28.4883" y2="28.4883"/><text fill="#000000" font-family="sans-serif" font-size="14" font-weight="700" lengthAdjust="spacing" textLength="171.582" x="10" y="21.5352">nanobot/skills/weather</text></g><!--cluster CONFIG--><g class="cluster" data-qualified-name="WS.CONFIG" data-source-line="17" id="ent0004"><path d="M32.5,49 L177.0684,49 A3.75,3.75 0 0 1 179.5684,51.5 L186.5684,71.4883 L718.5,71.4883 A2.5,2.5 0 0 1 721,73.9883 L721,150.47 A2.5,2.5 0 0 1 718.5,152.97 L32.5,152.97 A2.5,2.5 0 0 1 30,150.47 L30,51.5 A2.5,2.5 0 0 1 32.5,49" fill="none" style="stroke:#64748B;stroke-width:1.5;"/><line style="stroke:#64748B;stroke-width:1.5;" x1="30" x2="186.5684" y1="71.4883" y2="71.4883"/><text fill="#000000" font-family="sans-serif" font-size="14" font-weight="700" lengthAdjust="spacing" textLength="143.5684" x="34" y="64.5352">Configuration Layer</text></g><!--cluster CORE--><g class="cluster" data-qualified-name="WS.CORE" data-source-line="22" id="ent0008"><path d="M324.5,193.97 L457.2627,193.97 A3.75,3.75 0 0 1 459.7627,196.47 L466.7627,216.4583 L604.5,216.4583 A2.5,2.5 0 0 1 607,218.9583 L607,408.94 A2.5,2.5 0 0 1 604.5,411.44 L324.5,411.44 A2.5,2.5 0 0 1 322,408.94 L322,196.47 A2.5,2.5 0 0 1 324.5,193.97" fill="none" style="stroke:#64748B;stroke-width:1.5;"/><line style="stroke:#64748B;stroke-width:1.5;" x1="322" x2="466.7627" y1="216.4583" y2="216.4583"/><text fill="#000000" font-family="sans-serif" font-size="14" font-weight="700" lengthAdjust="spacing" textLength="131.7627" x="326" y="209.5052">Processing Engine</text></g><!--cluster SOURCES--><g class="cluster" data-qualified-name="WS.SOURCES" data-source-line="26" id="ent0011"><path d="M578.5,452.44 L709.2188,452.44 A3.75,3.75 0 0 1 711.7188,454.94 L718.7188,474.9283 L718.5,474.9283 A2.5,2.5 0 0 1 721,477.4283 L721,720.89 A2.5,2.5 0 0 1 718.5,723.39 L578.5,723.39 A2.5,2.5 0 0 1 576,720.89 L576,454.94 A2.5,2.5 0 0 1 578.5,452.44" fill="none" style="stroke:#64748B;stroke-width:1.5;"/><line style="stroke:#64748B;stroke-width:1.5;" x1="576" x2="718.7188" y1="474.9283" y2="474.9283"/><text fill="#000000" font-family="sans-serif" font-size="14" font-weight="700" lengthAdjust="spacing" textLength="129.7188" x="580" y="467.9752">Data Source Layer</text></g><!--cluster OUTPUT--><g class="cluster" data-qualified-name="OUTPUT" data-source-line="31" id="ent0014"><path d="M779.5,611.42 L913.165,611.42 A3.75,3.75 0 0 1 915.665,613.92 L922.665,633.9083 L1495.5,633.9083 A2.5,2.5 0 0 1 1498,636.4083 L1498,728.89 A2.5,2.5 0 0 1 1495.5,731.39 L779.5,731.39 A2.5,2.5 0 0 1 777,728.89 L777,613.92 A2.5,2.5 0 0 1 779.5,611.42" fill="none" style="stroke:#64748B;stroke-width:1.5;"/><line style="stroke:#64748B;stroke-width:1.5;" x1="777" x2="922.665" y1="633.9083" y2="633.9083"/><text fill="#000000" font-family="sans-serif" font-size="14" font-weight="700" lengthAdjust="spacing" textLength="132.665" x="781" y="626.9552">Response Formats</text></g><!--entity REQ--><g class="entity" data-qualified-name="NB.REQ" data-source-line="14" id="ent0002"><rect fill="#F8FAFC" height="36.4883" rx="2.5" ry="2.5" style="stroke:#4B5563;stroke-width:0.5;" width="133.7158" x="1280.14" y="831.39"/><text fill="#111827" font-family="sans-serif" font-size="14" lengthAdjust="spacing" textLength="113.7158" x="1290.14" y="854.9252">Weather Request</text></g><!--entity UNITS--><g class="entity" data-qualified-name="WS.CONFIG.UNITS" data-source-line="18" id="ent0005"><rect fill="#F8FAFC" height="52.9766" rx="2.5" ry="2.5" style="stroke:#4B5563;stroke-width:0.5;" width="121.8145" x="46.09" y="84"/><text fill="#111827" font-family="sans-serif" font-size="14" lengthAdjust="spacing" textLength="80.1992" x="66.8976" y="107.5352">Unit System</text><text fill="#111827" font-family="sans-serif" font-size="14" lengthAdjust="spacing" textLength="101.8145" x="56.09" y="124.0234">(Metric / USCS)</text></g><!--entity FORMAT--><g class="entity" data-qualified-name="WS.CONFIG.FORMAT" data-source-line="19" id="ent0006"><rect fill="#F8FAFC" height="52.9766" rx="2.5" ry="2.5" style="stroke:#4B5563;stroke-width:0.5;" width="255.2861" x="203.36" y="84"/><text fill="#111827" font-family="sans-serif" font-size="14" lengthAdjust="spacing" textLength="99.8389" x="281.0836" y="107.5352">Output Format</text><text fill="#111827" font-family="sans-serif" font-size="14" lengthAdjust="spacing" textLength="235.2861" x="213.36" y="124.0234">(Compact / Detailed / PNG / JSON)</text></g><!--entity TIME--><g class="entity" data-qualified-name="WS.CONFIG.TIME" data-source-line="20" id="ent0007"><rect fill="#F8FAFC" height="52.9766" rx="2.5" ry="2.5" style="stroke:#4B5563;stroke-width:0.5;" width="211.2832" x="493.36" y="84"/><text fill="#111827" font-family="sans-serif" font-size="14" lengthAdjust="spacing" textLength="80.001" x="559.0011" y="107.5352">Time Range</text><text fill="#111827" font-family="sans-serif" font-size="14" lengthAdjust="spacing" textLength="191.2832" x="503.36" y="124.0234">(Current / Today / Forecast)</text></g><!--entity LOC--><g class="entity" data-qualified-name="WS.CORE.LOC" data-source-line="23" id="ent0009"><rect fill="#F8FAFC" height="52.9766" rx="2.5" ry="2.5" style="stroke:#4B5563;stroke-width:0.5;" width="217.668" x="346.17" y="236.97"/><text fill="#111827" font-family="sans-serif" font-size="14" lengthAdjust="spacing" textLength="103.8311" x="403.0885" y="260.5052">Location Parser</text><text fill="#111827" font-family="sans-serif" font-size="14" lengthAdjust="spacing" textLength="197.668" x="356.17" y="276.9934">(City / Airport / Coordinates)</text></g><!--entity ENC--><g class="entity" data-qualified-name="WS.CORE.ENC" data-source-line="24" id="ent0010"><rect fill="#F8FAFC" height="36.4883" rx="2.5" ry="2.5" style="stroke:#4B5563;stroke-width:0.5;" width="104.834" x="445.58" y="350.95"/><text fill="#111827" font-family="sans-serif" font-size="14" lengthAdjust="spacing" textLength="84.834" x="455.58" y="374.4852">URL Encoder</text></g><!--entity PRI--><g class="entity" data-qualified-name="WS.SOURCES.PRI" data-source-line="27" id="ent0012"><rect fill="#F8FAFC" height="52.9766" rx="2.5" ry="2.5" style="stroke:#4B5563;stroke-width:0.5;" width="80.4639" x="611.77" y="487.44"/><text fill="#111827" font-family="sans-serif" font-size="14" lengthAdjust="spacing" textLength="44.1533" x="629.9253" y="510.9752">wttr.in</text><text fill="#111827" font-family="sans-serif" font-size="14" lengthAdjust="spacing" textLength="60.4639" x="621.77" y="527.4634">(Primary)</text></g><!--entity SEC--><g class="entity" data-qualified-name="WS.SOURCES.SEC" data-source-line="28" id="ent0013"><rect fill="#F8FAFC" height="52.9766" rx="2.5" ry="2.5" style="stroke:#4B5563;stroke-width:0.5;" width="105.7705" x="599.11" y="654.42"/><text fill="#111827" font-family="sans-serif" font-size="14" lengthAdjust="spacing" textLength="85.7705" x="609.11" y="677.9552">Open-Meteo</text><text fill="#111827" font-family="sans-serif" font-size="14" lengthAdjust="spacing" textLength="64.333" x="619.8288" y="694.4434">(Fallback)</text></g><!--entity COMPACT--><g class="entity" data-qualified-name="OUTPUT.COMPACT" data-source-line="32" id="ent0015"><rect fill="#F8FAFC" height="52.9766" rx="2.5" ry="2.5" style="stroke:#4B5563;stroke-width:0.5;" width="172.9434" x="800.53" y="654.42"/><text fill="#111827" font-family="sans-serif" font-size="14" lengthAdjust="spacing" textLength="127.8799" x="823.0617" y="677.9552">Compact Summary</text><text fill="#111827" font-family="sans-serif" font-size="14" lengthAdjust="spacing" textLength="152.9434" x="810.53" y="694.4434">&#127780;&#65039; 72&#176;F, Partly Cloudy</text></g><!--entity DETAIL--><g class="entity" data-qualified-name="OUTPUT.DETAIL" data-source-line="33" id="ent0016"><rect fill="#F8FAFC" height="52.9766" rx="2.5" ry="2.5" style="stroke:#4B5563;stroke-width:0.5;" width="154.1895" x="1008.91" y="654.42"/><text fill="#111827" font-family="sans-serif" font-size="14" lengthAdjust="spacing" textLength="117.2979" x="1027.3558" y="677.9552">Detailed Forecast</text><text fill="#111827" font-family="sans-serif" font-size="14" lengthAdjust="spacing" textLength="134.1895" x="1018.91" y="694.4434">(Multi-day, metrics)</text></g><!--entity IMG--><g class="entity" data-qualified-name="OUTPUT.IMG" data-source-line="34" id="ent0017"><rect fill="#F8FAFC" height="36.4883" rx="2.5" ry="2.5" style="stroke:#4B5563;stroke-width:0.5;" width="93.9922" x="1198" y="662.66"/><text fill="#111827" font-family="sans-serif" font-size="14" lengthAdjust="spacing" textLength="73.9922" x="1208" y="686.1952">PNG Image</text></g><!--entity JSON--><g class="entity" data-qualified-name="OUTPUT.JSON" data-source-line="35" id="ent0018"><rect fill="#F8FAFC" height="36.4883" rx="2.5" ry="2.5" style="stroke:#4B5563;stroke-width:0.5;" width="128.1719" x="1326.91" y="662.66"/><text fill="#111827" font-family="sans-serif" font-size="14" lengthAdjust="spacing" textLength="108.1719" x="1336.91" y="686.1952">Structured JSON</text></g><!--link REQ to LOC--><g class="link" data-entity-1="ent0002" data-entity-2="ent0009" data-link-type="dependency" data-source-line="37" id="lnk19"><path d="M1397.47,830.96 C1455.55,807.03 1543,758.3 1543,681.9 C1543,368.19 1543,368.19 1543,368.19 C1543,259.51 675.45,306.29 568,289.95 C566.71,289.75 570.347,290.3414 569.037,290.1314" fill="none" id="REQ-to-LOC" style="stroke:#4B5563;stroke-width:1;"/><polygon fill="#4B5563" points="564.1,289.34,572.3534,294.7141,569.037,290.1314,573.6197,286.815,564.1,289.34" style="stroke:#4B5563;stroke-width:1;stroke-linejoin:miter;stroke-miterlimit:10;"/></g><!--link LOC to ENC--><g class="link" data-entity-1="ent0009" data-entity-2="ent0010" data-link-type="dependency" data-source-line="38" id="lnk20"><path d="M465.74,290.37 C473.55,309.21 481.9949,329.5913 488.8449,346.1113" fill="none" id="LOC-to-ENC" style="stroke:#4B5563;stroke-width:1;"/><polygon fill="#4B5563" points="490.76,350.73,491.0077,340.8843,488.8449,346.1113,483.6178,343.9485,490.76,350.73" style="stroke:#4B5563;stroke-width:1;stroke-linejoin:miter;stroke-miterlimit:10;"/></g><!--link ENC to PRI--><g class="link" data-entity-1="ent0010" data-entity-2="ent0012" data-link-type="dependency" data-source-line="39" id="lnk21"><path d="M516.88,387.7 C543.71,412.56 589.373,454.8811 620.423,483.6611" fill="none" id="ENC-to-PRI" style="stroke:#4B5563;stroke-width:1;"/><polygon fill="#4B5563" points="624.09,487.06,620.2085,478.0083,620.423,483.6611,614.7702,483.8755,624.09,487.06" style="stroke:#4B5563;stroke-width:1;stroke-linejoin:miter;stroke-miterlimit:10;"/></g><!--link PRI to SEC--><g class="link" data-entity-1="ent0012" data-entity-2="ent0013" data-link-type="dependency" data-source-line="40" id="lnk22"><path d="M652,540.7 C652,571.61 652,618.09 652,649.04" fill="none" id="PRI-to-SEC" style="stroke:#4B5563;stroke-width:1;stroke-dasharray:7,7;"/><polygon fill="#4B5563" points="652,654.04,656,645.04,652,649.04,648,645.04,652,654.04" style="stroke:#4B5563;stroke-width:1;stroke-linejoin:miter;stroke-miterlimit:10;"/><text fill="#000000" font-family="sans-serif" font-size="13" lengthAdjust="spacing" textLength="51.2827" x="653" y="583.9884">Fallback</text></g><!--link UNITS to CORE--><g class="link" data-entity-1="ent0005" data-entity-2="ent0008" data-link-type="dependency" data-source-line="41" id="lnk23"><path d="M139.71,137.3 C153.26,146.52 169.62,155.88 186,160.97 C227.84,173.98 546.38,149.87 580,177.97 C583.6338,181.0088 586.6609,184.5789 589.1758,188.5037 C589.8045,189.4849 590.4012,190.4882 590.9674,191.511 C591.2505,192.0224 591.5259,192.5386 591.7939,193.0594 C591.9279,193.3197 589.8376,211.5906 589.9679,211.8532" fill="none" id="UNITS-to-CORE" style="stroke:#4B5563;stroke-width:1;"/><polygon fill="#4B5563" points="592.1903,216.3321,591.7731,206.4921,589.9679,211.8532,584.6068,210.048,592.1903,216.3321" style="stroke:#4B5563;stroke-width:1;stroke-linejoin:miter;stroke-miterlimit:10;"/></g><!--link FORMAT to CORE--><g class="link" data-entity-1="ent0006" data-entity-2="ent0008" data-link-type="dependency" data-source-line="42" id="lnk24"><path d="M399.26,137.4 C423.26,145.81 450.58,154.61 476,160.97 C521.43,172.36 545.92,145.85 580,177.97 C583.3913,181.1675 586.2398,184.8295 588.6275,188.7967 C589.2244,189.7885 589.7925,190.7994 590.333,191.8268 C590.6033,192.3405 590.8667,192.8584 591.1234,193.3801 C591.1875,193.5105 589.0737,211.6285 589.137,211.7594" fill="none" id="FORMAT-to-CORE" style="stroke:#4B5563;stroke-width:1;"/><polygon fill="#4B5563" points="591.3146,216.2604,590.9957,206.4167,589.137,211.7594,583.7943,209.9008,591.3146,216.2604" style="stroke:#4B5563;stroke-width:1;stroke-linejoin:miter;stroke-miterlimit:10;"/></g><!--link TIME to CORE--><g class="link" data-entity-1="ent0007" data-entity-2="ent0008" data-link-type="dependency" data-source-line="43" id="lnk25"><path d="M599,137.44 C599,148.0625 599,161.0281 599,174.5403 C599,177.9184 599,181.3306 599,184.7489 C599,186.458 599,188.1687 599,189.8774 C599,190.7317 599,191.5856 599,192.4385 C599,192.8649 599,210.7794 599,211.2054" fill="none" id="TIME-to-CORE" style="stroke:#4B5563;stroke-width:1;"/><polygon fill="#4B5563" points="599,216.2054,603,207.2054,599,211.2054,595,207.2054,599,216.2054" style="stroke:#4B5563;stroke-width:1;stroke-linejoin:miter;stroke-miterlimit:10;"/></g><!--link PRI to OUTPUT--><g class="link" data-entity-1="ent0012" data-entity-2="ent0014" data-link-type="dependency" data-source-line="44" id="lnk26"><path d="M692.54,516.17 C849.59,521.34 1412.12,543.38 1471,595.42 C1474.4925,598.5063 1477.4178,602.0839 1479.8621,605.9887 C1480.4732,606.9649 1481.0542,607.9615 1481.6064,608.9761 C1481.8826,609.4833 1482.1516,609.995 1482.4135,610.5109 C1482.5445,610.7689 1480.4722,629.0269 1480.5997,629.2869" fill="none" id="PRI-to-OUTPUT" style="stroke:#4B5563;stroke-width:1;"/><polygon fill="#4B5563" points="1482.8012,633.7761,1482.4298,623.9342,1480.5997,629.2869,1475.2471,627.4567,1482.8012,633.7761" style="stroke:#4B5563;stroke-width:1;stroke-linejoin:miter;stroke-miterlimit:10;"/></g><!--link SEC to OUTPUT--><g class="link" data-entity-1="ent0013" data-entity-2="ent0014" data-link-type="dependency" data-source-line="45" id="lnk27"><path d="M676.9,653.93 C704.49,626.22 751.83,584.82 802.5,567.92 C871.12,545.02 1390.09,533.11 1453.5,567.92 C1464.5225,573.97 1472.3644,583.5519 1477.9156,594.6389 C1479.3034,597.4107 1480.5481,600.2765 1481.6635,603.2047 C1482.2212,604.6688 1482.7466,606.1486 1483.2414,607.6399 C1483.4888,608.3856 1483.7285,609.1342 1483.9608,609.8852 C1484.077,610.2607 1482.7606,628.3342 1482.8731,628.7108" fill="none" id="SEC-to-OUTPUT" style="stroke:#4B5563;stroke-width:1;"/><polygon fill="#4B5563" points="1484.3038,633.5017,1485.5612,623.7335,1482.8731,628.7108,1477.8958,626.0226,1484.3038,633.5017" style="stroke:#4B5563;stroke-width:1;stroke-linejoin:miter;stroke-miterlimit:10;"/></g><!--link COMPACT to NB--><g class="link" data-entity-1="ent0015" data-entity-2="ent0001" data-link-type="dependency" data-source-line="46" id="lnk28"><path d="M918.83,707.73 C938.73,723 965.36,741.93 991,755.39 C1043.405,782.905 1105.755,805.9225 1155.565,822.205 C1180.47,830.3462 1202.24,836.8037 1218.0644,841.2978 C1225.9766,843.5448 1227.573,844.006 1232.161,845.2363" fill="none" id="COMPACT-to-NB" style="stroke:#4B5563;stroke-width:1;"/><polygon fill="#4B5563" points="1236.9904,846.5314,1229.3336,840.3368,1232.161,845.2363,1227.2615,848.0637,1236.9904,846.5314" style="stroke:#4B5563;stroke-width:1;stroke-linejoin:miter;stroke-miterlimit:10;"/></g><!--link DETAIL to NB--><g class="link" data-entity-1="ent0016" data-entity-2="ent0001" data-link-type="dependency" data-source-line="47" id="lnk29"><path d="M1110.5,707.59 C1132.45,730.61 1165.375,765.1375 1193.1538,794.2688 C1207.0431,808.8344 1219.6459,822.0509 1228.947,831.8055 C1231.2723,834.2441 1233.3912,836.4664 1235.2723,838.4392 C1235.7426,838.9324 1236.198,839.4101 1236.638,839.8716 C1236.748,839.987 1233.4068,836.4826 1233.5148,836.596" fill="none" id="DETAIL-to-NB" style="stroke:#4B5563;stroke-width:1;"/><polygon fill="#4B5563" points="1236.9652,840.2147,1233.6496,830.9407,1233.5148,836.596,1227.8596,836.4612,1236.9652,840.2147" style="stroke:#4B5563;stroke-width:1;stroke-linejoin:miter;stroke-miterlimit:10;"/></g><!--link IMG to NB--><g class="link" data-entity-1="ent0017" data-entity-2="ent0001" data-link-type="dependency" data-source-line="48" id="lnk30"><path d="M1245,699.43 C1245,709.965 1245,724.3513 1245,740.0552 C1245,747.9071 1245,756.0885 1245,764.2826 C1245,768.3796 1245,772.4798 1245,776.5436 C1245,778.5755 1245,780.5983 1245,782.6071 C1245,783.6115 1245,784.6123 1245,785.6091 C1245,786.1074 1245,786.6048 1245,787.101 C1245,787.3491 1245,782.5969 1245,782.8445" fill="none" id="IMG-to-NB" style="stroke:#4B5563;stroke-width:1;"/><polygon fill="#4B5563" points="1245,787.8445,1249,778.8445,1245,782.8445,1241,778.8445,1245,787.8445" style="stroke:#4B5563;stroke-width:1;stroke-linejoin:miter;stroke-miterlimit:10;"/></g><!--link JSON to NB--><g class="link" data-entity-1="ent0018" data-entity-2="ent0001" data-link-type="dependency" data-source-line="49" id="lnk31"><path d="M1375.2,699.38 C1359.68,715.7 1334.65,739.81 1309,755.39 C1290.73,766.49 1278.21,756.42 1264,772.39 C1261.19,775.55 1258.7819,779.0628 1256.7195,782.7966 C1256.2039,783.7301 1255.7099,784.6774 1255.2367,785.6364 C1255.0001,786.1159 1254.7686,786.5984 1254.5423,787.0835 C1254.4291,787.3261 1254.3172,787.5693 1254.2065,787.8132 C1254.1512,787.9351 1256.1384,783.4933 1256.0837,783.6155" fill="none" id="JSON-to-NB" style="stroke:#4B5563;stroke-width:1;"/><polygon fill="#4B5563" points="1254.0415,788.1795,1261.3686,781.5982,1256.0837,783.6155,1254.0663,778.3306,1254.0415,788.1795" style="stroke:#4B5563;stroke-width:1;stroke-linejoin:miter;stroke-miterlimit:10;"/></g><?plantuml-src ZLFDRfj04Bxp5AFaqafregJvKm-H788ZLpPGmCebbpMCoIgmItSNkLRLDwZKMw-vv05wxBalr3n2Pm4xKFNG0x3BVlDzCz_CwWSkAgPO2KkMFkHArY9pPI4L6CM4fYCKnj4xbBvdcLnpaSEA5Hfx9nckM5sO13-PSS5pKL8WfFH2rKEDbPBhLc3_P7bwUlQsTnXI2Yp7AwaoL1texEJyv6Bv3z1_fQimDKpa1S9d1s10tAa3JAGmtR-ZewEButEB_8jzVtMnOglK-U8OMO6Hi9J6I2gQMmKkXLErQS7Uy-FJT_2Pa0I1UACDbdl0DFXNbCDBFdktoCmzAeZmOutQD9Z8-q0IEohHiXnIFKMX3zTjH8EyZObj1tIbMF6yLioc0ZEswL1ku4-cDqFTXU3RlEx4gpaQnLCuX4Ning-Re8K_JU9-H52RgZRaaogPeHXNbgHiAEWQ3UC5PhGC_Hjwluy3lsMP1D5ydFHf4buYHBH1or4hsoeAIMJ6DlGbUaoPDcruCfrxVIj29LFKsWwU9t8kiAilyeRLpMJQcX0ofL5P9Mui_PYhIYehw4eQ0owOGTrgpG9tO50q8urKPfs9dk_sCxbcXa4iQvLYp-auM4Ik5m-JMHkZ3hYW94B5IwOshLuOJGVsLYX6r0UK19omeh0tiKN6dfNkYKUeAoaqTitG3IfO9E4Y6KflUnJNfHM-4y-FNvz-__m6vyU_VapUM7jCiG6ta7MswRoSXsDtqB5TUxUziGD3TvoFg6Lle6ncfpFnsal6qra_sax4jAIqc_Ff_AP_61jLfwPMH6vdfe7O1HLBbm16eykcBVGqQzi3UfgrjOyUE3Yuj0R1EzYQvZIZsu3iP3Zj3BxixL2zx2o7tRJsEPQgj-tiQ7xvLqvRtdP7nMoNDkbk_GS0?></g></svg>