<svg xmlns="http://www.w3.org/2000/svg" xmlns:xlink="http://www.w3.org/1999/xlink" contentStyleType="text/css" data-diagram-type="DESCRIPTION" height="471px" preserveAspectRatio="none" style="width:1301px;height:471px;background:#FFFFFF;" version="1.1" viewBox="0 0 1301 471" width="1301px" zoomAndPan="magnify"><?plantuml 1.2026.5?><defs/><rect data-xfeat-white-canvas="true" fill="#FFFFFF" height="100%" width="100%" x="0" y="0"/><g><!--cluster Templates--><g class="cluster" data-qualified-name="Templates" data-source-line="3" id="ent0001"><rect fill="#FFFFFF" height="167" rx="4" ry="4" style="stroke:#CBD5E1;stroke-width:1;" width="1280" x="7" y="7"/><text fill="#0F172A" font-family="Helvetica" font-size="14" font-weight="700" lengthAdjust="spacing" textLength="124.4551" x="584.7725" y="19.7803">nanobot/templates</text><text fill="#0F172A" font-family="Helvetica" font-size="14" font-weight="700" lengthAdjust="spacing" textLength="133.0068" x="580.4966" y="33.7803">Configuration Layer</text></g><!--cluster Runtime--><g class="cluster" data-qualified-name="Runtime" data-source-line="10" id="ent0007"><rect fill="#FFFFFF" height="237" rx="4" ry="4" style="stroke:#CBD5E1;stroke-width:1;" width="295" x="376" y="220"/><text fill="#0F172A" font-family="Helvetica" font-size="14" font-weight="700" lengthAdjust="spacing" textLength="116.6553" x="465.1724" y="232.7803">Nanobot Runtime</text><text fill="#0F172A" font-family="Helvetica" font-size="14" font-weight="700" lengthAdjust="spacing" textLength="161.0137" x="442.9932" y="246.7803">Agent Execution Engine</text></g><!--entity SOUL--><g class="entity" data-qualified-name="Templates.SOUL" data-source-line="4" id="ent0002"><rect fill="#FFFFFF" height="104" rx="4" ry="4" style="stroke:#64748B;stroke-width:0.5;" width="216" x="1055" y="54"/><text fill="#0F172A" font-family="Helvetica" font-size="14" lengthAdjust="spacing" textLength="61.4619" x="1132.269" y="74.7803">SOUL.md</text><text fill="#0F172A" font-family="Helvetica" font-size="14" lengthAdjust="spacing" textLength="129.1787" x="1098.4106" y="88.7803">Personality &amp; Values</text><text fill="#0F172A" font-family="Helvetica" font-size="14" lengthAdjust="spacing" textLength="196" x="1065" y="102.7803">&#9473;&#9473;&#9473;&#9473;&#9473;&#9473;&#9473;&#9473;&#9473;&#9473;&#9473;&#9473;&#9473;&#9473;</text><text fill="#0F172A" font-family="Helvetica" font-size="14" lengthAdjust="spacing" textLength="116.1836" x="1104.9082" y="116.7803">&#8226; Identity Definition</text><text fill="#0F172A" font-family="Helvetica" font-size="14" lengthAdjust="spacing" textLength="141.0664" x="1092.4668" y="130.7803">&#8226; Communication Style</text><text fill="#0F172A" font-family="Helvetica" font-size="14" lengthAdjust="spacing" textLength="159.7285" x="1083.1357" y="144.7803">&#8226; Core Values Framework</text></g><!--entity USER--><g class="entity" data-qualified-name="Templates.USER" data-source-line="5" id="ent0003"><rect fill="#FFFFFF" height="104" rx="4" ry="4" style="stroke:#64748B;stroke-width:0.5;" width="216" x="281" y="54"/><text fill="#0F172A" font-family="Helvetica" font-size="14" lengthAdjust="spacing" textLength="62.2344" x="357.8828" y="74.7803">USER.md</text><text fill="#0F172A" font-family="Helvetica" font-size="14" lengthAdjust="spacing" textLength="73.1309" x="352.4346" y="88.7803">User Profile</text><text fill="#0F172A" font-family="Helvetica" font-size="14" lengthAdjust="spacing" textLength="196" x="291" y="102.7803">&#9473;&#9473;&#9473;&#9473;&#9473;&#9473;&#9473;&#9473;&#9473;&#9473;&#9473;&#9473;&#9473;&#9473;</text><text fill="#0F172A" font-family="Helvetica" font-size="14" lengthAdjust="spacing" textLength="146.5283" x="315.7358" y="116.7803">&#8226; Identity &amp; Preferences</text><text fill="#0F172A" font-family="Helvetica" font-size="14" lengthAdjust="spacing" textLength="130.9561" x="323.522" y="130.7803">&#8226; Technical Expertise</text><text fill="#0F172A" font-family="Helvetica" font-size="14" lengthAdjust="spacing" textLength="93.5908" x="342.2046" y="144.7803">&#8226; Work Context</text></g><!--entity AGENTS--><g class="entity" data-qualified-name="Templates.AGENTS" data-source-line="6" id="ent0004"><rect fill="#FFFFFF" height="104" rx="4" ry="4" style="stroke:#64748B;stroke-width:0.5;" width="216" x="23" y="54"/><text fill="#0F172A" font-family="Helvetica" font-size="14" lengthAdjust="spacing" textLength="80.9033" x="90.5483" y="74.7803">AGENTS.md</text><text fill="#0F172A" font-family="Helvetica" font-size="14" lengthAdjust="spacing" textLength="112.0615" x="74.9692" y="88.7803">Agent Instructions</text><text fill="#0F172A" font-family="Helvetica" font-size="14" lengthAdjust="spacing" textLength="196" x="33" y="102.7803">&#9473;&#9473;&#9473;&#9473;&#9473;&#9473;&#9473;&#9473;&#9473;&#9473;&#9473;&#9473;&#9473;&#9473;</text><text fill="#0F172A" font-family="Helvetica" font-size="14" lengthAdjust="spacing" textLength="155.0869" x="53.4565" y="116.7803">&#8226; Reminder Management</text><text fill="#0F172A" font-family="Helvetica" font-size="14" lengthAdjust="spacing" textLength="144.1836" x="58.9082" y="130.7803">&#8226; Heartbeat Task Rules</text><text fill="#0F172A" font-family="Helvetica" font-size="14" lengthAdjust="spacing" textLength="134.0869" x="63.9565" y="144.7803">&#8226; Behavior Guidelines</text></g><!--entity HEARTBEAT--><g class="entity" data-qualified-name="Templates.HEARTBEAT" data-source-line="7" id="ent0005"><rect fill="#FFFFFF" height="104" rx="4" ry="4" style="stroke:#64748B;stroke-width:0.5;" width="216" x="539" y="54"/><text fill="#0F172A" font-family="Helvetica" font-size="14" lengthAdjust="spacing" textLength="107.3516" x="593.3242" y="74.7803">HEARTBEAT.md</text><text fill="#0F172A" font-family="Helvetica" font-size="14" lengthAdjust="spacing" textLength="76.2617" x="608.8691" y="88.7803">Task Queue</text><text fill="#0F172A" font-family="Helvetica" font-size="14" lengthAdjust="spacing" textLength="196" x="549" y="102.7803">&#9473;&#9473;&#9473;&#9473;&#9473;&#9473;&#9473;&#9473;&#9473;&#9473;&#9473;&#9473;&#9473;&#9473;</text><text fill="#0F172A" font-family="Helvetica" font-size="14" lengthAdjust="spacing" textLength="88.1426" x="602.9287" y="116.7803">&#8226; Active Tasks</text><text fill="#0F172A" font-family="Helvetica" font-size="14" lengthAdjust="spacing" textLength="117.7217" x="588.1392" y="130.7803">&#8226; Completed Tasks</text><text fill="#0F172A" font-family="Helvetica" font-size="14" lengthAdjust="spacing" textLength="90.4805" x="601.7598" y="144.7803">&#8226; 30-min Cycle</text></g><!--entity TOOLS--><g class="entity" data-qualified-name="Templates.TOOLS" data-source-line="8" id="ent0006"><rect fill="#FFFFFF" height="104" rx="4" ry="4" style="stroke:#64748B;stroke-width:0.5;" width="216" x="797" y="54"/><text fill="#0F172A" font-family="Helvetica" font-size="14" lengthAdjust="spacing" textLength="70.793" x="869.6035" y="74.7803">TOOLS.md</text><text fill="#0F172A" font-family="Helvetica" font-size="14" lengthAdjust="spacing" textLength="114.3857" x="847.8071" y="88.7803">Safety Constraints</text><text fill="#0F172A" font-family="Helvetica" font-size="14" lengthAdjust="spacing" textLength="196" x="807" y="102.7803">&#9473;&#9473;&#9473;&#9473;&#9473;&#9473;&#9473;&#9473;&#9473;&#9473;&#9473;&#9473;&#9473;&#9473;</text><text fill="#0F172A" font-family="Helvetica" font-size="14" lengthAdjust="spacing" textLength="134.832" x="837.584" y="116.7803">&#8226; Command Timeouts</text><text fill="#0F172A" font-family="Helvetica" font-size="14" lengthAdjust="spacing" textLength="183.873" x="813.0635" y="130.7803">&#8226; Dangerous Command Block</text><text fill="#0F172A" font-family="Helvetica" font-size="14" lengthAdjust="spacing" textLength="119.2598" x="845.3701" y="144.7803">&#8226; Workspace Limits</text></g><!--entity ENGINE--><g class="entity" data-qualified-name="Runtime.ENGINE" data-source-line="11" id="ent0008"><rect fill="#FFFFFF" height="48" rx="4" ry="4" style="stroke:#64748B;stroke-width:0.5;" width="115.7168" x="528.14" y="267"/><text fill="#0F172A" font-family="Helvetica" font-size="14" lengthAdjust="spacing" textLength="76.5928" x="547.702" y="287.7803">&#129302; AI Agent</text><text fill="#0F172A" font-family="Helvetica" font-size="14" lengthAdjust="spacing" textLength="95.7168" x="538.14" y="301.7803">Execution Core</text></g><!--entity CRON--><g class="entity" data-qualified-name="Runtime.CRON" data-source-line="12" id="ent0009"><rect fill="#FFFFFF" height="48" rx="4" ry="4" style="stroke:#64748B;stroke-width:0.5;" width="83.041" x="392.48" y="267"/><text fill="#0F172A" font-family="Helvetica" font-size="14" lengthAdjust="spacing" textLength="53.2344" x="407.3833" y="287.7803">&#9200; Cron</text><text fill="#0F172A" font-family="Helvetica" font-size="14" lengthAdjust="spacing" textLength="63.041" x="402.48" y="301.7803">Scheduler</text></g><!--entity CHANNEL--><g class="entity" data-qualified-name="Runtime.CHANNEL" data-source-line="13" id="ent0010"><rect fill="#FFFFFF" height="48" rx="4" ry="4" style="stroke:#64748B;stroke-width:0.5;" width="93.4551" x="459.27" y="393"/><text fill="#0F172A" font-family="Helvetica" font-size="14" lengthAdjust="spacing" textLength="73.4551" x="469.27" y="413.7803">&#128228; Delivery</text><text fill="#0F172A" font-family="Helvetica" font-size="14" lengthAdjust="spacing" textLength="59.1514" x="476.4219" y="427.7803">Channels</text></g><!--link SOUL to ENGINE--><g class="link" data-entity-1="ent0002" data-entity-2="ent0008" data-link-type="dependency" data-source-line="15" id="lnk11"><path d="M1074.46,158.48 C1051.95,171.56 1034,182 1034,182 C1034,182 770.1908,245.5983 648.9708,274.8183" fill="none" id="SOUL-to-ENGINE" style="stroke:#64748B;stroke-width:1.1;"/><polygon fill="#64748B" points="644.11,275.99,653.7967,277.7696,648.9708,274.8183,651.922,269.9923,644.11,275.99" style="stroke:#64748B;stroke-width:1.1;stroke-linejoin:miter;stroke-miterlimit:10;"/><text fill="#334155" font-family="Helvetica" font-size="12" lengthAdjust="spacing" textLength="88.7285" x="996.68" y="200.2402">Shapes Persona</text></g><!--link USER to ENGINE--><g class="link" data-entity-1="ent0003" data-entity-2="ent0008" data-link-type="dependency" data-source-line="16" id="lnk12"><path d="M412.29,158.34 C422.84,181.61 433,204 433,204 C433,204 497,212 497,212 C497,212 529.3198,240.3244 555.5398,263.3044" fill="none" id="USER-to-ENGINE" style="stroke:#64748B;stroke-width:1.1;"/><polygon fill="#64748B" points="559.3,266.6,555.1681,257.6598,555.5398,263.3044,549.8952,263.6762,559.3,266.6" style="stroke:#64748B;stroke-width:1.1;stroke-linejoin:miter;stroke-miterlimit:10;"/><text fill="#334155" font-family="Helvetica" font-size="12" lengthAdjust="spacing" textLength="132.0703" x="434" y="200.2402">Personalizes Responses</text></g><!--link TOOLS to ENGINE--><g class="link" data-entity-1="ent0006" data-entity-2="ent0008" data-link-type="dependency" data-source-line="17" id="lnk13"><path d="M861.07,158.34 C841.16,181.61 822,204 822,204 C822,204 718.9177,241.5578 649.0377,267.0278" fill="none" id="TOOLS-to-ENGINE" style="stroke:#64748B;stroke-width:1.1;"/><polygon fill="#64748B" points="644.34,268.74,654.1656,269.4162,649.0377,267.0278,651.4261,261.8998,644.34,268.74" style="stroke:#64748B;stroke-width:1.1;stroke-linejoin:miter;stroke-miterlimit:10;"/><text fill="#334155" font-family="Helvetica" font-size="12" lengthAdjust="spacing" textLength="84.709" x="833.28" y="200.2402">Enforces Safety</text></g><!--link AGENTS to ENGINE--><g class="link" data-entity-1="ent0004" data-entity-2="ent0008" data-link-type="dependency" data-source-line="18" id="lnk14"><path d="M219.54,158.48 C242.05,171.56 260,182 260,182 C260,182 312,204 312,204 C312,204 497,212 497,212 C497,212 529.3198,240.3244 555.5398,263.3044" fill="none" id="AGENTS-to-ENGINE" style="stroke:#64748B;stroke-width:1.1;"/><polygon fill="#64748B" points="559.3,266.6,555.1681,257.6598,555.5398,263.3044,549.8952,263.6762,559.3,266.6" style="stroke:#64748B;stroke-width:1.1;stroke-linejoin:miter;stroke-miterlimit:10;"/><text fill="#334155" font-family="Helvetica" font-size="12" lengthAdjust="spacing" textLength="104.0391" x="313" y="200.2402">Defines Task Rules</text></g><!--link ENGINE to HEARTBEAT--><g class="link" data-entity-1="ent0008" data-entity-2="ent0005" data-link-type="dependency" data-source-line="19" id="lnk15"><path d="M617.97,266.5 C652.61,241.04 703,204 703,204 C703,204 703,190 703,190 C703,190 695.8259,179.3753 684.3059,162.2953" fill="none" id="ENGINE-to-HEARTBEAT" style="stroke:#64748B;stroke-width:1.1;"/><polygon fill="#64748B" points="681.51,158.15,683.2263,167.8482,684.3059,162.2953,689.8588,163.3748,681.51,158.15" style="stroke:#64748B;stroke-width:1.1;stroke-linejoin:miter;stroke-miterlimit:10;"/><text fill="#334155" font-family="Helvetica" font-size="12" lengthAdjust="spacing" textLength="107.3555" x="704" y="200.2402">Reads/Writes Tasks</text></g><!--link HEARTBEAT to ENGINE--><g class="link" data-entity-1="ent0005" data-entity-2="ent0008" data-link-type="dependency" data-source-line="20" id="lnk16"><path d="M603.86,158.15 C589.46,175.23 577,190 577,190 C577,190 577,204 577,204 C577,204 580.3604,236.0671 583.0204,261.5271" fill="none" id="HEARTBEAT-to-ENGINE" style="stroke:#64748B;stroke-width:1.1;"/><polygon fill="#64748B" points="583.54,266.5,586.5831,257.1331,583.0204,261.5271,578.6264,257.9644,583.54,266.5" style="stroke:#64748B;stroke-width:1.1;stroke-linejoin:miter;stroke-miterlimit:10;"/><text fill="#334155" font-family="Helvetica" font-size="12" lengthAdjust="spacing" textLength="114.0352" x="578" y="200.2402">Triggers Every 30min</text></g><!--link AGENTS to CRON--><g class="link" data-entity-1="ent0004" data-entity-2="ent0009" data-link-type="dependency" data-source-line="21" id="lnk17"><path d="M100.19,158.15 C89.9,175.23 81,190 81,190 C81,190 81,204 81,204 C81,204 293.7521,255.8366 387.2621,278.6166" fill="none" id="AGENTS-to-CRON" style="stroke:#64748B;stroke-width:1.1;"/><polygon fill="#64748B" points="392.12,279.8,384.3225,273.7835,387.2621,278.6166,382.429,281.5561,392.12,279.8" style="stroke:#64748B;stroke-width:1.1;stroke-linejoin:miter;stroke-miterlimit:10;"/><text fill="#334155" font-family="Helvetica" font-size="12" lengthAdjust="spacing" textLength="117.3926" x="82" y="200.2402">Schedules Reminders</text></g><!--link CRON to CHANNEL--><g class="link" data-entity-1="ent0009" data-entity-2="ent0010" data-link-type="dependency" data-source-line="22" id="lnk18"><path d="M431.88,315.32 C430.52,330.32 429,347 429,347 C429,347 429,361 429,361 C429,361 448.292,374.7729 469.282,389.7729" fill="none" id="CRON-to-CHANNEL" style="stroke:#64748B;stroke-width:1.1;"/><polygon fill="#64748B" points="473.35,392.68,468.3533,384.1928,469.282,389.7729,463.7019,390.7016,473.35,392.68" style="stroke:#64748B;stroke-width:1.1;stroke-linejoin:miter;stroke-miterlimit:10;"/><text fill="#334155" font-family="Helvetica" font-size="12" lengthAdjust="spacing" textLength="90.6855" x="430" y="357.2402">Triggers Delivery</text></g><!--link ENGINE to CHANNEL--><g class="link" data-entity-1="ent0008" data-entity-2="ent0010" data-link-type="dependency" data-source-line="23" id="lnk19"><path d="M570.95,315.32 C556.65,337.49 537.971,366.4487 523.691,388.5787" fill="none" id="ENGINE-to-CHANNEL" style="stroke:#64748B;stroke-width:1.1;"/><polygon fill="#64748B" points="520.98,392.78,529.2208,387.3865,523.691,388.5787,522.4988,383.0489,520.98,392.78" style="stroke:#64748B;stroke-width:1.1;stroke-linejoin:miter;stroke-miterlimit:10;"/><text fill="#334155" font-family="Helvetica" font-size="12" lengthAdjust="spacing" textLength="80.0332" x="549.4" y="357.2402">Routes to User</text></g><?plantuml-src dPJDRjD04CVlVegXXzxI8d7ZWEIcfeqKd6AxzDBBrfuag-o7jH-b0I714t0eueg4-W0yKv-0Hs1sxIJE3KNooVFVsT_yPsPVS5KBto2qHi_HMguL4oEtH8adt4kHEDs2qt2ddTCI6cwmTYHAMbQls0BXI36bANhgKBQ2ERItQgpLd2-yOK49KxP6SmJCGhMHmESav65g8IX3ERkUdiZcLbsXiU5-xjPm31-Oy27Ryuzl__cHzkjlc3IeN4XnZdEkU63e0cCjfLUyxh1AjnQu2HZihuEtXadygCqg4WUq8UfrcHKHzTgYWIloZCSaXo8UKmwSeq5Lnr8fLc6z3902ieSMZUEsfxmXA49L3XzSX0imGxZq8ikhCkAb2xe09iewusE_3l2nGCbLGsM-OuewBIbZ5xX4PjmTCWSLioielDYmd-6ItNDjuCBp1WLNQ2DfHpPalSpIeZhBqYhYnZplFVe3l4ofldkCA7RRvrQWmsRuyzNB4PK3utKjC39j2OPOrMmsxHmisHofGUGtUSYuSWSu60QEASBW4hLtFSavtOL6UxkDdmbThtPDjhHR25CkkUliYrJ9bztEvTtEaVKqHX8t_SuUiFPnk3Er8FFZuLwplt9_VptzX7G2yTojsXqCgn2FPVd59C-6Pvw__u6n2SjKrajigElTLe-BMRwV-_69TazGLyoQ7eCbKmf5LyduCitpR4grXCs2qUXDVn6yXdB9Mbh0_X58mdJl2xRFmoUI5MXRwWtQ9BgphypKN1lQAEYwc7Jpjw-9hmD9TZESzB4Wsqu7AGjaZJszCTprSflimdivAyCNr5joBzHECqSZDxmyM1KgxVspsnspIGn5JMVHCDl6p27WJbRGQ54gUgJ3e_GF?></g></svg>