<svg xmlns="http://www.w3.org/2000/svg" xmlns:xlink="http://www.w3.org/1999/xlink" contentStyleType="text/css" data-diagram-type="CLASS" height="1134px" preserveAspectRatio="none" style="width:1275px;height:1134px;" version="1.1" viewBox="0 0 1275 1134" width="1275px" zoomAndPan="magnify"><?plantuml 1.2026.5?><defs><style><![CDATA[
@media (prefers-color-scheme: dark) {
  text { fill: #e5e7eb !important; }
  path, line, rect, circle, ellipse, polygon, polyline { stroke: #cbd5e1 !important; }
  .entity rect, .participant rect, .participant path, .sequenceLine rect, .class rect, .component rect, .component path, .note rect { fill: #111827 !important; }
  .cluster path { fill: none !important; }
  polygon { fill: #cbd5e1 !important; }
}
]]></style></defs><g><!--cluster Public API--><g class="cluster" data-qualified-name="Public API" data-source-line="11" id="ent0001"><path d="M568.5,22.48 L641.2637,22.48 A3.75,3.75 0 0 1 643.7637,24.98 L650.7637,44.9683 L705.5,44.9683 A2.5,2.5 0 0 1 708,47.4683 L708,168.45 A2.5,2.5 0 0 1 705.5,170.95 L568.5,170.95 A2.5,2.5 0 0 1 566,168.45 L566,24.98 A2.5,2.5 0 0 1 568.5,22.48" fill="none" style="stroke:#000000;stroke-width:1.5;"/><line style="stroke:#000000;stroke-width:1.5;" x1="566" x2="650.7637" y1="44.9683" y2="44.9683"/><text fill="#000000" font-family="sans-serif" font-size="14" font-weight="700" lengthAdjust="spacing" textLength="71.7637" x="570" y="38.0152">Public API</text></g><!--cluster Core Framework--><g class="cluster" data-qualified-name="Core Framework" data-source-line="19" id="ent0003"><path d="M615.5,236.44 L735.2539,236.44 A3.75,3.75 0 0 1 737.7539,238.94 L744.7539,258.9283 L832.5,258.9283 A2.5,2.5 0 0 1 835,261.4283 L835,705.26 A2.5,2.5 0 0 1 832.5,707.76 L615.5,707.76 A2.5,2.5 0 0 1 613,705.26 L613,238.94 A2.5,2.5 0 0 1 615.5,236.44" fill="none" style="stroke:#000000;stroke-width:1.5;"/><line style="stroke:#000000;stroke-width:1.5;" x1="613" x2="744.7539" y1="258.9283" y2="258.9283"/><text fill="#000000" font-family="sans-serif" font-size="14" font-weight="700" lengthAdjust="spacing" textLength="118.7539" x="617" y="251.9752">Core Framework</text></g><!--cluster Built-in Tools--><g class="cluster" data-qualified-name="Built-in Tools" data-source-line="42" id="ent0006"><path d="M8.5,756.76 L109.6055,756.76 A3.75,3.75 0 0 1 112.1055,759.26 L119.1055,779.2483 L1162.5,779.2483 A2.5,2.5 0 0 1 1165,781.7483 L1165,952.19 A2.5,2.5 0 0 1 1162.5,954.69 L8.5,954.69 A2.5,2.5 0 0 1 6,952.19 L6,759.26 A2.5,2.5 0 0 1 8.5,756.76" fill="none" style="stroke:#000000;stroke-width:1.5;"/><line style="stroke:#000000;stroke-width:1.5;" x1="6" x2="119.1055" y1="779.2483" y2="779.2483"/><text fill="#000000" font-family="sans-serif" font-size="14" font-weight="700" lengthAdjust="spacing" textLength="100.1055" x="10" y="772.2952">Built-in Tools</text></g><!--cluster External Integration--><g class="cluster" data-qualified-name="External Integration" data-source-line="86" id="ent0013"><path d="M1013.5,6 L1157.918,6 A3.75,3.75 0 0 1 1160.418,8.5 L1167.418,28.4883 L1238.5,28.4883 A2.5,2.5 0 0 1 1241,30.9883 L1241,184.94 A2.5,2.5 0 0 1 1238.5,187.44 L1013.5,187.44 A2.5,2.5 0 0 1 1011,184.94 L1011,8.5 A2.5,2.5 0 0 1 1013.5,6" fill="none" style="stroke:#000000;stroke-width:1.5;"/><line style="stroke:#000000;stroke-width:1.5;" x1="1011" x2="1167.418" y1="28.4883" y2="28.4883"/><text fill="#000000" font-family="sans-serif" font-size="14" font-weight="700" lengthAdjust="spacing" textLength="143.418" x="1015" y="21.5352">External Integration</text></g><!--cluster External Services--><g class="cluster" data-qualified-name="External Services" data-source-line="96" id="ent0015"><path d="M161.5,1003.69 L285.0068,1003.69 A3.75,3.75 0 0 1 287.5068,1006.19 L294.5068,1026.1783 L803.5,1026.1783 A2.5,2.5 0 0 1 806,1028.6783 L806,1116.68 A2.5,2.5 0 0 1 803.5,1119.18 L161.5,1119.18 A2.5,2.5 0 0 1 159,1116.68 L159,1006.19 A2.5,2.5 0 0 1 161.5,1003.69" fill="none" style="stroke:#000000;stroke-width:1.5;"/><line style="stroke:#000000;stroke-width:1.5;" x1="159" x2="294.5068" y1="1026.1783" y2="1026.1783"/><text fill="#000000" font-family="sans-serif" font-size="14" font-weight="700" lengthAdjust="spacing" textLength="122.5068" x="163" y="1019.2252">External Services</text></g><!--class InitModule--><g class="entity" data-qualified-name="Public API.InitModule" data-source-line="12" id="ent0002"><rect fill="#F8FAFC" height="97.4648" rx="2.5" ry="2.5" style="stroke:#4B5563;stroke-width:0.5;" width="110.9434" x="581.53" y="57.48"/><ellipse cx="599.6501" cy="73.48" fill="#ADD1B2" rx="11" ry="11" style="stroke:#181818;stroke-width:1;"/><path d="M602.1233,79.6231 Q601.5422,79.9219 600.903,80.0713 Q600.2639,80.2207 599.5583,80.2207 Q597.0515,80.2207 595.7317,78.5689 Q594.4118,76.917 594.4118,73.7959 Q594.4118,70.6665 595.7317,69.0147 Q597.0515,67.3628 599.5583,67.3628 Q600.2639,67.3628 600.9113,67.5122 Q601.5588,67.6616 602.1233,67.9605 L602.1233,70.6831 Q601.4924,70.1021 600.8989,69.8323 Q600.3054,69.5625 599.6745,69.5625 Q598.3298,69.5625 597.645,70.6292 Q596.9602,71.6958 596.9602,73.7959 Q596.9602,75.8877 597.645,76.9544 Q598.3298,78.021 599.6745,78.021 Q600.3054,78.021 600.8989,77.7512 Q601.4924,77.4815 602.1233,76.9004 Z " fill="#000000"/><text fill="#111827" font-family="sans-serif" font-size="14" lengthAdjust="spacing" textLength="72.0098" x="614.3435" y="78.771">InitModule</text><line style="stroke:#4B5563;stroke-width:0.5;" x1="582.53" x2="691.4734" y1="89.48" y2="89.48"/><text fill="#000000" font-family="sans-serif" font-size="14" lengthAdjust="spacing" textLength="65.6865" x="601.53" y="107.0152">&#171;module&#187;</text><g data-visibility-modifier="PUBLIC_FIELD"><ellipse cx="592.53" cy="119.7124" fill="none" rx="3" ry="3" style="stroke:#038048;stroke-width:1;"/></g><text fill="#000000" font-family="sans-serif" font-size="14" lengthAdjust="spacing" textLength="30.0986" x="601.53" y="123.5034">Tool</text><g data-visibility-modifier="PUBLIC_FIELD"><ellipse cx="592.53" cy="136.2007" fill="none" rx="3" ry="3" style="stroke:#038048;stroke-width:1;"/></g><text fill="#000000" font-family="sans-serif" font-size="14" lengthAdjust="spacing" textLength="84.9434" x="601.53" y="139.9917">ToolRegistry</text><line style="stroke:#4B5563;stroke-width:0.5;" x1="582.53" x2="691.4734" y1="146.9448" y2="146.9448"/></g><!--class ToolBase--><g class="entity" data-qualified-name="Core Framework.ToolBase" data-source-line="20" id="ent0004"><rect fill="#F8FAFC" height="179.9063" rx="2.5" ry="2.5" style="stroke:#4B5563;stroke-width:0.5;" width="189.0371" x="629.48" y="511.86"/><ellipse cx="689.3389" cy="527.86" fill="#ADD1B2" rx="11" ry="11" style="stroke:#181818;stroke-width:1;"/><path d="M691.812,534.0031 Q691.231,534.3019 690.5918,534.4513 Q689.9527,534.6007 689.2471,534.6007 Q686.7403,534.6007 685.4204,532.9489 Q684.1006,531.297 684.1006,528.1759 Q684.1006,525.0465 685.4204,523.3947 Q686.7403,521.7428 689.2471,521.7428 Q689.9527,521.7428 690.6001,521.8922 Q691.2476,522.0416 691.812,522.3405 L691.812,525.0631 Q691.1812,524.4821 690.5877,524.2123 Q689.9942,523.9425 689.3633,523.9425 Q688.0186,523.9425 687.3338,525.0092 Q686.6489,526.0758 686.6489,528.1759 Q686.6489,530.2677 687.3338,531.3344 Q688.0186,532.401 689.3633,532.401 Q689.9942,532.401 690.5877,532.1312 Q691.1812,531.8615 691.812,531.2804 Z " fill="#000000"/><text fill="#111827" font-family="sans-serif" font-size="14" lengthAdjust="spacing" textLength="60.8193" x="709.8389" y="533.151">ToolBase</text><line style="stroke:#4B5563;stroke-width:0.5;" x1="630.48" x2="817.5171" y1="543.86" y2="543.86"/><text fill="#000000" font-family="sans-serif" font-size="14" lengthAdjust="spacing" textLength="69.4531" x="649.48" y="561.3952">&#171;abstract&#187;</text><g data-visibility-modifier="PUBLIC_FIELD"><ellipse cx="640.48" cy="574.0924" fill="none" rx="3" ry="3" style="stroke:#038048;stroke-width:1;"/></g><text fill="#000000" font-family="sans-serif" font-size="14" lengthAdjust="spacing" textLength="64.251" x="649.48" y="577.8834">name: str</text><g data-visibility-modifier="PUBLIC_FIELD"><ellipse cx="640.48" cy="590.5807" fill="none" rx="3" ry="3" style="stroke:#038048;stroke-width:1;"/></g><text fill="#000000" font-family="sans-serif" font-size="14" lengthAdjust="spacing" textLength="103.0381" x="649.48" y="594.3717">description: str</text><g data-visibility-modifier="PUBLIC_FIELD"><ellipse cx="640.48" cy="607.069" fill="none" rx="3" ry="3" style="stroke:#038048;stroke-width:1;"/></g><text fill="#000000" font-family="sans-serif" font-size="14" lengthAdjust="spacing" textLength="110.8994" x="649.48" y="610.86">parameters: dict</text><line style="stroke:#4B5563;stroke-width:0.5;" x1="630.48" x2="817.5171" y1="617.8131" y2="617.8131"/><g data-visibility-modifier="PUBLIC_METHOD"><ellipse cx="640.48" cy="631.5573" fill="#84BE84" rx="3" ry="3" style="stroke:#038048;stroke-width:1;"/></g><text fill="#000000" font-family="sans-serif" font-size="14" lengthAdjust="spacing" textLength="111.4053" x="649.48" y="635.3483">execute()* async</text><g data-visibility-modifier="PUBLIC_METHOD"><ellipse cx="640.48" cy="648.0455" fill="#84BE84" rx="3" ry="3" style="stroke:#038048;stroke-width:1;"/></g><text fill="#000000" font-family="sans-serif" font-size="14" lengthAdjust="spacing" textLength="118.9658" x="649.48" y="651.8366">validate_params()</text><g data-visibility-modifier="PUBLIC_METHOD"><ellipse cx="640.48" cy="664.5338" fill="#84BE84" rx="3" ry="3" style="stroke:#038048;stroke-width:1;"/></g><text fill="#000000" font-family="sans-serif" font-size="14" lengthAdjust="spacing" textLength="89.4688" x="649.48" y="668.3248">get_schema()</text><g data-visibility-modifier="PRIVATE_METHOD"><rect fill="#F24D5C" height="6" style="stroke:#C82930;stroke-width:1;" width="6" x="637.48" y="678.0221"/></g><text fill="#000000" font-family="sans-serif" font-size="14" lengthAdjust="spacing" textLength="163.0371" x="649.48" y="684.8131">_validate_json_schema()</text></g><!--class ToolRegistry--><g class="entity" data-qualified-name="Core Framework.ToolRegistry" data-source-line="31" id="ent0005"><rect fill="#F8FAFC" height="163.418" rx="2.5" ry="2.5" style="stroke:#4B5563;stroke-width:0.5;" width="184.5459" x="634.73" y="271.44"/><ellipse cx="680.2813" cy="287.44" fill="#ADD1B2" rx="11" ry="11" style="stroke:#181818;stroke-width:1;"/><path d="M682.7544,293.5831 Q682.1734,293.8819 681.5342,294.0313 Q680.895,294.1807 680.1895,294.1807 Q677.6826,294.1807 676.3628,292.5289 Q675.043,290.877 675.043,287.7559 Q675.043,284.6265 676.3628,282.9747 Q677.6826,281.3228 680.1895,281.3228 Q680.895,281.3228 681.5425,281.4722 Q682.19,281.6216 682.7544,281.9205 L682.7544,284.6431 Q682.1236,284.0621 681.53,283.7923 Q680.9365,283.5225 680.3057,283.5225 Q678.961,283.5225 678.2761,284.5892 Q677.5913,285.6558 677.5913,287.7559 Q677.5913,289.8477 678.2761,290.9144 Q678.961,291.981 680.3057,291.981 Q680.9365,291.981 681.53,291.7112 Q682.1236,291.4415 682.7544,290.8604 Z " fill="#000000"/><text fill="#111827" font-family="sans-serif" font-size="14" lengthAdjust="spacing" textLength="84.9434" x="700.7813" y="292.731">ToolRegistry</text><line style="stroke:#4B5563;stroke-width:0.5;" x1="635.73" x2="818.2759" y1="303.44" y2="303.44"/><g data-visibility-modifier="PRIVATE_FIELD"><rect fill="none" height="6" style="stroke:#C82930;stroke-width:1;" width="6" x="642.73" y="314.1841"/></g><text fill="#000000" font-family="sans-serif" font-size="14" lengthAdjust="spacing" textLength="74.7441" x="654.73" y="320.9752">_tools: dict</text><line style="stroke:#4B5563;stroke-width:0.5;" x1="635.73" x2="818.2759" y1="327.9283" y2="327.9283"/><g data-visibility-modifier="PUBLIC_METHOD"><ellipse cx="645.73" cy="341.6724" fill="#84BE84" rx="3" ry="3" style="stroke:#038048;stroke-width:1;"/></g><text fill="#000000" font-family="sans-serif" font-size="14" lengthAdjust="spacing" textLength="87.7939" x="654.73" y="345.4634">register(tool)</text><g data-visibility-modifier="PUBLIC_METHOD"><ellipse cx="645.73" cy="358.1607" fill="#84BE84" rx="3" ry="3" style="stroke:#038048;stroke-width:1;"/></g><text fill="#000000" font-family="sans-serif" font-size="14" lengthAdjust="spacing" textLength="115.9785" x="654.73" y="361.9517">unregister(name)</text><g data-visibility-modifier="PUBLIC_METHOD"><ellipse cx="645.73" cy="374.649" fill="#84BE84" rx="3" ry="3" style="stroke:#038048;stroke-width:1;"/></g><text fill="#000000" font-family="sans-serif" font-size="14" lengthAdjust="spacing" textLength="68.1611" x="654.73" y="378.44">get(name)</text><g data-visibility-modifier="PUBLIC_METHOD"><ellipse cx="645.73" cy="391.1373" fill="#84BE84" rx="3" ry="3" style="stroke:#038048;stroke-width:1;"/></g><text fill="#000000" font-family="sans-serif" font-size="14" lengthAdjust="spacing" textLength="158.5459" x="654.73" y="394.9283">execute(name, params)</text><g data-visibility-modifier="PUBLIC_METHOD"><ellipse cx="645.73" cy="407.6255" fill="#84BE84" rx="3" ry="3" style="stroke:#038048;stroke-width:1;"/></g><text fill="#000000" font-family="sans-serif" font-size="14" lengthAdjust="spacing" textLength="110.1201" x="654.73" y="411.4166">get_definitions()</text><g data-visibility-modifier="PUBLIC_METHOD"><ellipse cx="645.73" cy="424.1138" fill="#84BE84" rx="3" ry="3" style="stroke:#038048;stroke-width:1;"/></g><text fill="#000000" font-family="sans-serif" font-size="14" lengthAdjust="spacing" textLength="70.1914" x="654.73" y="427.9048">list_tools()</text></g><!--class FilesystemTool--><g class="entity" data-qualified-name="Built-in Tools.FilesystemTool" data-source-line="43" id="ent0007"><rect fill="#F8FAFC" height="146.9297" rx="2.5" ry="2.5" style="stroke:#4B5563;stroke-width:0.5;" width="133.1924" x="844.4" y="791.76"/><ellipse cx="859.4" cy="807.76" fill="#ADD1B2" rx="11" ry="11" style="stroke:#181818;stroke-width:1;"/><path d="M861.8731,813.9031 Q861.2921,814.2019 860.6529,814.3513 Q860.0138,814.5007 859.3082,814.5007 Q856.8014,814.5007 855.4815,812.8489 Q854.1617,811.197 854.1617,808.0759 Q854.1617,804.9465 855.4815,803.2947 Q856.8014,801.6428 859.3082,801.6428 Q860.0138,801.6428 860.6612,801.7922 Q861.3087,801.9416 861.8731,802.2405 L861.8731,804.9631 Q861.2423,804.3821 860.6488,804.1123 Q860.0553,803.8425 859.4244,803.8425 Q858.0797,803.8425 857.3949,804.9092 Q856.7101,805.9758 856.7101,808.0759 Q856.7101,810.1677 857.3949,811.2344 Q858.0797,812.301 859.4244,812.301 Q860.0553,812.301 860.6488,812.0312 Q861.2423,811.7615 861.8731,811.1804 Z " fill="#000000"/><text fill="#111827" font-family="sans-serif" font-size="14" lengthAdjust="spacing" textLength="101.1924" x="873.4" y="813.051">FilesystemTool</text><line style="stroke:#4B5563;stroke-width:0.5;" x1="845.4" x2="976.5924" y1="823.76" y2="823.76"/><line style="stroke:#4B5563;stroke-width:0.5;" x1="845.4" x2="976.5924" y1="831.76" y2="831.76"/><g data-visibility-modifier="PUBLIC_METHOD"><ellipse cx="855.4" cy="845.5041" fill="#84BE84" rx="3" ry="3" style="stroke:#038048;stroke-width:1;"/></g><text fill="#000000" font-family="sans-serif" font-size="14" lengthAdjust="spacing" textLength="67.2178" x="864.4" y="849.2952">read_file()</text><g data-visibility-modifier="PUBLIC_METHOD"><ellipse cx="855.4" cy="861.9924" fill="#84BE84" rx="3" ry="3" style="stroke:#038048;stroke-width:1;"/></g><text fill="#000000" font-family="sans-serif" font-size="14" lengthAdjust="spacing" textLength="70.7451" x="864.4" y="865.7834">write_file()</text><g data-visibility-modifier="PUBLIC_METHOD"><ellipse cx="855.4" cy="878.4807" fill="#84BE84" rx="3" ry="3" style="stroke:#038048;stroke-width:1;"/></g><text fill="#000000" font-family="sans-serif" font-size="14" lengthAdjust="spacing" textLength="63.041" x="864.4" y="882.2717">edit_file()</text><g data-visibility-modifier="PUBLIC_METHOD"><ellipse cx="855.4" cy="894.969" fill="#84BE84" rx="3" ry="3" style="stroke:#038048;stroke-width:1;"/></g><text fill="#000000" font-family="sans-serif" font-size="14" lengthAdjust="spacing" textLength="97.0088" x="864.4" y="898.76">list_directory()</text><g data-visibility-modifier="PRIVATE_METHOD"><rect fill="#F24D5C" height="6" style="stroke:#C82930;stroke-width:1;" width="6" x="852.4" y="908.4573"/></g><text fill="#000000" font-family="sans-serif" font-size="14" lengthAdjust="spacing" textLength="101.9307" x="864.4" y="915.2483">_resolve_path()</text><g data-visibility-modifier="PRIVATE_METHOD"><rect fill="#F24D5C" height="6" style="stroke:#C82930;stroke-width:1;" width="6" x="852.4" y="924.9455"/></g><text fill="#000000" font-family="sans-serif" font-size="14" lengthAdjust="spacing" textLength="106.2236" x="864.4" y="931.7366">_validate_path()</text></g><!--class MessageTool--><g class="entity" data-qualified-name="Built-in Tools.MessageTool" data-source-line="52" id="ent0008"><rect fill="#F8FAFC" height="113.9531" rx="2.5" ry="2.5" style="stroke:#4B5563;stroke-width:0.5;" width="136.4346" x="1012.78" y="808.25"/><ellipse cx="1034.9545" cy="824.25" fill="#ADD1B2" rx="11" ry="11" style="stroke:#181818;stroke-width:1;"/><path d="M1037.4277,830.3931 Q1036.8466,830.6919 1036.2074,830.8413 Q1035.5683,830.9907 1034.8627,830.9907 Q1032.3559,830.9907 1031.0361,829.3389 Q1029.7162,827.687 1029.7162,824.5659 Q1029.7162,821.4365 1031.0361,819.7847 Q1032.3559,818.1328 1034.8627,818.1328 Q1035.5683,818.1328 1036.2157,818.2822 Q1036.8632,818.4316 1037.4277,818.7305 L1037.4277,821.4531 Q1036.7968,820.8721 1036.2033,820.6023 Q1035.6098,820.3325 1034.9789,820.3325 Q1033.6342,820.3325 1032.9494,821.3992 Q1032.2646,822.4658 1032.2646,824.5659 Q1032.2646,826.6577 1032.9494,827.7244 Q1033.6342,828.791 1034.9789,828.791 Q1035.6098,828.791 1036.2033,828.5212 Q1036.7968,828.2515 1037.4277,827.6704 Z " fill="#000000"/><text fill="#111827" font-family="sans-serif" font-size="14" lengthAdjust="spacing" textLength="88.4912" x="1050.5488" y="829.541">MessageTool</text><line style="stroke:#4B5563;stroke-width:0.5;" x1="1013.78" x2="1148.2146" y1="840.25" y2="840.25"/><line style="stroke:#4B5563;stroke-width:0.5;" x1="1013.78" x2="1148.2146" y1="848.25" y2="848.25"/><g data-visibility-modifier="PUBLIC_METHOD"><ellipse cx="1023.78" cy="861.9941" fill="#84BE84" rx="3" ry="3" style="stroke:#038048;stroke-width:1;"/></g><text fill="#000000" font-family="sans-serif" font-size="14" lengthAdjust="spacing" textLength="107.9463" x="1032.78" y="865.7852">send_message()</text><g data-visibility-modifier="PUBLIC_METHOD"><ellipse cx="1023.78" cy="878.4824" fill="#84BE84" rx="3" ry="3" style="stroke:#038048;stroke-width:1;"/></g><text fill="#000000" font-family="sans-serif" font-size="14" lengthAdjust="spacing" textLength="87.5957" x="1032.78" y="882.2734">set_context()</text><g data-visibility-modifier="PUBLIC_METHOD"><ellipse cx="1023.78" cy="894.9707" fill="#84BE84" rx="3" ry="3" style="stroke:#038048;stroke-width:1;"/></g><text fill="#000000" font-family="sans-serif" font-size="14" lengthAdjust="spacing" textLength="78.1484" x="1032.78" y="898.7617">reset_turn()</text><g data-visibility-modifier="PRIVATE_METHOD"><rect fill="#F24D5C" height="6" style="stroke:#C82930;stroke-width:1;" width="6" x="1020.78" y="908.459"/></g><text fill="#000000" font-family="sans-serif" font-size="14" lengthAdjust="spacing" textLength="110.4346" x="1032.78" y="915.25">_send_callback()</text></g><!--class WebTool--><g class="entity" data-qualified-name="Built-in Tools.WebTool" data-source-line="59" id="ent0009"><rect fill="#F8FAFC" height="113.9531" rx="2.5" ry="2.5" style="stroke:#4B5563;stroke-width:0.5;" width="172.583" x="21.71" y="808.25"/><ellipse cx="74.4082" cy="824.25" fill="#ADD1B2" rx="11" ry="11" style="stroke:#181818;stroke-width:1;"/><path d="M76.8814,830.3931 Q76.3003,830.6919 75.6612,830.8413 Q75.022,830.9907 74.3164,830.9907 Q71.8096,830.9907 70.4898,829.3389 Q69.17,827.687 69.17,824.5659 Q69.17,821.4365 70.4898,819.7847 Q71.8096,818.1328 74.3164,818.1328 Q75.022,818.1328 75.6695,818.2822 Q76.3169,818.4316 76.8814,818.7305 L76.8814,821.4531 Q76.2505,820.8721 75.657,820.6023 Q75.0635,820.3325 74.4327,820.3325 Q73.0879,820.3325 72.4031,821.3992 Q71.7183,822.4658 71.7183,824.5659 Q71.7183,826.6577 72.4031,827.7244 Q73.0879,828.791 74.4327,828.791 Q75.0635,828.791 75.657,828.5212 Q76.2505,828.2515 76.8814,827.6704 Z " fill="#000000"/><text fill="#111827" font-family="sans-serif" font-size="14" lengthAdjust="spacing" textLength="58.6865" x="94.9082" y="829.541">WebTool</text><line style="stroke:#4B5563;stroke-width:0.5;" x1="22.71" x2="193.293" y1="840.25" y2="840.25"/><line style="stroke:#4B5563;stroke-width:0.5;" x1="22.71" x2="193.293" y1="848.25" y2="848.25"/><g data-visibility-modifier="PUBLIC_METHOD"><ellipse cx="32.71" cy="861.9941" fill="#84BE84" rx="3" ry="3" style="stroke:#038048;stroke-width:1;"/></g><text fill="#000000" font-family="sans-serif" font-size="14" lengthAdjust="spacing" textLength="87.7598" x="41.71" y="865.7852">web_search()</text><g data-visibility-modifier="PUBLIC_METHOD"><ellipse cx="32.71" cy="878.4824" fill="#84BE84" rx="3" ry="3" style="stroke:#038048;stroke-width:1;"/></g><text fill="#000000" font-family="sans-serif" font-size="14" lengthAdjust="spacing" textLength="68.6123" x="41.71" y="882.2734">fetch_url()</text><g data-visibility-modifier="PRIVATE_METHOD"><rect fill="#F24D5C" height="6" style="stroke:#C82930;stroke-width:1;" width="6" x="29.71" y="891.9707"/></g><text fill="#000000" font-family="sans-serif" font-size="14" lengthAdjust="spacing" textLength="146.583" x="41.71" y="898.7617">_html_to_markdown()</text><g data-visibility-modifier="PRIVATE_METHOD"><rect fill="#F24D5C" height="6" style="stroke:#C82930;stroke-width:1;" width="6" x="29.71" y="908.459"/></g><text fill="#000000" font-family="sans-serif" font-size="14" lengthAdjust="spacing" textLength="122.0146" x="41.71" y="915.25">_extract_content()</text></g><!--class CronTool--><g class="entity" data-qualified-name="Built-in Tools.CronTool" data-source-line="66" id="ent0010"><rect fill="#F8FAFC" height="113.9531" rx="2.5" ry="2.5" style="stroke:#4B5563;stroke-width:0.5;" width="165.0225" x="229.49" y="808.25"/><ellipse cx="276.3504" cy="824.25" fill="#ADD1B2" rx="11" ry="11" style="stroke:#181818;stroke-width:1;"/><path d="M278.8235,830.3931 Q278.2424,830.6919 277.6033,830.8413 Q276.9641,830.9907 276.2586,830.9907 Q273.7517,830.9907 272.4319,829.3389 Q271.1121,827.687 271.1121,824.5659 Q271.1121,821.4365 272.4319,819.7847 Q273.7517,818.1328 276.2586,818.1328 Q276.9641,818.1328 277.6116,818.2822 Q278.259,818.4316 278.8235,818.7305 L278.8235,821.4531 Q278.1926,820.8721 277.5991,820.6023 Q277.0056,820.3325 276.3748,820.3325 Q275.03,820.3325 274.3452,821.3992 Q273.6604,822.4658 273.6604,824.5659 Q273.6604,826.6577 274.3452,827.7244 Q275.03,828.791 276.3748,828.791 Q277.0056,828.791 277.5991,828.5212 Q278.1926,828.2515 278.8235,827.6704 Z " fill="#000000"/><text fill="#111827" font-family="sans-serif" font-size="14" lengthAdjust="spacing" textLength="62.8018" x="296.8504" y="829.541">CronTool</text><line style="stroke:#4B5563;stroke-width:0.5;" x1="230.49" x2="393.5125" y1="840.25" y2="840.25"/><line style="stroke:#4B5563;stroke-width:0.5;" x1="230.49" x2="393.5125" y1="848.25" y2="848.25"/><g data-visibility-modifier="PUBLIC_METHOD"><ellipse cx="240.49" cy="861.9941" fill="#84BE84" rx="3" ry="3" style="stroke:#038048;stroke-width:1;"/></g><text fill="#000000" font-family="sans-serif" font-size="14" lengthAdjust="spacing" textLength="63.1299" x="249.49" y="865.7852">add_job()</text><g data-visibility-modifier="PUBLIC_METHOD"><ellipse cx="240.49" cy="878.4824" fill="#84BE84" rx="3" ry="3" style="stroke:#038048;stroke-width:1;"/></g><text fill="#000000" font-family="sans-serif" font-size="14" lengthAdjust="spacing" textLength="65.3789" x="249.49" y="882.2734">list_jobs()</text><g data-visibility-modifier="PUBLIC_METHOD"><ellipse cx="240.49" cy="894.9707" fill="#84BE84" rx="3" ry="3" style="stroke:#038048;stroke-width:1;"/></g><text fill="#000000" font-family="sans-serif" font-size="14" lengthAdjust="spacing" textLength="88.0195" x="249.49" y="898.7617">remove_job()</text><g data-visibility-modifier="PRIVATE_METHOD"><rect fill="#F24D5C" height="6" style="stroke:#C82930;stroke-width:1;" width="6" x="237.49" y="908.459"/></g><text fill="#000000" font-family="sans-serif" font-size="14" lengthAdjust="spacing" textLength="139.0225" x="249.49" y="915.25">_validate_timezone()</text></g><!--class ShellTool--><g class="entity" data-qualified-name="Built-in Tools.ShellTool" data-source-line="73" id="ent0011"><rect fill="#F8FAFC" height="113.9531" rx="2.5" ry="2.5" style="stroke:#4B5563;stroke-width:0.5;" width="173.7041" x="429.15" y="808.25"/><ellipse cx="480.6417" cy="824.25" fill="#ADD1B2" rx="11" ry="11" style="stroke:#181818;stroke-width:1;"/><path d="M483.1148,830.3931 Q482.5338,830.6919 481.8946,830.8413 Q481.2555,830.9907 480.5499,830.9907 Q478.0431,830.9907 476.7232,829.3389 Q475.4034,827.687 475.4034,824.5659 Q475.4034,821.4365 476.7232,819.7847 Q478.0431,818.1328 480.5499,818.1328 Q481.2555,818.1328 481.9029,818.2822 Q482.5504,818.4316 483.1148,818.7305 L483.1148,821.4531 Q482.484,820.8721 481.8905,820.6023 Q481.297,820.3325 480.6661,820.3325 Q479.3214,820.3325 478.6366,821.3992 Q477.9518,822.4658 477.9518,824.5659 Q477.9518,826.6577 478.6366,827.7244 Q479.3214,828.791 480.6661,828.791 Q481.297,828.791 481.8905,828.5212 Q482.484,828.2515 483.1148,827.6704 Z " fill="#000000"/><text fill="#111827" font-family="sans-serif" font-size="14" lengthAdjust="spacing" textLength="62.2207" x="501.1417" y="829.541">ShellTool</text><line style="stroke:#4B5563;stroke-width:0.5;" x1="430.15" x2="601.8541" y1="840.25" y2="840.25"/><line style="stroke:#4B5563;stroke-width:0.5;" x1="430.15" x2="601.8541" y1="848.25" y2="848.25"/><g data-visibility-modifier="PUBLIC_METHOD"><ellipse cx="440.15" cy="861.9941" fill="#84BE84" rx="3" ry="3" style="stroke:#038048;stroke-width:1;"/></g><text fill="#000000" font-family="sans-serif" font-size="14" lengthAdjust="spacing" textLength="136.3291" x="449.15" y="865.7852">execute_command()</text><g data-visibility-modifier="PRIVATE_METHOD"><rect fill="#F24D5C" height="6" style="stroke:#C82930;stroke-width:1;" width="6" x="437.15" y="875.4824"/></g><text fill="#000000" font-family="sans-serif" font-size="14" lengthAdjust="spacing" textLength="115.1992" x="449.15" y="882.2734">_check_denylist()</text><g data-visibility-modifier="PRIVATE_METHOD"><rect fill="#F24D5C" height="6" style="stroke:#C82930;stroke-width:1;" width="6" x="437.15" y="891.9707"/></g><text fill="#000000" font-family="sans-serif" font-size="14" lengthAdjust="spacing" textLength="108.1992" x="449.15" y="898.7617">_extract_paths()</text><g data-visibility-modifier="PRIVATE_METHOD"><rect fill="#F24D5C" height="6" style="stroke:#C82930;stroke-width:1;" width="6" x="437.15" y="908.459"/></g><text fill="#000000" font-family="sans-serif" font-size="14" lengthAdjust="spacing" textLength="147.7041" x="449.15" y="915.25">_validate_workspace()</text></g><!--class SpawnTool--><g class="entity" data-qualified-name="Built-in Tools.SpawnTool" data-source-line="80" id="ent0012"><rect fill="#F8FAFC" height="80.9766" rx="2.5" ry="2.5" style="stroke:#4B5563;stroke-width:0.5;" width="171.4141" x="638.29" y="824.74"/><ellipse cx="682.9184" cy="840.74" fill="#ADD1B2" rx="11" ry="11" style="stroke:#181818;stroke-width:1;"/><path d="M685.3916,846.8831 Q684.8105,847.1819 684.1713,847.3313 Q683.5322,847.4807 682.8266,847.4807 Q680.3198,847.4807 679,845.8289 Q677.6801,844.177 677.6801,841.0559 Q677.6801,837.9265 679,836.2747 Q680.3198,834.6228 682.8266,834.6228 Q683.5322,834.6228 684.1796,834.7722 Q684.8271,834.9216 685.3916,835.2205 L685.3916,837.9431 Q684.7607,837.3621 684.1672,837.0923 Q683.5737,836.8225 682.9428,836.8225 Q681.5981,836.8225 680.9133,837.8892 Q680.2285,838.9558 680.2285,841.0559 Q680.2285,843.1477 680.9133,844.2144 Q681.5981,845.281 682.9428,845.281 Q683.5737,845.281 684.1672,845.0112 Q684.7607,844.7415 685.3916,844.1604 Z " fill="#000000"/><text fill="#111827" font-family="sans-serif" font-size="14" lengthAdjust="spacing" textLength="73.6572" x="703.4184" y="846.031">SpawnTool</text><line style="stroke:#4B5563;stroke-width:0.5;" x1="639.29" x2="808.7041" y1="856.74" y2="856.74"/><line style="stroke:#4B5563;stroke-width:0.5;" x1="639.29" x2="808.7041" y1="864.74" y2="864.74"/><g data-visibility-modifier="PUBLIC_METHOD"><ellipse cx="649.29" cy="878.4841" fill="#84BE84" rx="3" ry="3" style="stroke:#038048;stroke-width:1;"/></g><text fill="#000000" font-family="sans-serif" font-size="14" lengthAdjust="spacing" textLength="122.083" x="658.29" y="882.2752">spawn_subagent()</text><g data-visibility-modifier="PRIVATE_METHOD"><rect fill="#F24D5C" height="6" style="stroke:#C82930;stroke-width:1;" width="6" x="646.29" y="891.9724"/></g><text fill="#000000" font-family="sans-serif" font-size="14" lengthAdjust="spacing" textLength="145.4141" x="658.29" y="898.7634">_create_session_key()</text></g><!--class MCPClient--><g class="entity" data-qualified-name="External Integration.MCPClient" data-source-line="87" id="ent0014"><rect fill="#F8FAFC" height="130.4414" rx="2.5" ry="2.5" style="stroke:#4B5563;stroke-width:0.5;" width="198.6006" x="1026.7" y="41"/><ellipse cx="1087.2562" cy="57" fill="#ADD1B2" rx="11" ry="11" style="stroke:#181818;stroke-width:1;"/><path d="M1089.7293,63.1431 Q1089.1482,63.4419 1088.5091,63.5913 Q1087.8699,63.7407 1087.1644,63.7407 Q1084.6575,63.7407 1083.3377,62.0889 Q1082.0179,60.437 1082.0179,57.3159 Q1082.0179,54.1865 1083.3377,52.5347 Q1084.6575,50.8828 1087.1644,50.8828 Q1087.8699,50.8828 1088.5174,51.0322 Q1089.1648,51.1816 1089.7293,51.4805 L1089.7293,54.2031 Q1089.0984,53.6221 1088.5049,53.3523 Q1087.9114,53.0825 1087.2806,53.0825 Q1085.9358,53.0825 1085.251,54.1492 Q1084.5662,55.2158 1084.5662,57.3159 Q1084.5662,59.4077 1085.251,60.4744 Q1085.9358,61.541 1087.2806,61.541 Q1087.9114,61.541 1088.5049,61.2712 Q1089.0984,61.0015 1089.7293,60.4204 Z " fill="#000000"/><text fill="#111827" font-family="sans-serif" font-size="14" lengthAdjust="spacing" textLength="68.9883" x="1107.7562" y="62.291">MCPClient</text><line style="stroke:#4B5563;stroke-width:0.5;" x1="1027.7" x2="1224.3006" y1="73" y2="73"/><line style="stroke:#4B5563;stroke-width:0.5;" x1="1027.7" x2="1224.3006" y1="81" y2="81"/><g data-visibility-modifier="PUBLIC_METHOD"><ellipse cx="1037.7" cy="94.7441" fill="#84BE84" rx="3" ry="3" style="stroke:#038048;stroke-width:1;"/></g><text fill="#000000" font-family="sans-serif" font-size="14" lengthAdjust="spacing" textLength="118.0361" x="1046.7" y="98.5352">connect_servers()</text><g data-visibility-modifier="PUBLIC_METHOD"><ellipse cx="1037.7" cy="111.2324" fill="#84BE84" rx="3" ry="3" style="stroke:#038048;stroke-width:1;"/></g><text fill="#000000" font-family="sans-serif" font-size="14" lengthAdjust="spacing" textLength="106.2646" x="1046.7" y="115.0234">discover_tools()</text><g data-visibility-modifier="PUBLIC_METHOD"><ellipse cx="1037.7" cy="127.7207" fill="#84BE84" rx="3" ry="3" style="stroke:#038048;stroke-width:1;"/></g><text fill="#000000" font-family="sans-serif" font-size="14" lengthAdjust="spacing" textLength="111.6992" x="1046.7" y="131.5117">wrap_mcp_tool()</text><g data-visibility-modifier="PRIVATE_METHOD"><rect fill="#F24D5C" height="6" style="stroke:#C82930;stroke-width:1;" width="6" x="1034.7" y="141.209"/></g><text fill="#000000" font-family="sans-serif" font-size="14" lengthAdjust="spacing" textLength="172.6006" x="1046.7" y="148">_handle_stdio_transport()</text><g data-visibility-modifier="PRIVATE_METHOD"><rect fill="#F24D5C" height="6" style="stroke:#C82930;stroke-width:1;" width="6" x="1034.7" y="157.6973"/></g><text fill="#000000" font-family="sans-serif" font-size="14" lengthAdjust="spacing" textLength="166.7422" x="1046.7" y="164.4883">_handle_http_transport()</text></g><!--class CronService--><g class="entity" data-qualified-name="External Services.CronService" data-source-line="97" id="ent0016"><rect fill="#F8FAFC" height="64.4883" rx="2.5" ry="2.5" style="stroke:#4B5563;stroke-width:0.5;" width="112.0352" x="343.98" y="1038.69"/><ellipse cx="358.98" cy="1054.69" fill="#ADD1B2" rx="11" ry="11" style="stroke:#181818;stroke-width:1;"/><path d="M361.4531,1060.8331 Q360.8721,1061.1319 360.2329,1061.2813 Q359.5938,1061.4307 358.8882,1061.4307 Q356.3814,1061.4307 355.0615,1059.7789 Q353.7417,1058.127 353.7417,1055.0059 Q353.7417,1051.8765 355.0615,1050.2247 Q356.3814,1048.5728 358.8882,1048.5728 Q359.5938,1048.5728 360.2412,1048.7222 Q360.8887,1048.8716 361.4531,1049.1705 L361.4531,1051.8931 Q360.8223,1051.3121 360.2288,1051.0423 Q359.6353,1050.7725 359.0044,1050.7725 Q357.6597,1050.7725 356.9749,1051.8392 Q356.2901,1052.9058 356.2901,1055.0059 Q356.2901,1057.0977 356.9749,1058.1644 Q357.6597,1059.231 359.0044,1059.231 Q359.6353,1059.231 360.2288,1058.9612 Q360.8223,1058.6915 361.4531,1058.1104 Z " fill="#000000"/><text fill="#111827" font-family="sans-serif" font-size="14" lengthAdjust="spacing" textLength="80.0352" x="372.98" y="1059.981">CronService</text><line style="stroke:#4B5563;stroke-width:0.5;" x1="344.98" x2="455.0152" y1="1070.69" y2="1070.69"/><text fill="#000000" font-family="sans-serif" font-size="14" lengthAdjust="spacing" textLength="70.2871" x="349.98" y="1088.2252">&#171;external&#187;</text><line style="stroke:#4B5563;stroke-width:0.5;" x1="344.98" x2="455.0152" y1="1095.1783" y2="1095.1783"/></g><!--class SubagentManager--><g class="entity" data-qualified-name="External Services.SubagentManager" data-source-line="100" id="ent0017"><rect fill="#F8FAFC" height="64.4883" rx="2.5" ry="2.5" style="stroke:#4B5563;stroke-width:0.5;" width="153.6934" x="491.15" y="1038.69"/><ellipse cx="506.15" cy="1054.69" fill="#ADD1B2" rx="11" ry="11" style="stroke:#181818;stroke-width:1;"/><path d="M508.6231,1060.8331 Q508.0421,1061.1319 507.4029,1061.2813 Q506.7638,1061.4307 506.0582,1061.4307 Q503.5514,1061.4307 502.2315,1059.7789 Q500.9117,1058.127 500.9117,1055.0059 Q500.9117,1051.8765 502.2315,1050.2247 Q503.5514,1048.5728 506.0582,1048.5728 Q506.7638,1048.5728 507.4112,1048.7222 Q508.0587,1048.8716 508.6231,1049.1705 L508.6231,1051.8931 Q507.9923,1051.3121 507.3988,1051.0423 Q506.8053,1050.7725 506.1744,1050.7725 Q504.8297,1050.7725 504.1449,1051.8392 Q503.4601,1052.9058 503.4601,1055.0059 Q503.4601,1057.0977 504.1449,1058.1644 Q504.8297,1059.231 506.1744,1059.231 Q506.8053,1059.231 507.3988,1058.9612 Q507.9923,1058.6915 508.6231,1058.1104 Z " fill="#000000"/><text fill="#111827" font-family="sans-serif" font-size="14" lengthAdjust="spacing" textLength="121.6934" x="520.15" y="1059.981">SubagentManager</text><line style="stroke:#4B5563;stroke-width:0.5;" x1="492.15" x2="643.8434" y1="1070.69" y2="1070.69"/><text fill="#000000" font-family="sans-serif" font-size="14" lengthAdjust="spacing" textLength="70.2871" x="497.15" y="1088.2252">&#171;external&#187;</text><line style="stroke:#4B5563;stroke-width:0.5;" x1="492.15" x2="643.8434" y1="1095.1783" y2="1095.1783"/></g><!--class BraveSearchAPI--><g class="entity" data-qualified-name="External Services.BraveSearchAPI" data-source-line="103" id="ent0018"><rect fill="#F8FAFC" height="64.4883" rx="2.5" ry="2.5" style="stroke:#4B5563;stroke-width:0.5;" width="134.6484" x="174.68" y="1038.69"/><ellipse cx="189.68" cy="1054.69" fill="#ADD1B2" rx="11" ry="11" style="stroke:#181818;stroke-width:1;"/><path d="M192.1531,1060.8331 Q191.5721,1061.1319 190.9329,1061.2813 Q190.2938,1061.4307 189.5882,1061.4307 Q187.0814,1061.4307 185.7615,1059.7789 Q184.4417,1058.127 184.4417,1055.0059 Q184.4417,1051.8765 185.7615,1050.2247 Q187.0814,1048.5728 189.5882,1048.5728 Q190.2938,1048.5728 190.9412,1048.7222 Q191.5887,1048.8716 192.1531,1049.1705 L192.1531,1051.8931 Q191.5223,1051.3121 190.9288,1051.0423 Q190.3353,1050.7725 189.7044,1050.7725 Q188.3597,1050.7725 187.6749,1051.8392 Q186.9901,1052.9058 186.9901,1055.0059 Q186.9901,1057.0977 187.6749,1058.1644 Q188.3597,1059.231 189.7044,1059.231 Q190.3353,1059.231 190.9288,1058.9612 Q191.5223,1058.6915 192.1531,1058.1104 Z " fill="#000000"/><text fill="#111827" font-family="sans-serif" font-size="14" lengthAdjust="spacing" textLength="102.6484" x="203.68" y="1059.981">BraveSearchAPI</text><line style="stroke:#4B5563;stroke-width:0.5;" x1="175.68" x2="308.3284" y1="1070.69" y2="1070.69"/><text fill="#000000" font-family="sans-serif" font-size="14" lengthAdjust="spacing" textLength="70.2871" x="180.68" y="1088.2252">&#171;external&#187;</text><line style="stroke:#4B5563;stroke-width:0.5;" x1="175.68" x2="308.3284" y1="1095.1783" y2="1095.1783"/></g><!--class MCPServers--><g class="entity" data-qualified-name="External Services.MCPServers" data-source-line="106" id="ent0019"><rect fill="#F8FAFC" height="64.4883" rx="2.5" ry="2.5" style="stroke:#4B5563;stroke-width:0.5;" width="110.4629" x="679.77" y="1038.69"/><ellipse cx="694.77" cy="1054.69" fill="#ADD1B2" rx="11" ry="11" style="stroke:#181818;stroke-width:1;"/><path d="M697.2431,1060.8331 Q696.6621,1061.1319 696.0229,1061.2813 Q695.3838,1061.4307 694.6782,1061.4307 Q692.1714,1061.4307 690.8515,1059.7789 Q689.5317,1058.127 689.5317,1055.0059 Q689.5317,1051.8765 690.8515,1050.2247 Q692.1714,1048.5728 694.6782,1048.5728 Q695.3838,1048.5728 696.0312,1048.7222 Q696.6787,1048.8716 697.2431,1049.1705 L697.2431,1051.8931 Q696.6123,1051.3121 696.0188,1051.0423 Q695.4253,1050.7725 694.7944,1050.7725 Q693.4497,1050.7725 692.7649,1051.8392 Q692.0801,1052.9058 692.0801,1055.0059 Q692.0801,1057.0977 692.7649,1058.1644 Q693.4497,1059.231 694.7944,1059.231 Q695.4253,1059.231 696.0188,1058.9612 Q696.6123,1058.6915 697.2431,1058.1104 Z " fill="#000000"/><text fill="#111827" font-family="sans-serif" font-size="14" lengthAdjust="spacing" textLength="78.4629" x="708.77" y="1059.981">MCPServers</text><line style="stroke:#4B5563;stroke-width:0.5;" x1="680.77" x2="789.2329" y1="1070.69" y2="1070.69"/><text fill="#000000" font-family="sans-serif" font-size="14" lengthAdjust="spacing" textLength="70.2871" x="685.77" y="1088.2252">&#171;external&#187;</text><line style="stroke:#4B5563;stroke-width:0.5;" x1="680.77" x2="789.2329" y1="1095.1783" y2="1095.1783"/></g><!--link InitModule to ToolBase--><g class="link" data-entity-1="ent0002" data-entity-2="ent0004" data-link-type="dependency" data-source-line="112" id="lnk20"><path codeLine="112" d="M599.72,155.41 C585.6,176.59 571.2,202.52 564,228.44 C539.44,316.83 529.67,349.78 564,434.86 C578,469.56 599.5669,497.5321 625.8169,523.5221" fill="none" id="InitModule-to-ToolBase" style="stroke:#4B5563;stroke-width:1;"/><polygon fill="#4B5563" points="629.37,527.04,625.7888,517.8653,625.8169,523.5221,620.1601,523.5503,629.37,527.04" style="stroke:#4B5563;stroke-width:1;stroke-linejoin:miter;stroke-miterlimit:10;"/><text fill="#000000" font-family="sans-serif" font-size="13" lengthAdjust="spacing" textLength="51.8794" x="565" y="358.2184">exposes</text></g><!--link InitModule to ToolRegistry--><g class="link" data-entity-1="ent0002" data-entity-2="ent0005" data-link-type="dependency" data-source-line="113" id="lnk21"><path codeLine="113" d="M654.67,155.32 C666.81,188.33 681.4748,228.2671 695.5948,266.6771" fill="none" id="InitModule-to-ToolRegistry" style="stroke:#4B5563;stroke-width:1;"/><polygon fill="#4B5563" points="697.32,271.37,697.969,261.5426,695.5948,266.6771,690.4603,264.3028,697.32,271.37" style="stroke:#4B5563;stroke-width:1;stroke-linejoin:miter;stroke-miterlimit:10;"/><text fill="#000000" font-family="sans-serif" font-size="13" lengthAdjust="spacing" textLength="51.8794" x="677.61" y="217.0084">exposes</text></g><!--link ToolRegistry to ToolBase--><g class="link" data-entity-1="ent0005" data-entity-2="ent0004" data-link-type="dependency" data-source-line="115" id="lnk22"><path codeLine="115" d="M726.01,435.25 C725.72,459.69 725.4502,481.6304 725.1502,506.5604" fill="none" id="ToolRegistry-to-ToolBase" style="stroke:#4B5563;stroke-width:1;"/><polygon fill="#4B5563" points="725.09,511.56,729.198,502.6088,725.1502,506.5604,721.1986,502.5125,725.09,511.56" style="stroke:#4B5563;stroke-width:1;stroke-linejoin:miter;stroke-miterlimit:10;"/><text fill="#000000" font-family="sans-serif" font-size="13" lengthAdjust="spacing" textLength="56.5386" x="726.59" y="478.4284">manages</text><text fill="#000000" font-family="sans-serif" font-size="13" lengthAdjust="spacing" textLength="8.2202" x="717.5904" y="455.5318">1</text><text fill="#000000" font-family="sans-serif" font-size="13" lengthAdjust="spacing" textLength="6.2651" x="718.9429" y="501.046">*</text></g><!--reverse link ToolBase to FilesystemTool--><g class="link" data-entity-1="ent0004" data-entity-2="ent0007" data-link-type="extension" data-source-line="116" id="lnk23"><path codeLine="116" d="M798.3004,706.6814 C821.4704,739.0814 836.89,760.62 858.92,791.43" fill="none" id="ToolBase-backto-FilesystemTool" style="stroke:#4B5563;stroke-width:1;"/><polygon fill="none" points="787.83,692.04,793.4199,710.1715,803.1809,703.1913,787.83,692.04" style="stroke:#4B5563;stroke-width:1;stroke-linejoin:miter;stroke-miterlimit:10;"/><text fill="#000000" font-family="sans-serif" font-size="13" lengthAdjust="spacing" textLength="50.1973" x="818.5" y="737.3284">extends</text></g><!--reverse link ToolBase to MessageTool--><g class="link" data-entity-1="ent0004" data-entity-2="ent0008" data-link-type="extension" data-source-line="117" id="lnk24"><path codeLine="117" d="M835.1056,648.8863 C890.2456,674.2263 942.62,703.53 995,748.76 C1014.49,765.59 1032.21,787.57 1046.44,807.83" fill="none" id="ToolBase-backto-MessageTool" style="stroke:#4B5563;stroke-width:1;"/><polygon fill="none" points="818.75,641.37,832.6001,654.3382,837.611,643.4345,818.75,641.37" style="stroke:#4B5563;stroke-width:1;stroke-linejoin:miter;stroke-miterlimit:10;"/><text fill="#000000" font-family="sans-serif" font-size="13" lengthAdjust="spacing" textLength="50.1973" x="983.28" y="737.3284">extends</text></g><!--reverse link ToolBase to WebTool--><g class="link" data-entity-1="ent0004" data-entity-2="ent0009" data-link-type="extension" data-source-line="118" id="lnk25"><path codeLine="118" d="M611.5441,616.4061 C503.6741,632.3761 343.17,666.96 212,748.76 C187.51,764.04 165.32,786.72 147.79,807.94" fill="none" id="ToolBase-backto-WebTool" style="stroke:#4B5563;stroke-width:1;"/><polygon fill="none" points="629.35,613.77,610.6654,610.4708,612.4228,622.3414,629.35,613.77" style="stroke:#4B5563;stroke-width:1;stroke-linejoin:miter;stroke-miterlimit:10;"/><text fill="#000000" font-family="sans-serif" font-size="13" lengthAdjust="spacing" textLength="50.1973" x="250.24" y="737.3284">extends</text></g><!--reverse link ToolBase to CronTool--><g class="link" data-entity-1="ent0004" data-entity-2="ent0010" data-link-type="extension" data-source-line="119" id="lnk26"><path codeLine="119" d="M612.4535,641.5753 C547.4735,666.4953 478.19,698.73 412,748.76 C390,765.39 369.37,787.57 352.63,808.04" fill="none" id="ToolBase-backto-CronTool" style="stroke:#4B5563;stroke-width:1;"/><polygon fill="none" points="629.26,635.13,610.3051,635.9732,614.602,647.1775,629.26,635.13" style="stroke:#4B5563;stroke-width:1;stroke-linejoin:miter;stroke-miterlimit:10;"/><text fill="#000000" font-family="sans-serif" font-size="13" lengthAdjust="spacing" textLength="50.1973" x="443.48" y="737.3284">extends</text></g><!--reverse link ToolBase to ShellTool--><g class="link" data-entity-1="ent0004" data-entity-2="ent0011" data-link-type="extension" data-source-line="120" id="lnk27"><path codeLine="120" d="M641.793,706.1256 C611.193,744.5856 587.55,774.3 560.66,808.1" fill="none" id="ToolBase-backto-ShellTool" style="stroke:#4B5563;stroke-width:1;"/><polygon fill="none" points="653,692.04,637.0978,702.39,646.4882,709.8613,653,692.04" style="stroke:#4B5563;stroke-width:1;stroke-linejoin:miter;stroke-miterlimit:10;"/><text fill="#000000" font-family="sans-serif" font-size="13" lengthAdjust="spacing" textLength="50.1973" x="627.24" y="737.3284">extends</text></g><!--reverse link ToolBase to SpawnTool--><g class="link" data-entity-1="ent0004" data-entity-2="ent0012" data-link-type="extension" data-source-line="121" id="lnk28"><path codeLine="121" d="M724,710.04 C724,755.01 724,789.28 724,824.33" fill="none" id="ToolBase-backto-SpawnTool" style="stroke:#4B5563;stroke-width:1;"/><polygon fill="none" points="724,692.04,718,710.04,730,710.04,724,692.04" style="stroke:#4B5563;stroke-width:1;stroke-linejoin:miter;stroke-miterlimit:10;"/><text fill="#000000" font-family="sans-serif" font-size="13" lengthAdjust="spacing" textLength="50.1973" x="725" y="737.3284">extends</text></g><!--link MCPClient to ToolRegistry--><g class="link" data-entity-1="ent0014" data-entity-2="ent0005" data-link-type="dependency" data-source-line="123" id="lnk29"><path codeLine="123" d="M1026.34,168.39 C962.98,207.29 885.781,254.6739 823.841,292.7039" fill="none" id="MCPClient-to-ToolRegistry" style="stroke:#4B5563;stroke-width:1;"/><polygon fill="#4B5563" points="819.58,295.32,829.3426,294.0197,823.841,292.7039,825.1568,287.2022,819.58,295.32" style="stroke:#4B5563;stroke-width:1;stroke-linejoin:miter;stroke-miterlimit:10;"/><text fill="#000000" font-family="sans-serif" font-size="13" lengthAdjust="spacing" textLength="148.8525" x="963.24" y="217.0084">registers wrapped tools</text></g><!--link MCPClient to MCPServers--><g class="link" data-entity-1="ent0014" data-entity-2="ent0019" data-link-type="dependency" data-source-line="124" id="lnk30"><path codeLine="124" d="M1157.68,171.8 C1178.53,220.24 1202,288.81 1202,352.15 C1202,352.15 1202,352.15 1202,866.23 C1202,1044.02 919.1092,1068.1115 795.3992,1070.3015" fill="none" id="MCPClient-to-MCPServers" style="stroke:#4B5563;stroke-width:1;"/><polygon fill="#4B5563" points="790.4,1070.39,799.4694,1074.2301,795.3992,1070.3015,799.3278,1066.2313,790.4,1070.39" style="stroke:#4B5563;stroke-width:1;stroke-linejoin:miter;stroke-miterlimit:10;"/><text fill="#000000" font-family="sans-serif" font-size="13" lengthAdjust="spacing" textLength="56.1704" x="1203" y="606.8784">connects</text></g><!--link CronTool to CronService--><g class="link" data-entity-1="ent0010" data-entity-2="ent0016" data-link-type="dependency" data-source-line="126" id="lnk31"><path codeLine="126" d="M336.4,922.7 C352.52,960.03 371.0771,1002.98 384.3871,1033.79" fill="none" id="CronTool-to-CronService" style="stroke:#4B5563;stroke-width:1;"/><polygon fill="#4B5563" points="386.37,1038.38,386.4728,1028.5317,384.3871,1033.79,379.1288,1031.7043,386.37,1038.38" style="stroke:#4B5563;stroke-width:1;stroke-linejoin:miter;stroke-miterlimit:10;"/><text fill="#000000" font-family="sans-serif" font-size="13" lengthAdjust="spacing" textLength="28.5645" x="364.88" y="984.2584">uses</text></g><!--link SpawnTool to SubagentManager--><g class="link" data-entity-1="ent0012" data-entity-2="ent0017" data-link-type="dependency" data-source-line="127" id="lnk32"><path codeLine="127" d="M693.55,905.99 C663.94,944.66 622.5705,998.6807 595.2705,1034.3207" fill="none" id="SpawnTool-to-SubagentManager" style="stroke:#4B5563;stroke-width:1;"/><polygon fill="#4B5563" points="592.23,1038.29,600.8783,1033.5776,595.2705,1034.3207,594.5274,1028.7128,592.23,1038.29" style="stroke:#4B5563;stroke-width:1;stroke-linejoin:miter;stroke-miterlimit:10;"/><text fill="#000000" font-family="sans-serif" font-size="13" lengthAdjust="spacing" textLength="28.5645" x="642.32" y="984.2584">uses</text></g><!--link WebTool to BraveSearchAPI--><g class="link" data-entity-1="ent0009" data-entity-2="ent0018" data-link-type="dependency" data-source-line="128" id="lnk33"><path codeLine="128" d="M145.15,922.7 C169.7,960.03 198.2328,1003.3923 218.4928,1034.2023" fill="none" id="WebTool-to-BraveSearchAPI" style="stroke:#4B5563;stroke-width:1;"/><polygon fill="#4B5563" points="221.24,1038.38,219.6373,1028.6624,218.4928,1034.2023,212.953,1033.0579,221.24,1038.38" style="stroke:#4B5563;stroke-width:1;stroke-linejoin:miter;stroke-miterlimit:10;"/><text fill="#000000" font-family="sans-serif" font-size="13" lengthAdjust="spacing" textLength="46.4395" x="188" y="984.2584">queries</text></g><?plantuml-src dLR9Rjim4BtxAmZtq7Jn8TrX104Qem5w210q1NeKA79iiwP8bQJYk6t-lKDAbYMITelwa03p7eTlLifkXAgfeHKfATkiZ6uKNsYf3N66AeiGA3UnFSkkATTReLPaIQM50S8ajPRycX1ofGq7qtfvygPy-_RTQs-D_3zPVbZI9KFaMYlNsSxFpp-yUe-sZyRexTZ5uyJfcZXDIksShWWN1fWJMasGJqYD_kaAoFIsAQLWvEFjvscGq_vQUP-LS3UQDn86aFzTN5J1V7avCh_ughLCBLzW9QmpknvvdBH_nqeMsW2vnkJ0LfjDgiQxkg8srK9Bz4wPYzKeT3KdY8tD72mpelQvoA2XFE30s3dcZBan2W_06WTdpvuJQdUAZT5xAWMd3ehWn9uz6yChS8LbQwXeXCoA_kHtgrLAwb8rpiK-hL4-PeL3CAlUX1DWpZmZ4jUe7lLvIwNdpFjqUEWbQQFE1CrXAR2LCE59JYHUsGeUXPlhZwj6I3SJAWHlq_wu5XBi3YEeF27A2iPEUR54IgnWQmJcFOS05ouB1D7jG6cpIuffm6fvxxl0hOzNEaAJ4j-0jHXtBXOBYXTLYyVQBEQRuOg01nT3g0j1rnYLg0eU6PNIxxLJghv1cLEqXH9zKCFYW5yimR5rqHYPtBbsbSJI5nKr6zoIgIWCmOzr6uvofsGjZ5OvNPJpuhikimL4kqrJL6ciN7faK3WdAlYf5PpISxS6ANE2ked1cAgAAfxSWfFFDZWmQkSr7as9RnvxNA9VeFWQiTCQQxhD9irweB1DYUsbKWqCHmdliDX_ED751dP_7TrF3xXN59NueZXO6UfNGJh0DulRXHHuPIm86q3XhE6LvXuNSrmqBYp3gfbaZtJpJUkYOdL0qoR48aWCnd6XY_OHryOTewsTgxEiluHzXy85WypIyetReScx1jtnmRls6DUmAz8DLVZV_8-BAqFluIxCBdu4_8y7hDjTMvb_FzsbwYdv0ZAqWrsBsWRRuAjZDhiyFFjp0W-rnhOxnkeVn0CpK4VOz7mQ3aoVJuUkgv10s_E3-UBtR1O_AzutRYEUemvNzYdUVecUulGRxHJfi6PEilf1Fx02xJ1mcHJkFmSiyHDK0oTXl3871_MVasvMknlwA3nlsEjpqkmhUP3dIN573uZxj7bQrBLpygC18y3-0G00?></g></svg>