<svg xmlns="http://www.w3.org/2000/svg" xmlns:xlink="http://www.w3.org/1999/xlink" contentStyleType="text/css" data-diagram-type="DESCRIPTION" height="759px" preserveAspectRatio="none" style="width:1155px;height:759px;" version="1.1" viewBox="0 0 1155 759" width="1155px" zoomAndPan="magnify"><?plantuml 1.2026.5?><defs><style><![CDATA[
@media (prefers-color-scheme: dark) {
  text { fill: #e5e7eb !important; }
  path, line, rect, circle, ellipse, polygon, polyline { stroke: #cbd5e1 !important; }
  .entity rect, .participant rect, .participant path, .sequenceLine rect, .class rect, .component rect, .component path, .note rect { fill: #111827 !important; }
  .cluster path { fill: none !important; }
  polygon { fill: #cbd5e1 !important; }
}
]]></style></defs><g><!--cluster CLI--><g class="cluster" data-qualified-name="CLI" data-source-line="13" id="ent0001"><path d="M423.5,6 L508.4248,6 A3.75,3.75 0 0 1 510.9248,8.5 L517.9248,28.4883 L602.5,28.4883 A2.5,2.5 0 0 1 605,30.9883 L605,223.45 A2.5,2.5 0 0 1 602.5,225.95 L423.5,225.95 A2.5,2.5 0 0 1 421,223.45 L421,8.5 A2.5,2.5 0 0 1 423.5,6" fill="none" style="stroke:#64748B;stroke-width:1.5;"/><line style="stroke:#64748B;stroke-width:1.5;" x1="421" x2="517.9248" y1="28.4883" y2="28.4883"/><text fill="#000000" font-family="sans-serif" font-size="14" font-weight="700" lengthAdjust="spacing" textLength="83.9248" x="425" y="21.5352">nanobot/cli</text></g><!--cluster Interface--><g class="cluster" data-qualified-name="Interface" data-source-line="17" id="ent0004"><path d="M631.5,6 L777.3877,6 A3.75,3.75 0 0 1 779.8877,8.5 L786.8877,28.4883 L1137.5,28.4883 A2.5,2.5 0 0 1 1140,30.9883 L1140,107.48 A2.5,2.5 0 0 1 1137.5,109.98 L631.5,109.98 A2.5,2.5 0 0 1 629,107.48 L629,8.5 A2.5,2.5 0 0 1 631.5,6" fill="none" style="stroke:#64748B;stroke-width:1.5;"/><line style="stroke:#64748B;stroke-width:1.5;" x1="629" x2="786.8877" y1="28.4883" y2="28.4883"/><text fill="#000000" font-family="sans-serif" font-size="14" font-weight="700" lengthAdjust="spacing" textLength="144.8877" x="633" y="21.5352">User Interface Layer</text></g><!--cluster Features--><g class="cluster" data-qualified-name="Features" data-source-line="22" id="ent0008"><path d="M8.5,289.95 L166.9111,289.95 A3.75,3.75 0 0 1 169.4111,292.45 L176.4111,312.4383 L985.5,312.4383 A2.5,2.5 0 0 1 988,314.9383 L988,424.41 A2.5,2.5 0 0 1 985.5,426.91 L8.5,426.91 A2.5,2.5 0 0 1 6,424.41 L6,292.45 A2.5,2.5 0 0 1 8.5,289.95" fill="none" style="stroke:#64748B;stroke-width:1.5;"/><line style="stroke:#64748B;stroke-width:1.5;" x1="6" x2="176.4111" y1="312.4383" y2="312.4383"/><text fill="#000000" font-family="sans-serif" font-size="14" font-weight="700" lengthAdjust="spacing" textLength="157.4111" x="10" y="305.4852">Core Feature Modules</text></g><!--cluster Channels--><g class="cluster" data-qualified-name="Channels" data-source-line="29" id="ent0014"><path d="M49.5,459.91 L213.6465,459.91 A3.75,3.75 0 0 1 216.1465,462.41 L223.1465,482.3983 L479.5,482.3983 A2.5,2.5 0 0 1 482,484.8983 L482,741.87 A2.5,2.5 0 0 1 479.5,744.37 L49.5,744.37 A2.5,2.5 0 0 1 47,741.87 L47,462.41 A2.5,2.5 0 0 1 49.5,459.91" fill="none" style="stroke:#64748B;stroke-width:1.5;"/><line style="stroke:#64748B;stroke-width:1.5;" x1="47" x2="223.1465" y1="482.3983" y2="482.3983"/><text fill="#000000" font-family="sans-serif" font-size="14" font-weight="700" lengthAdjust="spacing" textLength="163.1465" x="51" y="475.4452">Multi-Channel Bridges</text></g><!--cluster Providers--><g class="cluster" data-qualified-name="Providers" data-source-line="39" id="ent0023"><path d="M508.5,459.91 L597.5742,459.91 A3.75,3.75 0 0 1 600.0742,462.41 L607.0742,482.3983 L913.5,482.3983 A2.5,2.5 0 0 1 916,484.8983 L916,642.38 A2.5,2.5 0 0 1 913.5,644.88 L508.5,644.88 A2.5,2.5 0 0 1 506,642.38 L506,462.41 A2.5,2.5 0 0 1 508.5,459.91" fill="none" style="stroke:#64748B;stroke-width:1.5;"/><line style="stroke:#64748B;stroke-width:1.5;" x1="506" x2="607.0742" y1="482.3983" y2="482.3983"/><text fill="#000000" font-family="sans-serif" font-size="14" font-weight="700" lengthAdjust="spacing" textLength="88.0742" x="510" y="475.4452">AI Providers</text></g><!--entity INIT--><g class="entity" data-qualified-name="CLI.INIT" data-source-line="14" id="ent0002"><rect fill="#F8FAFC" height="52.9766" rx="2.5" ry="2.5" style="stroke:#4B5563;stroke-width:0.5;" width="142.9443" x="441.53" y="41"/><text fill="#111827" font-family="sans-serif" font-size="14" lengthAdjust="spacing" text-decoration="underline" textLength="22.0186" x="491.7151" y="64.5352">init</text><text fill="#111827" font-family="sans-serif" font-size="14" lengthAdjust="spacing" textLength="20.5557" x="513.7336" y="64.5352">.py</text><text fill="#111827" font-family="sans-serif" font-size="14" lengthAdjust="spacing" textLength="122.9443" x="451.53" y="81.0234">Package Initializer</text></g><!--entity CMD--><g class="entity" data-qualified-name="CLI.CMD" data-source-line="15" id="ent0003"><rect fill="#F8FAFC" height="52.9766" rx="2.5" ry="2.5" style="stroke:#4B5563;stroke-width:0.5;" width="152.4736" x="436.76" y="156.98"/><text fill="#111827" font-family="sans-serif" font-size="14" lengthAdjust="spacing" textLength="94.835" x="465.5793" y="180.5152">commands.py</text><text fill="#111827" font-family="sans-serif" font-size="14" lengthAdjust="spacing" textLength="132.4736" x="446.76" y="197.0034">CLI Implementation</text></g><!--entity ARGS--><g class="entity" data-qualified-name="Interface.ARGS" data-source-line="18" id="ent0005"><rect fill="#F8FAFC" height="36.4883" rx="2.5" ry="2.5" style="stroke:#4B5563;stroke-width:0.5;" width="157.7715" x="966.11" y="49.24"/><text fill="#111827" font-family="sans-serif" font-size="14" lengthAdjust="spacing" textLength="137.7715" x="976.11" y="72.7752">Command Line Args</text></g><!--entity STDIN--><g class="entity" data-qualified-name="Interface.STDIN" data-source-line="19" id="ent0006"><rect fill="#F8FAFC" height="36.4883" rx="2.5" ry="2.5" style="stroke:#4B5563;stroke-width:0.5;" width="130.6055" x="644.7" y="49.24"/><text fill="#111827" font-family="sans-serif" font-size="14" lengthAdjust="spacing" textLength="110.6055" x="654.7" y="72.7752">Interactive Input</text></g><!--entity SIGNALS--><g class="entity" data-qualified-name="Interface.SIGNALS" data-source-line="20" id="ent0007"><rect fill="#F8FAFC" height="52.9766" rx="2.5" ry="2.5" style="stroke:#4B5563;stroke-width:0.5;" width="120.4473" x="810.78" y="41"/><text fill="#111827" font-family="sans-serif" font-size="14" lengthAdjust="spacing" textLength="100.4473" x="820.78" y="64.5352">System Signals</text><text fill="#111827" font-family="sans-serif" font-size="14" lengthAdjust="spacing" textLength="88.8535" x="826.5769" y="81.0234">(SIGINT, EOF)</text></g><!--entity CHAT--><g class="entity" data-qualified-name="Features.CHAT" data-source-line="23" id="ent0009"><rect fill="#F8FAFC" height="85.9531" rx="2.5" ry="2.5" style="stroke:#4B5563;stroke-width:0.5;" width="176.6934" x="262.65" y="324.95"/><text fill="#111827" font-family="sans-serif" font-size="14" lengthAdjust="spacing" textLength="81.3135" x="310.3399" y="348.4852">Chat Engine</text><text fill="#111827" font-family="sans-serif" font-size="14" lengthAdjust="spacing" textLength="155.4424" x="273.2755" y="364.9734">- Session Management</text><text fill="#111827" font-family="sans-serif" font-size="14" lengthAdjust="spacing" textLength="156.6934" x="272.65" y="381.4617">- Markdown Rendering</text><text fill="#111827" font-family="sans-serif" font-size="14" lengthAdjust="spacing" textLength="141.5928" x="280.2003" y="397.95">- History Persistence</text></g><!--entity GATEWAY--><g class="entity" data-qualified-name="Features.GATEWAY" data-source-line="24" id="ent0010"><rect fill="#F8FAFC" height="85.9531" rx="2.5" ry="2.5" style="stroke:#4B5563;stroke-width:0.5;" width="140.9619" x="474.52" y="324.95"/><text fill="#111827" font-family="sans-serif" font-size="14" lengthAdjust="spacing" textLength="102.9902" x="493.5058" y="348.4852">Gateway Server</text><text fill="#111827" font-family="sans-serif" font-size="14" lengthAdjust="spacing" textLength="88.5254" x="500.7383" y="364.9734">- Port 18790</text><text fill="#111827" font-family="sans-serif" font-size="14" lengthAdjust="spacing" textLength="120.9619" x="484.52" y="381.4617">- MCP Integration</text><text fill="#111827" font-family="sans-serif" font-size="14" lengthAdjust="spacing" textLength="99.2305" x="495.3857" y="397.95">- Message Bus</text></g><!--entity SCHEDULER--><g class="entity" data-qualified-name="Features.SCHEDULER" data-source-line="25" id="ent0011"><rect fill="#F8FAFC" height="69.4648" rx="2.5" ry="2.5" style="stroke:#4B5563;stroke-width:0.5;" width="206.1836" x="21.91" y="333.2"/><text fill="#111827" font-family="sans-serif" font-size="14" lengthAdjust="spacing" textLength="103.4072" x="73.2982" y="356.7352">Cron Scheduler</text><text fill="#111827" font-family="sans-serif" font-size="14" lengthAdjust="spacing" textLength="186.1836" x="31.91" y="373.2234">- Interval/Cron/Timestamp</text><text fill="#111827" font-family="sans-serif" font-size="14" lengthAdjust="spacing" textLength="158.7441" x="45.6297" y="389.7117">- Enable/Disable/Force</text></g><!--entity PROVIDER--><g class="entity" data-qualified-name="Features.PROVIDER" data-source-line="26" id="ent0012"><rect fill="#F8FAFC" height="85.9531" rx="2.5" ry="2.5" style="stroke:#4B5563;stroke-width:0.5;" width="138.5967" x="650.7" y="324.95"/><text fill="#111827" font-family="sans-serif" font-size="14" lengthAdjust="spacing" textLength="118.5967" x="660.7" y="348.4852">Provider Manager</text><text fill="#111827" font-family="sans-serif" font-size="14" lengthAdjust="spacing" textLength="98.1846" x="670.9061" y="364.9734">- OAuth Flows</text><text fill="#111827" font-family="sans-serif" font-size="14" lengthAdjust="spacing" textLength="69.7813" x="685.1077" y="381.4617">- API Keys</text><text fill="#111827" font-family="sans-serif" font-size="14" lengthAdjust="spacing" textLength="106.4629" x="666.7669" y="397.95">- LiteLLM Proxy</text></g><!--entity ONBOARD--><g class="entity" data-qualified-name="Features.ONBOARD" data-source-line="27" id="ent0013"><rect fill="#F8FAFC" height="85.9531" rx="2.5" ry="2.5" style="stroke:#4B5563;stroke-width:0.5;" width="148.1738" x="823.91" y="324.95"/><text fill="#111827" font-family="sans-serif" font-size="14" lengthAdjust="spacing" textLength="80.7119" x="857.641" y="348.4852">Onboarding</text><text fill="#111827" font-family="sans-serif" font-size="14" lengthAdjust="spacing" textLength="128.1738" x="833.91" y="364.9734">- Workspace Setup</text><text fill="#111827" font-family="sans-serif" font-size="14" lengthAdjust="spacing" textLength="83.8633" x="856.0653" y="381.4617">- Config Init</text><text fill="#111827" font-family="sans-serif" font-size="14" lengthAdjust="spacing" textLength="111.0225" x="842.4857" y="397.95">- Template Sync</text></g><!--entity WA--><g class="entity" data-qualified-name="Channels.WA" data-source-line="30" id="ent0015"><rect fill="#F8FAFC" height="36.4883" rx="2.5" ry="2.5" style="stroke:#4B5563;stroke-width:0.5;" width="88.0518" x="377.97" y="494.91"/><text fill="#111827" font-family="sans-serif" font-size="14" lengthAdjust="spacing" textLength="68.0518" x="387.97" y="518.4452">WhatsApp</text></g><!--entity DC--><g class="entity" data-qualified-name="Channels.DC" data-source-line="31" id="ent0016"><rect fill="#F8FAFC" height="36.4883" rx="2.5" ry="2.5" style="stroke:#4B5563;stroke-width:0.5;" width="71.9805" x="63.01" y="494.91"/><text fill="#111827" font-family="sans-serif" font-size="14" lengthAdjust="spacing" textLength="51.9805" x="73.01" y="518.4452">Discord</text></g><!--entity TG--><g class="entity" data-qualified-name="Channels.TG" data-source-line="32" id="ent0017"><rect fill="#F8FAFC" height="36.4883" rx="2.5" ry="2.5" style="stroke:#4B5563;stroke-width:0.5;" width="83.7588" x="170.12" y="494.91"/><text fill="#111827" font-family="sans-serif" font-size="14" lengthAdjust="spacing" textLength="63.7588" x="180.12" y="518.4452">Telegram</text></g><!--entity SL--><g class="entity" data-qualified-name="Channels.SL" data-source-line="33" id="ent0018"><rect fill="#F8FAFC" height="36.4883" rx="2.5" ry="2.5" style="stroke:#4B5563;stroke-width:0.5;" width="54.6719" x="288.66" y="494.91"/><text fill="#111827" font-family="sans-serif" font-size="14" lengthAdjust="spacing" textLength="34.6719" x="298.66" y="518.4452">Slack</text></g><!--entity FS--><g class="entity" data-qualified-name="Channels.FS" data-source-line="34" id="ent0019"><rect fill="#F8FAFC" height="36.4883" rx="2.5" ry="2.5" style="stroke:#4B5563;stroke-width:0.5;" width="63.8662" x="67.07" y="592.39"/><text fill="#111827" font-family="sans-serif" font-size="14" lengthAdjust="spacing" textLength="43.8662" x="77.07" y="615.9252">Feishu</text></g><!--entity DT--><g class="entity" data-qualified-name="Channels.DT" data-source-line="35" id="ent0020"><rect fill="#F8FAFC" height="36.4883" rx="2.5" ry="2.5" style="stroke:#4B5563;stroke-width:0.5;" width="80.7646" x="165.62" y="592.39"/><text fill="#111827" font-family="sans-serif" font-size="14" lengthAdjust="spacing" textLength="60.7646" x="175.62" y="615.9252">DingTalk</text></g><!--entity EM--><g class="entity" data-qualified-name="Channels.EM" data-source-line="36" id="ent0021"><rect fill="#F8FAFC" height="36.4883" rx="2.5" ry="2.5" style="stroke:#4B5563;stroke-width:0.5;" width="56.4834" x="281.76" y="592.39"/><text fill="#111827" font-family="sans-serif" font-size="14" lengthAdjust="spacing" textLength="36.4834" x="291.76" y="615.9252">Email</text></g><!--entity MC--><g class="entity" data-qualified-name="Channels.MC" data-source-line="37" id="ent0022"><rect fill="#F8FAFC" height="36.4883" rx="2.5" ry="2.5" style="stroke:#4B5563;stroke-width:0.5;" width="69.4854" x="64.26" y="691.88"/><text fill="#111827" font-family="sans-serif" font-size="14" lengthAdjust="spacing" textLength="49.4854" x="74.26" y="715.4152">Mochat</text></g><!--entity OAI--><g class="entity" data-qualified-name="Providers.OAI" data-source-line="40" id="ent0024"><rect fill="#F8FAFC" height="36.4883" rx="2.5" ry="2.5" style="stroke:#4B5563;stroke-width:0.5;" width="69.8682" x="830.07" y="494.91"/><text fill="#111827" font-family="sans-serif" font-size="14" lengthAdjust="spacing" textLength="49.8682" x="840.07" y="518.4452">OpenAI</text></g><!--entity COPILOT--><g class="entity" data-qualified-name="Providers.COPILOT" data-source-line="41" id="ent0025"><rect fill="#F8FAFC" height="36.4883" rx="2.5" ry="2.5" style="stroke:#4B5563;stroke-width:0.5;" width="120.6455" x="521.68" y="494.91"/><text fill="#111827" font-family="sans-serif" font-size="14" lengthAdjust="spacing" textLength="100.6455" x="531.68" y="518.4452">GitHub Copilot</text></g><!--entity CODEX--><g class="entity" data-qualified-name="Providers.CODEX" data-source-line="42" id="ent0026"><rect fill="#F8FAFC" height="36.4883" rx="2.5" ry="2.5" style="stroke:#4B5563;stroke-width:0.5;" width="117.7813" x="677.11" y="494.91"/><text fill="#111827" font-family="sans-serif" font-size="14" lengthAdjust="spacing" textLength="97.7813" x="687.11" y="518.4452">OpenAI Codex</text></g><!--entity LOCAL--><g class="entity" data-qualified-name="Providers.LOCAL" data-source-line="43" id="ent0027"><rect fill="#F8FAFC" height="36.4883" rx="2.5" ry="2.5" style="stroke:#4B5563;stroke-width:0.5;" width="107.8965" x="528.05" y="592.39"/><text fill="#111827" font-family="sans-serif" font-size="14" lengthAdjust="spacing" textLength="87.8965" x="538.05" y="615.9252">Local Models</text></g><!--entity CUSTOM--><g class="entity" data-qualified-name="Providers.CUSTOM" data-source-line="44" id="ent0028"><rect fill="#F8FAFC" height="36.4883" rx="2.5" ry="2.5" style="stroke:#4B5563;stroke-width:0.5;" width="144.4551" x="670.77" y="592.39"/><text fill="#111827" font-family="sans-serif" font-size="14" lengthAdjust="spacing" textLength="124.4551" x="680.77" y="615.9252">Custom Endpoints</text></g><!--link ARGS to CMD--><g class="link" data-entity-1="ent0005" data-entity-2="ent0003" data-link-type="dependency" data-source-line="46" id="lnk29"><path d="M1017.08,86.01 C998.48,96.88 973.1,110.22 949,117.98 C827,157.25 682.9785,172.401 594.5385,178.411" fill="none" id="ARGS-to-CMD" style="stroke:#4B5563;stroke-width:1;"/><polygon fill="#4B5563" points="589.55,178.75,598.8005,182.1306,594.5385,178.411,598.2581,174.149,589.55,178.75" style="stroke:#4B5563;stroke-width:1;stroke-linejoin:miter;stroke-miterlimit:10;"/></g><!--link STDIN to CMD--><g class="link" data-entity-1="ent0006" data-entity-2="ent0003" data-link-type="dependency" data-source-line="47" id="lnk30"><path d="M679.65,86.05 C647.06,104.9 599.2575,132.5555 561.9875,154.1255" fill="none" id="STDIN-to-CMD" style="stroke:#4B5563;stroke-width:1;"/><polygon fill="#4B5563" points="557.66,156.63,567.4531,155.5838,561.9875,154.1255,563.4459,148.6598,557.66,156.63" style="stroke:#4B5563;stroke-width:1;stroke-linejoin:miter;stroke-miterlimit:10;"/></g><!--link SIGNALS to CMD--><g class="link" data-entity-1="ent0007" data-entity-2="ent0003" data-link-type="dependency" data-source-line="48" id="lnk31"><path d="M835.89,94.33 C822.94,102.89 807.8,111.79 793,117.98 C727.07,145.53 652.1825,161.6211 594.6625,171.1711" fill="none" id="SIGNALS-to-CMD" style="stroke:#4B5563;stroke-width:1;"/><polygon fill="#4B5563" points="589.73,171.99,599.2636,174.4619,594.6625,171.1711,597.9533,166.5699,589.73,171.99" style="stroke:#4B5563;stroke-width:1;stroke-linejoin:miter;stroke-miterlimit:10;"/></g><!--link INIT to CMD--><g class="link" data-entity-1="ent0002" data-entity-2="ent0003" data-link-type="dependency" data-source-line="49" id="lnk32"><path d="M513,94.35 C513,113 513,133.07 513,151.7" fill="none" id="INIT-to-CMD" style="stroke:#4B5563;stroke-width:1;stroke-dasharray:7,7;"/><polygon fill="#4B5563" points="513,156.7,517,147.7,513,151.7,509,147.7,513,156.7" style="stroke:#4B5563;stroke-width:1;stroke-linejoin:miter;stroke-miterlimit:10;"/></g><!--link CMD to CHAT--><g class="link" data-entity-1="ent0003" data-entity-2="ent0009" data-link-type="dependency" data-source-line="50" id="lnk33"><path d="M496.92,210.17 C484.89,228.63 467.57,253.72 450,273.95 C434.77,291.49 420.2878,305.9027 403.6978,321.1827" fill="none" id="CMD-to-CHAT" style="stroke:#4B5563;stroke-width:1;"/><polygon fill="#4B5563" points="400.02,324.57,409.3498,321.415,403.6978,321.1827,403.9301,315.5306,400.02,324.57" style="stroke:#4B5563;stroke-width:1;stroke-linejoin:miter;stroke-miterlimit:10;"/></g><!--link CHAT to CMD--><g class="link" data-entity-1="ent0009" data-entity-2="ent0003" data-link-type="dependency" data-source-line="57" id="lnk40"><path d="M336.12,324.67 C329.74,298.51 327.11,265.54 344,241.95 C365.11,212.47 397.3351,198.9498 431.4151,191.8498" fill="none" id="CHAT-to-CMD" style="stroke:#4B5563;stroke-width:1;"/><polygon fill="#4B5563" points="436.31,190.83,426.6834,188.7497,431.4151,191.8498,428.315,196.5815,436.31,190.83" style="stroke:#4B5563;stroke-width:1;stroke-linejoin:miter;stroke-miterlimit:10;"/><text fill="#000000" font-family="sans-serif" font-size="13" lengthAdjust="spacing" textLength="96.2686" x="345" y="255.5184">Single Message</text><text fill="#000000" font-family="sans-serif" font-size="13" lengthAdjust="spacing" textLength="56.0498" x="365.1094" y="270.8289">(-m flag)</text></g><!--link CMD to GATEWAY--><g class="link" data-entity-1="ent0003" data-entity-2="ent0010" data-link-type="dependency" data-source-line="51" id="lnk34"><path d="M517.52,210.22 C522.74,239.98 530.5358,284.4752 536.7458,319.8652" fill="none" id="CMD-to-GATEWAY" style="stroke:#4B5563;stroke-width:1;"/><polygon fill="#4B5563" points="537.61,324.79,539.9943,315.2341,536.7458,319.8652,532.1147,316.6168,537.61,324.79" style="stroke:#4B5563;stroke-width:1;stroke-linejoin:miter;stroke-miterlimit:10;"/></g><!--link GATEWAY to CMD--><g class="link" data-entity-1="ent0010" data-entity-2="ent0003" data-link-type="dependency" data-source-line="58" id="lnk41"><path d="M542.87,324.63 C541.08,300.25 537.84,269.15 532,241.95 C529.73,231.37 527.8474,224.7143 524.4474,214.9043" fill="none" id="GATEWAY-to-CMD" style="stroke:#4B5563;stroke-width:1;"/><polygon fill="#4B5563" points="522.81,210.18,521.9778,219.9936,524.4474,214.9043,529.5367,217.3738,522.81,210.18" style="stroke:#4B5563;stroke-width:1;stroke-linejoin:miter;stroke-miterlimit:10;"/><text fill="#000000" font-family="sans-serif" font-size="13" lengthAdjust="spacing" textLength="91.0698" x="538.37" y="255.5184">Daemon Mode</text><text fill="#000000" font-family="sans-serif" font-size="13" lengthAdjust="spacing" textLength="74.877" x="546.4664" y="270.8289">(--gateway)</text></g><!--link CMD to SCHEDULER--><g class="link" data-entity-1="ent0003" data-entity-2="ent0011" data-link-type="dependency" data-source-line="52" id="lnk35"><path d="M436.55,204.45 C401.73,214.38 360.28,227.38 324,241.95 C287.48,256.62 278.71,261.64 245,281.95 C219.31,297.44 195.9524,313.6537 173.8424,329.8637" fill="none" id="CMD-to-SCHEDULER" style="stroke:#4B5563;stroke-width:1;"/><polygon fill="#4B5563" points="169.81,332.82,179.4333,330.7245,173.8424,329.8637,174.7032,324.2727,169.81,332.82" style="stroke:#4B5563;stroke-width:1;stroke-linejoin:miter;stroke-miterlimit:10;"/></g><!--link CMD to PROVIDER--><g class="link" data-entity-1="ent0003" data-entity-2="ent0012" data-link-type="dependency" data-source-line="53" id="lnk36"><path d="M587.17,210.33 C604.99,218.69 623.15,229.18 638,241.95 C664.46,264.72 683.3834,293.6556 697.6334,320.1756" fill="none" id="CMD-to-PROVIDER" style="stroke:#4B5563;stroke-width:1;"/><polygon fill="#4B5563" points="700,324.58,699.2636,314.7587,697.6334,320.1756,692.2165,318.5453,700,324.58" style="stroke:#4B5563;stroke-width:1;stroke-linejoin:miter;stroke-miterlimit:10;"/></g><!--link CMD to ONBOARD--><g class="link" data-entity-1="ent0003" data-entity-2="ent0013" data-link-type="dependency" data-source-line="54" id="lnk37"><path d="M589.6,200.26 C651.29,215.18 738.68,241.4 807,281.95 C826.33,293.43 841.416,306.0831 856.746,321.2531" fill="none" id="CMD-to-ONBOARD" style="stroke:#4B5563;stroke-width:1;"/><polygon fill="#4B5563" points="860.3,324.77,856.7163,315.5963,856.746,321.2531,851.0892,321.2827,860.3,324.77" style="stroke:#4B5563;stroke-width:1;stroke-linejoin:miter;stroke-miterlimit:10;"/></g><!--link GATEWAY to WA--><g class="link" data-entity-1="ent0010" data-entity-2="ent0015" data-link-type="dependency" data-source-line="55" id="lnk38"><path d="M508.76,411.12 C484.81,439.01 457.9279,470.3171 440.2079,490.9471" fill="none" id="GATEWAY-to-WA" style="stroke:#4B5563;stroke-width:1;"/><polygon fill="#4B5563" points="436.95,494.74,445.8485,490.5191,440.2079,490.9471,439.7799,485.3065,436.95,494.74" style="stroke:#4B5563;stroke-width:1;stroke-linejoin:miter;stroke-miterlimit:10;"/></g><!--link PROVIDER to OAI--><g class="link" data-entity-1="ent0012" data-entity-2="ent0024" data-link-type="dependency" data-source-line="56" id="lnk39"><path d="M769.2,411.4 C783.33,424.11 798.55,438.29 812,451.91 C825.61,465.68 836.8325,478.4412 847.2025,490.7112" fill="none" id="PROVIDER-to-OAI" style="stroke:#4B5563;stroke-width:1;"/><polygon fill="#4B5563" points="850.43,494.53,847.6756,485.0741,847.2025,490.7112,841.5655,490.2381,850.43,494.53" style="stroke:#4B5563;stroke-width:1;stroke-linejoin:miter;stroke-miterlimit:10;"/></g><?plantuml-src ZLHBR-Cs4BxdLn3PImFKITDcDsaF1HHPTeILBCDIcXO84D3IM2P2aG999V4k-jyx92L7IdlemOzvV_FDSFGp4orLj25RMZxNIdQY2YMNYXX5XKOJ27EYZrvwJolvoaHDTfHh65agsD6EcmBUJC1PBHeC92L-WHfv1Kh9Lr_WqzNsy-SlluoCQuH0QxYLgWBLEtsvkhwwsVw7q_-2gw0qLDGSoFSJGYQ9--g4BAGmlUxoylBcvslh-I7xfztDZkxAaxzFZ6o9aMGhZP7ODBCLc1GdhOT5JWKL4gqN9MUdX6eI9Z4MVmTo-lJ413DFJ-VjuL7qtP0OLOnozWsKYufNSJ4EAcNJK55f5sHJnatBmN9CRNbVAPqZm2EGUmqAyoB_Ere2IUXXo7tKJN25lWH9c02SKwsTSx1PvcCl5qonvnSBkksCyygBURmQk-K7RQ0XEIu2xicZ-26Fb_6g-954sUBCXyJBLP3aOyIXL40MG4s7lwciEWuUHA_J7m3lgI6Hg17levYH7BH6AaXA1MQpr5XjIjKpRgmW6n0uVDnSgxrZsaXr86jG6l-2AC5JU1TCQ5zI0w_qWBdL2oWRkPRAaCkRwrz_Sjd3jQEpLcuCJeKmR3UtdSU-38he8VXh0bmXpBpSW-tGPNMilb1-OKqN1Mj06zgqrXG9kkLmCMVQ_Iwawh7cuLqqlq-YpJZrMiaNXdtsBBZaMT2PFLbm-Qgj6AnZyXKExd_232H9IZ3ixU2ohZVP7_5ycZGJMqbLrNFt8DKplZHSdnnCvp26KknOxPROYWNWSY9p93-8qcNDLhTPi9ciPuh7WirmXa809xUALNK_xLxtOTeFE6qTjArpUGZ69kIcnAVjBFDmR2c0szaqpbGi9nlA4OadCXdh5y3qllDhbq-hYBgWtCVC9siIDPHnfu_IiJwL9Q9sXZGSDn_4P9YKx_aeJPlEMX11x2aCuibcCdFNRP7vbd7fIuJPEawouj_nw5N1M-ypZ_uSUoIofDm-DYJSUIHP64m82JjjJrqagbOoOVePtUT5bc9BzZwGsUntTttS6NYN_0i_olQcaVDpB-376-oB6uJXhGpo-ueFckDw3efXi_fGfyFj6Foy3r9dwmn8o6zuc5np_MF5-pHho8xJ-coIoFlEAJJshY17rd5M-wDmzWy0?></g></svg>