<svg xmlns="http://www.w3.org/2000/svg" xmlns:xlink="http://www.w3.org/1999/xlink" contentStyleType="text/css" data-diagram-type="DESCRIPTION" height="455px" preserveAspectRatio="none" style="width:908px;height:455px;background:#FFFFFF;" version="1.1" viewBox="0 0 908 455" width="908px" zoomAndPan="magnify"><?plantuml 1.2026.5?><defs/><rect data-xfeat-white-canvas="true" fill="#FFFFFF" height="100%" width="100%" x="0" y="0"/><g><!--cluster NB--><g class="cluster" data-qualified-name="NB" data-source-line="3" id="ent0001"><rect fill="#FFFFFF" height="434" rx="4" ry="4" style="stroke:#CBD5E1;stroke-width:1;" width="677" x="7" y="7"/><text fill="#0F172A" font-family="Helvetica" font-size="14" font-weight="700" lengthAdjust="spacing" textLength="110.4619" x="290.269" y="19.7803">Nanobot System</text></g><!--cluster Memory--><g class="cluster" data-qualified-name="NB.Memory" data-source-line="4" id="ent0002"><rect fill="#FFFFFF" height="240" rx="4" ry="4" style="stroke:#CBD5E1;stroke-width:1;" width="288" x="31" y="48"/><text fill="#0F172A" font-family="Helvetica" font-size="14" font-weight="700" lengthAdjust="spacing" textLength="135.3379" x="107.3311" y="60.7803">Memory Component</text></g><!--cluster Core--><g class="cluster" data-qualified-name="NB.Core" data-source-line="8" id="ent0005"><rect fill="#FFFFFF" height="219" rx="4" ry="4" style="stroke:#CBD5E1;stroke-width:1;" width="317" x="343" y="198"/><text fill="#0F172A" font-family="Helvetica" font-size="14" font-weight="700" lengthAdjust="spacing" textLength="92.5518" x="455.2241" y="210.7803">Nanobot Core</text></g><!--cluster Storage--><g class="cluster" data-qualified-name="Storage" data-source-line="13" id="ent0008"><rect fill="#FFFFFF" height="97" rx="4" ry="4" style="stroke:#CBD5E1;stroke-width:1;" width="128" x="708" y="191"/><text fill="#0F172A" font-family="Helvetica" font-size="14" font-weight="700" lengthAdjust="spacing" textLength="108.9443" x="717.5278" y="203.7803">Persistent Layer</text></g><!--cluster External--><g class="cluster" data-qualified-name="External" data-source-line="16" id="ent0010"><rect fill="#FFFFFF" height="83" rx="4" ry="4" style="stroke:#CBD5E1;stroke-width:1;" width="154" x="740" y="334"/><text fill="#0F172A" font-family="Helvetica" font-size="14" font-weight="700" lengthAdjust="spacing" textLength="138.4893" x="747.7554" y="346.7803">External Interactions</text></g><!--entity MD--><g class="entity" data-qualified-name="NB.Memory.MD" data-source-line="5" id="ent0003"><rect fill="#FFFFFF" height="48" rx="4" ry="4" style="stroke:#64748B;stroke-width:0.5;" width="146.834" x="145.58" y="81"/><text fill="#0F172A" font-family="Helvetica" font-size="14" lengthAdjust="spacing" textLength="86.3379" x="175.828" y="101.7803">MEMORY.md</text><text fill="#0F172A" font-family="Helvetica" font-size="14" lengthAdjust="spacing" textLength="126.834" x="155.58" y="115.7803">Structured Template</text></g><!--entity PY--><g class="entity" data-qualified-name="NB.Memory.PY" data-source-line="6" id="ent0004"><rect fill="#FFFFFF" height="48" rx="4" ry="4" style="stroke:#64748B;stroke-width:0.5;" width="124.2822" x="112.86" y="224"/><text fill="#0F172A" font-family="Helvetica" font-size="14" lengthAdjust="spacing" text-decoration="underline" textLength="17.8965" x="156.715" y="244.7803">init</text><text fill="#0F172A" font-family="Helvetica" font-size="14" lengthAdjust="spacing" textLength="18.6758" x="174.6115" y="244.7803">.py</text><text fill="#0F172A" font-family="Helvetica" font-size="14" lengthAdjust="spacing" textLength="104.2822" x="122.86" y="258.7803">Module Interface</text></g><!--entity ENG--><g class="entity" data-qualified-name="NB.Core.ENG" data-source-line="9" id="ent0006"><rect fill="#FFFFFF" height="34" rx="4" ry="4" style="stroke:#64748B;stroke-width:0.5;" width="132.8545" x="486.57" y="231"/><text fill="#0F172A" font-family="Helvetica" font-size="14" lengthAdjust="spacing" textLength="112.8545" x="496.57" y="251.7803">Interaction Engine</text></g><!--entity PROC--><g class="entity" data-qualified-name="NB.Core.PROC" data-source-line="10" id="ent0007"><rect fill="#FFFFFF" height="34" rx="4" ry="4" style="stroke:#64748B;stroke-width:0.5;" width="135.1582" x="359.42" y="367"/><text fill="#0F172A" font-family="Helvetica" font-size="14" lengthAdjust="spacing" textLength="115.1582" x="369.42" y="387.7803">Context Processor</text></g><!--entity FS--><g class="entity" data-qualified-name="Storage.FS" data-source-line="14" id="ent0009"><rect fill="#FFFFFF" height="48" rx="4" ry="4" style="stroke:#64748B;stroke-width:0.5;" width="96.2617" x="723.87" y="224"/><text fill="#0F172A" font-family="Helvetica" font-size="14" lengthAdjust="spacing" textLength="73.124" x="735.4388" y="244.7803">File System</text><text fill="#0F172A" font-family="Helvetica" font-size="14" lengthAdjust="spacing" textLength="76.2617" x="733.87" y="258.7803">.md Storage</text></g><!--entity USER--><g class="entity" data-qualified-name="External.USER" data-source-line="17" id="ent0011"><rect fill="#FFFFFF" height="34" rx="4" ry="4" style="stroke:#64748B;stroke-width:0.5;" width="110.2549" x="761.87" y="367"/><text fill="#0F172A" font-family="Helvetica" font-size="14" lengthAdjust="spacing" textLength="90.2549" x="771.87" y="387.7803">User Sessions</text></g><!--link USER to ENG--><g class="link" data-entity-1="ent0011" data-entity-2="ent0006" data-link-type="dependency" data-source-line="19" id="lnk12"><path d="M812.86,366.63 C807,343.49 797,304 797,304 C797,304 706,296 706,296 C706,296 655.4097,280.4579 611.2897,266.9079" fill="none" id="USER-to-ENG" style="stroke:#64748B;stroke-width:1.1;"/><polygon fill="#64748B" points="606.51,265.44,613.9391,271.906,611.2897,266.9079,616.2877,264.2585,606.51,265.44" style="stroke:#64748B;stroke-width:1.1;stroke-linejoin:miter;stroke-miterlimit:10;"/><text fill="#334155" font-family="Helvetica" font-size="12" lengthAdjust="spacing" textLength="71.373" x="801.35" y="314.2402">Session Data</text></g><!--link ENG to USER--><g class="link" data-entity-1="ent0006" data-entity-2="ent0011" data-link-type="dependency" data-source-line="28" id="lnk21"><path d="M583.57,265.35 C621.72,285.76 682,318 682,318 C682,318 738.4352,345.1704 778.4252,364.4304" fill="none" id="ENG-to-USER" style="stroke:#64748B;stroke-width:1.1;"/><polygon fill="#64748B" points="782.93,366.6,776.5571,359.0909,778.4252,364.4304,773.0858,366.2986,782.93,366.6" style="stroke:#64748B;stroke-width:1.1;stroke-linejoin:miter;stroke-miterlimit:10;"/><text fill="#334155" font-family="Helvetica" font-size="12" lengthAdjust="spacing" textLength="103.3887" x="683" y="314.2402">Personalized Reply</text></g><!--link ENG to PROC--><g class="link" data-entity-1="ent0006" data-entity-2="ent0007" data-link-type="dependency" data-source-line="20" id="lnk13"><path d="M506.32,265.35 C460.04,281.57 396,304 396,304 C396,304 396,318 396,318 C396,318 407.8368,342.8274 417.0268,362.0874" fill="none" id="ENG-to-PROC" style="stroke:#64748B;stroke-width:1.1;"/><polygon fill="#64748B" points="419.18,366.6,418.9143,356.7547,417.0268,362.0874,411.6941,360.1999,419.18,366.6" style="stroke:#64748B;stroke-width:1.1;stroke-linejoin:miter;stroke-miterlimit:10;"/><text fill="#334155" font-family="Helvetica" font-size="12" lengthAdjust="spacing" textLength="78.7148" x="397" y="314.2402">Significant Info</text></g><!--link PROC to ENG--><g class="link" data-entity-1="ent0007" data-entity-2="ent0006" data-link-type="dependency" data-source-line="27" id="lnk20"><path d="M442.18,366.85 C466.33,341.17 509.8153,294.933 534.1253,269.073" fill="none" id="PROC-to-ENG" style="stroke:#64748B;stroke-width:1.1;"/><polygon fill="#64748B" points="537.55,265.43,528.4712,269.2477,534.1253,269.073,534.3,274.7272,537.55,265.43" style="stroke:#64748B;stroke-width:1.1;stroke-linejoin:miter;stroke-miterlimit:10;"/><text fill="#334155" font-family="Helvetica" font-size="12" lengthAdjust="spacing" textLength="114.7383" x="498.54" y="314.2402">Contextual Response</text></g><!--link PROC to PY--><g class="link" data-entity-1="ent0007" data-entity-2="ent0004" data-link-type="dependency" data-source-line="21" id="lnk14"><path d="M395.99,366.51 C351.64,342.93 274.2746,301.7876 223.5946,274.8376" fill="none" id="PROC-to-PY" style="stroke:#64748B;stroke-width:1.1;"/><polygon fill="#64748B" points="219.18,272.49,225.2483,280.2473,223.5946,274.8376,229.0044,273.1839,219.18,272.49" style="stroke:#64748B;stroke-width:1.1;stroke-linejoin:miter;stroke-miterlimit:10;"/><text fill="#334155" font-family="Helvetica" font-size="12" lengthAdjust="spacing" textLength="74.666" x="302" y="314.2402">Write Memory</text></g><!--link PY to PROC--><g class="link" data-entity-1="ent0004" data-entity-2="ent0007" data-link-type="dependency" data-source-line="26" id="lnk19"><path d="M179.06,272.36 C182.54,292.38 187,318 187,318 C187,318 290.2038,345.9533 361.3038,365.2033" fill="none" id="PY-to-PROC" style="stroke:#64748B;stroke-width:1.1;"/><polygon fill="#64748B" points="366.13,366.51,358.4881,360.297,361.3038,365.2033,356.3974,368.019,366.13,366.51" style="stroke:#64748B;stroke-width:1.1;stroke-linejoin:miter;stroke-miterlimit:10;"/><text fill="#334155" font-family="Helvetica" font-size="12" lengthAdjust="spacing" textLength="87.3574" x="188" y="314.2402">Provide Memory</text></g><!--link PY to MD--><g class="link" data-entity-1="ent0004" data-entity-2="ent0003" data-link-type="dependency" data-source-line="22" id="lnk15"><path d="M182.28,223.68 C190.43,197.54 202.0912,160.1832 210.2412,134.0532" fill="none" id="PY-to-MD" style="stroke:#64748B;stroke-width:1.1;"/><polygon fill="#64748B" points="211.73,129.28,205.2316,136.6808,210.2412,134.0532,212.8688,139.0628,211.73,129.28" style="stroke:#64748B;stroke-width:1.1;stroke-linejoin:miter;stroke-miterlimit:10;"/><text fill="#334155" font-family="Helvetica" font-size="12" lengthAdjust="spacing" textLength="92.7129" x="201.94" y="171.2402">Render Template</text></g><!--link MD to PY--><g class="link" data-entity-1="ent0003" data-entity-2="ent0004" data-link-type="dependency" data-source-line="25" id="lnk18"><path d="M174.59,129.48 C146.33,144.43 115,161 115,161 C115,161 115,175 115,175 C115,175 134.9493,198.9287 152.4893,219.9787" fill="none" id="MD-to-PY" style="stroke:#64748B;stroke-width:1.1;"/><polygon fill="#64748B" points="155.69,223.82,153.0017,214.3451,152.4893,219.9787,146.8557,219.4663,155.69,223.82" style="stroke:#64748B;stroke-width:1.1;stroke-linejoin:miter;stroke-miterlimit:10;"/><text fill="#334155" font-family="Helvetica" font-size="12" lengthAdjust="spacing" textLength="71.3848" x="116" y="171.2402">Load Context</text></g><!--link MD to FS--><g class="link" data-entity-1="ent0003" data-entity-2="ent0009" data-link-type="dependency" data-source-line="23" id="lnk16"><path d="M292.78,119.47 C402.78,139.55 597,175 597,175 C597,175 662,183 662,183 C662,183 695.9481,202.7559 727.3381,221.0159" fill="none" id="MD-to-FS" style="stroke:#64748B;stroke-width:1.1;"/><polygon fill="#64748B" points="731.66,223.53,725.8918,215.547,727.3381,221.0159,721.8692,222.4621,731.66,223.53" style="stroke:#64748B;stroke-width:1.1;stroke-linejoin:miter;stroke-miterlimit:10;"/><text fill="#334155" font-family="Helvetica" font-size="12" lengthAdjust="spacing" textLength="36.6738" x="598" y="171.2402">Persist</text></g><!--link FS to MD--><g class="link" data-entity-1="ent0009" data-entity-2="ent0003" data-link-type="dependency" data-source-line="24" id="lnk17"><path d="M736.2,223.5 C697.42,198.04 641,161 641,161 C641,161 418.3681,131.9863 297.4681,116.2263" fill="none" id="FS-to-MD" style="stroke:#64748B;stroke-width:1.1;"/><polygon fill="#64748B" points="292.51,115.58,300.9174,120.7098,297.4681,116.2263,301.9515,112.7769,292.51,115.58" style="stroke:#64748B;stroke-width:1.1;stroke-linejoin:miter;stroke-miterlimit:10;"/><text fill="#334155" font-family="Helvetica" font-size="12" lengthAdjust="spacing" textLength="64.7109" x="661.01" y="171.2402">Read on Init</text></g><?plantuml-src PLBBRjj03BplLx2vsn_GGmwnvS10x1XIWiA00MChqUwY4YdiKaNKeFyUhbPgPEIY1sUuCnpkDqTbtLK8hUSBXk2ORBsGNzZWqdLDROHR48QVBC8DLCvZAKeohIr_sol2tTuIAmf57mIREx01zW_m_adOOSE-XnKtBHEI39In-6xYUPQkTIHck-Vyk6og4nNYkr8wZnMyODFMLZ2rhUSDvxCZ9-VpikrFjEEgq-AM1Ft5beb_E9f_Nwsks2SuVjnw6DhjC29aT7MKYDd-SSvQiTBU10wUImsDVHBBdrSgDnCye0zEOo619zjZeXN2Fg8tkXkdpnJXYJI2YJLqR8hveTcRMjGjmSnhI2udvEReru0UYhJRn7ijibnFZ2zOBExZTF1zei3QYZMn5A4uKyJSbTp5bLOdsTA5pL0V24U5VtWdEExKQ2K2kxK2ELAbwjCEZHOZjYaK6yCn-ZFZsmhKmrRtEf47XITMO8nzKXYzwHB-kEfJVdAMfXfxEaqbnw0tCE3_uOO0af5uxTrVlMuvjdN_0G00?></g></svg>