<svg xmlns="http://www.w3.org/2000/svg" xmlns:xlink="http://www.w3.org/1999/xlink" contentStyleType="text/css" data-diagram-type="ACTIVITY" height="876px" preserveAspectRatio="none" style="width:716px;height:876px;background:#FFFFFF;" version="1.1" viewBox="0 0 716 876" width="716px" zoomAndPan="magnify"><?plantuml 1.2026.5?><defs/><rect data-xfeat-white-canvas="true" fill="#FFFFFF" height="100%" width="100%" x="0" y="0"/><g><ellipse cx="249.9155" cy="25" fill="#222222" rx="10" ry="10" style="stroke:#222222;stroke-width:1;"/><rect fill="#F0F4F8" height="32" rx="12.5" ry="12.5" style="stroke:#486581;stroke-width:0.5;" width="118.0684" x="190.8813" y="55"/><text fill="#102A43" font-family="Helvetica" font-size="12" lengthAdjust="spacing" textLength="98.0684" x="200.8813" y="74.2402">Load portfolio.json</text><rect fill="#F0F4F8" height="32" rx="12.5" ry="12.5" style="stroke:#486581;stroke-width:0.5;" width="135.3828" x="182.2241" y="155"/><text fill="#102A43" font-family="Helvetica" font-size="12" lengthAdjust="spacing" textLength="115.3828" x="192.2241" y="174.2402">missing-status finding</text><ellipse cx="249.9155" cy="227.5" fill="none" rx="11" ry="11" style="stroke:#222222;stroke-width:1;"/><ellipse cx="249.9155" cy="227.5" fill="#222222" rx="6" ry="6" style="stroke:#222222;stroke-width:1;"/><polygon fill="#F0F4F8" points="203.751,107,296.0801,107,308.0801,119,296.0801,131,203.751,131,191.751,119,203.751,107" style="stroke:#486581;stroke-width:0.5;stroke-linejoin:miter;stroke-miterlimit:10;"/><text fill="#000000" font-family="Helvetica" font-size="11" lengthAdjust="spacing" textLength="12.2354" x="253.9155" y="139.4702">no</text><text fill="#102A43" font-family="Helvetica" font-size="11" lengthAdjust="spacing" textLength="92.3291" x="203.751" y="121.9702">status file present?</text><rect fill="#F0F4F8" height="32" rx="12.5" ry="12.5" style="stroke:#486581;stroke-width:0.5;" width="142.7305" x="178.5503" y="280.5"/><text fill="#102A43" font-family="Helvetica" font-size="12" lengthAdjust="spacing" textLength="122.7305" x="188.5503" y="299.7402">For each repo in status</text><polygon fill="#F0F4F8" points="208.0291,332.5,291.802,332.5,303.802,344.5,291.802,356.5,208.0291,356.5,196.0291,344.5,208.0291,332.5" style="stroke:#486581;stroke-width:0.5;stroke-linejoin:miter;stroke-miterlimit:10;"/><text fill="#102A43" font-family="Helvetica" font-size="11" lengthAdjust="spacing" textLength="83.7729" x="208.0291" y="347.4702">repo path exists?</text><text fill="#000000" font-family="Helvetica" font-size="11" lengthAdjust="spacing" textLength="12.2354" x="183.7937" y="341.9702">no</text><text fill="#000000" font-family="Helvetica" font-size="11" lengthAdjust="spacing" textLength="17.1177" x="303.802" y="341.9702">yes</text><rect fill="#F0F4F8" height="32" rx="12.5" ry="12.5" style="stroke:#486581;stroke-width:0.5;" width="127.3848" x="16" y="366.5"/><text fill="#102A43" font-family="Helvetica" font-size="12" lengthAdjust="spacing" textLength="107.3848" x="26" y="385.7402">missing-repo finding</text><rect fill="#F0F4F8" height="32" rx="12.5" ry="12.5" style="stroke:#486581;stroke-width:0.5;" width="137.3984" x="361.4395" y="366.5"/><text fill="#102A43" font-family="Helvetica" font-size="12" lengthAdjust="spacing" textLength="117.3984" x="371.4395" y="385.7402">For each evidence file</text><polygon fill="#F0F4F8" points="197.4006,418.5,248.7537,418.5,260.7537,430.5,248.7537,442.5,197.4006,442.5,185.4006,430.5,197.4006,418.5" style="stroke:#486581;stroke-width:0.5;stroke-linejoin:miter;stroke-miterlimit:10;"/><text fill="#000000" font-family="Helvetica" font-size="11" lengthAdjust="spacing" textLength="12.2354" x="227.0771" y="450.9702">no</text><text fill="#102A43" font-family="Helvetica" font-size="11" lengthAdjust="spacing" textLength="51.353" x="197.4006" y="433.4702">file exists?</text><rect fill="#F0F4F8" height="32" rx="12.5" ry="12.5" style="stroke:#486581;stroke-width:0.5;" width="139.3848" x="153.3848" y="472.4702"/><text fill="#102A43" font-family="Helvetica" font-size="12" lengthAdjust="spacing" textLength="119.3848" x="163.3848" y="491.7104">missing-source finding</text><polygon fill="#F0F4F8" points="348.2402,418.5,424.6816,418.5,436.6816,430.5,424.6816,442.5,348.2402,442.5,336.2402,430.5,348.2402,418.5" style="stroke:#486581;stroke-width:0.5;stroke-linejoin:miter;stroke-miterlimit:10;"/><text fill="#000000" font-family="Helvetica" font-size="11" lengthAdjust="spacing" textLength="12.2354" x="390.4609" y="450.9702">no</text><text fill="#102A43" font-family="Helvetica" font-size="11" lengthAdjust="spacing" textLength="76.4414" x="348.2402" y="433.4702">hash recorded?</text><rect fill="#F0F4F8" height="32" rx="12.5" ry="12.5" style="stroke:#486581;stroke-width:0.5;" width="147.3828" x="312.7695" y="472.4702"/><text fill="#102A43" font-family="Helvetica" font-size="12" lengthAdjust="spacing" textLength="127.3828" x="322.7695" y="491.7104">unverifiable (over 1 MB)</text><polygon fill="#F0F4F8" points="512.7944,418.5,607.5728,418.5,619.5728,430.5,607.5728,442.5,512.7944,442.5,500.7944,430.5,512.7944,418.5" style="stroke:#486581;stroke-width:0.5;stroke-linejoin:miter;stroke-miterlimit:10;"/><text fill="#000000" font-family="Helvetica" font-size="11" lengthAdjust="spacing" textLength="12.2354" x="564.1836" y="450.9702">no</text><text fill="#102A43" font-family="Helvetica" font-size="11" lengthAdjust="spacing" textLength="94.7783" x="512.7944" y="433.4702">line hash matches?</text><text fill="#000000" font-family="Helvetica" font-size="11" lengthAdjust="spacing" textLength="17.1177" x="619.5728" y="427.9702">yes</text><rect fill="#F0F4F8" height="44" rx="12.5" ry="12.5" style="stroke:#486581;stroke-width:0.5;" width="160.0625" x="480.1523" y="472.4702"/><text fill="#102A43" font-family="Helvetica" font-size="12" lengthAdjust="spacing" textLength="136.7695" x="490.1523" y="491.7104">changed-evidence finding</text><text fill="#102A43" font-family="Helvetica" font-size="12" lengthAdjust="spacing" textLength="140.0625" x="490.1523" y="503.7104">(moved line: warning only)</text><rect fill="#F0F4F8" height="32" rx="12.5" ry="12.5" style="stroke:#486581;stroke-width:0.5;" width="46.6777" x="650.2148" y="475.9702"/><text fill="#102A43" font-family="Helvetica" font-size="12" lengthAdjust="spacing" textLength="26.6777" x="660.2148" y="495.2104">fresh</text><polygon fill="#F0F4F8" points="249.9155,542.4702,261.9155,554.4702,249.9155,566.4702,237.9155,554.4702,249.9155,542.4702" style="stroke:#486581;stroke-width:0.5;stroke-linejoin:miter;stroke-miterlimit:10;"/><rect fill="#F0F4F8" height="32" rx="12.5" ry="12.5" style="stroke:#486581;stroke-width:0.5;" width="175.4316" x="162.1997" y="586.4702"/><text fill="#102A43" font-family="Helvetica" font-size="12" lengthAdjust="spacing" textLength="155.4316" x="172.1997" y="605.7104">Check generated pages exist</text><rect fill="#F0F4F8" height="32" rx="12.5" ry="12.5" style="stroke:#486581;stroke-width:0.5;" width="154.0859" x="172.8726" y="686.4702"/><text fill="#102A43" font-family="Helvetica" font-size="12" lengthAdjust="spacing" textLength="134.0859" x="182.8726" y="705.7104">changed-manifest finding</text><polygon fill="#F0F4F8" points="169.2068,638.4702,330.6243,638.4702,342.6243,650.4702,330.6243,662.4702,169.2068,662.4702,157.2068,650.4702,169.2068,638.4702" style="stroke:#486581;stroke-width:0.5;stroke-linejoin:miter;stroke-miterlimit:10;"/><text fill="#000000" font-family="Helvetica" font-size="11" lengthAdjust="spacing" textLength="12.2354" x="253.9155" y="670.9404">no</text><text fill="#102A43" font-family="Helvetica" font-size="11" lengthAdjust="spacing" textLength="161.4175" x="169.2068" y="653.4404">portfolio manifest hash matches?</text><polygon fill="#F0F4F8" points="249.9155,738.4702,261.9155,750.4702,249.9155,762.4702,237.9155,750.4702,249.9155,738.4702" style="stroke:#486581;stroke-width:0.5;stroke-linejoin:miter;stroke-miterlimit:10;"/><rect fill="#F0F4F8" height="32" rx="12.5" ry="12.5" style="stroke:#486581;stroke-width:0.5;" width="182.0996" x="158.8657" y="782.4702"/><text fill="#102A43" font-family="Helvetica" font-size="12" lengthAdjust="spacing" textLength="162.0996" x="168.8657" y="801.7104">Exit 0 when no findings, else 1</text><ellipse cx="249.9155" cy="845.4702" fill="none" rx="11" ry="11" style="stroke:#222222;stroke-width:1;"/><ellipse cx="249.9155" cy="845.4702" fill="#222222" rx="6" ry="6" style="stroke:#222222;stroke-width:1;"/><line style="stroke:#334E68;stroke-width:1;" x1="249.9155" x2="249.9155" y1="35" y2="55"/><polygon fill="#334E68" points="245.9155,45,249.9155,55,253.9155,45,249.9155,49" style="stroke:#334E68;stroke-width:1;stroke-linejoin:miter;stroke-miterlimit:10;"/><line style="stroke:#334E68;stroke-width:1;" x1="249.9155" x2="249.9155" y1="187" y2="216.5"/><polygon fill="#334E68" points="245.9155,206.5,249.9155,216.5,253.9155,206.5,249.9155,210.5" style="stroke:#334E68;stroke-width:1;stroke-linejoin:miter;stroke-miterlimit:10;"/><line style="stroke:#334E68;stroke-width:1;" x1="249.9155" x2="249.9155" y1="131" y2="155"/><polygon fill="#334E68" points="245.9155,145,249.9155,155,253.9155,145,249.9155,149" style="stroke:#334E68;stroke-width:1;stroke-linejoin:miter;stroke-miterlimit:10;"/><line style="stroke:#334E68;stroke-width:1;" x1="308.0801" x2="327.6069" y1="119" y2="119"/><polygon fill="#334E68" points="323.6069,186.5,327.6069,196.5,331.6069,186.5,327.6069,190.5" style="stroke:#334E68;stroke-width:1;stroke-linejoin:miter;stroke-miterlimit:10;"/><line style="stroke:#334E68;stroke-width:1;" x1="327.6069" x2="327.6069" y1="119" y2="260.5"/><line style="stroke:#334E68;stroke-width:1;" x1="327.6069" x2="249.9155" y1="260.5" y2="260.5"/><line style="stroke:#334E68;stroke-width:1;" x1="249.9155" x2="249.9155" y1="260.5" y2="280.5"/><polygon fill="#334E68" points="245.9155,270.5,249.9155,280.5,253.9155,270.5,249.9155,274.5" style="stroke:#334E68;stroke-width:1;stroke-linejoin:miter;stroke-miterlimit:10;"/><line style="stroke:#334E68;stroke-width:1;" x1="249.9155" x2="249.9155" y1="87" y2="107"/><polygon fill="#334E68" points="245.9155,97,249.9155,107,253.9155,97,249.9155,101" style="stroke:#334E68;stroke-width:1;stroke-linejoin:miter;stroke-miterlimit:10;"/><line style="stroke:#334E68;stroke-width:1;" x1="223.0771" x2="223.0771" y1="442.5" y2="472.4702"/><polygon fill="#334E68" points="219.0771,462.4702,223.0771,472.4702,227.0771,462.4702,223.0771,466.4702" style="stroke:#334E68;stroke-width:1;stroke-linejoin:miter;stroke-miterlimit:10;"/><line style="stroke:#334E68;stroke-width:1;" x1="223.0771" x2="223.0771" y1="504.4702" y2="536.4702"/><polygon fill="#334E68" points="219.0771,526.4702,223.0771,536.4702,227.0771,526.4702,223.0771,530.4702" style="stroke:#334E68;stroke-width:1;stroke-linejoin:miter;stroke-miterlimit:10;"/><line style="stroke:#334E68;stroke-width:1;" x1="386.4609" x2="386.4609" y1="442.5" y2="472.4702"/><polygon fill="#334E68" points="382.4609,462.4702,386.4609,472.4702,390.4609,462.4702,386.4609,466.4702" style="stroke:#334E68;stroke-width:1;stroke-linejoin:miter;stroke-miterlimit:10;"/><line style="stroke:#334E68;stroke-width:1;" x1="386.4609" x2="386.4609" y1="504.4702" y2="536.4702"/><polygon fill="#334E68" points="382.4609,526.4702,386.4609,536.4702,390.4609,526.4702,386.4609,530.4702" style="stroke:#334E68;stroke-width:1;stroke-linejoin:miter;stroke-miterlimit:10;"/><line style="stroke:#334E68;stroke-width:1;" x1="560.1836" x2="560.1836" y1="442.5" y2="472.4702"/><polygon fill="#334E68" points="556.1836,462.4702,560.1836,472.4702,564.1836,462.4702,560.1836,466.4702" style="stroke:#334E68;stroke-width:1;stroke-linejoin:miter;stroke-miterlimit:10;"/><line style="stroke:#334E68;stroke-width:1;" x1="560.1836" x2="560.1836" y1="516.4702" y2="536.4702"/><polygon fill="#334E68" points="556.1836,526.4702,560.1836,536.4702,564.1836,526.4702,560.1836,530.4702" style="stroke:#334E68;stroke-width:1;stroke-linejoin:miter;stroke-miterlimit:10;"/><line style="stroke:#334E68;stroke-width:1;" x1="260.7537" x2="336.2402" y1="430.5" y2="430.5"/><polygon fill="#334E68" points="326.2402,426.5,336.2402,430.5,326.2402,434.5,330.2402,430.5" style="stroke:#334E68;stroke-width:1;stroke-linejoin:miter;stroke-miterlimit:10;"/><line style="stroke:#334E68;stroke-width:1;" x1="436.6816" x2="500.7944" y1="430.5" y2="430.5"/><polygon fill="#334E68" points="490.7944,426.5,500.7944,430.5,490.7944,434.5,494.7944,430.5" style="stroke:#334E68;stroke-width:1;stroke-linejoin:miter;stroke-miterlimit:10;"/><line style="stroke:#334E68;stroke-width:1;" x1="430.1387" x2="430.1387" y1="398.5" y2="403.5"/><line style="stroke:#334E68;stroke-width:1;" x1="430.1387" x2="223.0771" y1="403.5" y2="403.5"/><line style="stroke:#334E68;stroke-width:1;" x1="223.0771" x2="223.0771" y1="403.5" y2="418.5"/><polygon fill="#334E68" points="219.0771,408.5,223.0771,418.5,227.0771,408.5,223.0771,412.5" style="stroke:#334E68;stroke-width:1;stroke-linejoin:miter;stroke-miterlimit:10;"/><line style="stroke:#334E68;stroke-width:1;" x1="619.5728" x2="673.5537" y1="430.5" y2="430.5"/><line style="stroke:#334E68;stroke-width:1;" x1="673.5537" x2="673.5537" y1="430.5" y2="475.9702"/><polygon fill="#334E68" points="669.5537,465.9702,673.5537,475.9702,677.5537,465.9702,673.5537,469.9702" style="stroke:#334E68;stroke-width:1;stroke-linejoin:miter;stroke-miterlimit:10;"/><line style="stroke:#334E68;stroke-width:1;" x1="673.5537" x2="673.5537" y1="507.9702" y2="536.4702"/><polygon fill="#334E68" points="669.5537,526.4702,673.5537,536.4702,677.5537,526.4702,673.5537,530.4702" style="stroke:#334E68;stroke-width:1;stroke-linejoin:miter;stroke-miterlimit:10;"/><line style="stroke:#334E68;stroke-width:1;" x1="223.0771" x2="673.5537" y1="536.4702" y2="536.4702"/><line style="stroke:#334E68;stroke-width:1;" x1="196.0291" x2="79.6924" y1="344.5" y2="344.5"/><line style="stroke:#334E68;stroke-width:1;" x1="79.6924" x2="79.6924" y1="344.5" y2="366.5"/><polygon fill="#334E68" points="75.6924,356.5,79.6924,366.5,83.6924,356.5,79.6924,360.5" style="stroke:#334E68;stroke-width:1;stroke-linejoin:miter;stroke-miterlimit:10;"/><line style="stroke:#334E68;stroke-width:1;" x1="303.802" x2="430.1387" y1="344.5" y2="344.5"/><line style="stroke:#334E68;stroke-width:1;" x1="430.1387" x2="430.1387" y1="344.5" y2="366.5"/><polygon fill="#334E68" points="426.1387,356.5,430.1387,366.5,434.1387,356.5,430.1387,360.5" style="stroke:#334E68;stroke-width:1;stroke-linejoin:miter;stroke-miterlimit:10;"/><line style="stroke:#334E68;stroke-width:1;" x1="79.6924" x2="79.6924" y1="398.5" y2="554.4702"/><line style="stroke:#334E68;stroke-width:1;" x1="79.6924" x2="237.9155" y1="554.4702" y2="554.4702"/><polygon fill="#334E68" points="227.9155,550.4702,237.9155,554.4702,227.9155,558.4702,231.9155,554.4702" style="stroke:#334E68;stroke-width:1;stroke-linejoin:miter;stroke-miterlimit:10;"/><line style="stroke:#334E68;stroke-width:1;" x1="430.1387" x2="430.1387" y1="536.4702" y2="554.4702"/><line style="stroke:#334E68;stroke-width:1;" x1="430.1387" x2="261.9155" y1="554.4702" y2="554.4702"/><polygon fill="#334E68" points="271.9155,550.4702,261.9155,554.4702,271.9155,558.4702,267.9155,554.4702" style="stroke:#334E68;stroke-width:1;stroke-linejoin:miter;stroke-miterlimit:10;"/><line style="stroke:#334E68;stroke-width:1;" x1="249.9155" x2="249.9155" y1="312.5" y2="332.5"/><polygon fill="#334E68" points="245.9155,322.5,249.9155,332.5,253.9155,322.5,249.9155,326.5" style="stroke:#334E68;stroke-width:1;stroke-linejoin:miter;stroke-miterlimit:10;"/><line style="stroke:#334E68;stroke-width:1;" x1="249.9155" x2="249.9155" y1="566.4702" y2="586.4702"/><polygon fill="#334E68" points="245.9155,576.4702,249.9155,586.4702,253.9155,576.4702,249.9155,580.4702" style="stroke:#334E68;stroke-width:1;stroke-linejoin:miter;stroke-miterlimit:10;"/><line style="stroke:#334E68;stroke-width:1;" x1="249.9155" x2="249.9155" y1="662.4702" y2="686.4702"/><polygon fill="#334E68" points="245.9155,676.4702,249.9155,686.4702,253.9155,676.4702,249.9155,680.4702" style="stroke:#334E68;stroke-width:1;stroke-linejoin:miter;stroke-miterlimit:10;"/><line style="stroke:#334E68;stroke-width:1;" x1="342.6243" x2="354.6243" y1="650.4702" y2="650.4702"/><polygon fill="#334E68" points="350.6243,692.4702,354.6243,702.4702,358.6243,692.4702,354.6243,696.4702" style="stroke:#334E68;stroke-width:1;stroke-linejoin:miter;stroke-miterlimit:10;"/><line style="stroke:#334E68;stroke-width:1;" x1="354.6243" x2="354.6243" y1="650.4702" y2="750.4702"/><line style="stroke:#334E68;stroke-width:1;" x1="354.6243" x2="261.9155" y1="750.4702" y2="750.4702"/><polygon fill="#334E68" points="271.9155,746.4702,261.9155,750.4702,271.9155,754.4702,267.9155,750.4702" style="stroke:#334E68;stroke-width:1;stroke-linejoin:miter;stroke-miterlimit:10;"/><line style="stroke:#334E68;stroke-width:1;" x1="249.9155" x2="249.9155" y1="718.4702" y2="738.4702"/><polygon fill="#334E68" points="245.9155,728.4702,249.9155,738.4702,253.9155,728.4702,249.9155,732.4702" style="stroke:#334E68;stroke-width:1;stroke-linejoin:miter;stroke-miterlimit:10;"/><line style="stroke:#334E68;stroke-width:1;" x1="249.9155" x2="249.9155" y1="618.4702" y2="638.4702"/><polygon fill="#334E68" points="245.9155,628.4702,249.9155,638.4702,253.9155,628.4702,249.9155,632.4702" style="stroke:#334E68;stroke-width:1;stroke-linejoin:miter;stroke-miterlimit:10;"/><line style="stroke:#334E68;stroke-width:1;" x1="249.9155" x2="249.9155" y1="762.4702" y2="782.4702"/><polygon fill="#334E68" points="245.9155,772.4702,249.9155,782.4702,253.9155,772.4702,249.9155,776.4702" style="stroke:#334E68;stroke-width:1;stroke-linejoin:miter;stroke-miterlimit:10;"/><line style="stroke:#334E68;stroke-width:1;" x1="249.9155" x2="249.9155" y1="814.4702" y2="834.4702"/><polygon fill="#334E68" points="245.9155,824.4702,249.9155,834.4702,253.9155,824.4702,249.9155,828.4702" style="stroke:#334E68;stroke-width:1;stroke-linejoin:miter;stroke-miterlimit:10;"/><?plantuml-src VLBBRjim4BppAnReHGQImAxTmB0FGHD4wA7f5_Io4PSYOsafa9GTe-Y_bwGCLa0Ul94xEpExGtymFA337fwnERJEZYmVR6STVAdp4RuWl4PfJuPRKDXvcbKaAHoxK5iElx0d-47TaO9fS8R19fYZ2MVu8m3khPFaBaARxUstxIg-flxBsshvzVjcdP1lR2thJRqLV-VKpjdJfRnURnvljqBuW2w8tK-B4WRhWhATiJSltl9U60LLh8VHWp8TmU384uUx1GHD31NRHLJUzSRxEErrWRACrtqi-M07GV6gnAwEgeID1aU31SCmmIUL_3PWq42lnWV_aKJ65G6AsuNgJ3vZYW0TZIHkA9jEDf927k1Tyla4TdIvhqoG95AxHf-SDoaF-PPWv2Cvemm-HvNAnWkiuEb-CQVe31DadXv3e-aT7ur6RabUpoR8JdvprKTI2ObZ1oTqdBwNvUvS9CeY8e-AGUbSoBk_9F2WgJb0IqmEGoGRi2K_xMHAeUGV7R9HvCDdVelR0luVp2Ju-6e2BE6KchZavgyclwkzIF_Z7m00?></g></svg>