<svg xmlns="http://www.w3.org/2000/svg" xmlns:xlink="http://www.w3.org/1999/xlink" contentStyleType="text/css" data-diagram-type="DESCRIPTION" height="305px" preserveAspectRatio="none" style="width:1224px;height:305px;background:#FFFFFF;" version="1.1" viewBox="0 0 1224 305" width="1224px" zoomAndPan="magnify"><?plantuml 1.2026.5?><defs/><g><!--entity repo--><g class="entity" data-qualified-name="repo" data-source-line="21" id="ent0001"><rect fill="#F0F4F8" height="48" rx="2.5" ry="2.5" style="stroke:#486581;stroke-width:0.5;" width="193.5234" x="7" y="144.5"/><text fill="#102A43" font-family="Helvetica" font-size="14" lengthAdjust="spacing" textLength="66.917" x="17" y="165.2803">Repository</text><text fill="#102A43" font-family="Helvetica" font-size="14" lengthAdjust="spacing" textLength="173.5234" x="17" y="179.2803">(source, docs, git metadata)</text></g><!--entity init--><g class="entity" data-qualified-name="init" data-source-line="22" id="ent0002"><rect fill="#F0F4F8" height="48" rx="2.5" ry="2.5" style="stroke:#486581;stroke-width:0.5;" width="89.2275" x="261.52" y="29.5"/><text fill="#102A43" font-family="Helvetica" font-size="14" lengthAdjust="spacing" textLength="52.1377" x="271.52" y="50.2803">xfeat init</text><text fill="#102A43" font-family="Helvetica" font-size="14" lengthAdjust="spacing" textLength="69.2275" x="271.52" y="64.2803">(.xfeat.yml)</text></g><!--entity scan--><g class="entity" data-qualified-name="scan" data-source-line="23" id="ent0003"><rect fill="#F0F4F8" height="48" rx="2.5" ry="2.5" style="stroke:#486581;stroke-width:0.5;" width="136.293" x="411.75" y="90.5"/><text fill="#102A43" font-family="Helvetica" font-size="14" lengthAdjust="spacing" textLength="63.8135" x="421.75" y="111.2803">xfeat scan</text><text fill="#102A43" font-family="Helvetica" font-size="14" lengthAdjust="spacing" textLength="116.293" x="421.75" y="125.2803">(symbols + claims)</text></g><!--entity docs--><g class="entity" data-qualified-name="docs" data-source-line="24" id="ent0004"><path d="M665.04,16 C665.04,6 747.019,6 747.019,6 C747.019,6 828.998,6 828.998,16 L828.998,53 C828.998,63 747.019,63 747.019,63 C747.019,63 665.04,63 665.04,53 L665.04,16" fill="#D9E2EC" style="stroke:#486581;stroke-width:0.5;"/><path d="M665.04,16 C665.04,26 747.019,26 747.019,26 C747.019,26 828.998,26 828.998,16" fill="none" style="stroke:#486581;stroke-width:0.5;"/><text fill="#102A43" font-family="Helvetica" font-size="14" lengthAdjust="spacing" textLength="33.4619" x="675.04" y="40.7803">docs/</text><text fill="#102A43" font-family="Helvetica" font-size="14" lengthAdjust="spacing" textLength="143.958" x="675.04" y="54.7803">professional markdown</text></g><!--entity status--><g class="entity" data-qualified-name="status" data-source-line="25" id="ent0005"><path d="M684.5,133 C684.5,123 747.0273,123 747.0273,123 C747.0273,123 809.5547,123 809.5547,133 L809.5547,170 C809.5547,180 747.0273,180 747.0273,180 C747.0273,180 684.5,180 684.5,170 L684.5,133" fill="#D9E2EC" style="stroke:#486581;stroke-width:0.5;"/><path d="M684.5,133 C684.5,143 747.0273,143 747.0273,143 C747.0273,143 809.5547,143 809.5547,133" fill="none" style="stroke:#486581;stroke-width:0.5;"/><text fill="#102A43" font-family="Helvetica" font-size="14" lengthAdjust="spacing" textLength="105.0547" x="694.5" y="157.7803">.xfeat/status.json</text><text fill="#102A43" font-family="Helvetica" font-size="14" lengthAdjust="spacing" textLength="92.5996" x="694.5" y="171.7803">claim evidence</text></g><!--entity audit--><g class="entity" data-qualified-name="audit" data-source-line="26" id="ent0006"><rect fill="#F0F4F8" height="48" rx="2.5" ry="2.5" style="stroke:#486581;stroke-width:0.5;" width="120.7617" x="890" y="29.5"/><text fill="#102A43" font-family="Helvetica" font-size="14" lengthAdjust="spacing" textLength="64.5996" x="900" y="50.2803">xfeat audit</text><text fill="#102A43" font-family="Helvetica" font-size="14" lengthAdjust="spacing" textLength="100.7617" x="900" y="64.2803">stale refs + links</text></g><!--entity ci--><g class="entity" data-qualified-name="ci" data-source-line="27" id="ent0007"><rect fill="#F0F4F8" height="48" rx="2.5" ry="2.5" style="stroke:#486581;stroke-width:0.5;" width="138.3027" x="1071.76" y="144.5"/><text fill="#102A43" font-family="Helvetica" font-size="14" lengthAdjust="spacing" textLength="89.4688" x="1081.76" y="165.2803">xfeat verify / ci</text><text fill="#102A43" font-family="Helvetica" font-size="14" lengthAdjust="spacing" textLength="118.3027" x="1081.76" y="179.2803">noninteractive gate</text></g><!--link repo to init--><g class="link" data-entity-1="ent0001" data-entity-2="ent0002" data-link-type="dependency" data-source-line="29" id="lnk8"><path d="M147.26,144.11 C181.26,124.6 224.3839,99.8496 258.3639,80.3396" fill="none" id="repo-to-init" style="stroke:#334E68;stroke-width:1.2;"/><polygon fill="#334E68" points="262.7,77.85,252.9033,78.8624,258.3639,80.3396,256.8867,85.8002,262.7,77.85" style="stroke:#334E68;stroke-width:1.2;stroke-linejoin:miter;stroke-miterlimit:10;"/></g><!--link repo to scan--><g class="link" data-entity-1="ent0001" data-entity-2="ent0003" data-link-type="dependency" data-source-line="30" id="lnk9"><path d="M200.63,154.66 C266.55,145.15 347.5414,133.4651 406.3614,124.9651" fill="none" id="repo-to-scan" style="stroke:#334E68;stroke-width:1.2;"/><polygon fill="#334E68" points="411.31,124.25,401.8304,121.5783,406.3614,124.9651,402.9746,129.4961,411.31,124.25" style="stroke:#334E68;stroke-width:1.2;stroke-linejoin:miter;stroke-miterlimit:10;"/></g><!--link init to scan--><g class="link" data-entity-1="ent0002" data-entity-2="ent0003" data-link-type="dependency" data-source-line="31" id="lnk10"><path d="M350.92,69.05 C369.31,75.58 386.4078,81.6581 406.7578,88.8781" fill="none" id="init-to-scan" style="stroke:#334E68;stroke-width:1.2;"/><polygon fill="#334E68" points="411.47,90.55,404.3255,83.7709,406.7578,88.8781,401.6505,91.3104,411.47,90.55" style="stroke:#334E68;stroke-width:1.2;stroke-linejoin:miter;stroke-miterlimit:10;"/></g><!--link scan to docs--><g class="link" data-entity-1="ent0003" data-entity-2="ent0004" data-link-type="dependency" data-source-line="32" id="lnk11"><path d="M548.49,94.11 C583.93,83.41 622.8131,71.674 660.0731,60.434" fill="none" id="scan-to-docs" style="stroke:#334E68;stroke-width:1.2;"/><polygon fill="#334E68" points="664.86,58.99,655.0883,57.7597,660.0731,60.434,657.3988,65.4188,664.86,58.99" style="stroke:#334E68;stroke-width:1.2;stroke-linejoin:miter;stroke-miterlimit:10;"/></g><!--link scan to status--><g class="link" data-entity-1="ent0003" data-entity-2="ent0005" data-link-type="dependency" data-source-line="33" id="lnk12"><path d="M548.49,123.93 C590.22,129.76 638.4081,136.4781 679.0581,142.1581" fill="none" id="scan-to-status" style="stroke:#334E68;stroke-width:1.2;"/><polygon fill="#334E68" points="684.01,142.85,675.6501,137.643,679.0581,142.1581,674.5431,145.566,684.01,142.85" style="stroke:#334E68;stroke-width:1.2;stroke-linejoin:miter;stroke-miterlimit:10;"/></g><!--link docs to audit--><g class="link" data-entity-1="ent0004" data-entity-2="ent0006" data-link-type="dependency" data-source-line="34" id="lnk13"><path d="M829.34,42.17 C849.54,44.08 865.832,45.6219 884.762,47.4019" fill="none" id="docs-to-audit" style="stroke:#334E68;stroke-width:1.2;"/><polygon fill="#334E68" points="889.74,47.87,881.154,43.045,884.762,47.4019,880.4051,51.0099,889.74,47.87" style="stroke:#334E68;stroke-width:1.2;stroke-linejoin:miter;stroke-miterlimit:10;"/></g><!--link status to audit--><g class="link" data-entity-1="ent0005" data-entity-2="ent0006" data-link-type="dependency" data-source-line="35" id="lnk14"><path d="M807.35,122.63 C836.58,108.4 866.9539,93.6175 894.8239,80.0575" fill="none" id="status-to-audit" style="stroke:#334E68;stroke-width:1.2;"/><polygon fill="#334E68" points="899.32,77.87,889.477,78.2107,894.8239,80.0575,892.9771,85.4044,899.32,77.87" style="stroke:#334E68;stroke-width:1.2;stroke-linejoin:miter;stroke-miterlimit:10;"/></g><!--link audit to ci--><g class="link" data-entity-1="ent0006" data-entity-2="ent0007" data-link-type="dependency" data-source-line="36" id="lnk15"><path d="M991.37,77.89 C1023.36,97.4 1063.7416,122.036 1095.7216,141.546" fill="none" id="audit-to-ci" style="stroke:#334E68;stroke-width:1.2;"/><polygon fill="#334E68" points="1099.99,144.15,1094.3901,136.0481,1095.7216,141.546,1090.2237,142.8775,1099.99,144.15" style="stroke:#334E68;stroke-width:1.2;stroke-linejoin:miter;stroke-miterlimit:10;"/></g><!--link status to ci--><g class="link" data-entity-1="ent0005" data-entity-2="ent0007" data-link-type="dependency" data-source-line="37" id="lnk16"><path d="M809.69,154.17 C880.82,157.26 992.4447,162.1031 1066.3647,165.3131" fill="none" id="status-to-ci" style="stroke:#334E68;stroke-width:1.2;"/><polygon fill="#334E68" points="1071.36,165.53,1062.542,161.1433,1066.3647,165.3131,1062.1949,169.1358,1071.36,165.53" style="stroke:#334E68;stroke-width:1.2;stroke-linejoin:miter;stroke-miterlimit:10;"/></g><!--link ci to repo--><g class="link" data-entity-1="ent0007" data-entity-2="ent0001" data-link-type="dependency" data-source-line="38" id="lnk17"><path d="M1119.81,192.9 C1088.05,228.5 1022.53,290.5 951.38,290.5 C305.14,290.5 305.14,290.5 305.14,290.5 C230.81,290.5 164.0823,232.1072 129.9123,196.5072" fill="none" id="ci-to-repo" style="stroke:#334E68;stroke-width:1.2;"/><polygon fill="#334E68" points="126.45,192.9,129.7964,202.1629,129.9123,196.5072,135.568,196.6232,126.45,192.9" style="stroke:#334E68;stroke-width:1.2;stroke-linejoin:miter;stroke-miterlimit:10;"/><text fill="#000000" font-family="Helvetica" font-size="13" lengthAdjust="spacing" textLength="55.6372" x="579.04" y="286.5103">PR signal</text></g><?plantuml-src fL9DZzCm4BtdLup21SHklwaA1wHbQSK9eHN7NgRE91tYU2BRxL8X_Zks4xf6FP93b7dlpRoPfxYMJOyMEpYWQXih9rCzYXOBhtRfATnLuOvOoJER1chKZZAceXfFsk_4-A_O4NmXVIRF2ZED9UNHD9hWLm7mIMn5TdHQRTRlDlE0nW4ZDfyj7bRBgBpPQxPRxJR5xzmVFHxG_VVep--tY-tZFwFHMdaUwULojLrlCl8Xaj-Fh5f3pi5yiiX88nKvwc4zorD0quvWeQdsu0KiDqSF5SU4M4nHl4HLFb4lZhtOozwyTdAoYkwW4kNke64F7NcCnxyf0Ls8k9Uy-MTDw84D-z0yITNaqkb17E5RiLDeejEbEuXsy1QKHkxSq1B9uffr6TUOxarlfGxNXyrHGuUs3J-9IVeeoFJ31bFdqP_Sv8UJu9J60vsv8gDeS4dyxMfugk8XWGwOfJfkfpd4cReIUzjq9ilr1QQWU6-C63QUB8QSpmGD-i5HSSoy5xY___Wtbx5A9qVefOglLANphjMuTWHJFImqe1cGtgaEhXaRAiNfAtb_WFBR4pXkGgZb7m00?></g></svg>