<svg xmlns="http://www.w3.org/2000/svg" xmlns:xlink="http://www.w3.org/1999/xlink" contentStyleType="text/css" data-diagram-type="DESCRIPTION" height="267px" preserveAspectRatio="none" style="width:1064px;height:267px;background:#FFFFFF;" version="1.1" viewBox="0 0 1064 267" width="1064px" zoomAndPan="magnify"><?plantuml 1.2026.5?><defs/><rect data-xfeat-white-canvas="true" fill="#FFFFFF" height="100%" width="100%" x="0" y="0"/><g><!--entity model--><g class="entity" data-qualified-name="model" data-source-line="12" id="ent0001"><rect fill="#F0F4F8" height="48" rx="2.5" ry="2.5" style="stroke:#486581;stroke-width:0.5;" width="172.4961" x="7" y="205"/><text fill="#102A43" font-family="Helvetica" font-size="14" lengthAdjust="spacing" textLength="93.3789" x="17" y="225.7803">Portfolio model</text><text fill="#102A43" font-family="Helvetica" font-size="14" lengthAdjust="spacing" textLength="152.4961" x="17" y="239.7803">(claims with line hashes)</text></g><!--entity builder--><g class="entity" data-qualified-name="builder" data-source-line="13" id="ent0002"><rect fill="#F0F4F8" height="34" rx="2.5" ry="2.5" style="stroke:#486581;stroke-width:0.5;" width="105.5996" x="349.5" y="164"/><text fill="#102A43" font-family="Helvetica" font-size="14" lengthAdjust="spacing" textLength="85.5996" x="359.5" y="184.7803">Check builder</text></g><!--entity checks--><g class="entity" data-qualified-name="checks" data-source-line="14" id="ent0003"><rect fill="#F0F4F8" height="48" rx="2.5" ry="2.5" style="stroke:#486581;stroke-width:0.5;" width="157.3408" x="647.1" y="74"/><text fill="#102A43" font-family="Helvetica" font-size="14" lengthAdjust="spacing" textLength="73.1445" x="657.1" y="94.7803">checks.json</text><text fill="#102A43" font-family="Helvetica" font-size="14" lengthAdjust="spacing" textLength="137.3408" x="657.1" y="108.7803">(questions + answers)</text></g><!--entity learn--><g class="entity" data-qualified-name="learn" data-source-line="15" id="ent0004"><rect fill="#F0F4F8" height="48" rx="2.5" ry="2.5" style="stroke:#486581;stroke-width:0.5;" width="108.7168" x="671.41" y="157"/><text fill="#102A43" font-family="Helvetica" font-size="14" lengthAdjust="spacing" textLength="54.4688" x="681.41" y="177.7803">learn.md</text><text fill="#102A43" font-family="Helvetica" font-size="14" lengthAdjust="spacing" textLength="88.7168" x="681.41" y="191.7803">(ordered path)</text></g><!--entity questions--><g class="entity" data-qualified-name="questions" data-source-line="16" id="ent0005"><rect fill="#F0F4F8" height="48" rx="2.5" ry="2.5" style="stroke:#486581;stroke-width:0.5;" width="133.627" x="916.44" y="7"/><text fill="#102A43" font-family="Helvetica" font-size="14" lengthAdjust="spacing" textLength="113.627" x="926.44" y="27.7803">portfolio questions</text><text fill="#102A43" font-family="Helvetica" font-size="14" lengthAdjust="spacing" textLength="80.917" x="926.44" y="41.7803">(no answers)</text></g><!--entity grade--><g class="entity" data-qualified-name="grade" data-source-line="17" id="ent0006"><rect fill="#F0F4F8" height="48" rx="2.5" ry="2.5" style="stroke:#486581;stroke-width:0.5;" width="119.5791" x="923.46" y="90"/><text fill="#102A43" font-family="Helvetica" font-size="14" lengthAdjust="spacing" textLength="89.5029" x="933.46" y="110.7803">portfolio grade</text><text fill="#102A43" font-family="Helvetica" font-size="14" lengthAdjust="spacing" textLength="99.5791" x="933.46" y="124.7803">(score answers)</text></g><!--entity verify--><g class="entity" data-qualified-name="verify" data-source-line="18" id="ent0007"><rect fill="#F0F4F8" height="48" rx="2.5" ry="2.5" style="stroke:#486581;stroke-width:0.5;" width="118.0137" x="924.24" y="179"/><text fill="#102A43" font-family="Helvetica" font-size="14" lengthAdjust="spacing" textLength="87.1445" x="934.24" y="199.7803">portfolio verify</text><text fill="#102A43" font-family="Helvetica" font-size="14" lengthAdjust="spacing" textLength="98.0137" x="934.24" y="213.7803">(re-read claims)</text></g><!--link model to builder--><g class="link" data-entity-1="ent0001" data-entity-2="ent0002" data-link-type="dependency" data-source-line="20" id="lnk8"><path d="M179.78,215.63 C234.25,207.11 298.1,197.1325 344.46,189.8825" fill="none" id="model-to-builder" style="stroke:#334E68;stroke-width:1;"/><polygon fill="#334E68" points="349.4,189.11,339.89,186.5486,344.46,189.8825,341.1261,194.4525,349.4,189.11" style="stroke:#334E68;stroke-width:1;stroke-linejoin:miter;stroke-miterlimit:10;"/><text fill="#000000" font-family="Helvetica" font-size="13" lengthAdjust="spacing" textLength="108.3926" x="210.5" y="189.8803">declared facts only</text></g><!--link builder to checks--><g class="link" data-entity-1="ent0002" data-entity-2="ent0003" data-link-type="dependency" data-source-line="21" id="lnk9"><path d="M455.16,166.17 C465.08,163.41 475.4,160.58 485.1,158 C538.88,143.71 594.8645,129.6834 641.7745,118.1534" fill="none" id="builder-to-checks" style="stroke:#334E68;stroke-width:1;"/><polygon fill="#334E68" points="646.63,116.96,636.9354,115.2238,641.7745,118.1534,638.8449,122.9926,646.63,116.96" style="stroke:#334E68;stroke-width:1;stroke-linejoin:miter;stroke-miterlimit:10;"/></g><!--link builder to learn--><g class="link" data-entity-1="ent0002" data-entity-2="ent0004" data-link-type="dependency" data-source-line="22" id="lnk10"><path d="M455.3,181 C514.57,181 605.95,181 665.96,181" fill="none" id="builder-to-learn" style="stroke:#334E68;stroke-width:1;"/><polygon fill="#334E68" points="670.96,181,661.96,177,665.96,181,661.96,185,670.96,181" style="stroke:#334E68;stroke-width:1;stroke-linejoin:miter;stroke-miterlimit:10;"/><text fill="#000000" font-family="Helvetica" font-size="13" lengthAdjust="spacing" textLength="130.0571" x="486.1" y="177.0103">max 3 checks per step</text></g><!--link checks to questions--><g class="link" data-entity-1="ent0003" data-entity-2="ent0005" data-link-type="dependency" data-source-line="23" id="lnk11"><path d="M804.81,77.53 C840.47,68.18 877.4138,58.4994 911.4738,49.5594" fill="none" id="checks-to-questions" style="stroke:#334E68;stroke-width:1;"/><polygon fill="#334E68" points="916.31,48.29,906.5894,46.706,911.4738,49.5594,908.6204,54.4438,916.31,48.29" style="stroke:#334E68;stroke-width:1;stroke-linejoin:miter;stroke-miterlimit:10;"/></g><!--link checks to grade--><g class="link" data-entity-1="ent0003" data-entity-2="ent0006" data-link-type="dependency" data-source-line="24" id="lnk12"><path d="M804.81,102.89 C842.96,105.28 883.1297,107.7983 918.3497,109.9983" fill="none" id="checks-to-grade" style="stroke:#334E68;stroke-width:1;"/><polygon fill="#334E68" points="923.34,110.31,914.6069,105.7567,918.3497,109.9983,914.1081,113.7411,923.34,110.31" style="stroke:#334E68;stroke-width:1;stroke-linejoin:miter;stroke-miterlimit:10;"/></g><!--link checks to verify--><g class="link" data-entity-1="ent0003" data-entity-2="ent0007" data-link-type="dependency" data-source-line="25" id="lnk13"><path d="M786.34,122.49 C827.78,139.51 878.1155,160.199 919.2755,177.119" fill="none" id="checks-to-verify" style="stroke:#334E68;stroke-width:1;"/><polygon fill="#334E68" points="923.9,179.02,917.0967,171.8985,919.2755,177.119,914.0551,179.2977,923.9,179.02" style="stroke:#334E68;stroke-width:1;stroke-linejoin:miter;stroke-miterlimit:10;"/><text fill="#000000" font-family="Helvetica" font-size="13" lengthAdjust="spacing" textLength="50.5654" x="835.44" y="140.2203">claim ids</text></g><!--link model to verify--><g class="link" data-entity-1="ent0001" data-entity-2="ent0007" data-link-type="dependency" data-source-line="26" id="lnk14"><path d="M179.89,231.13 C313.44,233.82 579.36,236.57 804.44,223 C844.44,220.59 884.3204,216.1643 918.9604,211.7343" fill="none" id="model-to-verify" style="stroke:#334E68;stroke-width:1;"/><polygon fill="#334E68" points="923.92,211.1,914.4853,208.274,918.9604,211.7343,915.5001,216.2094,923.92,211.1" style="stroke:#334E68;stroke-width:1;stroke-linejoin:miter;stroke-miterlimit:10;"/><text fill="#000000" font-family="Helvetica" font-size="13" lengthAdjust="spacing" textLength="65.7681" x="518.6" y="226.9303">line hashes</text></g><?plantuml-src RP9DJiD038NtSmeBDY1K1BIWYWKI82fMY0EmCHad6JeP1tjAGOYxC_aX7GHP9NxVi_siwDg55WKRUCPYNGblWhrbpmBxg_unEX5Qe-Mj2nMKw9KonLA96nzN7E83DWJtvDyekW8pHgY862fFy6a0RbWioJXfiRmuNvwcQjTWh9sUd5qlvXtvPw-JrMArD5zPRnJXxIZFvukxYwNnL4Q83EAgEe9rtNZ7mPZT7dkFBB5axnWQjkIVma7XqJKAMnThy2uGrAWrwU4Ue0vGxh-jgLZ3yyRvbAL7nlSSAZf8Zr-KGnhmkY7jzb0u0Wow9HcR3rXkz8GIZXkRNFsno4ABiHxmNipfTieoZKZ6mB-dJDh_rahGKh9fmKA_dRtql-kDn9KVoIOq4q8BmnK7to0QqnyFPhEhdnl1PVfj4jdbAh682XpyX_bHEtAyILxgSoThW-ym7m5eawYHMZD-T-0kQLOSGcI5ORlKhryPdDLiqKdC_eHl?></g></svg>